<svg xmlns="http://www.w3.org/2000/svg" xmlns:xlink="http://www.w3.org/1999/xlink" width="465.987" height="381.711" viewBox="0 0 465.987 381.711">
  <defs>
    <linearGradient id="linear-gradient" x1="0.5" x2="0.5" y2="1" gradientUnits="objectBoundingBox">
      <stop offset="0" stop-color="#4dd0e1"/>
      <stop offset="1" stop-color="#039be5"/>
    </linearGradient>
    <filter id="Rectángulo_44495" x="0" y="42.357" width="171.791" height="57.021" filterUnits="userSpaceOnUse">
      <feOffset dy="3" input="SourceAlpha"/>
      <feGaussianBlur stdDeviation="3" result="blur"/>
      <feFlood flood-opacity="0.161"/>
      <feComposite operator="in" in2="blur"/>
      <feComposite in="SourceGraphic"/>
    </filter>
    <linearGradient id="linear-gradient-2" x1="0.5" x2="0.5" y2="1" gradientUnits="objectBoundingBox">
      <stop offset="0" stop-color="#039be5"/>
      <stop offset="1" stop-color="#027fbc"/>
    </linearGradient>
    <filter id="Rectángulo_44507" x="293.987" y="42.711" width="172" height="151" filterUnits="userSpaceOnUse">
      <feOffset dy="3" input="SourceAlpha"/>
      <feGaussianBlur stdDeviation="3" result="blur-2"/>
      <feFlood flood-opacity="0.161"/>
      <feComposite operator="in" in2="blur-2"/>
      <feComposite in="SourceGraphic"/>
    </filter>
    <filter id="Rectángulo_44496" x="0" y="89.412" width="171.791" height="57.021" filterUnits="userSpaceOnUse">
      <feOffset dy="3" input="SourceAlpha"/>
      <feGaussianBlur stdDeviation="3" result="blur-3"/>
      <feFlood flood-opacity="0.161"/>
      <feComposite operator="in" in2="blur-3"/>
      <feComposite in="SourceGraphic"/>
    </filter>
    <filter id="Rectángulo_44498" x="0" y="136.468" width="171.791" height="57.021" filterUnits="userSpaceOnUse">
      <feOffset dy="3" input="SourceAlpha"/>
      <feGaussianBlur stdDeviation="3" result="blur-4"/>
      <feFlood flood-opacity="0.161"/>
      <feComposite operator="in" in2="blur-4"/>
      <feComposite in="SourceGraphic"/>
    </filter>
    <filter id="Rectángulo_44499" x="0" y="183.523" width="171.791" height="57.021" filterUnits="userSpaceOnUse">
      <feOffset dy="3" input="SourceAlpha"/>
      <feGaussianBlur stdDeviation="3" result="blur-5"/>
      <feFlood flood-opacity="0.161"/>
      <feComposite operator="in" in2="blur-5"/>
      <feComposite in="SourceGraphic"/>
    </filter>
    <filter id="Rectángulo_44508" x="293.987" y="183.711" width="172" height="57" filterUnits="userSpaceOnUse">
      <feOffset dy="3" input="SourceAlpha"/>
      <feGaussianBlur stdDeviation="3" result="blur-6"/>
      <feFlood flood-opacity="0.161"/>
      <feComposite operator="in" in2="blur-6"/>
      <feComposite in="SourceGraphic"/>
    </filter>
    <filter id="Rectángulo_44500" x="0" y="230.579" width="171.791" height="57.021" filterUnits="userSpaceOnUse">
      <feOffset dy="3" input="SourceAlpha"/>
      <feGaussianBlur stdDeviation="3" result="blur-7"/>
      <feFlood flood-opacity="0.161"/>
      <feComposite operator="in" in2="blur-7"/>
      <feComposite in="SourceGraphic"/>
    </filter>
    <filter id="Rectángulo_44509" x="293.987" y="230.711" width="172" height="57" filterUnits="userSpaceOnUse">
      <feOffset dy="3" input="SourceAlpha"/>
      <feGaussianBlur stdDeviation="3" result="blur-8"/>
      <feFlood flood-opacity="0.161"/>
      <feComposite operator="in" in2="blur-8"/>
      <feComposite in="SourceGraphic"/>
    </filter>
    <filter id="Rectángulo_44501" x="0" y="324.689" width="171.791" height="57.021" filterUnits="userSpaceOnUse">
      <feOffset dy="3" input="SourceAlpha"/>
      <feGaussianBlur stdDeviation="3" result="blur-9"/>
      <feFlood flood-opacity="0.161"/>
      <feComposite operator="in" in2="blur-9"/>
      <feComposite in="SourceGraphic"/>
    </filter>
    <filter id="Rectángulo_44502" x="0" y="277.634" width="171.791" height="57.021" filterUnits="userSpaceOnUse">
      <feOffset dy="3" input="SourceAlpha"/>
      <feGaussianBlur stdDeviation="3" result="blur-10"/>
      <feFlood flood-opacity="0.161"/>
      <feComposite operator="in" in2="blur-10"/>
      <feComposite in="SourceGraphic"/>
    </filter>
    <filter id="Rectángulo_44510" x="293.987" y="277.711" width="172" height="104" filterUnits="userSpaceOnUse">
      <feOffset dy="3" input="SourceAlpha"/>
      <feGaussianBlur stdDeviation="3" result="blur-11"/>
      <feFlood flood-opacity="0.161"/>
      <feComposite operator="in" in2="blur-11"/>
      <feComposite in="SourceGraphic"/>
    </filter>
  </defs>
  <g id="Grupo_151191" data-name="Grupo 151191" transform="translate(-883.689 -9036.289)">
    <rect id="Rectángulo_44503" data-name="Rectángulo 44503" width="294" height="133" transform="translate(969.676 9085)" fill="#e8e8e8"/>
    <rect id="Rectángulo_44504" data-name="Rectángulo 44504" width="294" height="39" transform="translate(969.676 9226)" fill="#e8e8e8"/>
    <rect id="Rectángulo_44505" data-name="Rectángulo 44505" width="294" height="39" transform="translate(969.676 9273)" fill="#e8e8e8"/>
    <rect id="Rectángulo_44506" data-name="Rectángulo 44506" width="294" height="86" transform="translate(969.676 9320)" fill="#e8e8e8"/>
    <g transform="matrix(1, 0, 0, 1, 883.69, 9036.29)" filter="url(#Rectángulo_44495)">
      <g id="Rectángulo_44495-2" data-name="Rectángulo 44495" transform="translate(9 48.36)" stroke="#12263f" stroke-width="1" fill="url(#linear-gradient)">
        <rect width="153.791" height="39.022" rx="5" stroke="none"/>
        <rect x="0.5" y="0.5" width="152.791" height="38.022" rx="4.5" fill="none"/>
      </g>
    </g>
    <g transform="matrix(1, 0, 0, 1, 883.69, 9036.29)" filter="url(#Rectángulo_44507)">
      <rect id="Rectángulo_44507-2" data-name="Rectángulo 44507" width="154" height="133" rx="5" transform="translate(302.99 48.71)" fill="url(#linear-gradient-2)"/>
    </g>
    <g transform="matrix(1, 0, 0, 1, 883.69, 9036.29)" filter="url(#Rectángulo_44496)">
      <g id="Rectángulo_44496-2" data-name="Rectángulo 44496" transform="translate(9 95.41)" stroke="#12263f" stroke-width="1" fill="url(#linear-gradient)">
        <rect width="153.791" height="39.022" rx="5" stroke="none"/>
        <rect x="0.5" y="0.5" width="152.791" height="38.022" rx="4.5" fill="none"/>
      </g>
    </g>
    <g transform="matrix(1, 0, 0, 1, 883.69, 9036.29)" filter="url(#Rectángulo_44498)">
      <g id="Rectángulo_44498-2" data-name="Rectángulo 44498" transform="translate(9 142.47)" stroke="#12263f" stroke-width="1" fill="url(#linear-gradient)">
        <rect width="153.791" height="39.022" rx="5" stroke="none"/>
        <rect x="0.5" y="0.5" width="152.791" height="38.022" rx="4.5" fill="none"/>
      </g>
    </g>
    <g transform="matrix(1, 0, 0, 1, 883.69, 9036.29)" filter="url(#Rectángulo_44499)">
      <g id="Rectángulo_44499-2" data-name="Rectángulo 44499" transform="translate(9 189.52)" stroke="#12263f" stroke-width="1" fill="url(#linear-gradient)">
        <rect width="153.791" height="39.022" rx="5" stroke="none"/>
        <rect x="0.5" y="0.5" width="152.791" height="38.022" rx="4.5" fill="none"/>
      </g>
    </g>
    <g transform="matrix(1, 0, 0, 1, 883.69, 9036.29)" filter="url(#Rectángulo_44508)">
      <rect id="Rectángulo_44508-2" data-name="Rectángulo 44508" width="154" height="39" rx="5" transform="translate(302.99 189.71)" fill="url(#linear-gradient-2)"/>
    </g>
    <g transform="matrix(1, 0, 0, 1, 883.69, 9036.29)" filter="url(#Rectángulo_44500)">
      <g id="Rectángulo_44500-2" data-name="Rectángulo 44500" transform="translate(9 236.58)" stroke="#12263f" stroke-width="1" fill="url(#linear-gradient)">
        <rect width="153.791" height="39.022" rx="5" stroke="none"/>
        <rect x="0.5" y="0.5" width="152.791" height="38.022" rx="4.5" fill="none"/>
      </g>
    </g>
    <g transform="matrix(1, 0, 0, 1, 883.69, 9036.29)" filter="url(#Rectángulo_44509)">
      <rect id="Rectángulo_44509-2" data-name="Rectángulo 44509" width="154" height="39" rx="5" transform="translate(302.99 236.71)" fill="url(#linear-gradient-2)"/>
    </g>
    <g transform="matrix(1, 0, 0, 1, 883.69, 9036.29)" filter="url(#Rectángulo_44501)">
      <g id="Rectángulo_44501-2" data-name="Rectángulo 44501" transform="translate(9 330.69)" stroke="#12263f" stroke-width="1" fill="url(#linear-gradient)">
        <rect width="153.791" height="39.022" rx="5" stroke="none"/>
        <rect x="0.5" y="0.5" width="152.791" height="38.022" rx="4.5" fill="none"/>
      </g>
    </g>
    <path id="Trazado_195420" data-name="Trazado 195420" d="M-34.233-2.76h-4.148L-39.243,0h-2.681l4.315-12.8h2.628l4.3,12.8h-2.681Zm-3.516-2.013h2.892l-1.415-4.509h-.053Zm16.26.281A5.462,5.462,0,0,1-22.465-1.1,3.227,3.227,0,0,1-25.189.185a3.045,3.045,0,0,1-1.327-.277,2.726,2.726,0,0,1-.993-.813V3.656h-2.558V-9.51h2.312l.149,1.125a3.047,3.047,0,0,1,1.015-.962,2.746,2.746,0,0,1,1.384-.338,3.165,3.165,0,0,1,2.742,1.38,6.159,6.159,0,0,1,.976,3.63Zm-2.566-.185a4.6,4.6,0,0,0-.448-2.18,1.462,1.462,0,0,0-1.371-.835,1.938,1.938,0,0,0-.989.237,1.693,1.693,0,0,0-.646.677V-2.61A1.573,1.573,0,0,0-26.864-2a2.176,2.176,0,0,0,1.006.211,1.476,1.476,0,0,0,1.367-.729,3.851,3.851,0,0,0,.435-1.978ZM-17.209,0h-2.566V-13.711h2.566ZM-12.4,0h-2.566V-9.51H-12.4Zm0-11.786h-2.566v-1.925H-12.4Zm6.082,10a1.428,1.428,0,0,0,1.063-.4,1.452,1.452,0,0,0,.4-1.068h2.338L-2.5-3.2A2.976,2.976,0,0,1-3.577-.787,4.01,4.01,0,0,1-6.319.185,4.052,4.052,0,0,1-9.58-1.165a5.128,5.128,0,0,1-1.151-3.45v-.264a5.161,5.161,0,0,1,1.147-3.45A4.016,4.016,0,0,1-6.337-9.686a3.922,3.922,0,0,1,2.8,1A3.348,3.348,0,0,1-2.5-6.047l-.018.053H-4.86A1.9,1.9,0,0,0-5.251-7.22a1.314,1.314,0,0,0-1.085-.488,1.465,1.465,0,0,0-1.411.8,4.362,4.362,0,0,0-.417,2.035v.264a4.346,4.346,0,0,0,.417,2.048A1.485,1.485,0,0,0-6.319-1.784ZM4.6,0a5.4,5.4,0,0,1-.242-.686,4.769,4.769,0,0,1-.145-.738A3.518,3.518,0,0,1,3.164-.272,2.621,2.621,0,0,1,1.617.185a3.211,3.211,0,0,1-2.3-.769,2.755,2.755,0,0,1-.809-2.1A2.508,2.508,0,0,1-.417-4.847a5.377,5.377,0,0,1,3.142-.769H4.166v-.756a1.48,1.48,0,0,0-.36-1.063,1.414,1.414,0,0,0-1.072-.378,1.394,1.394,0,0,0-.962.3,1.059,1.059,0,0,0-.338.831h-2.47l-.018-.053A2.412,2.412,0,0,1,0-8.811a4.562,4.562,0,0,1,2.9-.875,4.257,4.257,0,0,1,2.773.861,3,3,0,0,1,1.059,2.47v3.929a7.43,7.43,0,0,0,.1,1.257A6.307,6.307,0,0,0,7.154,0ZM2.25-1.714a2.187,2.187,0,0,0,1.2-.334,1.8,1.8,0,0,0,.721-.773V-4.166H2.725a1.708,1.708,0,0,0-1.235.4,1.329,1.329,0,0,0-.417.993A.992.992,0,0,0,1.384-2,1.234,1.234,0,0,0,2.25-1.714Zm10.38-.07a1.428,1.428,0,0,0,1.063-.4,1.452,1.452,0,0,0,.4-1.068h2.338l.018.053A2.976,2.976,0,0,1,15.372-.787,4.01,4.01,0,0,1,12.63.185,4.052,4.052,0,0,1,9.369-1.165a5.128,5.128,0,0,1-1.151-3.45v-.264a5.161,5.161,0,0,1,1.147-3.45,4.016,4.016,0,0,1,3.248-1.358,3.922,3.922,0,0,1,2.8,1,3.348,3.348,0,0,1,1.028,2.637l-.018.053H14.089A1.9,1.9,0,0,0,13.7-7.22a1.314,1.314,0,0,0-1.085-.488,1.465,1.465,0,0,0-1.411.8,4.362,4.362,0,0,0-.417,2.035v.264A4.346,4.346,0,0,0,11.2-2.566,1.485,1.485,0,0,0,12.63-1.784ZM20.637,0H18.07V-9.51h2.566Zm0-11.786H18.07v-1.925h2.566Zm1.714,6.943a5.1,5.1,0,0,1,1.187-3.485,4.136,4.136,0,0,1,3.287-1.358,4.18,4.18,0,0,1,3.3,1.354,5.076,5.076,0,0,1,1.2,3.489v.185a5.084,5.084,0,0,1-1.191,3.494A4.162,4.162,0,0,1,26.842.185a4.173,4.173,0,0,1-3.3-1.349,5.084,5.084,0,0,1-1.191-3.494Zm2.558.185a4.137,4.137,0,0,0,.457,2.087,1.578,1.578,0,0,0,1.477.787A1.562,1.562,0,0,0,28.3-2.575a4.11,4.11,0,0,0,.461-2.083v-.185a4.068,4.068,0,0,0-.466-2.065,1.576,1.576,0,0,0-1.468-.8,1.557,1.557,0,0,0-1.455.8,4.1,4.1,0,0,0-.461,2.061Zm2.435-8.912H30.2l.018.053-2.435,2.285H25.594Zm7.91,4.061.114,1.362a3.478,3.478,0,0,1,1.169-1.134,3.034,3.034,0,0,1,1.556-.4,2.828,2.828,0,0,1,2.25.927,4.4,4.4,0,0,1,.809,2.931V0H38.575V-5.818a2.277,2.277,0,0,0-.356-1.446,1.312,1.312,0,0,0-1.068-.426,2.241,2.241,0,0,0-1.006.215,1.965,1.965,0,0,0-.716.593V0H32.862V-9.51Z" transform="translate(969.12 9110.828)" fill="#fff"/>
    <path id="Trazado_195419" data-name="Trazado 195419" d="M-39.023-3.366h.053l3.287-9.431h3.349V0H-34.9V-8.736l-.053-.009L-38.118,0h-1.74l-3.164-8.763-.053.009V0h-2.566V-12.8h3.366Zm8.455-1.477a5.1,5.1,0,0,1,1.187-3.485,4.136,4.136,0,0,1,3.287-1.358,4.18,4.18,0,0,1,3.3,1.354,5.076,5.076,0,0,1,1.2,3.489v.185a5.084,5.084,0,0,1-1.191,3.494A4.162,4.162,0,0,1-26.077.185a4.173,4.173,0,0,1-3.3-1.349,5.084,5.084,0,0,1-1.191-3.494Zm2.558.185a4.137,4.137,0,0,0,.457,2.087,1.578,1.578,0,0,0,1.477.787,1.562,1.562,0,0,0,1.455-.791,4.11,4.11,0,0,0,.461-2.083v-.185a4.068,4.068,0,0,0-.466-2.065,1.576,1.576,0,0,0-1.468-.8,1.557,1.557,0,0,0-1.455.8,4.1,4.1,0,0,0-.461,2.061Zm7.6-.018a6.18,6.18,0,0,1,.971-3.63A3.154,3.154,0,0,1-16.7-9.686a2.663,2.663,0,0,1,1.283.308,3.087,3.087,0,0,1,1,.879v-5.212h2.575V0h-2.188l-.22-1.169A3.179,3.179,0,0,1-15.311-.163a2.812,2.812,0,0,1-1.406.347A3.215,3.215,0,0,1-19.437-1.1a5.479,5.479,0,0,1-.971-3.393Zm2.558.185a3.874,3.874,0,0,0,.422,1.964,1.469,1.469,0,0,0,1.371.716,2,2,0,0,0,.967-.224,1.788,1.788,0,0,0,.677-.655V-6.741a1.975,1.975,0,0,0-.672-.7,1.788,1.788,0,0,0-.954-.25,1.448,1.448,0,0,0-1.375.835,4.718,4.718,0,0,0-.435,2.18ZM-5.73.185A4.279,4.279,0,0,1-9.053-1.121a4.784,4.784,0,0,1-1.2-3.362v-.352a5.207,5.207,0,0,1,1.16-3.5A3.944,3.944,0,0,1-5.9-9.686a3.692,3.692,0,0,1,2.94,1.173,4.637,4.637,0,0,1,1.024,3.16v1.327H-7.6l-.026.053a2.569,2.569,0,0,0,.593,1.582,1.987,1.987,0,0,0,1.578.606A5.279,5.279,0,0,0-3.995-1.96,5.971,5.971,0,0,0-2.751-2.5l.694,1.582A4.764,4.764,0,0,1-3.6-.132,6.86,6.86,0,0,1-5.73.185ZM-5.9-7.708a1.425,1.425,0,0,0-1.191.532,2.667,2.667,0,0,0-.505,1.411l.018.044h3.129v-.193A2.221,2.221,0,0,0-4.79-7.229,1.268,1.268,0,0,0-5.9-7.708ZM2.259,0H-.308V-13.711H2.259ZM3.973-4.843A5.1,5.1,0,0,1,5.159-8.328,4.136,4.136,0,0,1,8.446-9.686a4.18,4.18,0,0,1,3.3,1.354,5.076,5.076,0,0,1,1.2,3.489v.185a5.084,5.084,0,0,1-1.191,3.494A4.162,4.162,0,0,1,8.464.185a4.173,4.173,0,0,1-3.3-1.349A5.084,5.084,0,0,1,3.973-4.658Zm2.558.185a4.137,4.137,0,0,0,.457,2.087,1.578,1.578,0,0,0,1.477.787,1.562,1.562,0,0,0,1.455-.791,4.11,4.11,0,0,0,.461-2.083v-.185a4.068,4.068,0,0,0-.466-2.065,1.576,1.576,0,0,0-1.468-.8,1.557,1.557,0,0,0-1.455.8A4.1,4.1,0,0,0,6.53-4.843Zm23.027-.589a5.373,5.373,0,0,1-1.485,3.9A5.142,5.142,0,0,1,24.205.185a5.1,5.1,0,0,1-3.85-1.538,5.4,5.4,0,0,1-1.477-3.894v-2.3a5.408,5.408,0,0,1,1.472-3.889,5.063,5.063,0,0,1,3.836-1.542,5.156,5.156,0,0,1,3.876,1.542A5.364,5.364,0,0,1,29.558-7.55ZM27-7.567a3.87,3.87,0,0,0-.747-2.452,2.474,2.474,0,0,0-2.065-.958,2.4,2.4,0,0,0-2.026.958,3.951,3.951,0,0,0-.725,2.452v2.32a3.979,3.979,0,0,0,.729,2.479,2.416,2.416,0,0,0,2.039.958,2.449,2.449,0,0,0,2.057-.958A3.946,3.946,0,0,0,27-5.247ZM38.259-3.34a1.5,1.5,0,0,0-.514-1.187,5.166,5.166,0,0,0-1.806-.844,10.264,10.264,0,0,1-3.362-1.573,2.977,2.977,0,0,1-1.147-2.47,3.106,3.106,0,0,1,1.292-2.571,5.236,5.236,0,0,1,3.3-1,5.2,5.2,0,0,1,3.423,1.072A3.354,3.354,0,0,1,40.693-9.1l-.018.053H38.188a1.864,1.864,0,0,0-.58-1.472,2.369,2.369,0,0,0-1.626-.514,2.148,2.148,0,0,0-1.468.457A1.488,1.488,0,0,0,34-9.4a1.277,1.277,0,0,0,.563,1.068,7.525,7.525,0,0,0,1.942.883,8.357,8.357,0,0,1,3.217,1.56,3.2,3.2,0,0,1,1.107,2.536A3.052,3.052,0,0,1,39.542-.765a5.571,5.571,0,0,1-3.393.949A6.062,6.062,0,0,1,32.6-.844a3.392,3.392,0,0,1-1.437-3.067l.018-.053h2.487a2.013,2.013,0,0,0,.668,1.67,2.812,2.812,0,0,0,1.811.536,2.471,2.471,0,0,0,1.569-.431A1.4,1.4,0,0,0,38.259-3.34ZM45.457,0H42.891V-12.8h2.566Z" transform="translate(968.381 9072.954)" fill="#12263f"/>
    <path id="Trazado_195428" data-name="Trazado 195428" d="M-52.714,0h-1.219V-9.242h1.219Zm3.447-3.618V0h-1.219V-9.242h3.409a3.425,3.425,0,0,1,2.377.774,2.625,2.625,0,0,1,.86,2.05,2.591,2.591,0,0,1-.841,2.073,3.578,3.578,0,0,1-2.409.727Zm0-1h2.19a2.19,2.19,0,0,0,1.5-.461,1.686,1.686,0,0,0,.521-1.332,1.742,1.742,0,0,0-.521-1.323,2.051,2.051,0,0,0-1.428-.515h-2.26Zm9.16,3.021,1.7-5.275h1.2L-39.67,0h-.9l-2.488-6.868h1.2ZM-31.24-3.1h1.282v.958H-31.24V0h-1.181V-2.146h-4.208v-.692l4.139-6.4h1.25Zm-4.056,0h2.875V-7.636l-.14.254Zm6.481,4.945-.667-.457A3.063,3.063,0,0,0-28.86-.33V-1.39h1.149v.92A2.891,2.891,0,0,1-28.025.813,3,3,0,0,1-28.815,1.841ZM-21.515,0h-1.219V-9.242h1.219Zm3.447-3.618V0h-1.219V-9.242h3.409a3.425,3.425,0,0,1,2.377.774,2.625,2.625,0,0,1,.86,2.05,2.591,2.591,0,0,1-.841,2.073,3.578,3.578,0,0,1-2.409.727Zm0-1h2.19a2.19,2.19,0,0,0,1.5-.461,1.686,1.686,0,0,0,.521-1.332,1.742,1.742,0,0,0-.521-1.323,2.051,2.051,0,0,0-1.428-.515h-2.26Zm9.16,3.021,1.7-5.275h1.2L-8.471,0h-.9l-2.488-6.868h1.2ZM-.39-9.249v1H-.606a3.092,3.092,0,0,0-2.184.813,3.381,3.381,0,0,0-.939,2.215,2.507,2.507,0,0,1,1.993-.838A2.4,2.4,0,0,1,.19-5.211a3.281,3.281,0,0,1,.72,2.2A3.27,3.27,0,0,1,.133-.73,2.678,2.678,0,0,1-1.952.127,2.638,2.638,0,0,1-4.1-.892a4.038,4.038,0,0,1-.825-2.625v-.451a6.084,6.084,0,0,1,1.089-3.9A4,4,0,0,1-.6-9.249ZM-1.933-5.084a1.874,1.874,0,0,0-1.111.362,1.885,1.885,0,0,0-.7.908v.432a3.032,3.032,0,0,0,.514,1.841,1.541,1.541,0,0,0,1.282.7A1.493,1.493,0,0,0-.7-1.428a2.423,2.423,0,0,0,.454-1.53A2.424,2.424,0,0,0-.711-4.5,1.475,1.475,0,0,0-1.933-5.084ZM2.384,1.841l-.667-.457A3.063,3.063,0,0,0,2.339-.33V-1.39H3.488v.92A2.891,2.891,0,0,1,3.174.813,3,3,0,0,1,2.384,1.841ZM9.683,0H8.465V-9.242H9.683ZM18.71-2.933A3.4,3.4,0,0,1,17.627-.67a3.547,3.547,0,0,1-2.422.8,3.257,3.257,0,0,1-2.625-1.174,4.724,4.724,0,0,1-.987-3.142v-.889a5.266,5.266,0,0,1,.46-2.266,3.438,3.438,0,0,1,1.3-1.5,3.632,3.632,0,0,1,1.955-.524,3.34,3.34,0,0,1,2.361.822A3.441,3.441,0,0,1,18.71-6.271H17.485a2.655,2.655,0,0,0-.689-1.6,2.084,2.084,0,0,0-1.482-.5,2.181,2.181,0,0,0-1.831.864,3.966,3.966,0,0,0-.663,2.459v.9a4.077,4.077,0,0,0,.628,2.4,2.031,2.031,0,0,0,1.758.889,2.345,2.345,0,0,0,1.558-.46,2.554,2.554,0,0,0,.72-1.6Zm3.237-6.31L24.969-1.7,27.99-9.242h1.581V0H28.352V-3.6l.114-3.885L25.432,0H24.5L21.471-7.465,21.592-3.6V0H20.373V-9.242ZM32.941-3.618V0H31.722V-9.242h3.409a3.425,3.425,0,0,1,2.377.774,2.625,2.625,0,0,1,.86,2.05,2.591,2.591,0,0,1-.841,2.073,3.578,3.578,0,0,1-2.409.727Zm0-1h2.19a2.19,2.19,0,0,0,1.5-.461,1.686,1.686,0,0,0,.521-1.332,1.742,1.742,0,0,0-.521-1.323A2.051,2.051,0,0,0,35.2-8.246h-2.26ZM42.1-1.593l1.7-5.275H45L42.539,0h-.9L39.156-6.868h1.2ZM50.969-3.1h1.282v.958H50.969V0H49.788V-2.146H45.579v-.692l4.139-6.4h1.25Zm-4.056,0h2.875V-7.636l-.14.254Zm6.481,4.945-.667-.457A3.063,3.063,0,0,0,53.349-.33V-1.39H54.5v.92A2.891,2.891,0,0,1,54.184.813,3,3,0,0,1,53.393,1.841ZM-20.24,14h-1.219V4.758h1.219Zm9.026-2.933A3.4,3.4,0,0,1-12.3,13.33a3.547,3.547,0,0,1-2.422.8,3.257,3.257,0,0,1-2.625-1.174,4.724,4.724,0,0,1-.987-3.142V8.922a5.266,5.266,0,0,1,.46-2.266,3.438,3.438,0,0,1,1.3-1.5,3.632,3.632,0,0,1,1.955-.524,3.34,3.34,0,0,1,2.361.822,3.441,3.441,0,0,1,1.035,2.276h-1.225a2.655,2.655,0,0,0-.689-1.6,2.084,2.084,0,0,0-1.482-.5,2.181,2.181,0,0,0-1.831.864A3.966,3.966,0,0,0-17.1,8.95v.9a4.077,4.077,0,0,0,.628,2.4,2.031,2.031,0,0,0,1.758.889,2.345,2.345,0,0,0,1.558-.46,2.554,2.554,0,0,0,.72-1.6Zm3.237-6.31L-4.954,12.3l3.021-7.541H-.352V14H-1.571V10.4l.114-3.885L-4.491,14h-.933L-8.452,6.535l.121,3.866V14H-9.55V4.758ZM3.018,10.382V14H1.8V4.758H5.208a3.425,3.425,0,0,1,2.377.774,2.625,2.625,0,0,1,.86,2.05A2.591,2.591,0,0,1,7.6,9.655a3.578,3.578,0,0,1-2.409.727Zm0-1h2.19a2.19,2.19,0,0,0,1.5-.461,1.686,1.686,0,0,0,.521-1.332,1.742,1.742,0,0,0-.521-1.323,2.051,2.051,0,0,0-1.428-.515H3.018Zm9.16,3.021,1.7-5.275h1.2L12.616,14h-.9L9.233,7.132h1.2ZM20.7,4.751v1h-.216a3.092,3.092,0,0,0-2.184.813,3.381,3.381,0,0,0-.939,2.215,2.507,2.507,0,0,1,1.993-.838,2.4,2.4,0,0,1,1.927.851,3.281,3.281,0,0,1,.72,2.2,3.27,3.27,0,0,1-.778,2.285,2.678,2.678,0,0,1-2.085.857,2.638,2.638,0,0,1-2.152-1.019,4.038,4.038,0,0,1-.825-2.625v-.451a6.084,6.084,0,0,1,1.089-3.9,4,4,0,0,1,3.24-1.381ZM19.154,8.916a1.974,1.974,0,0,0-1.815,1.27v.432a3.032,3.032,0,0,0,.514,1.841,1.541,1.541,0,0,0,1.282.7,1.493,1.493,0,0,0,1.247-.584,2.423,2.423,0,0,0,.454-1.53,2.424,2.424,0,0,0-.46-1.539A1.475,1.475,0,0,0,19.154,8.916Z" transform="translate(1113.676 9289)" fill="#12263f"/>
    <path id="Trazado_195427" data-name="Trazado 195427" d="M-51.676-3.618V0H-52.9V-9.242h3.409a3.425,3.425,0,0,1,2.377.774,2.625,2.625,0,0,1,.86,2.05,2.591,2.591,0,0,1-.841,2.073,3.578,3.578,0,0,1-2.409.727Zm0-1h2.19a2.19,2.19,0,0,0,1.5-.461,1.686,1.686,0,0,0,.521-1.332,1.742,1.742,0,0,0-.521-1.323,2.051,2.051,0,0,0-1.428-.515h-2.26Zm8.2,1V0h-1.219V-9.242h3.409a3.425,3.425,0,0,1,2.377.774,2.625,2.625,0,0,1,.86,2.05,2.591,2.591,0,0,1-.841,2.073,3.578,3.578,0,0,1-2.409.727Zm0-1h2.19a2.19,2.19,0,0,0,1.5-.461,1.686,1.686,0,0,0,.521-1.332,1.742,1.742,0,0,0-.521-1.323,2.051,2.051,0,0,0-1.428-.515h-2.26Zm8.2,1V0h-1.219V-9.242h3.409a3.425,3.425,0,0,1,2.377.774,2.625,2.625,0,0,1,.86,2.05,2.591,2.591,0,0,1-.841,2.073,3.578,3.578,0,0,1-2.409.727Zm0-1h2.19a2.19,2.19,0,0,0,1.5-.461,1.686,1.686,0,0,0,.521-1.332,1.742,1.742,0,0,0-.521-1.323,2.051,2.051,0,0,0-1.428-.515h-2.26Zm4.7,6.456-.667-.457A3.063,3.063,0,0,0-30.615-.33V-1.39h1.149v.92A2.891,2.891,0,0,1-29.78.813,3,3,0,0,1-30.57,1.841Zm9.128-7.655a3.519,3.519,0,0,0-.578-.044,1.547,1.547,0,0,0-1.568.984V0h-1.174V-6.868h1.143l.019.793A1.829,1.829,0,0,1-21.963-7a1.2,1.2,0,0,1,.521.089ZM-17.513.127A3,3,0,0,1-19.786-.79a3.4,3.4,0,0,1-.876-2.453v-.216a4.121,4.121,0,0,1,.39-1.825,3.045,3.045,0,0,1,1.092-1.257A2.745,2.745,0,0,1-17.659-7a2.572,2.572,0,0,1,2.082.882,3.82,3.82,0,0,1,.743,2.526V-3.1h-4.653a2.441,2.441,0,0,0,.594,1.641,1.866,1.866,0,0,0,1.444.625A2.045,2.045,0,0,0-16.4-1.085a2.648,2.648,0,0,0,.755-.673l.717.559A2.884,2.884,0,0,1-17.513.127Zm-.146-6.157a1.566,1.566,0,0,0-1.193.517,2.515,2.515,0,0,0-.6,1.45h3.44v-.089a2.237,2.237,0,0,0-.482-1.387A1.475,1.475,0,0,0-17.659-6.03Zm5.776-2.5v1.663H-10.6v.908h-1.282V-1.7a.953.953,0,0,0,.171.62.721.721,0,0,0,.584.207,2.843,2.843,0,0,0,.559-.076V0a3.424,3.424,0,0,1-.9.126,1.462,1.462,0,0,1-1.187-.476,2.045,2.045,0,0,1-.4-1.352V-5.96h-1.25v-.908h1.25V-8.531ZM-5.91-5.814a3.519,3.519,0,0,0-.578-.044,1.547,1.547,0,0,0-1.568.984V0H-9.229V-6.868h1.143l.019.793A1.829,1.829,0,0,1-6.43-7a1.2,1.2,0,0,1,.521.089ZM-.844,0a2.467,2.467,0,0,1-.165-.724A2.62,2.62,0,0,1-2.964.127,2.424,2.424,0,0,1-4.631-.448,1.859,1.859,0,0,1-5.281-1.9a1.942,1.942,0,0,1,.816-1.666,3.846,3.846,0,0,1,2.295-.594h1.143V-4.7A1.319,1.319,0,0,0-1.4-5.684a1.48,1.48,0,0,0-1.085-.365,1.712,1.712,0,0,0-1.054.317.935.935,0,0,0-.425.768H-5.142a1.621,1.621,0,0,1,.365-.993,2.491,2.491,0,0,1,.99-.759A3.331,3.331,0,0,1-2.412-7,2.715,2.715,0,0,1-.552-6.4a2.141,2.141,0,0,1,.7,1.635v3.161A3.865,3.865,0,0,0,.387-.1V0ZM-2.793-.9a2.064,2.064,0,0,0,1.047-.286,1.728,1.728,0,0,0,.717-.743V-3.333h-.92q-2.158,0-2.158,1.263a1.069,1.069,0,0,0,.368.863A1.415,1.415,0,0,0-2.793-.9ZM3.1-6.868,3.136-6A2.5,2.5,0,0,1,5.192-7q2.177,0,2.2,2.457V0H6.214V-4.545a1.581,1.581,0,0,0-.34-1.1A1.361,1.361,0,0,0,4.837-6a1.7,1.7,0,0,0-1,.3,2.069,2.069,0,0,0-.673.8V0H1.987V-6.868ZM13.159-1.822a.865.865,0,0,0-.359-.74,3.452,3.452,0,0,0-1.25-.454,5.912,5.912,0,0,1-1.416-.457,2.014,2.014,0,0,1-.774-.635,1.518,1.518,0,0,1-.251-.876,1.782,1.782,0,0,1,.714-1.428A2.789,2.789,0,0,1,11.648-7a2.87,2.87,0,0,1,1.895.6A1.915,1.915,0,0,1,14.27-4.85H13.089a1.06,1.06,0,0,0-.409-.832,1.534,1.534,0,0,0-1.031-.349,1.605,1.605,0,0,0-1,.279.879.879,0,0,0-.362.73.712.712,0,0,0,.336.641,4.139,4.139,0,0,0,1.216.413,6.334,6.334,0,0,1,1.425.47,2.079,2.079,0,0,1,.809.657,1.615,1.615,0,0,1,.263.936A1.758,1.758,0,0,1,13.6-.428a3.089,3.089,0,0,1-1.911.555,3.459,3.459,0,0,1-1.46-.292,2.375,2.375,0,0,1-.993-.816,1.966,1.966,0,0,1-.359-1.133h1.174a1.216,1.216,0,0,0,.473.936,1.835,1.835,0,0,0,1.165.346,1.894,1.894,0,0,0,1.07-.27A.829.829,0,0,0,13.159-1.822Zm3.809-5.046L17-6.106A2.536,2.536,0,0,1,19.037-7,1.964,1.964,0,0,1,21-5.891a2.6,2.6,0,0,1,.892-.8,2.634,2.634,0,0,1,1.3-.3q2.26,0,2.3,2.393V0H24.312V-4.532a1.577,1.577,0,0,0-.336-1.1A1.482,1.482,0,0,0,22.845-6a1.557,1.557,0,0,0-1.085.39,1.584,1.584,0,0,0-.5,1.051V0H20.078V-4.5A1.31,1.31,0,0,0,18.611-6a1.571,1.571,0,0,0-1.581.984V0H15.856V-6.868ZM28.533,0H27.358V-6.868h1.174Zm-1.27-8.69a.7.7,0,0,1,.175-.482.655.655,0,0,1,.517-.2.666.666,0,0,1,.521.2.694.694,0,0,1,.178.482.671.671,0,0,1-.178.476.678.678,0,0,1-.521.19.667.667,0,0,1-.517-.19A.678.678,0,0,1,27.263-8.69Zm7.147,6.868a.865.865,0,0,0-.359-.74,3.452,3.452,0,0,0-1.25-.454,5.912,5.912,0,0,1-1.416-.457,2.014,2.014,0,0,1-.774-.635,1.518,1.518,0,0,1-.251-.876,1.782,1.782,0,0,1,.714-1.428A2.789,2.789,0,0,1,32.9-7a2.87,2.87,0,0,1,1.895.6,1.915,1.915,0,0,1,.727,1.542H34.341a1.06,1.06,0,0,0-.409-.832A1.534,1.534,0,0,0,32.9-6.03a1.605,1.605,0,0,0-1,.279.879.879,0,0,0-.362.73.712.712,0,0,0,.336.641,4.139,4.139,0,0,0,1.216.413,6.334,6.334,0,0,1,1.425.47,2.079,2.079,0,0,1,.809.657,1.615,1.615,0,0,1,.263.936,1.758,1.758,0,0,1-.736,1.476,3.089,3.089,0,0,1-1.911.555,3.459,3.459,0,0,1-1.46-.292,2.375,2.375,0,0,1-.993-.816,1.966,1.966,0,0,1-.359-1.133H31.3a1.216,1.216,0,0,0,.473.936,1.835,1.835,0,0,0,1.165.346,1.894,1.894,0,0,0,1.07-.27A.829.829,0,0,0,34.411-1.822ZM38.391,0H37.216V-6.868h1.174Zm-1.27-8.69a.7.7,0,0,1,.175-.482.655.655,0,0,1,.517-.2.666.666,0,0,1,.521.2.694.694,0,0,1,.178.482.671.671,0,0,1-.178.476.678.678,0,0,1-.521.19.667.667,0,0,1-.517-.19A.678.678,0,0,1,37.121-8.69ZM39.958-3.5a4.057,4.057,0,0,1,.4-1.815,2.96,2.96,0,0,1,1.1-1.244A3.007,3.007,0,0,1,43.075-7a2.9,2.9,0,0,1,2.269.971,3.736,3.736,0,0,1,.866,2.583v.083a4.092,4.092,0,0,1-.384,1.8,2.916,2.916,0,0,1-1.1,1.241,3.041,3.041,0,0,1-1.641.444,2.889,2.889,0,0,1-2.263-.971,3.718,3.718,0,0,1-.866-2.571Zm1.181.14a2.938,2.938,0,0,0,.53,1.834,1.7,1.7,0,0,0,1.419.692,1.686,1.686,0,0,0,1.422-.7A3.213,3.213,0,0,0,45.037-3.5,2.933,2.933,0,0,0,44.5-5.329a1.705,1.705,0,0,0-1.425-.7,1.686,1.686,0,0,0-1.4.692A3.189,3.189,0,0,0,41.139-3.358ZM43.608-9.75H45.03l-1.7,1.866-.946,0Zm5.186,2.882L48.833-6A2.5,2.5,0,0,1,50.889-7q2.177,0,2.2,2.457V0H51.911V-4.545a1.581,1.581,0,0,0-.34-1.1A1.361,1.361,0,0,0,50.534-6a1.7,1.7,0,0,0-1,.3,2.069,2.069,0,0,0-.673.8V0H47.684V-6.868ZM-55.51,10.509a4.023,4.023,0,0,1,.749-2.542A2.369,2.369,0,0,1-52.8,7a2.382,2.382,0,0,1,1.911.825V4.25h1.174V14h-1.079l-.057-.736a2.391,2.391,0,0,1-1.961.863,2.346,2.346,0,0,1-1.946-.978A4.069,4.069,0,0,1-55.51,10.6Zm1.174.133a3.046,3.046,0,0,0,.482,1.828,1.56,1.56,0,0,0,1.333.66,1.713,1.713,0,0,0,1.631-1V8.973A1.726,1.726,0,0,0-52.508,8a1.567,1.567,0,0,0-1.346.667A3.354,3.354,0,0,0-54.336,10.642Zm9.293,3.485a3,3,0,0,1-2.272-.917,3.4,3.4,0,0,1-.876-2.453v-.216a4.121,4.121,0,0,1,.39-1.825,3.045,3.045,0,0,1,1.092-1.257A2.745,2.745,0,0,1-45.189,7a2.572,2.572,0,0,1,2.082.882,3.82,3.82,0,0,1,.743,2.526V10.9h-4.653a2.441,2.441,0,0,0,.594,1.641,1.866,1.866,0,0,0,1.444.625,2.045,2.045,0,0,0,1.054-.254,2.648,2.648,0,0,0,.755-.673l.717.559A2.884,2.884,0,0,1-45.043,14.127Zm-.146-6.157a1.566,1.566,0,0,0-1.193.517,2.515,2.515,0,0,0-.6,1.45h3.44V9.849a2.237,2.237,0,0,0-.482-1.387A1.475,1.475,0,0,0-45.189,7.97Zm8.995-2.5V7.132h1.282V8.04h-1.282V12.3a.953.953,0,0,0,.171.62.721.721,0,0,0,.584.207,2.843,2.843,0,0,0,.559-.076V14a3.424,3.424,0,0,1-.9.126,1.462,1.462,0,0,1-1.187-.476,2.045,2.045,0,0,1-.4-1.352V8.04h-1.25V7.132h1.25V5.469Zm5.973,2.717a3.519,3.519,0,0,0-.578-.044,1.547,1.547,0,0,0-1.568.984V14h-1.174V7.132H-32.4l.019.793A1.829,1.829,0,0,1-30.742,7a1.2,1.2,0,0,1,.521.089ZM-25.156,14a2.467,2.467,0,0,1-.165-.724,2.62,2.62,0,0,1-1.955.851,2.424,2.424,0,0,1-1.666-.574,1.859,1.859,0,0,1-.651-1.457,1.942,1.942,0,0,1,.816-1.666,3.846,3.846,0,0,1,2.295-.594h1.143V9.3a1.319,1.319,0,0,0-.368-.981,1.48,1.48,0,0,0-1.085-.365,1.712,1.712,0,0,0-1.054.317.935.935,0,0,0-.425.768h-1.181a1.621,1.621,0,0,1,.365-.993,2.491,2.491,0,0,1,.99-.759A3.331,3.331,0,0,1-26.724,7a2.715,2.715,0,0,1,1.86.594,2.141,2.141,0,0,1,.7,1.635v3.161a3.865,3.865,0,0,0,.241,1.5V14Zm-1.949-.9a2.064,2.064,0,0,0,1.047-.286,1.728,1.728,0,0,0,.717-.743V10.667h-.92q-2.158,0-2.158,1.263a1.069,1.069,0,0,0,.368.863A1.415,1.415,0,0,0-27.1,13.1Zm5.884-5.973.032.762A2.536,2.536,0,0,1-19.151,7a1.964,1.964,0,0,1,1.961,1.1,2.6,2.6,0,0,1,.892-.8A2.634,2.634,0,0,1-15,7q2.26,0,2.3,2.393V14h-1.174V9.468a1.577,1.577,0,0,0-.336-1.1A1.482,1.482,0,0,0-15.342,8a1.557,1.557,0,0,0-1.085.39,1.584,1.584,0,0,0-.5,1.051V14H-18.11V9.5A1.31,1.31,0,0,0-19.576,8a1.571,1.571,0,0,0-1.581.984V14h-1.174V7.132ZM-6.69,14a2.467,2.467,0,0,1-.165-.724,2.62,2.62,0,0,1-1.955.851,2.424,2.424,0,0,1-1.666-.574,1.859,1.859,0,0,1-.651-1.457,1.942,1.942,0,0,1,.816-1.666,3.846,3.846,0,0,1,2.295-.594h1.143V9.3a1.319,1.319,0,0,0-.368-.981,1.48,1.48,0,0,0-1.085-.365,1.712,1.712,0,0,0-1.054.317.935.935,0,0,0-.425.768h-1.181a1.621,1.621,0,0,1,.365-.993,2.491,2.491,0,0,1,.99-.759A3.331,3.331,0,0,1-8.258,7,2.715,2.715,0,0,1-6.4,7.6a2.141,2.141,0,0,1,.7,1.635v3.161a3.865,3.865,0,0,0,.241,1.5V14Zm-1.949-.9a2.064,2.064,0,0,0,1.047-.286,1.728,1.728,0,0,0,.717-.743V10.667h-.92q-2.158,0-2.158,1.263a1.069,1.069,0,0,0,.368.863A1.415,1.415,0,0,0-8.639,13.1ZM.14,12.178a.865.865,0,0,0-.359-.74,3.452,3.452,0,0,0-1.25-.454,5.912,5.912,0,0,1-1.416-.457,2.014,2.014,0,0,1-.774-.635,1.518,1.518,0,0,1-.251-.876A1.782,1.782,0,0,1-3.2,7.589,2.789,2.789,0,0,1-1.371,7a2.87,2.87,0,0,1,1.895.6A1.915,1.915,0,0,1,1.25,9.15H.07A1.06,1.06,0,0,0-.34,8.319,1.534,1.534,0,0,0-1.371,7.97a1.605,1.605,0,0,0-1,.279.879.879,0,0,0-.362.73A.712.712,0,0,0-2.4,9.62a4.139,4.139,0,0,0,1.216.413,6.334,6.334,0,0,1,1.425.47,2.079,2.079,0,0,1,.809.657,1.615,1.615,0,0,1,.263.936,1.758,1.758,0,0,1-.736,1.476,3.089,3.089,0,0,1-1.911.555,3.459,3.459,0,0,1-1.46-.292,2.375,2.375,0,0,1-.993-.816,1.966,1.966,0,0,1-.359-1.133h1.174a1.216,1.216,0,0,0,.473.936,1.835,1.835,0,0,0,1.165.346,1.894,1.894,0,0,0,1.07-.27A.829.829,0,0,0,.14,12.178Zm2.666,3.663-.667-.457a3.063,3.063,0,0,0,.622-1.714V12.61H3.91v.92A2.891,2.891,0,0,1,3.6,14.813,3,3,0,0,1,2.806,15.841ZM14.022,9.728H10.017V13h4.653v1H8.8V4.758h5.808v1H10.017V8.731h4.005ZM17.6,5.469V7.132h1.282V8.04H17.6V12.3a.953.953,0,0,0,.171.62.721.721,0,0,0,.584.207,2.843,2.843,0,0,0,.559-.076V14a3.424,3.424,0,0,1-.9.126,1.462,1.462,0,0,1-1.187-.476,2.045,2.045,0,0,1-.4-1.352V8.04h-1.25V7.132h1.25V5.469Zm3.828,2.495A2.5,2.5,0,0,1,23.455,7q2.177,0,2.2,2.457V14H24.477V9.455a1.581,1.581,0,0,0-.34-1.1A1.361,1.361,0,0,0,23.1,8a1.7,1.7,0,0,0-1,.3,2.069,2.069,0,0,0-.673.8V14H20.249V4.25h1.174Zm8.836,6.164a3,3,0,0,1-2.272-.917,3.4,3.4,0,0,1-.876-2.453v-.216a4.121,4.121,0,0,1,.39-1.825,3.045,3.045,0,0,1,1.092-1.257A2.745,2.745,0,0,1,30.113,7a2.572,2.572,0,0,1,2.082.882,3.82,3.82,0,0,1,.743,2.526V10.9H28.285a2.441,2.441,0,0,0,.594,1.641,1.866,1.866,0,0,0,1.444.625,2.045,2.045,0,0,0,1.054-.254,2.648,2.648,0,0,0,.755-.673l.717.559A2.884,2.884,0,0,1,30.259,14.127ZM30.113,7.97a1.566,1.566,0,0,0-1.193.517,2.515,2.515,0,0,0-.6,1.45h3.44V9.849a2.237,2.237,0,0,0-.482-1.387A1.475,1.475,0,0,0,30.113,7.97Zm7.5.216a3.519,3.519,0,0,0-.578-.044,1.547,1.547,0,0,0-1.568.984V14H34.3V7.132h1.143l.019.793A1.829,1.829,0,0,1,37.1,7a1.2,1.2,0,0,1,.521.089Zm2.19-1.054L39.844,8A2.5,2.5,0,0,1,41.9,7q2.177,0,2.2,2.457V14H42.923V9.455a1.581,1.581,0,0,0-.34-1.1A1.361,1.361,0,0,0,41.545,8a1.7,1.7,0,0,0-1,.3,2.069,2.069,0,0,0-.673.8V14H38.7V7.132Zm8.912,7a3,3,0,0,1-2.272-.917,3.4,3.4,0,0,1-.876-2.453v-.216a4.121,4.121,0,0,1,.39-1.825,3.045,3.045,0,0,1,1.092-1.257A2.745,2.745,0,0,1,48.572,7a2.572,2.572,0,0,1,2.082.882,3.82,3.82,0,0,1,.743,2.526V10.9H46.744a2.441,2.441,0,0,0,.594,1.641,1.866,1.866,0,0,0,1.444.625,2.045,2.045,0,0,0,1.054-.254,2.648,2.648,0,0,0,.755-.673l.717.559A2.884,2.884,0,0,1,48.718,14.127ZM48.572,7.97a1.566,1.566,0,0,0-1.193.517,2.515,2.515,0,0,0-.6,1.45h3.44V9.849a2.237,2.237,0,0,0-.482-1.387A1.475,1.475,0,0,0,48.572,7.97Zm5.776-2.5V7.132h1.282V8.04H54.349V12.3a.953.953,0,0,0,.171.62.721.721,0,0,0,.584.207,2.843,2.843,0,0,0,.559-.076V14a3.424,3.424,0,0,1-.9.126,1.462,1.462,0,0,1-1.187-.476,2.045,2.045,0,0,1-.4-1.352V8.04h-1.25V7.132h1.25V5.469Z" transform="translate(1113.676 9359)" fill="#12263f"/>
    <path id="Trazado_195430" data-name="Trazado 195430" d="M-24.159,0h-1.225V-4.272h-4.659V0h-1.219V-9.242h1.219v3.974h4.659V-9.242h1.225Zm8.366-8.246h-2.971V0h-1.212V-8.246H-22.94v-1h7.147Zm7.858,0h-2.971V0h-1.212V-8.246h-2.964v-1h7.147Zm2.59,4.627V0H-6.563V-9.242h3.409a3.425,3.425,0,0,1,2.377.774,2.625,2.625,0,0,1,.86,2.05A2.591,2.591,0,0,1-.759-4.345a3.578,3.578,0,0,1-2.409.727Zm0-1h2.19a2.19,2.19,0,0,0,1.5-.461,1.686,1.686,0,0,0,.521-1.332,1.742,1.742,0,0,0-.521-1.323,2.051,2.051,0,0,0-1.428-.515h-2.26Zm4.7,6.456-.667-.457A3.063,3.063,0,0,0-.686-.33V-1.39H.463v.92A2.891,2.891,0,0,1,.149.813,3,3,0,0,1-.641,1.841ZM5.351,0V-9.242H7.96a4.2,4.2,0,0,1,2.133.533,3.606,3.606,0,0,1,1.431,1.517,4.938,4.938,0,0,1,.511,2.26v.59a4.955,4.955,0,0,1-.5,2.292A3.55,3.55,0,0,1,10.09-.54,4.467,4.467,0,0,1,7.909,0ZM6.57-8.246V-1H7.852a2.79,2.79,0,0,0,2.193-.877,3.622,3.622,0,0,0,.784-2.5v-.54a3.68,3.68,0,0,0-.74-2.449,2.632,2.632,0,0,0-2.1-.886ZM20.979,0H19.754L15.1-7.122V0H13.876V-9.242H15.1l4.666,7.154V-9.242h1.212Zm4.888-4.12a5.731,5.731,0,0,1-2.282-1.108,2.116,2.116,0,0,1-.714-1.622,2.236,2.236,0,0,1,.873-1.806,3.469,3.469,0,0,1,2.269-.714,3.786,3.786,0,0,1,1.7.368,2.792,2.792,0,0,1,1.155,1.016,2.6,2.6,0,0,1,.409,1.416H28.05a1.69,1.69,0,0,0-.533-1.322,2.168,2.168,0,0,0-1.5-.481,2.22,2.22,0,0,0-1.406.4,1.326,1.326,0,0,0-.5,1.1,1.193,1.193,0,0,0,.479.957,4.7,4.7,0,0,0,1.631.715,7.569,7.569,0,0,1,1.8.715,2.736,2.736,0,0,1,.965.911,2.325,2.325,0,0,1,.314,1.225,2.159,2.159,0,0,1-.876,1.8,3.735,3.735,0,0,1-2.342.676A4.344,4.344,0,0,1,24.3-.238a2.991,2.991,0,0,1-1.273-1,2.44,2.44,0,0,1-.448-1.441H23.8a1.592,1.592,0,0,0,.619,1.323,2.606,2.606,0,0,0,1.654.486,2.4,2.4,0,0,0,1.479-.394,1.278,1.278,0,0,0,.514-1.073,1.255,1.255,0,0,0-.476-1.051A5.489,5.489,0,0,0,25.867-4.12Zm4.767,5.96-.667-.457A3.063,3.063,0,0,0,30.589-.33V-1.39h1.149v.92A2.891,2.891,0,0,1,31.424.813,3,3,0,0,1,30.634,1.841ZM-29.647,14V4.758h2.609a4.2,4.2,0,0,1,2.133.533,3.606,3.606,0,0,1,1.431,1.517,4.938,4.938,0,0,1,.511,2.26v.59a4.955,4.955,0,0,1-.5,2.292,3.55,3.55,0,0,1-1.441,1.511,4.467,4.467,0,0,1-2.18.54Zm1.219-8.246V13h1.282a2.79,2.79,0,0,0,2.193-.877,3.622,3.622,0,0,0,.784-2.5V9.09a3.68,3.68,0,0,0-.74-2.449,2.632,2.632,0,0,0-2.1-.886ZM-14.019,14h-1.225V9.728H-19.9V14h-1.219V4.758H-19.9V8.731h4.659V4.758h1.225Zm8.963-2.933A3.4,3.4,0,0,1-6.138,13.33a3.547,3.547,0,0,1-2.422.8,3.257,3.257,0,0,1-2.625-1.174,4.724,4.724,0,0,1-.987-3.142V8.922a5.266,5.266,0,0,1,.46-2.266,3.438,3.438,0,0,1,1.3-1.5,3.632,3.632,0,0,1,1.955-.524,3.34,3.34,0,0,1,2.361.822A3.441,3.441,0,0,1-5.056,7.729H-6.281a2.655,2.655,0,0,0-.689-1.6,2.084,2.084,0,0,0-1.482-.5,2.181,2.181,0,0,0-1.831.864,3.966,3.966,0,0,0-.663,2.459v.9a4.077,4.077,0,0,0,.628,2.4,2.031,2.031,0,0,0,1.758.889A2.345,2.345,0,0,0-7,12.67a2.554,2.554,0,0,0,.72-1.6Zm2.882-.686V14H-3.393V4.758H.016a3.425,3.425,0,0,1,2.377.774,2.625,2.625,0,0,1,.86,2.05,2.591,2.591,0,0,1-.841,2.073A3.578,3.578,0,0,1,0,10.382Zm0-1H.016a2.19,2.19,0,0,0,1.5-.461,1.686,1.686,0,0,0,.521-1.332,1.742,1.742,0,0,0-.521-1.323A2.051,2.051,0,0,0,.086,5.754h-2.26Zm4.7,6.456-.667-.457a3.063,3.063,0,0,0,.622-1.714V12.61H3.634v.92a2.891,2.891,0,0,1-.314,1.282A3,3,0,0,1,2.53,15.841ZM13.619,9.918H9.74V14H8.522V4.758h5.726v1H9.74V8.922h3.878Zm8.6-4.164H19.249V14H18.037V5.754H15.073v-1H22.22Zm2.59,4.627V14H23.591V4.758H27a3.425,3.425,0,0,1,2.377.774,2.625,2.625,0,0,1,.86,2.05A2.591,2.591,0,0,1,29.4,9.655a3.578,3.578,0,0,1-2.409.727Zm0-1H27a2.19,2.19,0,0,0,1.5-.461,1.686,1.686,0,0,0,.521-1.332A1.742,1.742,0,0,0,28.5,6.269a2.051,2.051,0,0,0-1.428-.515H24.81Z" transform="translate(1114.676 9154)" fill="#12263f"/>
    <path id="Trazado_195431" data-name="Trazado 195431" d="M-34.233-2.76h-4.148L-39.243,0h-2.681l4.315-12.8h2.628l4.3,12.8h-2.681Zm-3.516-2.013h2.892l-1.415-4.509h-.053Zm16.26.281A5.462,5.462,0,0,1-22.465-1.1,3.227,3.227,0,0,1-25.189.185a3.045,3.045,0,0,1-1.327-.277,2.726,2.726,0,0,1-.993-.813V3.656h-2.558V-9.51h2.312l.149,1.125a3.047,3.047,0,0,1,1.015-.962,2.746,2.746,0,0,1,1.384-.338,3.165,3.165,0,0,1,2.742,1.38,6.159,6.159,0,0,1,.976,3.63Zm-2.566-.185a4.6,4.6,0,0,0-.448-2.18,1.462,1.462,0,0,0-1.371-.835,1.938,1.938,0,0,0-.989.237,1.693,1.693,0,0,0-.646.677V-2.61A1.573,1.573,0,0,0-26.864-2a2.176,2.176,0,0,0,1.006.211,1.476,1.476,0,0,0,1.367-.729,3.851,3.851,0,0,0,.435-1.978ZM-17.209,0h-2.566V-13.711h2.566ZM-12.4,0h-2.566V-9.51H-12.4Zm0-11.786h-2.566v-1.925H-12.4Zm6.082,10a1.428,1.428,0,0,0,1.063-.4,1.452,1.452,0,0,0,.4-1.068h2.338L-2.5-3.2A2.976,2.976,0,0,1-3.577-.787,4.01,4.01,0,0,1-6.319.185,4.052,4.052,0,0,1-9.58-1.165a5.128,5.128,0,0,1-1.151-3.45v-.264a5.161,5.161,0,0,1,1.147-3.45A4.016,4.016,0,0,1-6.337-9.686a3.922,3.922,0,0,1,2.8,1A3.348,3.348,0,0,1-2.5-6.047l-.018.053H-4.86A1.9,1.9,0,0,0-5.251-7.22a1.314,1.314,0,0,0-1.085-.488,1.465,1.465,0,0,0-1.411.8,4.362,4.362,0,0,0-.417,2.035v.264a4.346,4.346,0,0,0,.417,2.048A1.485,1.485,0,0,0-6.319-1.784ZM4.6,0a5.4,5.4,0,0,1-.242-.686,4.769,4.769,0,0,1-.145-.738A3.518,3.518,0,0,1,3.164-.272,2.621,2.621,0,0,1,1.617.185a3.211,3.211,0,0,1-2.3-.769,2.755,2.755,0,0,1-.809-2.1A2.508,2.508,0,0,1-.417-4.847a5.377,5.377,0,0,1,3.142-.769H4.166v-.756a1.48,1.48,0,0,0-.36-1.063,1.414,1.414,0,0,0-1.072-.378,1.394,1.394,0,0,0-.962.3,1.059,1.059,0,0,0-.338.831h-2.47l-.018-.053A2.412,2.412,0,0,1,0-8.811a4.562,4.562,0,0,1,2.9-.875,4.257,4.257,0,0,1,2.773.861,3,3,0,0,1,1.059,2.47v3.929a7.43,7.43,0,0,0,.1,1.257A6.307,6.307,0,0,0,7.154,0ZM2.25-1.714a2.187,2.187,0,0,0,1.2-.334,1.8,1.8,0,0,0,.721-.773V-4.166H2.725a1.708,1.708,0,0,0-1.235.4,1.329,1.329,0,0,0-.417.993A.992.992,0,0,0,1.384-2,1.234,1.234,0,0,0,2.25-1.714Zm10.38-.07a1.428,1.428,0,0,0,1.063-.4,1.452,1.452,0,0,0,.4-1.068h2.338l.018.053A2.976,2.976,0,0,1,15.372-.787,4.01,4.01,0,0,1,12.63.185,4.052,4.052,0,0,1,9.369-1.165a5.128,5.128,0,0,1-1.151-3.45v-.264a5.161,5.161,0,0,1,1.147-3.45,4.016,4.016,0,0,1,3.248-1.358,3.922,3.922,0,0,1,2.8,1,3.348,3.348,0,0,1,1.028,2.637l-.018.053H14.089A1.9,1.9,0,0,0,13.7-7.22a1.314,1.314,0,0,0-1.085-.488,1.465,1.465,0,0,0-1.411.8,4.362,4.362,0,0,0-.417,2.035v.264A4.346,4.346,0,0,0,11.2-2.566,1.485,1.485,0,0,0,12.63-1.784ZM20.637,0H18.07V-9.51h2.566Zm0-11.786H18.07v-1.925h2.566Zm1.714,6.943a5.1,5.1,0,0,1,1.187-3.485,4.136,4.136,0,0,1,3.287-1.358,4.18,4.18,0,0,1,3.3,1.354,5.076,5.076,0,0,1,1.2,3.489v.185a5.084,5.084,0,0,1-1.191,3.494A4.162,4.162,0,0,1,26.842.185a4.173,4.173,0,0,1-3.3-1.349,5.084,5.084,0,0,1-1.191-3.494Zm2.558.185a4.137,4.137,0,0,0,.457,2.087,1.578,1.578,0,0,0,1.477.787A1.562,1.562,0,0,0,28.3-2.575a4.11,4.11,0,0,0,.461-2.083v-.185a4.068,4.068,0,0,0-.466-2.065,1.576,1.576,0,0,0-1.468-.8,1.557,1.557,0,0,0-1.455.8,4.1,4.1,0,0,0-.461,2.061Zm2.435-8.912H30.2l.018.053-2.435,2.285H25.594Zm7.91,4.061.114,1.362a3.478,3.478,0,0,1,1.169-1.134,3.034,3.034,0,0,1,1.556-.4,2.828,2.828,0,0,1,2.25.927,4.4,4.4,0,0,1,.809,2.931V0H38.575V-5.818a2.277,2.277,0,0,0-.356-1.446,1.312,1.312,0,0,0-1.068-.426,2.241,2.241,0,0,0-1.006.215,1.965,1.965,0,0,0-.716.593V0H32.862V-9.51Z" transform="translate(1262.676 9158)" fill="#fff"/>
    <path id="Trazado_195418" data-name="Trazado 195418" d="M-53.13-3.366h.053L-49.79-12.8h3.349V0h-2.566V-8.736l-.053-.009L-52.225,0h-1.74l-3.164-8.763-.053.009V0h-2.566V-12.8h3.366Zm8.455-1.477a5.1,5.1,0,0,1,1.187-3.485A4.136,4.136,0,0,1-40.2-9.686a4.18,4.18,0,0,1,3.3,1.354,5.076,5.076,0,0,1,1.2,3.489v.185a5.084,5.084,0,0,1-1.191,3.494A4.162,4.162,0,0,1-40.184.185a4.173,4.173,0,0,1-3.3-1.349,5.084,5.084,0,0,1-1.191-3.494Zm2.558.185a4.137,4.137,0,0,0,.457,2.087,1.578,1.578,0,0,0,1.477.787,1.562,1.562,0,0,0,1.455-.791,4.11,4.11,0,0,0,.461-2.083v-.185a4.068,4.068,0,0,0-.466-2.065,1.576,1.576,0,0,0-1.468-.8,1.557,1.557,0,0,0-1.455.8,4.1,4.1,0,0,0-.461,2.061Zm7.6-.018a6.18,6.18,0,0,1,.971-3.63,3.154,3.154,0,0,1,2.738-1.38,2.663,2.663,0,0,1,1.283.308,3.087,3.087,0,0,1,1,.879v-5.212h2.575V0h-2.188l-.22-1.169A3.179,3.179,0,0,1-29.417-.163a2.812,2.812,0,0,1-1.406.347A3.215,3.215,0,0,1-33.543-1.1a5.479,5.479,0,0,1-.971-3.393Zm2.558.185a3.874,3.874,0,0,0,.422,1.964,1.469,1.469,0,0,0,1.371.716,2,2,0,0,0,.967-.224,1.788,1.788,0,0,0,.677-.655V-6.741a1.975,1.975,0,0,0-.672-.7,1.788,1.788,0,0,0-.954-.25,1.448,1.448,0,0,0-1.375.835,4.718,4.718,0,0,0-.435,2.18ZM-19.837.185a4.279,4.279,0,0,1-3.322-1.305,4.784,4.784,0,0,1-1.2-3.362v-.352a5.207,5.207,0,0,1,1.16-3.5A3.944,3.944,0,0,1-20-9.686a3.692,3.692,0,0,1,2.94,1.173,4.637,4.637,0,0,1,1.024,3.16v1.327h-5.669l-.026.053a2.569,2.569,0,0,0,.593,1.582,1.987,1.987,0,0,0,1.578.606A5.279,5.279,0,0,0-18.1-1.96,5.971,5.971,0,0,0-16.857-2.5l.694,1.582a4.764,4.764,0,0,1-1.547.782A6.86,6.86,0,0,1-19.837.185ZM-20-7.708a1.425,1.425,0,0,0-1.191.532A2.667,2.667,0,0,0-21.7-5.766l.018.044h3.129v-.193A2.221,2.221,0,0,0-18.9-7.229,1.268,1.268,0,0,0-20-7.708ZM-11.848,0h-2.566V-13.711h2.566Zm1.714-4.843A5.1,5.1,0,0,1-8.947-8.328,4.136,4.136,0,0,1-5.66-9.686a4.18,4.18,0,0,1,3.3,1.354,5.076,5.076,0,0,1,1.2,3.489v.185A5.084,5.084,0,0,1-2.351-1.165,4.162,4.162,0,0,1-5.643.185a4.173,4.173,0,0,1-3.3-1.349,5.084,5.084,0,0,1-1.191-3.494Zm2.558.185a4.137,4.137,0,0,0,.457,2.087,1.578,1.578,0,0,0,1.477.787,1.562,1.562,0,0,0,1.455-.791,4.11,4.11,0,0,0,.461-2.083v-.185a4.068,4.068,0,0,0-.466-2.065,1.576,1.576,0,0,0-1.468-.8,1.557,1.557,0,0,0-1.455.8,4.1,4.1,0,0,0-.461,2.061Zm21.595-6.161H10.362V0H7.8V-10.819h-3.6V-12.8h9.826ZM24.776-4.236l.018.053A4.006,4.006,0,0,1,23.546-.976,5.089,5.089,0,0,1,20,.185,4.906,4.906,0,0,1,16.286-1.3a5.312,5.312,0,0,1-1.415-3.828v-2.54a5.41,5.41,0,0,1,1.38-3.828,4.7,4.7,0,0,1,3.621-1.49,5.4,5.4,0,0,1,3.656,1.143,3.934,3.934,0,0,1,1.283,3.217l-.018.053H22.3A2.516,2.516,0,0,0,21.7-10.4a2.474,2.474,0,0,0-1.833-.6,2.069,2.069,0,0,0-1.8.927,4.1,4.1,0,0,0-.646,2.4v2.558a3.98,3.98,0,0,0,.681,2.408A2.214,2.214,0,0,0,20-1.784a2.253,2.253,0,0,0,1.718-.6,2.619,2.619,0,0,0,.567-1.85Zm4.421-.4V0H26.631V-12.8h4.9A5.04,5.04,0,0,1,35-11.672,3.772,3.772,0,0,1,36.264-8.71,3.745,3.745,0,0,1,35-5.757a5.066,5.066,0,0,1-3.472,1.116Zm0-1.978h2.329A2.135,2.135,0,0,0,33.152-7.2a2.079,2.079,0,0,0,.554-1.49,2.176,2.176,0,0,0-.549-1.525,2.1,2.1,0,0,0-1.63-.6H29.2ZM39.3,1.1H36.8l4.693-13.9h2.5Zm8.8-1.1H45.527V-12.8h2.566ZM53.2-4.641V0H50.634V-12.8h4.9A5.04,5.04,0,0,1,59-11.672,3.772,3.772,0,0,1,60.267-8.71,3.745,3.745,0,0,1,59-5.757a5.066,5.066,0,0,1-3.472,1.116Zm0-1.978h2.329A2.135,2.135,0,0,0,57.155-7.2a2.079,2.079,0,0,0,.554-1.49,2.176,2.176,0,0,0-.549-1.525,2.1,2.1,0,0,0-1.63-.6H53.2Z" transform="translate(1262.676 9073)" fill="#12263f"/>
    <path id="Trazado_195417" data-name="Trazado 195417" d="M-40.3-4.236l.018.053A4.006,4.006,0,0,1-41.533-.976,5.089,5.089,0,0,1-45.075.185,4.906,4.906,0,0,1-48.792-1.3a5.312,5.312,0,0,1-1.415-3.828v-2.54a5.41,5.41,0,0,1,1.38-3.828,4.7,4.7,0,0,1,3.621-1.49,5.4,5.4,0,0,1,3.656,1.143,3.934,3.934,0,0,1,1.283,3.217l-.018.053h-2.5a2.516,2.516,0,0,0-.593-1.833,2.474,2.474,0,0,0-1.833-.6,2.069,2.069,0,0,0-1.8.927,4.1,4.1,0,0,0-.646,2.4v2.558a3.98,3.98,0,0,0,.681,2.408,2.214,2.214,0,0,0,1.894.932,2.253,2.253,0,0,0,1.718-.6,2.619,2.619,0,0,0,.567-1.85Zm1.266-.606A5.1,5.1,0,0,1-37.85-8.328a4.136,4.136,0,0,1,3.287-1.358,4.18,4.18,0,0,1,3.3,1.354,5.076,5.076,0,0,1,1.2,3.489v.185a5.084,5.084,0,0,1-1.191,3.494A4.162,4.162,0,0,1-34.545.185a4.173,4.173,0,0,1-3.3-1.349,5.084,5.084,0,0,1-1.191-3.494Zm2.558.185a4.137,4.137,0,0,0,.457,2.087,1.578,1.578,0,0,0,1.477.787,1.562,1.562,0,0,0,1.455-.791,4.11,4.11,0,0,0,.461-2.083v-.185A4.068,4.068,0,0,0-33.1-6.908a1.576,1.576,0,0,0-1.468-.8,1.557,1.557,0,0,0-1.455.8,4.1,4.1,0,0,0-.461,2.061ZM-26.134-9.51l.114,1.362a3.478,3.478,0,0,1,1.169-1.134,3.034,3.034,0,0,1,1.556-.4,2.828,2.828,0,0,1,2.25.927,4.4,4.4,0,0,1,.809,2.931V0h-2.575V-5.818a2.277,2.277,0,0,0-.356-1.446,1.312,1.312,0,0,0-1.068-.426,2.241,2.241,0,0,0-1.006.215,1.965,1.965,0,0,0-.716.593V0h-2.566V-9.51Zm10.582,0V.352a3.54,3.54,0,0,1-.888,2.58,3.292,3.292,0,0,1-2.47.91,5.36,5.36,0,0,1-.642-.035,5.321,5.321,0,0,1-.615-.114l.123-1.96a3.282,3.282,0,0,0,.4.079,3.334,3.334,0,0,0,.431.026.951.951,0,0,0,.8-.365A1.828,1.828,0,0,0-18.127.352V-9.51ZM-15.6-11.8H-18.18v-1.907H-15.6Zm7.884,10.4A3.229,3.229,0,0,1-8.837-.229a2.959,2.959,0,0,1-1.573.413,2.892,2.892,0,0,1-2.351-1.02A4.89,4.89,0,0,1-13.61-4V-9.51h2.558v5.528a3.07,3.07,0,0,0,.338,1.709,1.216,1.216,0,0,0,1.05.461,2.557,2.557,0,0,0,1.055-.2,1.778,1.778,0,0,0,.721-.584V-9.51h2.566V0H-7.449Zm6.68-8.1.114,1.362A3.478,3.478,0,0,1,.242-9.281a3.034,3.034,0,0,1,1.556-.4,2.828,2.828,0,0,1,2.25.927,4.4,4.4,0,0,1,.809,2.931V0H2.281V-5.818a2.277,2.277,0,0,0-.356-1.446A1.312,1.312,0,0,0,.857-7.69a2.241,2.241,0,0,0-1.006.215,1.965,1.965,0,0,0-.716.593V0H-3.432V-9.51Zm10.89-2.329V-9.51h1.608v1.8H9.848v4.843a1.105,1.105,0,0,0,.233.791.818.818,0,0,0,.611.237,2.45,2.45,0,0,0,.352-.022,2.961,2.961,0,0,0,.343-.075L11.6-.079a5.2,5.2,0,0,1-.751.2,4.48,4.48,0,0,1-.8.066A2.735,2.735,0,0,1,8.007-.545a3.2,3.2,0,0,1-.716-2.312V-7.708H5.9v-1.8H7.291v-2.329Zm2.795,7A5.1,5.1,0,0,1,13.83-8.328a4.136,4.136,0,0,1,3.287-1.358,4.18,4.18,0,0,1,3.3,1.354,5.076,5.076,0,0,1,1.2,3.489v.185a5.084,5.084,0,0,1-1.191,3.494A4.162,4.162,0,0,1,17.134.185a4.173,4.173,0,0,1-3.3-1.349,5.084,5.084,0,0,1-1.191-3.494Zm2.558.185a4.137,4.137,0,0,0,.457,2.087,1.578,1.578,0,0,0,1.477.787,1.562,1.562,0,0,0,1.455-.791,4.11,4.11,0,0,0,.461-2.083v-.185a4.068,4.068,0,0,0-.466-2.065,1.576,1.576,0,0,0-1.468-.8,1.557,1.557,0,0,0-1.455.8A4.1,4.1,0,0,0,15.2-4.843Zm12.085-.018a6.18,6.18,0,0,1,.971-3.63,3.154,3.154,0,0,1,2.738-1.38,2.663,2.663,0,0,1,1.283.308,3.087,3.087,0,0,1,1,.879v-5.212h2.575V0H33.667l-.22-1.169A3.179,3.179,0,0,1,32.383-.163a2.812,2.812,0,0,1-1.406.347A3.215,3.215,0,0,1,28.257-1.1a5.479,5.479,0,0,1-.971-3.393Zm2.558.185a3.874,3.874,0,0,0,.422,1.964,1.469,1.469,0,0,0,1.371.716,2,2,0,0,0,.967-.224,1.788,1.788,0,0,0,.677-.655V-6.741a1.975,1.975,0,0,0-.672-.7,1.788,1.788,0,0,0-.954-.25,1.448,1.448,0,0,0-1.375.835,4.718,4.718,0,0,0-.435,2.18ZM41.963.185a4.279,4.279,0,0,1-3.322-1.305,4.784,4.784,0,0,1-1.2-3.362v-.352a5.207,5.207,0,0,1,1.16-3.5A3.944,3.944,0,0,1,41.8-9.686a3.692,3.692,0,0,1,2.94,1.173,4.637,4.637,0,0,1,1.024,3.16v1.327H40.091l-.026.053a2.569,2.569,0,0,0,.593,1.582,1.987,1.987,0,0,0,1.578.606A5.279,5.279,0,0,0,43.7-1.96,5.971,5.971,0,0,0,44.943-2.5l.694,1.582a4.764,4.764,0,0,1-1.547.782A6.86,6.86,0,0,1,41.963.185ZM41.8-7.708a1.425,1.425,0,0,0-1.191.532A2.667,2.667,0,0,0,40.1-5.766l.018.044h3.129v-.193A2.221,2.221,0,0,0,42.9-7.229,1.268,1.268,0,0,0,41.8-7.708ZM49.953,0H47.386V-13.711h2.566ZM-66.313,14.359V19H-68.88V6.2h4.9a5.04,5.04,0,0,1,3.472,1.125,3.772,3.772,0,0,1,1.266,2.962,3.745,3.745,0,0,1-1.266,2.953,5.066,5.066,0,0,1-3.472,1.116Zm0-1.978h2.329a2.135,2.135,0,0,0,1.626-.584,2.079,2.079,0,0,0,.554-1.49,2.176,2.176,0,0,0-.549-1.525,2.1,2.1,0,0,0-1.63-.6h-2.329ZM-52.6,11.7l-.94-.026a1.709,1.709,0,0,0-.94.237,1.5,1.5,0,0,0-.562.668V19H-57.6V9.49h2.382l.114,1.406a3,3,0,0,1,.866-1.165,1.93,1.93,0,0,1,1.226-.417,1.918,1.918,0,0,1,.356.031q.163.031.33.075Zm.765,2.461a5.1,5.1,0,0,1,1.187-3.485,4.136,4.136,0,0,1,3.287-1.358,4.18,4.18,0,0,1,3.3,1.354,5.076,5.076,0,0,1,1.2,3.489v.185a5.084,5.084,0,0,1-1.191,3.494,4.162,4.162,0,0,1-3.292,1.349,4.173,4.173,0,0,1-3.3-1.349,5.084,5.084,0,0,1-1.191-3.494Zm2.558.185a4.137,4.137,0,0,0,.457,2.087,1.578,1.578,0,0,0,1.477.787,1.562,1.562,0,0,0,1.455-.791,4.11,4.11,0,0,0,.461-2.083v-.185a4.068,4.068,0,0,0-.466-2.065,1.576,1.576,0,0,0-1.468-.8,1.557,1.557,0,0,0-1.455.8,4.1,4.1,0,0,0-.461,2.061Zm11.074-7.181V9.49H-36.6v1.8h-1.608v4.843a1.105,1.105,0,0,0,.233.791.818.818,0,0,0,.611.237,2.45,2.45,0,0,0,.352-.022,2.961,2.961,0,0,0,.343-.075l.211,1.854a5.2,5.2,0,0,1-.751.2,4.48,4.48,0,0,1-.8.066,2.735,2.735,0,0,1-2.043-.729,3.2,3.2,0,0,1-.716-2.312V11.292h-1.389V9.49h1.389V7.161Zm2.795,7a5.1,5.1,0,0,1,1.187-3.485,4.136,4.136,0,0,1,3.287-1.358,4.18,4.18,0,0,1,3.3,1.354,5.076,5.076,0,0,1,1.2,3.489v.185a5.084,5.084,0,0,1-1.191,3.494,4.162,4.162,0,0,1-3.292,1.349,4.173,4.173,0,0,1-3.3-1.349,5.084,5.084,0,0,1-1.191-3.494Zm2.558.185a4.137,4.137,0,0,0,.457,2.087,1.578,1.578,0,0,0,1.477.787,1.562,1.562,0,0,0,1.455-.791A4.11,4.11,0,0,0-29,14.342v-.185a4.068,4.068,0,0,0-.466-2.065,1.576,1.576,0,0,0-1.468-.8,1.557,1.557,0,0,0-1.455.8,4.1,4.1,0,0,0-.461,2.061Zm11.971,2.874a1.428,1.428,0,0,0,1.063-.4,1.452,1.452,0,0,0,.4-1.068h2.338l.018.053a2.976,2.976,0,0,1-1.072,2.413,4.01,4.01,0,0,1-2.742.971,4.052,4.052,0,0,1-3.261-1.349,5.128,5.128,0,0,1-1.151-3.45v-.264a5.161,5.161,0,0,1,1.147-3.45A4.016,4.016,0,0,1-20.9,9.314a3.922,3.922,0,0,1,2.8,1,3.348,3.348,0,0,1,1.028,2.637l-.018.053h-2.338a1.9,1.9,0,0,0-.391-1.226,1.314,1.314,0,0,0-1.085-.488,1.465,1.465,0,0,0-1.411.8,4.362,4.362,0,0,0-.417,2.035v.264a4.346,4.346,0,0,0,.417,2.048A1.485,1.485,0,0,0-20.883,17.216Zm4.913-3.059a5.1,5.1,0,0,1,1.187-3.485A4.136,4.136,0,0,1-11.5,9.314a4.18,4.18,0,0,1,3.3,1.354A5.076,5.076,0,0,1-7,14.157v.185a5.084,5.084,0,0,1-1.191,3.494,4.162,4.162,0,0,1-3.292,1.349,4.173,4.173,0,0,1-3.3-1.349,5.084,5.084,0,0,1-1.191-3.494Zm2.558.185a4.137,4.137,0,0,0,.457,2.087,1.578,1.578,0,0,0,1.477.787,1.562,1.562,0,0,0,1.455-.791,4.11,4.11,0,0,0,.461-2.083v-.185a4.068,4.068,0,0,0-.466-2.065,1.576,1.576,0,0,0-1.468-.8,1.557,1.557,0,0,0-1.455.8,4.1,4.1,0,0,0-.461,2.061ZM-2.716,19H-5.282V5.289h2.566ZM-1,14.157A5.1,5.1,0,0,1,.185,10.672,4.136,4.136,0,0,1,3.472,9.314a4.18,4.18,0,0,1,3.3,1.354,5.076,5.076,0,0,1,1.2,3.489v.185a5.084,5.084,0,0,1-1.191,3.494,4.162,4.162,0,0,1-3.292,1.349,4.173,4.173,0,0,1-3.3-1.349A5.084,5.084,0,0,1-1,14.342Zm2.558.185a4.137,4.137,0,0,0,.457,2.087,1.578,1.578,0,0,0,1.477.787,1.562,1.562,0,0,0,1.455-.791,4.11,4.11,0,0,0,.461-2.083v-.185a4.068,4.068,0,0,0-.466-2.065,1.576,1.576,0,0,0-1.468-.8,1.557,1.557,0,0,0-1.455.8,4.1,4.1,0,0,0-.461,2.061ZM23.15,8.181H19.494V19H16.928V8.181h-3.6V6.2H23.15Zm10.758,6.583.018.053a4.006,4.006,0,0,1-1.248,3.208,5.089,5.089,0,0,1-3.542,1.16A4.906,4.906,0,0,1,25.418,17.7,5.312,5.312,0,0,1,24,13.876v-2.54a5.41,5.41,0,0,1,1.38-3.828A4.7,4.7,0,0,1,29,6.019,5.4,5.4,0,0,1,32.66,7.161a3.934,3.934,0,0,1,1.283,3.217l-.018.053h-2.5A2.516,2.516,0,0,0,30.836,8.6,2.474,2.474,0,0,0,29,8a2.069,2.069,0,0,0-1.8.927,4.1,4.1,0,0,0-.646,2.4v2.558a3.98,3.98,0,0,0,.681,2.408,2.214,2.214,0,0,0,1.894.932,2.253,2.253,0,0,0,1.718-.6,2.619,2.619,0,0,0,.567-1.85Zm4.421-.4V19H35.763V6.2h4.9A5.04,5.04,0,0,1,44.13,7.328,3.772,3.772,0,0,1,45.4,10.29a3.745,3.745,0,0,1-1.266,2.953,5.066,5.066,0,0,1-3.472,1.116Zm0-1.978h2.329a2.135,2.135,0,0,0,1.626-.584,2.079,2.079,0,0,0,.554-1.49,2.176,2.176,0,0,0-.549-1.525,2.1,2.1,0,0,0-1.63-.6H38.329Zm10.1,7.717h-2.5L50.625,6.2h2.5Zm8.8-1.1H54.659V6.2h2.566Zm5.106-4.641V19H59.766V6.2h4.9a5.04,5.04,0,0,1,3.472,1.125A3.772,3.772,0,0,1,69.4,10.29a3.745,3.745,0,0,1-1.266,2.953,5.066,5.066,0,0,1-3.472,1.116Zm0-1.978h2.329a2.135,2.135,0,0,0,1.626-.584,2.079,2.079,0,0,0,.554-1.49,2.176,2.176,0,0,0-.549-1.525,2.1,2.1,0,0,0-1.63-.6H62.332Z" transform="translate(1117.676 9050)" fill="#12263f"/>
    <path id="Trazado_195421" data-name="Trazado 195421" d="M-49.381-4.641V0h-2.566V-12.8h4.9a5.04,5.04,0,0,1,3.472,1.125A3.772,3.772,0,0,1-42.315-8.71a3.745,3.745,0,0,1-1.266,2.953,5.066,5.066,0,0,1-3.472,1.116Zm0-1.978h2.329A2.135,2.135,0,0,0-45.426-7.2a2.079,2.079,0,0,0,.554-1.49,2.176,2.176,0,0,0-.549-1.525,2.1,2.1,0,0,0-1.63-.6h-2.329ZM-35.67-7.3l-.94-.026a1.709,1.709,0,0,0-.94.237,1.5,1.5,0,0,0-.562.668V0h-2.558V-9.51h2.382l.114,1.406a3,3,0,0,1,.866-1.165,1.93,1.93,0,0,1,1.226-.417,1.918,1.918,0,0,1,.356.031q.163.031.33.075ZM-30.379.185A4.279,4.279,0,0,1-33.7-1.121a4.784,4.784,0,0,1-1.2-3.362v-.352a5.207,5.207,0,0,1,1.16-3.5,3.944,3.944,0,0,1,3.19-1.354,3.692,3.692,0,0,1,2.94,1.173,4.637,4.637,0,0,1,1.024,3.16v1.327h-5.669l-.026.053a2.569,2.569,0,0,0,.593,1.582,1.987,1.987,0,0,0,1.578.606,5.279,5.279,0,0,0,1.463-.176A5.971,5.971,0,0,0-27.4-2.5l.694,1.582a4.764,4.764,0,0,1-1.547.782A6.86,6.86,0,0,1-30.379.185Zm-.167-7.893a1.425,1.425,0,0,0-1.191.532,2.667,2.667,0,0,0-.505,1.411l.018.044H-29.1v-.193a2.221,2.221,0,0,0-.343-1.314A1.268,1.268,0,0,0-30.546-7.708Zm10.6,5.071a.885.885,0,0,0-.409-.725,4.151,4.151,0,0,0-1.516-.532A6.047,6.047,0,0,1-24.407-4.9a2.208,2.208,0,0,1-.866-1.837,2.62,2.62,0,0,1,1.037-2.083,4.182,4.182,0,0,1,2.76-.861,4.513,4.513,0,0,1,2.887.861A2.517,2.517,0,0,1-17.547-6.68l-.018.053h-2.479a1.245,1.245,0,0,0-.369-.932,1.461,1.461,0,0,0-1.063-.36,1.453,1.453,0,0,0-.976.308.957.957,0,0,0-.36.756.854.854,0,0,0,.374.716,4.158,4.158,0,0,0,1.516.5A6.17,6.17,0,0,1-18.316-4.61a2.265,2.265,0,0,1,.857,1.876,2.51,2.51,0,0,1-1.1,2.1,4.742,4.742,0,0,1-2.9.817,4.408,4.408,0,0,1-3-.962,2.691,2.691,0,0,1-1.05-2.193l.018-.053h2.347a1.334,1.334,0,0,0,.5,1.107,2.068,2.068,0,0,0,1.239.343,1.762,1.762,0,0,0,1.085-.286A.927.927,0,0,0-19.947-2.637ZM-11.685.185a4.279,4.279,0,0,1-3.322-1.305,4.784,4.784,0,0,1-1.2-3.362v-.352a5.207,5.207,0,0,1,1.16-3.5,3.944,3.944,0,0,1,3.19-1.354,3.692,3.692,0,0,1,2.94,1.173,4.637,4.637,0,0,1,1.024,3.16v1.327h-5.669l-.026.053a2.569,2.569,0,0,0,.593,1.582,1.987,1.987,0,0,0,1.578.606A5.279,5.279,0,0,0-9.949-1.96,5.971,5.971,0,0,0-8.706-2.5l.694,1.582a4.764,4.764,0,0,1-1.547.782A6.86,6.86,0,0,1-11.685.185Zm-.167-7.893a1.425,1.425,0,0,0-1.191.532,2.667,2.667,0,0,0-.505,1.411l.018.044H-10.4v-.193a2.221,2.221,0,0,0-.343-1.314A1.268,1.268,0,0,0-11.852-7.708Zm7.8-1.8.114,1.362A3.478,3.478,0,0,1-2.764-9.281a3.034,3.034,0,0,1,1.556-.4,2.828,2.828,0,0,1,2.25.927A4.4,4.4,0,0,1,1.85-5.827V0H-.725V-5.818a2.277,2.277,0,0,0-.356-1.446A1.312,1.312,0,0,0-2.149-7.69a2.241,2.241,0,0,0-1.006.215,1.965,1.965,0,0,0-.716.593V0H-6.438V-9.51Zm10.89-2.329V-9.51H8.451v1.8H6.842v4.843a1.105,1.105,0,0,0,.233.791.818.818,0,0,0,.611.237,2.45,2.45,0,0,0,.352-.022,2.961,2.961,0,0,0,.343-.075L8.591-.079a5.2,5.2,0,0,1-.751.2,4.48,4.48,0,0,1-.8.066A2.735,2.735,0,0,1,5-.545a3.2,3.2,0,0,1-.716-2.312V-7.708H2.9v-1.8H4.285v-2.329ZM15.64,0A5.4,5.4,0,0,1,15.4-.686a4.769,4.769,0,0,1-.145-.738A3.518,3.518,0,0,1,14.208-.272a2.621,2.621,0,0,1-1.547.457,3.211,3.211,0,0,1-2.3-.769,2.755,2.755,0,0,1-.809-2.1,2.508,2.508,0,0,1,1.077-2.167,5.377,5.377,0,0,1,3.142-.769h1.441v-.756a1.48,1.48,0,0,0-.36-1.063,1.414,1.414,0,0,0-1.072-.378,1.394,1.394,0,0,0-.962.3,1.059,1.059,0,0,0-.338.831h-2.47l-.018-.053a2.412,2.412,0,0,1,1.05-2.079,4.562,4.562,0,0,1,2.9-.875,4.257,4.257,0,0,1,2.773.861,3,3,0,0,1,1.059,2.47v3.929a7.431,7.431,0,0,0,.1,1.257A6.307,6.307,0,0,0,18.2,0ZM13.293-1.714a2.187,2.187,0,0,0,1.2-.334,1.8,1.8,0,0,0,.721-.773V-4.166H13.768a1.708,1.708,0,0,0-1.235.4,1.329,1.329,0,0,0-.417.993A.992.992,0,0,0,12.428-2,1.234,1.234,0,0,0,13.293-1.714Zm10.38-.07a1.428,1.428,0,0,0,1.063-.4,1.452,1.452,0,0,0,.4-1.068H27.47l.018.053A2.976,2.976,0,0,1,26.416-.787a4.01,4.01,0,0,1-2.742.971,4.052,4.052,0,0,1-3.261-1.349,5.128,5.128,0,0,1-1.151-3.45v-.264a5.161,5.161,0,0,1,1.147-3.45,4.016,4.016,0,0,1,3.248-1.358,3.922,3.922,0,0,1,2.8,1,3.348,3.348,0,0,1,1.028,2.637l-.018.053H25.132a1.9,1.9,0,0,0-.391-1.226,1.314,1.314,0,0,0-1.085-.488,1.465,1.465,0,0,0-1.411.8,4.362,4.362,0,0,0-.417,2.035v.264a4.346,4.346,0,0,0,.417,2.048A1.485,1.485,0,0,0,23.673-1.784ZM31.68,0H29.114V-9.51H31.68Zm0-11.786H29.114v-1.925H31.68Zm1.714,6.943a5.1,5.1,0,0,1,1.187-3.485,4.136,4.136,0,0,1,3.287-1.358,4.18,4.18,0,0,1,3.3,1.354,5.076,5.076,0,0,1,1.2,3.489v.185a5.084,5.084,0,0,1-1.191,3.494A4.162,4.162,0,0,1,37.885.185a4.173,4.173,0,0,1-3.3-1.349,5.084,5.084,0,0,1-1.191-3.494Zm2.558.185a4.137,4.137,0,0,0,.457,2.087,1.578,1.578,0,0,0,1.477.787,1.562,1.562,0,0,0,1.455-.791A4.11,4.11,0,0,0,39.8-4.658v-.185a4.068,4.068,0,0,0-.466-2.065,1.576,1.576,0,0,0-1.468-.8,1.557,1.557,0,0,0-1.455.8,4.1,4.1,0,0,0-.461,2.061Zm2.435-8.912h2.856l.018.053-2.435,2.285H36.637ZM46.3-9.51l.114,1.362A3.478,3.478,0,0,1,47.58-9.281a3.034,3.034,0,0,1,1.556-.4,2.828,2.828,0,0,1,2.25.927,4.4,4.4,0,0,1,.809,2.931V0H49.619V-5.818a2.277,2.277,0,0,0-.356-1.446,1.312,1.312,0,0,0-1.068-.426,2.241,2.241,0,0,0-1.006.215,1.965,1.965,0,0,0-.716.593V0H43.906V-9.51Z" transform="translate(968.643 9157.883)" fill="#fff"/>
    <path id="Trazado_195422" data-name="Trazado 195422" d="M-19.626-3.34a1.5,1.5,0,0,0-.514-1.187,5.166,5.166,0,0,0-1.806-.844,10.264,10.264,0,0,1-3.362-1.573,2.977,2.977,0,0,1-1.147-2.47,3.106,3.106,0,0,1,1.292-2.571,5.236,5.236,0,0,1,3.3-1,5.2,5.2,0,0,1,3.423,1.072A3.354,3.354,0,0,1-17.191-9.1l-.018.053H-19.7a1.864,1.864,0,0,0-.58-1.472A2.369,2.369,0,0,0-21.9-11.03a2.148,2.148,0,0,0-1.468.457A1.488,1.488,0,0,0-23.889-9.4a1.277,1.277,0,0,0,.563,1.068,7.525,7.525,0,0,0,1.942.883,8.357,8.357,0,0,1,3.217,1.56A3.2,3.2,0,0,1-17.06-3.357,3.052,3.052,0,0,1-18.343-.765a5.571,5.571,0,0,1-3.393.949A6.062,6.062,0,0,1-25.282-.844a3.392,3.392,0,0,1-1.437-3.067l.018-.053h2.487a2.013,2.013,0,0,0,.668,1.67,2.812,2.812,0,0,0,1.811.536,2.471,2.471,0,0,0,1.569-.431A1.4,1.4,0,0,0-19.626-3.34ZM-11.241.185a4.279,4.279,0,0,1-3.322-1.305,4.784,4.784,0,0,1-1.2-3.362v-.352a5.207,5.207,0,0,1,1.16-3.5,3.944,3.944,0,0,1,3.19-1.354,3.692,3.692,0,0,1,2.94,1.173,4.637,4.637,0,0,1,1.024,3.16v1.327h-5.669l-.026.053a2.569,2.569,0,0,0,.593,1.582,1.987,1.987,0,0,0,1.578.606A5.279,5.279,0,0,0-9.505-1.96,5.971,5.971,0,0,0-8.262-2.5l.694,1.582a4.764,4.764,0,0,1-1.547.782A6.86,6.86,0,0,1-11.241.185Zm-.167-7.893a1.425,1.425,0,0,0-1.191.532A2.667,2.667,0,0,0-13.1-5.766l.018.044h3.129v-.193A2.221,2.221,0,0,0-10.3-7.229,1.268,1.268,0,0,0-11.408-7.708Zm10.6,5.071a.885.885,0,0,0-.409-.725,4.151,4.151,0,0,0-1.516-.532A6.047,6.047,0,0,1-5.269-4.9a2.208,2.208,0,0,1-.866-1.837A2.62,2.62,0,0,1-5.1-8.824a4.182,4.182,0,0,1,2.76-.861,4.513,4.513,0,0,1,2.887.861A2.517,2.517,0,0,1,1.591-6.68l-.018.053H-.905a1.245,1.245,0,0,0-.369-.932,1.461,1.461,0,0,0-1.063-.36,1.453,1.453,0,0,0-.976.308.957.957,0,0,0-.36.756.854.854,0,0,0,.374.716,4.158,4.158,0,0,0,1.516.5A6.17,6.17,0,0,1,.822-4.61a2.265,2.265,0,0,1,.857,1.876,2.51,2.51,0,0,1-1.1,2.1,4.742,4.742,0,0,1-2.9.817,4.408,4.408,0,0,1-3-.962,2.691,2.691,0,0,1-1.05-2.193l.018-.053h2.347a1.334,1.334,0,0,0,.5,1.107,2.068,2.068,0,0,0,1.239.343,1.762,1.762,0,0,0,1.085-.286A.927.927,0,0,0-.809-2.637ZM6.029,0H3.463V-9.51H6.029Zm0-11.786H3.463v-1.925H6.029ZM7.743-4.843A5.1,5.1,0,0,1,8.93-8.328a4.136,4.136,0,0,1,3.287-1.358,4.18,4.18,0,0,1,3.3,1.354,5.076,5.076,0,0,1,1.2,3.489v.185a5.084,5.084,0,0,1-1.191,3.494A4.162,4.162,0,0,1,12.234.185a4.173,4.173,0,0,1-3.3-1.349A5.084,5.084,0,0,1,7.743-4.658Zm2.558.185a4.137,4.137,0,0,0,.457,2.087,1.578,1.578,0,0,0,1.477.787,1.562,1.562,0,0,0,1.455-.791,4.11,4.11,0,0,0,.461-2.083v-.185a4.068,4.068,0,0,0-.466-2.065,1.576,1.576,0,0,0-1.468-.8,1.557,1.557,0,0,0-1.455.8A4.1,4.1,0,0,0,10.3-4.843Zm2.435-8.912h2.856l.018.053-2.435,2.285H10.986Zm7.91,4.061.114,1.362a3.478,3.478,0,0,1,1.169-1.134,3.034,3.034,0,0,1,1.556-.4,2.828,2.828,0,0,1,2.25.927,4.4,4.4,0,0,1,.809,2.931V0H23.968V-5.818a2.277,2.277,0,0,0-.356-1.446,1.312,1.312,0,0,0-1.068-.426,2.241,2.241,0,0,0-1.006.215,1.965,1.965,0,0,0-.716.593V0H18.255V-9.51Z" transform="translate(969.04 9204.938)" fill="#fff"/>
    <path id="Trazado_195423" data-name="Trazado 195423" d="M-33.746-10.819H-37.4V0h-2.566V-10.819h-3.6V-12.8h9.826ZM-28.1-7.3l-.94-.026a1.709,1.709,0,0,0-.94.237,1.5,1.5,0,0,0-.562.668V0H-33.1V-9.51h2.382l.114,1.406a3,3,0,0,1,.866-1.165,1.93,1.93,0,0,1,1.226-.417,1.918,1.918,0,0,1,.356.031q.163.031.33.075ZM-21.16,0A5.4,5.4,0,0,1-21.4-.686a4.769,4.769,0,0,1-.145-.738A3.518,3.518,0,0,1-22.592-.272a2.621,2.621,0,0,1-1.547.457,3.211,3.211,0,0,1-2.3-.769,2.755,2.755,0,0,1-.809-2.1,2.508,2.508,0,0,1,1.077-2.167,5.377,5.377,0,0,1,3.142-.769h1.441v-.756a1.48,1.48,0,0,0-.36-1.063,1.414,1.414,0,0,0-1.072-.378,1.394,1.394,0,0,0-.962.3,1.059,1.059,0,0,0-.338.831h-2.47l-.018-.053a2.412,2.412,0,0,1,1.05-2.079,4.562,4.562,0,0,1,2.9-.875,4.257,4.257,0,0,1,2.773.861,3,3,0,0,1,1.059,2.47v3.929a7.431,7.431,0,0,0,.1,1.257A6.307,6.307,0,0,0-18.6,0Zm-2.347-1.714a2.187,2.187,0,0,0,1.2-.334,1.8,1.8,0,0,0,.721-.773V-4.166h-1.441a1.708,1.708,0,0,0-1.235.4,1.329,1.329,0,0,0-.417.993A.992.992,0,0,0-24.372-2,1.234,1.234,0,0,0-23.506-1.714Zm8.754-7.8.114,1.362a3.478,3.478,0,0,1,1.169-1.134,3.034,3.034,0,0,1,1.556-.4,2.828,2.828,0,0,1,2.25.927,4.4,4.4,0,0,1,.809,2.931V0H-11.43V-5.818a2.277,2.277,0,0,0-.356-1.446,1.312,1.312,0,0,0-1.068-.426,2.241,2.241,0,0,0-1.006.215,1.965,1.965,0,0,0-.716.593V0h-2.566V-9.51ZM-1.8-2.637a.885.885,0,0,0-.409-.725,4.151,4.151,0,0,0-1.516-.532A6.047,6.047,0,0,1-6.258-4.9a2.208,2.208,0,0,1-.866-1.837A2.62,2.62,0,0,1-6.086-8.824a4.182,4.182,0,0,1,2.76-.861,4.513,4.513,0,0,1,2.887.861A2.517,2.517,0,0,1,.6-6.68l-.018.053H-1.894a1.245,1.245,0,0,0-.369-.932,1.461,1.461,0,0,0-1.063-.36,1.453,1.453,0,0,0-.976.308.957.957,0,0,0-.36.756.854.854,0,0,0,.374.716,4.158,4.158,0,0,0,1.516.5A6.17,6.17,0,0,1-.167-4.61,2.265,2.265,0,0,1,.69-2.733a2.51,2.51,0,0,1-1.1,2.1,4.742,4.742,0,0,1-2.9.817,4.408,4.408,0,0,1-3-.962,2.691,2.691,0,0,1-1.05-2.193l.018-.053H-5a1.334,1.334,0,0,0,.5,1.107,2.068,2.068,0,0,0,1.239.343,1.762,1.762,0,0,0,1.085-.286A.927.927,0,0,0-1.8-2.637ZM10.92-4.491A5.462,5.462,0,0,1,9.945-1.1,3.227,3.227,0,0,1,7.22.185,3.045,3.045,0,0,1,5.893-.092,2.726,2.726,0,0,1,4.9-.905V3.656H2.342V-9.51H4.654L4.8-8.385a3.047,3.047,0,0,1,1.015-.962A2.746,2.746,0,0,1,7.2-9.686a3.165,3.165,0,0,1,2.742,1.38,6.159,6.159,0,0,1,.976,3.63ZM8.354-4.676a4.6,4.6,0,0,0-.448-2.18A1.462,1.462,0,0,0,6.535-7.69a1.938,1.938,0,0,0-.989.237,1.693,1.693,0,0,0-.646.677V-2.61A1.573,1.573,0,0,0,5.546-2a2.176,2.176,0,0,0,1.006.211,1.476,1.476,0,0,0,1.367-.729,3.851,3.851,0,0,0,.435-1.978Zm3.753-.167a5.1,5.1,0,0,1,1.187-3.485,4.136,4.136,0,0,1,3.287-1.358,4.18,4.18,0,0,1,3.3,1.354,5.076,5.076,0,0,1,1.2,3.489v.185A5.084,5.084,0,0,1,19.89-1.165,4.162,4.162,0,0,1,16.6.185a4.173,4.173,0,0,1-3.3-1.349,5.084,5.084,0,0,1-1.191-3.494Zm2.558.185a4.137,4.137,0,0,0,.457,2.087,1.578,1.578,0,0,0,1.477.787,1.562,1.562,0,0,0,1.455-.791,4.11,4.11,0,0,0,.461-2.083v-.185a4.068,4.068,0,0,0-.466-2.065,1.576,1.576,0,0,0-1.468-.8,1.557,1.557,0,0,0-1.455.8,4.1,4.1,0,0,0-.461,2.061Zm13-2.646-.94-.026a1.709,1.709,0,0,0-.94.237,1.5,1.5,0,0,0-.562.668V0H22.663V-9.51h2.382L25.159-8.1a3,3,0,0,1,.866-1.165,1.93,1.93,0,0,1,1.226-.417,1.918,1.918,0,0,1,.356.031q.163.031.33.075Zm4.562-4.535V-9.51h1.608v1.8H32.225v4.843a1.105,1.105,0,0,0,.233.791.818.818,0,0,0,.611.237,2.45,2.45,0,0,0,.352-.022,2.961,2.961,0,0,0,.343-.075l.211,1.854a5.2,5.2,0,0,1-.751.2,4.48,4.48,0,0,1-.8.066,2.735,2.735,0,0,1-2.043-.729,3.2,3.2,0,0,1-.716-2.312V-7.708H28.279v-1.8h1.389v-2.329ZM39.538.185a4.279,4.279,0,0,1-3.322-1.305,4.784,4.784,0,0,1-1.2-3.362v-.352a5.207,5.207,0,0,1,1.16-3.5,3.944,3.944,0,0,1,3.19-1.354,3.692,3.692,0,0,1,2.94,1.173,4.637,4.637,0,0,1,1.024,3.16v1.327H37.666l-.026.053a2.569,2.569,0,0,0,.593,1.582,1.987,1.987,0,0,0,1.578.606,5.279,5.279,0,0,0,1.463-.176A5.971,5.971,0,0,0,42.517-2.5l.694,1.582a4.764,4.764,0,0,1-1.547.782A6.86,6.86,0,0,1,39.538.185Zm-.167-7.893a1.425,1.425,0,0,0-1.191.532,2.667,2.667,0,0,0-.505,1.411l.018.044h3.129v-.193a2.221,2.221,0,0,0-.343-1.314A1.268,1.268,0,0,0,39.371-7.708Z" transform="translate(968.824 9251.994)" fill="#fff"/>
    <path id="Trazado_195432" data-name="Trazado 195432" d="M-33.746-10.819H-37.4V0h-2.566V-10.819h-3.6V-12.8h9.826ZM-28.1-7.3l-.94-.026a1.709,1.709,0,0,0-.94.237,1.5,1.5,0,0,0-.562.668V0H-33.1V-9.51h2.382l.114,1.406a3,3,0,0,1,.866-1.165,1.93,1.93,0,0,1,1.226-.417,1.918,1.918,0,0,1,.356.031q.163.031.33.075ZM-21.16,0A5.4,5.4,0,0,1-21.4-.686a4.769,4.769,0,0,1-.145-.738A3.518,3.518,0,0,1-22.592-.272a2.621,2.621,0,0,1-1.547.457,3.211,3.211,0,0,1-2.3-.769,2.755,2.755,0,0,1-.809-2.1,2.508,2.508,0,0,1,1.077-2.167,5.377,5.377,0,0,1,3.142-.769h1.441v-.756a1.48,1.48,0,0,0-.36-1.063,1.414,1.414,0,0,0-1.072-.378,1.394,1.394,0,0,0-.962.3,1.059,1.059,0,0,0-.338.831h-2.47l-.018-.053a2.412,2.412,0,0,1,1.05-2.079,4.562,4.562,0,0,1,2.9-.875,4.257,4.257,0,0,1,2.773.861,3,3,0,0,1,1.059,2.47v3.929a7.431,7.431,0,0,0,.1,1.257A6.307,6.307,0,0,0-18.6,0Zm-2.347-1.714a2.187,2.187,0,0,0,1.2-.334,1.8,1.8,0,0,0,.721-.773V-4.166h-1.441a1.708,1.708,0,0,0-1.235.4,1.329,1.329,0,0,0-.417.993A.992.992,0,0,0-24.372-2,1.234,1.234,0,0,0-23.506-1.714Zm8.754-7.8.114,1.362a3.478,3.478,0,0,1,1.169-1.134,3.034,3.034,0,0,1,1.556-.4,2.828,2.828,0,0,1,2.25.927,4.4,4.4,0,0,1,.809,2.931V0H-11.43V-5.818a2.277,2.277,0,0,0-.356-1.446,1.312,1.312,0,0,0-1.068-.426,2.241,2.241,0,0,0-1.006.215,1.965,1.965,0,0,0-.716.593V0h-2.566V-9.51ZM-1.8-2.637a.885.885,0,0,0-.409-.725,4.151,4.151,0,0,0-1.516-.532A6.047,6.047,0,0,1-6.258-4.9a2.208,2.208,0,0,1-.866-1.837A2.62,2.62,0,0,1-6.086-8.824a4.182,4.182,0,0,1,2.76-.861,4.513,4.513,0,0,1,2.887.861A2.517,2.517,0,0,1,.6-6.68l-.018.053H-1.894a1.245,1.245,0,0,0-.369-.932,1.461,1.461,0,0,0-1.063-.36,1.453,1.453,0,0,0-.976.308.957.957,0,0,0-.36.756.854.854,0,0,0,.374.716,4.158,4.158,0,0,0,1.516.5A6.17,6.17,0,0,1-.167-4.61,2.265,2.265,0,0,1,.69-2.733a2.51,2.51,0,0,1-1.1,2.1,4.742,4.742,0,0,1-2.9.817,4.408,4.408,0,0,1-3-.962,2.691,2.691,0,0,1-1.05-2.193l.018-.053H-5a1.334,1.334,0,0,0,.5,1.107,2.068,2.068,0,0,0,1.239.343,1.762,1.762,0,0,0,1.085-.286A.927.927,0,0,0-1.8-2.637ZM10.92-4.491A5.462,5.462,0,0,1,9.945-1.1,3.227,3.227,0,0,1,7.22.185,3.045,3.045,0,0,1,5.893-.092,2.726,2.726,0,0,1,4.9-.905V3.656H2.342V-9.51H4.654L4.8-8.385a3.047,3.047,0,0,1,1.015-.962A2.746,2.746,0,0,1,7.2-9.686a3.165,3.165,0,0,1,2.742,1.38,6.159,6.159,0,0,1,.976,3.63ZM8.354-4.676a4.6,4.6,0,0,0-.448-2.18A1.462,1.462,0,0,0,6.535-7.69a1.938,1.938,0,0,0-.989.237,1.693,1.693,0,0,0-.646.677V-2.61A1.573,1.573,0,0,0,5.546-2a2.176,2.176,0,0,0,1.006.211,1.476,1.476,0,0,0,1.367-.729,3.851,3.851,0,0,0,.435-1.978Zm3.753-.167a5.1,5.1,0,0,1,1.187-3.485,4.136,4.136,0,0,1,3.287-1.358,4.18,4.18,0,0,1,3.3,1.354,5.076,5.076,0,0,1,1.2,3.489v.185A5.084,5.084,0,0,1,19.89-1.165,4.162,4.162,0,0,1,16.6.185a4.173,4.173,0,0,1-3.3-1.349,5.084,5.084,0,0,1-1.191-3.494Zm2.558.185a4.137,4.137,0,0,0,.457,2.087,1.578,1.578,0,0,0,1.477.787,1.562,1.562,0,0,0,1.455-.791,4.11,4.11,0,0,0,.461-2.083v-.185a4.068,4.068,0,0,0-.466-2.065,1.576,1.576,0,0,0-1.468-.8,1.557,1.557,0,0,0-1.455.8,4.1,4.1,0,0,0-.461,2.061Zm13-2.646-.94-.026a1.709,1.709,0,0,0-.94.237,1.5,1.5,0,0,0-.562.668V0H22.663V-9.51h2.382L25.159-8.1a3,3,0,0,1,.866-1.165,1.93,1.93,0,0,1,1.226-.417,1.918,1.918,0,0,1,.356.031q.163.031.33.075Zm4.562-4.535V-9.51h1.608v1.8H32.225v4.843a1.105,1.105,0,0,0,.233.791.818.818,0,0,0,.611.237,2.45,2.45,0,0,0,.352-.022,2.961,2.961,0,0,0,.343-.075l.211,1.854a5.2,5.2,0,0,1-.751.2,4.48,4.48,0,0,1-.8.066,2.735,2.735,0,0,1-2.043-.729,3.2,3.2,0,0,1-.716-2.312V-7.708H28.279v-1.8h1.389v-2.329ZM39.538.185a4.279,4.279,0,0,1-3.322-1.305,4.784,4.784,0,0,1-1.2-3.362v-.352a5.207,5.207,0,0,1,1.16-3.5,3.944,3.944,0,0,1,3.19-1.354,3.692,3.692,0,0,1,2.94,1.173,4.637,4.637,0,0,1,1.024,3.16v1.327H37.666l-.026.053a2.569,2.569,0,0,0,.593,1.582,1.987,1.987,0,0,0,1.578.606,5.279,5.279,0,0,0,1.463-.176A5.971,5.971,0,0,0,42.517-2.5l.694,1.582a4.764,4.764,0,0,1-1.547.782A6.86,6.86,0,0,1,39.538.185Zm-.167-7.893a1.425,1.425,0,0,0-1.191.532,2.667,2.667,0,0,0-.505,1.411l.018.044h3.129v-.193a2.221,2.221,0,0,0-.343-1.314A1.268,1.268,0,0,0,39.371-7.708Z" transform="translate(1262.676 9252)" fill="#fff"/>
    <path id="Trazado_195424" data-name="Trazado 195424" d="M-11.777-5.115V0h-2.566V-12.8h4.43a5.306,5.306,0,0,1,3.423,1A3.376,3.376,0,0,1-5.256-9.018a2.806,2.806,0,0,1-.523,1.7A3.642,3.642,0,0,1-7.3-6.161a2.754,2.754,0,0,1,1.63,1.116,3.539,3.539,0,0,1,.5,1.934v.94A4.652,4.652,0,0,0-5.032-1.05a1.541,1.541,0,0,0,.5.866V0H-7.181a1.421,1.421,0,0,1-.453-.932,8.185,8.185,0,0,1-.1-1.257v-.905a2.034,2.034,0,0,0-.523-1.49,1.984,1.984,0,0,0-1.481-.532Zm0-1.978h1.819A2.406,2.406,0,0,0-8.35-7.55,1.694,1.694,0,0,0-7.822-8.9a1.862,1.862,0,0,0-.532-1.4,2.147,2.147,0,0,0-1.56-.519h-1.863ZM1.055.185A4.279,4.279,0,0,1-2.268-1.121a4.784,4.784,0,0,1-1.2-3.362v-.352a5.207,5.207,0,0,1,1.16-3.5A3.944,3.944,0,0,1,.888-9.686a3.692,3.692,0,0,1,2.94,1.173,4.637,4.637,0,0,1,1.024,3.16v1.327H-.817l-.026.053A2.569,2.569,0,0,0-.25-2.391a1.987,1.987,0,0,0,1.578.606A5.279,5.279,0,0,0,2.791-1.96,5.971,5.971,0,0,0,4.034-2.5L4.729-.914a4.764,4.764,0,0,1-1.547.782A6.86,6.86,0,0,1,1.055.185ZM.888-7.708A1.425,1.425,0,0,0-.3-7.176,2.667,2.667,0,0,0-.809-5.766l.018.044H2.338v-.193A2.221,2.221,0,0,0,2-7.229,1.268,1.268,0,0,0,.888-7.708ZM5.95-4.676a6.18,6.18,0,0,1,.971-3.63,3.154,3.154,0,0,1,2.738-1.38,2.663,2.663,0,0,1,1.283.308,3.087,3.087,0,0,1,1,.879v-5.212H14.52V0H12.331l-.22-1.169A3.179,3.179,0,0,1,11.048-.163,2.812,2.812,0,0,1,9.642.185,3.215,3.215,0,0,1,6.921-1.1,5.479,5.479,0,0,1,5.95-4.491Zm2.558.185A3.874,3.874,0,0,0,8.93-2.527a1.469,1.469,0,0,0,1.371.716,2,2,0,0,0,.967-.224,1.788,1.788,0,0,0,.677-.655V-6.741a1.975,1.975,0,0,0-.672-.7,1.788,1.788,0,0,0-.954-.25,1.448,1.448,0,0,0-1.375.835,4.718,4.718,0,0,0-.435,2.18Z" transform="translate(969.517 9299.049)" fill="#fff"/>
    <path id="Trazado_195433" data-name="Trazado 195433" d="M-11.777-5.115V0h-2.566V-12.8h4.43a5.306,5.306,0,0,1,3.423,1A3.376,3.376,0,0,1-5.256-9.018a2.806,2.806,0,0,1-.523,1.7A3.642,3.642,0,0,1-7.3-6.161a2.754,2.754,0,0,1,1.63,1.116,3.539,3.539,0,0,1,.5,1.934v.94A4.652,4.652,0,0,0-5.032-1.05a1.541,1.541,0,0,0,.5.866V0H-7.181a1.421,1.421,0,0,1-.453-.932,8.185,8.185,0,0,1-.1-1.257v-.905a2.034,2.034,0,0,0-.523-1.49,1.984,1.984,0,0,0-1.481-.532Zm0-1.978h1.819A2.406,2.406,0,0,0-8.35-7.55,1.694,1.694,0,0,0-7.822-8.9a1.862,1.862,0,0,0-.532-1.4,2.147,2.147,0,0,0-1.56-.519h-1.863ZM1.055.185A4.279,4.279,0,0,1-2.268-1.121a4.784,4.784,0,0,1-1.2-3.362v-.352a5.207,5.207,0,0,1,1.16-3.5A3.944,3.944,0,0,1,.888-9.686a3.692,3.692,0,0,1,2.94,1.173,4.637,4.637,0,0,1,1.024,3.16v1.327H-.817l-.026.053A2.569,2.569,0,0,0-.25-2.391a1.987,1.987,0,0,0,1.578.606A5.279,5.279,0,0,0,2.791-1.96,5.971,5.971,0,0,0,4.034-2.5L4.729-.914a4.764,4.764,0,0,1-1.547.782A6.86,6.86,0,0,1,1.055.185ZM.888-7.708A1.425,1.425,0,0,0-.3-7.176,2.667,2.667,0,0,0-.809-5.766l.018.044H2.338v-.193A2.221,2.221,0,0,0,2-7.229,1.268,1.268,0,0,0,.888-7.708ZM5.95-4.676a6.18,6.18,0,0,1,.971-3.63,3.154,3.154,0,0,1,2.738-1.38,2.663,2.663,0,0,1,1.283.308,3.087,3.087,0,0,1,1,.879v-5.212H14.52V0H12.331l-.22-1.169A3.179,3.179,0,0,1,11.048-.163,2.812,2.812,0,0,1,9.642.185,3.215,3.215,0,0,1,6.921-1.1,5.479,5.479,0,0,1,5.95-4.491Zm2.558.185A3.874,3.874,0,0,0,8.93-2.527a1.469,1.469,0,0,0,1.371.716,2,2,0,0,0,.967-.224,1.788,1.788,0,0,0,.677-.655V-6.741a1.975,1.975,0,0,0-.672-.7,1.788,1.788,0,0,0-.954-.25,1.448,1.448,0,0,0-1.375.835,4.718,4.718,0,0,0-.435,2.18Z" transform="translate(1263.676 9299)" fill="#fff"/>
    <path id="Trazado_195426" data-name="Trazado 195426" d="M-15.337-5.317H-20.25V0h-2.566V-12.8h8.376v1.978h-5.81v3.524h4.913ZM-10.248,0h-2.566V-9.51h2.566Zm-.765-13.386h2.856l.018.053-2.435,2.285h-2.188ZM-2.918-2.637a.885.885,0,0,0-.409-.725,4.151,4.151,0,0,0-1.516-.532A6.047,6.047,0,0,1-7.378-4.9a2.208,2.208,0,0,1-.866-1.837A2.62,2.62,0,0,1-7.207-8.824a4.182,4.182,0,0,1,2.76-.861,4.513,4.513,0,0,1,2.887.861A2.517,2.517,0,0,1-.519-6.68l-.018.053H-3.015a1.245,1.245,0,0,0-.369-.932,1.461,1.461,0,0,0-1.063-.36,1.453,1.453,0,0,0-.976.308.957.957,0,0,0-.36.756.854.854,0,0,0,.374.716,4.158,4.158,0,0,0,1.516.5A6.17,6.17,0,0,1-1.288-4.61,2.265,2.265,0,0,1-.431-2.733a2.51,2.51,0,0,1-1.1,2.1,4.742,4.742,0,0,1-2.9.817,4.408,4.408,0,0,1-3-.962,2.691,2.691,0,0,1-1.05-2.193l.018-.053h2.347a1.334,1.334,0,0,0,.5,1.107,2.068,2.068,0,0,0,1.239.343,1.762,1.762,0,0,0,1.085-.286A.927.927,0,0,0-2.918-2.637ZM3.92,0H1.354V-9.51H3.92Zm0-11.786H1.354v-1.925H3.92ZM10-1.784a1.428,1.428,0,0,0,1.063-.4,1.452,1.452,0,0,0,.4-1.068H13.8l.018.053A2.976,2.976,0,0,1,12.744-.787,4.01,4.01,0,0,1,10,.185,4.052,4.052,0,0,1,6.741-1.165,5.128,5.128,0,0,1,5.59-4.614v-.264a5.161,5.161,0,0,1,1.147-3.45A4.016,4.016,0,0,1,9.984-9.686a3.922,3.922,0,0,1,2.8,1,3.348,3.348,0,0,1,1.028,2.637l-.018.053H11.461A1.9,1.9,0,0,0,11.07-7.22a1.314,1.314,0,0,0-1.085-.488,1.465,1.465,0,0,0-1.411.8,4.362,4.362,0,0,0-.417,2.035v.264a4.346,4.346,0,0,0,.417,2.048A1.485,1.485,0,0,0,10-1.784ZM20.918,0a5.4,5.4,0,0,1-.242-.686,4.769,4.769,0,0,1-.145-.738A3.518,3.518,0,0,1,19.485-.272a2.621,2.621,0,0,1-1.547.457,3.211,3.211,0,0,1-2.3-.769,2.755,2.755,0,0,1-.809-2.1A2.508,2.508,0,0,1,15.9-4.847a5.377,5.377,0,0,1,3.142-.769h1.441v-.756a1.48,1.48,0,0,0-.36-1.063,1.414,1.414,0,0,0-1.072-.378,1.394,1.394,0,0,0-.962.3,1.059,1.059,0,0,0-.338.831h-2.47l-.018-.053a2.412,2.412,0,0,1,1.05-2.079,4.562,4.562,0,0,1,2.9-.875,4.257,4.257,0,0,1,2.773.861,3,3,0,0,1,1.059,2.47v3.929a7.431,7.431,0,0,0,.1,1.257A6.307,6.307,0,0,0,23.476,0ZM18.571-1.714a2.187,2.187,0,0,0,1.2-.334,1.8,1.8,0,0,0,.721-.773V-4.166H19.046a1.708,1.708,0,0,0-1.235.4,1.329,1.329,0,0,0-.417.993A.992.992,0,0,0,17.706-2,1.234,1.234,0,0,0,18.571-1.714Z" transform="translate(969.483 9393.16)" fill="#fff"/>
    <g transform="matrix(1, 0, 0, 1, 883.69, 9036.29)" filter="url(#Rectángulo_44502)">
      <g id="Rectángulo_44502-2" data-name="Rectángulo 44502" transform="translate(9 283.63)" stroke="#12263f" stroke-width="1" fill="url(#linear-gradient)">
        <rect width="153.791" height="39.022" rx="5" stroke="none"/>
        <rect x="0.5" y="0.5" width="152.791" height="38.022" rx="4.5" fill="none"/>
      </g>
    </g>
    <g transform="matrix(1, 0, 0, 1, 883.69, 9036.29)" filter="url(#Rectángulo_44510)">
      <rect id="Rectángulo_44510-2" data-name="Rectángulo 44510" width="154" height="86" rx="5" transform="translate(302.99 283.71)" fill="url(#linear-gradient-2)"/>
    </g>
    <path id="Trazado_195425" data-name="Trazado 195425" d="M-55.217-5.625h-4.746v3.656h5.643V0H-62.53V-12.8h8.191v1.978h-5.625V-7.6h4.746Zm4.852-3.885.114,1.362a3.478,3.478,0,0,1,1.169-1.134,3.034,3.034,0,0,1,1.556-.4,2.828,2.828,0,0,1,2.25.927,4.4,4.4,0,0,1,.809,2.931V0h-2.575V-5.818A2.277,2.277,0,0,0-47.4-7.264a1.312,1.312,0,0,0-1.068-.426,2.241,2.241,0,0,0-1.006.215,1.965,1.965,0,0,0-.716.593V0h-2.566V-9.51ZM-39.854,0H-42.42V-13.711h2.566Zm7.717,0a5.4,5.4,0,0,1-.242-.686,4.769,4.769,0,0,1-.145-.738A3.518,3.518,0,0,1-33.57-.272a2.621,2.621,0,0,1-1.547.457,3.211,3.211,0,0,1-2.3-.769,2.755,2.755,0,0,1-.809-2.1,2.508,2.508,0,0,1,1.077-2.167,5.377,5.377,0,0,1,3.142-.769h1.441v-.756a1.48,1.48,0,0,0-.36-1.063A1.414,1.414,0,0,0-34-7.813a1.394,1.394,0,0,0-.962.3,1.059,1.059,0,0,0-.338.831h-2.47l-.018-.053a2.412,2.412,0,0,1,1.05-2.079,4.562,4.562,0,0,1,2.9-.875,4.257,4.257,0,0,1,2.773.861A3,3,0,0,1-30-6.354v3.929a7.431,7.431,0,0,0,.1,1.257A6.307,6.307,0,0,0-29.58,0Zm-2.347-1.714a2.187,2.187,0,0,0,1.2-.334,1.8,1.8,0,0,0,.721-.773V-4.166h-1.441a1.708,1.708,0,0,0-1.235.4,1.329,1.329,0,0,0-.417.993A.992.992,0,0,0-35.35-2,1.234,1.234,0,0,0-34.484-1.714Zm10.38-.07a1.428,1.428,0,0,0,1.063-.4,1.452,1.452,0,0,0,.4-1.068h2.338l.018.053A2.976,2.976,0,0,1-21.362-.787,4.01,4.01,0,0,1-24.1.185a4.052,4.052,0,0,1-3.261-1.349,5.128,5.128,0,0,1-1.151-3.45v-.264a5.161,5.161,0,0,1,1.147-3.45,4.016,4.016,0,0,1,3.248-1.358,3.922,3.922,0,0,1,2.8,1A3.348,3.348,0,0,1-20.29-6.047l-.018.053h-2.338a1.9,1.9,0,0,0-.391-1.226,1.314,1.314,0,0,0-1.085-.488,1.465,1.465,0,0,0-1.411.8,4.362,4.362,0,0,0-.417,2.035v.264a4.346,4.346,0,0,0,.417,2.048A1.485,1.485,0,0,0-24.1-1.784ZM-14.673.185A4.279,4.279,0,0,1-18-1.121a4.784,4.784,0,0,1-1.2-3.362v-.352a5.207,5.207,0,0,1,1.16-3.5,3.944,3.944,0,0,1,3.19-1.354A3.692,3.692,0,0,1-11.9-8.512a4.637,4.637,0,0,1,1.024,3.16v1.327h-5.669l-.026.053a2.569,2.569,0,0,0,.593,1.582,1.987,1.987,0,0,0,1.578.606,5.279,5.279,0,0,0,1.463-.176A5.971,5.971,0,0,0-11.694-2.5L-11-.914a4.764,4.764,0,0,1-1.547.782A6.86,6.86,0,0,1-14.673.185Zm-.167-7.893a1.425,1.425,0,0,0-1.191.532,2.667,2.667,0,0,0-.505,1.411l.018.044h3.129v-.193a2.221,2.221,0,0,0-.343-1.314A1.268,1.268,0,0,0-14.84-7.708ZM-5.3-4.676a6.18,6.18,0,0,1,.971-3.63,3.154,3.154,0,0,1,2.738-1.38A2.663,2.663,0,0,1-.3-9.378,3.087,3.087,0,0,1,.7-8.5v-5.212H3.274V0H1.085L.866-1.169A3.179,3.179,0,0,1-.2-.163,2.812,2.812,0,0,1-1.6.185,3.215,3.215,0,0,1-4.324-1.1,5.479,5.479,0,0,1-5.3-4.491Zm2.558.185a3.874,3.874,0,0,0,.422,1.964,1.469,1.469,0,0,0,1.371.716,2,2,0,0,0,.967-.224A1.788,1.788,0,0,0,.7-2.689V-6.741a1.975,1.975,0,0,0-.672-.7,1.788,1.788,0,0,0-.954-.25A1.448,1.448,0,0,0-2.3-6.855a4.718,4.718,0,0,0-.435,2.18ZM9.382.185A4.279,4.279,0,0,1,6.06-1.121a4.784,4.784,0,0,1-1.2-3.362v-.352a5.207,5.207,0,0,1,1.16-3.5,3.944,3.944,0,0,1,3.19-1.354,3.692,3.692,0,0,1,2.94,1.173,4.637,4.637,0,0,1,1.024,3.16v1.327H7.51l-.026.053a2.569,2.569,0,0,0,.593,1.582,1.987,1.987,0,0,0,1.578.606,5.279,5.279,0,0,0,1.463-.176A5.971,5.971,0,0,0,12.362-2.5l.694,1.582a4.764,4.764,0,0,1-1.547.782A6.86,6.86,0,0,1,9.382.185ZM9.215-7.708a1.425,1.425,0,0,0-1.191.532,2.667,2.667,0,0,0-.505,1.411l.018.044h3.129v-.193a2.221,2.221,0,0,0-.343-1.314A1.268,1.268,0,0,0,9.215-7.708ZM18.76-4.676a6.18,6.18,0,0,1,.971-3.63,3.154,3.154,0,0,1,2.738-1.38,2.663,2.663,0,0,1,1.283.308,3.087,3.087,0,0,1,1,.879v-5.212H27.33V0H25.141l-.22-1.169A3.179,3.179,0,0,1,23.858-.163a2.812,2.812,0,0,1-1.406.347A3.215,3.215,0,0,1,19.731-1.1a5.479,5.479,0,0,1-.971-3.393Zm2.558.185a3.874,3.874,0,0,0,.422,1.964,1.469,1.469,0,0,0,1.371.716,2,2,0,0,0,.967-.224,1.788,1.788,0,0,0,.677-.655V-6.741a1.975,1.975,0,0,0-.672-.7,1.788,1.788,0,0,0-.954-.25,1.448,1.448,0,0,0-1.375.835,4.718,4.718,0,0,0-.435,2.18ZM34.923,0a5.4,5.4,0,0,1-.242-.686,4.769,4.769,0,0,1-.145-.738A3.518,3.518,0,0,1,33.491-.272a2.621,2.621,0,0,1-1.547.457,3.211,3.211,0,0,1-2.3-.769,2.755,2.755,0,0,1-.809-2.1,2.508,2.508,0,0,1,1.077-2.167,5.377,5.377,0,0,1,3.142-.769h1.441v-.756a1.48,1.48,0,0,0-.36-1.063,1.414,1.414,0,0,0-1.072-.378,1.394,1.394,0,0,0-.962.3,1.059,1.059,0,0,0-.338.831H29.29l-.018-.053a2.412,2.412,0,0,1,1.05-2.079,4.562,4.562,0,0,1,2.9-.875A4.257,4.257,0,0,1,36-8.824a3,3,0,0,1,1.059,2.47v3.929a7.431,7.431,0,0,0,.1,1.257A6.307,6.307,0,0,0,37.481,0ZM32.577-1.714a2.187,2.187,0,0,0,1.2-.334,1.8,1.8,0,0,0,.721-.773V-4.166H33.051a1.708,1.708,0,0,0-1.235.4,1.329,1.329,0,0,0-.417.993A.992.992,0,0,0,31.711-2,1.234,1.234,0,0,0,32.577-1.714ZM42.06-11.839V-9.51h1.608v1.8H42.06v4.843a1.105,1.105,0,0,0,.233.791.818.818,0,0,0,.611.237,2.45,2.45,0,0,0,.352-.022,2.961,2.961,0,0,0,.343-.075l.211,1.854a5.2,5.2,0,0,1-.751.2,4.48,4.48,0,0,1-.8.066,2.735,2.735,0,0,1-2.043-.729A3.2,3.2,0,0,1,39.5-2.856V-7.708H38.114v-1.8H39.5v-2.329Zm2.795,7a5.1,5.1,0,0,1,1.187-3.485,4.136,4.136,0,0,1,3.287-1.358,4.18,4.18,0,0,1,3.3,1.354,5.076,5.076,0,0,1,1.2,3.489v.185a5.084,5.084,0,0,1-1.191,3.494A4.162,4.162,0,0,1,49.346.185a4.173,4.173,0,0,1-3.3-1.349,5.084,5.084,0,0,1-1.191-3.494Zm2.558.185a4.137,4.137,0,0,0,.457,2.087,1.578,1.578,0,0,0,1.477.787A1.562,1.562,0,0,0,50.8-2.575a4.11,4.11,0,0,0,.461-2.083v-.185A4.068,4.068,0,0,0,50.8-6.908a1.576,1.576,0,0,0-1.468-.8,1.557,1.557,0,0,0-1.455.8,4.1,4.1,0,0,0-.461,2.061Zm13.14,2.021a.885.885,0,0,0-.409-.725,4.151,4.151,0,0,0-1.516-.532A6.047,6.047,0,0,1,56.092-4.9a2.208,2.208,0,0,1-.866-1.837,2.62,2.62,0,0,1,1.037-2.083,4.182,4.182,0,0,1,2.76-.861,4.513,4.513,0,0,1,2.887.861A2.517,2.517,0,0,1,62.952-6.68l-.018.053H60.456a1.245,1.245,0,0,0-.369-.932,1.461,1.461,0,0,0-1.063-.36,1.453,1.453,0,0,0-.976.308.957.957,0,0,0-.36.756.854.854,0,0,0,.374.716,4.158,4.158,0,0,0,1.516.5A6.17,6.17,0,0,1,62.183-4.61a2.265,2.265,0,0,1,.857,1.876,2.51,2.51,0,0,1-1.1,2.1,4.742,4.742,0,0,1-2.9.817,4.408,4.408,0,0,1-3-.962,2.691,2.691,0,0,1-1.05-2.193l.018-.053h2.347a1.334,1.334,0,0,0,.5,1.107,2.068,2.068,0,0,0,1.239.343,1.762,1.762,0,0,0,1.085-.286A.927.927,0,0,0,60.552-2.637Z" transform="translate(968.166 9346.104)" fill="#fff"/>
    <path id="Trazado_195434" data-name="Trazado 195434" d="M-55.217-5.625h-4.746v3.656h5.643V0H-62.53V-12.8h8.191v1.978h-5.625V-7.6h4.746Zm4.852-3.885.114,1.362a3.478,3.478,0,0,1,1.169-1.134,3.034,3.034,0,0,1,1.556-.4,2.828,2.828,0,0,1,2.25.927,4.4,4.4,0,0,1,.809,2.931V0h-2.575V-5.818A2.277,2.277,0,0,0-47.4-7.264a1.312,1.312,0,0,0-1.068-.426,2.241,2.241,0,0,0-1.006.215,1.965,1.965,0,0,0-.716.593V0h-2.566V-9.51ZM-39.854,0H-42.42V-13.711h2.566Zm7.717,0a5.4,5.4,0,0,1-.242-.686,4.769,4.769,0,0,1-.145-.738A3.518,3.518,0,0,1-33.57-.272a2.621,2.621,0,0,1-1.547.457,3.211,3.211,0,0,1-2.3-.769,2.755,2.755,0,0,1-.809-2.1,2.508,2.508,0,0,1,1.077-2.167,5.377,5.377,0,0,1,3.142-.769h1.441v-.756a1.48,1.48,0,0,0-.36-1.063A1.414,1.414,0,0,0-34-7.813a1.394,1.394,0,0,0-.962.3,1.059,1.059,0,0,0-.338.831h-2.47l-.018-.053a2.412,2.412,0,0,1,1.05-2.079,4.562,4.562,0,0,1,2.9-.875,4.257,4.257,0,0,1,2.773.861A3,3,0,0,1-30-6.354v3.929a7.431,7.431,0,0,0,.1,1.257A6.307,6.307,0,0,0-29.58,0Zm-2.347-1.714a2.187,2.187,0,0,0,1.2-.334,1.8,1.8,0,0,0,.721-.773V-4.166h-1.441a1.708,1.708,0,0,0-1.235.4,1.329,1.329,0,0,0-.417.993A.992.992,0,0,0-35.35-2,1.234,1.234,0,0,0-34.484-1.714Zm10.38-.07a1.428,1.428,0,0,0,1.063-.4,1.452,1.452,0,0,0,.4-1.068h2.338l.018.053A2.976,2.976,0,0,1-21.362-.787,4.01,4.01,0,0,1-24.1.185a4.052,4.052,0,0,1-3.261-1.349,5.128,5.128,0,0,1-1.151-3.45v-.264a5.161,5.161,0,0,1,1.147-3.45,4.016,4.016,0,0,1,3.248-1.358,3.922,3.922,0,0,1,2.8,1A3.348,3.348,0,0,1-20.29-6.047l-.018.053h-2.338a1.9,1.9,0,0,0-.391-1.226,1.314,1.314,0,0,0-1.085-.488,1.465,1.465,0,0,0-1.411.8,4.362,4.362,0,0,0-.417,2.035v.264a4.346,4.346,0,0,0,.417,2.048A1.485,1.485,0,0,0-24.1-1.784ZM-14.673.185A4.279,4.279,0,0,1-18-1.121a4.784,4.784,0,0,1-1.2-3.362v-.352a5.207,5.207,0,0,1,1.16-3.5,3.944,3.944,0,0,1,3.19-1.354A3.692,3.692,0,0,1-11.9-8.512a4.637,4.637,0,0,1,1.024,3.16v1.327h-5.669l-.026.053a2.569,2.569,0,0,0,.593,1.582,1.987,1.987,0,0,0,1.578.606,5.279,5.279,0,0,0,1.463-.176A5.971,5.971,0,0,0-11.694-2.5L-11-.914a4.764,4.764,0,0,1-1.547.782A6.86,6.86,0,0,1-14.673.185Zm-.167-7.893a1.425,1.425,0,0,0-1.191.532,2.667,2.667,0,0,0-.505,1.411l.018.044h3.129v-.193a2.221,2.221,0,0,0-.343-1.314A1.268,1.268,0,0,0-14.84-7.708ZM-5.3-4.676a6.18,6.18,0,0,1,.971-3.63,3.154,3.154,0,0,1,2.738-1.38A2.663,2.663,0,0,1-.3-9.378,3.087,3.087,0,0,1,.7-8.5v-5.212H3.274V0H1.085L.866-1.169A3.179,3.179,0,0,1-.2-.163,2.812,2.812,0,0,1-1.6.185,3.215,3.215,0,0,1-4.324-1.1,5.479,5.479,0,0,1-5.3-4.491Zm2.558.185a3.874,3.874,0,0,0,.422,1.964,1.469,1.469,0,0,0,1.371.716,2,2,0,0,0,.967-.224A1.788,1.788,0,0,0,.7-2.689V-6.741a1.975,1.975,0,0,0-.672-.7,1.788,1.788,0,0,0-.954-.25A1.448,1.448,0,0,0-2.3-6.855a4.718,4.718,0,0,0-.435,2.18ZM9.382.185A4.279,4.279,0,0,1,6.06-1.121a4.784,4.784,0,0,1-1.2-3.362v-.352a5.207,5.207,0,0,1,1.16-3.5,3.944,3.944,0,0,1,3.19-1.354,3.692,3.692,0,0,1,2.94,1.173,4.637,4.637,0,0,1,1.024,3.16v1.327H7.51l-.026.053a2.569,2.569,0,0,0,.593,1.582,1.987,1.987,0,0,0,1.578.606,5.279,5.279,0,0,0,1.463-.176A5.971,5.971,0,0,0,12.362-2.5l.694,1.582a4.764,4.764,0,0,1-1.547.782A6.86,6.86,0,0,1,9.382.185ZM9.215-7.708a1.425,1.425,0,0,0-1.191.532,2.667,2.667,0,0,0-.505,1.411l.018.044h3.129v-.193a2.221,2.221,0,0,0-.343-1.314A1.268,1.268,0,0,0,9.215-7.708ZM18.76-4.676a6.18,6.18,0,0,1,.971-3.63,3.154,3.154,0,0,1,2.738-1.38,2.663,2.663,0,0,1,1.283.308,3.087,3.087,0,0,1,1,.879v-5.212H27.33V0H25.141l-.22-1.169A3.179,3.179,0,0,1,23.858-.163a2.812,2.812,0,0,1-1.406.347A3.215,3.215,0,0,1,19.731-1.1a5.479,5.479,0,0,1-.971-3.393Zm2.558.185a3.874,3.874,0,0,0,.422,1.964,1.469,1.469,0,0,0,1.371.716,2,2,0,0,0,.967-.224,1.788,1.788,0,0,0,.677-.655V-6.741a1.975,1.975,0,0,0-.672-.7,1.788,1.788,0,0,0-.954-.25,1.448,1.448,0,0,0-1.375.835,4.718,4.718,0,0,0-.435,2.18ZM34.923,0a5.4,5.4,0,0,1-.242-.686,4.769,4.769,0,0,1-.145-.738A3.518,3.518,0,0,1,33.491-.272a2.621,2.621,0,0,1-1.547.457,3.211,3.211,0,0,1-2.3-.769,2.755,2.755,0,0,1-.809-2.1,2.508,2.508,0,0,1,1.077-2.167,5.377,5.377,0,0,1,3.142-.769h1.441v-.756a1.48,1.48,0,0,0-.36-1.063,1.414,1.414,0,0,0-1.072-.378,1.394,1.394,0,0,0-.962.3,1.059,1.059,0,0,0-.338.831H29.29l-.018-.053a2.412,2.412,0,0,1,1.05-2.079,4.562,4.562,0,0,1,2.9-.875A4.257,4.257,0,0,1,36-8.824a3,3,0,0,1,1.059,2.47v3.929a7.431,7.431,0,0,0,.1,1.257A6.307,6.307,0,0,0,37.481,0ZM32.577-1.714a2.187,2.187,0,0,0,1.2-.334,1.8,1.8,0,0,0,.721-.773V-4.166H33.051a1.708,1.708,0,0,0-1.235.4,1.329,1.329,0,0,0-.417.993A.992.992,0,0,0,31.711-2,1.234,1.234,0,0,0,32.577-1.714ZM42.06-11.839V-9.51h1.608v1.8H42.06v4.843a1.105,1.105,0,0,0,.233.791.818.818,0,0,0,.611.237,2.45,2.45,0,0,0,.352-.022,2.961,2.961,0,0,0,.343-.075l.211,1.854a5.2,5.2,0,0,1-.751.2,4.48,4.48,0,0,1-.8.066,2.735,2.735,0,0,1-2.043-.729A3.2,3.2,0,0,1,39.5-2.856V-7.708H38.114v-1.8H39.5v-2.329Zm2.795,7a5.1,5.1,0,0,1,1.187-3.485,4.136,4.136,0,0,1,3.287-1.358,4.18,4.18,0,0,1,3.3,1.354,5.076,5.076,0,0,1,1.2,3.489v.185a5.084,5.084,0,0,1-1.191,3.494A4.162,4.162,0,0,1,49.346.185a4.173,4.173,0,0,1-3.3-1.349,5.084,5.084,0,0,1-1.191-3.494Zm2.558.185a4.137,4.137,0,0,0,.457,2.087,1.578,1.578,0,0,0,1.477.787A1.562,1.562,0,0,0,50.8-2.575a4.11,4.11,0,0,0,.461-2.083v-.185A4.068,4.068,0,0,0,50.8-6.908a1.576,1.576,0,0,0-1.468-.8,1.557,1.557,0,0,0-1.455.8,4.1,4.1,0,0,0-.461,2.061Zm13.14,2.021a.885.885,0,0,0-.409-.725,4.151,4.151,0,0,0-1.516-.532A6.047,6.047,0,0,1,56.092-4.9a2.208,2.208,0,0,1-.866-1.837,2.62,2.62,0,0,1,1.037-2.083,4.182,4.182,0,0,1,2.76-.861,4.513,4.513,0,0,1,2.887.861A2.517,2.517,0,0,1,62.952-6.68l-.018.053H60.456a1.245,1.245,0,0,0-.369-.932,1.461,1.461,0,0,0-1.063-.36,1.453,1.453,0,0,0-.976.308.957.957,0,0,0-.36.756.854.854,0,0,0,.374.716,4.158,4.158,0,0,0,1.516.5A6.17,6.17,0,0,1,62.183-4.61a2.265,2.265,0,0,1,.857,1.876,2.51,2.51,0,0,1-1.1,2.1,4.742,4.742,0,0,1-2.9.817,4.408,4.408,0,0,1-3-.962,2.691,2.691,0,0,1-1.05-2.193l.018-.053h2.347a1.334,1.334,0,0,0,.5,1.107,2.068,2.068,0,0,0,1.239.343,1.762,1.762,0,0,0,1.085-.286A.927.927,0,0,0,60.552-2.637Z" transform="translate(1261.676 9369)" fill="#fff"/>
    <path id="Trazado_195429" data-name="Trazado 195429" d="M-19.186-8.246h-2.971V0h-1.212V-8.246h-2.964v-1h7.147Zm8.169,5.313A3.4,3.4,0,0,1-12.1-.67a3.547,3.547,0,0,1-2.422.8,3.257,3.257,0,0,1-2.625-1.174,4.724,4.724,0,0,1-.987-3.142v-.889a5.266,5.266,0,0,1,.46-2.266,3.438,3.438,0,0,1,1.3-1.5,3.632,3.632,0,0,1,1.955-.524,3.34,3.34,0,0,1,2.361.822,3.441,3.441,0,0,1,1.035,2.276h-1.225a2.655,2.655,0,0,0-.689-1.6,2.084,2.084,0,0,0-1.482-.5,2.181,2.181,0,0,0-1.831.864,3.966,3.966,0,0,0-.663,2.459v.9a4.077,4.077,0,0,0,.628,2.4A2.031,2.031,0,0,0-14.52-.87a2.345,2.345,0,0,0,1.558-.46,2.554,2.554,0,0,0,.72-1.6Zm2.882-.686V0H-9.353V-9.242h3.409a3.425,3.425,0,0,1,2.377.774,2.625,2.625,0,0,1,.86,2.05,2.591,2.591,0,0,1-.841,2.073,3.578,3.578,0,0,1-2.409.727Zm0-1h2.19a2.19,2.19,0,0,0,1.5-.461,1.686,1.686,0,0,0,.521-1.332,1.742,1.742,0,0,0-.521-1.323,2.051,2.051,0,0,0-1.428-.515h-2.26Zm4.7,6.456L-4.1,1.384A3.063,3.063,0,0,0-3.475-.33V-1.39h1.149v.92A2.891,2.891,0,0,1-2.641.813,3,3,0,0,1-3.431,1.841ZM9.068-9.242v6.284A2.948,2.948,0,0,1,8.246-.819,3.312,3.312,0,0,1,6.033.114L5.71.127A3.459,3.459,0,0,1,3.291-.692a2.929,2.929,0,0,1-.914-2.253v-6.3H3.583v6.259a2.114,2.114,0,0,0,.552,1.558A2.123,2.123,0,0,0,5.71-.87a2.137,2.137,0,0,0,1.584-.552,2.11,2.11,0,0,0,.549-1.555V-9.242ZM10.991,0V-9.242H13.6a4.2,4.2,0,0,1,2.133.533,3.606,3.606,0,0,1,1.431,1.517,4.938,4.938,0,0,1,.511,2.26v.59a4.955,4.955,0,0,1-.5,2.292A3.55,3.55,0,0,1,15.729-.54a4.467,4.467,0,0,1-2.18.54ZM12.21-8.246V-1h1.282a2.79,2.79,0,0,0,2.193-.877,3.622,3.622,0,0,0,.784-2.5v-.54a3.68,3.68,0,0,0-.74-2.449,2.632,2.632,0,0,0-2.1-.886Zm8.525,4.627V0H19.516V-9.242h3.409a3.425,3.425,0,0,1,2.377.774,2.625,2.625,0,0,1,.86,2.05,2.591,2.591,0,0,1-.841,2.073,3.578,3.578,0,0,1-2.409.727Zm0-1h2.19a2.19,2.19,0,0,0,1.5-.461,1.686,1.686,0,0,0,.521-1.332,1.742,1.742,0,0,0-.521-1.323,2.051,2.051,0,0,0-1.428-.515h-2.26Z" transform="translate(1114.676 9250)" fill="#12263f"/>
  </g>
</svg>
