<svg xmlns="http://www.w3.org/2000/svg" width="86" height="86" viewBox="0 0 86 86">
  <g id="Grupo_152639" data-name="Grupo 152639" transform="translate(-757.676 -2633)">
    <g id="Grupo_149888" data-name="Grupo 149888" transform="translate(501.676 -3197)">
      <circle id="Elipse_4775" data-name="Elipse 4775" cx="43" cy="43" r="43" transform="translate(256 5830)" fill="#244366"/>
      <g id="cBpRW6" transform="translate(-4681.833 4987.99)">
        <g id="Grupo_143032" data-name="Grupo 143032" transform="translate(4955.523 852.734)">
          <path id="Trazado_184068" data-name="Trazado 184068" d="M4964.052,864.794a12.739,12.739,0,0,1,3.093-7.767,12.444,12.444,0,0,1,19.443.8,1.408,1.408,0,0,0,1.3.663,10.818,10.818,0,0,1,9.919,5.759,1.779,1.779,0,0,0,1,.781,9.439,9.439,0,0,1,7.324,9.471,9.332,9.332,0,0,1-8.333,8.987c-.394.047-.786.1-1.311.174,0,.632-.025,1.254.006,1.872.042.832-.3,1.306-1.155,1.209-.754-.085-1.08.214-1.213.934a4.884,4.884,0,0,1-.5,1.3c-.455.891-1,1.74.176,2.557.146.1.063.861-.153,1.1-1.1,1.2-2.282,2.332-3.439,3.483a.906.906,0,0,1-1.526-.115c-.457-.6-.88-.557-1.512-.221-.9.48-1.885.8-2.85,1.2-.245,1.907-.245,1.907-2.618,2.095V903.5c.049.034.1.1.153.1,2.063.04,2.028-.132,2.017,2.156,0,.966-.021,1.932.006,2.9.021.757-.317,1.117-1.062,1.117-1.3,0-2.6-.006-3.9,0-.783.006-1.157-.332-1.137-1.147.03-1.232,0-2.465.011-3.7.008-1.173.128-1.281,1.347-1.3.26,0,.52-.022.832-.036V899.08c-.713-.064-1.549.092-2.034-.25-.439-.311-.5-1.163-.77-1.906-.921-.4-2.025-.925-3.165-1.351-.227-.085-.655.123-.881.322-.871.765-1.085.787-1.9-.023-.947-.937-1.886-1.882-2.827-2.825-1.005-1.008-1-1.109.009-2.166.113-.118.216-.246.287-.326-.448-1.16-.843-2.285-1.333-3.366a1.072,1.072,0,0,0-.853-.411c-.988.03-1.418-.37-1.335-1.367.046-.558.008-1.123.008-1.787a9.658,9.658,0,0,1-7.739-3.777,9.044,9.044,0,0,1-1.9-5.765C4955.583,870.075,4958.212,865.724,4964.052,864.794Zm32.431,17.144a16.315,16.315,0,0,0,1.92-.2,7.649,7.649,0,0,0,6.053-7.738,7.547,7.547,0,0,0-6.428-7.4,1.843,1.843,0,0,1-1.521-1.182,8.99,8.99,0,0,0-9.26-5.212,1.349,1.349,0,0,1-1.488-.676,10.81,10.81,0,0,0-20.027,5.564c-.032.953-.287,1.342-1.308,1.392a7.712,7.712,0,0,0-1.366,15.191,16.827,16.827,0,0,0,2,.256c.217-1.676.22-1.666,1.87-2.093a.8.8,0,0,0,.446-.435c.453-1.1.873-2.2,1.319-3.348-.106-.113-.24-.26-.378-.4-.918-.943-.918-1.07.021-2.013.8-.8,1.607-1.6,2.4-2.4,1.308-1.331,1.371-1.547,2.824-.079.041.042.119.046.067.027,1.034-.425,1.964-.875,2.94-1.185.641-.2.954-.46.854-1.169-.086-.619.069-1.166.851-1.172,1.7-.014,3.4-.041,5.093.03.3.012.851.522.818.729-.191,1.208.512,1.5,1.454,1.772a19.8,19.8,0,0,1,2.385,1.035c.137-.126.284-.257.426-.394.951-.92,1.137-.916,2.1.046l2.4,2.4c1.326,1.325,1.326,1.324.053,2.733a.319.319,0,0,0-.055.131,27.618,27.618,0,0,1,1.188,2.882c.2.687.5.916,1.177.842.782-.085,1.195.291,1.168,1.1C4996.475,881.23,4996.482,881.491,4996.482,881.938Zm-26.713-7.231c1.013,1.213.966,1.19.223,2.7a19.2,19.2,0,0,0-1.162,3.056c-.21.719-.523,1.111-1.306,1.039a3.018,3.018,0,0,0-.657.082v3.526c1.4-.332,1.853.415,2.11,1.6a10.545,10.545,0,0,0,1,2.483c.764,1.5.792,1.485-.217,2.73l2.413,2.483c1.262-1.058,1.249-1.033,2.708-.277a11.192,11.192,0,0,0,2.382.991c1.167.291,2.178.583,1.717,2.168h3.57c.2-1.665.215-1.621.9-1.892,1.382-.547,2.729-1.185,4.123-1.7a2.034,2.034,0,0,1,1.228.146c.255.088.438.385.666.6l2.454-2.511c-1.036-1.238-1.01-1.225-.234-2.746a11.312,11.312,0,0,0,.965-2.39c.282-1.149.627-2.078,2.121-1.686v-3.655c-1.536.416-1.817-.542-2.138-1.667a14.275,14.275,0,0,0-1.324-2.989,1.142,1.142,0,0,1,.214-1.659,2.662,2.662,0,0,0,.352-.425l-2.4-2.526c-.627.424-1,1.276-2.045.715-1.273-.682-2.69-1.091-4.005-1.7a2.037,2.037,0,0,1-.772-.97,2.406,2.406,0,0,1-.022-.919h-3.682c.536,1.619-.495,1.893-1.67,2.173a7.5,7.5,0,0,0-2.286.957c-1.041.669-1.959,1.084-2.756-.316Zm9.728,30.555v2.781h2.655v-2.781Z" transform="translate(-4955.523 -852.734)" fill="#fff"/>
          <path id="Trazado_184069" data-name="Trazado 184069" d="M5158.62,1059.984c-1.7,0-3.359-.009-5.014.005-.612.005-1.228-.054-1.222-.811s.608-.825,1.228-.82c1.83.015,3.662.028,5.491,0,.918-.017,1.23.392,1.223,1.269-.026,2.793-.009,5.586-.009,8.341.093.08.142.158.19.158,2.352-.048,2.011.248,2.027,2.242.008.932-.025,1.865.01,2.8.03.826-.369,1.143-1.143,1.138-1.265-.008-2.53-.018-3.794,0-.851.014-1.2-.387-1.191-1.217.02-1.165,0-2.33.005-3.494,0-1.271.153-1.416,1.432-1.434.232,0,.463-.02.769-.034Zm2.223,12.585v-2.76h-2.678v2.76Z" transform="translate(-5113.033 -1017.252)" fill="#fff"/>
          <path id="Trazado_184070" data-name="Trazado 184070" d="M4968.616,1060.006c0,2.561,0,4.984,0,7.407,0,.226.021.452.03.662,2.2.306,2.2.306,2.2,2.577,0,.865-.019,1.73.006,2.594a.9.9,0,0,1-1.005,1.065q-2.046.017-4.091,0c-.7,0-1.011-.38-1-1.075.013-1.231,0-2.462,0-3.692s.132-1.345,1.383-1.368c.258,0,.515-.028.866-.049v-8.011c0-1.73,0-1.73,1.718-1.73,1.7,0,3.393.009,5.089,0,.616,0,1.094.181,1.081.863-.012.642-.493.771-1.056.766C4972.146,1060,4970.455,1060.006,4968.616,1060.006Zm-2.133,9.829v2.75h2.658v-2.75Z" transform="translate(-4962.908 -1017.274)" fill="#fff"/>
          <path id="Trazado_184071" data-name="Trazado 184071" d="M5026.849,872.632a10.964,10.964,0,0,1,5.223,1.475c.548.321.962.723.563,1.353-.377.594-.918.356-1.4.066a8.236,8.236,0,0,0-6.048-1.062c-3.146.655-4.9,2.875-5.342,6.605-.069.586-.081,1.235-.865,1.183-.812-.053-.832-.714-.788-1.351A8.487,8.487,0,0,1,5026.849,872.632Z" transform="translate(-5005.65 -868.655)" fill="#fff"/>
          <path id="Trazado_184072" data-name="Trazado 184072" d="M5042.762,974.554a8.175,8.175,0,0,0,8.1-7.87c.031-.636.188-1.209.91-1.16.748.051.756.694.732,1.294a9.853,9.853,0,0,1-19.69-.795c.168-5.213,4.55-9.628,9.507-9.535a1.464,1.464,0,0,1,1.06.5c.349.522-.12,1.024-.943,1.083a8.242,8.242,0,0,0,.327,16.48Z" transform="translate(-5017.358 -935.748)" fill="#fff"/>
          <path id="Trazado_184073" data-name="Trazado 184073" d="M5067.033,985.457a4.974,4.974,0,0,1-4.56,5.035c-.57.057-1.135.041-1.233-.661-.107-.768.451-.916,1.071-.989a3.344,3.344,0,0,0,3.107-3.3,3.4,3.4,0,0,0-6.778-.394c-.071.63-.159,1.183-.928,1.113-.812-.074-.724-.734-.689-1.3a5.017,5.017,0,0,1,10.01.5Z" transform="translate(-5036.718 -954.909)" fill="#fff"/>
        </g>
      </g>
    </g>
  </g>
</svg>
