<svg xmlns="http://www.w3.org/2000/svg" xmlns:xlink="http://www.w3.org/1999/xlink" width="166" height="140" viewBox="0 0 166 140">
  <defs>
    <filter id="Rect치ngulo_44433" x="0" y="0" width="166" height="140" filterUnits="userSpaceOnUse">
      <feOffset dy="3" input="SourceAlpha"/>
      <feGaussianBlur stdDeviation="3" result="blur"/>
      <feFlood flood-opacity="0.161"/>
      <feComposite operator="in" in2="blur"/>
      <feComposite in="SourceGraphic"/>
    </filter>
    <linearGradient id="linear-gradient" x1="0.5" x2="0.5" y2="1" gradientUnits="objectBoundingBox">
      <stop offset="0" stop-color="#4dd0e1"/>
      <stop offset="1" stop-color="#039be5"/>
    </linearGradient>
  </defs>
  <g id="Grupo_152024" data-name="Grupo 152024" transform="translate(-1193.676 -1914)">
    <g transform="matrix(1, 0, 0, 1, 1193.68, 1914)" filter="url(#Rect치ngulo_44433)">
      <rect id="Rect치ngulo_44433-2" data-name="Rect치ngulo 44433" width="148" height="122" rx="10" transform="translate(9 6)" fill="#fff"/>
    </g>
    <path id="Trazado_194459" data-name="Trazado 194459" d="M30.48,12.836H28.613V17H26.27V5.625H30.5a4.778,4.778,0,0,1,3.109.9A3.1,3.1,0,0,1,34.7,9.063,3.5,3.5,0,0,1,34.2,11a3.437,3.437,0,0,1-1.527,1.238l2.461,4.648V17H32.613Zm-1.867-1.9H30.5a1.936,1.936,0,0,0,1.367-.449,1.606,1.606,0,0,0,.484-1.238A1.719,1.719,0,0,0,31.9,7.984a1.9,1.9,0,0,0-1.4-.461H28.613Zm11.609,6.219A4.15,4.15,0,0,1,37.2,16.016a4.054,4.054,0,0,1-1.168-3.039v-.219a5.106,5.106,0,0,1,.492-2.277,3.612,3.612,0,0,1,1.395-1.547,3.914,3.914,0,0,1,2.059-.543A3.508,3.508,0,0,1,42.7,9.484a4.444,4.444,0,0,1,1,3.1v.922H38.316a2.1,2.1,0,0,0,.66,1.328,2,2,0,0,0,1.395.5,2.437,2.437,0,0,0,2.039-.945l1.109,1.242a3.389,3.389,0,0,1-1.375,1.121A4.511,4.511,0,0,1,40.223,17.156Zm-.258-6.945a1.411,1.411,0,0,0-1.09.455,2.357,2.357,0,0,0-.535,1.3H41.48v-.181a1.681,1.681,0,0,0-.406-1.165A1.456,1.456,0,0,0,39.965,10.211ZM48.5,15.336a1.481,1.481,0,0,0,1.016-.344,1.2,1.2,0,0,0,.406-.914h2.117a2.9,2.9,0,0,1-.469,1.574A3.093,3.093,0,0,1,50.3,16.762a3.949,3.949,0,0,1-1.77.395A3.67,3.67,0,0,1,45.676,16a4.56,4.56,0,0,1-1.047-3.184v-.148a4.508,4.508,0,0,1,1.039-3.117A3.627,3.627,0,0,1,48.52,8.391a3.555,3.555,0,0,1,2.543.9,3.2,3.2,0,0,1,.973,2.4H49.918a1.551,1.551,0,0,0-.406-1.072,1.51,1.51,0,0,0-2.223.163,3.333,3.333,0,0,0-.4,1.866v.235a3.375,3.375,0,0,0,.4,1.878A1.377,1.377,0,0,0,48.5,15.336Zm9.891.8a2.831,2.831,0,0,1-2.312,1.016A2.67,2.67,0,0,1,54,16.375a3.335,3.335,0,0,1-.73-2.289V8.547h2.258v5.467q0,1.322,1.2,1.322a1.63,1.63,0,0,0,1.578-.8V8.547h2.266V17H58.449Zm8.641-5.477a6.134,6.134,0,0,0-.812-.062,1.654,1.654,0,0,0-1.68.867V17H62.277V8.547H64.41l.063,1.008a2.092,2.092,0,0,1,1.883-1.164,2.366,2.366,0,0,1,.7.1Zm5.664,4a.727.727,0,0,0-.41-.652,4.659,4.659,0,0,0-1.316-.426q-3.016-.633-3.016-2.562a2.323,2.323,0,0,1,.934-1.879,3.766,3.766,0,0,1,2.441-.754,4.053,4.053,0,0,1,2.574.758,2.388,2.388,0,0,1,.965,1.969H72.605a1.092,1.092,0,0,0-.312-.8A1.322,1.322,0,0,0,71.316,10a1.351,1.351,0,0,0-.883.258.814.814,0,0,0-.312.656.7.7,0,0,0,.355.605,3.657,3.657,0,0,0,1.2.4A9.8,9.8,0,0,1,73.1,12.3a2.336,2.336,0,0,1,1.789,2.273,2.2,2.2,0,0,1-.992,1.871,4.28,4.28,0,0,1-2.562.715,4.47,4.47,0,0,1-1.887-.379,3.166,3.166,0,0,1-1.293-1.039,2.414,2.414,0,0,1-.469-1.426h2.141a1.179,1.179,0,0,0,.445.922,1.766,1.766,0,0,0,1.109.32,1.635,1.635,0,0,0,.98-.246A.766.766,0,0,0,72.691,14.664Zm3.3-1.969a5.013,5.013,0,0,1,.484-2.242A3.546,3.546,0,0,1,77.867,8.93a4.069,4.069,0,0,1,2.113-.539,3.849,3.849,0,0,1,2.793,1.047,4.2,4.2,0,0,1,1.207,2.844l.016.578A4.418,4.418,0,0,1,82.91,15.98a4.209,4.209,0,0,1-5.832,0,4.5,4.5,0,0,1-1.09-3.187Zm2.258.16A3.16,3.16,0,0,0,78.7,14.7a1.628,1.628,0,0,0,2.578.008,3.457,3.457,0,0,0,.461-2.015,3.128,3.128,0,0,0-.461-1.831,1.5,1.5,0,0,0-1.3-.649,1.474,1.474,0,0,0-1.281.646A3.516,3.516,0,0,0,78.246,12.856Zm11.719,1.808a.727.727,0,0,0-.41-.652,4.659,4.659,0,0,0-1.316-.426q-3.016-.633-3.016-2.562a2.323,2.323,0,0,1,.934-1.879A3.766,3.766,0,0,1,88.6,8.391a4.053,4.053,0,0,1,2.574.758,2.388,2.388,0,0,1,.965,1.969H89.879a1.092,1.092,0,0,0-.312-.8A1.322,1.322,0,0,0,88.59,10a1.351,1.351,0,0,0-.883.258.814.814,0,0,0-.312.656.7.7,0,0,0,.355.605,3.657,3.657,0,0,0,1.2.4,9.8,9.8,0,0,1,1.422.379A2.336,2.336,0,0,1,92.16,14.57a2.2,2.2,0,0,1-.992,1.871,4.28,4.28,0,0,1-2.562.715,4.47,4.47,0,0,1-1.887-.379,3.166,3.166,0,0,1-1.293-1.039,2.414,2.414,0,0,1-.469-1.426H87.1a1.179,1.179,0,0,0,.445.922,1.766,1.766,0,0,0,1.109.32,1.635,1.635,0,0,0,.98-.246A.766.766,0,0,0,89.965,14.664ZM17.887,35.336a1.481,1.481,0,0,0,1.016-.344,1.2,1.2,0,0,0,.406-.914h2.117a2.9,2.9,0,0,1-.469,1.574A3.093,3.093,0,0,1,19.7,36.762a3.949,3.949,0,0,1-1.77.395A3.67,3.67,0,0,1,15.066,36,4.56,4.56,0,0,1,14.02,32.82v-.148a4.508,4.508,0,0,1,1.039-3.117,3.627,3.627,0,0,1,2.852-1.164,3.555,3.555,0,0,1,2.543.9,3.2,3.2,0,0,1,.973,2.4H19.309a1.551,1.551,0,0,0-.406-1.072,1.51,1.51,0,0,0-2.223.163,3.333,3.333,0,0,0-.4,1.866v.235a3.375,3.375,0,0,0,.4,1.878A1.377,1.377,0,0,0,17.887,35.336ZM22.363,32.7a5.013,5.013,0,0,1,.484-2.242,3.546,3.546,0,0,1,1.395-1.523,4.069,4.069,0,0,1,2.113-.539,3.849,3.849,0,0,1,2.793,1.047,4.2,4.2,0,0,1,1.207,2.844l.016.578a4.418,4.418,0,0,1-1.086,3.121,3.775,3.775,0,0,1-2.914,1.176,3.793,3.793,0,0,1-2.918-1.172,4.5,4.5,0,0,1-1.09-3.187Zm2.258.16a3.16,3.16,0,0,0,.453,1.843,1.628,1.628,0,0,0,2.578.008,3.457,3.457,0,0,0,.461-2.015,3.128,3.128,0,0,0-.461-1.831,1.5,1.5,0,0,0-1.3-.649,1.474,1.474,0,0,0-1.281.646A3.516,3.516,0,0,0,24.621,32.856Zm9.258-4.309.07.945a2.971,2.971,0,0,1,2.43-1.1,2.255,2.255,0,0,1,2.242,1.289,2.9,2.9,0,0,1,2.539-1.289,2.521,2.521,0,0,1,2.047.8,3.681,3.681,0,0,1,.672,2.41V37H41.613V31.609a1.61,1.61,0,0,0-.281-1.051,1.246,1.246,0,0,0-.992-.332,1.409,1.409,0,0,0-1.406.969l.008,5.8H36.684V31.617a1.59,1.59,0,0,0-.289-1.062,1.259,1.259,0,0,0-.984-.328,1.463,1.463,0,0,0-1.391.8V37H31.762V28.547Zm19.344,4.3a5.07,5.07,0,0,1-.887,3.129,2.843,2.843,0,0,1-2.395,1.176,2.633,2.633,0,0,1-2.07-.891V40.25H45.613v-11.7h2.094l.078.828a2.654,2.654,0,0,1,2.141-.984,2.862,2.862,0,0,1,2.43,1.156,5.207,5.207,0,0,1,.867,3.188Zm-2.258-.164a3.327,3.327,0,0,0-.418-1.82,1.361,1.361,0,0,0-1.215-.641,1.478,1.478,0,0,0-1.461.813V34.5a1.5,1.5,0,0,0,1.477.836Q50.965,35.336,50.965,32.688ZM59.52,37a2.507,2.507,0,0,1-.227-.758,2.732,2.732,0,0,1-2.133.914,3,3,0,0,1-2.059-.719,2.312,2.312,0,0,1-.816-1.812,2.389,2.389,0,0,1,1-2.062,4.915,4.915,0,0,1,2.879-.727H59.2v-.484a1.393,1.393,0,0,0-.3-.937,1.183,1.183,0,0,0-.949-.352,1.345,1.345,0,0,0-.895.273.929.929,0,0,0-.324.75H54.473a2.268,2.268,0,0,1,.453-1.359,3,3,0,0,1,1.281-.98,4.669,4.669,0,0,1,1.859-.355,3.689,3.689,0,0,1,2.48.785,2.747,2.747,0,0,1,.918,2.207v3.664a4.041,4.041,0,0,0,.336,1.82V37Zm-1.867-1.57a1.945,1.945,0,0,0,.922-.223,1.462,1.462,0,0,0,.625-.6V33.156h-.844q-1.7,0-1.8,1.172l-.008.133a.9.9,0,0,0,.3.7A1.153,1.153,0,0,0,57.652,35.43Zm10.3-4.766a6.134,6.134,0,0,0-.812-.062,1.654,1.654,0,0,0-1.68.867V37H63.2V28.547h2.133l.063,1.008a2.092,2.092,0,0,1,1.883-1.164,2.366,2.366,0,0,1,.7.1Zm4.18-4.2v2.078h1.445V30.2H72.129v4.219a1.007,1.007,0,0,0,.18.672.9.9,0,0,0,.688.2,3.6,3.6,0,0,0,.664-.055v1.711a4.648,4.648,0,0,1-1.367.2,2.156,2.156,0,0,1-2.422-2.4V30.2H68.637V28.547h1.234V26.469ZM77.215,37H74.949V28.547h2.266Zm-2.4-10.641a1.112,1.112,0,0,1,.34-.836,1.465,1.465,0,0,1,1.848,0,1.193,1.193,0,0,1,0,1.68,1.448,1.448,0,0,1-1.836,0A1.108,1.108,0,0,1,74.816,26.359Zm3.906,6.352a5.094,5.094,0,0,1,.887-3.148,2.877,2.877,0,0,1,2.426-1.172,2.589,2.589,0,0,1,2.039.922V25H86.34V37H84.3l-.109-.9a2.657,2.657,0,0,1-2.172,1.055,2.869,2.869,0,0,1-2.395-1.176A5.258,5.258,0,0,1,78.723,32.711Zm2.258.168a3.337,3.337,0,0,0,.414,1.823,1.349,1.349,0,0,0,1.2.634,1.511,1.511,0,0,0,1.477-.884V31.111a1.489,1.489,0,0,0-1.461-.884Q80.98,30.227,80.98,32.879Zm6.758-.184a5.013,5.013,0,0,1,.484-2.242,3.546,3.546,0,0,1,1.395-1.523,4.069,4.069,0,0,1,2.113-.539,3.849,3.849,0,0,1,2.793,1.047,4.2,4.2,0,0,1,1.207,2.844l.016.578A4.418,4.418,0,0,1,94.66,35.98a4.209,4.209,0,0,1-5.832,0,4.5,4.5,0,0,1-1.09-3.187Zm2.258.16a3.16,3.16,0,0,0,.453,1.843,1.628,1.628,0,0,0,2.578.008,3.457,3.457,0,0,0,.461-2.015,3.128,3.128,0,0,0-.461-1.831,1.5,1.5,0,0,0-1.3-.649,1.474,1.474,0,0,0-1.281.646A3.516,3.516,0,0,0,90,32.856Zm11.719,1.808a.727.727,0,0,0-.41-.652,4.659,4.659,0,0,0-1.316-.426q-3.016-.633-3.016-2.562a2.323,2.323,0,0,1,.934-1.879,3.766,3.766,0,0,1,2.441-.754,4.053,4.053,0,0,1,2.574.758,2.388,2.388,0,0,1,.965,1.969h-2.258a1.092,1.092,0,0,0-.312-.8A1.322,1.322,0,0,0,100.34,30a1.351,1.351,0,0,0-.883.258.814.814,0,0,0-.312.656.7.7,0,0,0,.355.605,3.657,3.657,0,0,0,1.2.4,9.8,9.8,0,0,1,1.422.379,2.336,2.336,0,0,1,1.789,2.273,2.2,2.2,0,0,1-.992,1.871,4.28,4.28,0,0,1-2.562.715,4.47,4.47,0,0,1-1.887-.379,3.166,3.166,0,0,1-1.293-1.039,2.414,2.414,0,0,1-.469-1.426h2.141a1.179,1.179,0,0,0,.445.922,1.766,1.766,0,0,0,1.109.32,1.635,1.635,0,0,0,.98-.246A.766.766,0,0,0,101.715,34.664Z" transform="translate(1213.676 1996)" fill="#12263f"/>
    <g id="Grupo_149870" data-name="Grupo 149870" transform="translate(1244.484 1931.463)">
      <ellipse id="Elipse_4871" data-name="Elipse 4871" cx="28.5" cy="29" rx="28.5" ry="29" transform="translate(0.191 -0.463)" fill="url(#linear-gradient)"/>
      <g id="Grupo_28520" data-name="Grupo 28520" transform="translate(14.331 12.581)">
        <path id="Trazado_67883" data-name="Trazado 67883" d="M226.969,210.488a3.465,3.465,0,1,1,3.466-3.466A3.469,3.469,0,0,1,226.969,210.488Zm0-6.006a2.54,2.54,0,1,0,2.54,2.54A2.543,2.543,0,0,0,226.969,204.482Z" transform="translate(-216.813 -199.421)" fill="#12263f"/>
        <path id="Trazado_67884" data-name="Trazado 67884" d="M226.969,244.746a3.466,3.466,0,1,1,3.466-3.466A3.469,3.469,0,0,1,226.969,244.746Zm0-6.006a2.54,2.54,0,1,0,2.54,2.54A2.543,2.543,0,0,0,226.969,238.74Z" transform="translate(-216.813 -224.041)" fill="#12263f"/>
        <path id="Trazado_67885" data-name="Trazado 67885" d="M226.969,279a3.465,3.465,0,1,1,3.466-3.466A3.469,3.469,0,0,1,226.969,279Zm0-6.006a2.54,2.54,0,1,0,2.54,2.54A2.543,2.543,0,0,0,226.969,273Z" transform="translate(-216.813 -248.662)" fill="#12263f"/>
        <path id="Trazado_67886" data-name="Trazado 67886" d="M204.018,198.282h-3.035a1.262,1.262,0,1,1,0-2.524h3.035a1.262,1.262,0,1,1,0,2.524Zm-3.035-1.6a.337.337,0,1,0,0,.674h3.035a.337.337,0,1,0,0-.674Z" transform="translate(-199.72 -193.816)" fill="#12263f"/>
        <path id="Trazado_67887" data-name="Trazado 67887" d="M204.018,218.238h-3.035a1.262,1.262,0,0,1,0-2.525h3.035a1.262,1.262,0,0,1,0,2.525Zm-3.035-1.6a.337.337,0,1,0,0,.674h3.035a.337.337,0,0,0,0-.674Z" transform="translate(-199.72 -208.157)" fill="#12263f"/>
        <path id="Trazado_67888" data-name="Trazado 67888" d="M204.018,238.193h-3.035a1.262,1.262,0,0,1,0-2.525h3.035a1.262,1.262,0,0,1,0,2.525Zm-3.035-1.6a.337.337,0,0,0,0,.674h3.035a.337.337,0,0,0,0-.674Z" transform="translate(-199.72 -222.498)" fill="#12263f"/>
        <path id="Trazado_67889" data-name="Trazado 67889" d="M204.018,258.149h-3.035a1.262,1.262,0,1,1,0-2.525h3.035a1.262,1.262,0,0,1,0,2.525Zm-3.035-1.6a.337.337,0,0,0,0,.674h3.035a.337.337,0,0,0,0-.674Z" transform="translate(-199.72 -236.84)" fill="#12263f"/>
        <path id="Trazado_67890" data-name="Trazado 67890" d="M204.018,278.1h-3.035a1.262,1.262,0,0,1,0-2.525h3.035a1.262,1.262,0,0,1,0,2.525Zm-3.035-1.6a.337.337,0,1,0,0,.674h3.035a.337.337,0,0,0,0-.674Z" transform="translate(-199.72 -251.182)" fill="#12263f"/>
        <path id="Trazado_67891" data-name="Trazado 67891" d="M204.018,298.06h-3.035a1.262,1.262,0,1,1,0-2.524h3.035a1.262,1.262,0,1,1,0,2.524Zm-3.035-1.6a.337.337,0,1,0,0,.674h3.035a.337.337,0,0,0,0-.674Z" transform="translate(-199.72 -265.524)" fill="#12263f"/>
        <path id="Trazado_67892" data-name="Trazado 67892" d="M233.973,223.334H209.965a1.081,1.081,0,0,1-1.079-1.079v-1.326a.463.463,0,0,1,.462-.462h1.257a.337.337,0,0,0,.336-.356.372.372,0,0,0-.382-.318h-1.211a.462.462,0,0,1-.462-.463v-4.014a.463.463,0,0,1,.462-.463h1.257a.336.336,0,0,0,.336-.356.372.372,0,0,0-.382-.318h-1.211a.463.463,0,0,1-.462-.463V209.7a.462.462,0,0,1,.462-.462h1.257a.337.337,0,0,0,.336-.356.372.372,0,0,0-.382-.318h-1.211a.463.463,0,0,1-.462-.463v-4.014a.462.462,0,0,1,.462-.463h1.257a.337.337,0,0,0,.336-.356.372.372,0,0,0-.382-.319h-1.211a.463.463,0,0,1-.462-.462v-4.015a.463.463,0,0,1,.462-.463h1.257a.337.337,0,0,0,.336-.356.372.372,0,0,0-.382-.318h-1.211a.463.463,0,0,1-.462-.463v-4.015a.463.463,0,0,1,.462-.463h1.257a.336.336,0,0,0,.336-.356.372.372,0,0,0-.382-.318h-1.211a.463.463,0,0,1-.462-.463v-1.325a1.08,1.08,0,0,1,1.079-1.079h24.008a1.08,1.08,0,0,1,1.079,1.079v32.32A1.081,1.081,0,0,1,233.973,223.334Zm-24.162-1.942v.863a.154.154,0,0,0,.154.154h24.008a.154.154,0,0,0,.154-.154v-32.32a.154.154,0,0,0-.154-.154H209.965a.154.154,0,0,0-.154.154v.863h.749a1.286,1.286,0,0,1,1.306,1.2,1.252,1.252,0,0,1-.345.936,1.268,1.268,0,0,1-.916.394h-.794v3.09h.749a1.286,1.286,0,0,1,1.306,1.2,1.252,1.252,0,0,1-.345.936,1.267,1.267,0,0,1-.916.394h-.794v3.089h.749a1.286,1.286,0,0,1,1.306,1.2,1.251,1.251,0,0,1-.345.936,1.266,1.266,0,0,1-.916.394h-.794v3.09h.749a1.286,1.286,0,0,1,1.306,1.2,1.251,1.251,0,0,1-.345.936,1.266,1.266,0,0,1-.916.394h-.794v3.089h.749a1.286,1.286,0,0,1,1.306,1.2,1.251,1.251,0,0,1-.345.936,1.266,1.266,0,0,1-.916.394h-.794v3.09h.749a1.286,1.286,0,0,1,1.306,1.195,1.252,1.252,0,0,1-.345.936,1.267,1.267,0,0,1-.916.394Z" transform="translate(-206.307 -188.855)" fill="#12263f"/>
        <path id="Trazado_67893" data-name="Trazado 67893" d="M234.64,229.462a.462.462,0,0,1-.462-.463v-3.632a.463.463,0,1,1,.925,0V229A.463.463,0,0,1,234.64,229.462Z" transform="translate(-224.484 -214.763)" fill="#12263f"/>
        <path id="Trazado_67894" data-name="Trazado 67894" d="M234.64,263.72a.462.462,0,0,1-.462-.462v-3.632a.463.463,0,1,1,.925,0v3.632A.463.463,0,0,1,234.64,263.72Z" transform="translate(-224.484 -239.384)" fill="#12263f"/>
        <path id="Trazado_67895" data-name="Trazado 67895" d="M254.36,207.856h-1.388a.463.463,0,0,1,0-.925h1.388a.463.463,0,0,1,0,.925Z" transform="translate(-237.659 -201.846)" fill="#12263f"/>
        <path id="Trazado_67896" data-name="Trazado 67896" d="M270.143,207.856h-2.687a.463.463,0,0,1,0-.925h2.687a.463.463,0,0,1,0,.925Z" transform="translate(-248.068 -201.846)" fill="#12263f"/>
        <path id="Trazado_67897" data-name="Trazado 67897" d="M287.946,207.856h-1.388a.463.463,0,0,1,0-.925h1.388a.463.463,0,0,1,0,.925Z" transform="translate(-261.796 -201.846)" fill="#12263f"/>
        <path id="Trazado_67898" data-name="Trazado 67898" d="M263.809,222.456H252.973a.462.462,0,1,1,0-.925h10.836a.462.462,0,0,1,0,.925Z" transform="translate(-237.659 -212.338)" fill="#12263f"/>
        <path id="Trazado_67899" data-name="Trazado 67899" d="M263.809,242.114H252.973a.463.463,0,0,1,0-.925h10.836a.463.463,0,0,1,0,.925Z" transform="translate(-237.659 -226.466)" fill="#12263f"/>
        <path id="Trazado_67900" data-name="Trazado 67900" d="M263.809,256.714H252.973a.463.463,0,0,1,0-.925h10.836a.463.463,0,0,1,0,.925Z" transform="translate(-237.659 -236.959)" fill="#12263f"/>
        <path id="Trazado_67901" data-name="Trazado 67901" d="M263.809,276.373H252.973a.463.463,0,0,1,0-.925h10.836a.463.463,0,0,1,0,.925Z" transform="translate(-237.659 -251.087)" fill="#12263f"/>
        <path id="Trazado_67902" data-name="Trazado 67902" d="M263.809,290.972H252.973a.463.463,0,0,1,0-.925h10.836a.463.463,0,0,1,0,.925Z" transform="translate(-237.659 -261.579)" fill="#12263f"/>
      </g>
    </g>
  </g>
</svg>
