<svg xmlns="http://www.w3.org/2000/svg" width="86" height="86" viewBox="0 0 86 86">
  <g id="Grupo_152638" data-name="Grupo 152638" transform="translate(-517.676 -2633)">
    <g id="Grupo_149886" data-name="Grupo 149886" transform="translate(261.676 -3197)">
      <circle id="Elipse_4775" data-name="Elipse 4775" cx="43" cy="43" r="43" transform="translate(256 5830)" fill="#ff2c9c"/>
      <g id="Hi6H32.tif" transform="translate(-3962.125 5340.387)">
        <g id="Grupo_143033" data-name="Grupo 143033" transform="translate(4236.086 503.735)">
          <path id="Trazado_184074" data-name="Trazado 184074" d="M4486.972,513.7c-.614.591-1.22,1.193-1.846,1.772a1.749,1.749,0,0,0-.051,2.278c.442.421.876.851,1.327,1.263a.987.987,0,0,1,.266,1.238c-.387.871-.778,1.74-1.16,2.612a.927.927,0,0,1-1,.605,10.066,10.066,0,0,1-1.312-.1,1.8,1.8,0,0,0-1.916.654,1.159,1.159,0,0,0-.362.9c.05.608.053,1.22.072,1.831a.994.994,0,0,1-.7,1.057q-1.337.5-2.667,1.026a.958.958,0,0,1-1.175-.316,14.086,14.086,0,0,1-.958-1.138,1.586,1.586,0,0,0-1.495-.722,1.329,1.329,0,0,0-1.14.474c-.371.458-.81.861-1.216,1.291a.946.946,0,0,1-1.149.23c-.892-.386-1.775-.79-2.664-1.183a.927.927,0,0,1-.59-1.006c.05-.685.109-1.37.143-2.056a1.9,1.9,0,0,0-1.493-1.511c-.61.016-1.221.036-1.831.067a1.064,1.064,0,0,1-1.183-.771c-.309-.861-.646-1.711-.986-2.56a.98.98,0,0,1,.316-1.224,8.151,8.151,0,0,1,.964-.807,1.766,1.766,0,0,0,.865-1.935,1.218,1.218,0,0,0-.272-.636c-.443-.472-.922-.914-1.4-1.35a1.009,1.009,0,0,1-.273-1.284c.386-.85.767-1.7,1.136-2.56a.948.948,0,0,1,1.037-.629c.647.05,1.293.1,1.941.139a1.8,1.8,0,0,0,1.611-1.56c-.017-.591-.035-1.183-.065-1.774a1.063,1.063,0,0,1,.781-1.174c.927-.341,1.834-.731,2.75-1.1h.458c.6.628,1.214,1.249,1.806,1.887a1.808,1.808,0,0,0,2.2.057c.436-.454.878-.9,1.3-1.368a1.007,1.007,0,0,1,1.287-.255c.833.377,1.666.75,2.507,1.108a1,1,0,0,1,.665,1.129c-.058.607-.076,1.218-.143,1.824a1.2,1.2,0,0,0,.328.914,1.716,1.716,0,0,0,1.818.736,7.4,7.4,0,0,1,1.141-.051,1.05,1.05,0,0,1,1.249.834l1.079,2.694Zm-22.291-2.631c-.187.421-.337.814-.534,1.183-.162.3-.155.535.142.726a3.471,3.471,0,0,1,1.544,3.943c-.018.093.017.2-.02.284a3.17,3.17,0,0,1-.443.878,8.076,8.076,0,0,1-1.208,1.048.551.551,0,0,0-.189.82,1.424,1.424,0,0,1,.169.424c.109.638.484.747,1.09.722,2.194-.091,1.58-.243,3.11,1.233a2.639,2.639,0,0,1,.883,2.428c-.16,1.319-.1,1.337,1.152,1.819a.663.663,0,0,0,.568-.108c.436-.4.809-.864,1.245-1.262a1.347,1.347,0,0,1,.736-.369c1.669-.113,3.31-.109,4.233,1.679a.751.751,0,0,0,.187.216c.068.057.176.149.231.129a6.987,6.987,0,0,0,1.467-.608c.147-.1.109-.574.057-.859a2.7,2.7,0,0,1,1.212-2.959c.234-.159.391-.44.634-.573a2.591,2.591,0,0,1,1.07-.383,19.511,19.511,0,0,1,2.042.119,6.123,6.123,0,0,1,.378-.811c.367-.56.231-.927-.257-1.386-1.588-1.492-1.289-.852-1.31-3.135a2.524,2.524,0,0,1,1.083-2.228c1.111-.851,1.087-.9.474-2.164a.627.627,0,0,0-.456-.29c-.552-.019-1.114.084-1.656.018a2.212,2.212,0,0,1-1.1-.462,8.759,8.759,0,0,1-1.337-1.408,1.925,1.925,0,0,1-.37-1.017c-.03-.567.094-1.14.1-1.711a.669.669,0,0,0-.3-.5c-1.226-.625-1.229-.615-2.192.387a4.511,4.511,0,0,1-.4.41c-.233.188-.483.5-.729.5-1.521.017-3.187.407-4.145-1.346a2.292,2.292,0,0,0-.41-.475c-.076-.076-.2-.194-.268-.172a6.754,6.754,0,0,0-1.467.608c-.147.1-.1.569-.061.858a2.614,2.614,0,0,1-1.084,2.843c-.3.2-.5.538-.8.728a2.04,2.04,0,0,1-.971.349C4466.1,511.215,4465.415,511.123,4464.681,511.071Z" transform="translate(-4435.881 -503.735)" fill="#fff"/>
          <path id="Trazado_184075" data-name="Trazado 184075" d="M4250.163,607.719l1.942-4.543h-2.6q-4.3,0-8.591,0a4.586,4.586,0,0,1-4.822-4.817q0-13.976,0-27.951a4.576,4.576,0,0,1,4.772-4.807q9.708-.008,19.415,0h.527v1.833h-19.788a2.782,2.782,0,0,0-3.094,3.07q0,11.427,0,22.854v.613h43.974V583.043h1.847v.591q0,7.331,0,14.663a4.6,4.6,0,0,1-4.877,4.878q-5.211,0-10.423,0h-.716l1.958,4.583c1.279,0,2.538,0,3.8,0a2.754,2.754,0,1,1,.009,5.5q-13.573,0-27.145,0a2.754,2.754,0,1,1,.006-5.5c1.222,0,2.443,0,3.665-.007A.92.92,0,0,0,4250.163,607.719Zm-12.243-11.854c0,.843,0,1.624,0,2.405a2.783,2.783,0,0,0,3.093,3.072h19.7q9.136,0,18.271,0a2.665,2.665,0,0,0,2.854-2.275,26.975,26.975,0,0,0,.025-3.2Zm14.239,11.855h15.51c-.629-1.472-1.228-2.891-1.852-4.3a.565.565,0,0,0-.436-.236q-5.467-.02-10.934,0a.564.564,0,0,0-.436.235C4253.387,604.828,4252.789,606.247,4252.159,607.72Zm7.7,3.7H4273.2a3.179,3.179,0,0,0,.571-.015.909.909,0,0,0,0-1.8,2.875,2.875,0,0,0-.514-.014h-26.689a2.849,2.849,0,0,0-.514.014.909.909,0,0,0,0,1.8,3.208,3.208,0,0,0,.572.015Z" transform="translate(-4236.086 -558.494)" fill="#fff"/>
          <path id="Trazado_184076" data-name="Trazado 184076" d="M4308.172,783.169V781.4h27.419v1.766Z" transform="translate(-4299.896 -749.525)" fill="#fff"/>
          <path id="Trazado_184077" data-name="Trazado 184077" d="M4331.17,749.558v1.766h-22.837v-1.766Z" transform="translate(-4300.038 -721.336)" fill="#fff"/>
          <path id="Trazado_184078" data-name="Trazado 184078" d="M4328.427,717.632V719.4h-20.088v-1.764Z" transform="translate(-4300.043 -693.075)" fill="#fff"/>
          <path id="Trazado_184079" data-name="Trazado 184079" d="M4325.584,685.591v1.769h-17.354v-1.769Z" transform="translate(-4299.948 -664.712)" fill="#fff"/>
          <path id="Trazado_184080" data-name="Trazado 184080" d="M4277.961,611.417l2.218,2.046-1.324,1.309c-.926-.917-1.859-1.815-2.759-2.746a.83.83,0,0,1,.024-1.237c.887-.918,1.8-1.811,2.729-2.742l1.213,1.343Z" transform="translate(-4271.268 -596.071)" fill="#fff"/>
          <path id="Trazado_184081" data-name="Trazado 184081" d="M4368.058,612.286l-2.215-2.037,1.381-1.248c.875.854,1.828,1.756,2.745,2.7a.782.782,0,0,1,0,1.145c-.917.938-1.87,1.841-2.825,2.775l-1.234-1.3Z" transform="translate(-4350.946 -596.916)" fill="#fff"/>
          <path id="Trazado_184082" data-name="Trazado 184082" d="M4325.987,611.5l-1.772-.458,1.831-7.314,1.777.44C4327.207,606.627,4326.6,609.035,4325.987,611.5Z" transform="translate(-4314.097 -592.245)" fill="#fff"/>
          <path id="Trazado_184083" data-name="Trazado 184083" d="M4276.209,687.4v-1.758h1.782V687.4Z" transform="translate(-4271.603 -664.755)" fill="#fff"/>
          <path id="Trazado_184084" data-name="Trazado 184084" d="M4276.243,717.482h1.769v1.779h-1.769Z" transform="translate(-4271.633 -692.942)" fill="#fff"/>
          <path id="Trazado_184085" data-name="Trazado 184085" d="M4278.122,751.3h-1.761v-1.772h1.761Z" transform="translate(-4271.737 -721.314)" fill="#fff"/>
          <path id="Trazado_184086" data-name="Trazado 184086" d="M4525.571,751.339h-1.741v-1.782h1.741Z" transform="translate(-4490.795 -721.335)" fill="#fff"/>
          <path id="Trazado_184087" data-name="Trazado 184087" d="M4557.5,751.339h-1.741v-1.782h1.741Z" transform="translate(-4519.058 -721.335)" fill="#fff"/>
          <path id="Trazado_184088" data-name="Trazado 184088" d="M4278.047,783.176h-1.758v-1.782h1.758Z" transform="translate(-4271.673 -749.517)" fill="#fff"/>
          <path id="Trazado_184089" data-name="Trazado 184089" d="M4563.452,783.3v-1.752h1.782V783.3Z" transform="translate(-4525.868 -749.656)" fill="#fff"/>
          <path id="Trazado_184090" data-name="Trazado 184090" d="M4597.417,783.248h-1.758v-1.769h1.758Z" transform="translate(-4554.376 -749.592)" fill="#fff"/>
          <path id="Trazado_184091" data-name="Trazado 184091" d="M4527.571,563.251a6.523,6.523,0,1,1-6.5-6.55A6.538,6.538,0,0,1,4527.571,563.251Zm-1.834-.036a4.691,4.691,0,1,0-4.7,4.7A4.7,4.7,0,0,0,4525.737,563.214Z" transform="translate(-4482.557 -550.62)" fill="#fff"/>
          <path id="Trazado_184092" data-name="Trazado 184092" d="M4437.775,847.114h-1.759v-1.769h1.759Z" transform="translate(-4413.063 -806.125)" fill="#fff"/>
        </g>
      </g>
    </g>
  </g>
</svg>
