<svg xmlns="http://www.w3.org/2000/svg" xmlns:xlink="http://www.w3.org/1999/xlink" width="240.735" height="240.735" viewBox="0 0 240.735 240.735">
  <defs>
    <linearGradient id="linear-gradient" x1="0.317" y1="0.321" x2="0.831" y2="0.824" gradientUnits="objectBoundingBox">
      <stop offset="0" stop-color="#fff"/>
      <stop offset="0.231" stop-color="#f7f7f6"/>
      <stop offset="0.589" stop-color="#e1e1e1"/>
      <stop offset="1" stop-color="#c1c1c0"/>
    </linearGradient>
    <linearGradient id="linear-gradient-2" x1="0.495" y1="0.493" x2="0.182" y2="0.091" gradientUnits="objectBoundingBox">
      <stop offset="0" stop-color="#fff"/>
      <stop offset="0.38" stop-color="#f7f7f7"/>
      <stop offset="0.968" stop-color="#e1e2e4"/>
      <stop offset="0.994" stop-color="#e0e1e3"/>
    </linearGradient>
  </defs>
  <g id="Grupo_152011" data-name="Grupo 152011" transform="translate(-374.327 -1247.57)">
    <g id="Grupo_149861" data-name="Grupo 149861" transform="translate(101.77 -742.98)">
      <circle id="Elipse_5005" data-name="Elipse 5005" cx="85.113" cy="85.113" r="85.113" transform="translate(272.558 2110.918) rotate(-45)" fill="#2a81a5"/>
      <path id="Trazado_188204" data-name="Trazado 188204" d="M395.529,429.366l-10.083-10.037-7.238-7.2a2.864,2.864,0,0,0-4.884,2.03V424.72a85.113,85.113,0,0,0-85.113,85.113q0,3.365.259,6.666a85.119,85.119,0,0,1,84.854-78.446v10.584a2.864,2.864,0,0,0,4.884,2.03l7.238-7.2,10.083-10.037A2.864,2.864,0,0,0,395.529,429.366Z" transform="translate(19.601 1588.683)" fill="#12263f"/>
      <circle id="Elipse_5006" data-name="Elipse 5006" cx="14.85" cy="14.85" r="14.85" transform="translate(288.208 2103.041) rotate(-22.97)" fill="#12263f"/>
      <g id="Grupo_149825" data-name="Grupo 149825" transform="translate(326.148 2043.506)" opacity="0.6" style="mix-blend-mode: multiply;isolation: isolate">
        <path id="Trazado_187653" data-name="Trazado 187653" d="M462.983,720.613a67.261,67.261,0,1,1,67.26-67.262A67.338,67.338,0,0,1,462.983,720.613Z" transform="translate(-364.088 -548.382)" fill="#fff" opacity="0"/>
        <path id="Trazado_187654" data-name="Trazado 187654" d="M462.31,719.809a67.261,67.261,0,1,1,67.26-67.262A67.338,67.338,0,0,1,462.31,719.809Z" transform="translate(-363.728 -547.951)" fill="#f9f9f9" opacity="0.01"/>
        <path id="Trazado_187655" data-name="Trazado 187655" d="M461.636,719.006a67.261,67.261,0,1,1,67.26-67.262A67.338,67.338,0,0,1,461.636,719.006Z" transform="translate(-363.367 -547.522)" fill="#f4f3f3" opacity="0.02"/>
        <path id="Trazado_187656" data-name="Trazado 187656" d="M460.962,718.2a67.261,67.261,0,1,1,67.26-67.262A67.338,67.338,0,0,1,460.962,718.2Z" transform="translate(-363.007 -547.092)" fill="#f0efef" opacity="0.03"/>
        <path id="Trazado_187657" data-name="Trazado 187657" d="M460.288,717.4a67.261,67.261,0,1,1,67.26-67.262A67.337,67.337,0,0,1,460.288,717.4Z" transform="translate(-362.646 -546.662)" fill="#ecebeb" opacity="0.04"/>
        <path id="Trazado_187658" data-name="Trazado 187658" d="M459.614,716.6a67.261,67.261,0,1,1,67.26-67.262A67.338,67.338,0,0,1,459.614,716.6Z" transform="translate(-362.285 -546.232)" fill="#e9e7e7" opacity="0.05"/>
        <path id="Trazado_187659" data-name="Trazado 187659" d="M458.94,715.793a67.261,67.261,0,1,1,67.26-67.262A67.338,67.338,0,0,1,458.94,715.793Z" transform="translate(-361.925 -545.802)" fill="#e6e4e4" opacity="0.059"/>
        <path id="Trazado_187660" data-name="Trazado 187660" d="M458.267,714.99a67.261,67.261,0,1,1,67.26-67.262A67.338,67.338,0,0,1,458.267,714.99Z" transform="translate(-361.564 -545.372)" fill="#e3e1e1" opacity="0.069"/>
        <path id="Trazado_187661" data-name="Trazado 187661" d="M457.593,714.186a67.261,67.261,0,1,1,67.26-67.262A67.338,67.338,0,0,1,457.593,714.186Z" transform="translate(-361.203 -544.942)" fill="#e0dedd" opacity="0.079"/>
        <path id="Trazado_187662" data-name="Trazado 187662" d="M456.919,713.383a67.261,67.261,0,1,1,67.26-67.262A67.338,67.338,0,0,1,456.919,713.383Z" transform="translate(-360.842 -544.512)" fill="#dddbdb" opacity="0.089"/>
        <path id="Trazado_187663" data-name="Trazado 187663" d="M456.245,712.58a67.261,67.261,0,1,1,67.26-67.262A67.338,67.338,0,0,1,456.245,712.58Z" transform="translate(-360.482 -544.082)" fill="#dad8d8" opacity="0.099"/>
        <path id="Trazado_187664" data-name="Trazado 187664" d="M455.571,711.777a67.261,67.261,0,1,1,67.26-67.262A67.338,67.338,0,0,1,455.571,711.777Z" transform="translate(-360.121 -543.653)" fill="#d8d5d5" opacity="0.109"/>
        <path id="Trazado_187665" data-name="Trazado 187665" d="M454.9,710.973a67.261,67.261,0,1,1,67.26-67.262A67.338,67.338,0,0,1,454.9,710.973Z" transform="translate(-359.761 -543.222)" fill="#d5d2d2" opacity="0.119"/>
        <path id="Trazado_187666" data-name="Trazado 187666" d="M454.224,710.17a67.261,67.261,0,1,1,67.26-67.262A67.338,67.338,0,0,1,454.224,710.17Z" transform="translate(-359.4 -542.793)" fill="#d2d0cf" opacity="0.129"/>
        <path id="Trazado_187667" data-name="Trazado 187667" d="M453.55,709.367a67.261,67.261,0,1,1,67.26-67.262A67.338,67.338,0,0,1,453.55,709.367Z" transform="translate(-359.039 -542.363)" fill="#d0cdcd" opacity="0.139"/>
        <path id="Trazado_187668" data-name="Trazado 187668" d="M452.876,708.563a67.261,67.261,0,1,1,67.26-67.261A67.338,67.338,0,0,1,452.876,708.563Z" transform="translate(-358.679 -541.932)" fill="#cdcbca" opacity="0.149"/>
        <path id="Trazado_187669" data-name="Trazado 187669" d="M452.2,707.76a67.261,67.261,0,1,1,67.26-67.262A67.337,67.337,0,0,1,452.2,707.76Z" transform="translate(-358.318 -541.503)" fill="#cbc8c8" opacity="0.158"/>
        <path id="Trazado_187670" data-name="Trazado 187670" d="M451.528,706.957a67.261,67.261,0,1,1,67.26-67.262A67.338,67.338,0,0,1,451.528,706.957Z" transform="translate(-357.958 -541.073)" fill="#c8c5c5" opacity="0.168"/>
        <path id="Trazado_187671" data-name="Trazado 187671" d="M450.854,706.154a67.261,67.261,0,1,1,67.26-67.262A67.338,67.338,0,0,1,450.854,706.154Z" transform="translate(-357.597 -540.643)" fill="#c6c3c2" opacity="0.178"/>
        <path id="Trazado_187672" data-name="Trazado 187672" d="M450.18,705.35a67.261,67.261,0,1,1,67.261-67.262A67.338,67.338,0,0,1,450.18,705.35Z" transform="translate(-357.236 -540.213)" fill="#c3c0c0" opacity="0.188"/>
        <path id="Trazado_187673" data-name="Trazado 187673" d="M449.507,704.547a67.261,67.261,0,1,1,67.26-67.262A67.338,67.338,0,0,1,449.507,704.547Z" transform="translate(-356.875 -539.783)" fill="#c1bebe" opacity="0.198"/>
        <path id="Trazado_187674" data-name="Trazado 187674" d="M448.833,703.744a67.261,67.261,0,1,1,67.26-67.262A67.338,67.338,0,0,1,448.833,703.744Z" transform="translate(-356.515 -539.353)" fill="#bebbbb" opacity="0.208"/>
        <path id="Trazado_187675" data-name="Trazado 187675" d="M448.159,702.94a67.261,67.261,0,1,1,67.26-67.262A67.337,67.337,0,0,1,448.159,702.94Z" transform="translate(-356.155 -538.923)" fill="#bcb9b9" opacity="0.218"/>
        <path id="Trazado_187676" data-name="Trazado 187676" d="M447.485,702.137a67.261,67.261,0,1,1,67.26-67.262A67.338,67.338,0,0,1,447.485,702.137Z" transform="translate(-355.794 -538.493)" fill="#bab7b6" opacity="0.228"/>
        <path id="Trazado_187677" data-name="Trazado 187677" d="M446.811,701.334a67.261,67.261,0,1,1,67.26-67.262A67.338,67.338,0,0,1,446.811,701.334Z" transform="translate(-355.433 -538.064)" fill="#b8b4b4" opacity="0.238"/>
        <path id="Trazado_187678" data-name="Trazado 187678" d="M446.137,700.53a67.261,67.261,0,1,1,67.26-67.262A67.338,67.338,0,0,1,446.137,700.53Z" transform="translate(-355.072 -537.633)" fill="#b5b2b2" opacity="0.248"/>
        <path id="Trazado_187679" data-name="Trazado 187679" d="M445.464,699.727a67.261,67.261,0,1,1,67.26-67.262A67.338,67.338,0,0,1,445.464,699.727Z" transform="translate(-354.712 -537.203)" fill="#b3b0af" opacity="0.257"/>
        <path id="Trazado_187680" data-name="Trazado 187680" d="M444.79,698.924a67.261,67.261,0,1,1,67.26-67.262A67.338,67.338,0,0,1,444.79,698.924Z" transform="translate(-354.351 -536.774)" fill="#b1adad" opacity="0.267"/>
        <path id="Trazado_187681" data-name="Trazado 187681" d="M444.116,698.121a67.261,67.261,0,1,1,67.26-67.262A67.338,67.338,0,0,1,444.116,698.121Z" transform="translate(-353.991 -536.344)" fill="#afabab" opacity="0.277"/>
        <path id="Trazado_187682" data-name="Trazado 187682" d="M443.442,697.317a67.261,67.261,0,1,1,67.26-67.262A67.337,67.337,0,0,1,443.442,697.317Z" transform="translate(-353.63 -535.914)" fill="#ada9a9" opacity="0.287"/>
        <path id="Trazado_187683" data-name="Trazado 187683" d="M442.768,696.514a67.261,67.261,0,1,1,67.26-67.262A67.338,67.338,0,0,1,442.768,696.514Z" transform="translate(-353.269 -535.484)" fill="#aaa7a6" opacity="0.297"/>
        <path id="Trazado_187684" data-name="Trazado 187684" d="M442.094,695.711a67.261,67.261,0,1,1,67.26-67.262A67.338,67.338,0,0,1,442.094,695.711Z" transform="translate(-352.908 -535.054)" fill="#a8a4a4" opacity="0.307"/>
        <path id="Trazado_187685" data-name="Trazado 187685" d="M441.421,694.908a67.261,67.261,0,1,1,67.26-67.262A67.338,67.338,0,0,1,441.421,694.908Z" transform="translate(-352.548 -534.624)" fill="#a6a2a2" opacity="0.317"/>
        <path id="Trazado_187686" data-name="Trazado 187686" d="M440.747,694.1a67.261,67.261,0,1,1,67.26-67.262A67.338,67.338,0,0,1,440.747,694.1Z" transform="translate(-352.187 -534.194)" fill="#a4a0a0" opacity="0.327"/>
        <path id="Trazado_187687" data-name="Trazado 187687" d="M440.073,693.3a67.261,67.261,0,1,1,67.26-67.262A67.337,67.337,0,0,1,440.073,693.3Z" transform="translate(-351.827 -533.764)" fill="#a29e9e" opacity="0.337"/>
        <path id="Trazado_187688" data-name="Trazado 187688" d="M439.4,692.5a67.261,67.261,0,1,1,67.26-67.262A67.338,67.338,0,0,1,439.4,692.5Z" transform="translate(-351.466 -533.334)" fill="#a09c9c" opacity="0.347"/>
        <path id="Trazado_187689" data-name="Trazado 187689" d="M438.725,691.694a67.261,67.261,0,1,1,67.26-67.262A67.338,67.338,0,0,1,438.725,691.694Z" transform="translate(-351.105 -532.904)" fill="#9e9a9a" opacity="0.356"/>
        <path id="Trazado_187690" data-name="Trazado 187690" d="M438.051,690.891a67.261,67.261,0,1,1,67.26-67.262A67.338,67.338,0,0,1,438.051,690.891Z" transform="translate(-350.745 -532.474)" fill="#9c9898" opacity="0.366"/>
        <path id="Trazado_187691" data-name="Trazado 187691" d="M437.378,690.088a67.261,67.261,0,1,1,67.26-67.262A67.338,67.338,0,0,1,437.378,690.088Z" transform="translate(-350.384 -532.044)" fill="#9a9696" opacity="0.376"/>
        <path id="Trazado_187692" data-name="Trazado 187692" d="M436.7,689.284a67.261,67.261,0,1,1,67.26-67.262A67.338,67.338,0,0,1,436.7,689.284Z" transform="translate(-350.023 -531.614)" fill="#989494" opacity="0.386"/>
        <path id="Trazado_187693" data-name="Trazado 187693" d="M436.03,688.481a67.261,67.261,0,1,1,67.26-67.262A67.337,67.337,0,0,1,436.03,688.481Z" transform="translate(-349.663 -531.184)" fill="#969292" opacity="0.396"/>
        <path id="Trazado_187694" data-name="Trazado 187694" d="M435.356,687.678a67.261,67.261,0,1,1,67.26-67.262A67.337,67.337,0,0,1,435.356,687.678Z" transform="translate(-349.302 -530.755)" fill="#949090" opacity="0.406"/>
        <path id="Trazado_187695" data-name="Trazado 187695" d="M434.682,686.875a67.261,67.261,0,1,1,67.26-67.262A67.338,67.338,0,0,1,434.682,686.875Z" transform="translate(-348.941 -530.325)" fill="#928e8e" opacity="0.416"/>
        <path id="Trazado_187696" data-name="Trazado 187696" d="M434.008,686.071a67.261,67.261,0,1,1,67.26-67.262A67.338,67.338,0,0,1,434.008,686.071Z" transform="translate(-348.581 -529.895)" fill="#908c8c" opacity="0.426"/>
        <path id="Trazado_187697" data-name="Trazado 187697" d="M433.335,685.268a67.261,67.261,0,1,1,67.26-67.262A67.338,67.338,0,0,1,433.335,685.268Z" transform="translate(-348.22 -529.465)" fill="#8e8a8a" opacity="0.436"/>
        <path id="Trazado_187698" data-name="Trazado 187698" d="M432.661,684.465a67.261,67.261,0,1,1,67.26-67.262A67.338,67.338,0,0,1,432.661,684.465Z" transform="translate(-347.859 -529.035)" fill="#8c8888" opacity="0.446"/>
        <path id="Trazado_187699" data-name="Trazado 187699" d="M431.987,683.662a67.261,67.261,0,1,1,67.26-67.262A67.337,67.337,0,0,1,431.987,683.662Z" transform="translate(-347.499 -528.605)" fill="#8b8787" opacity="0.455"/>
        <path id="Trazado_187700" data-name="Trazado 187700" d="M431.313,682.858a67.261,67.261,0,1,1,67.26-67.262A67.338,67.338,0,0,1,431.313,682.858Z" transform="translate(-347.138 -528.175)" fill="#898585" opacity="0.465"/>
        <path id="Trazado_187701" data-name="Trazado 187701" d="M430.639,682.055a67.261,67.261,0,1,1,67.26-67.262A67.338,67.338,0,0,1,430.639,682.055Z" transform="translate(-346.778 -527.745)" fill="#878383" opacity="0.475"/>
        <path id="Trazado_187702" data-name="Trazado 187702" d="M429.965,681.252a67.261,67.261,0,1,1,67.26-67.262A67.338,67.338,0,0,1,429.965,681.252Z" transform="translate(-346.417 -527.315)" fill="#858181" opacity="0.485"/>
        <path id="Trazado_187703" data-name="Trazado 187703" d="M429.292,680.448a67.261,67.261,0,1,1,67.26-67.261A67.338,67.338,0,0,1,429.292,680.448Z" transform="translate(-346.056 -526.885)" fill="#847f7f" opacity="0.495"/>
        <path id="Trazado_187704" data-name="Trazado 187704" d="M428.618,679.645a67.261,67.261,0,1,1,67.26-67.262A67.338,67.338,0,0,1,428.618,679.645Z" transform="translate(-345.695 -526.455)" fill="#827e7e" opacity="0.505"/>
        <path id="Trazado_187705" data-name="Trazado 187705" d="M427.944,678.842A67.261,67.261,0,1,1,495.2,611.58,67.337,67.337,0,0,1,427.944,678.842Z" transform="translate(-345.335 -526.025)" fill="#807c7c" opacity="0.515"/>
        <path id="Trazado_187706" data-name="Trazado 187706" d="M427.27,678.039a67.261,67.261,0,1,1,67.26-67.262A67.337,67.337,0,0,1,427.27,678.039Z" transform="translate(-344.974 -525.596)" fill="#7e7a7a" opacity="0.525"/>
        <path id="Trazado_187707" data-name="Trazado 187707" d="M426.6,677.235a67.261,67.261,0,1,1,67.26-67.262A67.338,67.338,0,0,1,426.6,677.235Z" transform="translate(-344.614 -525.165)" fill="#7c7879" opacity="0.535"/>
        <path id="Trazado_187708" data-name="Trazado 187708" d="M425.922,676.432a67.261,67.261,0,1,1,67.26-67.262A67.338,67.338,0,0,1,425.922,676.432Z" transform="translate(-344.253 -524.736)" fill="#7b7777" opacity="0.545"/>
        <path id="Trazado_187709" data-name="Trazado 187709" d="M425.248,675.629a67.261,67.261,0,1,1,67.261-67.262A67.338,67.338,0,0,1,425.248,675.629Z" transform="translate(-343.892 -524.306)" fill="#797575" opacity="0.554"/>
        <path id="Trazado_187710" data-name="Trazado 187710" d="M424.575,674.825a67.261,67.261,0,1,1,67.26-67.262A67.338,67.338,0,0,1,424.575,674.825Z" transform="translate(-343.531 -523.875)" fill="#777474" opacity="0.564"/>
        <path id="Trazado_187711" data-name="Trazado 187711" d="M423.9,674.022a67.261,67.261,0,1,1,67.26-67.262A67.338,67.338,0,0,1,423.9,674.022Z" transform="translate(-343.171 -523.446)" fill="#767272" opacity="0.574"/>
        <path id="Trazado_187712" data-name="Trazado 187712" d="M423.227,673.219a67.261,67.261,0,1,1,67.26-67.262A67.337,67.337,0,0,1,423.227,673.219Z" transform="translate(-342.811 -523.016)" fill="#747070" opacity="0.584"/>
        <path id="Trazado_187713" data-name="Trazado 187713" d="M422.553,672.416a67.261,67.261,0,1,1,67.26-67.262A67.338,67.338,0,0,1,422.553,672.416Z" transform="translate(-342.45 -522.586)" fill="#726f6f" opacity="0.594"/>
        <path id="Trazado_187714" data-name="Trazado 187714" d="M421.879,671.612a67.261,67.261,0,1,1,67.26-67.262A67.338,67.338,0,0,1,421.879,671.612Z" transform="translate(-342.089 -522.156)" fill="#716d6d" opacity="0.604"/>
        <path id="Trazado_187715" data-name="Trazado 187715" d="M421.205,670.809a67.261,67.261,0,1,1,67.261-67.262A67.338,67.338,0,0,1,421.205,670.809Z" transform="translate(-341.728 -521.726)" fill="#6f6c6c" opacity="0.614"/>
        <path id="Trazado_187716" data-name="Trazado 187716" d="M420.532,670.006a67.261,67.261,0,1,1,67.26-67.262A67.338,67.338,0,0,1,420.532,670.006Z" transform="translate(-341.368 -521.296)" fill="#6e6a6a" opacity="0.624"/>
        <path id="Trazado_187717" data-name="Trazado 187717" d="M419.858,669.2a67.261,67.261,0,1,1,67.26-67.262A67.338,67.338,0,0,1,419.858,669.2Z" transform="translate(-341.007 -520.866)" fill="#6c6969" opacity="0.634"/>
        <path id="Trazado_187718" data-name="Trazado 187718" d="M419.184,668.4a67.261,67.261,0,1,1,67.26-67.262A67.337,67.337,0,0,1,419.184,668.4Z" transform="translate(-340.647 -520.436)" fill="#6b6767" opacity="0.644"/>
        <path id="Trazado_187719" data-name="Trazado 187719" d="M418.51,667.6a67.261,67.261,0,1,1,67.26-67.262A67.338,67.338,0,0,1,418.51,667.6Z" transform="translate(-340.286 -520.007)" fill="#696666" opacity="0.653"/>
        <path id="Trazado_187720" data-name="Trazado 187720" d="M417.836,666.793a67.261,67.261,0,1,1,67.26-67.262A67.338,67.338,0,0,1,417.836,666.793Z" transform="translate(-339.925 -519.577)" fill="#686464" opacity="0.663"/>
        <path id="Trazado_187721" data-name="Trazado 187721" d="M417.162,665.989a67.261,67.261,0,1,1,67.26-67.262A67.338,67.338,0,0,1,417.162,665.989Z" transform="translate(-339.565 -519.146)" fill="#666363" opacity="0.673"/>
        <path id="Trazado_187722" data-name="Trazado 187722" d="M416.489,665.186a67.261,67.261,0,1,1,67.26-67.262A67.338,67.338,0,0,1,416.489,665.186Z" transform="translate(-339.204 -518.717)" fill="#656261" opacity="0.683"/>
        <path id="Trazado_187723" data-name="Trazado 187723" d="M415.815,664.383a67.261,67.261,0,1,1,67.26-67.262A67.338,67.338,0,0,1,415.815,664.383Z" transform="translate(-338.843 -518.287)" fill="#646060" opacity="0.693"/>
        <path id="Trazado_187724" data-name="Trazado 187724" d="M415.141,663.579a67.261,67.261,0,1,1,67.26-67.262A67.338,67.338,0,0,1,415.141,663.579Z" transform="translate(-338.483 -517.857)" fill="#625f5f" opacity="0.703"/>
        <path id="Trazado_187725" data-name="Trazado 187725" d="M414.467,662.776a67.261,67.261,0,1,1,67.26-67.262A67.338,67.338,0,0,1,414.467,662.776Z" transform="translate(-338.122 -517.427)" fill="#615d5d" opacity="0.713"/>
        <path id="Trazado_187726" data-name="Trazado 187726" d="M413.793,661.973a67.261,67.261,0,1,1,67.26-67.262A67.338,67.338,0,0,1,413.793,661.973Z" transform="translate(-337.761 -516.997)" fill="#5f5c5c" opacity="0.723"/>
        <path id="Trazado_187727" data-name="Trazado 187727" d="M413.119,661.17a67.261,67.261,0,1,1,67.26-67.262A67.338,67.338,0,0,1,413.119,661.17Z" transform="translate(-337.401 -516.567)" fill="#5e5b5b" opacity="0.733"/>
        <path id="Trazado_187728" data-name="Trazado 187728" d="M412.446,660.366a67.261,67.261,0,1,1,67.26-67.262A67.338,67.338,0,0,1,412.446,660.366Z" transform="translate(-337.04 -516.137)" fill="#5d5959" opacity="0.743"/>
        <path id="Trazado_187729" data-name="Trazado 187729" d="M411.772,659.563a67.261,67.261,0,1,1,67.26-67.262A67.338,67.338,0,0,1,411.772,659.563Z" transform="translate(-336.679 -515.707)" fill="#5b5858" opacity="0.752"/>
        <path id="Trazado_187730" data-name="Trazado 187730" d="M411.1,658.76a67.261,67.261,0,1,1,67.26-67.262A67.337,67.337,0,0,1,411.1,658.76Z" transform="translate(-336.319 -515.277)" fill="#5a5757" opacity="0.762"/>
        <path id="Trazado_187731" data-name="Trazado 187731" d="M410.424,657.957a67.261,67.261,0,1,1,67.26-67.262A67.338,67.338,0,0,1,410.424,657.957Z" transform="translate(-335.958 -514.848)" fill="#585655" opacity="0.772"/>
        <path id="Trazado_187732" data-name="Trazado 187732" d="M409.75,657.153a67.261,67.261,0,1,1,67.26-67.262A67.338,67.338,0,0,1,409.75,657.153Z" transform="translate(-335.598 -514.417)" fill="#575454" opacity="0.782"/>
        <path id="Trazado_187733" data-name="Trazado 187733" d="M409.076,656.35a67.261,67.261,0,1,1,67.26-67.262A67.338,67.338,0,0,1,409.076,656.35Z" transform="translate(-335.237 -513.987)" fill="#565353" opacity="0.792"/>
        <path id="Trazado_187734" data-name="Trazado 187734" d="M408.4,655.547a67.261,67.261,0,1,1,67.26-67.262A67.338,67.338,0,0,1,408.4,655.547Z" transform="translate(-334.876 -513.558)" fill="#545252" opacity="0.802"/>
        <path id="Trazado_187735" data-name="Trazado 187735" d="M407.729,654.743a67.261,67.261,0,1,1,67.26-67.262A67.338,67.338,0,0,1,407.729,654.743Z" transform="translate(-334.515 -513.127)" fill="#535151" opacity="0.812"/>
        <path id="Trazado_187736" data-name="Trazado 187736" d="M407.055,653.94a67.261,67.261,0,1,1,67.26-67.262A67.337,67.337,0,0,1,407.055,653.94Z" transform="translate(-334.155 -512.698)" fill="#52504f" opacity="0.822"/>
        <path id="Trazado_187737" data-name="Trazado 187737" d="M406.381,653.137a67.261,67.261,0,1,1,67.26-67.262A67.337,67.337,0,0,1,406.381,653.137Z" transform="translate(-333.794 -512.268)" fill="#514e4e" opacity="0.832"/>
        <path id="Trazado_187738" data-name="Trazado 187738" d="M405.707,652.333a67.261,67.261,0,1,1,67.26-67.261A67.337,67.337,0,0,1,405.707,652.333Z" transform="translate(-333.434 -511.838)" fill="#4f4d4d" opacity="0.842"/>
        <path id="Trazado_187739" data-name="Trazado 187739" d="M405.033,651.53a67.261,67.261,0,1,1,67.26-67.262A67.338,67.338,0,0,1,405.033,651.53Z" transform="translate(-333.073 -511.408)" fill="#4e4c4c" opacity="0.851"/>
        <path id="Trazado_187740" data-name="Trazado 187740" d="M404.36,650.727a67.261,67.261,0,1,1,67.26-67.262A67.338,67.338,0,0,1,404.36,650.727Z" transform="translate(-332.712 -510.978)" fill="#4d4b4b" opacity="0.861"/>
        <path id="Trazado_187741" data-name="Trazado 187741" d="M403.686,649.924a67.261,67.261,0,1,1,67.26-67.262A67.338,67.338,0,0,1,403.686,649.924Z" transform="translate(-332.351 -510.548)" fill="#4c4a4a" opacity="0.871"/>
        <path id="Trazado_187742" data-name="Trazado 187742" d="M403.012,649.12a67.261,67.261,0,1,1,67.26-67.262A67.337,67.337,0,0,1,403.012,649.12Z" transform="translate(-331.991 -510.118)" fill="#4b4949" opacity="0.881"/>
        <path id="Trazado_187743" data-name="Trazado 187743" d="M402.338,648.317a67.261,67.261,0,1,1,67.26-67.262A67.337,67.337,0,0,1,402.338,648.317Z" transform="translate(-331.631 -509.688)" fill="#494848" opacity="0.891"/>
        <path id="Trazado_187744" data-name="Trazado 187744" d="M401.664,647.514a67.261,67.261,0,1,1,67.26-67.262A67.338,67.338,0,0,1,401.664,647.514Z" transform="translate(-331.27 -509.258)" fill="#484747" opacity="0.901"/>
        <path id="Trazado_187745" data-name="Trazado 187745" d="M400.99,646.711a67.261,67.261,0,1,1,67.26-67.262A67.338,67.338,0,0,1,400.99,646.711Z" transform="translate(-330.909 -508.829)" fill="#474646" opacity="0.911"/>
        <path id="Trazado_187746" data-name="Trazado 187746" d="M400.316,645.907a67.261,67.261,0,1,1,67.261-67.262A67.338,67.338,0,0,1,400.316,645.907Z" transform="translate(-330.548 -508.398)" fill="#464545" opacity="0.921"/>
        <path id="Trazado_187747" data-name="Trazado 187747" d="M399.643,645.1a67.261,67.261,0,1,1,67.26-67.262A67.338,67.338,0,0,1,399.643,645.1Z" transform="translate(-330.188 -507.968)" fill="#454444" opacity="0.931"/>
        <path id="Trazado_187748" data-name="Trazado 187748" d="M398.969,644.3a67.261,67.261,0,1,1,67.26-67.262A67.337,67.337,0,0,1,398.969,644.3Z" transform="translate(-329.827 -507.539)" fill="#444343" opacity="0.941"/>
        <path id="Trazado_187749" data-name="Trazado 187749" d="M398.3,643.5a67.261,67.261,0,1,1,67.26-67.261A67.337,67.337,0,0,1,398.3,643.5Z" transform="translate(-329.467 -507.108)" fill="#424242" opacity="0.95"/>
        <path id="Trazado_187750" data-name="Trazado 187750" d="M397.621,642.694a67.261,67.261,0,1,1,67.26-67.262A67.338,67.338,0,0,1,397.621,642.694Z" transform="translate(-329.106 -506.679)" fill="#414141" opacity="0.96"/>
        <path id="Trazado_187751" data-name="Trazado 187751" d="M396.947,641.891a67.261,67.261,0,1,1,67.26-67.262A67.338,67.338,0,0,1,396.947,641.891Z" transform="translate(-328.745 -506.249)" fill="#404040" opacity="0.97"/>
        <path id="Trazado_187752" data-name="Trazado 187752" d="M396.273,641.087a67.261,67.261,0,1,1,67.261-67.262A67.338,67.338,0,0,1,396.273,641.087Z" transform="translate(-328.384 -505.819)" fill="#3f3f3f" opacity="0.98"/>
        <path id="Trazado_187753" data-name="Trazado 187753" d="M395.6,640.284a67.261,67.261,0,1,1,67.26-67.262A67.338,67.338,0,0,1,395.6,640.284Z" transform="translate(-328.024 -505.389)" fill="#3e3e3e" opacity="0.99"/>
        <path id="Trazado_187754" data-name="Trazado 187754" d="M394.926,639.481a67.261,67.261,0,1,1,67.26-67.262A67.338,67.338,0,0,1,394.926,639.481Z" transform="translate(-327.663 -504.959)" fill="#3d3d3d"/>
      </g>
      <g id="Grupo_149826" data-name="Grupo 149826" transform="translate(296.631 2014.625)">
        <g id="Grupo_149802" data-name="Grupo 149802" transform="translate(0 0)">
          <circle id="Elipse_4995" data-name="Elipse 4995" cx="68.09" cy="68.09" r="68.09" transform="translate(0 96.294) rotate(-45)" fill="url(#linear-gradient)"/>
          <circle id="Elipse_4996" data-name="Elipse 4996" cx="64.686" cy="64.686" r="64.686" transform="translate(4.815 96.294) rotate(-45)" fill="url(#linear-gradient-2)"/>
        </g>
        <g id="QGY8wj.tif" transform="translate(569.894 -1241.47)">
          <g id="Grupo_149843" data-name="Grupo 149843" transform="translate(-502.857 1283.845)">
            <path id="Trazado_188208" data-name="Trazado 188208" d="M-445.044,1380.049a13.417,13.417,0,0,1-3.173-1.442c-1.29-1.047-2.177-2.518-3.6-3.52-.62-.437-.7-1.648-1.088-2.694h-3l-.1-1.515h3.11l-.358-1.961H-457v-1.5h3.5c-1.105-2.906-2.021-5.614-3.164-8.224-.983-2.245-2.194-4.393-3.359-6.554a18.251,18.251,0,0,1,9.677-25.469,18.386,18.386,0,0,1,25.109,18.865,17.829,17.829,0,0,1-2.639,7.882,49.656,49.656,0,0,0-5.452,12.679,6.455,6.455,0,0,0-.11.723h3.217c.026.521.048.955.082,1.609h-2.2c-1.659,0-1.659,0-1.929,1.815l2.883.155v1.339a1.625,1.625,0,0,1-.511.131c-1.749-.2-3.18-.132-3.383,2.235-.05.586-1.228,1.09-1.911,1.6-.274.205-.784.25-.892.5-.862,1.972-2.505,2.772-4.472,3.146a2.049,2.049,0,0,0-.454.209Zm9.881-12.733c.129-.415.237-.734.327-1.059a53.177,53.177,0,0,1,5.645-13.287A16.173,16.173,0,0,0-427.112,1341a16.8,16.8,0,0,0-22-12.636c-10.537,3.574-14.057,15.711-9.545,23.4A67.275,67.275,0,0,1-452.2,1366.5a1.375,1.375,0,0,0,1.01.78C-445.888,1367.331-440.585,1367.316-435.163,1367.316Zm-15.716,5.109c.006,1.97.3,2.274,2.114,2.277,3.473.006,6.947.015,10.42.007,1.7,0,2.094-.495,1.865-2.285Zm15.341-3.4h-15.9c-.133,1.381.339,2.01,1.717,1.807a13.243,13.243,0,0,1,1.907-.017h11.857Zm-12.413,7.194c.872,1.622,2.634,2.343,5.026,2.028a3.842,3.842,0,0,0,3.326-2.028Z" transform="translate(472.53 -1315.139)" fill="#12263f"/>
            <path id="Trazado_188209" data-name="Trazado 188209" d="M-502.857,1395.22v-1.43h8.023l.074,1.43Z" transform="translate(502.857 -1365.68)" fill="#12263f"/>
            <path id="Trazado_188210" data-name="Trazado 188210" d="M-391.649,1291.863v-8.018h1.463v8.018Z" transform="translate(420.082 -1283.845)" fill="#12263f"/>
            <path id="Trazado_188211" data-name="Trazado 188211" d="M-326.612,1315.742l.693.649-5.742,5.756-.74-.7Z" transform="translate(375.983 -1307.587)" fill="#12263f"/>
            <path id="Trazado_188212" data-name="Trazado 188212" d="M-466.074,1453.569l.7.689-5.794,5.75-.726-.662Z" transform="translate(479.809 -1410.174)" fill="#12263f"/>
            <path id="Trazado_188213" data-name="Trazado 188213" d="M-333.231,1455.13l.8-.758,5.721,5.745-.74.779Z" transform="translate(376.601 -1410.772)" fill="#12263f"/>
            <path id="Trazado_188214" data-name="Trazado 188214" d="M-470.989,1315.651l.685-.73,5.738,5.756-.683.718Z" transform="translate(479.137 -1306.976)" fill="#12263f"/>
            <path id="Trazado_188215" data-name="Trazado 188215" d="M-298.608,1396.552h-8V1395.1h8Z" transform="translate(356.785 -1366.654)" fill="#12263f"/>
            <path id="Trazado_188216" data-name="Trazado 188216" d="M-477.644,1425.448l.6,1.411-3.733,1.536-.586-1.42Z" transform="translate(486.858 -1389.243)" fill="#12263f"/>
            <path id="Trazado_188217" data-name="Trazado 188217" d="M-311.075,1429.739l-3.721-1.557.541-1.429,3.726,1.528Z" transform="translate(362.879 -1390.215)" fill="#12263f"/>
            <path id="Trazado_188218" data-name="Trazado 188218" d="M-357.017,1306.243l-1.543,3.725-1.423-.579,1.526-3.711Z" transform="translate(396.513 -1300.096)" fill="#12263f"/>
            <path id="Trazado_188219" data-name="Trazado 188219" d="M-476.694,1357.877l-.609,1.406-3.706-1.528.605-1.411Z" transform="translate(486.595 -1337.808)" fill="#12263f"/>
            <path id="Trazado_188220" data-name="Trazado 188220" d="M-310.354,1357.693l.578,1.417-3.709,1.541-.609-1.412Z" transform="translate(362.357 -1338.812)" fill="#12263f"/>
            <path id="Trazado_188221" data-name="Trazado 188221" d="M-425.893,1308.9l-1.43.562-1.529-3.678,1.4-.651Z" transform="translate(447.773 -1299.689)" fill="#12263f"/>
            <path id="Trazado_188222" data-name="Trazado 188222" d="M-432.8,1368.006v3.042h-1.541V1368c-6.392-1.022-10.093-4.637-11.133-11.06h-3.068v-1.485h3.054c.948-6.468,4.657-10.054,11.071-11.056v-3.048h1.468v3.016c6.333,1.016,10.043,4.624,11.08,11.039h3.062v1.453h-3.049C-422.865,1363.172-426.352,1366.936-432.8,1368.006Zm-1.692-21.828a9.714,9.714,0,0,0-9.2,9.173l1.857.137v1.416l-1.935.1c.553,5.159,4.8,9.344,9.294,9.223l.106-1.853h1.425l.085,1.929c5.06-.433,9.372-4.835,9.2-9.3l-1.937-.135c.032-.538.059-.973.084-1.4l1.977-.144c-.793-5.313-4.538-8.987-9.309-9.181-.048.65-.1,1.3-.148,2.026l-1.369-.067Z" transform="translate(462.427 -1326.65)" fill="#12263f"/>
          </g>
        </g>
      </g>
      <path id="Trazado_194446" data-name="Trazado 194446" d="M8.43-4.7a5.762,5.762,0,0,1-.977,3.609A3.409,3.409,0,0,1,4.594.156,3.433,3.433,0,0,1,1.75-1.07,5.594,5.594,0,0,1,.742-4.586V-6.68A5.687,5.687,0,0,1,1.73-10.3a3.434,3.434,0,0,1,2.848-1.234,3.437,3.437,0,0,1,2.844,1.223A5.576,5.576,0,0,1,8.43-6.8Zm-2.258-2.3a4.165,4.165,0,0,0-.387-2.061,1.307,1.307,0,0,0-1.207-.645A1.284,1.284,0,0,0,3.4-9.1,3.9,3.9,0,0,0,3-7.177v2.768a4.372,4.372,0,0,0,.379,2.068,1.29,1.29,0,0,0,1.215.676,1.268,1.268,0,0,0,1.2-.649A4.268,4.268,0,0,0,6.172-4.3ZM15.438,0H13.18V-8.7l-2.7.836V-9.7L15.2-11.391h.242Z" transform="translate(297.667 2117)" fill="#fff"/>
      <path id="Trazado_194445" data-name="Trazado 194445" d="M6.482-2.8a1.128,1.128,0,0,0-.439-.956,5.764,5.764,0,0,0-1.582-.7,11.215,11.215,0,0,1-1.809-.729A2.956,2.956,0,0,1,.835-7.83a2.575,2.575,0,0,1,.487-1.542,3.177,3.177,0,0,1,1.4-1.058,5.265,5.265,0,0,1,2.047-.381A4.793,4.793,0,0,1,6.8-10.4,3.242,3.242,0,0,1,8.192-9.229a3.057,3.057,0,0,1,.494,1.714h-2.2a1.438,1.438,0,0,0-.461-1.139,1.9,1.9,0,0,0-1.3-.406,2.026,2.026,0,0,0-1.252.341,1.074,1.074,0,0,0-.447.9,1.029,1.029,0,0,0,.524.872A5.916,5.916,0,0,0,5.1-6.292a6.661,6.661,0,0,1,2.732,1.4,2.786,2.786,0,0,1,.857,2.08A2.566,2.566,0,0,1,7.639-.641a4.585,4.585,0,0,1-2.82.787A5.445,5.445,0,0,1,2.578-.3,3.546,3.546,0,0,1,1.036-1.538,3.161,3.161,0,0,1,.505-3.354h2.2q0,1.765,2.109,1.765a2.052,2.052,0,0,0,1.223-.319A1.037,1.037,0,0,0,6.482-2.8Zm7.2,2.944A3.89,3.89,0,0,1,10.844-.923,3.8,3.8,0,0,1,9.749-3.772v-.205a4.787,4.787,0,0,1,.461-2.135,3.386,3.386,0,0,1,1.307-1.45,3.669,3.669,0,0,1,1.93-.509,3.289,3.289,0,0,1,2.56,1.025,4.167,4.167,0,0,1,.934,2.908v.864H11.895a1.966,1.966,0,0,0,.619,1.245,1.871,1.871,0,0,0,1.307.469,2.285,2.285,0,0,0,1.912-.886l1.04,1.165A3.178,3.178,0,0,1,15.483-.231,4.229,4.229,0,0,1,13.682.146ZM13.44-6.365a1.323,1.323,0,0,0-1.022.427,2.209,2.209,0,0,0-.5,1.221h2.944v-.169a1.576,1.576,0,0,0-.381-1.092A1.365,1.365,0,0,0,13.44-6.365ZM22.6-5.94A5.751,5.751,0,0,0,21.833-6a1.55,1.55,0,0,0-1.575.813V0H18.142V-7.925h2l.059.945a1.961,1.961,0,0,1,1.765-1.091,2.218,2.218,0,0,1,.659.1Zm4.116,3.354,1.472-5.339H30.4L27.722,0H25.7L23.027-7.925h2.212ZM33.56,0H31.436V-7.925H33.56ZM31.311-9.976a1.042,1.042,0,0,1,.319-.784,1.2,1.2,0,0,1,.868-.308,1.2,1.2,0,0,1,.864.308,1.036,1.036,0,0,1,.322.784,1.039,1.039,0,0,1-.326.791,1.2,1.2,0,0,1-.861.308,1.2,1.2,0,0,1-.861-.308A1.039,1.039,0,0,1,31.311-9.976ZM38.6-1.56a1.388,1.388,0,0,0,.952-.322,1.129,1.129,0,0,0,.381-.857h1.985a2.715,2.715,0,0,1-.439,1.476,2.9,2.9,0,0,1-1.183,1.04,3.7,3.7,0,0,1-1.659.37,3.44,3.44,0,0,1-2.681-1.08,4.275,4.275,0,0,1-.981-2.985v-.139a4.226,4.226,0,0,1,.974-2.922,3.4,3.4,0,0,1,2.673-1.091A3.333,3.333,0,0,1,41-7.225a3,3,0,0,1,.912,2.252H39.932a1.455,1.455,0,0,0-.381-1.005,1.27,1.27,0,0,0-.967-.387,1.275,1.275,0,0,0-1.117.539,3.125,3.125,0,0,0-.377,1.749v.22A3.164,3.164,0,0,0,37.463-2.1,1.291,1.291,0,0,0,38.6-1.56ZM45.359,0H43.235V-7.925h2.124ZM43.11-9.976a1.042,1.042,0,0,1,.319-.784,1.2,1.2,0,0,1,.868-.308,1.2,1.2,0,0,1,.864.308,1.036,1.036,0,0,1,.322.784,1.039,1.039,0,0,1-.326.791,1.2,1.2,0,0,1-.861.308,1.2,1.2,0,0,1-.861-.308A1.039,1.039,0,0,1,43.11-9.976Zm3.662,5.94a4.7,4.7,0,0,1,.454-2.1,3.324,3.324,0,0,1,1.307-1.428,3.814,3.814,0,0,1,1.981-.505,3.609,3.609,0,0,1,2.618.981,3.939,3.939,0,0,1,1.132,2.666l.015.542A4.142,4.142,0,0,1,53.262-.956,3.539,3.539,0,0,1,50.53.146a3.556,3.556,0,0,1-2.736-1.1A4.215,4.215,0,0,1,46.772-3.94Zm2.117.15a2.962,2.962,0,0,0,.425,1.727,1.4,1.4,0,0,0,1.216.6,1.4,1.4,0,0,0,1.2-.591,3.241,3.241,0,0,0,.432-1.889,2.933,2.933,0,0,0-.432-1.716,1.4,1.4,0,0,0-1.216-.609,1.382,1.382,0,0,0-1.2.605A3.3,3.3,0,0,0,48.889-3.885Zm10.986,1.7a.682.682,0,0,0-.385-.612,4.368,4.368,0,0,0-1.234-.4Q55.43-3.794,55.43-5.6A2.178,2.178,0,0,1,56.3-7.365a3.531,3.531,0,0,1,2.289-.707,3.8,3.8,0,0,1,2.413.71,2.239,2.239,0,0,1,.9,1.846H59.795a1.024,1.024,0,0,0-.293-.751,1.24,1.24,0,0,0-.916-.3,1.267,1.267,0,0,0-.828.242.763.763,0,0,0-.293.615.652.652,0,0,0,.333.568,3.428,3.428,0,0,0,1.124.374,9.183,9.183,0,0,1,1.333.355,2.19,2.19,0,0,1,1.677,2.131A2.067,2.067,0,0,1,61-.524a4.013,4.013,0,0,1-2.4.67,4.191,4.191,0,0,1-1.769-.355,2.968,2.968,0,0,1-1.212-.974,2.263,2.263,0,0,1-.439-1.337h2.007a1.105,1.105,0,0,0,.417.864,1.656,1.656,0,0,0,1.04.3,1.533,1.533,0,0,0,.919-.231A.718.718,0,0,0,59.875-2.19Z" transform="translate(363.667 2146)" fill="#12263f"/>
    </g>
  </g>
</svg>
