<svg xmlns="http://www.w3.org/2000/svg" xmlns:xlink="http://www.w3.org/1999/xlink" width="240.735" height="240.735" viewBox="0 0 240.735 240.735">
  <defs>
    <linearGradient id="linear-gradient" x1="0.317" y1="0.753" x2="0.831" y2="1.256" gradientUnits="objectBoundingBox">
      <stop offset="0" stop-color="#fff"/>
      <stop offset="0.231" stop-color="#f7f7f6"/>
      <stop offset="0.589" stop-color="#e1e1e1"/>
      <stop offset="1" stop-color="#c1c1c0"/>
    </linearGradient>
    <linearGradient id="linear-gradient-2" x1="0.495" y1="0.947" x2="0.182" y2="0.545" gradientUnits="objectBoundingBox">
      <stop offset="0" stop-color="#fff"/>
      <stop offset="0.38" stop-color="#f7f7f7"/>
      <stop offset="0.968" stop-color="#e1e2e4"/>
      <stop offset="0.994" stop-color="#e0e1e3"/>
    </linearGradient>
  </defs>
  <g id="Grupo_152014" data-name="Grupo 152014" transform="translate(-984.939 -1247.571)">
    <g id="Grupo_149864" data-name="Grupo 149864" transform="translate(101.77 -742.98)">
      <circle id="Elipse_5011" data-name="Elipse 5011" cx="85.113" cy="85.113" r="85.113" transform="translate(883.17 2110.919) rotate(-45)" fill="#ff2c9c"/>
      <path id="Trazado_188207" data-name="Trazado 188207" d="M1709.275,749.478l-10.083,10.037-7.237,7.2a2.864,2.864,0,0,1-4.885-2.03V754.124a85.113,85.113,0,0,1-85.112-85.113q0-3.365.258-6.666a85.119,85.119,0,0,0,84.854,78.446V730.207a2.864,2.864,0,0,1,4.885-2.03l7.237,7.2,10.083,10.037A2.864,2.864,0,0,1,1709.275,749.478Z" transform="translate(-683.533 1454.312)" fill="#12263f"/>
      <circle id="Elipse_5012" data-name="Elipse 5012" cx="14.85" cy="14.85" r="14.85" transform="matrix(0.16, -0.987, 0.987, 0.16, 901.388, 2123.199)" fill="#12263f"/>
      <g id="Grupo_149834" data-name="Grupo 149834" transform="translate(936.651 2043.506)" opacity="0.6" style="mix-blend-mode: multiply;isolation: isolate">
        <path id="Trazado_187959" data-name="Trazado 187959" d="M1776.493,720.613a67.261,67.261,0,1,1,67.26-67.262A67.338,67.338,0,0,1,1776.493,720.613Z" transform="translate(-1677.598 -548.382)" fill="#fff" opacity="0"/>
        <path id="Trazado_187960" data-name="Trazado 187960" d="M1775.819,719.809a67.261,67.261,0,1,1,67.26-67.262A67.337,67.337,0,0,1,1775.819,719.809Z" transform="translate(-1677.237 -547.951)" fill="#f9f9f9" opacity="0.01"/>
        <path id="Trazado_187961" data-name="Trazado 187961" d="M1775.145,719.006a67.261,67.261,0,1,1,67.26-67.262A67.338,67.338,0,0,1,1775.145,719.006Z" transform="translate(-1676.876 -547.522)" fill="#f4f3f3" opacity="0.02"/>
        <path id="Trazado_187962" data-name="Trazado 187962" d="M1774.471,718.2a67.261,67.261,0,1,1,67.26-67.262A67.338,67.338,0,0,1,1774.471,718.2Z" transform="translate(-1676.516 -547.092)" fill="#f0efef" opacity="0.03"/>
        <path id="Trazado_187963" data-name="Trazado 187963" d="M1773.8,717.4a67.261,67.261,0,1,1,67.26-67.262A67.337,67.337,0,0,1,1773.8,717.4Z" transform="translate(-1676.156 -546.662)" fill="#ecebeb" opacity="0.04"/>
        <path id="Trazado_187964" data-name="Trazado 187964" d="M1773.123,716.6a67.261,67.261,0,1,1,67.26-67.262A67.338,67.338,0,0,1,1773.123,716.6Z" transform="translate(-1675.795 -546.232)" fill="#e9e7e7" opacity="0.05"/>
        <path id="Trazado_187965" data-name="Trazado 187965" d="M1772.449,715.793a67.261,67.261,0,1,1,67.26-67.262A67.338,67.338,0,0,1,1772.449,715.793Z" transform="translate(-1675.434 -545.802)" fill="#e6e4e4" opacity="0.059"/>
        <path id="Trazado_187966" data-name="Trazado 187966" d="M1771.776,714.99a67.261,67.261,0,1,1,67.26-67.262A67.338,67.338,0,0,1,1771.776,714.99Z" transform="translate(-1675.073 -545.372)" fill="#e3e1e1" opacity="0.069"/>
        <path id="Trazado_187967" data-name="Trazado 187967" d="M1771.1,714.186a67.261,67.261,0,1,1,67.26-67.262A67.338,67.338,0,0,1,1771.1,714.186Z" transform="translate(-1674.713 -544.942)" fill="#e0dedd" opacity="0.079"/>
        <path id="Trazado_187968" data-name="Trazado 187968" d="M1770.428,713.383a67.261,67.261,0,1,1,67.26-67.262A67.337,67.337,0,0,1,1770.428,713.383Z" transform="translate(-1674.352 -544.512)" fill="#dddbdb" opacity="0.089"/>
        <path id="Trazado_187969" data-name="Trazado 187969" d="M1769.754,712.58a67.261,67.261,0,1,1,67.26-67.262A67.338,67.338,0,0,1,1769.754,712.58Z" transform="translate(-1673.992 -544.082)" fill="#dad8d8" opacity="0.099"/>
        <path id="Trazado_187970" data-name="Trazado 187970" d="M1769.08,711.777a67.261,67.261,0,1,1,67.26-67.262A67.337,67.337,0,0,1,1769.08,711.777Z" transform="translate(-1673.631 -543.653)" fill="#d8d5d5" opacity="0.109"/>
        <path id="Trazado_187971" data-name="Trazado 187971" d="M1768.406,710.973a67.261,67.261,0,1,1,67.26-67.262A67.338,67.338,0,0,1,1768.406,710.973Z" transform="translate(-1673.27 -543.222)" fill="#d5d2d2" opacity="0.119"/>
        <path id="Trazado_187972" data-name="Trazado 187972" d="M1767.732,710.17a67.261,67.261,0,1,1,67.26-67.262A67.338,67.338,0,0,1,1767.732,710.17Z" transform="translate(-1672.909 -542.793)" fill="#d2d0cf" opacity="0.129"/>
        <path id="Trazado_187973" data-name="Trazado 187973" d="M1767.059,709.367a67.261,67.261,0,1,1,67.26-67.262A67.338,67.338,0,0,1,1767.059,709.367Z" transform="translate(-1672.548 -542.363)" fill="#d0cdcd" opacity="0.139"/>
        <path id="Trazado_187974" data-name="Trazado 187974" d="M1766.385,708.563a67.261,67.261,0,1,1,67.26-67.261A67.338,67.338,0,0,1,1766.385,708.563Z" transform="translate(-1672.188 -541.932)" fill="#cdcbca" opacity="0.149"/>
        <path id="Trazado_187975" data-name="Trazado 187975" d="M1765.711,707.76a67.261,67.261,0,1,1,67.26-67.262A67.338,67.338,0,0,1,1765.711,707.76Z" transform="translate(-1671.828 -541.503)" fill="#cbc8c8" opacity="0.158"/>
        <path id="Trazado_187976" data-name="Trazado 187976" d="M1765.037,706.957A67.261,67.261,0,1,1,1832.3,639.7,67.338,67.338,0,0,1,1765.037,706.957Z" transform="translate(-1671.467 -541.073)" fill="#c8c5c5" opacity="0.168"/>
        <path id="Trazado_187977" data-name="Trazado 187977" d="M1764.363,706.154a67.261,67.261,0,1,1,67.26-67.262A67.337,67.337,0,0,1,1764.363,706.154Z" transform="translate(-1671.106 -540.643)" fill="#c6c3c2" opacity="0.178"/>
        <path id="Trazado_187978" data-name="Trazado 187978" d="M1763.689,705.35a67.261,67.261,0,1,1,67.26-67.262A67.338,67.338,0,0,1,1763.689,705.35Z" transform="translate(-1670.746 -540.213)" fill="#c3c0c0" opacity="0.188"/>
        <path id="Trazado_187979" data-name="Trazado 187979" d="M1763.016,704.547a67.261,67.261,0,1,1,67.26-67.262A67.338,67.338,0,0,1,1763.016,704.547Z" transform="translate(-1670.385 -539.783)" fill="#c1bebe" opacity="0.198"/>
        <path id="Trazado_187980" data-name="Trazado 187980" d="M1762.342,703.744a67.261,67.261,0,1,1,67.26-67.262A67.338,67.338,0,0,1,1762.342,703.744Z" transform="translate(-1670.024 -539.353)" fill="#bebbbb" opacity="0.208"/>
        <path id="Trazado_187981" data-name="Trazado 187981" d="M1761.668,702.94a67.261,67.261,0,1,1,67.26-67.262A67.337,67.337,0,0,1,1761.668,702.94Z" transform="translate(-1669.664 -538.923)" fill="#bcb9b9" opacity="0.218"/>
        <path id="Trazado_187982" data-name="Trazado 187982" d="M1760.994,702.137a67.261,67.261,0,1,1,67.26-67.262A67.338,67.338,0,0,1,1760.994,702.137Z" transform="translate(-1669.303 -538.493)" fill="#bab7b6" opacity="0.228"/>
        <path id="Trazado_187983" data-name="Trazado 187983" d="M1760.32,701.334a67.261,67.261,0,1,1,67.26-67.262A67.338,67.338,0,0,1,1760.32,701.334Z" transform="translate(-1668.942 -538.064)" fill="#b8b4b4" opacity="0.238"/>
        <path id="Trazado_187984" data-name="Trazado 187984" d="M1759.646,700.53a67.261,67.261,0,1,1,67.26-67.262A67.338,67.338,0,0,1,1759.646,700.53Z" transform="translate(-1668.582 -537.633)" fill="#b5b2b2" opacity="0.248"/>
        <path id="Trazado_187985" data-name="Trazado 187985" d="M1758.972,699.727a67.261,67.261,0,1,1,67.26-67.262A67.338,67.338,0,0,1,1758.972,699.727Z" transform="translate(-1668.221 -537.203)" fill="#b3b0af" opacity="0.257"/>
        <path id="Trazado_187986" data-name="Trazado 187986" d="M1758.3,698.924a67.261,67.261,0,1,1,67.26-67.262A67.338,67.338,0,0,1,1758.3,698.924Z" transform="translate(-1667.861 -536.774)" fill="#b1adad" opacity="0.267"/>
        <path id="Trazado_187987" data-name="Trazado 187987" d="M1757.625,698.121a67.261,67.261,0,1,1,67.26-67.262A67.337,67.337,0,0,1,1757.625,698.121Z" transform="translate(-1667.5 -536.344)" fill="#afabab" opacity="0.277"/>
        <path id="Trazado_187988" data-name="Trazado 187988" d="M1756.951,697.317a67.261,67.261,0,1,1,67.26-67.262A67.338,67.338,0,0,1,1756.951,697.317Z" transform="translate(-1667.139 -535.914)" fill="#ada9a9" opacity="0.287"/>
        <path id="Trazado_187989" data-name="Trazado 187989" d="M1756.277,696.514a67.261,67.261,0,1,1,67.26-67.262A67.338,67.338,0,0,1,1756.277,696.514Z" transform="translate(-1666.778 -535.484)" fill="#aaa7a6" opacity="0.297"/>
        <path id="Trazado_187990" data-name="Trazado 187990" d="M1755.6,695.711a67.261,67.261,0,1,1,67.26-67.262A67.338,67.338,0,0,1,1755.6,695.711Z" transform="translate(-1666.418 -535.054)" fill="#a8a4a4" opacity="0.307"/>
        <path id="Trazado_187991" data-name="Trazado 187991" d="M1754.93,694.908a67.261,67.261,0,1,1,67.26-67.262A67.338,67.338,0,0,1,1754.93,694.908Z" transform="translate(-1666.057 -534.624)" fill="#a6a2a2" opacity="0.317"/>
        <path id="Trazado_187992" data-name="Trazado 187992" d="M1754.256,694.1a67.261,67.261,0,1,1,67.26-67.262A67.337,67.337,0,0,1,1754.256,694.1Z" transform="translate(-1665.697 -534.194)" fill="#a4a0a0" opacity="0.327"/>
        <path id="Trazado_187993" data-name="Trazado 187993" d="M1753.582,693.3a67.261,67.261,0,1,1,67.26-67.262A67.338,67.338,0,0,1,1753.582,693.3Z" transform="translate(-1665.336 -533.764)" fill="#a29e9e" opacity="0.337"/>
        <path id="Trazado_187994" data-name="Trazado 187994" d="M1752.908,692.5a67.261,67.261,0,1,1,67.26-67.262A67.338,67.338,0,0,1,1752.908,692.5Z" transform="translate(-1664.975 -533.334)" fill="#a09c9c" opacity="0.347"/>
        <path id="Trazado_187995" data-name="Trazado 187995" d="M1752.234,691.694a67.261,67.261,0,1,1,67.26-67.262A67.338,67.338,0,0,1,1752.234,691.694Z" transform="translate(-1664.615 -532.904)" fill="#9e9a9a" opacity="0.356"/>
        <path id="Trazado_187996" data-name="Trazado 187996" d="M1751.56,690.891a67.261,67.261,0,1,1,67.261-67.262A67.338,67.338,0,0,1,1751.56,690.891Z" transform="translate(-1664.254 -532.474)" fill="#9c9898" opacity="0.366"/>
        <path id="Trazado_187997" data-name="Trazado 187997" d="M1750.886,690.088a67.261,67.261,0,1,1,67.26-67.262A67.338,67.338,0,0,1,1750.886,690.088Z" transform="translate(-1663.893 -532.044)" fill="#9a9696" opacity="0.376"/>
        <path id="Trazado_187998" data-name="Trazado 187998" d="M1750.213,689.284a67.261,67.261,0,1,1,67.26-67.262A67.338,67.338,0,0,1,1750.213,689.284Z" transform="translate(-1663.532 -531.614)" fill="#989494" opacity="0.386"/>
        <path id="Trazado_187999" data-name="Trazado 187999" d="M1749.539,688.481a67.261,67.261,0,1,1,67.26-67.262A67.337,67.337,0,0,1,1749.539,688.481Z" transform="translate(-1663.172 -531.184)" fill="#969292" opacity="0.396"/>
        <path id="Trazado_188000" data-name="Trazado 188000" d="M1748.865,687.678a67.261,67.261,0,1,1,67.26-67.262A67.337,67.337,0,0,1,1748.865,687.678Z" transform="translate(-1662.812 -530.755)" fill="#949090" opacity="0.406"/>
        <path id="Trazado_188001" data-name="Trazado 188001" d="M1748.191,686.875a67.261,67.261,0,1,1,67.261-67.262A67.338,67.338,0,0,1,1748.191,686.875Z" transform="translate(-1662.451 -530.325)" fill="#928e8e" opacity="0.416"/>
        <path id="Trazado_188002" data-name="Trazado 188002" d="M1747.517,686.071a67.261,67.261,0,1,1,67.26-67.262A67.338,67.338,0,0,1,1747.517,686.071Z" transform="translate(-1662.09 -529.895)" fill="#908c8c" opacity="0.426"/>
        <path id="Trazado_188003" data-name="Trazado 188003" d="M1746.843,685.268a67.261,67.261,0,1,1,67.26-67.262A67.338,67.338,0,0,1,1746.843,685.268Z" transform="translate(-1661.729 -529.465)" fill="#8e8a8a" opacity="0.436"/>
        <path id="Trazado_188004" data-name="Trazado 188004" d="M1746.17,684.465a67.261,67.261,0,1,1,67.26-67.262A67.338,67.338,0,0,1,1746.17,684.465Z" transform="translate(-1661.369 -529.035)" fill="#8c8888" opacity="0.446"/>
        <path id="Trazado_188005" data-name="Trazado 188005" d="M1745.5,683.662a67.261,67.261,0,1,1,67.26-67.262A67.338,67.338,0,0,1,1745.5,683.662Z" transform="translate(-1661.008 -528.605)" fill="#8b8787" opacity="0.455"/>
        <path id="Trazado_188006" data-name="Trazado 188006" d="M1744.822,682.858a67.261,67.261,0,1,1,67.26-67.262A67.337,67.337,0,0,1,1744.822,682.858Z" transform="translate(-1660.648 -528.175)" fill="#898585" opacity="0.465"/>
        <path id="Trazado_188007" data-name="Trazado 188007" d="M1744.148,682.055a67.261,67.261,0,1,1,67.26-67.262A67.338,67.338,0,0,1,1744.148,682.055Z" transform="translate(-1660.287 -527.745)" fill="#878383" opacity="0.475"/>
        <path id="Trazado_188008" data-name="Trazado 188008" d="M1743.474,681.252a67.261,67.261,0,1,1,67.26-67.262A67.338,67.338,0,0,1,1743.474,681.252Z" transform="translate(-1659.926 -527.315)" fill="#858181" opacity="0.485"/>
        <path id="Trazado_188009" data-name="Trazado 188009" d="M1742.8,680.448a67.261,67.261,0,1,1,67.26-67.261A67.338,67.338,0,0,1,1742.8,680.448Z" transform="translate(-1659.565 -526.885)" fill="#847f7f" opacity="0.495"/>
        <path id="Trazado_188010" data-name="Trazado 188010" d="M1742.127,679.645a67.261,67.261,0,1,1,67.26-67.262A67.338,67.338,0,0,1,1742.127,679.645Z" transform="translate(-1659.205 -526.455)" fill="#827e7e" opacity="0.505"/>
        <path id="Trazado_188011" data-name="Trazado 188011" d="M1741.453,678.842a67.261,67.261,0,1,1,67.26-67.262A67.337,67.337,0,0,1,1741.453,678.842Z" transform="translate(-1658.844 -526.025)" fill="#807c7c" opacity="0.515"/>
        <path id="Trazado_188012" data-name="Trazado 188012" d="M1740.779,678.039a67.261,67.261,0,1,1,67.26-67.262A67.338,67.338,0,0,1,1740.779,678.039Z" transform="translate(-1658.484 -525.596)" fill="#7e7a7a" opacity="0.525"/>
        <path id="Trazado_188013" data-name="Trazado 188013" d="M1740.1,677.235a67.261,67.261,0,1,1,67.26-67.262A67.338,67.338,0,0,1,1740.1,677.235Z" transform="translate(-1658.123 -525.165)" fill="#7c7879" opacity="0.535"/>
        <path id="Trazado_188014" data-name="Trazado 188014" d="M1739.431,676.432a67.261,67.261,0,1,1,67.26-67.262A67.338,67.338,0,0,1,1739.431,676.432Z" transform="translate(-1657.762 -524.736)" fill="#7b7777" opacity="0.545"/>
        <path id="Trazado_188015" data-name="Trazado 188015" d="M1738.757,675.629a67.261,67.261,0,1,1,67.261-67.262A67.338,67.338,0,0,1,1738.757,675.629Z" transform="translate(-1657.401 -524.306)" fill="#797575" opacity="0.554"/>
        <path id="Trazado_188016" data-name="Trazado 188016" d="M1738.084,674.825a67.261,67.261,0,1,1,67.26-67.262A67.338,67.338,0,0,1,1738.084,674.825Z" transform="translate(-1657.041 -523.875)" fill="#777474" opacity="0.564"/>
        <path id="Trazado_188017" data-name="Trazado 188017" d="M1737.41,674.022a67.261,67.261,0,1,1,67.26-67.262A67.338,67.338,0,0,1,1737.41,674.022Z" transform="translate(-1656.68 -523.446)" fill="#767272" opacity="0.574"/>
        <path id="Trazado_188018" data-name="Trazado 188018" d="M1736.736,673.219A67.261,67.261,0,1,1,1804,605.957,67.338,67.338,0,0,1,1736.736,673.219Z" transform="translate(-1656.32 -523.016)" fill="#747070" opacity="0.584"/>
        <path id="Trazado_188019" data-name="Trazado 188019" d="M1736.062,672.416a67.261,67.261,0,1,1,67.26-67.262A67.338,67.338,0,0,1,1736.062,672.416Z" transform="translate(-1655.959 -522.586)" fill="#726f6f" opacity="0.594"/>
        <path id="Trazado_188020" data-name="Trazado 188020" d="M1735.388,671.612a67.261,67.261,0,1,1,67.26-67.262A67.338,67.338,0,0,1,1735.388,671.612Z" transform="translate(-1655.599 -522.156)" fill="#716d6d" opacity="0.604"/>
        <path id="Trazado_188021" data-name="Trazado 188021" d="M1734.714,670.809a67.261,67.261,0,1,1,67.261-67.262A67.338,67.338,0,0,1,1734.714,670.809Z" transform="translate(-1655.238 -521.726)" fill="#6f6c6c" opacity="0.614"/>
        <path id="Trazado_188022" data-name="Trazado 188022" d="M1734.04,670.006a67.261,67.261,0,1,1,67.26-67.262A67.338,67.338,0,0,1,1734.04,670.006Z" transform="translate(-1654.877 -521.296)" fill="#6e6a6a" opacity="0.624"/>
        <path id="Trazado_188023" data-name="Trazado 188023" d="M1733.367,669.2a67.261,67.261,0,1,1,67.26-67.262A67.338,67.338,0,0,1,1733.367,669.2Z" transform="translate(-1654.516 -520.866)" fill="#6c6969" opacity="0.634"/>
        <path id="Trazado_188024" data-name="Trazado 188024" d="M1732.693,668.4a67.261,67.261,0,1,1,67.26-67.262A67.337,67.337,0,0,1,1732.693,668.4Z" transform="translate(-1654.156 -520.436)" fill="#6b6767" opacity="0.644"/>
        <path id="Trazado_188025" data-name="Trazado 188025" d="M1732.019,667.6a67.261,67.261,0,1,1,67.26-67.262A67.338,67.338,0,0,1,1732.019,667.6Z" transform="translate(-1653.795 -520.007)" fill="#696666" opacity="0.653"/>
        <path id="Trazado_188026" data-name="Trazado 188026" d="M1731.345,666.793a67.261,67.261,0,1,1,67.26-67.262A67.338,67.338,0,0,1,1731.345,666.793Z" transform="translate(-1653.435 -519.577)" fill="#686464" opacity="0.663"/>
        <path id="Trazado_188027" data-name="Trazado 188027" d="M1730.672,665.989a67.261,67.261,0,1,1,67.26-67.262A67.338,67.338,0,0,1,1730.672,665.989Z" transform="translate(-1653.074 -519.146)" fill="#666363" opacity="0.673"/>
        <path id="Trazado_188028" data-name="Trazado 188028" d="M1730,665.186a67.261,67.261,0,1,1,67.26-67.262A67.338,67.338,0,0,1,1730,665.186Z" transform="translate(-1652.713 -518.717)" fill="#656261" opacity="0.683"/>
        <path id="Trazado_188029" data-name="Trazado 188029" d="M1729.324,664.383a67.261,67.261,0,1,1,67.26-67.262A67.338,67.338,0,0,1,1729.324,664.383Z" transform="translate(-1652.353 -518.287)" fill="#646060" opacity="0.693"/>
        <path id="Trazado_188030" data-name="Trazado 188030" d="M1728.65,663.579a67.261,67.261,0,1,1,67.261-67.262A67.338,67.338,0,0,1,1728.65,663.579Z" transform="translate(-1651.992 -517.857)" fill="#625f5f" opacity="0.703"/>
        <path id="Trazado_188031" data-name="Trazado 188031" d="M1727.976,662.776a67.261,67.261,0,1,1,67.26-67.262A67.338,67.338,0,0,1,1727.976,662.776Z" transform="translate(-1651.631 -517.427)" fill="#615d5d" opacity="0.713"/>
        <path id="Trazado_188032" data-name="Trazado 188032" d="M1727.3,661.973a67.261,67.261,0,1,1,67.26-67.262A67.338,67.338,0,0,1,1727.3,661.973Z" transform="translate(-1651.271 -516.997)" fill="#5f5c5c" opacity="0.723"/>
        <path id="Trazado_188033" data-name="Trazado 188033" d="M1726.629,661.17a67.261,67.261,0,1,1,67.26-67.262A67.338,67.338,0,0,1,1726.629,661.17Z" transform="translate(-1650.91 -516.567)" fill="#5e5b5b" opacity="0.733"/>
        <path id="Trazado_188034" data-name="Trazado 188034" d="M1725.954,660.366a67.261,67.261,0,1,1,67.26-67.262A67.338,67.338,0,0,1,1725.954,660.366Z" transform="translate(-1650.549 -516.137)" fill="#5d5959" opacity="0.743"/>
        <path id="Trazado_188035" data-name="Trazado 188035" d="M1725.281,659.563a67.261,67.261,0,1,1,67.261-67.262A67.337,67.337,0,0,1,1725.281,659.563Z" transform="translate(-1650.189 -515.707)" fill="#5b5858" opacity="0.752"/>
        <path id="Trazado_188036" data-name="Trazado 188036" d="M1724.607,658.76a67.261,67.261,0,1,1,67.26-67.262A67.337,67.337,0,0,1,1724.607,658.76Z" transform="translate(-1649.828 -515.277)" fill="#5a5757" opacity="0.762"/>
        <path id="Trazado_188037" data-name="Trazado 188037" d="M1723.933,657.957a67.261,67.261,0,1,1,67.26-67.262A67.338,67.338,0,0,1,1723.933,657.957Z" transform="translate(-1649.468 -514.848)" fill="#585655" opacity="0.772"/>
        <path id="Trazado_188038" data-name="Trazado 188038" d="M1723.259,657.153a67.261,67.261,0,1,1,67.26-67.262A67.338,67.338,0,0,1,1723.259,657.153Z" transform="translate(-1649.107 -514.417)" fill="#575454" opacity="0.782"/>
        <path id="Trazado_188039" data-name="Trazado 188039" d="M1722.585,656.35a67.261,67.261,0,1,1,67.261-67.262A67.338,67.338,0,0,1,1722.585,656.35Z" transform="translate(-1648.746 -513.987)" fill="#565353" opacity="0.792"/>
        <path id="Trazado_188040" data-name="Trazado 188040" d="M1721.911,655.547a67.261,67.261,0,1,1,67.26-67.262A67.338,67.338,0,0,1,1721.911,655.547Z" transform="translate(-1648.386 -513.558)" fill="#545252" opacity="0.802"/>
        <path id="Trazado_188041" data-name="Trazado 188041" d="M1721.238,654.743a67.261,67.261,0,1,1,67.26-67.262A67.338,67.338,0,0,1,1721.238,654.743Z" transform="translate(-1648.025 -513.127)" fill="#535151" opacity="0.812"/>
        <path id="Trazado_188042" data-name="Trazado 188042" d="M1720.564,653.94a67.261,67.261,0,1,1,67.261-67.262A67.337,67.337,0,0,1,1720.564,653.94Z" transform="translate(-1647.664 -512.698)" fill="#52504f" opacity="0.822"/>
        <path id="Trazado_188043" data-name="Trazado 188043" d="M1719.89,653.137a67.261,67.261,0,1,1,67.26-67.262A67.338,67.338,0,0,1,1719.89,653.137Z" transform="translate(-1647.304 -512.268)" fill="#514e4e" opacity="0.832"/>
        <path id="Trazado_188044" data-name="Trazado 188044" d="M1719.216,652.333a67.261,67.261,0,1,1,67.26-67.261A67.337,67.337,0,0,1,1719.216,652.333Z" transform="translate(-1646.943 -511.838)" fill="#4f4d4d" opacity="0.842"/>
        <path id="Trazado_188045" data-name="Trazado 188045" d="M1718.542,651.53a67.261,67.261,0,1,1,67.261-67.262A67.338,67.338,0,0,1,1718.542,651.53Z" transform="translate(-1646.582 -511.408)" fill="#4e4c4c" opacity="0.851"/>
        <path id="Trazado_188046" data-name="Trazado 188046" d="M1717.869,650.727a67.261,67.261,0,1,1,67.26-67.262A67.338,67.338,0,0,1,1717.869,650.727Z" transform="translate(-1646.222 -510.978)" fill="#4d4b4b" opacity="0.861"/>
        <path id="Trazado_188047" data-name="Trazado 188047" d="M1717.195,649.924a67.261,67.261,0,1,1,67.26-67.262A67.338,67.338,0,0,1,1717.195,649.924Z" transform="translate(-1645.861 -510.548)" fill="#4c4a4a" opacity="0.871"/>
        <path id="Trazado_188048" data-name="Trazado 188048" d="M1716.521,649.12a67.261,67.261,0,1,1,67.261-67.262A67.337,67.337,0,0,1,1716.521,649.12Z" transform="translate(-1645.5 -510.118)" fill="#4b4949" opacity="0.881"/>
        <path id="Trazado_188049" data-name="Trazado 188049" d="M1715.847,648.317a67.261,67.261,0,1,1,67.26-67.262A67.338,67.338,0,0,1,1715.847,648.317Z" transform="translate(-1645.14 -509.688)" fill="#494848" opacity="0.891"/>
        <path id="Trazado_188050" data-name="Trazado 188050" d="M1715.173,647.514a67.261,67.261,0,1,1,67.26-67.262A67.338,67.338,0,0,1,1715.173,647.514Z" transform="translate(-1644.779 -509.258)" fill="#484747" opacity="0.901"/>
        <path id="Trazado_188051" data-name="Trazado 188051" d="M1714.5,646.711a67.261,67.261,0,1,1,67.26-67.262A67.338,67.338,0,0,1,1714.5,646.711Z" transform="translate(-1644.419 -508.829)" fill="#474646" opacity="0.911"/>
        <path id="Trazado_188052" data-name="Trazado 188052" d="M1713.826,645.907a67.261,67.261,0,1,1,67.26-67.262A67.338,67.338,0,0,1,1713.826,645.907Z" transform="translate(-1644.058 -508.398)" fill="#464545" opacity="0.921"/>
        <path id="Trazado_188053" data-name="Trazado 188053" d="M1713.151,645.1a67.261,67.261,0,1,1,67.26-67.262A67.338,67.338,0,0,1,1713.151,645.1Z" transform="translate(-1643.697 -507.968)" fill="#454444" opacity="0.931"/>
        <path id="Trazado_188054" data-name="Trazado 188054" d="M1712.478,644.3a67.261,67.261,0,1,1,67.26-67.262A67.338,67.338,0,0,1,1712.478,644.3Z" transform="translate(-1643.337 -507.539)" fill="#444343" opacity="0.941"/>
        <path id="Trazado_188055" data-name="Trazado 188055" d="M1711.8,643.5a67.261,67.261,0,1,1,67.26-67.261A67.337,67.337,0,0,1,1711.8,643.5Z" transform="translate(-1642.976 -507.108)" fill="#424242" opacity="0.95"/>
        <path id="Trazado_188056" data-name="Trazado 188056" d="M1711.13,642.694a67.261,67.261,0,1,1,67.26-67.262A67.338,67.338,0,0,1,1711.13,642.694Z" transform="translate(-1642.615 -506.679)" fill="#414141" opacity="0.96"/>
        <path id="Trazado_188057" data-name="Trazado 188057" d="M1710.456,641.891a67.261,67.261,0,1,1,67.26-67.262A67.338,67.338,0,0,1,1710.456,641.891Z" transform="translate(-1642.255 -506.249)" fill="#404040" opacity="0.97"/>
        <path id="Trazado_188058" data-name="Trazado 188058" d="M1709.782,641.087a67.261,67.261,0,1,1,67.261-67.262A67.338,67.338,0,0,1,1709.782,641.087Z" transform="translate(-1641.894 -505.819)" fill="#3f3f3f" opacity="0.98"/>
        <path id="Trazado_188059" data-name="Trazado 188059" d="M1709.109,640.284a67.261,67.261,0,1,1,67.26-67.262A67.338,67.338,0,0,1,1709.109,640.284Z" transform="translate(-1641.533 -505.389)" fill="#3e3e3e" opacity="0.99"/>
        <path id="Trazado_188060" data-name="Trazado 188060" d="M1708.435,639.481a67.261,67.261,0,1,1,67.26-67.262A67.338,67.338,0,0,1,1708.435,639.481Z" transform="translate(-1641.173 -504.959)" fill="#3d3d3d"/>
      </g>
      <g id="Grupo_149835" data-name="Grupo 149835" transform="translate(907.243 2014.625)">
        <g id="Grupo_149813" data-name="Grupo 149813" transform="translate(0 0)">
          <circle id="Elipse_5001" data-name="Elipse 5001" cx="68.09" cy="68.09" r="68.09" transform="translate(0 96.294) rotate(-45)" fill="url(#linear-gradient)"/>
          <circle id="Elipse_5002" data-name="Elipse 5002" cx="64.686" cy="64.686" r="64.686" transform="translate(4.815 96.294) rotate(-45)" fill="url(#linear-gradient-2)"/>
        </g>
        <path id="Trazado_194452" data-name="Trazado 194452" d="M4.878-4.717a4.545,4.545,0,0,1-.227,1.576A3.062,3.062,0,0,1,3.842-2a8.536,8.536,0,0,0-.791.807,2.1,2.1,0,0,0-.315.536,1.617,1.617,0,0,0-.106.594A1.008,1.008,0,0,0,3.757,1.091a1.218,1.218,0,0,0,.9-.33A1.292,1.292,0,0,0,5-.164H7.119a2.828,2.828,0,0,1-.9,2.2,3.518,3.518,0,0,1-2.424.788A3.6,3.6,0,0,1,1.37,2.076,2.648,2.648,0,0,1,.505-.047,3.268,3.268,0,0,1,1.626-2.334l.71-.682a1.878,1.878,0,0,0,.509-.689A3.022,3.022,0,0,0,3-4.717Zm.264-2.238a1.049,1.049,0,0,1-.337.8,1.2,1.2,0,0,1-.85.314,1.2,1.2,0,0,1-.85-.314,1.049,1.049,0,0,1-.337-.8,1.066,1.066,0,0,1,.326-.8,1.188,1.188,0,0,1,.861-.314,1.188,1.188,0,0,1,.861.314A1.066,1.066,0,0,1,5.142-6.954Zm5.471,3.2V0h-2.2V-10.664h4.16a4.813,4.813,0,0,1,2.113.439,3.238,3.238,0,0,1,1.4,1.249,3.482,3.482,0,0,1,.491,1.842,3.062,3.062,0,0,1-1.073,2.472,4.469,4.469,0,0,1-2.97.9Zm0-1.78h1.963a1.93,1.93,0,0,0,1.329-.41,1.492,1.492,0,0,0,.458-1.172A1.759,1.759,0,0,0,13.9-8.386a1.724,1.724,0,0,0-1.274-.5H10.613ZM22.463,0a2.351,2.351,0,0,1-.212-.71,2.561,2.561,0,0,1-2,.857,2.814,2.814,0,0,1-1.93-.674,2.167,2.167,0,0,1-.765-1.7A2.24,2.24,0,0,1,18.49-4.16a4.608,4.608,0,0,1,2.7-.681h.974V-5.3a1.306,1.306,0,0,0-.282-.879,1.109,1.109,0,0,0-.89-.33,1.261,1.261,0,0,0-.839.256.871.871,0,0,0-.3.7H17.732a2.126,2.126,0,0,1,.425-1.274,2.808,2.808,0,0,1,1.2-.919A4.378,4.378,0,0,1,21.1-8.071a3.459,3.459,0,0,1,2.325.736,2.575,2.575,0,0,1,.861,2.069v3.435A3.789,3.789,0,0,0,24.6-.125V0Zm-1.75-1.472a1.823,1.823,0,0,0,.864-.209,1.371,1.371,0,0,0,.586-.56V-3.6h-.791q-1.589,0-1.692,1.1l-.007.125a.847.847,0,0,0,.278.652A1.081,1.081,0,0,0,20.713-1.472ZM30.366-5.94A5.751,5.751,0,0,0,29.6-6a1.55,1.55,0,0,0-1.575.813V0H25.913V-7.925h2l.059.945a1.961,1.961,0,0,1,1.765-1.091,2.218,2.218,0,0,1,.659.1ZM35.757,0a2.351,2.351,0,0,1-.212-.71,2.561,2.561,0,0,1-2,.857,2.814,2.814,0,0,1-1.93-.674,2.167,2.167,0,0,1-.765-1.7,2.24,2.24,0,0,1,.934-1.934,4.608,4.608,0,0,1,2.7-.681h.974V-5.3a1.306,1.306,0,0,0-.282-.879,1.109,1.109,0,0,0-.89-.33,1.261,1.261,0,0,0-.839.256.871.871,0,0,0-.3.7H31.025a2.126,2.126,0,0,1,.425-1.274,2.808,2.808,0,0,1,1.2-.919,4.378,4.378,0,0,1,1.743-.333,3.459,3.459,0,0,1,2.325.736,2.575,2.575,0,0,1,.861,2.069v3.435A3.789,3.789,0,0,0,37.9-.125V0Zm-1.75-1.472a1.823,1.823,0,0,0,.864-.209,1.371,1.371,0,0,0,.586-.56V-3.6h-.791q-1.589,0-1.692,1.1l-.007.125a.847.847,0,0,0,.278.652A1.081,1.081,0,0,0,34.006-1.472Zm8.606-2.563a4.737,4.737,0,0,1,.831-2.952,2.718,2.718,0,0,1,2.281-1.084,2.433,2.433,0,0,1,2.029.974l.139-.828h1.86V3.047H47.629V-.681A2.44,2.44,0,0,1,45.71.146a2.7,2.7,0,0,1-2.256-1.1A4.969,4.969,0,0,1,42.612-4.036Zm2.117.15a3.107,3.107,0,0,0,.4,1.731,1.278,1.278,0,0,0,1.124.594,1.423,1.423,0,0,0,1.377-.778V-5.617a1.412,1.412,0,0,0-1.362-.748,1.293,1.293,0,0,0-1.135.594A3.432,3.432,0,0,0,44.729-3.885ZM56.162-.806a2.654,2.654,0,0,1-2.168.952A2.5,2.5,0,0,1,52.05-.586a3.127,3.127,0,0,1-.685-2.146V-7.925h2.117V-2.8q0,1.239,1.128,1.239a1.528,1.528,0,0,0,1.479-.748V-7.925h2.124V0H56.221ZM62.043,0H59.919V-7.925h2.124ZM59.795-9.976a1.042,1.042,0,0,1,.319-.784,1.2,1.2,0,0,1,.868-.308,1.2,1.2,0,0,1,.864.308,1.036,1.036,0,0,1,.322.784,1.039,1.039,0,0,1-.326.791,1.2,1.2,0,0,1-.861.308,1.2,1.2,0,0,1-.861-.308A1.039,1.039,0,0,1,59.795-9.976ZM67.434.146A3.89,3.89,0,0,1,64.6-.923,3.8,3.8,0,0,1,63.5-3.772v-.205a4.787,4.787,0,0,1,.461-2.135,3.386,3.386,0,0,1,1.307-1.45,3.669,3.669,0,0,1,1.93-.509,3.289,3.289,0,0,1,2.56,1.025,4.167,4.167,0,0,1,.934,2.908v.864H65.647a1.966,1.966,0,0,0,.619,1.245,1.871,1.871,0,0,0,1.307.469,2.285,2.285,0,0,0,1.912-.886l1.04,1.165A3.178,3.178,0,0,1,69.236-.231,4.229,4.229,0,0,1,67.434.146Zm-.242-6.511a1.323,1.323,0,0,0-1.022.427,2.209,2.209,0,0,0-.5,1.221h2.944v-.169a1.576,1.576,0,0,0-.381-1.092A1.365,1.365,0,0,0,67.192-6.365Zm6.65-1.56.066.916a2.767,2.767,0,0,1,2.278-1.062,2.3,2.3,0,0,1,1.875.74,3.451,3.451,0,0,1,.63,2.212V0H76.575V-5.068a1.373,1.373,0,0,0-.293-.978,1.312,1.312,0,0,0-.974-.3,1.456,1.456,0,0,0-1.34.762V0H71.851V-7.925ZM83.943.146A3.89,3.89,0,0,1,81.1-.923,3.8,3.8,0,0,1,80.01-3.772v-.205a4.787,4.787,0,0,1,.461-2.135,3.386,3.386,0,0,1,1.307-1.45,3.669,3.669,0,0,1,1.93-.509,3.289,3.289,0,0,1,2.56,1.025A4.167,4.167,0,0,1,87.2-4.138v.864H82.156a1.966,1.966,0,0,0,.619,1.245,1.871,1.871,0,0,0,1.307.469,2.285,2.285,0,0,0,1.912-.886l1.04,1.165A3.178,3.178,0,0,1,85.745-.231,4.229,4.229,0,0,1,83.943.146ZM83.7-6.365a1.323,1.323,0,0,0-1.022.427,2.209,2.209,0,0,0-.5,1.221h2.944v-.169a1.576,1.576,0,0,0-.381-1.092A1.365,1.365,0,0,0,83.7-6.365ZM92.7-2.19a.682.682,0,0,0-.385-.612,4.368,4.368,0,0,0-1.234-.4Q88.25-3.794,88.25-5.6a2.178,2.178,0,0,1,.875-1.761,3.531,3.531,0,0,1,2.289-.707,3.8,3.8,0,0,1,2.413.71,2.239,2.239,0,0,1,.9,1.846H92.615a1.024,1.024,0,0,0-.293-.751,1.24,1.24,0,0,0-.916-.3,1.267,1.267,0,0,0-.828.242.763.763,0,0,0-.293.615.652.652,0,0,0,.333.568,3.428,3.428,0,0,0,1.124.374,9.183,9.183,0,0,1,1.333.355,2.19,2.19,0,0,1,1.677,2.131,2.067,2.067,0,0,1-.93,1.754,4.013,4.013,0,0,1-2.4.67,4.191,4.191,0,0,1-1.769-.355,2.968,2.968,0,0,1-1.212-.974A2.263,2.263,0,0,1,88-2.52h2.007a1.105,1.105,0,0,0,.417.864,1.656,1.656,0,0,0,1.04.3,1.533,1.533,0,0,0,.919-.231A.718.718,0,0,0,92.7-2.19Zm5.149-1.077A4.406,4.406,0,0,1,98.093-4.9a3.354,3.354,0,0,1,.912-1.2,4.662,4.662,0,0,0,.883-.961,1.508,1.508,0,0,0,.22-.781q0-1.24-1.143-1.24a1.157,1.157,0,0,0-.868.334,1.312,1.312,0,0,0-.341.921H95.632a2.825,2.825,0,0,1,.9-2.192,3.522,3.522,0,0,1,2.428-.792,3.537,3.537,0,0,1,2.41.751,2.673,2.673,0,0,1,.857,2.122,2.584,2.584,0,0,1-.278,1.177,4.848,4.848,0,0,1-.974,1.228l-.593.565a2.011,2.011,0,0,0-.637,1.254l-.029.447Zm-.212,2.245a1.066,1.066,0,0,1,.333-.807,1.187,1.187,0,0,1,.853-.318,1.187,1.187,0,0,1,.853.318,1.066,1.066,0,0,1,.333.807,1.058,1.058,0,0,1-.326.8,1.188,1.188,0,0,1-.861.314,1.188,1.188,0,0,1-.861-.314A1.058,1.058,0,0,1,97.632-1.022Z" transform="translate(48.424 131.375)" fill="#12263f"/>
        <g id="VbkOi2" transform="translate(877.416 -910.929)">
          <g id="Grupo_149844" data-name="Grupo 149844" transform="translate(-810.249 959.719)">
            <path id="Trazado_188223" data-name="Trazado 188223" d="M-782.722,959.719a1.177,1.177,0,0,1,.675,1.279c-.034.431-.007.866-.007,1.281.935-.165,1.848-.338,2.767-.484a25.6,25.6,0,0,1,4.363-.2,23.61,23.61,0,0,1,9.757,2.072,19.608,19.608,0,0,1,8.5,7.505,23.989,23.989,0,0,1,3.1,7.774.935.935,0,0,1-1.229,1.108c-.678-.2-1.361-.388-2.043-.576a1.408,1.408,0,0,0-.33-.035c-.694-.019-.764.051-.524.715a17,17,0,0,1,.927,4.177c.054.564.08,1.13.119,1.7a7.923,7.923,0,0,1,.95-.066,2.686,2.686,0,0,1,2.375,1.771,6.85,6.85,0,0,1,.576,3.15,12.232,12.232,0,0,1-1.51,5.636,5.85,5.85,0,0,1-2.581,2.7,1.484,1.484,0,0,0-.85,1.01,32.874,32.874,0,0,1-6.123,10.807,20.494,20.494,0,0,1-7.7,5.817,13.126,13.126,0,0,1-6.417.984,14.952,14.952,0,0,1-6.738-2.5,25.417,25.417,0,0,1-7.152-7.375,33.729,33.729,0,0,1-3.936-8.125.684.684,0,0,0-.431-.481,5.709,5.709,0,0,1-2.774-2.683,11.982,11.982,0,0,1-1.6-6.382,5.476,5.476,0,0,1,.829-2.979,3.492,3.492,0,0,1,1.543-1.283h-.417q-3.492,0-6.984,0a4.738,4.738,0,0,1-4.439-3.242,4.711,4.711,0,0,1,4.488-6.172c.288,0,.576,0,.922,0,0-.552,0-1.08,0-1.608q0-3.979-.009-7.959c0-2.086,0-4.172-.005-6.259a1.078,1.078,0,0,1,.714-1.085Zm-12.164,26.325c0,.949.009,1.839,0,2.729a.94.94,0,0,1-.951.953.944.944,0,0,1-.922-.978c0-.156.01-.312,0-.468a.344.344,0,0,0-.071-.207.784.784,0,0,0-1.217.1,4.322,4.322,0,0,0-.5,1.253,8.506,8.506,0,0,0,.3,4.111,7.713,7.713,0,0,0,1.842,3.423,2.416,2.416,0,0,0,1.137.694,1.222,1.222,0,0,1,1.122,1,4.282,4.282,0,0,0,.128.412,31.08,31.08,0,0,0,6.164,11.032,18.571,18.571,0,0,0,6.3,4.837,11.665,11.665,0,0,0,5.964,1.045,12.725,12.725,0,0,0,5.4-1.843,21.731,21.731,0,0,0,6.328-5.991,32.386,32.386,0,0,0,4.79-9.681,1.064,1.064,0,0,1,.894-.773,2.269,2.269,0,0,0,.924-.4,5.061,5.061,0,0,0,.984-1.075,9.9,9.9,0,0,0,1.642-5.8,4.2,4.2,0,0,0-.493-2.084c-.245-.422-.515-.554-.9-.466a.748.748,0,0,0-.7.829c0,.067,0,.135-.009.2a.923.923,0,0,1-.605.771.876.876,0,0,1-.957-.189,1.242,1.242,0,0,1-.292-1.145,19.793,19.793,0,0,0-.389-5.9c-.192-.807-.479-1.591-.662-2.4a1.941,1.941,0,0,1,1.133-2.25,3.489,3.489,0,0,1,1.8-.185c.28.034.558.083.871.13-.029-.124-.045-.21-.07-.293a22.391,22.391,0,0,0-1.539-3.854,17.736,17.736,0,0,0-11.506-9.314,23.3,23.3,0,0,0-5.129-.761,25.162,25.162,0,0,0-7.672.675c-.264.07-.321.172-.321.423q.011,5.647,0,11.294a.443.443,0,0,0,.329.481,28.875,28.875,0,0,0,11.323,2.393,1.228,1.228,0,0,1,.646.2.857.857,0,0,1,.295,1.04.887.887,0,0,1-.884.627,30.2,30.2,0,0,1-4.813-.394A29.106,29.106,0,0,1-780.128,979c-.635-.221-1.264-.458-1.927-.7v.382c0,.936.016,1.871,0,2.807a4.44,4.44,0,0,1-.956,2.683,4.721,4.721,0,0,1-3.941,1.872q-3.776,0-7.551,0Zm-7.824-9.415h15.7a2.983,2.983,0,0,1,.334.005.989.989,0,0,1,.871.942.953.953,0,0,1-.939.931c-.144.006-.286.033-.43.051a2.818,2.818,0,0,0-2.338,3.366,2.8,2.8,0,0,0,2.919,2.225,2.81,2.81,0,0,0,2.665-2.878q0-9.654,0-19.308v-.351H-802.71Zm12.176,1.876h-.443q-7.184,0-14.368,0a5.126,5.126,0,0,0-.629.051,2.807,2.807,0,0,0-2.4,2.908,2.854,2.854,0,0,0,2.826,2.7h15.014A4.813,4.813,0,0,1-790.533,978.506Z" transform="translate(810.249 -959.719)" fill="#12263f"/>
            <path id="Trazado_188224" data-name="Trazado 188224" d="M-458.514,1383.553a1.852,1.852,0,0,1,1.96-1.855,1.887,1.887,0,0,1,1.79,1.905,1.877,1.877,0,0,1-1.956,1.838A1.856,1.856,0,0,1-458.514,1383.553Z" transform="translate(482.022 -1353.495)" fill="#12263f"/>
            <path id="Trazado_188225" data-name="Trazado 188225" d="M-191.382,1383.556a1.857,1.857,0,0,1,1.965-1.856,1.868,1.868,0,0,1,1.778,1.906,1.858,1.858,0,0,1-1.949,1.839A1.865,1.865,0,0,1-191.382,1383.556Z" transform="translate(232.744 -1353.497)" fill="#12263f"/>
            <path id="Trazado_188226" data-name="Trazado 188226" d="M-164.132,1244.639c.489,0,.978-.006,1.467,0a.919.919,0,0,1,.941.949.916.916,0,0,1-.937.919q-1.517.012-3.034,0a.919.919,0,0,1-.924-.968.921.921,0,0,1,.92-.9c.522-.012,1.045,0,1.567,0Z" transform="translate(209.635 -1225.591)" fill="#12263f"/>
            <path id="Trazado_188227" data-name="Trazado 188227" d="M-250.82,1047.711a.948.948,0,0,1,.928,1.039c-.088.625-.2,1.247-.317,1.867a.94.94,0,0,1-1.076.763.964.964,0,0,1-.764-1.112c.1-.6.194-1.2.3-1.8A.924.924,0,0,1-250.82,1047.711Z" transform="translate(289.37 -1041.83)" fill="#12263f"/>
            <path id="Trazado_188228" data-name="Trazado 188228" d="M-321.158,1046.626a2.58,2.58,0,0,1-.072.556.924.924,0,0,1-.877.6.919.919,0,0,1-.879-.692,5.974,5.974,0,0,1-.1-.826c-.037-.421-.09-.842-.093-1.264a.931.931,0,0,1,.912-.922.94.94,0,0,1,.951.879C-321.265,1045.493-321.214,1046.024-321.158,1046.626Z" transform="translate(355.729 -1038.444)" fill="#12263f"/>
            <path id="Trazado_188229" data-name="Trazado 188229" d="M-184.583,1072.621a.89.89,0,0,1,.825,1.213c-.226.611-.489,1.21-.765,1.8a.924.924,0,0,1-1.194.422.9.9,0,0,1-.509-1.179c.235-.585.478-1.167.745-1.737A.875.875,0,0,1-184.583,1072.621Z" transform="translate(227.997 -1065.075)" fill="#12263f"/>
            <path id="Trazado_188230" data-name="Trazado 188230" d="M-126.138,1115.444a1.139,1.139,0,0,1,.855.569.831.831,0,0,1-.04.939c-.382.53-.779,1.051-1.2,1.552a.907.907,0,0,1-1.261.07.92.92,0,0,1-.2-1.227,18.714,18.714,0,0,1,1.169-1.49A2.7,2.7,0,0,1-126.138,1115.444Z" transform="translate(173.725 -1105.036)" fill="#12263f"/>
            <path id="Trazado_188231" data-name="Trazado 188231" d="M-663.108,1049.111l3.336-3.337c-.447,0-.883.008-1.318,0-.66-.015-1.077-.388-1.068-.941a.982.982,0,0,1,1.078-.944q1.751-.01,3.5,0a.984.984,0,0,1,1.077,1.078q.007,1.768,0,3.535a.954.954,0,0,1-.562.943.808.808,0,0,1-1.008-.172,1.5,1.5,0,0,1-.307-.771,12.665,12.665,0,0,1-.013-1.376c-.1.091-.175.15-.241.216l-3.686,3.685a.958.958,0,0,1-1.556-.009c-.666-.672-1.33-1.345-2.015-2.037-.107.1-.2.181-.28.264-.623.621-1.24,1.249-1.869,1.864a.91.91,0,0,1-1.363.015.931.931,0,0,1,.038-1.345q1.362-1.378,2.74-2.741a.956.956,0,0,1,1.448.016c.618.61,1.229,1.228,1.844,1.842C-663.255,1048.974-663.174,1049.048-663.108,1049.111Z" transform="translate(679.068 -1038.258)" fill="#12263f"/>
          </g>
        </g>
      </g>
      <path id="Trazado_194451" data-name="Trazado 194451" d="M8.43-4.7a5.762,5.762,0,0,1-.977,3.609A3.409,3.409,0,0,1,4.594.156,3.433,3.433,0,0,1,1.75-1.07,5.594,5.594,0,0,1,.742-4.586V-6.68A5.687,5.687,0,0,1,1.73-10.3a3.434,3.434,0,0,1,2.848-1.234,3.437,3.437,0,0,1,2.844,1.223A5.576,5.576,0,0,1,8.43-6.8Zm-2.258-2.3a4.165,4.165,0,0,0-.387-2.061,1.307,1.307,0,0,0-1.207-.645A1.284,1.284,0,0,0,3.4-9.1,3.9,3.9,0,0,0,3-7.177v2.768a4.372,4.372,0,0,0,.379,2.068,1.29,1.29,0,0,0,1.215.676,1.268,1.268,0,0,0,1.2-.649A4.268,4.268,0,0,0,6.172-4.3ZM16.633-4.281h1.289v1.82H16.633V0H14.375V-2.461H9.711l-.1-1.422,4.742-7.492h2.281Zm-4.773,0h2.516V-8.3l-.148.258Z" transform="translate(907.667 2117)" fill="#fff"/>
    </g>
  </g>
</svg>
