<svg xmlns="http://www.w3.org/2000/svg" xmlns:xlink="http://www.w3.org/1999/xlink" width="166" height="140" viewBox="0 0 166 140">
  <defs>
    <filter id="Rect치ngulo_37330" x="0" y="0" width="166" height="140" filterUnits="userSpaceOnUse">
      <feOffset dy="3" input="SourceAlpha"/>
      <feGaussianBlur stdDeviation="3" result="blur"/>
      <feFlood flood-opacity="0.161"/>
      <feComposite operator="in" in2="blur"/>
      <feComposite in="SourceGraphic"/>
    </filter>
    <linearGradient id="linear-gradient" x1="0.5" x2="0.5" y2="1" gradientUnits="objectBoundingBox">
      <stop offset="0" stop-color="#4dd0e1"/>
      <stop offset="1" stop-color="#039be5"/>
    </linearGradient>
  </defs>
  <g id="Grupo_152022" data-name="Grupo 152022" transform="translate(-876.676 -1914)">
    <g transform="matrix(1, 0, 0, 1, 876.68, 1914)" filter="url(#Rect치ngulo_37330)">
      <rect id="Rect치ngulo_37330-2" data-name="Rect치ngulo 37330" width="148" height="122" rx="10" transform="translate(9 6)" fill="#fff"/>
    </g>
    <path id="Trazado_194457" data-name="Trazado 194457" d="M23.238,12.992V17H20.895V5.625h4.438a5.134,5.134,0,0,1,2.254.469,3.454,3.454,0,0,1,1.5,1.332,3.714,3.714,0,0,1,.523,1.965,3.266,3.266,0,0,1-1.145,2.637,4.767,4.767,0,0,1-3.168.965Zm0-1.9h2.094a2.059,2.059,0,0,0,1.418-.437,1.591,1.591,0,0,0,.488-1.25,1.876,1.876,0,0,0-.492-1.352,1.839,1.839,0,0,0-1.359-.531H23.238Zm12.891,5.047a2.831,2.831,0,0,1-2.312,1.016,2.67,2.67,0,0,1-2.074-.781,3.335,3.335,0,0,1-.73-2.289V8.547H33.27v5.467q0,1.322,1.2,1.322a1.63,1.63,0,0,0,1.578-.8V8.547h2.266V17H36.191Zm7.781,1.016a4.15,4.15,0,0,1-3.027-1.141,4.054,4.054,0,0,1-1.168-3.039v-.219a5.106,5.106,0,0,1,.492-2.277A3.612,3.612,0,0,1,41.6,8.934a3.914,3.914,0,0,1,2.059-.543,3.508,3.508,0,0,1,2.73,1.094,4.444,4.444,0,0,1,1,3.1v.922H42a2.1,2.1,0,0,0,.66,1.328,2,2,0,0,0,1.395.5,2.437,2.437,0,0,0,2.039-.945l1.109,1.242a3.389,3.389,0,0,1-1.375,1.121A4.511,4.511,0,0,1,43.91,17.156Zm-.258-6.945a1.411,1.411,0,0,0-1.09.455,2.357,2.357,0,0,0-.535,1.3h3.141v-.181a1.681,1.681,0,0,0-.406-1.165A1.456,1.456,0,0,0,43.652,10.211Zm9.766.453a6.134,6.134,0,0,0-.812-.062,1.654,1.654,0,0,0-1.68.867V17H48.668V8.547H50.8l.063,1.008a2.092,2.092,0,0,1,1.883-1.164,2.366,2.366,0,0,1,.7.1Zm4.18-4.2V8.547h1.445V10.2H57.6v4.219a1.007,1.007,0,0,0,.18.672.9.9,0,0,0,.688.2,3.6,3.6,0,0,0,.664-.055v1.711a4.648,4.648,0,0,1-1.367.2,2.156,2.156,0,0,1-2.422-2.4V10.2H54.105V8.547H55.34V6.469ZM59.715,12.7a5.013,5.013,0,0,1,.484-2.242A3.546,3.546,0,0,1,61.594,8.93a4.069,4.069,0,0,1,2.113-.539A3.849,3.849,0,0,1,66.5,9.438a4.2,4.2,0,0,1,1.207,2.844l.016.578a4.418,4.418,0,0,1-1.086,3.121,4.209,4.209,0,0,1-5.832,0,4.5,4.5,0,0,1-1.09-3.187Zm2.258.16a3.16,3.16,0,0,0,.453,1.843A1.628,1.628,0,0,0,65,14.706a3.457,3.457,0,0,0,.461-2.015A3.128,3.128,0,0,0,65,10.86a1.5,1.5,0,0,0-1.3-.649,1.474,1.474,0,0,0-1.281.646A3.516,3.516,0,0,0,61.973,12.856Zm11.719,1.808a.727.727,0,0,0-.41-.652,4.659,4.659,0,0,0-1.316-.426q-3.016-.633-3.016-2.562a2.323,2.323,0,0,1,.934-1.879,3.766,3.766,0,0,1,2.441-.754,4.053,4.053,0,0,1,2.574.758,2.388,2.388,0,0,1,.965,1.969H73.605a1.092,1.092,0,0,0-.312-.8A1.322,1.322,0,0,0,72.316,10a1.351,1.351,0,0,0-.883.258.814.814,0,0,0-.312.656.7.7,0,0,0,.355.605,3.657,3.657,0,0,0,1.2.4A9.8,9.8,0,0,1,74.1,12.3a2.336,2.336,0,0,1,1.789,2.273,2.2,2.2,0,0,1-.992,1.871,4.28,4.28,0,0,1-2.562.715,4.47,4.47,0,0,1-1.887-.379,3.166,3.166,0,0,1-1.293-1.039,2.414,2.414,0,0,1-.469-1.426h2.141a1.179,1.179,0,0,0,.445.922,1.766,1.766,0,0,0,1.109.32,1.635,1.635,0,0,0,.98-.246A.766.766,0,0,0,73.691,14.664Zm7.281-1.953a5.094,5.094,0,0,1,.887-3.148,2.877,2.877,0,0,1,2.426-1.172,2.589,2.589,0,0,1,2.039.922V5H88.59V17H86.551l-.109-.9a2.657,2.657,0,0,1-2.172,1.055,2.869,2.869,0,0,1-2.395-1.176A5.258,5.258,0,0,1,80.973,12.711Zm2.258.168a3.337,3.337,0,0,0,.414,1.823,1.349,1.349,0,0,0,1.2.634,1.511,1.511,0,0,0,1.477-.884V11.111a1.489,1.489,0,0,0-1.461-.884Q83.23,10.227,83.23,12.879Zm11,4.277A4.15,4.15,0,0,1,91.2,16.016a4.054,4.054,0,0,1-1.168-3.039v-.219a5.106,5.106,0,0,1,.492-2.277,3.612,3.612,0,0,1,1.395-1.547,3.914,3.914,0,0,1,2.059-.543,3.508,3.508,0,0,1,2.73,1.094,4.444,4.444,0,0,1,1,3.1v.922H92.324a2.1,2.1,0,0,0,.66,1.328,2,2,0,0,0,1.395.5,2.437,2.437,0,0,0,2.039-.945l1.109,1.242a3.389,3.389,0,0,1-1.375,1.121A4.511,4.511,0,0,1,94.23,17.156Zm-.258-6.945a1.411,1.411,0,0,0-1.09.455,2.357,2.357,0,0,0-.535,1.3h3.141v-.181a1.681,1.681,0,0,0-.406-1.165A1.456,1.456,0,0,0,93.973,10.211ZM12.926,33.336a1.481,1.481,0,0,0,1.016-.344,1.2,1.2,0,0,0,.406-.914h2.117A2.9,2.9,0,0,1,16,33.652a3.093,3.093,0,0,1-1.262,1.109,3.949,3.949,0,0,1-1.77.395A3.67,3.67,0,0,1,10.105,34,4.56,4.56,0,0,1,9.059,30.82v-.148A4.508,4.508,0,0,1,10.1,27.555a3.627,3.627,0,0,1,2.852-1.164,3.555,3.555,0,0,1,2.543.9,3.2,3.2,0,0,1,.973,2.4H14.348a1.551,1.551,0,0,0-.406-1.072,1.354,1.354,0,0,0-1.031-.412,1.36,1.36,0,0,0-1.191.575,3.333,3.333,0,0,0-.4,1.866v.235a3.375,3.375,0,0,0,.4,1.878A1.377,1.377,0,0,0,12.926,33.336ZM17.4,30.7a5.013,5.013,0,0,1,.484-2.242,3.546,3.546,0,0,1,1.395-1.523,4.069,4.069,0,0,1,2.113-.539,3.849,3.849,0,0,1,2.793,1.047,4.2,4.2,0,0,1,1.207,2.844l.016.578a4.418,4.418,0,0,1-1.086,3.121,3.775,3.775,0,0,1-2.914,1.176,3.793,3.793,0,0,1-2.918-1.172A4.5,4.5,0,0,1,17.4,30.8Zm2.258.16a3.16,3.16,0,0,0,.453,1.843,1.628,1.628,0,0,0,2.578.008,3.457,3.457,0,0,0,.461-2.015,3.128,3.128,0,0,0-.461-1.831,1.5,1.5,0,0,0-1.3-.649,1.474,1.474,0,0,0-1.281.646A3.516,3.516,0,0,0,19.66,30.856Zm9.258-4.309.07.945a2.971,2.971,0,0,1,2.43-1.1A2.255,2.255,0,0,1,33.66,27.68,2.9,2.9,0,0,1,36.2,26.391a2.521,2.521,0,0,1,2.047.8,3.681,3.681,0,0,1,.672,2.41V35H36.652V29.609a1.61,1.61,0,0,0-.281-1.051,1.246,1.246,0,0,0-.992-.332,1.409,1.409,0,0,0-1.406.969L33.98,35H31.723V29.617a1.59,1.59,0,0,0-.289-1.062,1.259,1.259,0,0,0-.984-.328,1.463,1.463,0,0,0-1.391.8V35H26.8V26.547Zm16.8,7.594A2.831,2.831,0,0,1,43.4,35.156a2.67,2.67,0,0,1-2.074-.781,3.335,3.335,0,0,1-.73-2.289V26.547h2.258v5.467q0,1.322,1.2,1.322a1.63,1.63,0,0,0,1.578-.8V26.547H47.9V35H45.777Zm5.969-7.594.07.977a2.951,2.951,0,0,1,2.43-1.133,2.453,2.453,0,0,1,2,.789,3.682,3.682,0,0,1,.672,2.359V35H54.6V29.594a1.465,1.465,0,0,0-.312-1.043,1.4,1.4,0,0,0-1.039-.324,1.553,1.553,0,0,0-1.43.813V35H49.559V26.547ZM60.949,35H58.684V26.547h2.266Zm-2.4-10.641a1.112,1.112,0,0,1,.34-.836,1.465,1.465,0,0,1,1.848,0,1.193,1.193,0,0,1,0,1.68,1.448,1.448,0,0,1-1.836,0A1.108,1.108,0,0,1,58.551,24.359Zm7.773,8.977a1.481,1.481,0,0,0,1.016-.344,1.2,1.2,0,0,0,.406-.914h2.117a2.9,2.9,0,0,1-.469,1.574,3.093,3.093,0,0,1-1.262,1.109,3.949,3.949,0,0,1-1.77.395A3.67,3.67,0,0,1,63.5,34a4.56,4.56,0,0,1-1.047-3.184v-.148A4.508,4.508,0,0,1,63.5,27.555a3.627,3.627,0,0,1,2.852-1.164,3.555,3.555,0,0,1,2.543.9,3.2,3.2,0,0,1,.973,2.4H67.746a1.551,1.551,0,0,0-.406-1.072,1.51,1.51,0,0,0-2.223.163,3.333,3.333,0,0,0-.4,1.866v.235a3.375,3.375,0,0,0,.4,1.878A1.377,1.377,0,0,0,66.324,33.336ZM76.051,35a2.507,2.507,0,0,1-.227-.758,2.732,2.732,0,0,1-2.133.914,3,3,0,0,1-2.059-.719,2.312,2.312,0,0,1-.816-1.812,2.389,2.389,0,0,1,1-2.062,4.915,4.915,0,0,1,2.879-.727H75.73v-.484a1.393,1.393,0,0,0-.3-.937,1.183,1.183,0,0,0-.949-.352,1.345,1.345,0,0,0-.895.273.929.929,0,0,0-.324.75H71a2.268,2.268,0,0,1,.453-1.359,3,3,0,0,1,1.281-.98,4.669,4.669,0,0,1,1.859-.355,3.689,3.689,0,0,1,2.48.785A2.747,2.747,0,0,1,78,29.383v3.664a4.041,4.041,0,0,0,.336,1.82V35Zm-1.867-1.57a1.945,1.945,0,0,0,.922-.223,1.462,1.462,0,0,0,.625-.6V31.156h-.844q-1.7,0-1.8,1.172l-.008.133a.9.9,0,0,0,.3.7A1.153,1.153,0,0,0,74.184,33.43Zm9.063-.094a1.481,1.481,0,0,0,1.016-.344,1.2,1.2,0,0,0,.406-.914h2.117a2.9,2.9,0,0,1-.469,1.574,3.093,3.093,0,0,1-1.262,1.109,3.949,3.949,0,0,1-1.77.395A3.67,3.67,0,0,1,80.426,34a4.56,4.56,0,0,1-1.047-3.184v-.148a4.508,4.508,0,0,1,1.039-3.117,3.627,3.627,0,0,1,2.852-1.164,3.555,3.555,0,0,1,2.543.9,3.2,3.2,0,0,1,.973,2.4H84.668a1.551,1.551,0,0,0-.406-1.072,1.51,1.51,0,0,0-2.223.163,3.333,3.333,0,0,0-.4,1.866v.235a3.375,3.375,0,0,0,.4,1.878A1.377,1.377,0,0,0,83.246,33.336ZM90.457,35H88.191V26.547h2.266Zm-2.4-10.641a1.112,1.112,0,0,1,.34-.836,1.465,1.465,0,0,1,1.848,0,1.193,1.193,0,0,1,0,1.68,1.448,1.448,0,0,1-1.836,0A1.108,1.108,0,0,1,88.059,24.359ZM91.965,30.7a5.013,5.013,0,0,1,.484-2.242,3.546,3.546,0,0,1,1.395-1.523,4.069,4.069,0,0,1,2.113-.539,3.849,3.849,0,0,1,2.793,1.047,4.2,4.2,0,0,1,1.207,2.844l.016.578a4.418,4.418,0,0,1-1.086,3.121,4.209,4.209,0,0,1-5.832,0,4.5,4.5,0,0,1-1.09-3.187Zm2.258.16a3.16,3.16,0,0,0,.453,1.843,1.628,1.628,0,0,0,2.578.008,3.457,3.457,0,0,0,.461-2.015,3.128,3.128,0,0,0-.461-1.831,1.5,1.5,0,0,0-1.3-.649,1.474,1.474,0,0,0-1.281.646A3.516,3.516,0,0,0,94.223,30.856ZM96.4,23h2.461L96.7,25.422H94.863Zm7.039,3.547.07.977a2.951,2.951,0,0,1,2.43-1.133,2.453,2.453,0,0,1,2,.789,3.682,3.682,0,0,1,.672,2.359V35h-2.258V29.594a1.465,1.465,0,0,0-.312-1.043A1.4,1.4,0,0,0,105,28.227a1.553,1.553,0,0,0-1.43.813V35h-2.258V26.547Z" transform="translate(897.676 1996)" fill="#12263f"/>
    <g id="Grupo_142470" data-name="Grupo 142470" transform="translate(928.875 1931.463)">
      <ellipse id="Elipse_4871" data-name="Elipse 4871" cx="28.5" cy="29" rx="28.5" ry="29" transform="translate(-0.199 -0.463)" fill="url(#linear-gradient)"/>
      <g id="bbmYRn" transform="translate(12.99 13.733)">
        <g id="Grupo_142371" data-name="Grupo 142371" transform="translate(0 0)">
          <path id="Trazado_183509" data-name="Trazado 183509" d="M3553.454-884.28h-1.347v-1.011q0-13.777,0-27.553c0-1.393.23-1.638,1.592-1.638q13.776-.006,27.553,0c1.331,0,1.6.2,1.6,1.289q.016,11.764,0,23.529c0,.168-.035.336-.062.573h-1.2v-1.224c0-5.848-.016-11.7.018-17.543.005-.858-.253-1.116-1.107-1.114q-13,.039-26.005,0c-.9,0-1.068.324-1.065,1.139.027,7.43.016,14.86.016,22.29Zm28.049-28.8h-27.96v2.856h25.642C3581.852-910.223,3581.852-910.223,3581.5-913.08Z" transform="translate(-3552.107 914.486)" fill="#12263f"/>
          <path id="Trazado_183510" data-name="Trazado 183510" d="M3611.518-857.9l.826.746c.9-1.1,1.559-.522,2.274.236q1.734,1.839,3.575,3.575c.726.685.713,1.246-.028,1.876a11.6,11.6,0,0,0-1.095,1.093c-.661.735-1.257.646-1.913-.035q-1.826-1.894-3.72-3.722c-.682-.654-.954-1.268.06-2.121l-1.012-.748a8.783,8.783,0,0,1-12.44-1.812,8.645,8.645,0,0,1,1.066-11.284,8.655,8.655,0,0,1,11.406-.464C3614.263-867.548,3614.638-863.136,3611.518-857.9Zm-6.4-13.261a7.314,7.314,0,0,0-7.363,7.3,7.372,7.372,0,0,0,7.332,7.357,7.441,7.441,0,0,0,7.341-7.274A7.38,7.38,0,0,0,3605.114-871.162Zm11.121,19.737.783-.819-3.634-3.8-.97.788Z" transform="translate(-3587.283 881.152)" fill="#12263f"/>
          <path id="Trazado_183511" data-name="Trazado 183511" d="M3571.694-878.9v6h2.809v1.323h-4.15v-8.659h22.742c0,1.269.049,2.566-.047,3.852-.017.221-.655.4-1.247.726V-878.9Z" transform="translate(-3566.587 887.308)" fill="#12263f"/>
          <path id="Trazado_183512" data-name="Trazado 183512" d="M3570.5-828.42h4.15v1.3h-2.831v3.775h4.866l.06,1.29H3570.5Z" transform="translate(-3566.705 846.184)" fill="#12263f"/>
          <path id="Trazado_183513" data-name="Trazado 183513" d="M3570.291-903.342V-904.5h1.7v1.159Z" transform="translate(-3566.538 906.562)" fill="#12263f"/>
          <path id="Trazado_183514" data-name="Trazado 183514" d="M3587.1-904.4v1.128l-1.661.1V-904.4Z" transform="translate(-3578.561 906.485)" fill="#12263f"/>
          <path id="Trazado_183515" data-name="Trazado 183515" d="M3600.427-903.3v-1.134h1.676c.02.336.041.692.068,1.134Z" transform="translate(-3590.453 906.511)" fill="#12263f"/>
          <path id="Trazado_183516" data-name="Trazado 183516" d="M3624.574-838.529l-2.407-2.361.907-.876,1.573,1.5,3.207-3.316.965,1.083Z" transform="translate(-3607.707 858.215)" fill="#12263f"/>
        </g>
      </g>
    </g>
  </g>
</svg>
