<svg xmlns="http://www.w3.org/2000/svg" xmlns:xlink="http://www.w3.org/1999/xlink" width="240.735" height="240.735" viewBox="0 0 240.735 240.735">
  <defs>
    <linearGradient id="linear-gradient" x1="0.317" y1="0.321" x2="0.831" y2="0.824" gradientUnits="objectBoundingBox">
      <stop offset="0" stop-color="#fff"/>
      <stop offset="0.231" stop-color="#f7f7f6"/>
      <stop offset="0.589" stop-color="#e1e1e1"/>
      <stop offset="1" stop-color="#c1c1c0"/>
    </linearGradient>
    <linearGradient id="linear-gradient-2" x1="0.495" y1="0.493" x2="0.182" y2="0.091" gradientUnits="objectBoundingBox">
      <stop offset="0" stop-color="#fff"/>
      <stop offset="0.38" stop-color="#f7f7f7"/>
      <stop offset="0.968" stop-color="#e1e2e4"/>
      <stop offset="0.994" stop-color="#e0e1e3"/>
    </linearGradient>
  </defs>
  <g id="Grupo_152013" data-name="Grupo 152013" transform="translate(-781.402 -1247.57)">
    <g id="Grupo_149863" data-name="Grupo 149863" transform="translate(101.77 -742.98)">
      <circle id="Elipse_5009" data-name="Elipse 5009" cx="85.113" cy="85.113" r="85.113" transform="translate(679.633 2110.918) rotate(-45)" fill="#2a81a5"/>
      <path id="Trazado_188206" data-name="Trazado 188206" d="M1271.36,429.366l-10.083-10.037-7.237-7.2a2.864,2.864,0,0,0-4.885,2.03V424.72a85.113,85.113,0,0,0-85.112,85.113q0,3.365.258,6.666a85.119,85.119,0,0,1,84.854-78.446v10.584a2.864,2.864,0,0,0,4.885,2.03l7.237-7.2,10.083-10.037A2.865,2.865,0,0,0,1271.36,429.366Z" transform="translate(-449.155 1588.683)" fill="#12263f"/>
      <circle id="Elipse_5010" data-name="Elipse 5010" cx="14.85" cy="14.85" r="14.85" transform="matrix(0.16, -0.987, 0.987, 0.16, 697.851, 2123.199)" fill="#12263f"/>
      <g id="Grupo_149831" data-name="Grupo 149831" transform="translate(732.771 2043.506)" opacity="0.6" style="mix-blend-mode: multiply;isolation: isolate">
        <path id="Trazado_187857" data-name="Trazado 187857" d="M1337.838,720.613a67.261,67.261,0,1,1,67.26-67.262A67.338,67.338,0,0,1,1337.838,720.613Z" transform="translate(-1238.943 -548.382)" fill="#fff" opacity="0"/>
        <path id="Trazado_187858" data-name="Trazado 187858" d="M1337.164,719.809a67.261,67.261,0,1,1,67.26-67.262A67.337,67.337,0,0,1,1337.164,719.809Z" transform="translate(-1238.583 -547.951)" fill="#f9f9f9" opacity="0.01"/>
        <path id="Trazado_187859" data-name="Trazado 187859" d="M1336.49,719.006a67.261,67.261,0,1,1,67.26-67.262A67.338,67.338,0,0,1,1336.49,719.006Z" transform="translate(-1238.222 -547.522)" fill="#f4f3f3" opacity="0.02"/>
        <path id="Trazado_187860" data-name="Trazado 187860" d="M1335.817,718.2a67.261,67.261,0,1,1,67.26-67.262A67.338,67.338,0,0,1,1335.817,718.2Z" transform="translate(-1237.861 -547.092)" fill="#f0efef" opacity="0.03"/>
        <path id="Trazado_187861" data-name="Trazado 187861" d="M1335.143,717.4a67.261,67.261,0,1,1,67.26-67.262A67.338,67.338,0,0,1,1335.143,717.4Z" transform="translate(-1237.5 -546.662)" fill="#ecebeb" opacity="0.04"/>
        <path id="Trazado_187862" data-name="Trazado 187862" d="M1334.469,716.6a67.261,67.261,0,1,1,67.26-67.262A67.338,67.338,0,0,1,1334.469,716.6Z" transform="translate(-1237.14 -546.232)" fill="#e9e7e7" opacity="0.05"/>
        <path id="Trazado_187863" data-name="Trazado 187863" d="M1333.795,715.793a67.261,67.261,0,1,1,67.26-67.262A67.337,67.337,0,0,1,1333.795,715.793Z" transform="translate(-1236.78 -545.802)" fill="#e6e4e4" opacity="0.059"/>
        <path id="Trazado_187864" data-name="Trazado 187864" d="M1333.121,714.99a67.261,67.261,0,1,1,67.26-67.262A67.338,67.338,0,0,1,1333.121,714.99Z" transform="translate(-1236.419 -545.372)" fill="#e3e1e1" opacity="0.069"/>
        <path id="Trazado_187865" data-name="Trazado 187865" d="M1332.447,714.186a67.261,67.261,0,1,1,67.26-67.262A67.337,67.337,0,0,1,1332.447,714.186Z" transform="translate(-1236.058 -544.942)" fill="#e0dedd" opacity="0.079"/>
        <path id="Trazado_187866" data-name="Trazado 187866" d="M1331.774,713.383a67.261,67.261,0,1,1,67.26-67.262A67.338,67.338,0,0,1,1331.774,713.383Z" transform="translate(-1235.697 -544.512)" fill="#dddbdb" opacity="0.089"/>
        <path id="Trazado_187867" data-name="Trazado 187867" d="M1331.1,712.58a67.261,67.261,0,1,1,67.26-67.262A67.338,67.338,0,0,1,1331.1,712.58Z" transform="translate(-1235.337 -544.082)" fill="#dad8d8" opacity="0.099"/>
        <path id="Trazado_187868" data-name="Trazado 187868" d="M1330.426,711.777a67.261,67.261,0,1,1,67.26-67.262A67.338,67.338,0,0,1,1330.426,711.777Z" transform="translate(-1234.976 -543.653)" fill="#d8d5d5" opacity="0.109"/>
        <path id="Trazado_187869" data-name="Trazado 187869" d="M1329.752,710.973a67.261,67.261,0,1,1,67.26-67.262A67.338,67.338,0,0,1,1329.752,710.973Z" transform="translate(-1234.616 -543.222)" fill="#d5d2d2" opacity="0.119"/>
        <path id="Trazado_187870" data-name="Trazado 187870" d="M1329.078,710.17a67.261,67.261,0,1,1,67.26-67.262A67.337,67.337,0,0,1,1329.078,710.17Z" transform="translate(-1234.255 -542.793)" fill="#d2d0cf" opacity="0.129"/>
        <path id="Trazado_187871" data-name="Trazado 187871" d="M1328.4,709.367a67.261,67.261,0,1,1,67.26-67.262A67.338,67.338,0,0,1,1328.4,709.367Z" transform="translate(-1233.894 -542.363)" fill="#d0cdcd" opacity="0.139"/>
        <path id="Trazado_187872" data-name="Trazado 187872" d="M1327.73,708.563a67.261,67.261,0,1,1,67.26-67.261A67.338,67.338,0,0,1,1327.73,708.563Z" transform="translate(-1233.533 -541.932)" fill="#cdcbca" opacity="0.149"/>
        <path id="Trazado_187873" data-name="Trazado 187873" d="M1327.057,707.76a67.261,67.261,0,1,1,67.26-67.262A67.338,67.338,0,0,1,1327.057,707.76Z" transform="translate(-1233.173 -541.503)" fill="#cbc8c8" opacity="0.158"/>
        <path id="Trazado_187874" data-name="Trazado 187874" d="M1326.383,706.957a67.261,67.261,0,1,1,67.26-67.262A67.338,67.338,0,0,1,1326.383,706.957Z" transform="translate(-1232.812 -541.073)" fill="#c8c5c5" opacity="0.168"/>
        <path id="Trazado_187875" data-name="Trazado 187875" d="M1325.709,706.154a67.261,67.261,0,1,1,67.26-67.262A67.338,67.338,0,0,1,1325.709,706.154Z" transform="translate(-1232.452 -540.643)" fill="#c6c3c2" opacity="0.178"/>
        <path id="Trazado_187876" data-name="Trazado 187876" d="M1325.035,705.35a67.261,67.261,0,1,1,67.26-67.262A67.338,67.338,0,0,1,1325.035,705.35Z" transform="translate(-1232.091 -540.213)" fill="#c3c0c0" opacity="0.188"/>
        <path id="Trazado_187877" data-name="Trazado 187877" d="M1324.361,704.547a67.261,67.261,0,1,1,67.26-67.262A67.338,67.338,0,0,1,1324.361,704.547Z" transform="translate(-1231.73 -539.783)" fill="#c1bebe" opacity="0.198"/>
        <path id="Trazado_187878" data-name="Trazado 187878" d="M1323.687,703.744a67.261,67.261,0,1,1,67.26-67.262A67.338,67.338,0,0,1,1323.687,703.744Z" transform="translate(-1231.37 -539.353)" fill="#bebbbb" opacity="0.208"/>
        <path id="Trazado_187879" data-name="Trazado 187879" d="M1323.014,702.94a67.261,67.261,0,1,1,67.26-67.262A67.338,67.338,0,0,1,1323.014,702.94Z" transform="translate(-1231.009 -538.923)" fill="#bcb9b9" opacity="0.218"/>
        <path id="Trazado_187880" data-name="Trazado 187880" d="M1322.339,702.137a67.261,67.261,0,1,1,67.26-67.262A67.338,67.338,0,0,1,1322.339,702.137Z" transform="translate(-1230.648 -538.493)" fill="#bab7b6" opacity="0.228"/>
        <path id="Trazado_187881" data-name="Trazado 187881" d="M1321.666,701.334a67.261,67.261,0,1,1,67.26-67.262A67.337,67.337,0,0,1,1321.666,701.334Z" transform="translate(-1230.288 -538.064)" fill="#b8b4b4" opacity="0.238"/>
        <path id="Trazado_187882" data-name="Trazado 187882" d="M1320.992,700.53a67.261,67.261,0,1,1,67.26-67.262A67.337,67.337,0,0,1,1320.992,700.53Z" transform="translate(-1229.927 -537.633)" fill="#b5b2b2" opacity="0.248"/>
        <path id="Trazado_187883" data-name="Trazado 187883" d="M1320.318,699.727a67.261,67.261,0,1,1,67.26-67.262A67.338,67.338,0,0,1,1320.318,699.727Z" transform="translate(-1229.566 -537.203)" fill="#b3b0af" opacity="0.257"/>
        <path id="Trazado_187884" data-name="Trazado 187884" d="M1319.644,698.924a67.261,67.261,0,1,1,67.26-67.262A67.338,67.338,0,0,1,1319.644,698.924Z" transform="translate(-1229.206 -536.774)" fill="#b1adad" opacity="0.267"/>
        <path id="Trazado_187885" data-name="Trazado 187885" d="M1318.971,698.121a67.261,67.261,0,1,1,67.26-67.262A67.338,67.338,0,0,1,1318.971,698.121Z" transform="translate(-1228.845 -536.344)" fill="#afabab" opacity="0.277"/>
        <path id="Trazado_187886" data-name="Trazado 187886" d="M1318.3,697.317a67.261,67.261,0,1,1,67.26-67.262A67.337,67.337,0,0,1,1318.3,697.317Z" transform="translate(-1228.484 -535.914)" fill="#ada9a9" opacity="0.287"/>
        <path id="Trazado_187887" data-name="Trazado 187887" d="M1317.622,696.514a67.261,67.261,0,1,1,67.26-67.262A67.338,67.338,0,0,1,1317.622,696.514Z" transform="translate(-1228.124 -535.484)" fill="#aaa7a6" opacity="0.297"/>
        <path id="Trazado_187888" data-name="Trazado 187888" d="M1316.949,695.711a67.261,67.261,0,1,1,67.26-67.262A67.337,67.337,0,0,1,1316.949,695.711Z" transform="translate(-1227.763 -535.054)" fill="#a8a4a4" opacity="0.307"/>
        <path id="Trazado_187889" data-name="Trazado 187889" d="M1316.275,694.908a67.261,67.261,0,1,1,67.26-67.262A67.338,67.338,0,0,1,1316.275,694.908Z" transform="translate(-1227.403 -534.624)" fill="#a6a2a2" opacity="0.317"/>
        <path id="Trazado_187890" data-name="Trazado 187890" d="M1315.6,694.1a67.261,67.261,0,1,1,67.26-67.262A67.338,67.338,0,0,1,1315.6,694.1Z" transform="translate(-1227.042 -534.194)" fill="#a4a0a0" opacity="0.327"/>
        <path id="Trazado_187891" data-name="Trazado 187891" d="M1314.927,693.3a67.261,67.261,0,1,1,67.261-67.262A67.338,67.338,0,0,1,1314.927,693.3Z" transform="translate(-1226.681 -533.764)" fill="#a29e9e" opacity="0.337"/>
        <path id="Trazado_187892" data-name="Trazado 187892" d="M1314.254,692.5a67.261,67.261,0,1,1,67.26-67.262A67.338,67.338,0,0,1,1314.254,692.5Z" transform="translate(-1226.32 -533.334)" fill="#a09c9c" opacity="0.347"/>
        <path id="Trazado_187893" data-name="Trazado 187893" d="M1313.58,691.694a67.261,67.261,0,1,1,67.26-67.262A67.337,67.337,0,0,1,1313.58,691.694Z" transform="translate(-1225.96 -532.904)" fill="#9e9a9a" opacity="0.356"/>
        <path id="Trazado_187894" data-name="Trazado 187894" d="M1312.906,690.891a67.261,67.261,0,1,1,67.26-67.262A67.337,67.337,0,0,1,1312.906,690.891Z" transform="translate(-1225.599 -532.474)" fill="#9c9898" opacity="0.366"/>
        <path id="Trazado_187895" data-name="Trazado 187895" d="M1312.232,690.088a67.261,67.261,0,1,1,67.26-67.262A67.338,67.338,0,0,1,1312.232,690.088Z" transform="translate(-1225.239 -532.044)" fill="#9a9696" opacity="0.376"/>
        <path id="Trazado_187896" data-name="Trazado 187896" d="M1311.558,689.284a67.261,67.261,0,1,1,67.26-67.262A67.338,67.338,0,0,1,1311.558,689.284Z" transform="translate(-1224.878 -531.614)" fill="#989494" opacity="0.386"/>
        <path id="Trazado_187897" data-name="Trazado 187897" d="M1310.884,688.481a67.261,67.261,0,1,1,67.261-67.262A67.338,67.338,0,0,1,1310.884,688.481Z" transform="translate(-1224.517 -531.184)" fill="#969292" opacity="0.396"/>
        <path id="Trazado_187898" data-name="Trazado 187898" d="M1310.211,687.678a67.261,67.261,0,1,1,67.26-67.262A67.338,67.338,0,0,1,1310.211,687.678Z" transform="translate(-1224.157 -530.755)" fill="#949090" opacity="0.406"/>
        <path id="Trazado_187899" data-name="Trazado 187899" d="M1309.536,686.875a67.261,67.261,0,1,1,67.26-67.262A67.338,67.338,0,0,1,1309.536,686.875Z" transform="translate(-1223.796 -530.325)" fill="#928e8e" opacity="0.416"/>
        <path id="Trazado_187900" data-name="Trazado 187900" d="M1308.863,686.071a67.261,67.261,0,1,1,67.26-67.262A67.338,67.338,0,0,1,1308.863,686.071Z" transform="translate(-1223.436 -529.895)" fill="#908c8c" opacity="0.426"/>
        <path id="Trazado_187901" data-name="Trazado 187901" d="M1308.189,685.268a67.261,67.261,0,1,1,67.26-67.262A67.338,67.338,0,0,1,1308.189,685.268Z" transform="translate(-1223.075 -529.465)" fill="#8e8a8a" opacity="0.436"/>
        <path id="Trazado_187902" data-name="Trazado 187902" d="M1307.515,684.465a67.261,67.261,0,1,1,67.26-67.262A67.338,67.338,0,0,1,1307.515,684.465Z" transform="translate(-1222.714 -529.035)" fill="#8c8888" opacity="0.446"/>
        <path id="Trazado_187903" data-name="Trazado 187903" d="M1306.841,683.662A67.261,67.261,0,1,1,1374.1,616.4,67.338,67.338,0,0,1,1306.841,683.662Z" transform="translate(-1222.353 -528.605)" fill="#8b8787" opacity="0.455"/>
        <path id="Trazado_187904" data-name="Trazado 187904" d="M1306.167,682.858a67.261,67.261,0,1,1,67.26-67.262A67.338,67.338,0,0,1,1306.167,682.858Z" transform="translate(-1221.993 -528.175)" fill="#898585" opacity="0.465"/>
        <path id="Trazado_187905" data-name="Trazado 187905" d="M1305.494,682.055a67.261,67.261,0,1,1,67.26-67.262A67.338,67.338,0,0,1,1305.494,682.055Z" transform="translate(-1221.632 -527.745)" fill="#878383" opacity="0.475"/>
        <path id="Trazado_187906" data-name="Trazado 187906" d="M1304.82,681.252a67.261,67.261,0,1,1,67.26-67.262A67.337,67.337,0,0,1,1304.82,681.252Z" transform="translate(-1221.272 -527.315)" fill="#858181" opacity="0.485"/>
        <path id="Trazado_187907" data-name="Trazado 187907" d="M1304.146,680.448a67.261,67.261,0,1,1,67.26-67.261A67.338,67.338,0,0,1,1304.146,680.448Z" transform="translate(-1220.911 -526.885)" fill="#847f7f" opacity="0.495"/>
        <path id="Trazado_187908" data-name="Trazado 187908" d="M1303.472,679.645a67.261,67.261,0,1,1,67.26-67.262A67.338,67.338,0,0,1,1303.472,679.645Z" transform="translate(-1220.55 -526.455)" fill="#827e7e" opacity="0.505"/>
        <path id="Trazado_187909" data-name="Trazado 187909" d="M1302.8,678.842a67.261,67.261,0,1,1,67.261-67.262A67.338,67.338,0,0,1,1302.8,678.842Z" transform="translate(-1220.189 -526.025)" fill="#807c7c" opacity="0.515"/>
        <path id="Trazado_187910" data-name="Trazado 187910" d="M1302.125,678.039a67.261,67.261,0,1,1,67.26-67.262A67.338,67.338,0,0,1,1302.125,678.039Z" transform="translate(-1219.829 -525.596)" fill="#7e7a7a" opacity="0.525"/>
        <path id="Trazado_187911" data-name="Trazado 187911" d="M1301.451,677.235a67.261,67.261,0,1,1,67.26-67.262A67.338,67.338,0,0,1,1301.451,677.235Z" transform="translate(-1219.468 -525.165)" fill="#7c7879" opacity="0.535"/>
        <path id="Trazado_187912" data-name="Trazado 187912" d="M1300.777,676.432a67.261,67.261,0,1,1,67.26-67.262A67.337,67.337,0,0,1,1300.777,676.432Z" transform="translate(-1219.108 -524.736)" fill="#7b7777" opacity="0.545"/>
        <path id="Trazado_187913" data-name="Trazado 187913" d="M1300.1,675.629a67.261,67.261,0,1,1,67.26-67.262A67.338,67.338,0,0,1,1300.1,675.629Z" transform="translate(-1218.747 -524.306)" fill="#797575" opacity="0.554"/>
        <path id="Trazado_187914" data-name="Trazado 187914" d="M1299.429,674.825a67.261,67.261,0,1,1,67.26-67.262A67.337,67.337,0,0,1,1299.429,674.825Z" transform="translate(-1218.386 -523.875)" fill="#777474" opacity="0.564"/>
        <path id="Trazado_187915" data-name="Trazado 187915" d="M1298.755,674.022a67.261,67.261,0,1,1,67.261-67.262A67.338,67.338,0,0,1,1298.755,674.022Z" transform="translate(-1218.026 -523.446)" fill="#767272" opacity="0.574"/>
        <path id="Trazado_187916" data-name="Trazado 187916" d="M1298.081,673.219a67.261,67.261,0,1,1,67.26-67.262A67.338,67.338,0,0,1,1298.081,673.219Z" transform="translate(-1217.665 -523.016)" fill="#747070" opacity="0.584"/>
        <path id="Trazado_187917" data-name="Trazado 187917" d="M1297.408,672.416a67.261,67.261,0,1,1,67.26-67.262A67.338,67.338,0,0,1,1297.408,672.416Z" transform="translate(-1217.304 -522.586)" fill="#726f6f" opacity="0.594"/>
        <path id="Trazado_187918" data-name="Trazado 187918" d="M1296.734,671.612a67.261,67.261,0,1,1,67.26-67.262A67.338,67.338,0,0,1,1296.734,671.612Z" transform="translate(-1216.944 -522.156)" fill="#716d6d" opacity="0.604"/>
        <path id="Trazado_187919" data-name="Trazado 187919" d="M1296.06,670.809a67.261,67.261,0,1,1,67.26-67.262A67.337,67.337,0,0,1,1296.06,670.809Z" transform="translate(-1216.583 -521.726)" fill="#6f6c6c" opacity="0.614"/>
        <path id="Trazado_187920" data-name="Trazado 187920" d="M1295.386,670.006a67.261,67.261,0,1,1,67.26-67.262A67.338,67.338,0,0,1,1295.386,670.006Z" transform="translate(-1216.223 -521.296)" fill="#6e6a6a" opacity="0.624"/>
        <path id="Trazado_187921" data-name="Trazado 187921" d="M1294.712,669.2a67.261,67.261,0,1,1,67.26-67.262A67.338,67.338,0,0,1,1294.712,669.2Z" transform="translate(-1215.862 -520.866)" fill="#6c6969" opacity="0.634"/>
        <path id="Trazado_187922" data-name="Trazado 187922" d="M1294.039,668.4a67.261,67.261,0,1,1,67.26-67.262A67.338,67.338,0,0,1,1294.039,668.4Z" transform="translate(-1215.501 -520.436)" fill="#6b6767" opacity="0.644"/>
        <path id="Trazado_187923" data-name="Trazado 187923" d="M1293.365,667.6a67.261,67.261,0,1,1,67.26-67.262A67.338,67.338,0,0,1,1293.365,667.6Z" transform="translate(-1215.14 -520.007)" fill="#696666" opacity="0.653"/>
        <path id="Trazado_187924" data-name="Trazado 187924" d="M1292.691,666.793a67.261,67.261,0,1,1,67.26-67.262A67.337,67.337,0,0,1,1292.691,666.793Z" transform="translate(-1214.78 -519.577)" fill="#686464" opacity="0.663"/>
        <path id="Trazado_187925" data-name="Trazado 187925" d="M1292.017,665.989a67.261,67.261,0,1,1,67.26-67.262A67.338,67.338,0,0,1,1292.017,665.989Z" transform="translate(-1214.419 -519.146)" fill="#666363" opacity="0.673"/>
        <path id="Trazado_187926" data-name="Trazado 187926" d="M1291.343,665.186a67.261,67.261,0,1,1,67.26-67.262A67.338,67.338,0,0,1,1291.343,665.186Z" transform="translate(-1214.059 -518.717)" fill="#656261" opacity="0.683"/>
        <path id="Trazado_187927" data-name="Trazado 187927" d="M1290.669,664.383a67.261,67.261,0,1,1,67.26-67.262A67.338,67.338,0,0,1,1290.669,664.383Z" transform="translate(-1213.698 -518.287)" fill="#646060" opacity="0.693"/>
        <path id="Trazado_187928" data-name="Trazado 187928" d="M1290,663.579a67.261,67.261,0,1,1,67.26-67.262A67.338,67.338,0,0,1,1290,663.579Z" transform="translate(-1213.337 -517.857)" fill="#625f5f" opacity="0.703"/>
        <path id="Trazado_187929" data-name="Trazado 187929" d="M1289.322,662.776a67.261,67.261,0,1,1,67.26-67.262A67.338,67.338,0,0,1,1289.322,662.776Z" transform="translate(-1212.976 -517.427)" fill="#615d5d" opacity="0.713"/>
        <path id="Trazado_187930" data-name="Trazado 187930" d="M1288.648,661.973a67.261,67.261,0,1,1,67.26-67.262A67.337,67.337,0,0,1,1288.648,661.973Z" transform="translate(-1212.616 -516.997)" fill="#5f5c5c" opacity="0.723"/>
        <path id="Trazado_187931" data-name="Trazado 187931" d="M1287.974,661.17a67.261,67.261,0,1,1,67.26-67.262A67.337,67.337,0,0,1,1287.974,661.17Z" transform="translate(-1212.255 -516.567)" fill="#5e5b5b" opacity="0.733"/>
        <path id="Trazado_187932" data-name="Trazado 187932" d="M1287.3,660.366a67.261,67.261,0,1,1,67.26-67.262A67.338,67.338,0,0,1,1287.3,660.366Z" transform="translate(-1211.895 -516.137)" fill="#5d5959" opacity="0.743"/>
        <path id="Trazado_187933" data-name="Trazado 187933" d="M1286.626,659.563a67.261,67.261,0,1,1,67.26-67.262A67.338,67.338,0,0,1,1286.626,659.563Z" transform="translate(-1211.534 -515.707)" fill="#5b5858" opacity="0.752"/>
        <path id="Trazado_187934" data-name="Trazado 187934" d="M1285.953,658.76a67.261,67.261,0,1,1,67.26-67.262A67.338,67.338,0,0,1,1285.953,658.76Z" transform="translate(-1211.173 -515.277)" fill="#5a5757" opacity="0.762"/>
        <path id="Trazado_187935" data-name="Trazado 187935" d="M1285.279,657.957a67.261,67.261,0,1,1,67.26-67.262A67.338,67.338,0,0,1,1285.279,657.957Z" transform="translate(-1210.813 -514.848)" fill="#585655" opacity="0.772"/>
        <path id="Trazado_187936" data-name="Trazado 187936" d="M1284.6,657.153a67.261,67.261,0,1,1,67.26-67.262A67.338,67.338,0,0,1,1284.6,657.153Z" transform="translate(-1210.452 -514.417)" fill="#575454" opacity="0.782"/>
        <path id="Trazado_187937" data-name="Trazado 187937" d="M1283.931,656.35a67.261,67.261,0,1,1,67.26-67.262A67.337,67.337,0,0,1,1283.931,656.35Z" transform="translate(-1210.092 -513.987)" fill="#565353" opacity="0.792"/>
        <path id="Trazado_187938" data-name="Trazado 187938" d="M1283.257,655.547a67.261,67.261,0,1,1,67.26-67.262A67.338,67.338,0,0,1,1283.257,655.547Z" transform="translate(-1209.731 -513.558)" fill="#545252" opacity="0.802"/>
        <path id="Trazado_187939" data-name="Trazado 187939" d="M1282.583,654.743a67.261,67.261,0,1,1,67.26-67.262A67.338,67.338,0,0,1,1282.583,654.743Z" transform="translate(-1209.37 -513.127)" fill="#535151" opacity="0.812"/>
        <path id="Trazado_187940" data-name="Trazado 187940" d="M1281.91,653.94a67.261,67.261,0,1,1,67.26-67.262A67.338,67.338,0,0,1,1281.91,653.94Z" transform="translate(-1209.01 -512.698)" fill="#52504f" opacity="0.822"/>
        <path id="Trazado_187941" data-name="Trazado 187941" d="M1281.235,653.137a67.261,67.261,0,1,1,67.26-67.262A67.338,67.338,0,0,1,1281.235,653.137Z" transform="translate(-1208.649 -512.268)" fill="#514e4e" opacity="0.832"/>
        <path id="Trazado_187942" data-name="Trazado 187942" d="M1280.562,652.333a67.261,67.261,0,1,1,67.26-67.261A67.337,67.337,0,0,1,1280.562,652.333Z" transform="translate(-1208.288 -511.838)" fill="#4f4d4d" opacity="0.842"/>
        <path id="Trazado_187943" data-name="Trazado 187943" d="M1279.888,651.53a67.261,67.261,0,1,1,67.26-67.262A67.337,67.337,0,0,1,1279.888,651.53Z" transform="translate(-1207.928 -511.408)" fill="#4e4c4c" opacity="0.851"/>
        <path id="Trazado_187944" data-name="Trazado 187944" d="M1279.214,650.727a67.261,67.261,0,1,1,67.26-67.262A67.338,67.338,0,0,1,1279.214,650.727Z" transform="translate(-1207.567 -510.978)" fill="#4d4b4b" opacity="0.861"/>
        <path id="Trazado_187945" data-name="Trazado 187945" d="M1278.54,649.924a67.261,67.261,0,1,1,67.26-67.262A67.338,67.338,0,0,1,1278.54,649.924Z" transform="translate(-1207.206 -510.548)" fill="#4c4a4a" opacity="0.871"/>
        <path id="Trazado_187946" data-name="Trazado 187946" d="M1277.866,649.12a67.261,67.261,0,1,1,67.261-67.262A67.338,67.338,0,0,1,1277.866,649.12Z" transform="translate(-1206.846 -510.118)" fill="#4b4949" opacity="0.881"/>
        <path id="Trazado_187947" data-name="Trazado 187947" d="M1277.193,648.317a67.261,67.261,0,1,1,67.26-67.262A67.338,67.338,0,0,1,1277.193,648.317Z" transform="translate(-1206.485 -509.688)" fill="#494848" opacity="0.891"/>
        <path id="Trazado_187948" data-name="Trazado 187948" d="M1276.518,647.514a67.261,67.261,0,1,1,67.26-67.262A67.338,67.338,0,0,1,1276.518,647.514Z" transform="translate(-1206.124 -509.258)" fill="#484747" opacity="0.901"/>
        <path id="Trazado_187949" data-name="Trazado 187949" d="M1275.845,646.711a67.261,67.261,0,1,1,67.26-67.262A67.337,67.337,0,0,1,1275.845,646.711Z" transform="translate(-1205.764 -508.829)" fill="#474646" opacity="0.911"/>
        <path id="Trazado_187950" data-name="Trazado 187950" d="M1275.171,645.907a67.261,67.261,0,1,1,67.26-67.262A67.338,67.338,0,0,1,1275.171,645.907Z" transform="translate(-1205.403 -508.398)" fill="#464545" opacity="0.921"/>
        <path id="Trazado_187951" data-name="Trazado 187951" d="M1274.5,645.1a67.261,67.261,0,1,1,67.26-67.262A67.338,67.338,0,0,1,1274.5,645.1Z" transform="translate(-1205.042 -507.968)" fill="#454444" opacity="0.931"/>
        <path id="Trazado_187952" data-name="Trazado 187952" d="M1273.823,644.3a67.261,67.261,0,1,1,67.26-67.262A67.338,67.338,0,0,1,1273.823,644.3Z" transform="translate(-1204.682 -507.539)" fill="#444343" opacity="0.941"/>
        <path id="Trazado_187953" data-name="Trazado 187953" d="M1273.15,643.5a67.261,67.261,0,1,1,67.26-67.261A67.338,67.338,0,0,1,1273.15,643.5Z" transform="translate(-1204.321 -507.108)" fill="#424242" opacity="0.95"/>
        <path id="Trazado_187954" data-name="Trazado 187954" d="M1272.475,642.694a67.261,67.261,0,1,1,67.26-67.262A67.338,67.338,0,0,1,1272.475,642.694Z" transform="translate(-1203.96 -506.679)" fill="#414141" opacity="0.96"/>
        <path id="Trazado_187955" data-name="Trazado 187955" d="M1271.8,641.891a67.261,67.261,0,1,1,67.26-67.262A67.337,67.337,0,0,1,1271.8,641.891Z" transform="translate(-1203.6 -506.249)" fill="#404040" opacity="0.97"/>
        <path id="Trazado_187956" data-name="Trazado 187956" d="M1271.128,641.087a67.261,67.261,0,1,1,67.26-67.262A67.338,67.338,0,0,1,1271.128,641.087Z" transform="translate(-1203.239 -505.819)" fill="#3f3f3f" opacity="0.98"/>
        <path id="Trazado_187957" data-name="Trazado 187957" d="M1270.454,640.284a67.261,67.261,0,1,1,67.26-67.262A67.338,67.338,0,0,1,1270.454,640.284Z" transform="translate(-1202.879 -505.389)" fill="#3e3e3e" opacity="0.99"/>
        <path id="Trazado_187958" data-name="Trazado 187958" d="M1269.78,639.481a67.261,67.261,0,1,1,67.261-67.262A67.338,67.338,0,0,1,1269.78,639.481Z" transform="translate(-1202.518 -504.959)" fill="#3d3d3d"/>
      </g>
      <g id="Grupo_149832" data-name="Grupo 149832" transform="translate(703.706 2014.625)">
        <g id="Grupo_149809" data-name="Grupo 149809">
          <circle id="Elipse_4999" data-name="Elipse 4999" cx="68.09" cy="68.09" r="68.09" transform="translate(0 96.294) rotate(-45)" fill="url(#linear-gradient)"/>
          <circle id="Elipse_5000" data-name="Elipse 5000" cx="64.686" cy="64.686" r="64.686" transform="translate(4.815 96.294) rotate(-45)" fill="url(#linear-gradient-2)"/>
        </g>
        <path id="Trazado_194449" data-name="Trazado 194449" d="M6.482-2.8a1.128,1.128,0,0,0-.439-.956,5.764,5.764,0,0,0-1.582-.7,11.215,11.215,0,0,1-1.809-.729A2.956,2.956,0,0,1,.835-7.83a2.575,2.575,0,0,1,.487-1.542,3.177,3.177,0,0,1,1.4-1.058,5.265,5.265,0,0,1,2.047-.381A4.793,4.793,0,0,1,6.8-10.4,3.242,3.242,0,0,1,8.192-9.229a3.057,3.057,0,0,1,.494,1.714h-2.2a1.438,1.438,0,0,0-.461-1.139,1.9,1.9,0,0,0-1.3-.406,2.026,2.026,0,0,0-1.252.341,1.074,1.074,0,0,0-.447.9,1.029,1.029,0,0,0,.524.872A5.916,5.916,0,0,0,5.1-6.292a6.661,6.661,0,0,1,2.732,1.4,2.786,2.786,0,0,1,.857,2.08A2.566,2.566,0,0,1,7.639-.641a4.585,4.585,0,0,1-2.82.787A5.445,5.445,0,0,1,2.578-.3,3.546,3.546,0,0,1,1.036-1.538,3.161,3.161,0,0,1,.505-3.354h2.2q0,1.765,2.109,1.765a2.052,2.052,0,0,0,1.223-.319A1.037,1.037,0,0,0,6.482-2.8ZM9.7-4.036a4.7,4.7,0,0,1,.454-2.1,3.324,3.324,0,0,1,1.307-1.428,3.814,3.814,0,0,1,1.981-.505,3.609,3.609,0,0,1,2.618.981A3.939,3.939,0,0,1,17.2-4.424l.015.542A4.142,4.142,0,0,1,16.194-.956a3.539,3.539,0,0,1-2.732,1.1,3.556,3.556,0,0,1-2.736-1.1A4.215,4.215,0,0,1,9.7-3.94Zm2.117.15a2.962,2.962,0,0,0,.425,1.727,1.4,1.4,0,0,0,1.216.6,1.4,1.4,0,0,0,1.2-.591A3.241,3.241,0,0,0,15.1-4.039a2.933,2.933,0,0,0-.432-1.716,1.4,1.4,0,0,0-1.216-.609,1.382,1.382,0,0,0-1.2.605A3.3,3.3,0,0,0,11.821-3.885ZM19.094,0V-6.372H17.915V-7.925h1.179V-8.6a2.736,2.736,0,0,1,.765-2.069A2.964,2.964,0,0,1,22-11.4a4.948,4.948,0,0,1,1.077.146l-.022,1.641a2.7,2.7,0,0,0-.645-.066q-1.194,0-1.194,1.121v.637h1.575v1.553H21.218V0Zm7.332-9.873v1.948h1.355v1.553H26.426v3.955a.944.944,0,0,0,.168.63.846.846,0,0,0,.645.19,3.376,3.376,0,0,0,.623-.051v1.6a4.358,4.358,0,0,1-1.282.19A2.021,2.021,0,0,1,24.309-2.1v-4.27H23.152V-7.925h1.157V-9.873Zm9.426,6.995,1.04-5.046h2.043L36.914,0H35.142l-1.5-4.988L32.139,0H30.374L28.352-7.925H30.4l1.033,5.039,1.45-5.039h1.531ZM44.575,0a2.351,2.351,0,0,1-.212-.71,2.561,2.561,0,0,1-2,.857,2.814,2.814,0,0,1-1.93-.674,2.167,2.167,0,0,1-.765-1.7A2.24,2.24,0,0,1,40.6-4.16a4.608,4.608,0,0,1,2.7-.681h.974V-5.3a1.306,1.306,0,0,0-.282-.879,1.109,1.109,0,0,0-.89-.33,1.261,1.261,0,0,0-.839.256.871.871,0,0,0-.3.7H39.844a2.126,2.126,0,0,1,.425-1.274,2.808,2.808,0,0,1,1.2-.919,4.378,4.378,0,0,1,1.743-.333,3.459,3.459,0,0,1,2.325.736A2.575,2.575,0,0,1,46.4-5.266v3.435a3.789,3.789,0,0,0,.315,1.707V0Zm-1.75-1.472a1.823,1.823,0,0,0,.864-.209,1.371,1.371,0,0,0,.586-.56V-3.6h-.791q-1.589,0-1.692,1.1l-.007.125a.847.847,0,0,0,.278.652A1.081,1.081,0,0,0,42.825-1.472ZM52.478-5.94A5.751,5.751,0,0,0,51.716-6a1.55,1.55,0,0,0-1.575.813V0H48.025V-7.925h2l.059.945a1.961,1.961,0,0,1,1.765-1.091,2.218,2.218,0,0,1,.659.1ZM57.144.146A3.89,3.89,0,0,1,54.305-.923,3.8,3.8,0,0,1,53.21-3.772v-.205a4.787,4.787,0,0,1,.461-2.135,3.386,3.386,0,0,1,1.307-1.45,3.669,3.669,0,0,1,1.93-.509,3.289,3.289,0,0,1,2.56,1.025A4.167,4.167,0,0,1,60.4-4.138v.864H55.356a1.966,1.966,0,0,0,.619,1.245,1.871,1.871,0,0,0,1.307.469,2.285,2.285,0,0,0,1.912-.886l1.04,1.165A3.178,3.178,0,0,1,58.945-.231,4.229,4.229,0,0,1,57.144.146ZM56.9-6.365a1.323,1.323,0,0,0-1.022.427,2.209,2.209,0,0,0-.5,1.221h2.944v-.169a1.576,1.576,0,0,0-.381-1.092A1.365,1.365,0,0,0,56.9-6.365Z" transform="translate(66.961 131.375)" fill="#12263f"/>
        <g id="of24yl.tif" transform="translate(685.166 -624.264)">
          <g id="Grupo_149872" data-name="Grupo 149872" transform="translate(-620.902 679.59)">
            <path id="Trazado_188247" data-name="Trazado 188247" d="M-365.466,808.66c-.859,2.332-1.532,2.79-4.1,2.79-.79,0-1.585-.051-2.367.028a1.213,1.213,0,0,0-.872.549,1.159,1.159,0,0,0,.173,1.017c.689.792,1.473,1.5,2.208,2.252a3.053,3.053,0,0,1-.01,4.646q-.7.722-1.428,1.426a3.052,3.052,0,0,1-4.593.015c-.733-.712-1.416-1.48-2.187-2.149a1.249,1.249,0,0,0-1.064-.283,1.425,1.425,0,0,0-.623,1.017c-.083,1.046-.014,2.1-.034,3.155a3,3,0,0,1-3.106,3.092c-.761.012-1.522.011-2.282,0a3.02,3.02,0,0,1-3.163-3.05c-.043-1.021.042-2.05-.039-3.068a1.512,1.512,0,0,0-.571-1.121c-.285-.13-.871.117-1.178.373-.76.636-1.431,1.377-2.146,2.067a3.04,3.04,0,0,1-4.465.036c-.572-.545-1.135-1.1-1.674-1.676a3.016,3.016,0,0,1,0-4.332c.723-.765,1.522-1.461,2.209-2.255a1.377,1.377,0,0,0,.325-1.135,1.367,1.367,0,0,0-1.026-.577c-1.018-.078-2.046-.012-3.07-.03a3.08,3.08,0,0,1-3.177-3.149q-.026-1.14,0-2.28a3.06,3.06,0,0,1,3.17-3.146c.995-.013,1.994.053,2.982-.03a1.56,1.56,0,0,0,1.117-.589,1.339,1.339,0,0,0-.309-1.137c-.643-.753-1.4-1.408-2.092-2.12a3.044,3.044,0,0,1-.013-4.585c.51-.524,1.024-1.044,1.552-1.55a3.085,3.085,0,0,1,4.415-.023c.762.724,1.458,1.522,2.253,2.205a1.329,1.329,0,0,0,1.13.285,1.405,1.405,0,0,0,.566-1.039c.077-.988.009-1.987.031-2.98a3.034,3.034,0,0,1,3.264-3.213c.819-.008,1.64-.025,2.457.013a2.939,2.939,0,0,1,2.824,2.817c.046,1.08-.043,2.168.047,3.243a1.652,1.652,0,0,0,.634,1.177c.244.136.856-.149,1.164-.411.756-.642,1.421-1.389,2.14-2.075a3.1,3.1,0,0,1,4.42-.027c.6.561,1.18,1.138,1.734,1.74a2.99,2.99,0,0,1-.024,4.264c-.722.766-1.52,1.462-2.209,2.256-.246.283-.473.86-.343,1.122a1.557,1.557,0,0,0,1.082.625,16.311,16.311,0,0,0,2.191.028c2.574,0,3.241.459,4.077,2.807Zm-28.449,3.746.217.117a15.13,15.13,0,0,1-1.237,2.226A25.044,25.044,0,0,1-397.143,817a.738.738,0,0,0-.013,1.206c.48.471.961.942,1.426,1.428a.766.766,0,0,0,1.272,0c.734-.754,1.468-1.509,2.233-2.231a3.161,3.161,0,0,1,3.639-.7,3.185,3.185,0,0,1,2.057,3.084c.017,1.052.012,2.105.005,3.157,0,.579.258.87.845.866.673,0,1.346-.015,2.019,0,.629.018.915-.271.913-.891,0-.994.02-1.988.011-2.982a3.216,3.216,0,0,1,2.077-3.246,3.268,3.268,0,0,1,3.774.83c.693.671,1.37,1.36,2.032,2.062.448.474.859.545,1.332.039.439-.47.894-.927,1.366-1.363.507-.47.448-.879-.03-1.33-.7-.662-1.386-1.343-2.064-2.03a3.3,3.3,0,0,1-.84-3.777,3.265,3.265,0,0,1,3.249-2.1c.995-.007,1.99-.017,2.984,0,.628.012.922-.264.915-.887-.007-.643-.014-1.287,0-1.93.017-.677-.306-.941-.967-.926-.965.021-1.931,0-2.9,0a3.344,3.344,0,0,1-3.281-2.061,3.29,3.29,0,0,1,.831-3.773c.7-.711,1.394-1.419,2.109-2.11a.756.756,0,0,0,.009-1.266c-.468-.441-.928-.893-1.364-1.365a.782.782,0,0,0-1.328-.011c-.683.719-1.395,1.411-2.1,2.108a3.229,3.229,0,0,1-3.7.819,3.209,3.209,0,0,1-2.117-3.221c0-.965-.026-1.93,0-2.894.021-.758-.317-1.065-1.058-1.029-.584.028-1.17.02-1.755,0-.716-.021-.995.319-.976,1.019.026.964,0,1.929,0,2.894a3.194,3.194,0,0,1-2.023,3.194,3.228,3.228,0,0,1-3.723-.71c-.744-.7-1.458-1.438-2.161-2.181a.786.786,0,0,0-1.331,0c-.438.47-.9.918-1.363,1.366a.766.766,0,0,0,.019,1.271c.7.666,1.383,1.346,2.061,2.033a3.362,3.362,0,0,1,.9,3.767,3.389,3.389,0,0,1-3.313,2.147c-.995.016-1.99.015-2.984,0-.579-.007-.873.231-.859.833.016.672.018,1.345,0,2.017-.018.635.274.9.9.888,1.053-.016,2.107-.02,3.16.007A3.36,3.36,0,0,1-393.915,812.406Z" transform="translate(441.963 -768.991)" fill="#12263f"/>
            <path id="Trazado_188248" data-name="Trazado 188248" d="M-559.341,697.328h-2.331v-6.651H-571v11h-2.377V690.689h-45.12v.942q0,16.406,0,32.812c0,1.3.037,1.335,1.335,1.335h36.847V728.2h-.894q-18.086,0-36.173,0c-2.318,0-3.52-1.189-3.521-3.506q-.006-20.792,0-41.585c0-2.345,1.176-3.522,3.494-3.522q27.349,0,54.7,0c2.231,0,3.4,1.171,3.405,3.41q.009,6.755,0,13.511C-559.3,696.769-559.326,697.026-559.341,697.328Zm-59.151-9.158h56.8c0-1.566,0-3.108,0-4.649,0-1.518,0-1.52-1.506-1.52h-53.8c-.234,0-.468,0-.7,0a.714.714,0,0,0-.8.816C-618.491,684.571-618.492,686.321-618.492,688.17Z" transform="translate(620.902 -679.591)" fill="#12263f"/>
            <path id="Trazado_188249" data-name="Trazado 188249" d="M-462.515,805.992l-5.881-6.2,1.625-1.57c.839.912,1.658,1.859,2.538,2.746,1.5,1.515,3.034,3,4.563,4.482.309.3.491.536.088.928-2.45,2.378-4.883,4.774-7.4,7.245l-1.289-1.576Z" transform="translate(495.238 -777.345)" fill="#12263f"/>
            <path id="Trazado_188250" data-name="Trazado 188250" d="M-551.262,799.1l1.413,1.485-5.743,6.1,5.844,6.191-1.593,1.561c-.578-.653-1.1-1.314-1.7-1.906-1.782-1.775-3.591-3.522-5.387-5.283-.267-.261-.639-.511-.21-.931Q-554.945,802.7-551.262,799.1Z" transform="translate(569.756 -778.061)" fill="#12263f"/>
            <path id="Trazado_188251" data-name="Trazado 188251" d="M-503.072,813.532l-2.17-.476,3.414-15.077,2.179.475Z" transform="translate(525.599 -777.143)" fill="#12263f"/>
            <path id="Trazado_188252" data-name="Trazado 188252" d="M-323.918,873.831a6.1,6.1,0,0,1-6.07-6.173,6.129,6.129,0,0,1,6.183-6.074,6.172,6.172,0,0,1,6.09,6.187A6.143,6.143,0,0,1-323.918,873.831Zm3.777-6.144a3.738,3.738,0,0,0-3.769-3.707,3.731,3.731,0,0,0-3.663,3.718,3.727,3.727,0,0,0,3.718,3.752A3.739,3.739,0,0,0-320.142,867.686Z" transform="translate(381.191 -829.551)" fill="#12263f"/>
            <path id="Trazado_188253" data-name="Trazado 188253" d="M-321.419,701.139a2.577,2.577,0,0,1-2.639-2.567,2.632,2.632,0,0,1,2.638-2.68,2.684,2.684,0,0,1,2.619,2.636A2.623,2.623,0,0,1-321.419,701.139Z" transform="translate(376.304 -693.023)" fill="#12263f"/>
            <path id="Trazado_188254" data-name="Trazado 188254" d="M-391.5,701.137a2.579,2.579,0,0,1-2.625-2.581,2.628,2.628,0,0,1,2.649-2.667,2.662,2.662,0,0,1,2.6,2.647A2.613,2.613,0,0,1-391.5,701.137Z" transform="translate(434.04 -693.02)" fill="#12263f"/>
            <path id="Trazado_188255" data-name="Trazado 188255" d="M-356.438,701.141a2.57,2.57,0,0,1-2.628-2.574,2.62,2.62,0,0,1,2.639-2.672,2.681,2.681,0,0,1,2.611,2.641A2.623,2.623,0,0,1-356.438,701.141Z" transform="translate(405.151 -693.025)" fill="#12263f"/>
          </g>
        </g>
      </g>
      <path id="Trazado_194450" data-name="Trazado 194450" d="M8.43-4.7a5.762,5.762,0,0,1-.977,3.609A3.409,3.409,0,0,1,4.594.156,3.433,3.433,0,0,1,1.75-1.07,5.594,5.594,0,0,1,.742-4.586V-6.68A5.687,5.687,0,0,1,1.73-10.3a3.434,3.434,0,0,1,2.848-1.234,3.437,3.437,0,0,1,2.844,1.223A5.576,5.576,0,0,1,8.43-6.8Zm-2.258-2.3a4.165,4.165,0,0,0-.387-2.061,1.307,1.307,0,0,0-1.207-.645A1.284,1.284,0,0,0,3.4-9.1,3.9,3.9,0,0,0,3-7.177v2.768a4.372,4.372,0,0,0,.379,2.068,1.29,1.29,0,0,0,1.215.676,1.268,1.268,0,0,0,1.2-.649A4.268,4.268,0,0,0,6.172-4.3Zm6.078.318h1.2a1.7,1.7,0,0,0,1.273-.43,1.574,1.574,0,0,0,.414-1.141,1.392,1.392,0,0,0-.41-1.07A1.59,1.59,0,0,0,13.6-9.711a1.666,1.666,0,0,0-1.086.355,1.137,1.137,0,0,0-.437.926H9.82a2.777,2.777,0,0,1,.48-1.6,3.2,3.2,0,0,1,1.344-1.105,4.485,4.485,0,0,1,1.9-.4,4.253,4.253,0,0,1,2.828.863A2.945,2.945,0,0,1,17.4-8.289a2.394,2.394,0,0,1-.477,1.438,3.1,3.1,0,0,1-1.25,1.008,2.826,2.826,0,0,1,1.434,1.031,2.8,2.8,0,0,1,.473,1.625,2.994,2.994,0,0,1-1.105,2.43,4.445,4.445,0,0,1-2.926.914,4.214,4.214,0,0,1-2.785-.9A2.934,2.934,0,0,1,9.68-3.117h2.258a1.308,1.308,0,0,0,.48,1.047,1.771,1.771,0,0,0,1.184.406,1.779,1.779,0,0,0,1.262-.426,1.47,1.47,0,0,0,.457-1.129q0-1.7-1.875-1.7h-1.2Z" transform="translate(703.667 2117)" fill="#fff"/>
    </g>
  </g>
</svg>
