<svg xmlns="http://www.w3.org/2000/svg" xmlns:xlink="http://www.w3.org/1999/xlink" width="166" height="140" viewBox="0 0 166 140">
  <defs>
    <filter id="Rect치ngulo_37331" x="0" y="0" width="166" height="140" filterUnits="userSpaceOnUse">
      <feOffset dy="3" input="SourceAlpha"/>
      <feGaussianBlur stdDeviation="3" result="blur"/>
      <feFlood flood-opacity="0.161"/>
      <feComposite operator="in" in2="blur"/>
      <feComposite in="SourceGraphic"/>
    </filter>
    <linearGradient id="linear-gradient" x1="0.5" x2="0.5" y2="1" gradientUnits="objectBoundingBox">
      <stop offset="0" stop-color="#4dd0e1"/>
      <stop offset="1" stop-color="#039be5"/>
    </linearGradient>
  </defs>
  <g id="Grupo_152023" data-name="Grupo 152023" transform="translate(-1035.676 -1914)">
    <g transform="matrix(1, 0, 0, 1, 1035.68, 1914)" filter="url(#Rect치ngulo_37331)">
      <rect id="Rect치ngulo_37331-2" data-name="Rect치ngulo 37331" width="148" height="122" rx="10" transform="translate(9 6)" fill="#fff"/>
    </g>
    <path id="Trazado_194458" data-name="Trazado 194458" d="M25.656,5.625l2.922,8.25,2.906-8.25h3.078V17H32.211V13.891l.234-5.367L29.375,17H27.766L24.7,8.531l.234,5.359V17H22.594V5.625Zm14.7,11.531a4.15,4.15,0,0,1-3.027-1.141,4.054,4.054,0,0,1-1.168-3.039v-.219a5.106,5.106,0,0,1,.492-2.277,3.612,3.612,0,0,1,1.395-1.547A3.914,3.914,0,0,1,40.1,8.391a3.508,3.508,0,0,1,2.73,1.094,4.444,4.444,0,0,1,1,3.1v.922H38.445a2.1,2.1,0,0,0,.66,1.328,2,2,0,0,0,1.395.5,2.437,2.437,0,0,0,2.039-.945l1.109,1.242a3.389,3.389,0,0,1-1.375,1.121A4.511,4.511,0,0,1,40.352,17.156Zm-.258-6.945a1.411,1.411,0,0,0-1.09.455,2.357,2.357,0,0,0-.535,1.3h3.141v-.181a1.681,1.681,0,0,0-.406-1.165A1.456,1.456,0,0,0,40.094,10.211Zm4.664,2.5a5.094,5.094,0,0,1,.887-3.148A2.877,2.877,0,0,1,48.07,8.391a2.589,2.589,0,0,1,2.039.922V5h2.266V17H50.336l-.109-.9a2.657,2.657,0,0,1-2.172,1.055A2.869,2.869,0,0,1,45.66,15.98,5.258,5.258,0,0,1,44.758,12.711Zm2.258.168A3.337,3.337,0,0,0,47.43,14.7a1.349,1.349,0,0,0,1.2.634,1.511,1.511,0,0,0,1.477-.884V11.111a1.489,1.489,0,0,0-1.461-.884Q47.016,10.227,47.016,12.879ZM56.508,17H54.242V8.547h2.266Zm-2.4-10.641a1.112,1.112,0,0,1,.34-.836,1.465,1.465,0,0,1,1.848,0,1.105,1.105,0,0,1,.344.836,1.108,1.108,0,0,1-.348.844,1.448,1.448,0,0,1-1.836,0A1.108,1.108,0,0,1,54.109,6.359ZM58.016,12.7a5.013,5.013,0,0,1,.484-2.242A3.546,3.546,0,0,1,59.895,8.93a4.069,4.069,0,0,1,2.113-.539A3.849,3.849,0,0,1,64.8,9.438a4.2,4.2,0,0,1,1.207,2.844l.016.578a4.418,4.418,0,0,1-1.086,3.121,4.209,4.209,0,0,1-5.832,0,4.5,4.5,0,0,1-1.09-3.187Zm2.258.16a3.16,3.16,0,0,0,.453,1.843,1.628,1.628,0,0,0,2.578.008,3.457,3.457,0,0,0,.461-2.015A3.128,3.128,0,0,0,63.3,10.86a1.5,1.5,0,0,0-1.3-.649,1.474,1.474,0,0,0-1.281.646A3.516,3.516,0,0,0,60.273,12.856Zm11.719,1.808a.727.727,0,0,0-.41-.652,4.659,4.659,0,0,0-1.316-.426q-3.016-.633-3.016-2.562a2.323,2.323,0,0,1,.934-1.879,3.766,3.766,0,0,1,2.441-.754,4.053,4.053,0,0,1,2.574.758,2.388,2.388,0,0,1,.965,1.969H71.906a1.092,1.092,0,0,0-.312-.8A1.322,1.322,0,0,0,70.617,10a1.351,1.351,0,0,0-.883.258.814.814,0,0,0-.312.656.7.7,0,0,0,.355.605,3.657,3.657,0,0,0,1.2.4A9.8,9.8,0,0,1,72.4,12.3a2.336,2.336,0,0,1,1.789,2.273,2.2,2.2,0,0,1-.992,1.871,4.28,4.28,0,0,1-2.562.715,4.47,4.47,0,0,1-1.887-.379,3.166,3.166,0,0,1-1.293-1.039,2.414,2.414,0,0,1-.469-1.426h2.141a1.179,1.179,0,0,0,.445.922,1.766,1.766,0,0,0,1.109.32,1.635,1.635,0,0,0,.98-.246A.766.766,0,0,0,71.992,14.664Zm7.281-1.953a5.094,5.094,0,0,1,.887-3.148,2.877,2.877,0,0,1,2.426-1.172,2.589,2.589,0,0,1,2.039.922V5h2.266V17H84.852l-.109-.9a2.657,2.657,0,0,1-2.172,1.055,2.869,2.869,0,0,1-2.395-1.176A5.258,5.258,0,0,1,79.273,12.711Zm2.258.168a3.337,3.337,0,0,0,.414,1.823,1.349,1.349,0,0,0,1.2.634,1.511,1.511,0,0,0,1.477-.884V11.111a1.489,1.489,0,0,0-1.461-.884Q81.531,10.227,81.531,12.879Zm11,4.277A4.15,4.15,0,0,1,89.5,16.016a4.054,4.054,0,0,1-1.168-3.039v-.219a5.106,5.106,0,0,1,.492-2.277,3.612,3.612,0,0,1,1.395-1.547,3.914,3.914,0,0,1,2.059-.543,3.508,3.508,0,0,1,2.73,1.094,4.444,4.444,0,0,1,1,3.1v.922H90.625a2.1,2.1,0,0,0,.66,1.328,2,2,0,0,0,1.395.5,2.437,2.437,0,0,0,2.039-.945l1.109,1.242a3.389,3.389,0,0,1-1.375,1.121A4.511,4.511,0,0,1,92.531,17.156Zm-.258-6.945a1.411,1.411,0,0,0-1.09.455,2.357,2.357,0,0,0-.535,1.3h3.141v-.181a1.681,1.681,0,0,0-.406-1.165A1.456,1.456,0,0,0,92.273,10.211ZM19.9,24.469v2.078h1.445V28.2H19.9v4.219a1.007,1.007,0,0,0,.18.672.9.9,0,0,0,.688.2,3.6,3.6,0,0,0,.664-.055v1.711a4.648,4.648,0,0,1-1.367.2,2.156,2.156,0,0,1-2.422-2.4V28.2H16.406V26.547h1.234V24.469Zm7.453,4.2a6.134,6.134,0,0,0-.812-.062,1.654,1.654,0,0,0-1.68.867V35H22.6V26.547h2.133l.063,1.008a2.092,2.092,0,0,1,1.883-1.164,2.366,2.366,0,0,1,.7.1ZM33.1,35a2.507,2.507,0,0,1-.227-.758,2.732,2.732,0,0,1-2.133.914,3,3,0,0,1-2.059-.719,2.312,2.312,0,0,1-.816-1.812,2.389,2.389,0,0,1,1-2.062,4.915,4.915,0,0,1,2.879-.727h1.039v-.484a1.393,1.393,0,0,0-.3-.937,1.183,1.183,0,0,0-.949-.352,1.345,1.345,0,0,0-.895.273.929.929,0,0,0-.324.75H28.055a2.268,2.268,0,0,1,.453-1.359,3,3,0,0,1,1.281-.98,4.669,4.669,0,0,1,1.859-.355,3.689,3.689,0,0,1,2.48.785,2.747,2.747,0,0,1,.918,2.207v3.664a4.041,4.041,0,0,0,.336,1.82V35Zm-1.867-1.57a1.945,1.945,0,0,0,.922-.223,1.462,1.462,0,0,0,.625-.6V31.156h-.844q-1.7,0-1.8,1.172l-.008.133a.9.9,0,0,0,.3.7A1.153,1.153,0,0,0,31.234,33.43Zm7.625-6.883.07.977a2.951,2.951,0,0,1,2.43-1.133,2.453,2.453,0,0,1,2,.789,3.682,3.682,0,0,1,.672,2.359V35H41.773V29.594a1.465,1.465,0,0,0-.312-1.043,1.4,1.4,0,0,0-1.039-.324,1.553,1.553,0,0,0-1.43.813V35H36.734V26.547ZM50.32,32.664a.727.727,0,0,0-.41-.652,4.659,4.659,0,0,0-1.316-.426q-3.016-.633-3.016-2.562a2.323,2.323,0,0,1,.934-1.879,3.766,3.766,0,0,1,2.441-.754,4.053,4.053,0,0,1,2.574.758,2.388,2.388,0,0,1,.965,1.969H50.234a1.092,1.092,0,0,0-.312-.8A1.322,1.322,0,0,0,48.945,28a1.351,1.351,0,0,0-.883.258.814.814,0,0,0-.312.656.7.7,0,0,0,.355.605,3.657,3.657,0,0,0,1.2.4,9.8,9.8,0,0,1,1.422.379,2.336,2.336,0,0,1,1.789,2.273,2.205,2.205,0,0,1-.992,1.871,4.28,4.28,0,0,1-2.562.715,4.47,4.47,0,0,1-1.887-.379,3.166,3.166,0,0,1-1.293-1.039,2.414,2.414,0,0,1-.469-1.426h2.141a1.179,1.179,0,0,0,.445.922,1.766,1.766,0,0,0,1.109.32,1.635,1.635,0,0,0,.98-.246A.766.766,0,0,0,50.32,32.664Zm5.766-6.117.07.945a2.971,2.971,0,0,1,2.43-1.1,2.255,2.255,0,0,1,2.242,1.289,2.9,2.9,0,0,1,2.539-1.289,2.521,2.521,0,0,1,2.047.8,3.681,3.681,0,0,1,.672,2.41V35H63.82V29.609a1.61,1.61,0,0,0-.281-1.051,1.246,1.246,0,0,0-.992-.332,1.409,1.409,0,0,0-1.406.969l.008,5.8H58.891V29.617a1.59,1.59,0,0,0-.289-1.062,1.259,1.259,0,0,0-.984-.328,1.463,1.463,0,0,0-1.391.8V35H53.969V26.547ZM70.2,35H67.938V26.547H70.2ZM67.8,24.359a1.112,1.112,0,0,1,.34-.836,1.465,1.465,0,0,1,1.848,0,1.193,1.193,0,0,1,0,1.68,1.448,1.448,0,0,1-1.836,0A1.108,1.108,0,0,1,67.8,24.359Zm8.836,8.3a.727.727,0,0,0-.41-.652,4.659,4.659,0,0,0-1.316-.426Q71.9,30.953,71.9,29.023a2.323,2.323,0,0,1,.934-1.879,3.766,3.766,0,0,1,2.441-.754,4.053,4.053,0,0,1,2.574.758,2.388,2.388,0,0,1,.965,1.969H76.555a1.092,1.092,0,0,0-.312-.8A1.322,1.322,0,0,0,75.266,28a1.351,1.351,0,0,0-.883.258.814.814,0,0,0-.312.656.7.7,0,0,0,.355.605,3.657,3.657,0,0,0,1.2.4,9.8,9.8,0,0,1,1.422.379,2.336,2.336,0,0,1,1.789,2.273,2.2,2.2,0,0,1-.992,1.871,4.28,4.28,0,0,1-2.562.715,4.47,4.47,0,0,1-1.887-.379A3.166,3.166,0,0,1,72.1,33.738a2.414,2.414,0,0,1-.469-1.426h2.141a1.179,1.179,0,0,0,.445.922,1.766,1.766,0,0,0,1.109.32,1.635,1.635,0,0,0,.98-.246A.766.766,0,0,0,76.641,32.664ZM82.672,35H80.406V26.547h2.266Zm-2.4-10.641a1.112,1.112,0,0,1,.34-.836,1.465,1.465,0,0,1,1.848,0,1.193,1.193,0,0,1,0,1.68,1.448,1.448,0,0,1-1.836,0A1.108,1.108,0,0,1,80.273,24.359ZM84.18,30.7a5.013,5.013,0,0,1,.484-2.242,3.546,3.546,0,0,1,1.395-1.523,4.069,4.069,0,0,1,2.113-.539,3.849,3.849,0,0,1,2.793,1.047,4.2,4.2,0,0,1,1.207,2.844l.016.578A4.418,4.418,0,0,1,91.1,33.98a4.209,4.209,0,0,1-5.832,0A4.5,4.5,0,0,1,84.18,30.8Zm2.258.16a3.16,3.16,0,0,0,.453,1.843,1.628,1.628,0,0,0,2.578.008,3.457,3.457,0,0,0,.461-2.015,3.128,3.128,0,0,0-.461-1.831,1.5,1.5,0,0,0-1.3-.649,1.474,1.474,0,0,0-1.281.646A3.516,3.516,0,0,0,86.438,30.856ZM88.617,23h2.461l-2.164,2.422H87.078Zm7.039,3.547.07.977a2.951,2.951,0,0,1,2.43-1.133,2.453,2.453,0,0,1,2,.789,3.682,3.682,0,0,1,.672,2.359V35H98.57V29.594a1.465,1.465,0,0,0-.312-1.043,1.4,1.4,0,0,0-1.039-.324,1.553,1.553,0,0,0-1.43.813V35H93.531V26.547Z" transform="translate(1055.676 1996)" fill="#12263f"/>
    <g id="Grupo_142471" data-name="Grupo 142471" transform="translate(1086.484 1931.463)">
      <ellipse id="Elipse_4871" data-name="Elipse 4871" cx="28.5" cy="29" rx="28.5" ry="29" transform="translate(0.191 -0.463)" fill="url(#linear-gradient)"/>
      <g id="Grupo_28520" data-name="Grupo 28520" transform="translate(14.331 12.581)">
        <path id="Trazado_67883" data-name="Trazado 67883" d="M226.969,210.488a3.465,3.465,0,1,1,3.466-3.466A3.469,3.469,0,0,1,226.969,210.488Zm0-6.006a2.54,2.54,0,1,0,2.54,2.54A2.543,2.543,0,0,0,226.969,204.482Z" transform="translate(-216.813 -199.421)" fill="#12263f"/>
        <path id="Trazado_67884" data-name="Trazado 67884" d="M226.969,244.746a3.466,3.466,0,1,1,3.466-3.466A3.469,3.469,0,0,1,226.969,244.746Zm0-6.006a2.54,2.54,0,1,0,2.54,2.54A2.543,2.543,0,0,0,226.969,238.74Z" transform="translate(-216.813 -224.041)" fill="#12263f"/>
        <path id="Trazado_67885" data-name="Trazado 67885" d="M226.969,279a3.465,3.465,0,1,1,3.466-3.466A3.469,3.469,0,0,1,226.969,279Zm0-6.006a2.54,2.54,0,1,0,2.54,2.54A2.543,2.543,0,0,0,226.969,273Z" transform="translate(-216.813 -248.662)" fill="#12263f"/>
        <path id="Trazado_67886" data-name="Trazado 67886" d="M204.018,198.282h-3.035a1.262,1.262,0,1,1,0-2.524h3.035a1.262,1.262,0,1,1,0,2.524Zm-3.035-1.6a.337.337,0,1,0,0,.674h3.035a.337.337,0,1,0,0-.674Z" transform="translate(-199.72 -193.816)" fill="#12263f"/>
        <path id="Trazado_67887" data-name="Trazado 67887" d="M204.018,218.238h-3.035a1.262,1.262,0,0,1,0-2.525h3.035a1.262,1.262,0,0,1,0,2.525Zm-3.035-1.6a.337.337,0,1,0,0,.674h3.035a.337.337,0,0,0,0-.674Z" transform="translate(-199.72 -208.157)" fill="#12263f"/>
        <path id="Trazado_67888" data-name="Trazado 67888" d="M204.018,238.193h-3.035a1.262,1.262,0,0,1,0-2.525h3.035a1.262,1.262,0,0,1,0,2.525Zm-3.035-1.6a.337.337,0,0,0,0,.674h3.035a.337.337,0,0,0,0-.674Z" transform="translate(-199.72 -222.498)" fill="#12263f"/>
        <path id="Trazado_67889" data-name="Trazado 67889" d="M204.018,258.149h-3.035a1.262,1.262,0,1,1,0-2.525h3.035a1.262,1.262,0,0,1,0,2.525Zm-3.035-1.6a.337.337,0,0,0,0,.674h3.035a.337.337,0,0,0,0-.674Z" transform="translate(-199.72 -236.84)" fill="#12263f"/>
        <path id="Trazado_67890" data-name="Trazado 67890" d="M204.018,278.1h-3.035a1.262,1.262,0,0,1,0-2.525h3.035a1.262,1.262,0,0,1,0,2.525Zm-3.035-1.6a.337.337,0,1,0,0,.674h3.035a.337.337,0,0,0,0-.674Z" transform="translate(-199.72 -251.182)" fill="#12263f"/>
        <path id="Trazado_67891" data-name="Trazado 67891" d="M204.018,298.06h-3.035a1.262,1.262,0,1,1,0-2.524h3.035a1.262,1.262,0,1,1,0,2.524Zm-3.035-1.6a.337.337,0,1,0,0,.674h3.035a.337.337,0,0,0,0-.674Z" transform="translate(-199.72 -265.524)" fill="#12263f"/>
        <path id="Trazado_67892" data-name="Trazado 67892" d="M233.973,223.334H209.965a1.081,1.081,0,0,1-1.079-1.079v-1.326a.463.463,0,0,1,.462-.462h1.257a.337.337,0,0,0,.336-.356.372.372,0,0,0-.382-.318h-1.211a.462.462,0,0,1-.462-.463v-4.014a.463.463,0,0,1,.462-.463h1.257a.336.336,0,0,0,.336-.356.372.372,0,0,0-.382-.318h-1.211a.463.463,0,0,1-.462-.463V209.7a.462.462,0,0,1,.462-.462h1.257a.337.337,0,0,0,.336-.356.372.372,0,0,0-.382-.318h-1.211a.463.463,0,0,1-.462-.463v-4.014a.462.462,0,0,1,.462-.463h1.257a.337.337,0,0,0,.336-.356.372.372,0,0,0-.382-.319h-1.211a.463.463,0,0,1-.462-.462v-4.015a.463.463,0,0,1,.462-.463h1.257a.337.337,0,0,0,.336-.356.372.372,0,0,0-.382-.318h-1.211a.463.463,0,0,1-.462-.463v-4.015a.463.463,0,0,1,.462-.463h1.257a.336.336,0,0,0,.336-.356.372.372,0,0,0-.382-.318h-1.211a.463.463,0,0,1-.462-.463v-1.325a1.08,1.08,0,0,1,1.079-1.079h24.008a1.08,1.08,0,0,1,1.079,1.079v32.32A1.081,1.081,0,0,1,233.973,223.334Zm-24.162-1.942v.863a.154.154,0,0,0,.154.154h24.008a.154.154,0,0,0,.154-.154v-32.32a.154.154,0,0,0-.154-.154H209.965a.154.154,0,0,0-.154.154v.863h.749a1.286,1.286,0,0,1,1.306,1.2,1.252,1.252,0,0,1-.345.936,1.268,1.268,0,0,1-.916.394h-.794v3.09h.749a1.286,1.286,0,0,1,1.306,1.2,1.252,1.252,0,0,1-.345.936,1.267,1.267,0,0,1-.916.394h-.794v3.089h.749a1.286,1.286,0,0,1,1.306,1.2,1.251,1.251,0,0,1-.345.936,1.266,1.266,0,0,1-.916.394h-.794v3.09h.749a1.286,1.286,0,0,1,1.306,1.2,1.251,1.251,0,0,1-.345.936,1.266,1.266,0,0,1-.916.394h-.794v3.089h.749a1.286,1.286,0,0,1,1.306,1.2,1.251,1.251,0,0,1-.345.936,1.266,1.266,0,0,1-.916.394h-.794v3.09h.749a1.286,1.286,0,0,1,1.306,1.195,1.252,1.252,0,0,1-.345.936,1.267,1.267,0,0,1-.916.394Z" transform="translate(-206.307 -188.855)" fill="#12263f"/>
        <path id="Trazado_67893" data-name="Trazado 67893" d="M234.64,229.462a.462.462,0,0,1-.462-.463v-3.632a.463.463,0,1,1,.925,0V229A.463.463,0,0,1,234.64,229.462Z" transform="translate(-224.484 -214.763)" fill="#12263f"/>
        <path id="Trazado_67894" data-name="Trazado 67894" d="M234.64,263.72a.462.462,0,0,1-.462-.462v-3.632a.463.463,0,1,1,.925,0v3.632A.463.463,0,0,1,234.64,263.72Z" transform="translate(-224.484 -239.384)" fill="#12263f"/>
        <path id="Trazado_67895" data-name="Trazado 67895" d="M254.36,207.856h-1.388a.463.463,0,0,1,0-.925h1.388a.463.463,0,0,1,0,.925Z" transform="translate(-237.659 -201.846)" fill="#12263f"/>
        <path id="Trazado_67896" data-name="Trazado 67896" d="M270.143,207.856h-2.687a.463.463,0,0,1,0-.925h2.687a.463.463,0,0,1,0,.925Z" transform="translate(-248.068 -201.846)" fill="#12263f"/>
        <path id="Trazado_67897" data-name="Trazado 67897" d="M287.946,207.856h-1.388a.463.463,0,0,1,0-.925h1.388a.463.463,0,0,1,0,.925Z" transform="translate(-261.796 -201.846)" fill="#12263f"/>
        <path id="Trazado_67898" data-name="Trazado 67898" d="M263.809,222.456H252.973a.462.462,0,1,1,0-.925h10.836a.462.462,0,0,1,0,.925Z" transform="translate(-237.659 -212.338)" fill="#12263f"/>
        <path id="Trazado_67899" data-name="Trazado 67899" d="M263.809,242.114H252.973a.463.463,0,0,1,0-.925h10.836a.463.463,0,0,1,0,.925Z" transform="translate(-237.659 -226.466)" fill="#12263f"/>
        <path id="Trazado_67900" data-name="Trazado 67900" d="M263.809,256.714H252.973a.463.463,0,0,1,0-.925h10.836a.463.463,0,0,1,0,.925Z" transform="translate(-237.659 -236.959)" fill="#12263f"/>
        <path id="Trazado_67901" data-name="Trazado 67901" d="M263.809,276.373H252.973a.463.463,0,0,1,0-.925h10.836a.463.463,0,0,1,0,.925Z" transform="translate(-237.659 -251.087)" fill="#12263f"/>
        <path id="Trazado_67902" data-name="Trazado 67902" d="M263.809,290.972H252.973a.463.463,0,0,1,0-.925h10.836a.463.463,0,0,1,0,.925Z" transform="translate(-237.659 -261.579)" fill="#12263f"/>
      </g>
    </g>
  </g>
</svg>
