<svg xmlns="http://www.w3.org/2000/svg" xmlns:xlink="http://www.w3.org/1999/xlink" width="166" height="140" viewBox="0 0 166 140">
  <defs>
    <filter id="Rect치ngulo_37326" x="0" y="0" width="166" height="140" filterUnits="userSpaceOnUse">
      <feOffset dy="3" input="SourceAlpha"/>
      <feGaussianBlur stdDeviation="3" result="blur"/>
      <feFlood flood-opacity="0.161"/>
      <feComposite operator="in" in2="blur"/>
      <feComposite in="SourceGraphic"/>
    </filter>
    <linearGradient id="linear-gradient" x1="0.5" x2="0.5" y2="1" gradientUnits="objectBoundingBox">
      <stop offset="0" stop-color="#4dd0e1"/>
      <stop offset="1" stop-color="#039be5"/>
    </linearGradient>
  </defs>
  <g id="Grupo_152017" data-name="Grupo 152017" transform="translate(-241.676 -1914)">
    <g id="Grupo_152016" data-name="Grupo 152016">
      <g transform="matrix(1, 0, 0, 1, 241.68, 1914)" filter="url(#Rect치ngulo_37326)">
        <rect id="Rect치ngulo_37326-2" data-name="Rect치ngulo 37326" width="148" height="122" rx="10" transform="translate(9 6)" fill="#fff"/>
      </g>
    </g>
    <path id="Trazado_194453" data-name="Trazado 194453" d="M41.852,12.836H39.984V17H37.641V5.625h4.227a4.778,4.778,0,0,1,3.109.9A3.1,3.1,0,0,1,46.07,9.063a3.5,3.5,0,0,1-.5,1.941,3.437,3.437,0,0,1-1.527,1.238L46.5,16.891V17H43.984Zm-1.867-1.9h1.891a1.936,1.936,0,0,0,1.367-.449,1.606,1.606,0,0,0,.484-1.238,1.719,1.719,0,0,0-.457-1.266,1.9,1.9,0,0,0-1.4-.461H39.984Zm11.609,6.219a4.15,4.15,0,0,1-3.027-1.141A4.054,4.054,0,0,1,47.4,12.977v-.219a5.106,5.106,0,0,1,.492-2.277,3.612,3.612,0,0,1,1.395-1.547,3.914,3.914,0,0,1,2.059-.543,3.508,3.508,0,0,1,2.73,1.094,4.444,4.444,0,0,1,1,3.1v.922H49.688a2.1,2.1,0,0,0,.66,1.328,2,2,0,0,0,1.395.5,2.437,2.437,0,0,0,2.039-.945l1.109,1.242a3.389,3.389,0,0,1-1.375,1.121A4.511,4.511,0,0,1,51.594,17.156Zm-.258-6.945a1.411,1.411,0,0,0-1.09.455,2.357,2.357,0,0,0-.535,1.3h3.141v-.181a1.681,1.681,0,0,0-.406-1.165A1.456,1.456,0,0,0,51.336,10.211ZM56,12.711a5.094,5.094,0,0,1,.887-3.148,2.877,2.877,0,0,1,2.426-1.172,2.589,2.589,0,0,1,2.039.922V5h2.266V17H61.578l-.109-.9A2.657,2.657,0,0,1,59.3,17.156,2.869,2.869,0,0,1,56.9,15.98,5.258,5.258,0,0,1,56,12.711Zm2.258.168a3.337,3.337,0,0,0,.414,1.823,1.349,1.349,0,0,0,1.2.634,1.511,1.511,0,0,0,1.477-.884V11.111a1.489,1.489,0,0,0-1.461-.884Q58.258,10.227,58.258,12.879Zm11,4.277a4.15,4.15,0,0,1-3.027-1.141,4.054,4.054,0,0,1-1.168-3.039v-.219a5.106,5.106,0,0,1,.492-2.277,3.612,3.612,0,0,1,1.395-1.547,3.914,3.914,0,0,1,2.059-.543,3.508,3.508,0,0,1,2.73,1.094,4.444,4.444,0,0,1,1,3.1v.922H67.352a2.1,2.1,0,0,0,.66,1.328,2,2,0,0,0,1.395.5,2.437,2.437,0,0,0,2.039-.945l1.109,1.242a3.389,3.389,0,0,1-1.375,1.121A4.511,4.511,0,0,1,69.258,17.156ZM69,10.211a1.411,1.411,0,0,0-1.09.455,2.357,2.357,0,0,0-.535,1.3h3.141v-.181a1.681,1.681,0,0,0-.406-1.165A1.456,1.456,0,0,0,69,10.211Zm9.594,4.453a.727.727,0,0,0-.41-.652,4.659,4.659,0,0,0-1.316-.426q-3.016-.633-3.016-2.562a2.323,2.323,0,0,1,.934-1.879,3.766,3.766,0,0,1,2.441-.754,4.053,4.053,0,0,1,2.574.758,2.388,2.388,0,0,1,.965,1.969H78.508a1.092,1.092,0,0,0-.312-.8A1.322,1.322,0,0,0,77.219,10a1.351,1.351,0,0,0-.883.258.814.814,0,0,0-.312.656.7.7,0,0,0,.355.605,3.657,3.657,0,0,0,1.2.4A9.8,9.8,0,0,1,79,12.3a2.336,2.336,0,0,1,1.789,2.273,2.2,2.2,0,0,1-.992,1.871,4.28,4.28,0,0,1-2.562.715,4.47,4.47,0,0,1-1.887-.379,3.166,3.166,0,0,1-1.293-1.039,2.414,2.414,0,0,1-.469-1.426h2.141a1.179,1.179,0,0,0,.445.922,1.766,1.766,0,0,0,1.109.32,1.635,1.635,0,0,0,.98-.246A.766.766,0,0,0,78.594,14.664ZM28.672,30.711a5.094,5.094,0,0,1,.887-3.148,2.877,2.877,0,0,1,2.426-1.172,2.589,2.589,0,0,1,2.039.922V23h2.266V35H34.25l-.109-.9a2.657,2.657,0,0,1-2.172,1.055,2.869,2.869,0,0,1-2.395-1.176A5.258,5.258,0,0,1,28.672,30.711Zm2.258.168a3.337,3.337,0,0,0,.414,1.823,1.349,1.349,0,0,0,1.2.634,1.511,1.511,0,0,0,1.477-.884V29.111a1.489,1.489,0,0,0-1.461-.884Q30.93,28.227,30.93,30.879Zm11,4.277A4.15,4.15,0,0,1,38.9,34.016a4.054,4.054,0,0,1-1.168-3.039v-.219a5.106,5.106,0,0,1,.492-2.277,3.612,3.612,0,0,1,1.395-1.547,3.914,3.914,0,0,1,2.059-.543,3.508,3.508,0,0,1,2.73,1.094,4.444,4.444,0,0,1,1,3.1v.922H40.023a2.1,2.1,0,0,0,.66,1.328,2,2,0,0,0,1.395.5,2.437,2.437,0,0,0,2.039-.945l1.109,1.242a3.389,3.389,0,0,1-1.375,1.121A4.511,4.511,0,0,1,41.93,35.156Zm-.258-6.945a1.411,1.411,0,0,0-1.09.455,2.357,2.357,0,0,0-.535,1.3h3.141v-.181a1.681,1.681,0,0,0-.406-1.165A1.456,1.456,0,0,0,41.672,28.211Zm8.648,2.5a5.094,5.094,0,0,1,.887-3.148,2.877,2.877,0,0,1,2.426-1.172,2.589,2.589,0,0,1,2.039.922V23h2.266V35H55.9l-.109-.9a2.657,2.657,0,0,1-2.172,1.055,2.869,2.869,0,0,1-2.395-1.176A5.258,5.258,0,0,1,50.32,30.711Zm2.258.168a3.337,3.337,0,0,0,.414,1.823,1.349,1.349,0,0,0,1.2.634,1.511,1.511,0,0,0,1.477-.884V29.111a1.489,1.489,0,0,0-1.461-.884Q52.578,28.227,52.578,30.879ZM64.586,35a2.507,2.507,0,0,1-.227-.758,2.732,2.732,0,0,1-2.133.914,3,3,0,0,1-2.059-.719,2.312,2.312,0,0,1-.816-1.812,2.389,2.389,0,0,1,1-2.062,4.915,4.915,0,0,1,2.879-.727h1.039v-.484a1.393,1.393,0,0,0-.3-.937,1.183,1.183,0,0,0-.949-.352,1.345,1.345,0,0,0-.895.273.929.929,0,0,0-.324.75H59.539a2.268,2.268,0,0,1,.453-1.359,3,3,0,0,1,1.281-.98,4.669,4.669,0,0,1,1.859-.355,3.689,3.689,0,0,1,2.48.785,2.747,2.747,0,0,1,.918,2.207v3.664a4.041,4.041,0,0,0,.336,1.82V35Zm-1.867-1.57a1.945,1.945,0,0,0,.922-.223,1.462,1.462,0,0,0,.625-.6V31.156h-.844q-1.7,0-1.8,1.172l-.008.133a.9.9,0,0,0,.3.7A1.153,1.153,0,0,0,62.719,33.43Zm8.25-8.961v2.078h1.445V28.2H70.969v4.219a1.007,1.007,0,0,0,.18.672.9.9,0,0,0,.688.2,3.6,3.6,0,0,0,.664-.055v1.711a4.648,4.648,0,0,1-1.367.2,2.156,2.156,0,0,1-2.422-2.4V28.2H67.477V26.547h1.234V24.469ZM73.086,30.7a5.013,5.013,0,0,1,.484-2.242,3.546,3.546,0,0,1,1.395-1.523,4.069,4.069,0,0,1,2.113-.539,3.849,3.849,0,0,1,2.793,1.047,4.2,4.2,0,0,1,1.207,2.844l.016.578a4.418,4.418,0,0,1-1.086,3.121,4.209,4.209,0,0,1-5.832,0,4.5,4.5,0,0,1-1.09-3.187Zm2.258.16A3.16,3.16,0,0,0,75.8,32.7a1.628,1.628,0,0,0,2.578.008,3.457,3.457,0,0,0,.461-2.015,3.128,3.128,0,0,0-.461-1.831,1.5,1.5,0,0,0-1.3-.649,1.474,1.474,0,0,0-1.281.646A3.516,3.516,0,0,0,75.344,30.856Zm11.719,1.808a.727.727,0,0,0-.41-.652,4.659,4.659,0,0,0-1.316-.426q-3.016-.633-3.016-2.562a2.323,2.323,0,0,1,.934-1.879,3.766,3.766,0,0,1,2.441-.754,4.053,4.053,0,0,1,2.574.758,2.388,2.388,0,0,1,.965,1.969H86.977a1.092,1.092,0,0,0-.312-.8A1.322,1.322,0,0,0,85.688,28a1.351,1.351,0,0,0-.883.258.814.814,0,0,0-.312.656.7.7,0,0,0,.355.605,3.657,3.657,0,0,0,1.2.4,9.8,9.8,0,0,1,1.422.379,2.336,2.336,0,0,1,1.789,2.273,2.2,2.2,0,0,1-.992,1.871,4.28,4.28,0,0,1-2.562.715,4.47,4.47,0,0,1-1.887-.379,3.166,3.166,0,0,1-1.293-1.039,2.414,2.414,0,0,1-.469-1.426H84.2a1.179,1.179,0,0,0,.445.922,1.766,1.766,0,0,0,1.109.32,1.635,1.635,0,0,0,.98-.246A.766.766,0,0,0,87.063,32.664Z" transform="translate(261.676 1996)" fill="#12263f"/>
    <g id="Grupo_142469" data-name="Grupo 142469" transform="translate(293.66 1931.463)">
      <ellipse id="Elipse_4775" data-name="Elipse 4775" cx="28" cy="29" rx="28" ry="29" transform="translate(0.016 -0.463)" fill="url(#linear-gradient)"/>
      <g id="jS21yb.tif" transform="translate(14.315 12.106)">
        <g id="Grupo_142300" data-name="Grupo 142300" transform="translate(0 0)">
          <path id="Trazado_118083" data-name="Trazado 118083" d="M-107.838,2636.549c1.128-1.339,2.107-2.507,3.093-3.67a1.987,1.987,0,0,1,3.177-.284c1.959,1.619,2.015,2.245.377,4.2-2.1,2.5-4.2,4.987-6.279,7.5a1.673,1.673,0,0,0-.352.98c-.024,3.839-.014,7.679-.016,11.518,0,1.417-.606,2.02-2.028,2.02q-10.2,0-20.4,0c-1.379,0-1.994-.612-1.994-1.985q0-14.675,0-29.35a1.708,1.708,0,0,1,1.941-1.968c5.573,0,11.147,0,16.72-.009a2.177,2.177,0,0,1,1.671.679q1.7,1.737,3.433,3.435a2.092,2.092,0,0,1,.66,1.61C-107.851,2632.926-107.838,2634.63-107.838,2636.549Zm-1.109-5.494c-1.22,0-2.37,0-3.519,0-.807,0-.917-.114-.92-.928,0-1.148,0-2.3,0-3.462a3.031,3.031,0,0,0-.336-.045q-8.322,0-16.645-.009c-.684,0-.786.373-.786.936q.011,14.6.006,29.2c0,.852.1.953.965.953q10.126,0,20.251,0c.9,0,.983-.089.983-1q0-4.925,0-9.85v-.8c-1.008,1.195-1.876,2.23-2.754,3.258a2,2,0,0,1-.6.563q-2.049.932-4.129,1.8a.546.546,0,0,1-.788-.662c.327-1.465.682-2.925,1.055-4.379a1.8,1.8,0,0,1,.408-.629c1.908-2.292,3.78-4.615,5.755-6.848a3.846,3.846,0,0,0,1.073-2.975C-109.018,2634.492-108.947,2632.808-108.947,2631.055Zm3.574,4.281-9.472,11.294,2.318,1.945,9.473-11.291Z" transform="translate(132.259 -2625.498)" fill="#12263f"/>
          <path id="Trazado_118084" data-name="Trazado 118084" d="M-102.165,2753.487h-1.522a.6.6,0,0,1-.681-.68c0-1.038,0-2.075,0-3.113a.576.576,0,0,1,.642-.643c1.037,0,2.075,0,3.112,0a.6.6,0,0,1,.681.679c0,1.038,0,2.075,0,3.113a.577.577,0,0,1-.642.644C-101.1,2753.49-101.635,2753.487-102.165,2753.487Zm1.111-3.282h-2.152v2.116h2.152Z" transform="translate(108.254 -2731.834)" fill="#12263f"/>
          <path id="Trazado_118085" data-name="Trazado 118085" d="M-102.147,2796.821c.484,0,.968.007,1.452,0s.737.2.735.7q0,1.522,0,3.044c0,.5-.249.705-.731.7-.991-.007-1.983-.009-2.974,0-.531,0-.744-.253-.738-.768.012-.968.014-1.937,0-2.905-.009-.566.256-.792.8-.772C-103.116,2796.834-102.631,2796.82-102.147,2796.821Zm1.033,3.315v-2.155h-2.119v2.155Z" transform="translate(108.284 -2772.944)" fill="#12263f"/>
          <path id="Trazado_118086" data-name="Trazado 118086" d="M-58.86,2713.177c1.569,0,3.139,0,4.708,0,.428,0,.842.054.821.59-.019.486-.42.525-.817.524q-4.708-.007-9.416,0c-.428,0-.842-.053-.821-.589.019-.488.42-.526.817-.524C-62,2713.18-60.429,2713.177-58.86,2713.177Z" transform="translate(73.843 -2700.957)" fill="#12263f"/>
          <path id="Trazado_118087" data-name="Trazado 118087" d="M-56.77,2666.475c-.945,0-1.893.038-2.834-.025a.935.935,0,0,1-.7-.529c-.081-.416.289-.557.684-.556,1.914,0,3.828-.019,5.74.025.249.006.49.341.735.523-.24.187-.471.519-.722.535C-54.83,2666.513-55.8,2666.475-56.77,2666.475Z" transform="translate(70.34 -2659.808)" fill="#12263f"/>
          <path id="Trazado_118088" data-name="Trazado 118088" d="M-101.239,2656.286c.454-.9.851-1.671,1.235-2.451.186-.377.4-.749.881-.5s.291.647.1,1.015c-.478.944-.943,1.9-1.426,2.838-.335.652-.643.707-1.161.208a15.376,15.376,0,0,1-1.4-1.431c-.146-.182-.06-.551-.081-.834.284.024.637-.049.835.094A7.786,7.786,0,0,1-101.239,2656.286Z" transform="translate(107.157 -2649.386)" fill="#12263f"/>
          <path id="Trazado_118089" data-name="Trazado 118089" d="M-102.286,2704.077c.446-.887.83-1.643,1.207-2.4.181-.366.378-.766.869-.536s.33.627.14,1c-.489.965-.963,1.938-1.459,2.9-.314.608-.628.658-1.121.189-.467-.444-.914-.91-1.373-1.363-.271-.267-.454-.566-.139-.9.347-.365.664-.167.945.126S-102.649,2703.695-102.286,2704.077Z" transform="translate(108.221 -2690.54)" fill="#12263f"/>
          <path id="Trazado_118090" data-name="Trazado 118090" d="M-61.309,2762.078c-.784,0-1.567,0-2.351,0-.4,0-.746-.167-.66-.582a.874.874,0,0,1,.659-.5c1.566-.044,3.134-.022,4.7-.024.4,0,.746.167.661.581a.889.889,0,0,1-.661.5C-59.739,2762.119-60.526,2762.078-61.309,2762.078Z" transform="translate(73.798 -2742.089)" fill="#12263f"/>
          <path id="Trazado_118091" data-name="Trazado 118091" d="M-62.293,2809.8a9.184,9.184,0,0,1-1.515-.024c-.245-.041-.446-.341-.666-.523.217-.186.425-.521.652-.533a28.022,28.022,0,0,1,3.1,0c.23.013.443.34.664.523-.217.186-.414.5-.655.533A10.191,10.191,0,0,1-62.293,2809.8Z" transform="translate(73.919 -2783.155)" fill="#12263f"/>
        </g>
      </g>
    </g>
  </g>
</svg>
