<svg xmlns="http://www.w3.org/2000/svg" xmlns:xlink="http://www.w3.org/1999/xlink" width="240.735" height="240.735" viewBox="0 0 240.735 240.735">
  <defs>
    <linearGradient id="linear-gradient" x1="0.317" y1="0.753" x2="0.831" y2="1.256" gradientUnits="objectBoundingBox">
      <stop offset="0" stop-color="#fff"/>
      <stop offset="0.231" stop-color="#f7f7f6"/>
      <stop offset="0.589" stop-color="#e1e1e1"/>
      <stop offset="1" stop-color="#c1c1c0"/>
    </linearGradient>
    <linearGradient id="linear-gradient-2" x1="0.495" y1="0.947" x2="0.182" y2="0.545" gradientUnits="objectBoundingBox">
      <stop offset="0" stop-color="#fff"/>
      <stop offset="0.38" stop-color="#f7f7f7"/>
      <stop offset="0.968" stop-color="#e1e2e4"/>
      <stop offset="0.994" stop-color="#e0e1e3"/>
    </linearGradient>
  </defs>
  <g id="Grupo_152012" data-name="Grupo 152012" transform="translate(-577.865 -1247.571)">
    <g id="Grupo_149862" data-name="Grupo 149862" transform="translate(101.77 -742.98)">
      <circle id="Elipse_5007" data-name="Elipse 5007" cx="85.113" cy="85.113" r="85.113" transform="translate(476.096 2110.919) rotate(-45)" fill="#ff2c9c"/>
      <path id="Trazado_188205" data-name="Trazado 188205" d="M833.444,749.478l-10.083,10.037-7.237,7.2a2.864,2.864,0,0,1-4.885-2.03V754.124a85.113,85.113,0,0,1-85.113-85.113q0-3.365.259-6.666a85.119,85.119,0,0,0,84.854,78.446V730.207a2.864,2.864,0,0,1,4.885-2.03l7.237,7.2,10.083,10.037A2.864,2.864,0,0,1,833.444,749.478Z" transform="translate(-214.777 1454.312)" fill="#12263f"/>
      <circle id="Elipse_5008" data-name="Elipse 5008" cx="14.85" cy="14.85" r="14.85" transform="translate(494.293 2123.171) rotate(-80.689)" fill="#12263f"/>
      <g id="Grupo_149828" data-name="Grupo 149828" transform="translate(529.27 2043.506)" opacity="0.6" style="mix-blend-mode: multiply;isolation: isolate">
        <path id="Trazado_187755" data-name="Trazado 187755" d="M900,720.613a67.261,67.261,0,1,1,67.26-67.262A67.338,67.338,0,0,1,900,720.613Z" transform="translate(-801.107 -548.382)" fill="#fff" opacity="0"/>
        <path id="Trazado_187756" data-name="Trazado 187756" d="M899.328,719.809a67.261,67.261,0,1,1,67.26-67.262A67.338,67.338,0,0,1,899.328,719.809Z" transform="translate(-800.747 -547.951)" fill="#f9f9f9" opacity="0.01"/>
        <path id="Trazado_187757" data-name="Trazado 187757" d="M898.655,719.006a67.261,67.261,0,1,1,67.26-67.262A67.338,67.338,0,0,1,898.655,719.006Z" transform="translate(-800.386 -547.522)" fill="#f4f3f3" opacity="0.02"/>
        <path id="Trazado_187758" data-name="Trazado 187758" d="M897.98,718.2a67.261,67.261,0,1,1,67.26-67.262A67.338,67.338,0,0,1,897.98,718.2Z" transform="translate(-800.025 -547.092)" fill="#f0efef" opacity="0.03"/>
        <path id="Trazado_187759" data-name="Trazado 187759" d="M897.307,717.4a67.261,67.261,0,1,1,67.26-67.262A67.337,67.337,0,0,1,897.307,717.4Z" transform="translate(-799.665 -546.662)" fill="#ecebeb" opacity="0.04"/>
        <path id="Trazado_187760" data-name="Trazado 187760" d="M896.633,716.6a67.261,67.261,0,1,1,67.26-67.262A67.338,67.338,0,0,1,896.633,716.6Z" transform="translate(-799.304 -546.232)" fill="#e9e7e7" opacity="0.05"/>
        <path id="Trazado_187761" data-name="Trazado 187761" d="M895.959,715.793a67.261,67.261,0,1,1,67.26-67.262A67.338,67.338,0,0,1,895.959,715.793Z" transform="translate(-798.944 -545.802)" fill="#e6e4e4" opacity="0.059"/>
        <path id="Trazado_187762" data-name="Trazado 187762" d="M895.285,714.99a67.261,67.261,0,1,1,67.261-67.262A67.338,67.338,0,0,1,895.285,714.99Z" transform="translate(-798.583 -545.372)" fill="#e3e1e1" opacity="0.069"/>
        <path id="Trazado_187763" data-name="Trazado 187763" d="M894.611,714.186a67.261,67.261,0,1,1,67.26-67.262A67.337,67.337,0,0,1,894.611,714.186Z" transform="translate(-798.222 -544.942)" fill="#e0dedd" opacity="0.079"/>
        <path id="Trazado_187764" data-name="Trazado 187764" d="M893.938,713.383a67.261,67.261,0,1,1,67.26-67.262A67.338,67.338,0,0,1,893.938,713.383Z" transform="translate(-797.861 -544.512)" fill="#dddbdb" opacity="0.089"/>
        <path id="Trazado_187765" data-name="Trazado 187765" d="M893.264,712.58a67.261,67.261,0,1,1,67.26-67.262A67.337,67.337,0,0,1,893.264,712.58Z" transform="translate(-797.501 -544.082)" fill="#dad8d8" opacity="0.099"/>
        <path id="Trazado_187766" data-name="Trazado 187766" d="M892.59,711.777a67.261,67.261,0,1,1,67.26-67.262A67.338,67.338,0,0,1,892.59,711.777Z" transform="translate(-797.14 -543.653)" fill="#d8d5d5" opacity="0.109"/>
        <path id="Trazado_187767" data-name="Trazado 187767" d="M891.916,710.973a67.261,67.261,0,1,1,67.26-67.262A67.338,67.338,0,0,1,891.916,710.973Z" transform="translate(-796.78 -543.222)" fill="#d5d2d2" opacity="0.119"/>
        <path id="Trazado_187768" data-name="Trazado 187768" d="M891.242,710.17a67.261,67.261,0,1,1,67.26-67.262A67.338,67.338,0,0,1,891.242,710.17Z" transform="translate(-796.419 -542.793)" fill="#d2d0cf" opacity="0.129"/>
        <path id="Trazado_187769" data-name="Trazado 187769" d="M890.568,709.367a67.261,67.261,0,1,1,67.26-67.262A67.338,67.338,0,0,1,890.568,709.367Z" transform="translate(-796.058 -542.363)" fill="#d0cdcd" opacity="0.139"/>
        <path id="Trazado_187770" data-name="Trazado 187770" d="M889.895,708.563a67.261,67.261,0,1,1,67.26-67.261A67.338,67.338,0,0,1,889.895,708.563Z" transform="translate(-795.698 -541.932)" fill="#cdcbca" opacity="0.149"/>
        <path id="Trazado_187771" data-name="Trazado 187771" d="M889.221,707.76a67.261,67.261,0,1,1,67.26-67.262A67.337,67.337,0,0,1,889.221,707.76Z" transform="translate(-795.337 -541.503)" fill="#cbc8c8" opacity="0.158"/>
        <path id="Trazado_187772" data-name="Trazado 187772" d="M888.547,706.957a67.261,67.261,0,1,1,67.26-67.262A67.338,67.338,0,0,1,888.547,706.957Z" transform="translate(-794.977 -541.073)" fill="#c8c5c5" opacity="0.168"/>
        <path id="Trazado_187773" data-name="Trazado 187773" d="M887.873,706.154a67.261,67.261,0,1,1,67.26-67.262A67.338,67.338,0,0,1,887.873,706.154Z" transform="translate(-794.616 -540.643)" fill="#c6c3c2" opacity="0.178"/>
        <path id="Trazado_187774" data-name="Trazado 187774" d="M887.2,705.35a67.261,67.261,0,1,1,67.261-67.262A67.338,67.338,0,0,1,887.2,705.35Z" transform="translate(-794.255 -540.213)" fill="#c3c0c0" opacity="0.188"/>
        <path id="Trazado_187775" data-name="Trazado 187775" d="M886.526,704.547a67.261,67.261,0,1,1,67.26-67.262A67.338,67.338,0,0,1,886.526,704.547Z" transform="translate(-793.894 -539.783)" fill="#c1bebe" opacity="0.198"/>
        <path id="Trazado_187776" data-name="Trazado 187776" d="M885.852,703.744a67.261,67.261,0,1,1,67.26-67.262A67.338,67.338,0,0,1,885.852,703.744Z" transform="translate(-793.534 -539.353)" fill="#bebbbb" opacity="0.208"/>
        <path id="Trazado_187777" data-name="Trazado 187777" d="M885.178,702.94a67.261,67.261,0,1,1,67.26-67.262A67.337,67.337,0,0,1,885.178,702.94Z" transform="translate(-793.173 -538.923)" fill="#bcb9b9" opacity="0.218"/>
        <path id="Trazado_187778" data-name="Trazado 187778" d="M884.5,702.137a67.261,67.261,0,1,1,67.26-67.262A67.337,67.337,0,0,1,884.5,702.137Z" transform="translate(-792.813 -538.493)" fill="#bab7b6" opacity="0.228"/>
        <path id="Trazado_187779" data-name="Trazado 187779" d="M883.83,701.334a67.261,67.261,0,1,1,67.26-67.262A67.338,67.338,0,0,1,883.83,701.334Z" transform="translate(-792.452 -538.064)" fill="#b8b4b4" opacity="0.238"/>
        <path id="Trazado_187780" data-name="Trazado 187780" d="M883.156,700.53a67.261,67.261,0,1,1,67.261-67.262A67.338,67.338,0,0,1,883.156,700.53Z" transform="translate(-792.091 -537.633)" fill="#b5b2b2" opacity="0.248"/>
        <path id="Trazado_187781" data-name="Trazado 187781" d="M882.483,699.727a67.261,67.261,0,1,1,67.26-67.262A67.338,67.338,0,0,1,882.483,699.727Z" transform="translate(-791.73 -537.203)" fill="#b3b0af" opacity="0.257"/>
        <path id="Trazado_187782" data-name="Trazado 187782" d="M881.809,698.924a67.261,67.261,0,1,1,67.26-67.262A67.338,67.338,0,0,1,881.809,698.924Z" transform="translate(-791.37 -536.774)" fill="#b1adad" opacity="0.267"/>
        <path id="Trazado_187783" data-name="Trazado 187783" d="M881.135,698.121a67.261,67.261,0,1,1,67.26-67.262A67.337,67.337,0,0,1,881.135,698.121Z" transform="translate(-791.01 -536.344)" fill="#afabab" opacity="0.277"/>
        <path id="Trazado_187784" data-name="Trazado 187784" d="M880.461,697.317a67.261,67.261,0,1,1,67.26-67.262A67.337,67.337,0,0,1,880.461,697.317Z" transform="translate(-790.649 -535.914)" fill="#ada9a9" opacity="0.287"/>
        <path id="Trazado_187785" data-name="Trazado 187785" d="M879.787,696.514a67.261,67.261,0,1,1,67.26-67.262A67.338,67.338,0,0,1,879.787,696.514Z" transform="translate(-790.288 -535.484)" fill="#aaa7a6" opacity="0.297"/>
        <path id="Trazado_187786" data-name="Trazado 187786" d="M879.113,695.711a67.261,67.261,0,1,1,67.261-67.262A67.338,67.338,0,0,1,879.113,695.711Z" transform="translate(-789.927 -535.054)" fill="#a8a4a4" opacity="0.307"/>
        <path id="Trazado_187787" data-name="Trazado 187787" d="M878.44,694.908a67.261,67.261,0,1,1,67.26-67.262A67.338,67.338,0,0,1,878.44,694.908Z" transform="translate(-789.567 -534.624)" fill="#a6a2a2" opacity="0.317"/>
        <path id="Trazado_187788" data-name="Trazado 187788" d="M877.766,694.1a67.261,67.261,0,1,1,67.26-67.262A67.338,67.338,0,0,1,877.766,694.1Z" transform="translate(-789.206 -534.194)" fill="#a4a0a0" opacity="0.327"/>
        <path id="Trazado_187789" data-name="Trazado 187789" d="M877.092,693.3a67.261,67.261,0,1,1,67.26-67.262A67.337,67.337,0,0,1,877.092,693.3Z" transform="translate(-788.846 -533.764)" fill="#a29e9e" opacity="0.337"/>
        <path id="Trazado_187790" data-name="Trazado 187790" d="M876.418,692.5a67.261,67.261,0,1,1,67.26-67.262A67.337,67.337,0,0,1,876.418,692.5Z" transform="translate(-788.485 -533.334)" fill="#a09c9c" opacity="0.347"/>
        <path id="Trazado_187791" data-name="Trazado 187791" d="M875.744,691.694A67.261,67.261,0,1,1,943,624.433,67.338,67.338,0,0,1,875.744,691.694Z" transform="translate(-788.124 -532.904)" fill="#9e9a9a" opacity="0.356"/>
        <path id="Trazado_187792" data-name="Trazado 187792" d="M875.07,690.891a67.261,67.261,0,1,1,67.26-67.262A67.338,67.338,0,0,1,875.07,690.891Z" transform="translate(-787.763 -532.474)" fill="#9c9898" opacity="0.366"/>
        <path id="Trazado_187793" data-name="Trazado 187793" d="M874.4,690.088a67.261,67.261,0,1,1,67.26-67.262A67.338,67.338,0,0,1,874.4,690.088Z" transform="translate(-787.403 -532.044)" fill="#9a9696" opacity="0.376"/>
        <path id="Trazado_187794" data-name="Trazado 187794" d="M873.723,689.284a67.261,67.261,0,1,1,67.26-67.262A67.338,67.338,0,0,1,873.723,689.284Z" transform="translate(-787.042 -531.614)" fill="#989494" opacity="0.386"/>
        <path id="Trazado_187795" data-name="Trazado 187795" d="M873.049,688.481a67.261,67.261,0,1,1,67.26-67.262A67.337,67.337,0,0,1,873.049,688.481Z" transform="translate(-786.682 -531.184)" fill="#969292" opacity="0.396"/>
        <path id="Trazado_187796" data-name="Trazado 187796" d="M872.375,687.678a67.261,67.261,0,1,1,67.26-67.262A67.337,67.337,0,0,1,872.375,687.678Z" transform="translate(-786.321 -530.755)" fill="#949090" opacity="0.406"/>
        <path id="Trazado_187797" data-name="Trazado 187797" d="M871.7,686.875a67.261,67.261,0,1,1,67.26-67.262A67.338,67.338,0,0,1,871.7,686.875Z" transform="translate(-785.96 -530.325)" fill="#928e8e" opacity="0.416"/>
        <path id="Trazado_187798" data-name="Trazado 187798" d="M871.027,686.071a67.261,67.261,0,1,1,67.26-67.262A67.338,67.338,0,0,1,871.027,686.071Z" transform="translate(-785.6 -529.895)" fill="#908c8c" opacity="0.426"/>
        <path id="Trazado_187799" data-name="Trazado 187799" d="M870.353,685.268a67.261,67.261,0,1,1,67.261-67.262A67.338,67.338,0,0,1,870.353,685.268Z" transform="translate(-785.239 -529.465)" fill="#8e8a8a" opacity="0.436"/>
        <path id="Trazado_187800" data-name="Trazado 187800" d="M869.68,684.465A67.261,67.261,0,1,1,936.94,617.2,67.338,67.338,0,0,1,869.68,684.465Z" transform="translate(-784.878 -529.035)" fill="#8c8888" opacity="0.446"/>
        <path id="Trazado_187801" data-name="Trazado 187801" d="M869.006,683.662a67.261,67.261,0,1,1,67.26-67.262A67.338,67.338,0,0,1,869.006,683.662Z" transform="translate(-784.517 -528.605)" fill="#8b8787" opacity="0.455"/>
        <path id="Trazado_187802" data-name="Trazado 187802" d="M868.332,682.858a67.261,67.261,0,1,1,67.26-67.262A67.337,67.337,0,0,1,868.332,682.858Z" transform="translate(-784.157 -528.175)" fill="#898585" opacity="0.465"/>
        <path id="Trazado_187803" data-name="Trazado 187803" d="M867.658,682.055a67.261,67.261,0,1,1,67.26-67.262A67.338,67.338,0,0,1,867.658,682.055Z" transform="translate(-783.797 -527.745)" fill="#878383" opacity="0.475"/>
        <path id="Trazado_187804" data-name="Trazado 187804" d="M866.984,681.252a67.261,67.261,0,1,1,67.26-67.262A67.338,67.338,0,0,1,866.984,681.252Z" transform="translate(-783.436 -527.315)" fill="#858181" opacity="0.485"/>
        <path id="Trazado_187805" data-name="Trazado 187805" d="M866.31,680.448a67.261,67.261,0,1,1,67.261-67.261A67.338,67.338,0,0,1,866.31,680.448Z" transform="translate(-783.075 -526.885)" fill="#847f7f" opacity="0.495"/>
        <path id="Trazado_187806" data-name="Trazado 187806" d="M865.637,679.645a67.261,67.261,0,1,1,67.26-67.262A67.338,67.338,0,0,1,865.637,679.645Z" transform="translate(-782.714 -526.455)" fill="#827e7e" opacity="0.505"/>
        <path id="Trazado_187807" data-name="Trazado 187807" d="M864.963,678.842a67.261,67.261,0,1,1,67.26-67.262A67.338,67.338,0,0,1,864.963,678.842Z" transform="translate(-782.354 -526.025)" fill="#807c7c" opacity="0.515"/>
        <path id="Trazado_187808" data-name="Trazado 187808" d="M864.289,678.039a67.261,67.261,0,1,1,67.26-67.262A67.337,67.337,0,0,1,864.289,678.039Z" transform="translate(-781.994 -525.596)" fill="#7e7a7a" opacity="0.525"/>
        <path id="Trazado_187809" data-name="Trazado 187809" d="M863.615,677.235a67.261,67.261,0,1,1,67.26-67.262A67.338,67.338,0,0,1,863.615,677.235Z" transform="translate(-781.633 -525.165)" fill="#7c7879" opacity="0.535"/>
        <path id="Trazado_187810" data-name="Trazado 187810" d="M862.941,676.432A67.261,67.261,0,1,1,930.2,609.17,67.338,67.338,0,0,1,862.941,676.432Z" transform="translate(-781.272 -524.736)" fill="#7b7777" opacity="0.545"/>
        <path id="Trazado_187811" data-name="Trazado 187811" d="M862.267,675.629a67.261,67.261,0,1,1,67.261-67.262A67.338,67.338,0,0,1,862.267,675.629Z" transform="translate(-780.911 -524.306)" fill="#797575" opacity="0.554"/>
        <path id="Trazado_187812" data-name="Trazado 187812" d="M861.594,674.825a67.261,67.261,0,1,1,67.26-67.262A67.338,67.338,0,0,1,861.594,674.825Z" transform="translate(-780.55 -523.875)" fill="#777474" opacity="0.564"/>
        <path id="Trazado_187813" data-name="Trazado 187813" d="M860.92,674.022a67.261,67.261,0,1,1,67.26-67.262A67.338,67.338,0,0,1,860.92,674.022Z" transform="translate(-780.19 -523.446)" fill="#767272" opacity="0.574"/>
        <path id="Trazado_187814" data-name="Trazado 187814" d="M860.246,673.219a67.261,67.261,0,1,1,67.26-67.262A67.337,67.337,0,0,1,860.246,673.219Z" transform="translate(-779.829 -523.016)" fill="#747070" opacity="0.584"/>
        <path id="Trazado_187815" data-name="Trazado 187815" d="M859.572,672.416a67.261,67.261,0,1,1,67.26-67.262A67.338,67.338,0,0,1,859.572,672.416Z" transform="translate(-779.469 -522.586)" fill="#726f6f" opacity="0.594"/>
        <path id="Trazado_187816" data-name="Trazado 187816" d="M858.9,671.612a67.261,67.261,0,1,1,67.26-67.262A67.338,67.338,0,0,1,858.9,671.612Z" transform="translate(-779.108 -522.156)" fill="#716d6d" opacity="0.604"/>
        <path id="Trazado_187817" data-name="Trazado 187817" d="M858.224,670.809a67.261,67.261,0,1,1,67.26-67.262A67.338,67.338,0,0,1,858.224,670.809Z" transform="translate(-778.747 -521.726)" fill="#6f6c6c" opacity="0.614"/>
        <path id="Trazado_187818" data-name="Trazado 187818" d="M857.551,670.006a67.261,67.261,0,1,1,67.26-67.262A67.338,67.338,0,0,1,857.551,670.006Z" transform="translate(-778.387 -521.296)" fill="#6e6a6a" opacity="0.624"/>
        <path id="Trazado_187819" data-name="Trazado 187819" d="M856.876,669.2a67.261,67.261,0,1,1,67.26-67.262A67.338,67.338,0,0,1,856.876,669.2Z" transform="translate(-778.026 -520.866)" fill="#6c6969" opacity="0.634"/>
        <path id="Trazado_187820" data-name="Trazado 187820" d="M856.2,668.4a67.261,67.261,0,1,1,67.26-67.262A67.338,67.338,0,0,1,856.2,668.4Z" transform="translate(-777.665 -520.436)" fill="#6b6767" opacity="0.644"/>
        <path id="Trazado_187821" data-name="Trazado 187821" d="M855.529,667.6a67.261,67.261,0,1,1,67.26-67.262A67.338,67.338,0,0,1,855.529,667.6Z" transform="translate(-777.305 -520.007)" fill="#696666" opacity="0.653"/>
        <path id="Trazado_187822" data-name="Trazado 187822" d="M854.855,666.793a67.261,67.261,0,1,1,67.26-67.262A67.338,67.338,0,0,1,854.855,666.793Z" transform="translate(-776.944 -519.577)" fill="#686464" opacity="0.663"/>
        <path id="Trazado_187823" data-name="Trazado 187823" d="M854.181,665.989a67.261,67.261,0,1,1,67.26-67.262A67.338,67.338,0,0,1,854.181,665.989Z" transform="translate(-776.583 -519.146)" fill="#666363" opacity="0.673"/>
        <path id="Trazado_187824" data-name="Trazado 187824" d="M853.508,665.186a67.261,67.261,0,1,1,67.26-67.262A67.338,67.338,0,0,1,853.508,665.186Z" transform="translate(-776.223 -518.717)" fill="#656261" opacity="0.683"/>
        <path id="Trazado_187825" data-name="Trazado 187825" d="M852.834,664.383a67.261,67.261,0,1,1,67.26-67.262A67.338,67.338,0,0,1,852.834,664.383Z" transform="translate(-775.862 -518.287)" fill="#646060" opacity="0.693"/>
        <path id="Trazado_187826" data-name="Trazado 187826" d="M852.16,663.579a67.261,67.261,0,1,1,67.26-67.262A67.338,67.338,0,0,1,852.16,663.579Z" transform="translate(-775.502 -517.857)" fill="#625f5f" opacity="0.703"/>
        <path id="Trazado_187827" data-name="Trazado 187827" d="M851.486,662.776a67.261,67.261,0,1,1,67.26-67.262A67.337,67.337,0,0,1,851.486,662.776Z" transform="translate(-775.141 -517.427)" fill="#615d5d" opacity="0.713"/>
        <path id="Trazado_187828" data-name="Trazado 187828" d="M850.812,661.973a67.261,67.261,0,1,1,67.26-67.262A67.338,67.338,0,0,1,850.812,661.973Z" transform="translate(-774.78 -516.997)" fill="#5f5c5c" opacity="0.723"/>
        <path id="Trazado_187829" data-name="Trazado 187829" d="M850.138,661.17A67.261,67.261,0,1,1,917.4,593.908,67.338,67.338,0,0,1,850.138,661.17Z" transform="translate(-774.42 -516.567)" fill="#5e5b5b" opacity="0.733"/>
        <path id="Trazado_187830" data-name="Trazado 187830" d="M849.465,660.366a67.261,67.261,0,1,1,67.26-67.262A67.338,67.338,0,0,1,849.465,660.366Z" transform="translate(-774.059 -516.137)" fill="#5d5959" opacity="0.743"/>
        <path id="Trazado_187831" data-name="Trazado 187831" d="M848.791,659.563a67.261,67.261,0,1,1,67.26-67.262A67.338,67.338,0,0,1,848.791,659.563Z" transform="translate(-773.698 -515.707)" fill="#5b5858" opacity="0.752"/>
        <path id="Trazado_187832" data-name="Trazado 187832" d="M848.117,658.76a67.261,67.261,0,1,1,67.26-67.262A67.338,67.338,0,0,1,848.117,658.76Z" transform="translate(-773.338 -515.277)" fill="#5a5757" opacity="0.762"/>
        <path id="Trazado_187833" data-name="Trazado 187833" d="M847.443,657.957A67.261,67.261,0,1,1,914.7,590.7,67.338,67.338,0,0,1,847.443,657.957Z" transform="translate(-772.977 -514.848)" fill="#585655" opacity="0.772"/>
        <path id="Trazado_187834" data-name="Trazado 187834" d="M846.769,657.153a67.261,67.261,0,1,1,67.26-67.262A67.338,67.338,0,0,1,846.769,657.153Z" transform="translate(-772.617 -514.417)" fill="#575454" opacity="0.782"/>
        <path id="Trazado_187835" data-name="Trazado 187835" d="M846.1,656.35a67.261,67.261,0,1,1,67.261-67.262A67.338,67.338,0,0,1,846.1,656.35Z" transform="translate(-772.256 -513.987)" fill="#565353" opacity="0.792"/>
        <path id="Trazado_187836" data-name="Trazado 187836" d="M845.421,655.547a67.261,67.261,0,1,1,67.261-67.262A67.338,67.338,0,0,1,845.421,655.547Z" transform="translate(-771.895 -513.558)" fill="#545252" opacity="0.802"/>
        <path id="Trazado_187837" data-name="Trazado 187837" d="M844.748,654.743a67.261,67.261,0,1,1,67.26-67.262A67.338,67.338,0,0,1,844.748,654.743Z" transform="translate(-771.534 -513.127)" fill="#535151" opacity="0.812"/>
        <path id="Trazado_187838" data-name="Trazado 187838" d="M844.074,653.94a67.261,67.261,0,1,1,67.26-67.262A67.337,67.337,0,0,1,844.074,653.94Z" transform="translate(-771.174 -512.698)" fill="#52504f" opacity="0.822"/>
        <path id="Trazado_187839" data-name="Trazado 187839" d="M843.4,653.137a67.261,67.261,0,1,1,67.26-67.262A67.337,67.337,0,0,1,843.4,653.137Z" transform="translate(-770.813 -512.268)" fill="#514e4e" opacity="0.832"/>
        <path id="Trazado_187840" data-name="Trazado 187840" d="M842.726,652.333a67.261,67.261,0,1,1,67.26-67.261A67.337,67.337,0,0,1,842.726,652.333Z" transform="translate(-770.453 -511.838)" fill="#4f4d4d" opacity="0.842"/>
        <path id="Trazado_187841" data-name="Trazado 187841" d="M842.052,651.53a67.261,67.261,0,1,1,67.26-67.262A67.338,67.338,0,0,1,842.052,651.53Z" transform="translate(-770.092 -511.408)" fill="#4e4c4c" opacity="0.851"/>
        <path id="Trazado_187842" data-name="Trazado 187842" d="M841.378,650.727a67.261,67.261,0,1,1,67.261-67.262A67.338,67.338,0,0,1,841.378,650.727Z" transform="translate(-769.731 -510.978)" fill="#4d4b4b" opacity="0.861"/>
        <path id="Trazado_187843" data-name="Trazado 187843" d="M840.7,649.924a67.261,67.261,0,1,1,67.26-67.262A67.338,67.338,0,0,1,840.7,649.924Z" transform="translate(-769.37 -510.548)" fill="#4c4a4a" opacity="0.871"/>
        <path id="Trazado_187844" data-name="Trazado 187844" d="M840.031,649.12a67.261,67.261,0,1,1,67.26-67.262A67.338,67.338,0,0,1,840.031,649.12Z" transform="translate(-769.01 -510.118)" fill="#4b4949" opacity="0.881"/>
        <path id="Trazado_187845" data-name="Trazado 187845" d="M839.357,648.317a67.261,67.261,0,1,1,67.26-67.262A67.337,67.337,0,0,1,839.357,648.317Z" transform="translate(-768.649 -509.688)" fill="#494848" opacity="0.891"/>
        <path id="Trazado_187846" data-name="Trazado 187846" d="M838.683,647.514a67.261,67.261,0,1,1,67.26-67.262A67.338,67.338,0,0,1,838.683,647.514Z" transform="translate(-768.289 -509.258)" fill="#484747" opacity="0.901"/>
        <path id="Trazado_187847" data-name="Trazado 187847" d="M838.009,646.711a67.261,67.261,0,1,1,67.26-67.262A67.338,67.338,0,0,1,838.009,646.711Z" transform="translate(-767.928 -508.829)" fill="#474646" opacity="0.911"/>
        <path id="Trazado_187848" data-name="Trazado 187848" d="M837.335,645.907A67.261,67.261,0,1,1,904.6,578.645,67.338,67.338,0,0,1,837.335,645.907Z" transform="translate(-767.567 -508.398)" fill="#464545" opacity="0.921"/>
        <path id="Trazado_187849" data-name="Trazado 187849" d="M836.661,645.1a67.261,67.261,0,1,1,67.26-67.262A67.338,67.338,0,0,1,836.661,645.1Z" transform="translate(-767.206 -507.968)" fill="#454444" opacity="0.931"/>
        <path id="Trazado_187850" data-name="Trazado 187850" d="M835.988,644.3a67.261,67.261,0,1,1,67.26-67.262A67.338,67.338,0,0,1,835.988,644.3Z" transform="translate(-766.846 -507.539)" fill="#444343" opacity="0.941"/>
        <path id="Trazado_187851" data-name="Trazado 187851" d="M835.314,643.5a67.261,67.261,0,1,1,67.26-67.261A67.337,67.337,0,0,1,835.314,643.5Z" transform="translate(-766.486 -507.108)" fill="#424242" opacity="0.95"/>
        <path id="Trazado_187852" data-name="Trazado 187852" d="M834.64,642.694a67.261,67.261,0,1,1,67.26-67.262A67.338,67.338,0,0,1,834.64,642.694Z" transform="translate(-766.125 -506.679)" fill="#414141" opacity="0.96"/>
        <path id="Trazado_187853" data-name="Trazado 187853" d="M833.966,641.891a67.261,67.261,0,1,1,67.26-67.262A67.338,67.338,0,0,1,833.966,641.891Z" transform="translate(-765.764 -506.249)" fill="#404040" opacity="0.97"/>
        <path id="Trazado_187854" data-name="Trazado 187854" d="M833.292,641.087a67.261,67.261,0,1,1,67.261-67.262A67.338,67.338,0,0,1,833.292,641.087Z" transform="translate(-765.403 -505.819)" fill="#3f3f3f" opacity="0.98"/>
        <path id="Trazado_187855" data-name="Trazado 187855" d="M832.619,640.284a67.261,67.261,0,1,1,67.26-67.262A67.338,67.338,0,0,1,832.619,640.284Z" transform="translate(-765.043 -505.389)" fill="#3e3e3e" opacity="0.99"/>
        <path id="Trazado_187856" data-name="Trazado 187856" d="M831.945,639.481a67.261,67.261,0,1,1,67.26-67.262A67.338,67.338,0,0,1,831.945,639.481Z" transform="translate(-764.682 -504.959)" fill="#3d3d3d"/>
      </g>
      <g id="Grupo_149829" data-name="Grupo 149829" transform="translate(500.169 2014.625)">
        <g id="Grupo_149805" data-name="Grupo 149805" transform="translate(0 0)">
          <circle id="Elipse_4997" data-name="Elipse 4997" cx="68.09" cy="68.09" r="68.09" transform="translate(0 96.294) rotate(-45)" fill="url(#linear-gradient)"/>
          <circle id="Elipse_4998" data-name="Elipse 4998" cx="64.686" cy="64.686" r="64.686" transform="translate(4.815 96.294) rotate(-45)" fill="url(#linear-gradient-2)"/>
        </g>
        <path id="Trazado_194447" data-name="Trazado 194447" d="M3.149-3.757V0H.952V-10.664h4.16a4.813,4.813,0,0,1,2.113.439,3.238,3.238,0,0,1,1.4,1.249,3.482,3.482,0,0,1,.491,1.842A3.062,3.062,0,0,1,8.046-4.662a4.469,4.469,0,0,1-2.97.9Zm0-1.78H5.112a1.93,1.93,0,0,0,1.329-.41A1.492,1.492,0,0,0,6.9-7.119a1.759,1.759,0,0,0-.461-1.267,1.724,1.724,0,0,0-1.274-.5H3.149ZM12.722,0H10.6V-11.25h2.124Zm6.335,0a2.351,2.351,0,0,1-.212-.71,2.561,2.561,0,0,1-2,.857,2.814,2.814,0,0,1-1.93-.674,2.167,2.167,0,0,1-.765-1.7,2.24,2.24,0,0,1,.934-1.934,4.608,4.608,0,0,1,2.7-.681h.974V-5.3a1.306,1.306,0,0,0-.282-.879,1.109,1.109,0,0,0-.89-.33,1.261,1.261,0,0,0-.839.256.871.871,0,0,0-.3.7H14.326a2.126,2.126,0,0,1,.425-1.274,2.808,2.808,0,0,1,1.2-.919A4.378,4.378,0,0,1,17.7-8.071a3.459,3.459,0,0,1,2.325.736,2.575,2.575,0,0,1,.861,2.069v3.435A3.789,3.789,0,0,0,21.2-.125V0Zm-1.75-1.472a1.823,1.823,0,0,0,.864-.209,1.371,1.371,0,0,0,.586-.56V-3.6h-.791q-1.589,0-1.692,1.1l-.007.125a.847.847,0,0,0,.278.652A1.081,1.081,0,0,0,17.307-1.472Zm7.734-8.4v1.948H26.4v1.553H25.042v3.955a.944.944,0,0,0,.168.63.846.846,0,0,0,.645.19,3.376,3.376,0,0,0,.623-.051v1.6A4.358,4.358,0,0,1,25.2.146,2.021,2.021,0,0,1,22.925-2.1v-4.27H21.768V-7.925h1.157V-9.873ZM32.168,0a2.351,2.351,0,0,1-.212-.71,2.561,2.561,0,0,1-2,.857,2.814,2.814,0,0,1-1.93-.674,2.167,2.167,0,0,1-.765-1.7,2.24,2.24,0,0,1,.934-1.934,4.608,4.608,0,0,1,2.7-.681h.974V-5.3a1.306,1.306,0,0,0-.282-.879,1.109,1.109,0,0,0-.89-.33,1.261,1.261,0,0,0-.839.256.871.871,0,0,0-.3.7H27.437a2.126,2.126,0,0,1,.425-1.274,2.808,2.808,0,0,1,1.2-.919,4.378,4.378,0,0,1,1.743-.333,3.459,3.459,0,0,1,2.325.736,2.575,2.575,0,0,1,.861,2.069v3.435a3.789,3.789,0,0,0,.315,1.707V0Zm-1.75-1.472a1.823,1.823,0,0,0,.864-.209,1.371,1.371,0,0,0,.586-.56V-3.6h-.791q-1.589,0-1.692,1.1l-.007.125a.847.847,0,0,0,.278.652A1.081,1.081,0,0,0,30.417-1.472ZM36.2,0V-6.372H35.017V-7.925H36.2V-8.6a2.736,2.736,0,0,1,.765-2.069A2.964,2.964,0,0,1,39.1-11.4a4.948,4.948,0,0,1,1.077.146l-.022,1.641a2.7,2.7,0,0,0-.645-.066q-1.194,0-1.194,1.121v.637H39.9v1.553H38.32V0Zm4.468-4.036a4.7,4.7,0,0,1,.454-2.1,3.324,3.324,0,0,1,1.307-1.428,3.814,3.814,0,0,1,1.981-.505,3.609,3.609,0,0,1,2.618.981,3.939,3.939,0,0,1,1.132,2.666l.015.542A4.142,4.142,0,0,1,47.153-.956a3.539,3.539,0,0,1-2.732,1.1,3.556,3.556,0,0,1-2.736-1.1A4.215,4.215,0,0,1,40.664-3.94Zm2.117.15a2.962,2.962,0,0,0,.425,1.727,1.4,1.4,0,0,0,1.216.6,1.4,1.4,0,0,0,1.2-.591,3.241,3.241,0,0,0,.432-1.889,2.933,2.933,0,0,0-.432-1.716,1.4,1.4,0,0,0-1.216-.609,1.382,1.382,0,0,0-1.2.605A3.3,3.3,0,0,0,42.781-3.885ZM53.928-5.94A5.751,5.751,0,0,0,53.167-6a1.55,1.55,0,0,0-1.575.813V0H49.475V-7.925h2l.059.945A1.961,1.961,0,0,1,53.3-8.071a2.218,2.218,0,0,1,.659.1Zm3-1.985L57-7.039a2.785,2.785,0,0,1,2.278-1.033,2.114,2.114,0,0,1,2.1,1.208,2.721,2.721,0,0,1,2.38-1.208,2.364,2.364,0,0,1,1.919.751,3.451,3.451,0,0,1,.63,2.26V0H64.182V-5.054a1.509,1.509,0,0,0-.264-.985,1.169,1.169,0,0,0-.93-.311,1.321,1.321,0,0,0-1.318.908L61.677,0H59.561V-5.046a1.491,1.491,0,0,0-.271-1,1.18,1.18,0,0,0-.923-.308,1.372,1.372,0,0,0-1.3.747V0H54.946V-7.925ZM72.524,0a2.351,2.351,0,0,1-.212-.71,2.561,2.561,0,0,1-2,.857,2.814,2.814,0,0,1-1.93-.674,2.167,2.167,0,0,1-.765-1.7,2.24,2.24,0,0,1,.934-1.934,4.608,4.608,0,0,1,2.7-.681h.974V-5.3a1.306,1.306,0,0,0-.282-.879,1.109,1.109,0,0,0-.89-.33,1.261,1.261,0,0,0-.839.256.871.871,0,0,0-.3.7H67.793a2.126,2.126,0,0,1,.425-1.274,2.808,2.808,0,0,1,1.2-.919,4.378,4.378,0,0,1,1.743-.333,3.459,3.459,0,0,1,2.325.736,2.575,2.575,0,0,1,.861,2.069v3.435a3.789,3.789,0,0,0,.315,1.707V0Zm-1.75-1.472a1.823,1.823,0,0,0,.864-.209,1.371,1.371,0,0,0,.586-.56V-3.6h-.791q-1.589,0-1.692,1.1l-.007.125a.847.847,0,0,0,.278.652A1.081,1.081,0,0,0,70.774-1.472Z" transform="translate(60.498 131.375)" fill="#12263f"/>
        <g id="tMun8l.tif" transform="translate(60.129 -531.29)">
          <g id="Grupo_149871" data-name="Grupo 149871" transform="translate(6.912 575.824)">
            <path id="Trazado_188235" data-name="Trazado 188235" d="M198.261,575.824a1.326,1.326,0,0,1,.746,1.406c-.025.242,0,.488-.005.732-.011.369-.024.684.407.907a1.074,1.074,0,0,0,1.215.021c1.724-1.042,1.865-.989,2.864.739.478.828.962,1.652,1.431,2.485a1.124,1.124,0,0,1-.479,1.781c-.209.126-.421.247-.632.369-.934.543-.931,1.355.008,1.9,1.706.983,1.74,1.113.753,2.821-.478.828-.95,1.659-1.436,2.482s-.978.95-1.825.477c-.213-.119-.423-.243-.635-.365-.936-.539-1.67-.1-1.671.99,0,1.93-.108,2.038-2.039,2.038-.957,0-1.914.01-2.87,0s-1.326-.385-1.337-1.334a4.315,4.315,0,0,1,.006-.732.955.955,0,0,0-.669-1.123.678.678,0,0,0-.772.024,9.377,9.377,0,0,1-1.056.61,1.012,1.012,0,0,1-1.476-.389q-1.056-1.75-2.042-3.541a1.02,1.02,0,0,1,.4-1.475,4.6,4.6,0,0,1,.845-.486.841.841,0,0,0,.6-1.084,1.272,1.272,0,0,0-.383-.655c-.331-.263-.739-.426-1.093-.664a1.014,1.014,0,0,1-.379-1.434q1-1.817,2.074-3.592a1.008,1.008,0,0,1,1.436-.372,3.452,3.452,0,0,1,.788.461.959.959,0,0,0,1.4-.033.926.926,0,0,0,.306-.512,4.052,4.052,0,0,0,.009-.975,1.386,1.386,0,0,1,.742-1.473ZM202.717,588c-.359-.21-.666-.4-.986-.574a1.271,1.271,0,0,1-.724-1.457,6.3,6.3,0,0,0,.007-1.579,1.234,1.234,0,0,1,.729-1.393c.321-.159.627-.347.971-.54l-1.033-1.8c-.345.2-.633.349-.9.527a1.319,1.319,0,0,1-1.685-.05,6.728,6.728,0,0,0-1.314-.758,1.266,1.266,0,0,1-.863-1.323c.016-.375,0-.751,0-1.113h-2.082c0,.356-.021.679,0,1a1.311,1.311,0,0,1-.9,1.422,9.492,9.492,0,0,0-1.415.828,1.164,1.164,0,0,1-1.367.052c-.343-.206-.693-.4-1.08-.624l-1.033,1.8c.359.211.661.413.984.575a1.308,1.308,0,0,1,.741,1.512,6.1,6.1,0,0,0-.011,1.333,1.327,1.327,0,0,1-.84,1.633c-.281.156-.561.315-.874.492l1.033,1.795c.342-.2.65-.348.931-.539a1.282,1.282,0,0,1,1.628.043,10.631,10.631,0,0,0,1.475.846,1.164,1.164,0,0,1,.724,1.16c-.009.4,0,.8,0,1.193h2.139c-.321-1.392.268-2.073,1.457-2.77s2.078-.8,3.113.034c.025.02.075.008.169.015Z" transform="translate(-164.578 -575.824)" fill="#12263f"/>
            <path id="Trazado_188236" data-name="Trazado 188236" d="M46.017,782.268c.208.223.351.385.5.537q3.758,3.761,7.516,7.52a3,3,0,0,1,.441.5,1.019,1.019,0,0,1-1.394,1.41,3.251,3.251,0,0,1-.55-.479q-4.541-4.533-9.069-9.078a1.422,1.422,0,0,0-1.12-.452c-4.359.015-8.717.008-13.076.009-1.158,0-1.49.331-1.491,1.488q0,5.163,0,10.327v.684c.593,0,1.135.009,1.677,0a3.3,3.3,0,0,1,3.269,1.817.849.849,0,0,0,.648.259c3.177.016,6.355.009,9.532.015a3.16,3.16,0,0,1,.845.088.927.927,0,0,1,.7,1.017.939.939,0,0,1-.812.935,4.12,4.12,0,0,1-.73.043q-4.583,0-9.165,0h-.695V801h.7q4.063,0,8.127,0c1.046,0,1.544.347,1.535,1.06s-.5,1.03-1.562,1.033c-2.178.006-2.178.006-3.411,1.791-.043.062-.071.135-.154.3.649,0,1.231,0,1.812,0,.794,0,1.589-.013,2.381.031a.955.955,0,0,1,.933.95.988.988,0,0,1-.827,1.046,2.847,2.847,0,0,1-.6.058c-1.833,0-3.666,0-5.5,0a1.124,1.124,0,0,1-.97-1.965c.523-.691,1.04-1.388,1.625-2.168H33.049v6.218c.621,0,1.226-.009,1.83,0,.862.015,1.2.364,1.248,1.229.1,1.984-.457,3.652-2.359,4.56a4.829,4.829,0,0,1-2,.443c-6.823.031-13.646.021-20.469.018-2.749,0-4.768-2.091-4.327-5.374a.97.97,0,0,1,1.073-.872c.646-.012,1.292,0,2,0v-.726q0-5.164,0-10.327a3.213,3.213,0,0,1,3.544-3.569q5.652-.006,11.3,0h.8v-.7c0-3.442.042-6.885-.015-10.327a3.35,3.35,0,0,1,3.557-3.576c8.778.051,17.557.02,26.335.023a3.147,3.147,0,0,1,3.494,3.461q.006,4.736,0,9.471c0,.93-.743,1.468-1.483,1.1a1.217,1.217,0,0,1-.6-1.243q.005-4.4,0-8.8c0-.245.006-.489,0-.733a1.056,1.056,0,0,0-1.179-1.166c-1.65-.012-3.3,0-4.949,0q-2.2,0-4.4,0C46.337,782.239,46.224,782.254,46.017,782.268ZM30.922,809.325c0-3.838.011-7.6-.009-11.368,0-.747-.436-1.112-1.236-1.128-1.017-.02-2.036-.006-3.054-.006H24.089c.213.238.325.374.448.5q1.835,1.835,3.672,3.669a2.744,2.744,0,0,1,.468.558,1.021,1.021,0,0,1-1.452,1.351,3.181,3.181,0,0,1-.5-.442c-1.757-1.756-3.5-3.522-5.277-5.26a1.339,1.339,0,0,0-.836-.358c-2.341-.028-4.682-.019-7.023-.015-1.1,0-1.453.365-1.454,1.476q0,5.222,0,10.444c0,.193.02.387.031.58ZM8.979,811.476a5.688,5.688,0,0,0,.313.957,2.156,2.156,0,0,0,2.095,1.1q10.143-.009,20.285-.008a3.319,3.319,0,0,0,.9-.115,1.915,1.915,0,0,0,1.407-1.932Z" transform="translate(-6.912 -755.112)" fill="#12263f"/>
            <path id="Trazado_188237" data-name="Trazado 188237" d="M335.613,926.184c0,2.374,0,4.59,0,6.806,0,.977.005,1.955,0,2.933-.006.79-.386,1.259-1.011,1.272-.641.014-1.053-.482-1.069-1.294-.006-.283,0-.566,0-.779-2.658,0-5.274,0-7.889,0a3.217,3.217,0,0,1-3.584-3.586q0-5.8,0-11.609a3.225,3.225,0,0,1,3.582-3.592c2.138,0,4.277.038,6.415-.011a3.271,3.271,0,0,1,3.573,3.548c-.07,1.217-.013,2.441-.013,3.738.236.011.449.029.662.029,1.772,0,3.543,0,5.315,0a2.107,2.107,0,0,1,2.369,2.319c.014,3.3,0,6.6,0,9.9a2.783,2.783,0,0,1-.014.3,1.042,1.042,0,0,1-1,1.031,1,1,0,0,1-1.037-.988c-.051-1.057-.048-2.117-.024-3.175a1.325,1.325,0,0,0-.442-1.066c-1.771-1.743-3.52-3.507-5.278-5.263C336.023,926.561,335.874,926.429,335.613,926.184Zm-11.413,2.64h9.33v-.529q0-4.243,0-8.485c0-1.03-.352-1.379-1.4-1.384-1.607-.007-3.215,0-4.822,0-.154,0-.308.027-.554.051.195.21.324.358.462.5q1.662,1.662,3.326,3.321a7.774,7.774,0,0,1,.67.708,1,1,0,0,1-.077,1.383,1.045,1.045,0,0,1-1.389.045,4.179,4.179,0,0,1-.4-.376q-2.287-2.289-4.572-4.579c-.147-.148-.3-.285-.568-.531Zm-.05,2.154c0,.367-.023.671,0,.97a1.057,1.057,0,0,0,1.154,1.084q3.54.026,7.081,0a1.008,1.008,0,0,0,1.1-.854,7.486,7.486,0,0,0,.012-1.2Zm17.685-5.21h-3.461l3.461,3.453Z" transform="translate(-283.461 -874.624)" fill="#12263f"/>
            <path id="Trazado_188238" data-name="Trazado 188238" d="M363.482,664.6q0,7.608,0,15.216a3.562,3.562,0,0,1-.046.728,1.021,1.021,0,0,1-2.023-.131c-.022-.222-.012-.448-.012-.672q0-15.124,0-30.248a3.178,3.178,0,0,0-2.294-3.406,5.338,5.338,0,0,0-1.329-.141c-2.811-.012-5.622-.005-8.432-.008a2.961,2.961,0,0,1-.729-.048.954.954,0,0,1-.76-.919.936.936,0,0,1,.641-1,2.279,2.279,0,0,1,.779-.109c2.892-.007,5.785-.015,8.677,0a5.188,5.188,0,0,1,5.337,3.959,6.6,6.6,0,0,1,.187,1.691C363.487,654.539,363.482,659.57,363.482,664.6Z" transform="translate(-306.096 -635.519)" fill="#12263f"/>
            <path id="Trazado_188239" data-name="Trazado 188239" d="M73.238,609.8c1.181,0,2.361-.01,3.542,0a1.083,1.083,0,0,1,1.2.9c.1.676-.4,1.171-1.213,1.174-2.137.008-4.275,0-6.412,0-.163,0-.326,0-.489,0a1.119,1.119,0,0,0-1.249,1.249c-.021.9,0,1.791-.008,2.687-.009.8-.381,1.261-1.005,1.281s-1.064-.476-1.075-1.288c-.013-.9-.017-1.792,0-2.687a3.167,3.167,0,0,1,3.354-3.324C71,609.793,72.119,609.8,73.238,609.8Z" transform="translate(-59.215 -605.638)" fill="#12263f"/>
            <path id="Trazado_188240" data-name="Trazado 188240" d="M26.006,695.205a9.244,9.244,0,0,1,6.367,2.522c.581.538.684,1.129.288,1.6a1.065,1.065,0,0,1-1.66-.05,7.334,7.334,0,0,0-10.024-.019,1.047,1.047,0,0,1-1.615.036,1.1,1.1,0,0,1,.261-1.6A9.266,9.266,0,0,1,26.006,695.205Z" transform="translate(-17.621 -680.585)" fill="#12263f"/>
            <path id="Trazado_188241" data-name="Trazado 188241" d="M351.355,699.99c0,.651.012,1.3,0,1.952a1.043,1.043,0,1,1-2.073.008c-.015-1.037-.06-2.078.011-3.111a1.655,1.655,0,0,0-1.183-1.931,1.861,1.861,0,0,1-.627-.366.951.951,0,0,1-.212-1.269.921.921,0,0,1,1.193-.471c1.67.646,2.99,1.508,2.9,3.843C351.34,699.095,351.355,699.543,351.355,699.99Z" transform="translate(-305.45 -680.17)" fill="#12263f"/>
            <path id="Trazado_188242" data-name="Trazado 188242" d="M46.579,729.245a5.084,5.084,0,0,1,3.5,1.34,1.079,1.079,0,0,1,.269,1.55,1.043,1.043,0,0,1-1.568.069,3.2,3.2,0,0,0-3.744-.432,7.021,7.021,0,0,0-.7.49,1.054,1.054,0,0,1-1.477-.1,1.043,1.043,0,0,1,.174-1.518A5.131,5.131,0,0,1,46.579,729.245Z" transform="translate(-38.237 -710.456)" fill="#12263f"/>
            <path id="Trazado_188243" data-name="Trazado 188243" d="M68.61,801.022c0,.833.014,1.666,0,2.5a1.036,1.036,0,1,1-2.066.044q-.043-2.528,0-5.057a1.038,1.038,0,0,1,1.049-1.111c.617.006,1.008.444,1.021,1.189C68.622,799.4,68.611,800.21,68.61,801.022Z" transform="translate(-59.218 -770.261)" fill="#12263f"/>
            <path id="Trazado_188244" data-name="Trazado 188244" d="M265.367,1018.77c.509,0,1.019-.019,1.527.005a1,1,0,0,1,1.026.929.963.963,0,0,1-.9,1.1,32.74,32.74,0,0,1-3.354,0,.951.951,0,0,1-.9-1.1,1,1,0,0,1,1.016-.938c.041,0,.081-.006.122-.006h1.466Z" transform="translate(-231.426 -964.517)" fill="#12263f"/>
            <path id="Trazado_188245" data-name="Trazado 188245" d="M68.787,764.363a1.035,1.035,0,0,1-1.021,1.064,1.075,1.075,0,0,1-1.029-1.009,1.038,1.038,0,0,1,.975-1.048A1,1,0,0,1,68.787,764.363Z" transform="translate(-59.41 -740.4)" fill="#12263f"/>
            <path id="Trazado_188246" data-name="Trazado 188246" d="M243.284,630.046a3.118,3.118,0,0,1-6.236,0,3.118,3.118,0,1,1,6.236,0Zm-3.13,1a1.031,1.031,0,0,0,1.044-1.038,1.032,1.032,0,1,0-2.064.035A1.036,1.036,0,0,0,240.155,631.051Z" transform="translate(-208.864 -620.643)" fill="#12263f"/>
          </g>
        </g>
      </g>
      <path id="Trazado_194448" data-name="Trazado 194448" d="M8.43-4.7a5.762,5.762,0,0,1-.977,3.609A3.409,3.409,0,0,1,4.594.156,3.433,3.433,0,0,1,1.75-1.07,5.594,5.594,0,0,1,.742-4.586V-6.68A5.687,5.687,0,0,1,1.73-10.3a3.434,3.434,0,0,1,2.848-1.234,3.437,3.437,0,0,1,2.844,1.223A5.576,5.576,0,0,1,8.43-6.8Zm-2.258-2.3a4.165,4.165,0,0,0-.387-2.061,1.307,1.307,0,0,0-1.207-.645A1.284,1.284,0,0,0,3.4-9.1,3.9,3.9,0,0,0,3-7.177v2.768a4.372,4.372,0,0,0,.379,2.068,1.29,1.29,0,0,0,1.215.676,1.268,1.268,0,0,0,1.2-.649A4.268,4.268,0,0,0,6.172-4.3ZM17.75,0h-7.8V-1.547l3.68-3.922a9.078,9.078,0,0,0,1.121-1.445,2.322,2.322,0,0,0,.363-1.172,1.738,1.738,0,0,0-.383-1.191,1.382,1.382,0,0,0-1.094-.434,1.49,1.49,0,0,0-1.207.527A2.089,2.089,0,0,0,11.992-7.8H9.727a3.729,3.729,0,0,1,.5-1.9,3.5,3.5,0,0,1,1.4-1.348,4.262,4.262,0,0,1,2.055-.488,4.036,4.036,0,0,1,2.73.844A2.985,2.985,0,0,1,17.383-8.3a3.825,3.825,0,0,1-.437,1.719,9.551,9.551,0,0,1-1.5,2.039L12.859-1.82H17.75Z" transform="translate(500.667 2117)" fill="#fff"/>
    </g>
  </g>
</svg>
