<svg xmlns="http://www.w3.org/2000/svg" xmlns:xlink="http://www.w3.org/1999/xlink" width="166" height="140" viewBox="0 0 166 140">
  <defs>
    <filter id="Rect치ngulo_37329" x="0" y="0" width="166" height="140" filterUnits="userSpaceOnUse">
      <feOffset dy="3" input="SourceAlpha"/>
      <feGaussianBlur stdDeviation="3" result="blur"/>
      <feFlood flood-opacity="0.161"/>
      <feComposite operator="in" in2="blur"/>
      <feComposite in="SourceGraphic"/>
    </filter>
    <linearGradient id="linear-gradient" x1="0.5" x2="0.5" y2="1" gradientUnits="objectBoundingBox">
      <stop offset="0" stop-color="#4dd0e1"/>
      <stop offset="1" stop-color="#039be5"/>
    </linearGradient>
  </defs>
  <g id="Grupo_152021" data-name="Grupo 152021" transform="translate(-718.676 -1914)">
    <g transform="matrix(1, 0, 0, 1, 718.68, 1914)" filter="url(#Rect치ngulo_37329)">
      <rect id="Rect치ngulo_37329-2" data-name="Rect치ngulo 37329" width="148" height="122" rx="10" transform="translate(9 6)" fill="#fff"/>
    </g>
    <path id="Trazado_194456" data-name="Trazado 194456" d="M12.512,12.992V17H10.168V5.625h4.438a5.134,5.134,0,0,1,2.254.469,3.454,3.454,0,0,1,1.5,1.332,3.714,3.714,0,0,1,.523,1.965,3.266,3.266,0,0,1-1.145,2.637,4.767,4.767,0,0,1-3.168.965Zm0-1.9h2.094a2.059,2.059,0,0,0,1.418-.437,1.591,1.591,0,0,0,.488-1.25,1.876,1.876,0,0,0-.492-1.352,1.839,1.839,0,0,0-1.359-.531H12.512Zm12.578-.43a6.134,6.134,0,0,0-.812-.062,1.654,1.654,0,0,0-1.68.867V17H20.34V8.547h2.133l.063,1.008a2.092,2.092,0,0,1,1.883-1.164,2.366,2.366,0,0,1,.7.1Zm.453,2.031a5.013,5.013,0,0,1,.484-2.242A3.546,3.546,0,0,1,27.422,8.93a4.069,4.069,0,0,1,2.113-.539,3.849,3.849,0,0,1,2.793,1.047,4.2,4.2,0,0,1,1.207,2.844l.016.578a4.418,4.418,0,0,1-1.086,3.121,3.775,3.775,0,0,1-2.914,1.176,3.793,3.793,0,0,1-2.918-1.172,4.5,4.5,0,0,1-1.09-3.187Zm2.258.16a3.16,3.16,0,0,0,.453,1.843,1.628,1.628,0,0,0,2.578.008,3.457,3.457,0,0,0,.461-2.015,3.128,3.128,0,0,0-.461-1.831,1.5,1.5,0,0,0-1.3-.649,1.474,1.474,0,0,0-1.281.646A3.516,3.516,0,0,0,27.8,12.856Zm9.844-6.387V8.547H39.09V10.2H37.645v4.219a1.007,1.007,0,0,0,.18.672.9.9,0,0,0,.688.2,3.6,3.6,0,0,0,.664-.055v1.711a4.648,4.648,0,0,1-1.367.2,2.156,2.156,0,0,1-2.422-2.4V10.2H34.152V8.547h1.234V6.469ZM39.762,12.7a5.013,5.013,0,0,1,.484-2.242A3.546,3.546,0,0,1,41.641,8.93a4.069,4.069,0,0,1,2.113-.539,3.849,3.849,0,0,1,2.793,1.047,4.2,4.2,0,0,1,1.207,2.844l.016.578a4.418,4.418,0,0,1-1.086,3.121,4.209,4.209,0,0,1-5.832,0,4.5,4.5,0,0,1-1.09-3.187Zm2.258.16a3.16,3.16,0,0,0,.453,1.843,1.628,1.628,0,0,0,2.578.008,3.457,3.457,0,0,0,.461-2.015,3.128,3.128,0,0,0-.461-1.831,1.5,1.5,0,0,0-1.3-.649,1.474,1.474,0,0,0-1.281.646A3.516,3.516,0,0,0,42.02,12.856Zm10.656,2.48a1.481,1.481,0,0,0,1.016-.344,1.2,1.2,0,0,0,.406-.914h2.117a2.9,2.9,0,0,1-.469,1.574,3.093,3.093,0,0,1-1.262,1.109,3.949,3.949,0,0,1-1.77.395A3.67,3.67,0,0,1,49.855,16a4.56,4.56,0,0,1-1.047-3.184v-.148a4.508,4.508,0,0,1,1.039-3.117A3.627,3.627,0,0,1,52.7,8.391a3.555,3.555,0,0,1,2.543.9,3.2,3.2,0,0,1,.973,2.4H54.1a1.551,1.551,0,0,0-.406-1.072,1.51,1.51,0,0,0-2.223.163,3.333,3.333,0,0,0-.4,1.866v.235a3.375,3.375,0,0,0,.4,1.878A1.377,1.377,0,0,0,52.676,15.336ZM57.152,12.7a5.013,5.013,0,0,1,.484-2.242A3.546,3.546,0,0,1,59.031,8.93a4.069,4.069,0,0,1,2.113-.539,3.849,3.849,0,0,1,2.793,1.047,4.2,4.2,0,0,1,1.207,2.844l.016.578a4.418,4.418,0,0,1-1.086,3.121,4.209,4.209,0,0,1-5.832,0,4.5,4.5,0,0,1-1.09-3.187Zm2.258.16a3.16,3.16,0,0,0,.453,1.843,1.628,1.628,0,0,0,2.578.008,3.457,3.457,0,0,0,.461-2.015,3.128,3.128,0,0,0-.461-1.831,1.5,1.5,0,0,0-1.3-.649,1.474,1.474,0,0,0-1.281.646A3.516,3.516,0,0,0,59.41,12.856ZM68.934,17H66.668V5h2.266Zm1.508-4.3a5.013,5.013,0,0,1,.484-2.242A3.546,3.546,0,0,1,72.32,8.93a4.069,4.069,0,0,1,2.113-.539,3.849,3.849,0,0,1,2.793,1.047,4.2,4.2,0,0,1,1.207,2.844l.016.578a4.418,4.418,0,0,1-1.086,3.121,4.209,4.209,0,0,1-5.832,0,4.5,4.5,0,0,1-1.09-3.187Zm2.258.16a3.16,3.16,0,0,0,.453,1.843,1.628,1.628,0,0,0,2.578.008,3.457,3.457,0,0,0,.461-2.015,3.128,3.128,0,0,0-.461-1.831,1.5,1.5,0,0,0-1.3-.649,1.474,1.474,0,0,0-1.281.646A3.516,3.516,0,0,0,72.7,12.856Zm11.719,1.808a.727.727,0,0,0-.41-.652,4.659,4.659,0,0,0-1.316-.426q-3.016-.633-3.016-2.562a2.323,2.323,0,0,1,.934-1.879,3.766,3.766,0,0,1,2.441-.754,4.053,4.053,0,0,1,2.574.758,2.388,2.388,0,0,1,.965,1.969H84.332a1.092,1.092,0,0,0-.312-.8A1.322,1.322,0,0,0,83.043,10a1.351,1.351,0,0,0-.883.258.814.814,0,0,0-.312.656.7.7,0,0,0,.355.605,3.657,3.657,0,0,0,1.2.4,9.8,9.8,0,0,1,1.422.379,2.336,2.336,0,0,1,1.789,2.273,2.2,2.2,0,0,1-.992,1.871,4.28,4.28,0,0,1-2.562.715,4.47,4.47,0,0,1-1.887-.379,3.166,3.166,0,0,1-1.293-1.039,2.414,2.414,0,0,1-.469-1.426h2.141a1.179,1.179,0,0,0,.445.922,1.766,1.766,0,0,0,1.109.32,1.635,1.635,0,0,0,.98-.246A.766.766,0,0,0,84.418,14.664ZM91.7,12.711a5.094,5.094,0,0,1,.887-3.148,2.877,2.877,0,0,1,2.426-1.172,2.589,2.589,0,0,1,2.039.922V5h2.266V17H97.277l-.109-.9A2.657,2.657,0,0,1,95,17.156,2.869,2.869,0,0,1,92.6,15.98,5.258,5.258,0,0,1,91.7,12.711Zm2.258.168a3.337,3.337,0,0,0,.414,1.823,1.349,1.349,0,0,0,1.2.634,1.511,1.511,0,0,0,1.477-.884V11.111a1.489,1.489,0,0,0-1.461-.884Q93.957,10.227,93.957,12.879Zm11,4.277a4.15,4.15,0,0,1-3.027-1.141,4.054,4.054,0,0,1-1.168-3.039v-.219a5.106,5.106,0,0,1,.492-2.277,3.612,3.612,0,0,1,1.395-1.547,3.914,3.914,0,0,1,2.059-.543,3.508,3.508,0,0,1,2.73,1.094,4.444,4.444,0,0,1,1,3.1v.922h-5.383a2.1,2.1,0,0,0,.66,1.328,2,2,0,0,0,1.395.5,2.437,2.437,0,0,0,2.039-.945l1.109,1.242a3.389,3.389,0,0,1-1.375,1.121A4.511,4.511,0,0,1,104.957,17.156Zm-.258-6.945a1.411,1.411,0,0,0-1.09.455,2.357,2.357,0,0,0-.535,1.3h3.141v-.181a1.681,1.681,0,0,0-.406-1.165A1.456,1.456,0,0,0,104.7,10.211ZM12.926,33.336a1.481,1.481,0,0,0,1.016-.344,1.2,1.2,0,0,0,.406-.914h2.117A2.9,2.9,0,0,1,16,33.652a3.093,3.093,0,0,1-1.262,1.109,3.949,3.949,0,0,1-1.77.395A3.67,3.67,0,0,1,10.105,34,4.56,4.56,0,0,1,9.059,30.82v-.148A4.508,4.508,0,0,1,10.1,27.555a3.627,3.627,0,0,1,2.852-1.164,3.555,3.555,0,0,1,2.543.9,3.2,3.2,0,0,1,.973,2.4H14.348a1.551,1.551,0,0,0-.406-1.072,1.354,1.354,0,0,0-1.031-.412,1.36,1.36,0,0,0-1.191.575,3.333,3.333,0,0,0-.4,1.866v.235a3.375,3.375,0,0,0,.4,1.878A1.377,1.377,0,0,0,12.926,33.336ZM17.4,30.7a5.013,5.013,0,0,1,.484-2.242,3.546,3.546,0,0,1,1.395-1.523,4.069,4.069,0,0,1,2.113-.539,3.849,3.849,0,0,1,2.793,1.047,4.2,4.2,0,0,1,1.207,2.844l.016.578a4.418,4.418,0,0,1-1.086,3.121,3.775,3.775,0,0,1-2.914,1.176,3.793,3.793,0,0,1-2.918-1.172A4.5,4.5,0,0,1,17.4,30.8Zm2.258.16a3.16,3.16,0,0,0,.453,1.843,1.628,1.628,0,0,0,2.578.008,3.457,3.457,0,0,0,.461-2.015,3.128,3.128,0,0,0-.461-1.831,1.5,1.5,0,0,0-1.3-.649,1.474,1.474,0,0,0-1.281.646A3.516,3.516,0,0,0,19.66,30.856Zm9.258-4.309.07.945a2.971,2.971,0,0,1,2.43-1.1A2.255,2.255,0,0,1,33.66,27.68,2.9,2.9,0,0,1,36.2,26.391a2.521,2.521,0,0,1,2.047.8,3.681,3.681,0,0,1,.672,2.41V35H36.652V29.609a1.61,1.61,0,0,0-.281-1.051,1.246,1.246,0,0,0-.992-.332,1.409,1.409,0,0,0-1.406.969L33.98,35H31.723V29.617a1.59,1.59,0,0,0-.289-1.062,1.259,1.259,0,0,0-.984-.328,1.463,1.463,0,0,0-1.391.8V35H26.8V26.547Zm16.8,7.594A2.831,2.831,0,0,1,43.4,35.156a2.67,2.67,0,0,1-2.074-.781,3.335,3.335,0,0,1-.73-2.289V26.547h2.258v5.467q0,1.322,1.2,1.322a1.63,1.63,0,0,0,1.578-.8V26.547H47.9V35H45.777Zm5.969-7.594.07.977a2.951,2.951,0,0,1,2.43-1.133,2.453,2.453,0,0,1,2,.789,3.682,3.682,0,0,1,.672,2.359V35H54.6V29.594a1.465,1.465,0,0,0-.312-1.043,1.4,1.4,0,0,0-1.039-.324,1.553,1.553,0,0,0-1.43.813V35H49.559V26.547ZM60.949,35H58.684V26.547h2.266Zm-2.4-10.641a1.112,1.112,0,0,1,.34-.836,1.465,1.465,0,0,1,1.848,0,1.193,1.193,0,0,1,0,1.68,1.448,1.448,0,0,1-1.836,0A1.108,1.108,0,0,1,58.551,24.359Zm7.773,8.977a1.481,1.481,0,0,0,1.016-.344,1.2,1.2,0,0,0,.406-.914h2.117a2.9,2.9,0,0,1-.469,1.574,3.093,3.093,0,0,1-1.262,1.109,3.949,3.949,0,0,1-1.77.395A3.67,3.67,0,0,1,63.5,34a4.56,4.56,0,0,1-1.047-3.184v-.148A4.508,4.508,0,0,1,63.5,27.555a3.627,3.627,0,0,1,2.852-1.164,3.555,3.555,0,0,1,2.543.9,3.2,3.2,0,0,1,.973,2.4H67.746a1.551,1.551,0,0,0-.406-1.072,1.51,1.51,0,0,0-2.223.163,3.333,3.333,0,0,0-.4,1.866v.235a3.375,3.375,0,0,0,.4,1.878A1.377,1.377,0,0,0,66.324,33.336ZM76.051,35a2.507,2.507,0,0,1-.227-.758,2.732,2.732,0,0,1-2.133.914,3,3,0,0,1-2.059-.719,2.312,2.312,0,0,1-.816-1.812,2.389,2.389,0,0,1,1-2.062,4.915,4.915,0,0,1,2.879-.727H75.73v-.484a1.393,1.393,0,0,0-.3-.937,1.183,1.183,0,0,0-.949-.352,1.345,1.345,0,0,0-.895.273.929.929,0,0,0-.324.75H71a2.268,2.268,0,0,1,.453-1.359,3,3,0,0,1,1.281-.98,4.669,4.669,0,0,1,1.859-.355,3.689,3.689,0,0,1,2.48.785A2.747,2.747,0,0,1,78,29.383v3.664a4.041,4.041,0,0,0,.336,1.82V35Zm-1.867-1.57a1.945,1.945,0,0,0,.922-.223,1.462,1.462,0,0,0,.625-.6V31.156h-.844q-1.7,0-1.8,1.172l-.008.133a.9.9,0,0,0,.3.7A1.153,1.153,0,0,0,74.184,33.43Zm9.063-.094a1.481,1.481,0,0,0,1.016-.344,1.2,1.2,0,0,0,.406-.914h2.117a2.9,2.9,0,0,1-.469,1.574,3.093,3.093,0,0,1-1.262,1.109,3.949,3.949,0,0,1-1.77.395A3.67,3.67,0,0,1,80.426,34a4.56,4.56,0,0,1-1.047-3.184v-.148a4.508,4.508,0,0,1,1.039-3.117,3.627,3.627,0,0,1,2.852-1.164,3.555,3.555,0,0,1,2.543.9,3.2,3.2,0,0,1,.973,2.4H84.668a1.551,1.551,0,0,0-.406-1.072,1.51,1.51,0,0,0-2.223.163,3.333,3.333,0,0,0-.4,1.866v.235a3.375,3.375,0,0,0,.4,1.878A1.377,1.377,0,0,0,83.246,33.336ZM90.457,35H88.191V26.547h2.266Zm-2.4-10.641a1.112,1.112,0,0,1,.34-.836,1.465,1.465,0,0,1,1.848,0,1.193,1.193,0,0,1,0,1.68,1.448,1.448,0,0,1-1.836,0A1.108,1.108,0,0,1,88.059,24.359ZM91.965,30.7a5.013,5.013,0,0,1,.484-2.242,3.546,3.546,0,0,1,1.395-1.523,4.069,4.069,0,0,1,2.113-.539,3.849,3.849,0,0,1,2.793,1.047,4.2,4.2,0,0,1,1.207,2.844l.016.578a4.418,4.418,0,0,1-1.086,3.121,4.209,4.209,0,0,1-5.832,0,4.5,4.5,0,0,1-1.09-3.187Zm2.258.16a3.16,3.16,0,0,0,.453,1.843,1.628,1.628,0,0,0,2.578.008,3.457,3.457,0,0,0,.461-2.015,3.128,3.128,0,0,0-.461-1.831,1.5,1.5,0,0,0-1.3-.649,1.474,1.474,0,0,0-1.281.646A3.516,3.516,0,0,0,94.223,30.856ZM96.4,23h2.461L96.7,25.422H94.863Zm7.039,3.547.07.977a2.951,2.951,0,0,1,2.43-1.133,2.453,2.453,0,0,1,2,.789,3.682,3.682,0,0,1,.672,2.359V35h-2.258V29.594a1.465,1.465,0,0,0-.312-1.043A1.4,1.4,0,0,0,105,28.227a1.553,1.553,0,0,0-1.43.813V35h-2.258V26.547Z" transform="translate(738.676 1996)" fill="#12263f"/>
    <g id="Grupo_152020" data-name="Grupo 152020">
      <g id="Grupo_142468" data-name="Grupo 142468" transform="translate(770.31 1931.463)">
        <ellipse id="Elipse_4870" data-name="Elipse 4870" cx="27.5" cy="29" rx="27.5" ry="29" transform="translate(0.366 -0.463)" fill="url(#linear-gradient)"/>
        <g id="Fn9hEg" transform="translate(10.812 13.734)">
          <g id="Grupo_142370" data-name="Grupo 142370" transform="translate(0 0)">
            <path id="Trazado_183502" data-name="Trazado 183502" d="M3101.051-919.766v27.448a1.04,1.04,0,0,1-.991.481q-16.042-.018-32.083,0a1.033,1.033,0,0,1-1-.477v-27.448a1.04,1.04,0,0,1,1-.481q16.039.017,32.077,0A1.033,1.033,0,0,1,3101.051-919.766Zm-1.452,26.481v-19.82h-31.176v19.82Zm.012-25.5h-31.177v4.2h31.177Z" transform="translate(-3066.98 920.247)" fill="#12263f"/>
            <path id="Trazado_183503" data-name="Trazado 183503" d="M3136.019-801.007c1.329,2.116,2.652,4.2,3.948,6.308a1.081,1.081,0,0,1,.125.779.706.706,0,0,1-.539.417,1.093,1.093,0,0,1-.727-.4c-.559-.8-1.06-1.639-1.58-2.465q-1.269-2.02-2.535-4.042c-.367-.587-.366-.727.033-1.27q2.03-2.759,4.066-5.514a.738.738,0,0,1,1.052-.29c.374.247.427.662.1,1.112-1.254,1.718-2.52,3.427-3.781,5.139C3136.135-801.174,3136.091-801.109,3136.019-801.007Z" transform="translate(-3128.056 818.27)" fill="#12263f"/>
            <path id="Trazado_183504" data-name="Trazado 183504" d="M3300.195-808.7a2.773,2.773,0,0,1,.6.439c1.432,1.917,2.849,3.846,4.268,5.773a.72.72,0,0,1,.021.879c-1.409,2.237-2.811,4.479-4.225,6.713a.712.712,0,0,1-1.037.323.731.731,0,0,1-.158-1.079q1.876-3,3.772-5.993a.51.51,0,0,0-.029-.7c-1.247-1.663-2.469-3.345-3.706-5.015a.707.707,0,0,1-.105-.869A2.73,2.73,0,0,1,3300.195-808.7Z" transform="translate(-3277.487 819.257)" fill="#12263f"/>
            <path id="Trazado_183505" data-name="Trazado 183505" d="M3210.586-781.8a.746.746,0,0,1-.69-1.2q.935-1.695,1.881-3.383,1.786-3.194,3.574-6.387c.184-.331.429-.609.815-.478a1.145,1.145,0,0,1,.562.546.749.749,0,0,1-.105.571q-2.741,4.932-5.513,9.847A1.985,1.985,0,0,1,3210.586-781.8Z" transform="translate(-3196.242 805.295)" fill="#12263f"/>
            <path id="Trazado_183506" data-name="Trazado 183506" d="M3098.406-889.423a.722.722,0,0,1-.743.688.7.7,0,0,1-.673-.751.7.7,0,0,1,.713-.665A.722.722,0,0,1,3098.406-889.423Z" transform="translate(-3094.149 893)" fill="#12263f"/>
            <path id="Trazado_183507" data-name="Trazado 183507" d="M3128.414-889.44a.714.714,0,0,1-.727.7.7.7,0,0,1-.693-.735.7.7,0,0,1,.7-.681A.713.713,0,0,1,3128.414-889.44Z" transform="translate(-3121.314 893)" fill="#12263f"/>
            <path id="Trazado_183508" data-name="Trazado 183508" d="M3157.686-888.735a.718.718,0,0,1-.685-.753.72.72,0,0,1,.728-.663.729.729,0,0,1,.686.754A.727.727,0,0,1,3157.686-888.735Z" transform="translate(-3148.48 893)" fill="#12263f"/>
          </g>
        </g>
      </g>
    </g>
  </g>
</svg>
