<svg xmlns="http://www.w3.org/2000/svg" xmlns:xlink="http://www.w3.org/1999/xlink" width="166" height="140" viewBox="0 0 166 140">
  <defs>
    <filter id="Rectángulo_37328" x="0" y="0" width="166" height="140" filterUnits="userSpaceOnUse">
      <feOffset dy="3" input="SourceAlpha"/>
      <feGaussianBlur stdDeviation="3" result="blur"/>
      <feFlood flood-opacity="0.161"/>
      <feComposite operator="in" in2="blur"/>
      <feComposite in="SourceGraphic"/>
    </filter>
    <linearGradient id="linear-gradient" x1="0.5" x2="0.5" y2="1" gradientUnits="objectBoundingBox">
      <stop offset="0" stop-color="#4dd0e1"/>
      <stop offset="1" stop-color="#039be5"/>
    </linearGradient>
    <clipPath id="clip-path">
      <rect id="Rectángulo_37044" data-name="Rectángulo 37044" width="35.594" height="39.208" fill="#12263f"/>
    </clipPath>
  </defs>
  <g id="Grupo_152018" data-name="Grupo 152018" transform="translate(-401.676 -1914)">
    <g transform="matrix(1, 0, 0, 1, 401.68, 1914)" filter="url(#Rectángulo_37328)">
      <rect id="Rectángulo_37328-2" data-name="Rectángulo 37328" width="148" height="122" rx="10" transform="translate(9 6)" fill="#fff"/>
    </g>
    <path id="Trazado_194454" data-name="Trazado 194454" d="M21.133,5.625l2.922,8.25,2.906-8.25h3.078V17H27.688V13.891l.234-5.367L24.852,17H23.242L20.18,8.531l.234,5.359V17H18.07V5.625ZM31.586,12.7a5.013,5.013,0,0,1,.484-2.242A3.546,3.546,0,0,1,33.465,8.93a4.069,4.069,0,0,1,2.113-.539,3.849,3.849,0,0,1,2.793,1.047,4.2,4.2,0,0,1,1.207,2.844l.016.578a4.418,4.418,0,0,1-1.086,3.121,4.209,4.209,0,0,1-5.832,0,4.5,4.5,0,0,1-1.09-3.187Zm2.258.16A3.16,3.16,0,0,0,34.3,14.7a1.628,1.628,0,0,0,2.578.008,3.457,3.457,0,0,0,.461-2.015,3.128,3.128,0,0,0-.461-1.831,1.5,1.5,0,0,0-1.3-.649,1.474,1.474,0,0,0-1.281.646A3.516,3.516,0,0,0,33.844,12.856Zm6.789-.145a5.094,5.094,0,0,1,.887-3.148,2.877,2.877,0,0,1,2.426-1.172,2.589,2.589,0,0,1,2.039.922V5H48.25V17H46.211l-.109-.9a2.657,2.657,0,0,1-2.172,1.055,2.869,2.869,0,0,1-2.395-1.176A5.258,5.258,0,0,1,40.633,12.711Zm2.258.168A3.337,3.337,0,0,0,43.3,14.7a1.349,1.349,0,0,0,1.2.634,1.511,1.511,0,0,0,1.477-.884V11.111a1.489,1.489,0,0,0-1.461-.884Q42.891,10.227,42.891,12.879Zm11,4.277a4.15,4.15,0,0,1-3.027-1.141A4.054,4.054,0,0,1,49.7,12.977v-.219a5.106,5.106,0,0,1,.492-2.277,3.612,3.612,0,0,1,1.395-1.547,3.914,3.914,0,0,1,2.059-.543,3.508,3.508,0,0,1,2.73,1.094,4.444,4.444,0,0,1,1,3.1v.922H51.984a2.1,2.1,0,0,0,.66,1.328,2,2,0,0,0,1.395.5,2.437,2.437,0,0,0,2.039-.945l1.109,1.242a3.389,3.389,0,0,1-1.375,1.121A4.511,4.511,0,0,1,53.891,17.156Zm-.258-6.945a1.411,1.411,0,0,0-1.09.455,2.357,2.357,0,0,0-.535,1.3h3.141v-.181a1.681,1.681,0,0,0-.406-1.165A1.456,1.456,0,0,0,53.633,10.211ZM61.031,17H58.766V5h2.266Zm1.508-4.3a5.013,5.013,0,0,1,.484-2.242A3.546,3.546,0,0,1,64.418,8.93a4.069,4.069,0,0,1,2.113-.539,3.849,3.849,0,0,1,2.793,1.047,4.2,4.2,0,0,1,1.207,2.844l.016.578a4.418,4.418,0,0,1-1.086,3.121,4.209,4.209,0,0,1-5.832,0,4.5,4.5,0,0,1-1.09-3.187Zm2.258.16A3.16,3.16,0,0,0,65.25,14.7a1.628,1.628,0,0,0,2.578.008,3.457,3.457,0,0,0,.461-2.015,3.128,3.128,0,0,0-.461-1.831,1.5,1.5,0,0,0-1.3-.649,1.474,1.474,0,0,0-1.281.646A3.516,3.516,0,0,0,64.8,12.856Zm11.719,1.808a.727.727,0,0,0-.41-.652,4.659,4.659,0,0,0-1.316-.426q-3.016-.633-3.016-2.562a2.323,2.323,0,0,1,.934-1.879,3.766,3.766,0,0,1,2.441-.754,4.053,4.053,0,0,1,2.574.758,2.388,2.388,0,0,1,.965,1.969H76.43a1.092,1.092,0,0,0-.312-.8A1.322,1.322,0,0,0,75.141,10a1.351,1.351,0,0,0-.883.258.814.814,0,0,0-.312.656.7.7,0,0,0,.355.605,3.657,3.657,0,0,0,1.2.4,9.8,9.8,0,0,1,1.422.379,2.336,2.336,0,0,1,1.789,2.273,2.2,2.2,0,0,1-.992,1.871,4.28,4.28,0,0,1-2.562.715,4.47,4.47,0,0,1-1.887-.379,3.166,3.166,0,0,1-1.293-1.039,2.414,2.414,0,0,1-.469-1.426h2.141a1.179,1.179,0,0,0,.445.922,1.766,1.766,0,0,0,1.109.32,1.635,1.635,0,0,0,.98-.246A.766.766,0,0,0,76.516,14.664ZM83.8,12.711a5.094,5.094,0,0,1,.887-3.148,2.877,2.877,0,0,1,2.426-1.172,2.589,2.589,0,0,1,2.039.922V5h2.266V17H89.375l-.109-.9a2.657,2.657,0,0,1-2.172,1.055A2.869,2.869,0,0,1,84.7,15.98,5.258,5.258,0,0,1,83.8,12.711Zm2.258.168a3.337,3.337,0,0,0,.414,1.823,1.349,1.349,0,0,0,1.2.634,1.511,1.511,0,0,0,1.477-.884V11.111a1.489,1.489,0,0,0-1.461-.884Q86.055,10.227,86.055,12.879Zm11,4.277a4.15,4.15,0,0,1-3.027-1.141,4.054,4.054,0,0,1-1.168-3.039v-.219a5.106,5.106,0,0,1,.492-2.277,3.612,3.612,0,0,1,1.395-1.547A3.914,3.914,0,0,1,96.8,8.391a3.508,3.508,0,0,1,2.73,1.094,4.444,4.444,0,0,1,1,3.1v.922H95.148a2.1,2.1,0,0,0,.66,1.328,2,2,0,0,0,1.395.5,2.437,2.437,0,0,0,2.039-.945l1.109,1.242a3.389,3.389,0,0,1-1.375,1.121A4.511,4.511,0,0,1,97.055,17.156ZM96.8,10.211a1.411,1.411,0,0,0-1.09.455,2.357,2.357,0,0,0-.535,1.3h3.141v-.181a1.681,1.681,0,0,0-.406-1.165A1.456,1.456,0,0,0,96.8,10.211ZM27.879,28.664a6.134,6.134,0,0,0-.812-.062,1.654,1.654,0,0,0-1.68.867V35H23.129V26.547h2.133l.063,1.008a2.092,2.092,0,0,1,1.883-1.164,2.366,2.366,0,0,1,.7.1Zm4.977,6.492a4.15,4.15,0,0,1-3.027-1.141,4.054,4.054,0,0,1-1.168-3.039v-.219a5.106,5.106,0,0,1,.492-2.277,3.612,3.612,0,0,1,1.395-1.547,3.914,3.914,0,0,1,2.059-.543,3.508,3.508,0,0,1,2.73,1.094,4.444,4.444,0,0,1,1,3.1v.922H30.949a2.1,2.1,0,0,0,.66,1.328,2,2,0,0,0,1.395.5,2.437,2.437,0,0,0,2.039-.945l1.109,1.242a3.389,3.389,0,0,1-1.375,1.121A4.511,4.511,0,0,1,32.855,35.156ZM32.6,28.211a1.411,1.411,0,0,0-1.09.455,2.357,2.357,0,0,0-.535,1.3h3.141v-.181a1.681,1.681,0,0,0-.406-1.165A1.456,1.456,0,0,0,32.6,28.211ZM38.23,35V28.2H36.973V26.547H38.23v-.719a2.918,2.918,0,0,1,.816-2.207,3.162,3.162,0,0,1,2.285-.785,5.278,5.278,0,0,1,1.148.156l-.023,1.75a2.878,2.878,0,0,0-.687-.07q-1.273,0-1.273,1.2v.68h1.68V28.2H40.5V35Zm9.008.156a4.15,4.15,0,0,1-3.027-1.141,4.054,4.054,0,0,1-1.168-3.039v-.219a5.106,5.106,0,0,1,.492-2.277,3.612,3.612,0,0,1,1.395-1.547,3.914,3.914,0,0,1,2.059-.543,3.508,3.508,0,0,1,2.73,1.094,4.444,4.444,0,0,1,1,3.1v.922H45.332a2.1,2.1,0,0,0,.66,1.328,2,2,0,0,0,1.395.5,2.437,2.437,0,0,0,2.039-.945l1.109,1.242a3.389,3.389,0,0,1-1.375,1.121A4.511,4.511,0,0,1,47.238,35.156Zm-.258-6.945a1.411,1.411,0,0,0-1.09.455,2.357,2.357,0,0,0-.535,1.3H48.5v-.181a1.681,1.681,0,0,0-.406-1.165A1.456,1.456,0,0,0,46.98,28.211Zm9.766.453a6.134,6.134,0,0,0-.812-.062,1.654,1.654,0,0,0-1.68.867V35H52V26.547h2.133l.063,1.008a2.092,2.092,0,0,1,1.883-1.164,2.366,2.366,0,0,1,.7.1Zm4.977,6.492A4.15,4.15,0,0,1,58.7,34.016a4.054,4.054,0,0,1-1.168-3.039v-.219a5.106,5.106,0,0,1,.492-2.277,3.612,3.612,0,0,1,1.395-1.547,3.914,3.914,0,0,1,2.059-.543,3.508,3.508,0,0,1,2.73,1.094,4.444,4.444,0,0,1,1,3.1v.922H59.816a2.1,2.1,0,0,0,.66,1.328,2,2,0,0,0,1.395.5,2.437,2.437,0,0,0,2.039-.945l1.109,1.242a3.389,3.389,0,0,1-1.375,1.121A4.511,4.511,0,0,1,61.723,35.156Zm-.258-6.945a1.411,1.411,0,0,0-1.09.455,2.357,2.357,0,0,0-.535,1.3H62.98v-.181a1.681,1.681,0,0,0-.406-1.165A1.456,1.456,0,0,0,61.465,28.211Zm7.094-1.664.07.977a2.951,2.951,0,0,1,2.43-1.133,2.453,2.453,0,0,1,2,.789,3.682,3.682,0,0,1,.672,2.359V35H71.473V29.594a1.465,1.465,0,0,0-.312-1.043,1.4,1.4,0,0,0-1.039-.324,1.553,1.553,0,0,0-1.43.813V35H66.434V26.547Zm10.4,6.789a1.481,1.481,0,0,0,1.016-.344,1.2,1.2,0,0,0,.406-.914H82.5a2.9,2.9,0,0,1-.469,1.574,3.093,3.093,0,0,1-1.262,1.109,3.949,3.949,0,0,1-1.77.395A3.67,3.67,0,0,1,76.137,34,4.56,4.56,0,0,1,75.09,30.82v-.148a4.508,4.508,0,0,1,1.039-3.117,3.627,3.627,0,0,1,2.852-1.164,3.555,3.555,0,0,1,2.543.9,3.2,3.2,0,0,1,.973,2.4H80.379a1.551,1.551,0,0,0-.406-1.072,1.51,1.51,0,0,0-2.223.163,3.333,3.333,0,0,0-.4,1.866v.235a3.375,3.375,0,0,0,.4,1.878A1.377,1.377,0,0,0,78.957,33.336ZM86.168,35H83.9V26.547h2.266Zm-2.4-10.641a1.112,1.112,0,0,1,.34-.836,1.465,1.465,0,0,1,1.848,0,1.193,1.193,0,0,1,0,1.68,1.448,1.448,0,0,1-1.836,0A1.108,1.108,0,0,1,83.77,24.359ZM92.926,35a2.507,2.507,0,0,1-.227-.758,2.732,2.732,0,0,1-2.133.914,3,3,0,0,1-2.059-.719,2.312,2.312,0,0,1-.816-1.812,2.389,2.389,0,0,1,1-2.062,4.915,4.915,0,0,1,2.879-.727h1.039v-.484a1.393,1.393,0,0,0-.3-.937,1.183,1.183,0,0,0-.949-.352,1.345,1.345,0,0,0-.895.273.929.929,0,0,0-.324.75H87.879a2.268,2.268,0,0,1,.453-1.359,3,3,0,0,1,1.281-.98,4.669,4.669,0,0,1,1.859-.355,3.689,3.689,0,0,1,2.48.785,2.747,2.747,0,0,1,.918,2.207v3.664a4.041,4.041,0,0,0,.336,1.82V35Zm-1.867-1.57a1.945,1.945,0,0,0,.922-.223,1.462,1.462,0,0,0,.625-.6V31.156h-.844q-1.7,0-1.8,1.172l-.008.133a.9.9,0,0,0,.3.7A1.153,1.153,0,0,0,91.059,33.43Z" transform="translate(422.676 1996)" fill="#12263f"/>
    <g id="Grupo_142466" data-name="Grupo 142466" transform="translate(452.225 1931.463)">
      <ellipse id="Elipse_4868" data-name="Elipse 4868" cx="28" cy="29" rx="28" ry="29" transform="translate(0.451 -0.463)" fill="url(#linear-gradient)"/>
      <g id="Grupo_142365" data-name="Grupo 142365" transform="translate(10.388 8.993)">
        <g id="Grupo_141597" data-name="Grupo 141597" transform="translate(0 0)" clip-path="url(#clip-path)">
          <path id="Trazado_183339" data-name="Trazado 183339" d="M127.043,52.247a3.25,3.25,0,1,1,3.25-3.25,3.254,3.254,0,0,1-3.25,3.25m0-5.261a2.01,2.01,0,1,0,2.01,2.01,2.013,2.013,0,0,0-2.01-2.01" transform="translate(-109.173 -40.344)" fill="#12263f"/>
          <path id="Trazado_183340" data-name="Trazado 183340" d="M119.659,206.479a2,2,0,0,1-.323-.026,2.024,2.024,0,0,1-1.642-2.014V190.29a.62.62,0,0,1,1.24,0v14.149a.786.786,0,0,0,.6.79.729.729,0,0,0,.855-.718V194.265a1.264,1.264,0,1,1,2.527,0v10.174a.786.786,0,0,0,.6.79.729.729,0,0,0,.855-.718v-1.132a.62.62,0,0,1,1.24,0v1.132a1.969,1.969,0,0,1-2.294,1.942,2.024,2.024,0,0,1-1.642-2.014V194.265c0-.026-.047-.026-.047,0v10.246a1.967,1.967,0,0,1-1.971,1.968" transform="translate(-103.795 -167.271)" fill="#12263f"/>
          <path id="Trazado_183341" data-name="Trazado 183341" d="M174.871,214.9a.62.62,0,0,1-.62-.62v-11.63a.62.62,0,1,1,1.24,0v11.63a.62.62,0,0,1-.62.62" transform="translate(-153.673 -178.168)" fill="#12263f"/>
          <path id="Trazado_183342" data-name="Trazado 183342" d="M103.568,186.137a1.676,1.676,0,0,1-1.674-1.675v-3.837a.62.62,0,0,1,1.24,0v3.837a.435.435,0,0,0,.434.435.429.429,0,0,0,.2-.049.62.62,0,0,1,.577,1.1,1.68,1.68,0,0,1-.778.191" transform="translate(-89.861 -158.748)" fill="#12263f"/>
          <path id="Trazado_183343" data-name="Trazado 183343" d="M113.321,105.507a.618.618,0,0,1-.435-.178,6.429,6.429,0,0,0-4.537-1.861h-.184a6.429,6.429,0,0,0-4.537,1.861.62.62,0,0,1-.87-.883,7.661,7.661,0,0,1,5.407-2.218h.184a7.661,7.661,0,0,1,5.407,2.218.62.62,0,0,1-.435,1.062" transform="translate(-90.46 -90.155)" fill="#12263f"/>
          <path id="Trazado_183344" data-name="Trazado 183344" d="M177.042,217.849a1.68,1.68,0,0,1-.778-.191.62.62,0,0,1,.577-1.1.428.428,0,0,0,.2.049.435.435,0,0,0,.4-.266.62.62,0,0,1,1.142.483,1.672,1.672,0,0,1-1.543,1.023" transform="translate(-155.155 -190.46)" fill="#12263f"/>
          <path id="Trazado_183345" data-name="Trazado 183345" d="M245.368,62.495a.62.62,0,1,1,0-1.24,1.61,1.61,0,1,0-.3-3.193.62.62,0,0,1-.231-1.218,2.851,2.851,0,1,1,.533,5.651" transform="translate(-215.476 -50.087)" fill="#12263f"/>
          <path id="Trazado_183346" data-name="Trazado 183346" d="M221.554,271.308q-.094,0-.188-.009a2.015,2.015,0,0,1-1.777-2.017V263.8a.62.62,0,0,1,1.24,0v5.482a.766.766,0,0,0,.654.782.728.728,0,0,0,.8-.724v-5.192a.62.62,0,0,1,1.24,0v5.192a1.968,1.968,0,0,1-1.972,1.968" transform="translate(-193.657 -232.1)" fill="#12263f"/>
          <path id="Trazado_183347" data-name="Trazado 183347" d="M255.281,239.8c-.062,0-.125,0-.188-.009a2.015,2.015,0,0,1-1.777-2.017v-8.237a.62.62,0,1,1,1.24,0v8.237a.766.766,0,0,0,.654.782.728.728,0,0,0,.8-.725v-9.758a.62.62,0,1,1,1.24,0v9.758a1.968,1.968,0,0,1-1.972,1.968" transform="translate(-223.401 -200.597)" fill="#12263f"/>
          <path id="Trazado_183348" data-name="Trazado 183348" d="M276.767,159.056a.62.62,0,0,1-.62-.62V149.11a.62.62,0,1,1,1.24,0v9.326a.62.62,0,0,1-.62.62" transform="translate(-243.535 -130.954)" fill="#12263f"/>
          <path id="Trazado_183349" data-name="Trazado 183349" d="M282.929,223.578a.62.62,0,0,1-.62-.62v-.916a.62.62,0,0,1,1.24,0v.916a.62.62,0,0,1-.62.62" transform="translate(-248.969 -195.273)" fill="#12263f"/>
          <path id="Trazado_183350" data-name="Trazado 183350" d="M251.473,119.713a1.679,1.679,0,0,1-.778-.191.62.62,0,0,1,.577-1.1.428.428,0,0,0,.2.049.435.435,0,0,0,.434-.435V109.08a2.261,2.261,0,0,0-.665-1.6,5.358,5.358,0,0,0-3.781-1.551h-.156a.62.62,0,0,1,0-1.24h.156a6.59,6.59,0,0,1,4.651,1.907,3.508,3.508,0,0,1,1.035,2.486v8.958a1.676,1.676,0,0,1-1.674,1.675" transform="translate(-217.553 -92.324)" fill="#12263f"/>
          <path id="Trazado_183351" data-name="Trazado 183351" d="M79.138,223.578a.62.62,0,0,1-.62-.62v-.916a.62.62,0,0,1,1.24,0v.916a.62.62,0,0,1-.62.62" transform="translate(-69.245 -195.273)" fill="#12263f"/>
          <path id="Trazado_183352" data-name="Trazado 183352" d="M72.575,238.479H70.546a.62.62,0,0,1-.62-.62v-6.716a.62.62,0,0,1,.62-.62h2.029a.62.62,0,0,1,.62.62v6.716a.62.62,0,0,1-.62.62m-1.409-1.24h.789v-5.476h-.789Z" transform="translate(-61.668 -203.299)" fill="#12263f"/>
          <path id="Trazado_183353" data-name="Trazado 183353" d="M27.9,62.491h-.039a2.85,2.85,0,0,1,.177-5.7.62.62,0,0,1,0,1.24,1.61,1.61,0,0,0-.1,3.218.62.62,0,0,1-.037,1.239" transform="translate(-22.216 -50.087)" fill="#12263f"/>
          <path id="Trazado_183354" data-name="Trazado 183354" d="M21.747,170.162a1.963,1.963,0,0,1-1.965-2.04V157.948c0-.026-.047-.026-.047,0v10.246a1.969,1.969,0,0,1-2.294,1.942,2.024,2.024,0,0,1-1.642-2.014V149.11a.62.62,0,1,1,1.24,0v19.012a.786.786,0,0,0,.6.79.729.729,0,0,0,.855-.718V157.948a1.263,1.263,0,1,1,2.527,0v10.174a.786.786,0,0,0,.6.79.729.729,0,0,0,.855-.718v-1.228a.62.62,0,0,1,1.24,0v1.228a1.967,1.967,0,0,1-1.971,1.968" transform="translate(-13.933 -130.954)" fill="#12263f"/>
          <path id="Trazado_183355" data-name="Trazado 183355" d="M72.975,167.407a.62.62,0,0,1-.62-.62v-8.438a.62.62,0,0,1,1.24,0v8.438a.62.62,0,0,1-.62.62" transform="translate(-63.81 -139.102)" fill="#12263f"/>
          <path id="Trazado_183356" data-name="Trazado 183356" d="M1.674,119.713A1.676,1.676,0,0,1,0,118.038V109.08a3.507,3.507,0,0,1,1.035-2.486,6.59,6.59,0,0,1,4.651-1.907.62.62,0,0,1,0,1.24,5.357,5.357,0,0,0-3.781,1.551,2.26,2.26,0,0,0-.665,1.6v8.958a.435.435,0,0,0,.434.435.428.428,0,0,0,.2-.049.62.62,0,1,1,.577,1.1,1.679,1.679,0,0,1-.778.191" transform="translate(0 -92.324)" fill="#12263f"/>
          <path id="Trazado_183357" data-name="Trazado 183357" d="M75.147,178.768a1.68,1.68,0,0,1-.778-.191.62.62,0,0,1,.577-1.1.428.428,0,0,0,.2.049.435.435,0,0,0,.435-.435V172.27a.62.62,0,1,1,1.24,0v4.823a1.677,1.677,0,0,1-1.675,1.675" transform="translate(-65.294 -151.379)" fill="#12263f"/>
          <path id="Trazado_183358" data-name="Trazado 183358" d="M182,168.273a2.746,2.746,0,0,1-.659-.08,2.711,2.711,0,0,1-1.683-1.237l-5.136-8.489a.62.62,0,0,1,1.061-.642l5.135,8.489a1.489,1.489,0,0,0,2.044.5l.011-.006a1.489,1.489,0,0,0,.5-2.04l-5.067-8.377a.62.62,0,1,1,1.061-.642l5.067,8.376a2.729,2.729,0,0,1-.922,3.747l-.011.006a2.7,2.7,0,0,1-1.4.391" transform="translate(-153.832 -137.095)" fill="#12263f"/>
          <path id="Trazado_183359" data-name="Trazado 183359" d="M66.78,22.16a11.146,11.146,0,0,1-2.667-.325A11.075,11.075,0,0,1,61.028,1.6,11.076,11.076,0,0,1,77.515,13.728,11.089,11.089,0,0,1,66.78,22.16M66.744,1.241a9.838,9.838,0,0,0-8.4,14.93A9.835,9.835,0,1,0,75.176,5.989a9.77,9.77,0,0,0-6.064-4.46,9.9,9.9,0,0,0-2.368-.289m.032,18.628a8.845,8.845,0,0,1-2.115-.258A8.784,8.784,0,0,1,62.214,3.564,8.784,8.784,0,1,1,71.307,18.6a8.725,8.725,0,0,1-4.531,1.273M66.748,3.532a7.547,7.547,0,0,0-1.79,14.875,7.491,7.491,0,0,0,5.708-.871h0a7.545,7.545,0,0,0-2.1-13.781,7.6,7.6,0,0,0-1.817-.222" transform="translate(-49.105 0)" fill="#12263f"/>
          <path id="Trazado_183360" data-name="Trazado 183360" d="M222.724,153.084a.62.62,0,0,1-.62-.62V151.27a.62.62,0,1,1,1.24,0v1.194a.62.62,0,0,1-.62.62" transform="translate(-195.874 -132.859)" fill="#12263f"/>
        </g>
      </g>
    </g>
  </g>
</svg>
