<svg xmlns="http://www.w3.org/2000/svg" xmlns:xlink="http://www.w3.org/1999/xlink" width="167" height="140" viewBox="0 0 167 140">
  <defs>
    <filter id="Rectángulo_37327" x="0" y="0" width="167" height="140" filterUnits="userSpaceOnUse">
      <feOffset dy="3" input="SourceAlpha"/>
      <feGaussianBlur stdDeviation="3" result="blur"/>
      <feFlood flood-opacity="0.161"/>
      <feComposite operator="in" in2="blur"/>
      <feComposite in="SourceGraphic"/>
    </filter>
    <linearGradient id="linear-gradient" x1="0.5" x2="0.5" y2="1" gradientUnits="objectBoundingBox">
      <stop offset="0" stop-color="#4dd0e1"/>
      <stop offset="1" stop-color="#039be5"/>
    </linearGradient>
    <clipPath id="clip-path">
      <rect id="Rectángulo_37093" data-name="Rectángulo 37093" width="46.099" height="46.099" fill="#12263f"/>
    </clipPath>
  </defs>
  <g id="Grupo_152019" data-name="Grupo 152019" transform="translate(-558.676 -1914)">
    <g transform="matrix(1, 0, 0, 1, 558.68, 1914)" filter="url(#Rectángulo_37327)">
      <rect id="Rectángulo_37327-2" data-name="Rectángulo 37327" width="149" height="122" rx="10" transform="translate(9 6)" fill="#fff"/>
    </g>
    <path id="Trazado_194455" data-name="Trazado 194455" d="M35.246,5.625l2.922,8.25,2.906-8.25h3.078V17H41.8V13.891l.234-5.367L38.965,17H37.355L34.293,8.531l.234,5.359V17H32.184V5.625ZM45.7,12.7a5.013,5.013,0,0,1,.484-2.242A3.546,3.546,0,0,1,47.578,8.93a4.069,4.069,0,0,1,2.113-.539,3.849,3.849,0,0,1,2.793,1.047,4.2,4.2,0,0,1,1.207,2.844l.016.578a4.418,4.418,0,0,1-1.086,3.121,4.209,4.209,0,0,1-5.832,0A4.5,4.5,0,0,1,45.7,12.8Zm2.258.16A3.16,3.16,0,0,0,48.41,14.7a1.628,1.628,0,0,0,2.578.008,3.457,3.457,0,0,0,.461-2.015,3.128,3.128,0,0,0-.461-1.831,1.5,1.5,0,0,0-1.3-.649,1.474,1.474,0,0,0-1.281.646A3.516,3.516,0,0,0,47.957,12.856Zm6.789-.145a5.094,5.094,0,0,1,.887-3.148,2.877,2.877,0,0,1,2.426-1.172,2.589,2.589,0,0,1,2.039.922V5h2.266V17H60.324l-.109-.9a2.657,2.657,0,0,1-2.172,1.055,2.869,2.869,0,0,1-2.395-1.176A5.258,5.258,0,0,1,54.746,12.711ZM57,12.879a3.337,3.337,0,0,0,.414,1.823,1.349,1.349,0,0,0,1.2.634,1.511,1.511,0,0,0,1.477-.884V11.111a1.489,1.489,0,0,0-1.461-.884Q57,10.227,57,12.879Zm11,4.277a4.15,4.15,0,0,1-3.027-1.141,4.054,4.054,0,0,1-1.168-3.039v-.219A5.106,5.106,0,0,1,64.3,10.48,3.612,3.612,0,0,1,65.7,8.934a3.914,3.914,0,0,1,2.059-.543,3.508,3.508,0,0,1,2.73,1.094,4.444,4.444,0,0,1,1,3.1v.922H66.1a2.1,2.1,0,0,0,.66,1.328,2,2,0,0,0,1.395.5,2.437,2.437,0,0,0,2.039-.945L71.3,15.633a3.389,3.389,0,0,1-1.375,1.121A4.511,4.511,0,0,1,68,17.156Zm-.258-6.945a1.411,1.411,0,0,0-1.09.455,2.357,2.357,0,0,0-.535,1.3h3.141v-.181a1.681,1.681,0,0,0-.406-1.165A1.456,1.456,0,0,0,67.746,10.211ZM75.145,17H72.879V5h2.266Zm1.508-4.3a5.013,5.013,0,0,1,.484-2.242A3.546,3.546,0,0,1,78.531,8.93a4.069,4.069,0,0,1,2.113-.539,3.849,3.849,0,0,1,2.793,1.047,4.2,4.2,0,0,1,1.207,2.844l.016.578a4.418,4.418,0,0,1-1.086,3.121,4.209,4.209,0,0,1-5.832,0,4.5,4.5,0,0,1-1.09-3.187Zm2.258.16a3.16,3.16,0,0,0,.453,1.843,1.628,1.628,0,0,0,2.578.008,3.457,3.457,0,0,0,.461-2.015,3.128,3.128,0,0,0-.461-1.831,1.5,1.5,0,0,0-1.3-.649,1.474,1.474,0,0,0-1.281.646A3.516,3.516,0,0,0,78.91,12.856Zm10.773-.145a5.094,5.094,0,0,1,.887-3.148A2.877,2.877,0,0,1,93,8.391a2.589,2.589,0,0,1,2.039.922V5H97.3V17H95.262l-.109-.9a2.657,2.657,0,0,1-2.172,1.055,2.869,2.869,0,0,1-2.395-1.176A5.258,5.258,0,0,1,89.684,12.711Zm2.258.168a3.337,3.337,0,0,0,.414,1.823,1.349,1.349,0,0,0,1.2.634,1.511,1.511,0,0,0,1.477-.884V11.111a1.489,1.489,0,0,0-1.461-.884Q91.941,10.227,91.941,12.879Zm11,4.277a4.15,4.15,0,0,1-3.027-1.141,4.054,4.054,0,0,1-1.168-3.039v-.219a5.106,5.106,0,0,1,.492-2.277,3.612,3.612,0,0,1,1.395-1.547,3.914,3.914,0,0,1,2.059-.543,3.508,3.508,0,0,1,2.73,1.094,4.444,4.444,0,0,1,1,3.1v.922h-5.383a2.1,2.1,0,0,0,.66,1.328,2,2,0,0,0,1.395.5,2.437,2.437,0,0,0,2.039-.945l1.109,1.242a3.389,3.389,0,0,1-1.375,1.121A4.511,4.511,0,0,1,102.941,17.156Zm-.258-6.945a1.411,1.411,0,0,0-1.09.455,2.357,2.357,0,0,0-.535,1.3H104.2v-.181a1.681,1.681,0,0,0-.406-1.165A1.456,1.456,0,0,0,102.684,10.211ZM8.3,28.664a6.134,6.134,0,0,0-.812-.062,1.654,1.654,0,0,0-1.68.867V35H3.555V26.547H5.688l.063,1.008a2.092,2.092,0,0,1,1.883-1.164,2.366,2.366,0,0,1,.7.1Zm4.977,6.492a4.15,4.15,0,0,1-3.027-1.141,4.054,4.054,0,0,1-1.168-3.039v-.219a5.106,5.106,0,0,1,.492-2.277,3.612,3.612,0,0,1,1.395-1.547,3.914,3.914,0,0,1,2.059-.543,3.508,3.508,0,0,1,2.73,1.094,4.444,4.444,0,0,1,1,3.1v.922H11.375a2.1,2.1,0,0,0,.66,1.328,2,2,0,0,0,1.395.5,2.437,2.437,0,0,0,2.039-.945l1.109,1.242A3.389,3.389,0,0,1,15.2,34.754,4.511,4.511,0,0,1,13.281,35.156Zm-.258-6.945a1.411,1.411,0,0,0-1.09.455,2.357,2.357,0,0,0-.535,1.3h3.141v-.181a1.681,1.681,0,0,0-.406-1.165A1.456,1.456,0,0,0,13.023,28.211ZM18.656,35V28.2H17.4V26.547h1.258v-.719a2.918,2.918,0,0,1,.816-2.207,3.162,3.162,0,0,1,2.285-.785,5.278,5.278,0,0,1,1.148.156l-.023,1.75a2.878,2.878,0,0,0-.687-.07q-1.273,0-1.273,1.2v.68H22.6V28.2h-1.68V35Zm9.008.156a4.15,4.15,0,0,1-3.027-1.141,4.054,4.054,0,0,1-1.168-3.039v-.219a5.106,5.106,0,0,1,.492-2.277,3.612,3.612,0,0,1,1.395-1.547,3.914,3.914,0,0,1,2.059-.543,3.508,3.508,0,0,1,2.73,1.094,4.444,4.444,0,0,1,1,3.1v.922H25.758a2.1,2.1,0,0,0,.66,1.328,2,2,0,0,0,1.395.5,2.437,2.437,0,0,0,2.039-.945l1.109,1.242a3.389,3.389,0,0,1-1.375,1.121A4.511,4.511,0,0,1,27.664,35.156Zm-.258-6.945a1.411,1.411,0,0,0-1.09.455,2.357,2.357,0,0,0-.535,1.3h3.141v-.181a1.681,1.681,0,0,0-.406-1.165A1.456,1.456,0,0,0,27.406,28.211Zm9.766.453a6.134,6.134,0,0,0-.812-.062,1.654,1.654,0,0,0-1.68.867V35H32.422V26.547h2.133l.063,1.008A2.092,2.092,0,0,1,36.5,26.391a2.366,2.366,0,0,1,.7.1Zm4.977,6.492a4.15,4.15,0,0,1-3.027-1.141,4.054,4.054,0,0,1-1.168-3.039v-.219a5.106,5.106,0,0,1,.492-2.277,3.612,3.612,0,0,1,1.395-1.547,3.914,3.914,0,0,1,2.059-.543,3.508,3.508,0,0,1,2.73,1.094,4.444,4.444,0,0,1,1,3.1v.922H40.242a2.1,2.1,0,0,0,.66,1.328,2,2,0,0,0,1.395.5,2.437,2.437,0,0,0,2.039-.945l1.109,1.242a3.389,3.389,0,0,1-1.375,1.121A4.511,4.511,0,0,1,42.148,35.156Zm-.258-6.945a1.411,1.411,0,0,0-1.09.455,2.357,2.357,0,0,0-.535,1.3h3.141v-.181A1.681,1.681,0,0,0,43,28.623,1.456,1.456,0,0,0,41.891,28.211Zm7.094-1.664.07.977a2.951,2.951,0,0,1,2.43-1.133,2.453,2.453,0,0,1,2,.789,3.682,3.682,0,0,1,.672,2.359V35H51.9V29.594a1.465,1.465,0,0,0-.312-1.043,1.4,1.4,0,0,0-1.039-.324,1.553,1.553,0,0,0-1.43.813V35H46.859V26.547Zm10.4,6.789a1.481,1.481,0,0,0,1.016-.344,1.2,1.2,0,0,0,.406-.914h2.117a2.9,2.9,0,0,1-.469,1.574,3.093,3.093,0,0,1-1.262,1.109,3.949,3.949,0,0,1-1.77.395A3.67,3.67,0,0,1,56.563,34a4.56,4.56,0,0,1-1.047-3.184v-.148a4.508,4.508,0,0,1,1.039-3.117,3.627,3.627,0,0,1,2.852-1.164,3.555,3.555,0,0,1,2.543.9,3.2,3.2,0,0,1,.973,2.4H60.8a1.551,1.551,0,0,0-.406-1.072,1.51,1.51,0,0,0-2.223.163,3.333,3.333,0,0,0-.4,1.866v.235a3.375,3.375,0,0,0,.4,1.878A1.377,1.377,0,0,0,59.383,33.336ZM66.594,35H64.328V26.547h2.266ZM64.2,24.359a1.112,1.112,0,0,1,.34-.836,1.465,1.465,0,0,1,1.848,0,1.193,1.193,0,0,1,0,1.68,1.448,1.448,0,0,1-1.836,0A1.108,1.108,0,0,1,64.2,24.359ZM73.352,35a2.507,2.507,0,0,1-.227-.758,2.732,2.732,0,0,1-2.133.914,3,3,0,0,1-2.059-.719,2.312,2.312,0,0,1-.816-1.812,2.389,2.389,0,0,1,1-2.062,4.915,4.915,0,0,1,2.879-.727h1.039v-.484a1.393,1.393,0,0,0-.3-.937,1.183,1.183,0,0,0-.949-.352,1.345,1.345,0,0,0-.895.273.929.929,0,0,0-.324.75H68.3a2.268,2.268,0,0,1,.453-1.359,3,3,0,0,1,1.281-.98,4.669,4.669,0,0,1,1.859-.355,3.689,3.689,0,0,1,2.48.785,2.747,2.747,0,0,1,.918,2.207v3.664a4.041,4.041,0,0,0,.336,1.82V35Zm-1.867-1.57a1.945,1.945,0,0,0,.922-.223,1.462,1.462,0,0,0,.625-.6V31.156h-.844q-1.7,0-1.8,1.172l-.008.133a.9.9,0,0,0,.3.7A1.153,1.153,0,0,0,71.484,33.43Zm17.773-7.906H85.773V35H83.43V25.523H79.992v-1.9h9.266Zm10.266,5.688A4.025,4.025,0,0,1,98.168,34.1a4.76,4.76,0,0,1-3.223,1.055A4.28,4.28,0,0,1,91.5,33.684a6.038,6.038,0,0,1-1.254-4.043v-.7a6.819,6.819,0,0,1,.578-2.891,4.332,4.332,0,0,1,1.652-1.918,5.164,5.164,0,0,1,5.668.387,4.326,4.326,0,0,1,1.391,2.961H97.2a2.376,2.376,0,0,0-.613-1.6,2.271,2.271,0,0,0-1.605-.5,1.991,1.991,0,0,0-1.754.84,4.707,4.707,0,0,0-.6,2.605V29.7a5.038,5.038,0,0,0,.559,2.7,1.954,1.954,0,0,0,1.762.852,2.314,2.314,0,0,0,1.621-.5,2.241,2.241,0,0,0,.613-1.535Zm3.883-.219V35h-2.344V23.625H105.5a5.134,5.134,0,0,1,2.254.469,3.454,3.454,0,0,1,1.5,1.332,3.714,3.714,0,0,1,.523,1.965,3.266,3.266,0,0,1-1.145,2.637,4.767,4.767,0,0,1-3.168.965Zm0-1.9H105.5a2.059,2.059,0,0,0,1.418-.437,1.591,1.591,0,0,0,.488-1.25,1.876,1.876,0,0,0-.492-1.352,1.839,1.839,0,0,0-1.359-.531h-2.148Zm12.523,6.883h-1.68l4.188-12.352h1.68ZM123.836,35h-2.344V23.625h2.344Zm4.516-4.008V35h-2.344V23.625h4.438a5.134,5.134,0,0,1,2.254.469,3.454,3.454,0,0,1,1.5,1.332,3.714,3.714,0,0,1,.523,1.965,3.266,3.266,0,0,1-1.145,2.637,4.767,4.767,0,0,1-3.168.965Zm0-1.9h2.094a2.059,2.059,0,0,0,1.418-.437,1.591,1.591,0,0,0,.488-1.25,1.876,1.876,0,0,0-.492-1.352,1.839,1.839,0,0,0-1.359-.531h-2.148Z" transform="translate(571.676 1996)" fill="#12263f"/>
    <g id="Grupo_142467" data-name="Grupo 142467" transform="translate(610.79 1931.463)">
      <ellipse id="Elipse_4869" data-name="Elipse 4869" cx="28" cy="29" rx="28" ry="29" transform="translate(-0.114 -0.463)" fill="url(#linear-gradient)"/>
      <g id="Grupo_142369" data-name="Grupo 142369" transform="translate(5.649 5.653)">
        <g id="Grupo_141632" data-name="Grupo 141632" clip-path="url(#clip-path)">
          <path id="Trazado_183474" data-name="Trazado 183474" d="M38.914,59.433a20.52,20.52,0,1,1,20.52-20.52,20.543,20.543,0,0,1-20.52,20.52m0-39.6A19.076,19.076,0,1,0,57.989,38.913,19.1,19.1,0,0,0,38.914,19.837" transform="translate(-15.864 -15.863)" fill="#12263f"/>
          <path id="Trazado_183475" data-name="Trazado 183475" d="M163.057,193.233a.722.722,0,0,1,0-1.444,13.455,13.455,0,0,0,13.3-11.186.722.722,0,0,1,1.423.245,14.941,14.941,0,0,1-14.72,12.384" transform="translate(-140.007 -155.246)" fill="#12263f"/>
          <path id="Trazado_183476" data-name="Trazado 183476" d="M191.923,75.839a.722.722,0,0,1-.722-.722A13.5,13.5,0,0,0,179.926,61.8a.722.722,0,0,1,.236-1.425,14.941,14.941,0,0,1,12.483,14.737.722.722,0,0,1-.722.722" transform="translate(-154.658 -52.067)" fill="#12263f"/>
          <path id="Trazado_183477" data-name="Trazado 183477" d="M60.892,72.477a.729.729,0,0,1-.11-.008.722.722,0,0,1-.6-.823A14.941,14.941,0,0,1,74.943,58.981a.722.722,0,0,1,0,1.444A13.5,13.5,0,0,0,61.605,71.864a.722.722,0,0,1-.713.613" transform="translate(-51.893 -50.869)" fill="#12263f"/>
          <path id="Trazado_183478" data-name="Trazado 183478" d="M71.75,177.829a.713.713,0,0,1-.11-.009,14.941,14.941,0,0,1-12.659-14.765.722.722,0,1,1,1.444,0,13.5,13.5,0,0,0,11.433,13.337.722.722,0,0,1-.108,1.436" transform="translate(-50.869 -140.006)" fill="#12263f"/>
          <path id="Trazado_183479" data-name="Trazado 183479" d="M163.057,11.5a.722.722,0,0,1-.722-.722V.722a.722.722,0,1,1,1.444,0V10.774a.722.722,0,0,1-.722.722" transform="translate(-140.007)" fill="#12263f"/>
          <path id="Trazado_183480" data-name="Trazado 183480" d="M10.773,163.778H.721a.722.722,0,0,1,0-1.444H10.773a.722.722,0,0,1,0,1.444" transform="translate(0.001 -140.006)" fill="#12263f"/>
          <path id="Trazado_183481" data-name="Trazado 183481" d="M163.057,263.082a.722.722,0,0,1-.722-.722V252.308a.722.722,0,0,1,1.444,0V262.36a.722.722,0,0,1-.722.722" transform="translate(-140.007 -216.983)" fill="#12263f"/>
          <path id="Trazado_183482" data-name="Trazado 183482" d="M254.248,163.778h-1.94a.722.722,0,0,1,0-1.444h1.94a.722.722,0,1,1,0,1.444" transform="translate(-216.983 -140.006)" fill="#12263f"/>
          <path id="Trazado_183483" data-name="Trazado 183483" d="M274.521,163.778h-8.112a.722.722,0,0,1,0-1.444h8.112a.722.722,0,1,1,0,1.444" transform="translate(-229.144 -140.006)" fill="#12263f"/>
          <path id="Trazado_183484" data-name="Trazado 183484" d="M128.65,188.122a.722.722,0,0,1-.682-.484,6.193,6.193,0,0,0-11.692,0,.722.722,0,0,1-1.364-.476,7.637,7.637,0,0,1,14.419,0,.722.722,0,0,1-.682.96" transform="translate(-99.072 -157.005)" fill="#12263f"/>
          <path id="Trazado_183485" data-name="Trazado 183485" d="M133.615,107.97a5.417,5.417,0,1,1,5.417-5.417,5.423,5.423,0,0,1-5.417,5.417m0-9.39a3.973,3.973,0,1,0,3.973,3.973,3.977,3.977,0,0,0-3.973-3.973" transform="translate(-110.566 -83.776)" fill="#12263f"/>
        </g>
      </g>
    </g>
  </g>
</svg>
