<svg xmlns="http://www.w3.org/2000/svg" width="86" height="86" viewBox="0 0 86 86">
  <g id="Grupo_152640" data-name="Grupo 152640" transform="translate(-997.676 -2633)">
    <g id="Grupo_149887" data-name="Grupo 149887" transform="translate(741.676 -3197)">
      <circle id="Elipse_4775" data-name="Elipse 4775" cx="43" cy="43" r="43" transform="translate(256 5830)" fill="#ff2c9c"/>
      <g id="RPLRvI.tif" transform="translate(934.503 4194.171)">
        <g id="Grupo_142575" data-name="Grupo 142575" transform="translate(-666.931 1653.613)">
          <path id="Trazado_183809" data-name="Trazado 183809" d="M-577.2,1724c0,2.643.027,5.287-.009,7.929a3.631,3.631,0,0,1-3.885,3.942q-7.09.074-14.18,0a3.639,3.639,0,0,1-3.907-3.924q-.042-8,0-16.01a3.591,3.591,0,0,1,3.886-3.915q7.09-.053,14.18,0c2.516.019,3.892,1.476,3.911,4.047C-577.184,1718.717-577.2,1721.36-577.2,1724Zm-2.442-.125h-.008c0-2.438,0-4.876,0-7.315,0-1.878-.251-2.152-2.075-2.156q-6.477-.017-12.954.01c-1.8.007-2.051.251-2.056,2-.014,5.029.015,10.059-.026,15.088-.011,1.346.489,1.96,1.869,1.951q6.705-.045,13.411,0c1.4.011,1.879-.638,1.855-1.963C-579.674,1728.959-579.642,1726.418-579.642,1723.878Z" transform="translate(619.97 -1694.096)" fill="#fff"/>
          <path id="Trazado_183810" data-name="Trazado 183810" d="M-479.213,1718.508a18.1,18.1,0,0,1-6.05,13.525c-.675.616-1.419,1.2-2.219.278-.733-.841-.118-1.456.514-2.058,7.067-6.727,7.059-16.668-.02-23.322-.673-.633-1.345-1.268-.519-2.163.767-.832,1.475-.252,2.109.306A17.764,17.764,0,0,1-479.213,1718.508Z" transform="translate(542.793 -1688.793)" fill="#fff"/>
          <path id="Trazado_183811" data-name="Trazado 183811" d="M-666.931,1717.467a17.377,17.377,0,0,1,5.784-12.028c.692-.65,1.475-1.567,2.437-.505.893.987-.026,1.627-.7,2.258a15.524,15.524,0,0,0,.063,23.025c.6.562,1.381,1.1.745,2.029-.686,1-1.448.575-2.188-.043C-664.582,1729.036-666.933,1723.847-666.931,1717.467Z" transform="translate(666.931 -1688.86)" fill="#fff"/>
          <path id="Trazado_183812" data-name="Trazado 183812" d="M-586.484,1653.613a13.308,13.308,0,0,1,8.468,3.627c.652.589,1.194,1.256.443,2.07s-1.421.324-2.1-.256c-4.7-4.006-10.5-4.021-15.263-.056-.7.58-1.433,1.21-2.212.264-.76-.923-.019-1.581.634-2.179A14.484,14.484,0,0,1-586.484,1653.613Z" transform="translate(618.772 -1653.613)" fill="#fff"/>
          <path id="Trazado_183813" data-name="Trazado 183813" d="M-507.912,1729.465a10.985,10.985,0,0,1-4.442,8.732c-.677.531-1.441.979-2.124.106-.666-.852-.118-1.454.582-2.029,4.709-3.867,4.77-10.025.142-13.938-.694-.587-1.471-1.181-.733-2.117.816-1.035,1.635-.312,2.345.279A11.214,11.214,0,0,1-507.912,1729.465Z" transform="translate(561.442 -1699.432)" fill="#fff"/>
          <path id="Trazado_183814" data-name="Trazado 183814" d="M-628.5,1719.111c.373.295.859.5,1,.844a1.728,1.728,0,0,1-.106,1.268c-.16.335-.584.544-.894.805a8.678,8.678,0,0,0,.093,13.647c.157.129.42.216.468.374.172.567.273,1.156.4,1.737-.627.064-1.446.417-1.849.147a10.4,10.4,0,0,1-4.678-7.683,11.114,11.114,0,0,1,4.3-10.349A11.75,11.75,0,0,1-628.5,1719.111Z" transform="translate(644.202 -1699.026)" fill="#fff"/>
          <path id="Trazado_183815" data-name="Trazado 183815" d="M-578.633,1670.023a8.82,8.82,0,0,1,5.832,2.28c.655.583,1,1.354.264,1.931a1.955,1.955,0,0,1-1.813-.1c-3.113-2.218-5.605-2.268-8.606.037-.7.542-1.5.831-1.932,0a2.147,2.147,0,0,1,.432-1.906A8.231,8.231,0,0,1-578.633,1670.023Z" transform="translate(610.107 -1664.991)" fill="#fff"/>
          <path id="Trazado_183816" data-name="Trazado 183816" d="M-570.44,1686.154a2.639,2.639,0,0,1,2.643,2.576,2.673,2.673,0,0,1-2.679,2.709,2.686,2.686,0,0,1-2.64-2.75A2.613,2.613,0,0,1-570.44,1686.154Z" transform="translate(601.886 -1676.175)" fill="#fff"/>
          <path id="Trazado_183817" data-name="Trazado 183817" d="M-571.823,1734.663c0,1.17.054,2.343-.012,3.509a3.561,3.561,0,0,1-3.63,3.56c-2.032.062-4.07.057-6.1,0a3.532,3.532,0,0,1-3.609-3.575q-.109-3.582,0-7.17a3.572,3.572,0,0,1,3.624-3.581c2.032-.066,4.07-.068,6.1,0a3.6,3.6,0,0,1,3.615,3.6C-571.774,1732.219-571.823,1733.442-571.823,1734.663Zm-2.44-.126h-.006v-3.2a1.341,1.341,0,0,0-1.481-1.532c-1.83-.009-3.66,0-5.49,0a1.332,1.332,0,0,0-1.5,1.5q-.01,3.279-.006,6.558a1.272,1.272,0,0,0,1.41,1.426c1.881.014,3.762.009,5.643.008a1.28,1.28,0,0,0,1.43-1.409C-574.248,1736.774-574.264,1735.656-574.264,1734.537Z" transform="translate(610.284 -1704.742)" fill="#fff"/>
          <path id="Trazado_183818" data-name="Trazado 183818" d="M-564.282,1748.514c-.862.541-1.368,1.105-1.838,1.077-.393-.024-.743-.741-1.113-1.152.433-.387.828-1.007,1.31-1.084C-565.553,1747.3-565.074,1747.922-564.282,1748.514Z" transform="translate(597.805 -1718.606)" fill="#fff"/>
        </g>
      </g>
    </g>
  </g>
</svg>
