<svg xmlns="http://www.w3.org/2000/svg" width="448.488" height="469.66" viewBox="0 0 448.488 469.66">
  <g id="Grupo_152646" data-name="Grupo 152646" transform="translate(-180.917 -14110.701)">
    <g id="Grupo_151267" data-name="Grupo 151267" transform="translate(241.505 14316.833)" opacity="0.158">
      <path id="Trazado_183874" data-name="Trazado 183874" d="M535.841,155.3l-31.407-18.133,31.407-18.134,31.408,18.134Zm-29.184-18.133,29.184,16.849,29.184-16.849-29.184-16.849Z" transform="translate(-201.473 -119.03)" fill="#173d7a"/>
      <path id="Trazado_183875" data-name="Trazado 183875" d="M475.488,155.3,444.08,137.165l31.407-18.133.277.162L506.9,137.166ZM446.3,137.165l29.185,16.85,29.184-16.849-29.185-16.849Z" transform="translate(-201.711 -119.03)" fill="#173d7a"/>
      <path id="Trazado_183876" data-name="Trazado 183876" d="M505.665,172.722l-31.408-18.133,31.408-18.134,31.407,18.134Zm-29.185-18.133,29.185,16.849,29.184-16.849L505.665,137.74Z" transform="translate(-201.592 -118.961)" fill="#173d7a"/>
      <path id="Trazado_183877" data-name="Trazado 183877" d="M535.842,190.145l-.277-.161-31.131-17.973,31.407-18.134.278.161,31.131,17.974Zm-29.185-18.133,29.185,16.849,29.184-16.849-29.185-16.85Z" transform="translate(-201.473 -118.893)" fill="#173d7a"/>
      <path id="Trazado_183878" data-name="Trazado 183878" d="M415.133,155.3l-.277-.161-31.131-17.973,31.407-18.134.278.162,31.131,17.973Zm-29.184-18.133,29.184,16.849,29.185-16.849-29.186-16.849Z" transform="translate(-201.949 -119.03)" fill="#173d7a"/>
      <path id="Trazado_183879" data-name="Trazado 183879" d="M445.311,172.721l-.277-.161L413.9,154.588l31.407-18.134,31.408,18.135Zm-29.184-18.133,29.184,16.849,29.184-16.848-29.184-16.85Z" transform="translate(-201.83 -118.961)" fill="#173d7a"/>
      <path id="Trazado_183880" data-name="Trazado 183880" d="M475.489,190.144l-.277-.161-31.131-17.972,31.407-18.133L506.9,172.012ZM446.3,172.011l29.185,16.849,29.182-16.848-29.184-16.85Z" transform="translate(-201.711 -118.893)" fill="#173d7a"/>
      <path id="Trazado_183881" data-name="Trazado 183881" d="M505.666,207.568l-31.408-18.135L505.665,171.3l.277.161,31.131,17.973Zm-29.185-18.135,29.185,16.851,29.184-16.85-29.185-16.849Z" transform="translate(-201.592 -118.824)" fill="#173d7a"/>
      <path id="Trazado_183882" data-name="Trazado 183882" d="M535.843,224.991l-.277-.161-31.131-17.974,31.407-18.133.278.161,31.131,17.973Zm-29.185-18.134,29.185,16.849,29.184-16.849-29.185-16.849Z" transform="translate(-201.473 -118.755)" fill="#173d7a"/>
      <path id="Trazado_183883" data-name="Trazado 183883" d="M354.779,155.3l-31.408-18.134,31.407-18.133.277.162,31.131,17.973Zm-29.185-18.134,29.185,16.85,29.184-16.849-29.185-16.849Z" transform="translate(-202.186 -119.03)" fill="#173d7a"/>
      <path id="Trazado_183884" data-name="Trazado 183884" d="M384.957,172.721l-.278-.161-31.131-17.973,31.408-18.134.277.161,31.131,17.974Zm-29.186-18.133,29.186,16.849,29.184-16.849-29.185-16.849Z" transform="translate(-202.067 -118.961)" fill="#173d7a"/>
      <path id="Trazado_183885" data-name="Trazado 183885" d="M415.134,190.144l-.277-.161-31.131-17.973,31.407-18.134.278.161,31.131,17.974ZM385.95,172.011l29.185,16.849,29.185-16.849-29.186-16.85Z" transform="translate(-201.949 -118.893)" fill="#173d7a"/>
      <path id="Trazado_183886" data-name="Trazado 183886" d="M445.312,207.567l-.277-.161L413.9,189.433,445.311,171.3l.278.161,31.13,17.973Zm-29.184-18.134,29.184,16.85,29.184-16.85-29.185-16.849Z" transform="translate(-201.83 -118.824)" fill="#173d7a"/>
      <path id="Trazado_183887" data-name="Trazado 183887" d="M475.489,224.99l-31.407-18.134,31.407-18.133L506.9,206.857Zm-29.183-18.134,29.183,16.849,29.184-16.848-29.184-16.85Z" transform="translate(-201.711 -118.755)" fill="#173d7a"/>
      <path id="Trazado_183888" data-name="Trazado 183888" d="M505.667,242.414l-31.409-18.135,31.408-18.132.277.161,31.131,17.973Zm-29.185-18.135,29.185,16.85,29.183-16.849-29.184-16.849Z" transform="translate(-201.592 -118.687)" fill="#173d7a"/>
      <path id="Trazado_183889" data-name="Trazado 183889" d="M535.844,259.836l-.277-.161L504.436,241.7l31.407-18.134.278.162L567.252,241.7ZM506.66,241.7l29.185,16.849L565.029,241.7l-29.186-16.849Z" transform="translate(-201.473 -118.618)" fill="#173d7a"/>
      <path id="Trazado_183890" data-name="Trazado 183890" d="M294.424,155.3l-.277-.161-31.131-17.973,31.407-18.134.278.162,31.131,17.973ZM265.24,137.164l29.185,16.849,29.185-16.849-29.186-16.849Z" transform="translate(-202.424 -119.03)" fill="#173d7a"/>
      <path id="Trazado_183891" data-name="Trazado 183891" d="M324.6,172.72l-.277-.161-31.131-17.973L324.6,136.453l31.408,18.135Zm-29.185-18.133L324.6,171.436l29.184-16.848L324.6,137.738Z" transform="translate(-202.305 -118.961)" fill="#173d7a"/>
      <path id="Trazado_183892" data-name="Trazado 183892" d="M354.78,190.143l-.277-.161L323.372,172.01l31.407-18.133.277.161,31.131,17.974ZM325.6,172.01l29.185,16.849,29.184-16.848-29.185-16.85Z" transform="translate(-202.186 -118.893)" fill="#173d7a"/>
      <path id="Trazado_183893" data-name="Trazado 183893" d="M384.958,207.567l-31.409-18.135L384.957,171.3l.277.161,31.131,17.973Zm-29.186-18.135,29.186,16.851,29.183-16.85-29.185-16.849Z" transform="translate(-202.067 -118.824)" fill="#173d7a"/>
      <path id="Trazado_183894" data-name="Trazado 183894" d="M415.135,224.99l-.277-.161-31.131-17.974,31.407-18.133.278.161,31.131,17.973Zm-29.184-18.134,29.184,16.849,29.185-16.849-29.186-16.849Z" transform="translate(-201.948 -118.755)" fill="#173d7a"/>
      <path id="Trazado_183895" data-name="Trazado 183895" d="M445.312,242.413l-31.407-18.134,31.407-18.133,31.407,18.133Zm-29.184-18.134,29.184,16.849L474.5,224.279,445.312,207.43Z" transform="translate(-201.83 -118.687)" fill="#173d7a"/>
      <path id="Trazado_183896" data-name="Trazado 183896" d="M475.49,259.835l-.278-.161L444.082,241.7l31.407-18.134L506.9,241.7ZM446.306,241.7l29.185,16.849L504.674,241.7l-29.185-16.85Z" transform="translate(-201.711 -118.618)" fill="#173d7a"/>
      <path id="Trazado_183897" data-name="Trazado 183897" d="M505.668,277.258l-.278-.161-31.131-17.973,31.408-18.133.277.161,31.131,17.974Zm-29.186-18.133,29.186,16.849,29.183-16.848-29.184-16.849Z" transform="translate(-201.592 -118.55)" fill="#173d7a"/>
      <path id="Trazado_183898" data-name="Trazado 183898" d="M535.845,294.682l-31.408-18.134,31.407-18.133.278.161,31.13,17.973Zm-29.185-18.134,29.185,16.85,29.185-16.849L535.844,259.7Z" transform="translate(-201.473 -118.481)" fill="#173d7a"/>
      <path id="Trazado_183899" data-name="Trazado 183899" d="M234.07,155.3l-.277-.161-31.131-17.973,31.407-18.133.277.162,31.131,17.973Zm-29.185-18.133,29.185,16.849,29.183-16.848-29.185-16.849Z" transform="translate(-202.662 -119.03)" fill="#173d7a"/>
      <path id="Trazado_183900" data-name="Trazado 183900" d="M264.248,172.72,232.84,154.586l31.407-18.133.277.161,31.131,17.974Zm-29.185-18.134,29.185,16.85,29.184-16.849-29.185-16.849Z" transform="translate(-202.543 -118.961)" fill="#173d7a"/>
      <path id="Trazado_183901" data-name="Trazado 183901" d="M294.425,190.143l-.277-.161L263.017,172.01l31.407-18.134.278.161,31.131,17.974ZM265.241,172.01l29.185,16.849L323.61,172.01l-29.186-16.85Z" transform="translate(-202.424 -118.893)" fill="#173d7a"/>
      <path id="Trazado_183902" data-name="Trazado 183902" d="M324.6,207.566l-.277-.161L293.2,189.432,324.6,171.3l.278.161,31.13,17.973Zm-29.185-18.134,29.185,16.85,29.183-16.85L324.6,172.583Z" transform="translate(-202.305 -118.824)" fill="#173d7a"/>
      <path id="Trazado_183903" data-name="Trazado 183903" d="M354.781,224.989l-.278-.161-31.13-17.974,31.407-18.133,31.408,18.134ZM325.6,206.855l29.185,16.85,29.183-16.849-29.184-16.85Z" transform="translate(-202.186 -118.756)" fill="#173d7a"/>
      <path id="Trazado_183904" data-name="Trazado 183904" d="M384.959,242.412l-.278-.161L353.55,224.278l31.408-18.132.277.161,31.131,17.973Zm-29.185-18.134,29.185,16.849,29.184-16.848L384.958,207.43Z" transform="translate(-202.067 -118.687)" fill="#173d7a"/>
      <path id="Trazado_183905" data-name="Trazado 183905" d="M415.136,259.835,383.728,241.7l31.407-18.133L446.544,241.7ZM385.952,241.7l29.185,16.85L444.32,241.7l-29.185-16.849Z" transform="translate(-201.949 -118.618)" fill="#173d7a"/>
      <path id="Trazado_183906" data-name="Trazado 183906" d="M445.313,277.258l-31.407-18.133,31.406-18.134.277.161,31.131,17.973ZM416.13,259.125l29.183,16.849L474.5,259.125l-29.185-16.849Z" transform="translate(-201.83 -118.55)" fill="#173d7a"/>
      <path id="Trazado_183907" data-name="Trazado 183907" d="M475.491,294.681l-.278-.161-31.13-17.973,31.407-18.134.277.161L506.9,276.548Zm-29.184-18.133L475.491,293.4l29.184-16.849L475.49,259.7Z" transform="translate(-201.711 -118.481)" fill="#173d7a"/>
      <path id="Trazado_183908" data-name="Trazado 183908" d="M505.669,312.1l-.278-.161L474.26,293.97l31.408-18.133,31.408,18.134ZM476.484,293.97l29.185,16.85,29.183-16.849-29.185-16.85Z" transform="translate(-201.592 -118.412)" fill="#173d7a"/>
      <path id="Trazado_183909" data-name="Trazado 183909" d="M535.846,329.528l-31.408-18.135,31.407-18.132.278.161,31.13,17.973Zm-29.185-18.135,29.185,16.85,29.184-16.849-29.185-16.849Z" transform="translate(-201.473 -118.344)" fill="#173d7a"/>
      <path id="Trazado_183910" data-name="Trazado 183910" d="M234.071,190.142l-.277-.161-31.131-17.972,31.407-18.134,31.408,18.135Zm-29.184-18.133,29.184,16.849,29.184-16.848L234.07,155.159Z" transform="translate(-202.662 -118.893)" fill="#173d7a"/>
      <path id="Trazado_183911" data-name="Trazado 183911" d="M264.249,207.566,232.84,189.431,264.248,171.3l.277.161,31.131,17.973Zm-29.186-18.135,29.186,16.851,29.184-16.85-29.185-16.849Z" transform="translate(-202.543 -118.824)" fill="#173d7a"/>
      <path id="Trazado_183912" data-name="Trazado 183912" d="M294.426,224.989l-.277-.161-31.131-17.974,31.407-18.133.278.161,31.131,17.973Zm-29.185-18.134,29.185,16.85,29.184-16.85-29.185-16.849Z" transform="translate(-202.424 -118.756)" fill="#173d7a"/>
      <path id="Trazado_183913" data-name="Trazado 183913" d="M324.6,242.412l-.277-.161L293.2,224.278,324.6,206.145l.277.161,31.131,17.973ZM295.42,224.278,324.6,241.127l29.183-16.849L324.6,207.429Z" transform="translate(-202.305 -118.687)" fill="#173d7a"/>
      <path id="Trazado_183914" data-name="Trazado 183914" d="M354.782,259.835l-.278-.162L323.374,241.7l31.407-18.133.277.161L386.189,241.7ZM325.6,241.7l29.185,16.849L383.966,241.7l-29.185-16.849Z" transform="translate(-202.186 -118.618)" fill="#173d7a"/>
      <path id="Trazado_183915" data-name="Trazado 183915" d="M384.96,277.257l-.278-.161-31.131-17.973,31.408-18.134,31.408,18.135Zm-29.186-18.133,29.186,16.849,29.184-16.848-29.185-16.85Z" transform="translate(-202.067 -118.55)" fill="#173d7a"/>
      <path id="Trazado_183916" data-name="Trazado 183916" d="M415.136,294.681l-31.407-18.134,31.407-18.133,31.408,18.134Zm-29.184-18.134,29.184,16.85,29.185-16.849L415.136,259.7Z" transform="translate(-201.949 -118.481)" fill="#173d7a"/>
      <path id="Trazado_183917" data-name="Trazado 183917" d="M445.314,312.1l-.277-.161L413.906,293.97l31.407-18.133.277.161,31.131,17.972ZM416.13,293.97l29.185,16.85L474.5,293.97l-29.185-16.849Z" transform="translate(-201.83 -118.412)" fill="#173d7a"/>
      <path id="Trazado_183918" data-name="Trazado 183918" d="M475.492,329.527l-.278-.161-31.13-17.974,31.407-18.133.277.161L506.9,311.393Zm-29.185-18.134,29.185,16.85,29.184-16.85-29.185-16.849Z" transform="translate(-201.711 -118.344)" fill="#173d7a"/>
      <path id="Trazado_183919" data-name="Trazado 183919" d="M505.67,346.95l-.278-.161-31.131-17.974,31.408-18.133,31.408,18.134Zm-29.186-18.134,29.186,16.849,29.184-16.848-29.185-16.85Z" transform="translate(-201.592 -118.275)" fill="#173d7a"/>
      <path id="Trazado_183920" data-name="Trazado 183920" d="M535.847,364.373l-.277-.162-31.131-17.973,31.407-18.133.278.162,31.13,17.973Zm-29.185-18.134,29.185,16.849,29.185-16.848-29.185-16.849Z" transform="translate(-201.473 -118.206)" fill="#173d7a"/>
      <path id="Trazado_183921" data-name="Trazado 183921" d="M234.072,224.988l-.277-.161-31.131-17.974,31.407-18.133,31.408,18.134Zm-29.185-18.134,29.185,16.85,29.183-16.849-29.185-16.85Z" transform="translate(-202.662 -118.756)" fill="#173d7a"/>
      <path id="Trazado_183922" data-name="Trazado 183922" d="M264.25,242.411l-.278-.161-31.131-17.974,31.408-18.132.277.161,31.131,17.973Zm-29.186-18.134,29.186,16.849,29.184-16.848-29.185-16.849Z" transform="translate(-202.543 -118.687)" fill="#173d7a"/>
      <path id="Trazado_183923" data-name="Trazado 183923" d="M294.427,259.835,263.019,241.7l31.407-18.132.278.161L325.835,241.7ZM265.243,241.7l29.184,16.85L323.612,241.7l-29.186-16.849Z" transform="translate(-202.424 -118.618)" fill="#173d7a"/>
      <path id="Trazado_183924" data-name="Trazado 183924" d="M324.605,277.257l-.277-.161L293.2,259.124,324.6,240.99l.277.161,31.131,17.974Zm-29.185-18.133,29.185,16.849,29.183-16.849L324.6,242.275Z" transform="translate(-202.305 -118.55)" fill="#173d7a"/>
      <path id="Trazado_183925" data-name="Trazado 183925" d="M354.783,294.68l-.278-.161-31.13-17.972,31.407-18.134.277.161,31.131,17.974ZM325.6,276.547,354.783,293.4l29.183-16.849L354.782,259.7Z" transform="translate(-202.186 -118.481)" fill="#173d7a"/>
      <path id="Trazado_183926" data-name="Trazado 183926" d="M384.96,312.1,353.552,293.97l31.408-18.134,31.407,18.134ZM355.776,293.97l29.185,16.849,29.184-16.849L384.96,277.12Z" transform="translate(-202.067 -118.412)" fill="#173d7a"/>
      <path id="Trazado_183927" data-name="Trazado 183927" d="M415.137,329.526l-.277-.161-31.131-17.974,31.407-18.132.278.161,31.13,17.973Zm-29.185-18.134,29.185,16.85,29.185-16.849-29.186-16.849Z" transform="translate(-201.949 -118.344)" fill="#173d7a"/>
      <path id="Trazado_183928" data-name="Trazado 183928" d="M445.315,346.95l-31.408-18.135,31.407-18.132.277.161,31.131,17.973Zm-29.184-18.135,29.184,16.85L474.5,328.816l-29.184-16.849Z" transform="translate(-201.83 -118.275)" fill="#173d7a"/>
      <path id="Trazado_183929" data-name="Trazado 183929" d="M475.493,364.373l-.278-.162-31.13-17.973,31.407-18.133.277.161L506.9,346.239Zm-29.186-18.134,29.186,16.849,29.183-16.849L475.492,329.39Z" transform="translate(-201.711 -118.206)" fill="#173d7a"/>
      <path id="Trazado_183930" data-name="Trazado 183930" d="M234.073,259.834l-.278-.162L202.665,241.7l31.407-18.133.277.161L265.48,241.7ZM204.889,241.7l29.184,16.849L263.257,241.7l-29.185-16.849Z" transform="translate(-202.662 -118.618)" fill="#173d7a"/>
      <path id="Trazado_183931" data-name="Trazado 183931" d="M264.251,277.256l-.278-.161-31.131-17.973,31.408-18.134,31.408,18.135Zm-29.185-18.133,29.185,16.849,29.184-16.848-29.184-16.85Z" transform="translate(-202.543 -118.55)" fill="#173d7a"/>
      <path id="Trazado_183932" data-name="Trazado 183932" d="M294.428,294.68,263.02,276.546l31.407-18.133.278.161,31.131,17.974Zm-29.185-18.134,29.185,16.85,29.185-16.849L294.427,259.7Z" transform="translate(-202.424 -118.481)" fill="#173d7a"/>
      <path id="Trazado_183933" data-name="Trazado 183933" d="M324.606,312.1l-.277-.161L293.2,293.97l31.407-18.134.277.161,31.131,17.973ZM295.422,293.97l29.185,16.849L353.79,293.97l-29.185-16.85Z" transform="translate(-202.305 -118.412)" fill="#173d7a"/>
      <path id="Trazado_183934" data-name="Trazado 183934" d="M354.784,329.526l-.278-.161-31.13-17.974,31.407-18.133,31.407,18.133ZM325.6,311.392l29.186,16.85,29.183-16.85-29.184-16.849Z" transform="translate(-202.186 -118.344)" fill="#173d7a"/>
      <path id="Trazado_183935" data-name="Trazado 183935" d="M384.961,346.949l-31.408-18.134,31.407-18.133.277.161,31.131,17.973Zm-29.185-18.134,29.185,16.849,29.183-16.849L384.96,311.966Z" transform="translate(-202.067 -118.275)" fill="#173d7a"/>
      <path id="Trazado_183936" data-name="Trazado 183936" d="M415.138,364.372l-.277-.162L383.73,346.238l31.407-18.133,31.408,18.134Zm-29.185-18.134,29.185,16.849,29.184-16.848-29.185-16.85Z" transform="translate(-201.948 -118.206)" fill="#173d7a"/>
      <path id="Trazado_183937" data-name="Trazado 183937" d="M234.074,294.679l-.278-.161-31.13-17.973,31.407-18.134.277.161,31.131,17.974ZM204.89,276.546,234.074,293.4l29.183-16.849L234.073,259.7Z" transform="translate(-202.662 -118.481)" fill="#173d7a"/>
      <path id="Trazado_183938" data-name="Trazado 183938" d="M264.252,312.1l-.278-.161-31.131-17.973,31.408-18.134,31.408,18.135Zm-29.186-18.133,29.186,16.849,29.183-16.848-29.184-16.851Z" transform="translate(-202.543 -118.412)" fill="#173d7a"/>
      <path id="Trazado_183939" data-name="Trazado 183939" d="M294.429,329.525l-.277-.161-31.131-17.974,31.407-18.132.278.161,31.13,17.973Zm-29.185-18.134,29.185,16.85,29.185-16.849-29.185-16.849Z" transform="translate(-202.424 -118.344)" fill="#173d7a"/>
      <path id="Trazado_183940" data-name="Trazado 183940" d="M324.607,346.949,293.2,328.814l31.407-18.132.277.161,31.131,17.973Zm-29.185-18.135,29.185,16.85,29.184-16.849-29.185-16.849Z" transform="translate(-202.305 -118.275)" fill="#173d7a"/>
      <path id="Trazado_183941" data-name="Trazado 183941" d="M354.784,364.372l-31.407-18.134,31.407-18.133,31.407,18.133ZM325.6,346.238l29.185,16.849,29.183-16.849-29.183-16.849Z" transform="translate(-202.186 -118.206)" fill="#173d7a"/>
      <path id="Trazado_183942" data-name="Trazado 183942" d="M234.075,329.525l-.278-.161-31.13-17.974,31.407-18.133.277.161,31.131,17.973ZM204.89,311.391l29.186,16.85,29.183-16.85-29.184-16.849Z" transform="translate(-202.662 -118.344)" fill="#173d7a"/>
      <path id="Trazado_183943" data-name="Trazado 183943" d="M264.253,346.948l-.278-.161-31.131-17.973,31.408-18.133.277.161,31.131,17.973Zm-29.185-18.134,29.185,16.849,29.184-16.849-29.185-16.849Z" transform="translate(-202.543 -118.275)" fill="#173d7a"/>
      <path id="Trazado_183944" data-name="Trazado 183944" d="M294.43,364.371l-.277-.162-31.131-17.973L294.429,328.1l31.408,18.134Zm-29.185-18.134,29.185,16.849,29.184-16.848-29.185-16.85Z" transform="translate(-202.424 -118.207)" fill="#173d7a"/>
      <path id="Trazado_183945" data-name="Trazado 183945" d="M234.076,364.371l-.278-.162-31.13-17.973L234.075,328.1l.277.161,31.131,17.973Zm-29.186-18.134,29.186,16.849,29.184-16.849-29.185-16.849Z" transform="translate(-202.662 -118.207)" fill="#173d7a"/>
    </g>
    <g id="Grupo_151354" data-name="Grupo 151354" transform="translate(180.917 14110.701)">
      <g id="Grupo_151354-2" data-name="Grupo 151354" transform="translate(95.283 63.9)">
        <path id="Trazado_193591" data-name="Trazado 193591" d="M969.151,253.556l-162.328-93.72c-4.592-2.65-4.016-7.281,1.286-10.343L918.643,85.7c5.3-3.061,13.324-3.394,17.916-.742l162.327,93.72c4.592,2.652,4.016,7.281-1.286,10.343L987.066,252.814C981.764,255.875,973.743,256.208,969.151,253.556Z" transform="translate(-797.677 100.996)" fill="#173d7a" opacity="0.5"/>
        <path id="Trazado_193592" data-name="Trazado 193592" d="M1127.85,19.762,958.941-77.759a6.819,6.819,0,0,0-5.724-.7l.011-.017-.307.116-.075.028L946.741-76l5.479,2.682c-.025.1-.057.2-.078.3L924.629,52.218c-1.376,6.268,1.381,13.585,6.159,16.344l164.847,95.175-.588,6.985,6.672-2.586c2.241-1.048,4.035-3.419,4.778-6.795L1134.01,36.1C1135.387,29.837,1132.628,22.52,1127.85,19.762Z" transform="translate(-781.159 78.803)" fill="#173d7a"/>
        <path id="Trazado_193593" data-name="Trazado 193593" d="M1126.677,19.762,957.768-77.759a6.819,6.819,0,0,0-5.724-.7l.011-.017-.307.116-.075.028L945.568-76l5.479,2.682c-.025.1-.057.2-.078.3L932.836,9.521l82.645,64.388,116.531-47.417A13.107,13.107,0,0,0,1126.677,19.762Z" transform="translate(-779.986 78.803)" fill="#396caa"/>
        <path id="Trazado_193594" data-name="Trazado 193594" d="M1099.248,27.026l12.857-5.475c.237-4.98-1.825-10.124-5.209-12.876l-20.354,8.562Z" transform="translate(-758.925 90.789)" fill="#274f89"/>
        <path id="Trazado_193595" data-name="Trazado 193595" d="M1090.447,169.775,921.537,72.254C916.759,69.5,914,62.179,915.379,55.911L942.891-69.325c1.377-6.267,6.366-9.111,11.144-6.353l168.91,97.52c4.779,2.758,7.536,10.076,6.159,16.344l-27.512,125.236C1100.215,169.688,1095.224,172.533,1090.447,169.775Z" transform="translate(-782.426 79.087)" fill="#d4ecff"/>
        <path id="Trazado_193596" data-name="Trazado 193596" d="M1120.472,21.318,951.562-76.2a6.675,6.675,0,0,0-6.65-.289,6.945,6.945,0,0,1,5.028.882l168.91,97.52c4.779,2.758,7.536,10.076,6.159,16.344L1097.5,163.491c-.71,3.23-2.388,5.528-4.495,6.641,2.852-.623,5.231-3.209,6.116-7.235l27.513-125.236C1128.007,31.395,1125.25,24.077,1120.472,21.318Z" transform="translate(-778.331 79.017)" fill="#fff"/>
        <path id="Trazado_193597" data-name="Trazado 193597" d="M1085.949,159.352,927.092,67.681c-4.373-2.524-6.9-9.22-5.636-14.955l25.177-114.6c1.26-5.735,5.825-8.339,10.2-5.814l158.856,91.67c4.373,2.525,6.9,9.22,5.636,14.956l-25.177,114.6C1094.887,159.274,1090.321,161.876,1085.949,159.352Z" transform="translate(-781.589 80.194)" fill="#fff"/>
        <path id="Trazado_193598" data-name="Trazado 193598" d="M1085.949,159.352,927.092,67.681c-4.373-2.524-6.9-9.22-5.636-14.955l25.177-114.6c1.26-5.735,5.825-8.339,10.2-5.814l158.856,91.67c4.373,2.525,6.9,9.22,5.636,14.956l-25.177,114.6C1094.887,159.274,1090.321,161.876,1085.949,159.352Z" transform="translate(-781.589 80.194)" fill="#173d7a"/>
        <path id="Trazado_193599" data-name="Trazado 193599" d="M1087.334,158.766,928.476,67.1c-4.372-2.524-6.895-9.22-5.635-14.954l25.176-114.6a8.794,8.794,0,0,1,4-6.033c-2.518.648-4.6,3.01-5.387,6.6L921.456,52.7c-1.26,5.736,1.263,12.432,5.636,14.956l158.856,91.671a6.1,6.1,0,0,0,6.2.218A6.328,6.328,0,0,1,1087.334,158.766Z" transform="translate(-781.589 80.216)" fill="#5793ce"/>
        <path id="Trazado_193600" data-name="Trazado 193600" d="M1108.757,154.765l-23.088-3.048L936.625,65.666c-4.778-2.758-13.123-2.413-18.641.773L812.372,127.392l-13.961-1.843v7.922h.014c-.091,1.831.951,3.592,3.205,4.894l168.91,97.52c4.778,2.758,13.125,2.413,18.641-.773L1104.2,168.73c3.1-1.792,4.651-4.1,4.561-6.268h0Z" transform="translate(-798.404 98.343)" fill="#173d7a"/>
        <path id="Trazado_193601" data-name="Trazado 193601" d="M996.771,96.72l-10.589-6.114H869.765l-57.392,33.113-13.961-1.843V129.8h.014c-.091,1.831.951,3.592,3.205,4.894l168.91,97.52a17.483,17.483,0,0,0,9.62,1.8Z" transform="translate(-798.404 102.015)" fill="#396caa"/>
        <path id="Trazado_193602" data-name="Trazado 193602" d="M804.607,118.926l-6.2-.818v7.922h.014c-.091,1.831.951,3.592,3.205,4.894l2.977,1.718Z" transform="translate(-798.404 105.784)" fill="#5793ce"/>
        <path id="Trazado_193603" data-name="Trazado 193603" d="M951.293,218.091c4.529,1.717,11,1.344,15.84-.984V199.438h-15.84Z" transform="translate(-777.457 116.927)" fill="#274f89"/>
        <path id="Trazado_193604" data-name="Trazado 193604" d="M970.541,229.555l-168.91-97.52c-4.778-2.758-4.179-7.577,1.338-10.763L917.984,54.891c5.518-3.186,13.864-3.532,18.641-.773l168.91,97.52c4.779,2.76,4.18,7.578-1.338,10.763L989.182,228.783C983.665,231.968,975.318,232.313,970.541,229.555Z" transform="translate(-798.405 96.761)" fill="#d4ecff"/>
        <path id="Trazado_193605" data-name="Trazado 193605" d="M1104.2,150.633,989.181,217.015c-5.517,3.185-13.864,3.532-18.641.773L801.63,120.267a6.283,6.283,0,0,1-2.97-3.248c-.748,2.259.2,4.546,2.97,6.142l168.91,97.52c4.778,2.76,13.125,2.413,18.641-.772L1104.2,153.526c3.709-2.141,5.184-5.018,4.309-7.513A8.979,8.979,0,0,1,1104.2,150.633Z" transform="translate(-798.404 105.634)" fill="#fff"/>
        <g id="Grupo_151351" data-name="Grupo 151351" transform="translate(67.008 155.021)">
          <path id="Trazado_193606" data-name="Trazado 193606" d="M865.395,95.394l-7.642-4.413c-.614-.355-.537-.973.172-1.383l9.021-5.208a2.657,2.657,0,0,1,2.393-.1l7.643,4.412c.614.355.537.973-.172,1.383l-9.021,5.208A2.664,2.664,0,0,1,865.395,95.394Z" transform="translate(-857.339 -53.904)" fill="#5793ce"/>
          <path id="Trazado_193607" data-name="Trazado 193607" d="M875.776,101.387l-7.643-4.413c-.614-.355-.537-.973.172-1.383l9.021-5.208a2.661,2.661,0,0,1,2.393-.1l7.643,4.413c.614.355.537.973-.172,1.383l-9.021,5.208A2.661,2.661,0,0,1,875.776,101.387Z" transform="translate(-855.916 -53.083)" fill="#5793ce"/>
          <path id="Trazado_193608" data-name="Trazado 193608" d="M886.156,107.379l-7.643-4.412c-.614-.355-.537-.973.172-1.383l9.021-5.208a2.661,2.661,0,0,1,2.393-.1l7.643,4.413c.614.355.537.973-.172,1.383l-9.021,5.208A2.657,2.657,0,0,1,886.156,107.379Z" transform="translate(-854.494 -52.262)" fill="#5793ce"/>
          <path id="Trazado_193609" data-name="Trazado 193609" d="M900.512,102.329l-7.643-4.412c-.614-.355-.537-.973.172-1.383l7.573-4.372a2.66,2.66,0,0,1,2.395-.1l7.642,4.412c.614.355.537.973-.172,1.383l-7.573,4.372A2.657,2.657,0,0,1,900.512,102.329Z" transform="translate(-852.527 -52.839)" fill="#5793ce"/>
          <path id="Trazado_193610" data-name="Trazado 193610" d="M910.892,108.322l-7.643-4.412c-.613-.355-.537-.973.172-1.383l7.573-4.372a2.66,2.66,0,0,1,2.395-.1l7.642,4.412c.614.355.537.973-.172,1.383l-7.573,4.372A2.657,2.657,0,0,1,910.892,108.322Z" transform="translate(-851.105 -52.018)" fill="#5793ce"/>
          <path id="Trazado_193611" data-name="Trazado 193611" d="M921.272,114.315l-7.643-4.413c-.613-.354-.537-.972.172-1.381l7.573-4.372a2.663,2.663,0,0,1,2.394-.1l7.642,4.413c.614.355.537.973-.172,1.383l-7.573,4.372A2.657,2.657,0,0,1,921.272,114.315Z" transform="translate(-849.682 -51.197)" fill="#5793ce"/>
          <path id="Trazado_193612" data-name="Trazado 193612" d="M931.652,120.308l-7.643-4.413c-.613-.354-.537-.972.172-1.381l7.573-4.372a2.663,2.663,0,0,1,2.395-.1l7.642,4.413c.614.355.537.973-.172,1.383l-7.573,4.372A2.657,2.657,0,0,1,931.652,120.308Z" transform="translate(-848.26 -50.376)" fill="#5793ce"/>
          <path id="Trazado_193613" data-name="Trazado 193613" d="M942.032,126.3l-7.643-4.413c-.613-.354-.537-.973.172-1.381l7.573-4.372a2.663,2.663,0,0,1,2.395-.1l7.642,4.413c.614.355.537.973-.172,1.383l-7.573,4.372A2.661,2.661,0,0,1,942.032,126.3Z" transform="translate(-846.838 -49.555)" fill="#5793ce"/>
          <path id="Trazado_193614" data-name="Trazado 193614" d="M952.412,132.294l-7.643-4.413c-.613-.354-.537-.973.173-1.381l7.571-4.373a2.667,2.667,0,0,1,2.395-.1l7.642,4.413c.614.354.537.973-.172,1.381l-7.573,4.373A2.664,2.664,0,0,1,952.412,132.294Z" transform="translate(-845.416 -48.733)" fill="#5793ce"/>
          <path id="Trazado_193615" data-name="Trazado 193615" d="M962.792,138.287l-7.643-4.413c-.613-.354-.537-.973.173-1.381l7.571-4.373a2.667,2.667,0,0,1,2.395-.1l7.642,4.413c.614.354.537.973-.172,1.381l-7.573,4.373A2.664,2.664,0,0,1,962.792,138.287Z" transform="translate(-843.993 -47.912)" fill="#5793ce"/>
          <path id="Trazado_193616" data-name="Trazado 193616" d="M973.172,144.28l-7.643-4.413c-.613-.355-.537-.973.173-1.383l7.571-4.372a2.663,2.663,0,0,1,2.395-.1l7.643,4.413c.613.354.537.973-.173,1.381l-7.573,4.372A2.661,2.661,0,0,1,973.172,144.28Z" transform="translate(-842.571 -47.091)" fill="#5793ce"/>
          <path id="Trazado_193617" data-name="Trazado 193617" d="M983.552,150.273l-7.643-4.413c-.613-.355-.537-.973.173-1.383l7.573-4.372a2.657,2.657,0,0,1,2.393-.1l7.643,4.413c.613.354.537.972-.173,1.382l-7.573,4.372A2.661,2.661,0,0,1,983.552,150.273Z" transform="translate(-841.149 -46.27)" fill="#5793ce"/>
          <path id="Trazado_193618" data-name="Trazado 193618" d="M993.932,156.266l-7.643-4.413c-.613-.355-.537-.973.173-1.383l7.573-4.372a2.657,2.657,0,0,1,2.393-.1l7.643,4.413c.613.354.537.972-.173,1.381l-7.573,4.372A2.661,2.661,0,0,1,993.932,156.266Z" transform="translate(-839.727 -45.449)" fill="#5793ce"/>
          <path id="Trazado_193619" data-name="Trazado 193619" d="M915.806,99.492l-7.642-4.413c-.614-.354-.537-.972.172-1.381l7.573-4.372a2.661,2.661,0,0,1,2.393-.1l7.643,4.413c.613.355.537.973-.173,1.383L918.2,99.393A2.66,2.66,0,0,1,915.806,99.492Z" transform="translate(-850.431 -53.228)" fill="#5793ce"/>
          <path id="Trazado_193620" data-name="Trazado 193620" d="M905.271,93.41,897.629,89c-.614-.355-.537-.973.172-1.383l7.573-4.372a2.657,2.657,0,0,1,2.393-.1l7.643,4.413c.613.354.537.973-.173,1.381l-7.571,4.372A2.663,2.663,0,0,1,905.271,93.41Z" transform="translate(-851.875 -54.061)" fill="#5793ce"/>
          <path id="Trazado_193621" data-name="Trazado 193621" d="M895.781,87.93l-16.461-9.5c-.613-.354-.537-.972.173-1.381l7.573-4.372a2.661,2.661,0,0,1,2.393-.1l16.459,9.5c.614.355.537.973-.172,1.383l-7.573,4.372A2.658,2.658,0,0,1,895.781,87.93Z" transform="translate(-854.383 -55.51)" fill="#5793ce"/>
          <path id="Trazado_193622" data-name="Trazado 193622" d="M902.784,80.305l-13.358-7.711c-.614-.355-.537-.973.172-1.383l7.573-4.372a2.657,2.657,0,0,1,2.393-.1l13.358,7.711c.614.355.537.973-.172,1.383l-7.573,4.372A2.657,2.657,0,0,1,902.784,80.305Z" transform="translate(-852.999 -56.309)" fill="#5793ce"/>
          <path id="Trazado_193623" data-name="Trazado 193623" d="M926.186,105.485l-7.642-4.413c-.614-.354-.537-.973.172-1.381l7.573-4.372a2.661,2.661,0,0,1,2.393-.1l7.643,4.413c.613.355.537.973-.173,1.383l-7.571,4.372A2.663,2.663,0,0,1,926.186,105.485Z" transform="translate(-849.009 -52.407)" fill="#5793ce"/>
          <path id="Trazado_193624" data-name="Trazado 193624" d="M936.566,111.478l-7.642-4.413c-.614-.354-.537-.973.172-1.381l7.573-4.373a2.664,2.664,0,0,1,2.393-.1l7.643,4.413c.613.354.537.973-.173,1.381l-7.571,4.373A2.667,2.667,0,0,1,936.566,111.478Z" transform="translate(-847.587 -51.586)" fill="#5793ce"/>
          <path id="Trazado_193625" data-name="Trazado 193625" d="M946.946,117.471l-7.642-4.413c-.614-.354-.537-.973.172-1.383l7.573-4.372a2.664,2.664,0,0,1,2.393-.1l7.643,4.413c.613.354.537.973-.172,1.381l-7.573,4.372A2.663,2.663,0,0,1,946.946,117.471Z" transform="translate(-846.164 -50.764)" fill="#5793ce"/>
          <path id="Trazado_193626" data-name="Trazado 193626" d="M957.326,123.464l-7.642-4.413c-.614-.355-.537-.973.172-1.383l7.573-4.372a2.661,2.661,0,0,1,2.393-.1l7.643,4.413c.613.354.537.973-.172,1.381l-7.573,4.372A2.663,2.663,0,0,1,957.326,123.464Z" transform="translate(-844.742 -49.943)" fill="#5793ce"/>
          <path id="Trazado_193627" data-name="Trazado 193627" d="M967.706,129.457l-7.642-4.413c-.614-.355-.537-.973.172-1.383l7.573-4.372a2.657,2.657,0,0,1,2.393-.1l7.643,4.413c.613.354.537.972-.172,1.381l-7.573,4.372A2.664,2.664,0,0,1,967.706,129.457Z" transform="translate(-843.32 -49.122)" fill="#5793ce"/>
          <path id="Trazado_193628" data-name="Trazado 193628" d="M978.086,135.45l-7.642-4.413c-.614-.355-.537-.973.172-1.383l7.573-4.372a2.657,2.657,0,0,1,2.393-.1l7.643,4.413c.613.354.537.972-.172,1.381l-7.573,4.372A2.664,2.664,0,0,1,978.086,135.45Z" transform="translate(-841.898 -48.301)" fill="#5793ce"/>
          <path id="Trazado_193629" data-name="Trazado 193629" d="M988.466,141.442l-7.642-4.412c-.614-.355-.537-.973.172-1.383l7.573-4.372a2.657,2.657,0,0,1,2.393-.1l7.643,4.412c.614.355.537.973-.172,1.383l-7.573,4.372A2.66,2.66,0,0,1,988.466,141.442Z" transform="translate(-840.475 -47.48)" fill="#5793ce"/>
          <path id="Trazado_193630" data-name="Trazado 193630" d="M998.846,147.435l-7.642-4.412c-.614-.355-.537-.973.172-1.383l7.573-4.372a2.657,2.657,0,0,1,2.393-.1l7.643,4.412c.614.355.537.973-.172,1.383l-7.573,4.372A2.66,2.66,0,0,1,998.846,147.435Z" transform="translate(-839.053 -46.659)" fill="#5793ce"/>
          <path id="Trazado_193631" data-name="Trazado 193631" d="M1009.226,153.428l-7.642-4.412c-.614-.355-.537-.973.172-1.383l7.573-4.372a2.657,2.657,0,0,1,2.393-.1l7.643,4.412c.614.355.537.973-.172,1.383l-7.573,4.372A2.66,2.66,0,0,1,1009.226,153.428Z" transform="translate(-837.631 -45.838)" fill="#5793ce"/>
          <path id="Trazado_193632" data-name="Trazado 193632" d="M1028.769,164.71l-16.676-9.627c-.614-.355-.537-.973.172-1.383l7.573-4.372a2.663,2.663,0,0,1,2.395-.1l16.674,9.627c.614.355.537.973-.172,1.383l-7.573,4.372A2.657,2.657,0,0,1,1028.769,164.71Z" transform="translate(-836.191 -45.006)" fill="#5793ce"/>
          <path id="Trazado_193633" data-name="Trazado 193633" d="M1048.663,152.862l-14.074-8.126c-.614-.354-.537-.973.172-1.381l7.573-4.373a2.664,2.664,0,0,1,2.393-.1l14.075,8.126c.614.354.537.973-.172,1.383l-7.573,4.372A2.667,2.667,0,0,1,1048.663,152.862Z" transform="translate(-833.109 -46.424)" fill="#5793ce"/>
          <path id="Trazado_193634" data-name="Trazado 193634" d="M944.364,104.312,936.721,99.9c-.613-.355-.537-.973.172-1.383l7.573-4.372a2.66,2.66,0,0,1,2.395-.1l7.642,4.412c.614.355.537.973-.172,1.383l-7.573,4.372A2.657,2.657,0,0,1,944.364,104.312Z" transform="translate(-846.518 -52.567)" fill="#5793ce"/>
          <path id="Trazado_193635" data-name="Trazado 193635" d="M933.725,98.17l-7.642-4.412c-.614-.355-.537-.973.172-1.383L933.827,88a2.66,2.66,0,0,1,2.395-.1l7.642,4.412c.614.355.537.973-.172,1.383l-7.573,4.372A2.66,2.66,0,0,1,933.725,98.17Z" transform="translate(-847.976 -53.409)" fill="#5793ce"/>
          <path id="Trazado_193636" data-name="Trazado 193636" d="M923.087,92.028l-7.642-4.412c-.614-.355-.537-.973.172-1.383l7.573-4.372a2.657,2.657,0,0,1,2.393-.1l7.643,4.412c.613.355.537.973-.172,1.383l-7.573,4.372A2.659,2.659,0,0,1,923.087,92.028Z" transform="translate(-849.434 -54.251)" fill="#5793ce"/>
          <path id="Trazado_193637" data-name="Trazado 193637" d="M912.449,85.886l-7.643-4.412c-.613-.355-.537-.973.173-1.383l7.573-4.372a2.657,2.657,0,0,1,2.393-.1l7.643,4.412c.613.355.537.973-.173,1.383l-7.573,4.372A2.657,2.657,0,0,1,912.449,85.886Z" transform="translate(-850.891 -55.092)" fill="#5793ce"/>
          <path id="Trazado_193638" data-name="Trazado 193638" d="M954.744,110.3l-7.643-4.412c-.613-.355-.537-.973.172-1.383l7.573-4.372a2.66,2.66,0,0,1,2.395-.1l7.642,4.412c.614.355.537.973-.172,1.383l-7.573,4.372A2.657,2.657,0,0,1,954.744,110.3Z" transform="translate(-845.096 -51.746)" fill="#5793ce"/>
          <path id="Trazado_193639" data-name="Trazado 193639" d="M965.124,116.3l-7.643-4.412c-.613-.355-.537-.973.172-1.383l7.573-4.372a2.66,2.66,0,0,1,2.395-.1l7.642,4.412c.614.355.537.973-.172,1.383l-7.573,4.372A2.657,2.657,0,0,1,965.124,116.3Z" transform="translate(-843.674 -50.925)" fill="#5793ce"/>
          <path id="Trazado_193640" data-name="Trazado 193640" d="M975.5,122.291l-7.643-4.413c-.613-.354-.537-.972.172-1.381l7.573-4.372a2.663,2.663,0,0,1,2.395-.1l7.642,4.413c.614.355.537.973-.172,1.383l-7.573,4.372A2.657,2.657,0,0,1,975.5,122.291Z" transform="translate(-842.252 -50.104)" fill="#5793ce"/>
          <path id="Trazado_193641" data-name="Trazado 193641" d="M985.884,128.284l-7.643-4.413c-.613-.354-.537-.972.173-1.381l7.571-4.372a2.664,2.664,0,0,1,2.395-.1l7.642,4.413c.614.355.537.973-.172,1.383l-7.573,4.372A2.657,2.657,0,0,1,985.884,128.284Z" transform="translate(-840.829 -49.283)" fill="#5793ce"/>
          <path id="Trazado_193642" data-name="Trazado 193642" d="M996.264,134.277l-7.643-4.413c-.613-.354-.537-.973.173-1.381l7.571-4.372a2.664,2.664,0,0,1,2.395-.1l7.642,4.413c.614.355.537.973-.172,1.383l-7.573,4.372A2.661,2.661,0,0,1,996.264,134.277Z" transform="translate(-839.407 -48.462)" fill="#5793ce"/>
          <path id="Trazado_193643" data-name="Trazado 193643" d="M1006.644,140.27,999,135.857c-.613-.354-.537-.973.173-1.381l7.571-4.373a2.667,2.667,0,0,1,2.395-.1l7.643,4.413c.613.354.537.973-.173,1.381l-7.573,4.373A2.664,2.664,0,0,1,1006.644,140.27Z" transform="translate(-837.985 -47.641)" fill="#5793ce"/>
          <path id="Trazado_193644" data-name="Trazado 193644" d="M1017.024,146.263l-7.643-4.413c-.613-.354-.537-.973.173-1.383l7.573-4.372a2.664,2.664,0,0,1,2.393-.1l7.643,4.413c.613.354.537.973-.173,1.381l-7.573,4.373A2.664,2.664,0,0,1,1017.024,146.263Z" transform="translate(-836.563 -46.819)" fill="#5793ce"/>
          <path id="Trazado_193645" data-name="Trazado 193645" d="M1027.4,152.256l-7.643-4.413c-.613-.355-.537-.973.173-1.383l7.573-4.372a2.661,2.661,0,0,1,2.394-.1l7.643,4.413c.613.354.537.973-.173,1.381l-7.571,4.372A2.663,2.663,0,0,1,1027.4,152.256Z" transform="translate(-835.14 -45.998)" fill="#5793ce"/>
          <path id="Trazado_193646" data-name="Trazado 193646" d="M1037.784,158.249l-7.642-4.413c-.614-.355-.537-.973.172-1.383l7.572-4.372a2.658,2.658,0,0,1,2.394-.1l7.643,4.413c.613.354.537.972-.173,1.381l-7.572,4.372A2.663,2.663,0,0,1,1037.784,158.249Z" transform="translate(-833.718 -45.177)" fill="#5793ce"/>
          <path id="Trazado_193647" data-name="Trazado 193647" d="M938.9,89.489l-7.643-4.412c-.613-.355-.537-.973.173-1.383L939,79.323a2.657,2.657,0,0,1,2.393-.1l7.643,4.412c.613.355.537.973-.173,1.383l-7.573,4.372A2.657,2.657,0,0,1,938.9,89.489Z" transform="translate(-847.267 -54.598)" fill="#5793ce"/>
          <path id="Trazado_193648" data-name="Trazado 193648" d="M928.57,83.526l-7.643-4.412c-.614-.355-.537-.973.172-1.383l7.573-4.372a2.66,2.66,0,0,1,2.395-.1l7.642,4.412c.614.355.537.973-.172,1.383l-7.573,4.372A2.657,2.657,0,0,1,928.57,83.526Z" transform="translate(-848.682 -55.416)" fill="#5793ce"/>
          <path id="Trazado_193649" data-name="Trazado 193649" d="M918.241,77.563,910.6,73.15c-.614-.354-.537-.972.172-1.381l7.573-4.372a2.661,2.661,0,0,1,2.393-.1l7.643,4.413c.613.355.537.973-.172,1.383l-7.573,4.372A2.659,2.659,0,0,1,918.241,77.563Z" transform="translate(-850.098 -56.233)" fill="#5793ce"/>
          <path id="Trazado_193650" data-name="Trazado 193650" d="M907.913,71.6l-7.643-4.413c-.613-.354-.537-.973.172-1.381l7.573-4.372a2.663,2.663,0,0,1,2.395-.1l7.642,4.413c.614.355.537.973-.172,1.383L910.306,71.5A2.661,2.661,0,0,1,907.913,71.6Z" transform="translate(-851.513 -57.05)" fill="#5793ce"/>
          <path id="Trazado_193651" data-name="Trazado 193651" d="M918.534,65.115,910.891,60.7c-.614-.354-.537-.972.172-1.381l2.5-1.445a2.661,2.661,0,0,1,2.394-.1l7.643,4.413c.613.355.537.973-.172,1.383l-2.5,1.445A2.658,2.658,0,0,1,918.534,65.115Z" transform="translate(-850.058 -57.537)" fill="#5793ce"/>
          <path id="Trazado_193652" data-name="Trazado 193652" d="M932.012,72.9l-7.642-4.413c-.614-.354-.537-.973.172-1.381l2.5-1.445a2.664,2.664,0,0,1,2.395-.1l7.642,4.413c.614.355.537.973-.172,1.383l-2.5,1.445A2.663,2.663,0,0,1,932.012,72.9Z" transform="translate(-848.211 -56.471)" fill="#5793ce"/>
          <path id="Trazado_193653" data-name="Trazado 193653" d="M942.3,78.835l-7.642-4.412c-.614-.355-.537-.973.172-1.383l2.5-1.445a2.657,2.657,0,0,1,2.393-.1l7.643,4.412c.613.355.537.973-.172,1.383l-2.5,1.445A2.66,2.66,0,0,1,942.3,78.835Z" transform="translate(-846.802 -55.657)" fill="#5793ce"/>
          <path id="Trazado_193654" data-name="Trazado 193654" d="M952.583,84.773l-7.643-4.412c-.613-.355-.537-.973.172-1.383l2.5-1.445a2.66,2.66,0,0,1,2.395-.1l7.642,4.412c.614.355.537.973-.172,1.383l-2.5,1.445A2.657,2.657,0,0,1,952.583,84.773Z" transform="translate(-845.392 -54.844)" fill="#5793ce"/>
          <path id="Trazado_193655" data-name="Trazado 193655" d="M962.868,90.712,955.226,86.3c-.614-.355-.537-.973.172-1.383l2.5-1.445a2.663,2.663,0,0,1,2.395-.1l7.642,4.413c.614.354.537.973-.172,1.381l-2.5,1.445A2.663,2.663,0,0,1,962.868,90.712Z" transform="translate(-843.983 -54.03)" fill="#5793ce"/>
          <path id="Trazado_193656" data-name="Trazado 193656" d="M1020.29,123.864l-7.643-4.413c-.613-.354-.537-.972.172-1.381l2.5-1.445a2.661,2.661,0,0,1,2.393-.1l7.643,4.413c.614.355.537.973-.172,1.383l-2.5,1.445A2.657,2.657,0,0,1,1020.29,123.864Z" transform="translate(-836.115 -49.487)" fill="#5793ce"/>
          <path id="Trazado_193657" data-name="Trazado 193657" d="M1030.575,129.8l-7.642-4.412c-.614-.355-.537-.973.172-1.383l2.5-1.445a2.66,2.66,0,0,1,2.395-.1l7.642,4.412c.614.355.537.973-.172,1.383l-2.5,1.445A2.66,2.66,0,0,1,1030.575,129.8Z" transform="translate(-834.706 -48.674)" fill="#5793ce"/>
          <path id="Trazado_193658" data-name="Trazado 193658" d="M1040.86,135.741l-7.642-4.413c-.614-.355-.537-.973.172-1.383l2.5-1.445a2.658,2.658,0,0,1,2.394-.1l7.643,4.413c.613.354.537.972-.172,1.381l-2.5,1.445A2.663,2.663,0,0,1,1040.86,135.741Z" transform="translate(-833.296 -47.86)" fill="#5793ce"/>
          <path id="Trazado_193659" data-name="Trazado 193659" d="M1051.146,141.679l-7.643-4.413c-.613-.354-.537-.973.172-1.381l2.5-1.446a2.667,2.667,0,0,1,2.395-.1l7.642,4.413c.614.354.537.973-.172,1.381l-2.5,1.446A2.664,2.664,0,0,1,1051.146,141.679Z" transform="translate(-831.887 -47.046)" fill="#5793ce"/>
          <path id="Trazado_193660" data-name="Trazado 193660" d="M949.278,95.482l-7.642-4.412c-.614-.355-.537-.973.172-1.383l7.573-4.372a2.658,2.658,0,0,1,2.394-.1l7.643,4.412c.613.355.537.973-.173,1.383l-7.571,4.372A2.66,2.66,0,0,1,949.278,95.482Z" transform="translate(-845.845 -53.777)" fill="#5793ce"/>
          <path id="Trazado_193661" data-name="Trazado 193661" d="M959.658,101.475l-7.642-4.413c-.614-.354-.537-.972.172-1.381l7.573-4.372a2.661,2.661,0,0,1,2.393-.1l7.643,4.413c.613.355.537.973-.173,1.383l-7.571,4.372A2.66,2.66,0,0,1,959.658,101.475Z" transform="translate(-844.423 -52.956)" fill="#5793ce"/>
          <path id="Trazado_193662" data-name="Trazado 193662" d="M970.038,107.468l-7.642-4.413c-.614-.354-.537-.972.172-1.381L970.14,97.3a2.661,2.661,0,0,1,2.393-.1l7.643,4.413c.613.355.537.973-.172,1.383l-7.573,4.372A2.66,2.66,0,0,1,970.038,107.468Z" transform="translate(-843 -52.135)" fill="#5793ce"/>
          <path id="Trazado_193663" data-name="Trazado 193663" d="M980.418,113.461l-7.642-4.413c-.614-.354-.537-.973.172-1.381l7.573-4.372a2.661,2.661,0,0,1,2.393-.1l7.643,4.413c.613.355.537.973-.172,1.383l-7.573,4.372A2.663,2.663,0,0,1,980.418,113.461Z" transform="translate(-841.578 -51.314)" fill="#5793ce"/>
          <path id="Trazado_193664" data-name="Trazado 193664" d="M990.8,119.454l-7.642-4.413c-.614-.354-.537-.973.172-1.381l7.573-4.373a2.665,2.665,0,0,1,2.393-.1l7.643,4.413c.613.354.537.973-.172,1.381l-7.573,4.373A2.667,2.667,0,0,1,990.8,119.454Z" transform="translate(-840.156 -50.493)" fill="#5793ce"/>
          <path id="Trazado_193665" data-name="Trazado 193665" d="M1001.178,125.447l-7.642-4.413c-.614-.354-.537-.973.172-1.383l7.573-4.372a2.664,2.664,0,0,1,2.393-.1l7.643,4.413c.613.354.537.973-.172,1.381l-7.573,4.372A2.663,2.663,0,0,1,1001.178,125.447Z" transform="translate(-838.734 -49.672)" fill="#5793ce"/>
          <path id="Trazado_193666" data-name="Trazado 193666" d="M1011.558,131.44l-7.642-4.413c-.614-.355-.537-.973.172-1.383l7.573-4.372a2.661,2.661,0,0,1,2.393-.1l7.643,4.413c.613.354.537.973-.172,1.381l-7.573,4.372A2.663,2.663,0,0,1,1011.558,131.44Z" transform="translate(-837.311 -48.85)" fill="#5793ce"/>
          <path id="Trazado_193667" data-name="Trazado 193667" d="M1021.938,137.433l-7.642-4.413c-.614-.355-.537-.973.172-1.383l7.573-4.372a2.657,2.657,0,0,1,2.393-.1l7.643,4.413c.614.354.536.972-.172,1.381l-7.573,4.372A2.663,2.663,0,0,1,1021.938,137.433Z" transform="translate(-835.889 -48.029)" fill="#5793ce"/>
          <path id="Trazado_193668" data-name="Trazado 193668" d="M1032.318,143.426l-7.642-4.413c-.614-.355-.537-.973.172-1.383l7.573-4.372a2.657,2.657,0,0,1,2.393-.1l7.643,4.413c.614.354.536.972-.172,1.382l-7.573,4.372A2.664,2.664,0,0,1,1032.318,143.426Z" transform="translate(-834.467 -47.208)" fill="#5793ce"/>
          <path id="Trazado_193669" data-name="Trazado 193669" d="M891.725,97.256,869.217,84.261c-.614-.354-.537-.973.172-1.381l7.573-4.373a2.667,2.667,0,0,1,2.394-.1L901.863,91.4c.614.355.537.973-.172,1.383l-7.573,4.372A2.657,2.657,0,0,1,891.725,97.256Z" transform="translate(-855.768 -54.71)" fill="#5793ce"/>
          <path id="Trazado_193670" data-name="Trazado 193670" d="M1019.246,170.88l-22.509-12.994c-.613-.355-.537-.973.173-1.383l7.571-4.372a2.66,2.66,0,0,1,2.395-.1l22.507,12.995c.614.354.537.972-.172,1.381l-7.573,4.372A2.657,2.657,0,0,1,1019.246,170.88Z" transform="translate(-838.295 -44.622)" fill="#5793ce"/>
          <path id="Trazado_193671" data-name="Trazado 193671" d="M975.944,159.219l-7.643-4.413c-.613-.355-.537-.973.172-1.383l9.021-5.208a2.66,2.66,0,0,1,2.395-.1l7.642,4.412c.614.355.537.973-.172,1.383l-9.021,5.208A2.661,2.661,0,0,1,975.944,159.219Z" transform="translate(-842.191 -45.159)" fill="#5793ce"/>
          <path id="Trazado_193672" data-name="Trazado 193672" d="M901.116,116.016l-12.223-7.056c-.614-.355-.537-.973.172-1.383l9.021-5.208a2.661,2.661,0,0,1,2.393-.1l12.223,7.057c.614.354.537.972-.172,1.381l-9.021,5.209A2.657,2.657,0,0,1,901.116,116.016Z" transform="translate(-853.072 -51.441)" fill="#5793ce"/>
          <path id="Trazado_193673" data-name="Trazado 193673" d="M966.494,153.762l-12.222-7.056c-.614-.354-.537-.973.172-1.381l9.021-5.209a2.657,2.657,0,0,1,2.393-.1l12.223,7.056c.613.355.537.973-.172,1.383l-9.021,5.208A2.66,2.66,0,0,1,966.494,153.762Z" transform="translate(-844.114 -46.269)" fill="#5793ce"/>
          <path id="Trazado_193674" data-name="Trazado 193674" d="M916.092,124.662l-12.223-7.056c-.613-.354-.537-.973.172-1.381l9.021-5.209a2.66,2.66,0,0,1,2.395-.1l12.222,7.056c.614.355.537.973-.172,1.383l-9.021,5.208A2.657,2.657,0,0,1,916.092,124.662Z" transform="translate(-851.02 -50.256)" fill="#5793ce"/>
          <path id="Trazado_193675" data-name="Trazado 193675" d="M915.479,110.93l53.139,30.68a.727.727,0,0,1,0,1.378l-9.2,5.311a2.638,2.638,0,0,1-2.388,0l-53.14-30.68Z" transform="translate(-850.96 -50.221)" fill="#5793ce"/>
          <path id="Trazado_193676" data-name="Trazado 193676" d="M1004.722,168.741l8.513,4.915c.5.291.44.8-.141,1.134l-3.69,2.13a2.182,2.182,0,0,1-1.962.082l-8.513-4.915c-.5-.29-.44-.8.141-1.132l3.69-2.131A2.183,2.183,0,0,1,1004.722,168.741Z" transform="translate(-837.984 -42.327)" fill="#5793ce"/>
          <path id="Trazado_193677" data-name="Trazado 193677" d="M994.256,162.7l8.513,4.915c.5.29.44.8-.141,1.132l-3.69,2.131a2.179,2.179,0,0,1-1.963.081l-8.513-4.914c-.5-.291-.44-.8.141-1.134l3.69-2.131A2.182,2.182,0,0,1,994.256,162.7Z" transform="translate(-839.418 -43.155)" fill="#5793ce"/>
          <path id="Trazado_193678" data-name="Trazado 193678" d="M983.876,156.706l8.513,4.915c.5.29.44.8-.141,1.132l-3.69,2.131a2.179,2.179,0,0,1-1.963.081l-8.513-4.914c-.5-.291-.44-.8.141-1.134l3.69-2.13A2.183,2.183,0,0,1,983.876,156.706Z" transform="translate(-840.841 -43.976)" fill="#5793ce"/>
          <path id="Trazado_193679" data-name="Trazado 193679" d="M999.988,159.389l8.513,4.915c.5.291.44.8-.141,1.134l-3.69,2.13a2.183,2.183,0,0,1-1.963.082l-8.513-4.915c-.5-.29-.44-.8.141-1.132l3.69-2.131A2.183,2.183,0,0,1,999.988,159.389Z" transform="translate(-838.633 -43.608)" fill="#5793ce"/>
        </g>
        <g id="Grupo_151352" data-name="Grupo 151352" transform="translate(179.196 49.865)">
          <path id="Trazado_193680" data-name="Trazado 193680" d="M1047.913,47.349l-63.573-36.7.818-4.133,63.573,36.7Z" transform="translate(-952.125 40.628)" fill="#d4ecff"/>
          <path id="Trazado_193681" data-name="Trazado 193681" d="M1025.575,52.147,981.2,26.526l.818-4.133,44.377,25.621Z" transform="translate(-952.555 42.804)" fill="#d4ecff"/>
          <path id="Trazado_193682" data-name="Trazado 193682" d="M1021.16,40.751,982.768,18.585l.818-4.133,38.392,22.165Z" transform="translate(-952.34 41.716)" fill="#fff"/>
          <path id="Trazado_193683" data-name="Trazado 193683" d="M1040.994,52.2l-19.2-11.083.818-4.133,19.2,11.083Z" transform="translate(-946.992 44.804)" fill="#ff2c9c"/>
          <path id="Trazado_193684" data-name="Trazado 193684" d="M980.7-19.732,961.5-30.815l.818-4.133,19.2,11.083Z" transform="translate(-955.254 34.948)" fill="#d4ecff"/>
          <path id="Trazado_193685" data-name="Trazado 193685" d="M978.867-11.285l-19.2-11.083.818-4.133,19.2,11.083Z" transform="translate(-955.505 36.105)" fill="#fff"/>
          <path id="Trazado_193686" data-name="Trazado 193686" d="M1061.728,105.882l-19.2-11.083.818-4.133,19.2,11.083Z" transform="translate(-944.151 52.159)" fill="#d4ecff"/>
          <path id="Trazado_193687" data-name="Trazado 193687" d="M975.2,5.609l-19.2-11.083.818-4.133,19.2,11.083Z" transform="translate(-956.007 38.42)" fill="#d4ecff"/>
        </g>
        <g id="Grupo_151353" data-name="Grupo 151353" transform="translate(234.931 92.747)">
          <path id="Trazado_193688" data-name="Trazado 193688" d="M1009.962,6.89a2.4,2.4,0,0,1-3.452,1.063,3,3,0,0,1-1.236-3.769,2.4,2.4,0,0,1,3.452-1.063A3,3,0,0,1,1009.962,6.89Z" transform="translate(-1005.025 -2.767)" fill="#ff2c9c"/>
          <path id="Trazado_193689" data-name="Trazado 193689" d="M1017.234,11.088a2.4,2.4,0,0,1-3.452,1.063,3,3,0,0,1-1.236-3.769A2.4,2.4,0,0,1,1016,7.319,3,3,0,0,1,1017.234,11.088Z" transform="translate(-1004.029 -2.192)" fill="#fff"/>
          <path id="Trazado_193690" data-name="Trazado 193690" d="M1024.5,15.287a2.4,2.4,0,0,1-3.451,1.063,3,3,0,0,1-1.236-3.769,2.394,2.394,0,0,1,3.451-1.063A3,3,0,0,1,1024.5,15.287Z" transform="translate(-1003.032 -1.617)" fill="#d4ecff"/>
          <path id="Trazado_193691" data-name="Trazado 193691" d="M1031.777,19.485a2.4,2.4,0,0,1-3.451,1.063,3,3,0,0,1-1.237-3.769,2.4,2.4,0,0,1,3.452-1.063A3,3,0,0,1,1031.777,19.485Z" transform="translate(-1002.036 -1.041)" fill="#ff2c9c"/>
        </g>
        <path id="Trazado_193692" data-name="Trazado 193692" d="M916.788,176.686l-52.7-30.425c-1.534-.886-1.342-2.432.43-3.455l31.8-18.361a6.654,6.654,0,0,1,5.985-.248L955,154.623c1.534.886,1.342,2.433-.43,3.455l-31.8,18.361A6.654,6.654,0,0,1,916.788,176.686Z" transform="translate(-789.547 106.536)" fill="#fff"/>
      </g>
      <g id="Grupo_151357" data-name="Grupo 151357" transform="translate(245.665 314.282)">
        <g id="Grupo_151355" data-name="Grupo 151355">
          <ellipse id="Elipse_5369" data-name="Elipse 5369" cx="23.179" cy="13.382" rx="23.179" ry="13.382" transform="translate(3.191 20.692)" fill="#173d7a" opacity="0.5"/>
          <path id="Trazado_193693" data-name="Trazado 193693" d="M983.406,163.451v-7.4h-1.4a16.839,16.839,0,0,0-6.326-5.917c-10.3-5.945-27-5.945-37.293,0a16.84,16.84,0,0,0-6.326,5.917h-1.4v7.364h0c-.018,3.909,2.554,7.823,7.72,10.805,10.3,5.947,27,5.947,37.293,0C980.831,171.244,983.406,167.347,983.406,163.451Z" transform="translate(-930.665 -140.821)" fill="#ff2c9c"/>
          <ellipse id="Elipse_5370" data-name="Elipse 5370" cx="26.37" cy="15.225" rx="26.37" ry="15.225" fill="#ff2c9c"/>
          <path id="Trazado_193694" data-name="Trazado 193694" d="M975.679,165.5c-10.3,5.947-27,5.947-37.293,0-4.936-2.849-7.479-6.548-7.684-10.281-.222,4.057,2.321,8.154,7.684,11.25,10.3,5.947,27,5.947,37.293,0,5.363-3.1,7.907-7.193,7.684-11.25C983.158,158.955,980.615,162.654,975.679,165.5Z" transform="translate(-930.662 -139.513)" fill="#fff"/>
        </g>
        <g id="Grupo_151356" data-name="Grupo 151356" transform="translate(12.966 8.007)">
          <path id="Trazado_193695" data-name="Trazado 193695" d="M942.763,160.706a1.185,1.185,0,0,1-.695-.971l.026-9.919c0-.756,1.067-1.369,2.377-1.368s2.37.614,2.368,1.372l-.022,8.225,23.872-2.923c1.284-.157,2.542.316,2.815,1.056s-.548,1.468-1.829,1.625l-26.743,3.275a3.773,3.773,0,0,1-1.989-.276C942.882,160.771,942.821,160.74,942.763,160.706Z" transform="translate(-942.068 -148.448)" fill="#fff"/>
        </g>
      </g>
      <g id="Grupo_151359" data-name="Grupo 151359" transform="translate(116.156 193.028)">
        <g id="Grupo_151358" data-name="Grupo 151358">
          <path id="Trazado_193696" data-name="Trazado 193696" d="M836.355,89.912,816.763,78.6l19.591-11.311L855.946,78.6Z" transform="translate(-816.763 -30.307)" fill="#173d7a" opacity="0.5"/>
          <path id="Trazado_193697" data-name="Trazado 193697" d="M853.585,67.333,833.994,78.644V56.023l19.592-11.311Z" transform="translate(-814.402 -33.401)" fill="#d3008d"/>
          <path id="Trazado_193698" data-name="Trazado 193698" d="M836.355,57.386,816.763,46.074l19.591-11.311,19.592,11.311Z" transform="translate(-816.763 -34.764)" fill="#ff2c9c"/>
          <path id="Trazado_193699" data-name="Trazado 193699" d="M836.355,78.644,816.763,67.333V44.711l19.592,11.311Z" transform="translate(-816.763 -33.401)" fill="#ff2c9c"/>
        </g>
        <path id="Trazado_193700" data-name="Trazado 193700" d="M828.448,64.951l-5.48-3.164V55.46l5.48,3.164Z" transform="translate(-815.912 -31.928)" fill="#fff"/>
      </g>
      <g id="Grupo_151361" data-name="Grupo 151361" transform="translate(332.42 383.339)">
        <g id="Grupo_151360" data-name="Grupo 151360" transform="translate(0 0)">
          <path id="Trazado_193701" data-name="Trazado 193701" d="M1027.363,259.555l-20.4-11.776,20.4-11.776,20.4,11.776Z" transform="translate(-1006.966 -197.501)" fill="#173d7a" opacity="0.5"/>
          <path id="Trazado_193702" data-name="Trazado 193702" d="M1045.3,236.048l-20.4,11.776V224.273l20.4-11.776Z" transform="translate(-1004.508 -200.722)" fill="#173d7a"/>
          <path id="Trazado_193703" data-name="Trazado 193703" d="M1027.363,225.692l-20.4-11.776,20.4-11.776,20.4,11.776Z" transform="translate(-1006.966 -202.141)" fill="#d4ecff"/>
          <path id="Trazado_193704" data-name="Trazado 193704" d="M1027.363,247.824l-20.4-11.776V212.5l20.4,11.776Z" transform="translate(-1006.966 -200.722)" fill="#5793ce"/>
        </g>
        <path id="Trazado_193705" data-name="Trazado 193705" d="M1019.132,233.568l-5.7-3.294v-6.587l5.7,3.294Z" transform="translate(-1006.081 -199.189)" fill="#fff"/>
      </g>
      <g id="Grupo_151367" data-name="Grupo 151367" transform="translate(137.431 382.23)">
        <path id="Trazado_193706" data-name="Trazado 193706" d="M852.953,276.856c15.7,9.065,41.159,9.065,56.862,0s15.7-23.764,0-32.829-41.16-9.065-56.862,0S837.251,267.792,852.953,276.856ZM868.315,252.9c7.218-4.167,18.92-4.167,26.138,0s7.218,10.924,0,15.092-18.92,4.167-26.138,0S861.1,257.064,868.315,252.9Z" transform="translate(-834.693 -196.224)" fill="#173d7a" opacity="0.5"/>
        <g id="Grupo_151366" data-name="Grupo 151366" transform="translate(0 0)">
          <g id="Grupo_151362" data-name="Grupo 151362" transform="translate(11.653)">
            <path id="Trazado_193707" data-name="Trazado 193707" d="M915.123,241.087l-14.342.224a15.253,15.253,0,0,0-4.53-3.809c-7.888-4.554-20.289-4.905-28.881-1.062l-8.523-8.016-13.123.2c.649-.424,1.314-.843,2.017-1.248,18.238-10.529,47.806-10.529,66.043,0a34.7,34.7,0,0,1,8.206,6.392Z" transform="translate(-845.723 -198.656)" fill="#b70083"/>
            <path id="Trazado_193708" data-name="Trazado 193708" d="M845.723,209.234v20.828l13.123-.2V209.029Z" transform="translate(-845.723 -200.088)" fill="#d3008d"/>
            <path id="Trazado_193709" data-name="Trazado 193709" d="M865.788,217.045v20.828l-8.523-8.015V209.029Z" transform="translate(-844.142 -200.088)" fill="#b70083"/>
            <path id="Trazado_193710" data-name="Trazado 193710" d="M898.172,221.733v20.828L879.3,227.185l-14.544,10.5V216.862l13.392-6.5s18.437,5.643,19.394,5.883S898.172,221.733,898.172,221.733Z" transform="translate(-843.114 -199.905)" fill="#b70083"/>
            <path id="Trazado_193711" data-name="Trazado 193711" d="M908.489,220.166v20.828l-14.343.224V220.39Z" transform="translate(-839.088 -198.562)" fill="#b70083"/>
            <path id="Trazado_193712" data-name="Trazado 193712" d="M913.626,213.733v20.828l-6.865,7.314V221.047Z" transform="translate(-837.36 -199.444)" fill="#d3008d"/>
            <path id="Trazado_193713" data-name="Trazado 193713" d="M915.123,222.769l-14.342.224a15.252,15.252,0,0,0-4.53-3.809c-7.888-4.554-20.289-4.905-28.881-1.062l-8.523-8.016-13.123.2c.649-.424,1.314-.843,2.017-1.248,18.238-10.529,47.806-10.53,66.043,0a34.694,34.694,0,0,1,8.206,6.392Z" transform="translate(-845.723 -201.166)" fill="#ff2c9c"/>
          </g>
          <g id="Grupo_151364" data-name="Grupo 151364" transform="translate(0 12.46)">
            <path id="Trazado_193714" data-name="Trazado 193714" d="M862.457,218.332v19.146L850.042,234.5s.729-11.2.994-11.5S862.457,218.332,862.457,218.332Z" transform="translate(-833.478 -211.273)" fill="#5793ce"/>
            <g id="Grupo_151363" data-name="Grupo 151363">
              <path id="Trazado_193715" data-name="Trazado 193715" d="M870.44,235.171V256l-1.341,1.429-8.753-5.046s1.358-15.9,1.517-16.22S870.44,235.171,870.44,235.171Z" transform="translate(-832.066 -208.966)" fill="#173d7a"/>
              <path id="Trazado_193716" data-name="Trazado 193716" d="M856.948,230.442l7.505,7.059c-6.253,4.947-5.513,11.921,2.222,16.387a26.693,26.693,0,0,0,7.173,2.76l-7.758,8.265,6.874,6.465a62.441,62.441,0,0,1-23.822-7.368c-15.677-9.052-17.864-22.934-6.586-33.343Z" transform="translate(-835.474 -209.614)" fill="#396caa"/>
              <path id="Trazado_193717" data-name="Trazado 193717" d="M872.965,251.426v20.828l-17.02-6.573-20.47-19.53.076-22.116L857.208,241.2Z" transform="translate(-835.474 -210.492)" fill="#396caa"/>
              <path id="Trazado_193718" data-name="Trazado 193718" d="M856.948,212.124l7.505,7.059c-6.253,4.947-5.513,11.92,2.222,16.387a26.692,26.692,0,0,0,7.173,2.76l-7.758,8.265,6.874,6.465a62.441,62.441,0,0,1-23.822-7.368c-15.677-9.052-17.864-22.935-6.586-33.343Z" transform="translate(-835.474 -212.124)" fill="#d4ecff"/>
            </g>
          </g>
          <g id="Grupo_151365" data-name="Grupo 151365" transform="translate(37.546 18.344)">
            <path id="Trazado_193719" data-name="Trazado 193719" d="M868.5,264.095l6.838-7.285c6.348.387,12.931-.823,17.8-3.632,5.024-2.9,7.094-6.862,6.216-10.637l16.283-.254,6.26-6.671c5.477,9.4,1.741,20.195-11.229,27.682-9.529,5.5-22.154,8.124-34.638,7.875Z" transform="translate(-868.496 -214.789)" fill="#396caa"/>
            <path id="Trazado_193720" data-name="Trazado 193720" d="M875.116,251.8v20.828l48.305-26.769V225.019l-7.053,2.851Z" transform="translate(-867.589 -216.241)" fill="#396caa"/>
            <path id="Trazado_193721" data-name="Trazado 193721" d="M868.5,242.345v20.828l7.527,7.079V249.424Z" transform="translate(-868.496 -213.867)" fill="#173d7a"/>
            <path id="Trazado_193722" data-name="Trazado 193722" d="M868.5,245.777l6.838-7.285c6.348.385,12.931-.823,17.8-3.633,5.024-2.9,7.094-6.861,6.216-10.636l16.283-.254,6.26-6.671c5.477,9.4,1.741,20.195-11.229,27.682-9.529,5.5-22.154,8.124-34.638,7.875Z" transform="translate(-868.496 -217.299)" fill="#5793ce"/>
          </g>
        </g>
      </g>
      <g id="Grupo_151383" data-name="Grupo 151383" transform="translate(312.738 0)">
        <g id="Grupo_151371" data-name="Grupo 151371" transform="translate(26.889 53.106)">
          <path id="Trazado_193723" data-name="Trazado 193723" d="M1017.379-38.641a.568.568,0,0,1-.568-.569V-71.567a.567.567,0,0,1,.568-.569.568.568,0,0,1,.568.569v32.358A.569.569,0,0,1,1017.379-38.641Z" transform="translate(-1012.823 90.511)" fill="#396caa"/>
          <g id="Grupo_151370" data-name="Grupo 151370">
            <g id="Grupo_151368" data-name="Grupo 151368" transform="translate(1.744 16.908)">
              <rect id="Rectngulo_44591" data-name="Rectngulo 44591" width="5.622" height="12.131" transform="translate(0)" fill="#5793ce"/>
              <path id="Trazado_193724" data-name="Trazado 193724" d="M1019.636-61.414a4.389,4.389,0,0,1-3.975,0,1.211,1.211,0,0,1,0-2.295,4.391,4.391,0,0,1,3.976,0A1.211,1.211,0,0,1,1019.636-61.414Z" transform="translate(-1014.837 74.693)" fill="#5793ce"/>
            </g>
            <g id="Grupo_151369" data-name="Grupo 151369">
              <rect id="Rectngulo_44592" data-name="Rectngulo 44592" width="9.11" height="19.027" transform="translate(0)" fill="#5793ce"/>
              <path id="Trazado_193725" data-name="Trazado 193725" d="M1014.837-71.6v4.1a7.277,7.277,0,0,0,5.623,0V-71.6A7.272,7.272,0,0,0,1014.837-71.6Z" transform="translate(-1013.094 90.507)" fill="#396caa"/>
              <path id="Trazado_193726" data-name="Trazado 193726" d="M1021.079-69.386a7.12,7.12,0,0,1-6.441,0c-1.778-1.027-1.779-2.692,0-3.719a7.12,7.12,0,0,1,6.441,0C1022.858-72.078,1022.858-70.413,1021.079-69.386Z" transform="translate(-1013.304 90.273)" fill="#5793ce"/>
            </g>
          </g>
        </g>
        <g id="Grupo_151375" data-name="Grupo 151375" transform="translate(58.445 70.862)">
          <path id="Trazado_193727" data-name="Trazado 193727" d="M1045.133-23.025a.568.568,0,0,1-.569-.569V-55.951a.567.567,0,0,1,.569-.569.568.568,0,0,1,.568.569v32.358A.569.569,0,0,1,1045.133-23.025Z" transform="translate(-1040.577 74.895)" fill="#396caa"/>
          <g id="Grupo_151374" data-name="Grupo 151374">
            <g id="Grupo_151372" data-name="Grupo 151372" transform="translate(1.744 16.908)">
              <rect id="Rectngulo_44593" data-name="Rectngulo 44593" width="5.622" height="12.132" transform="translate(0)" fill="#5793ce"/>
              <path id="Trazado_193728" data-name="Trazado 193728" d="M1047.39-45.8a4.4,4.4,0,0,1-3.976,0,1.212,1.212,0,0,1,0-2.3,4.4,4.4,0,0,1,3.976,0A1.212,1.212,0,0,1,1047.39-45.8Z" transform="translate(-1042.591 59.076)" fill="#5793ce"/>
            </g>
            <g id="Grupo_151373" data-name="Grupo 151373">
              <rect id="Rectngulo_44594" data-name="Rectngulo 44594" width="9.11" height="19.027" transform="translate(0)" fill="#5793ce"/>
              <path id="Trazado_193729" data-name="Trazado 193729" d="M1042.591-55.987v4.106a7.272,7.272,0,0,0,5.623,0v-4.106A7.272,7.272,0,0,0,1042.591-55.987Z" transform="translate(-1040.847 74.89)" fill="#396caa"/>
              <path id="Trazado_193730" data-name="Trazado 193730" d="M1048.833-53.77a7.113,7.113,0,0,1-6.441,0c-1.779-1.027-1.779-2.691,0-3.719a7.116,7.116,0,0,1,6.441,0C1050.613-56.461,1050.613-54.8,1048.833-53.77Z" transform="translate(-1041.057 74.656)" fill="#5793ce"/>
            </g>
          </g>
        </g>
        <g id="Grupo_151382" data-name="Grupo 151382">
          <g id="Grupo_151378" data-name="Grupo 151378">
            <path id="Trazado_193731" data-name="Trazado 193731" d="M1072.34-42.3l12.215-7.194L1072.922-64.01l-3.058,5Z" transform="translate(-978.665 144.73)" fill="#5793ce"/>
            <path id="Trazado_193732" data-name="Trazado 193732" d="M994.039-113.642l19.5-11.217s-.733,11.193-.733,11.217-11.2,3.468-11.2,3.468Z" transform="translate(-989.054 136.393)" fill="#5793ce"/>
            <path id="Trazado_193733" data-name="Trazado 193733" d="M1084.378-69.079a12.267,12.267,0,0,0-4.217-1.563c-1.966-10.33-9.153-21.3-17.724-26.247a17.343,17.343,0,0,0-7.252-2.455c-1.17-12.52-9.876-26.749-20.447-32.852-5.522-3.188-10.532-3.566-14.23-1.613v-.009l-.18.1c-.094.052-.189.107-.281.161l-11.5,6.789,3.819,3.018c-3.428,1.5-5.6,5.344-5.6,11.028,0,10.482,7.359,23.229,16.438,28.471l61.163,43.675c6.818,3.935,12.344.745,12.344-7.127S1091.2-65.143,1084.378-69.079Z" transform="translate(-987.309 135.003)" fill="#5793ce"/>
            <path id="Trazado_193734" data-name="Trazado 193734" d="M1007.277-117.335l26.383-15.416c-5.122-2.671-9.75-2.891-13.22-1.059v-.009l-.18.1c-.094.052-.189.107-.281.161l-11.5,6.789,3.819,3.018A9.213,9.213,0,0,0,1007.277-117.335Z" transform="translate(-987.24 135.003)" fill="#5793ce"/>
            <path id="Trazado_193735" data-name="Trazado 193735" d="M1052.55-76.458l19.251-11.3c-3.3-5.711-7.849-10.7-12.882-13.606-.666-.385-1.323-.721-1.971-1.014l-24.486,14.318Z" transform="translate(-983.79 139.474)" fill="#5793ce"/>
            <path id="Trazado_193736" data-name="Trazado 193736" d="M1013.11-125.563l8.579,4.953,15.711-9.254a31.148,31.148,0,0,0-3.529-2.391,22.063,22.063,0,0,0-5.491-2.307Z" transform="translate(-986.441 135.063)" fill="#d4ecff"/>
            <path id="Trazado_193737" data-name="Trazado 193737" d="M1067.044-92.439l-15.365,9.053,5.344,5.96,13.948-8.235A44.73,44.73,0,0,0,1067.044-92.439Z" transform="translate(-981.157 140.835)" fill="#d4ecff"/>
            <path id="Trazado_193738" data-name="Trazado 193738" d="M1074.656-62.826a12.29,12.29,0,0,0-4.217-1.563c-1.966-10.329-9.153-21.3-17.724-26.247a17.358,17.358,0,0,0-7.253-2.455c-1.17-12.52-9.875-26.748-20.447-32.852-11.368-6.564-20.585-1.243-20.585,11.884,0,.446.013.895.034,1.346-8.314-3.856-14.81.489-14.81,10.337,0,10.482,7.359,23.228,16.438,28.47l68.563,39.585c6.818,3.936,12.344.746,12.344-7.126S1081.474-58.89,1074.656-62.826Z" transform="translate(-989.655 135.859)" fill="#d4ecff"/>
            <g id="Grupo_151376" data-name="Grupo 151376" transform="translate(3.76 6.127)">
              <path id="Trazado_193739" data-name="Trazado 193739" d="M1004.012-114.362c-.022-.451-.034-.9-.034-1.346v-.056c-4.594-1.785-8.54-1.009-11.017,1.858C995.652-116.122,999.566-116.424,1004.012-114.362Z" transform="translate(-992.962 131.382)" fill="#fff"/>
              <path id="Trazado_193740" data-name="Trazado 193740" d="M1073.331-63.686a12.274,12.274,0,0,0-4.218-1.563c-1.965-10.33-9.153-21.3-17.723-26.247a17.341,17.341,0,0,0-7.253-2.455c-1.17-12.52-9.875-26.749-20.447-32.852-7.083-4.09-13.329-3.565-17.033.586,3.773-3.225,9.55-3.349,16.03.392,10.571,6.1,19.276,20.332,20.446,32.852a17.358,17.358,0,0,1,7.253,2.455c8.571,4.948,15.758,15.917,17.724,26.248a12.263,12.263,0,0,1,4.217,1.562c6.818,3.936,12.344,13.508,12.344,21.379a10.168,10.168,0,0,1-1.968,6.566c1.849-1.425,2.972-4.007,2.972-7.545C1085.674-50.18,1080.147-59.751,1073.331-63.686Z" transform="translate(-991.086 129.614)" fill="#fff"/>
            </g>
            <g id="Grupo_151377" data-name="Grupo 151377" transform="translate(3.446 10.542)">
              <path id="Trazado_193741" data-name="Trazado 193741" d="M1002.6-110l5.154,2.39-.262-5.675c-.019-.4-.031-.794-.031-1.187,0-5.065,1.53-8.738,4.307-10.342s6.723-1.09,11.11,1.443c9.435,5.447,17.666,18.707,18.739,30.188l.271,2.893,2.9.223a13.947,13.947,0,0,1,5.794,2c7.494,4.326,14.248,14.381,16.06,23.907l.454,2.384,2.4.375a8.9,8.9,0,0,1,3.029,1.144c5.757,3.324,10.62,11.748,10.62,18.394,0,2.488-.689,4.313-1.892,5.007s-3.127.38-5.281-.864L1007.4-77.3c-7.976-4.6-14.714-16.276-14.714-25.487,0-3.613,1.065-6.367,2.923-7.554a5.008,5.008,0,0,1,2.733-.731A10.3,10.3,0,0,1,1002.6-110Z" transform="translate(-992.686 125.731)" fill="#173d7a"/>
            </g>
          </g>
          <g id="Grupo_151381" data-name="Grupo 151381" transform="translate(32.625 43.858)">
            <path id="Trazado_193742" data-name="Trazado 193742" d="M1031.5-73.831l1.809-.908-1.781-1.349Z" transform="translate(-1016.547 99.217)" fill="#5793ce"/>
            <path id="Trazado_193743" data-name="Trazado 193743" d="M1026.723-95.485l1.756-.888.032.919Z" transform="translate(-1017.201 96.438)" fill="#5793ce"/>
            <path id="Trazado_193744" data-name="Trazado 193744" d="M1036.242-78.611l1.832-.921-3.527-3.354Z" transform="translate(-1016.129 98.286)" fill="#5793ce"/>
            <g id="Grupo_151379" data-name="Grupo 151379" transform="translate(1.836)">
              <path id="Trazado_193745" data-name="Trazado 193745" d="M1033.751-72.977l-8.563-5.044a1.826,1.826,0,0,1-.784-1.439l.028-9.914,10.138,5.97-.028,9.914C1034.541-72.951,1034.187-72.721,1033.751-72.977Z" transform="translate(-1019.355 97.397)" fill="#5793ce"/>
              <path id="Trazado_193746" data-name="Trazado 193746" d="M1029.385-96.354l-9.248,5.951c-.392.252-.075,1.194.521,1.545l9.446,5.563,9.445,5.562c.6.351.918-.214.528-.927l-9.184-16.807C1030.5-96.192,1029.786-96.611,1029.385-96.354Z" transform="translate(-1019.964 96.43)" fill="#5793ce"/>
            </g>
            <g id="Grupo_151380" data-name="Grupo 151380" transform="translate(0 0.924)">
              <path id="Trazado_193747" data-name="Trazado 193747" d="M1032.136-72.164l-8.563-5.043a1.831,1.831,0,0,1-.785-1.441l.028-9.914,10.138,5.97-.028,9.914C1032.926-72.138,1032.572-71.908,1032.136-72.164Z" transform="translate(-1017.74 96.584)" fill="#d4ecff"/>
              <path id="Trazado_193748" data-name="Trazado 193748" d="M1027.771-95.541l-9.249,5.951c-.392.254-.075,1.194.521,1.545l9.446,5.563,9.445,5.563c.6.35.918-.215.528-.928l-9.184-16.807C1028.881-95.379,1028.171-95.8,1027.771-95.541Z" transform="translate(-1018.349 95.617)" fill="#d4ecff"/>
            </g>
          </g>
        </g>
        <path id="Trazado_193749" data-name="Trazado 193749" d="M1016.762-64.409c0,.557-.392.783-.876.5a1.936,1.936,0,0,1-.875-1.516c0-.558.392-.785.875-.5A1.934,1.934,0,0,1,1016.762-64.409Z" transform="translate(-986.181 144.452)" fill="#d4ecff"/>
        <path id="Trazado_193750" data-name="Trazado 193750" d="M1044.581-48.566c0,.558-.392.785-.876.506a1.936,1.936,0,0,1-.874-1.516c0-.558.391-.785.874-.506A1.937,1.937,0,0,1,1044.581-48.566Z" transform="translate(-982.369 146.622)" fill="#d4ecff"/>
      </g>
      <g id="Grupo_151388" data-name="Grupo 151388" transform="translate(0 300.398)">
        <g id="Grupo_151384" data-name="Grupo 151384" transform="translate(0 0)">
          <path id="Trazado_193751" data-name="Trazado 193751" d="M829.29,229.179l48.036-27.816a3.854,3.854,0,0,0,2.26-3.428l.011,0-.019-6.97-2.672,3.129c-.173-.114-.348-.227-.537-.337l-98.265-56.552c-3.9-2.244-9.8-2.481-13.171-.528l-47.36,27.426c-.959-1.049-2.969-3.266-2.969-3.266l.023,6.818h0c-.07,1.537,1.023,3.175,3.226,4.442l98.265,56.551C820.02,230.9,825.918,231.134,829.29,229.179Z" transform="translate(-714.604 -128.35)" fill="#396caa"/>
          <path id="Trazado_193752" data-name="Trazado 193752" d="M838.729,203.088l-2.766,1.6c-.368.211-.666-.014-.666-.5h0a1.59,1.59,0,0,1,.666-1.271l2.766-1.6c.367-.213.665.013.665.5h0A1.593,1.593,0,0,1,838.729,203.088Z" transform="translate(-698.068 -119.324)" fill="#173d7a"/>
          <path id="Trazado_193753" data-name="Trazado 193753" d="M778.105,137.209c-3.9-2.244-9.8-2.481-13.171-.528l-47.36,27.426c-.959-1.049-2.969-3.266-2.969-3.266l.023,6.818h0c-.07,1.537,1.023,3.175,3.226,4.442l98.265,56.551a15.192,15.192,0,0,0,7.093,1.843l-.093-67.38Z" transform="translate(-714.604 -128.35)" fill="#5793ce"/>
          <path id="Trazado_193754" data-name="Trazado 193754" d="M716.879,158.335l48.035-27.816c3.374-1.953,9.27-1.718,13.171.528L876.349,187.6c3.9,2.246,4.329,5.65.956,7.6l-48.035,27.816c-3.373,1.953-9.27,1.718-13.172-.528l-98.263-56.551C713.934,163.692,713.506,160.289,716.879,158.335Z" transform="translate(-714.605 -129.195)" fill="#d4ecff"/>
          <path id="Trazado_193755" data-name="Trazado 193755" d="M829.3,219.788l48.035-27.816c1.74-1.007,2.461-2.4,2.223-3.822a4,4,0,0,1-2.259,3.078l-48.035,27.816c-3.373,1.955-9.27,1.718-13.172-.528L717.83,161.966c-1.89-1.087-2.956-2.447-3.179-3.781-.115,1.561.973,3.234,3.216,4.524l98.265,56.551C820.032,221.506,825.929,221.742,829.3,219.788Z" transform="translate(-714.599 -125.223)" fill="#fff"/>
          <path id="Trazado_193756" data-name="Trazado 193756" d="M720.063,159.126,766.219,132.4c2.507-1.452,6.89-1.277,9.79.392l96.868,55.748c2.9,1.669,3.218,4.2.711,5.651l-46.156,26.728c-2.507,1.452-6.89,1.277-9.79-.392l-96.868-55.748C717.874,163.109,717.556,160.58,720.063,159.126Z" transform="translate(-714.088 -128.891)" fill="#173d7a"/>
        </g>
        <g id="Grupo_151386" data-name="Grupo 151386" transform="translate(99.638 58.141)">
          <path id="Trazado_193757" data-name="Trazado 193757" d="M804.314,200.334l32.57-18.8-2.079-1.2-32.57,18.8Z" transform="translate(-802.235 -180.329)" fill="#d4ecff"/>
          <path id="Trazado_193758" data-name="Trazado 193758" d="M824.245,194.393l16.492-9.521-2.079-1.2-16.492,9.521Z" transform="translate(-799.504 -179.871)" fill="#d4ecff"/>
          <path id="Trazado_193759" data-name="Trazado 193759" d="M817.206,197.682l5.349-3.088-2.079-1.2-5.349,3.088Z" transform="translate(-800.469 -178.539)" fill="#ff2c9c"/>
          <path id="Trazado_193760" data-name="Trazado 193760" d="M810.1,201.782l5.349-3.088-2.079-1.2-5.349,3.088Z" transform="translate(-801.442 -177.977)" fill="#fff"/>
          <path id="Trazado_193761" data-name="Trazado 193761" d="M824.083,190.928l13.384-7.728-2.079-1.2L822,189.728Z" transform="translate(-799.527 -180.1)" fill="#fff"/>
          <path id="Trazado_193762" data-name="Trazado 193762" d="M809.714,199.224,823.1,191.5l-2.079-1.2-13.384,7.728Z" transform="translate(-801.496 -178.963)" fill="#d4ecff"/>
          <g id="Grupo_151385" data-name="Grupo 151385" transform="translate(3.129 2.052)">
            <path id="Trazado_193763" data-name="Trazado 193763" d="M818.239,183.825a2.681,2.681,0,0,0,2.425,0,.739.739,0,0,0,0-1.4,2.681,2.681,0,0,0-2.425,0A.739.739,0,0,0,818.239,183.825Z" transform="translate(-803.241 -182.134)" fill="#ff2c9c"/>
            <path id="Trazado_193764" data-name="Trazado 193764" d="M815.052,185.665a2.681,2.681,0,0,0,2.425,0,.739.739,0,0,0,0-1.4,2.681,2.681,0,0,0-2.425,0A.739.739,0,0,0,815.052,185.665Z" transform="translate(-803.677 -181.882)" fill="#fff"/>
            <path id="Trazado_193765" data-name="Trazado 193765" d="M811.864,187.5a2.681,2.681,0,0,0,2.425,0,.739.739,0,0,0,0-1.4,2.681,2.681,0,0,0-2.425,0A.739.739,0,0,0,811.864,187.5Z" transform="translate(-804.114 -181.63)" fill="#d4ecff"/>
            <path id="Trazado_193766" data-name="Trazado 193766" d="M808.677,189.345a2.681,2.681,0,0,0,2.425,0,.739.739,0,0,0,0-1.4,2.681,2.681,0,0,0-2.425,0A.739.739,0,0,0,808.677,189.345Z" transform="translate(-804.551 -181.378)" fill="#ff2c9c"/>
            <path id="Trazado_193767" data-name="Trazado 193767" d="M805.49,191.185a2.681,2.681,0,0,0,2.425,0,.739.739,0,0,0,0-1.4,2.681,2.681,0,0,0-2.425,0A.739.739,0,0,0,805.49,191.185Z" transform="translate(-804.987 -181.125)" fill="#fff"/>
          </g>
        </g>
        <g id="Grupo_151387" data-name="Grupo 151387" transform="translate(20.657 11.771)">
          <path id="Trazado_193768" data-name="Trazado 193768" d="M741.62,156.5l5.484-3.166-2.131-1.23-5.484,3.166Z" transform="translate(-731.852 -137.827)" fill="#ff2c9c"/>
          <path id="Trazado_193769" data-name="Trazado 193769" d="M734.9,160.376l5.484-3.166-2.131-1.231-5.484,3.166Z" transform="translate(-732.772 -137.296)" fill="#fff"/>
          <path id="Trazado_193770" data-name="Trazado 193770" d="M763.162,143.944l5.484-3.166-2.131-1.231-5.484,3.166Z" transform="translate(-728.9 -139.547)" fill="#fff"/>
          <path id="Trazado_193771" data-name="Trazado 193771" d="M742.695,159.455l7.636-4.409-2.132-1.231-7.636,4.409Z" transform="translate(-731.705 -137.592)" fill="#fff"/>
          <path id="Trazado_193772" data-name="Trazado 193772" d="M737.872,161.941l3.351-1.935-2.131-1.23-3.351,1.935Z" transform="translate(-732.366 -136.913)" fill="#d4ecff"/>
        </g>
      </g>
      <g id="Grupo_151389" data-name="Grupo 151389" transform="translate(60.075 334.822)">
        <path id="Trazado_193773" data-name="Trazado 193773" d="M786.813,168.707l6.276-3.663a2.416,2.416,0,0,1,2.174.08l6,3.425c.646.368.718.929.163,1.254l-6.276,3.663a2.416,2.416,0,0,1-2.174-.08l-6-3.425C786.33,169.593,786.258,169.032,786.813,168.707Z" transform="translate(-764.837 -158.738)" fill="#ff2c9c"/>
        <path id="Trazado_193774" data-name="Trazado 193774" d="M777.185,174.328l6.276-3.663a2.417,2.417,0,0,1,2.174.08l6,3.425c.645.368.718.929.161,1.254l-6.275,3.663a2.416,2.416,0,0,1-2.174-.08l-6-3.425C776.7,175.214,776.629,174.653,777.185,174.328Z" transform="translate(-766.156 -157.968)" fill="#b3e0ff"/>
        <path id="Trazado_193775" data-name="Trazado 193775" d="M777.442,163.357l6.276-3.665a2.416,2.416,0,0,1,2.174.08l6,3.425c.645.368.717.93.161,1.254l-6.276,3.665a2.418,2.418,0,0,1-2.173-.08l-6-3.425C776.959,164.243,776.886,163.681,777.442,163.357Z" transform="translate(-766.121 -159.471)" fill="#fff"/>
        <path id="Trazado_193776" data-name="Trazado 193776" d="M767.813,168.978l6.276-3.665a2.416,2.416,0,0,1,2.174.08l6,3.425c.646.368.719.93.163,1.254l-6.276,3.665a2.42,2.42,0,0,1-2.174-.08l-6-3.425C767.331,169.864,767.258,169.3,767.813,168.978Z" transform="translate(-767.44 -158.701)" fill="#396caa"/>
      </g>
      <g id="Grupo_151392" data-name="Grupo 151392" transform="translate(48.311 242.7)">
        <g id="Grupo_151390" data-name="Grupo 151390" transform="translate(0 0)">
          <path id="Trazado_193777" data-name="Trazado 193777" d="M783.742,119.427l30.908-17.88a1.584,1.584,0,0,0,.91-1.321l.016.013,0-8.132-1.719,1.442L794.34,82.3a5.959,5.959,0,0,0-5.361-.217L759.437,99.177l-2.289-1.319v8.164l.013-.011a2.208,2.208,0,0,0,1.3,1.719l19.922,11.479A5.959,5.959,0,0,0,783.742,119.427Z" transform="translate(-757.086 -78.025)" fill="#5793ce"/>
          <path id="Trazado_193778" data-name="Trazado 193778" d="M810.943,93.549,791.432,82.3a5.959,5.959,0,0,0-5.361-.217l-7.7,4.453v33.417a4.84,4.84,0,0,0,2.462-.53l30.908-17.88a1.584,1.584,0,0,0,.91-1.321l.016.013,0-8.132Z" transform="translate(-754.178 -78.025)" fill="#396caa"/>
          <path id="Trazado_193779" data-name="Trazado 193779" d="M758.072,96.866l30.906-17.88a5.959,5.959,0,0,1,5.361.218l19.923,11.479c1.587.915,1.761,2.3.388,3.095l-30.908,17.88a5.959,5.959,0,0,1-5.361-.218L758.458,99.961C756.871,99.046,756.7,97.661,758.072,96.866Z" transform="translate(-757.087 -78.45)" fill="#d4ecff"/>
          <path id="Trazado_193780" data-name="Trazado 193780" d="M783.678,110.744l30.906-17.88a1.481,1.481,0,0,0,.871-1.663,1.86,1.86,0,0,1-.8.831l-30.908,17.88a5.956,5.956,0,0,1-5.361-.218L758.465,98.214a2.458,2.458,0,0,1-1.258-1.432c-.334.741.066,1.618,1.186,2.264l19.923,11.48A5.959,5.959,0,0,0,783.678,110.744Z" transform="translate(-757.094 -76.702)" fill="#fff"/>
        </g>
        <g id="Grupo_151391" data-name="Grupo 151391" transform="translate(20.065 10.594)">
          <path id="Trazado_193781" data-name="Trazado 193781" d="M786.718,90.677a1.272,1.272,0,0,1,0-2.409,4.612,4.612,0,0,1,4.173,0,1.272,1.272,0,0,1,0,2.409A4.612,4.612,0,0,1,786.718,90.677Z" transform="translate(-773.218 -87.767)" fill="#fff"/>
          <path id="Trazado_193782" data-name="Trazado 193782" d="M781.162,93.891a1.272,1.272,0,0,1,0-2.409,4.613,4.613,0,0,1,4.173,0,1.272,1.272,0,0,1,0,2.409A4.613,4.613,0,0,1,781.162,93.891Z" transform="translate(-773.98 -87.326)" fill="#173d7a"/>
          <path id="Trazado_193783" data-name="Trazado 193783" d="M775.606,97.1a1.272,1.272,0,0,1,0-2.409,4.613,4.613,0,0,1,4.173,0,1.272,1.272,0,0,1,0,2.409A4.613,4.613,0,0,1,775.606,97.1Z" transform="translate(-774.741 -86.886)" fill="#396caa"/>
        </g>
      </g>
    </g>
  </g>
</svg>
