<svg xmlns="http://www.w3.org/2000/svg" xmlns:xlink="http://www.w3.org/1999/xlink" width="244" height="405.998" viewBox="0 0 244 405.998">
  <defs>
    <linearGradient id="linear-gradient" x1="0.5" x2="0.5" y2="1" gradientUnits="objectBoundingBox">
      <stop offset="0" stop-color="#fff"/>
      <stop offset="1" stop-color="#d3d3d3"/>
    </linearGradient>
    <clipPath id="clip-path">
      <path id="Trazado_85321" data-name="Trazado 85321" d="M158.329,412.49l-.048,7.178c-.027,9.239-6.1,18.464-18.229,25.514-24.418,14.19-64.135,14.19-88.713,0-12.367-7.141-18.544-16.513-18.517-25.872l.05-7.178c-.027,9.36,6.15,18.732,18.517,25.873,24.578,14.19,64.3,14.19,88.713,0C152.232,430.956,158.3,421.73,158.329,412.49Z" transform="translate(-32.821 -412.132)" fill="#cdd1f6"/>
    </clipPath>
    <clipPath id="clip-path-2">
      <path id="Trazado_85346" data-name="Trazado 85346" d="M158.329,389.428l-.048,7.178c-.027,9.239-6.1,18.464-18.229,25.514-24.418,14.19-64.135,14.19-88.713,0-12.367-7.141-18.544-16.513-18.517-25.872l.05-7.178c-.027,9.36,6.15,18.732,18.517,25.873,24.578,14.19,64.3,14.19,88.713,0C152.232,407.894,158.3,398.668,158.329,389.428Z" transform="translate(-32.821 -389.07)" fill="#cdd1f6"/>
    </clipPath>
    <clipPath id="clip-path-3">
      <path id="Trazado_85371" data-name="Trazado 85371" d="M158.329,366.447l-.048,7.176c-.027,9.24-6.1,18.464-18.229,25.513-24.418,14.19-64.135,14.19-88.713,0C38.971,392,32.794,382.623,32.821,373.265l.05-7.176c-.027,9.359,6.15,18.732,18.517,25.872,24.578,14.19,64.3,14.19,88.713,0C152.232,384.911,158.3,375.686,158.329,366.447Z" transform="translate(-32.821 -366.089)" fill="#cdd1f6"/>
    </clipPath>
    <clipPath id="clip-path-4">
      <path id="Trazado_85396" data-name="Trazado 85396" d="M158.329,342.763l-.048,7.176c-.027,9.239-6.1,18.464-18.229,25.514-24.418,14.189-64.135,14.189-88.713,0-12.367-7.141-18.544-16.513-18.517-25.872l.05-7.178c-.027,9.36,6.15,18.732,18.517,25.873,24.578,14.19,64.3,14.19,88.713,0C152.232,361.227,158.3,352,158.329,342.763Z" transform="translate(-32.821 -342.403)" fill="#cdd1f6"/>
    </clipPath>
  </defs>
  <g id="Grupo_152035" data-name="Grupo 152035" transform="translate(-1115.676 -4384)">
    <g id="Grupo_151576" data-name="Grupo 151576" transform="translate(0 -1)">
      <g id="Grupo_151572" data-name="Grupo 151572" transform="translate(969.332 4188.875)">
        <g id="Grupo_53152" data-name="Grupo 53152" transform="translate(185.513 273.796)">
          <path id="Trazado_98869" data-name="Trazado 98869" d="M193.014,228.962l-1.6-2.6s-2.352-.565-3.549.005A14.613,14.613,0,0,0,182.8,231.1l4.082,9.161" transform="translate(-182.801 -226.112)" fill="#173d7a"/>
          <path id="Trazado_98870" data-name="Trazado 98870" d="M228.214,264.751s-18.483.629-22.439-2.541-39.22-35.143-39.22-35.143a4.445,4.445,0,0,0-4.655.316c-2.223,1.684-4.363,6.051-4.363,6.051s27.387,42.67,31.143,45.255,38.766,6.03,38.766,6.03" transform="translate(-157.319 -225.429)" fill="#173d7a"/>
          <path id="Trazado_98871" data-name="Trazado 98871" d="M192.76,270.233c3.109,2.139,22.536,3.352,35.454,4.862l-.767,6.991s-35.009-3.445-38.766-6.03S157.537,230.8,157.537,230.8s.6-1.212,1.483-2.6C162.044,232.168,189.214,267.793,192.76,270.233Z" transform="translate(-157.319 -222.796)" fill="#173d7a"/>
        </g>
        <path id="Trazado_98872" data-name="Trazado 98872" d="M148.939,362.992a92.4,92.4,0,0,1-2.087-17.662c-.277-10.156,2.513-20.993,15.02-22.8,19.564-2.823,40.337-.505,59.778,2.259,16.09,2.29,37.069,2.274,50.17,12.189,20.121,15.228-5.919,34.6-19.935,43.32-26.852,16.7-65.754,37.938-91.34,7.271A57.5,57.5,0,0,1,148.939,362.992Z" transform="translate(-0.49 198.967)" fill="#92b4d1" opacity="0.2"/>
        <path id="Trazado_98873" data-name="Trazado 98873" d="M205.232,350.666v.158a.858.858,0,0,1-.026.184.646.646,0,0,0-.054.238c-.287,1.026-1.471,3.681-5.97,4.471a8.165,8.165,0,0,1-.842.1,1.541,1.541,0,0,1-.339.054,28.248,28.248,0,0,1-3.367.052c-.368-.026-.736-.052-1.106-.106-4.89-1-9.441-4.761-10.625-5.786-.21-.184-.316-.288-.316-.288v-.922s-3.235-2.155-4.419-2.865c-3.6-2.132-8.783-3.945-13.728-6.393a14.506,14.506,0,0,1-3.471-2.341c-.158-.155-.316-.342-.474-.471a3.064,3.064,0,0,1-.29-.29c-.1-.132-.184-.29-.29-.42-.21-.29-.394-.554-.552-.79-.078-.158-.158-.29-.21-.394l-.184-.37a2.272,2.272,0,0,1-.132-.394v-.026a6.445,6.445,0,0,1-.29-1.867v-3.235L188.663,341.3l16.463,6.154Z" transform="translate(46.903 211.242)" fill="#190b05"/>
        <path id="Trazado_98874" data-name="Trazado 98874" d="M187,330.358a119.171,119.171,0,0,1-13.264-1.634c-8.219-1.406-13.888-1.811-14.953.754-1.028,2.487-1.267,5.149,6.077,10.174s13.023,5.548,18.9,10.283c4.357,3.51,8.278,4.341,12.663,4.641s7.341-1.378,8.3-3.165c2.22-4.147-.078-12.008-.078-12.008" transform="translate(47.111 209.08)" fill="#64549d"/>
        <path id="Trazado_98875" data-name="Trazado 98875" d="M216.766,343.3l.028,4.082a3.832,3.832,0,0,1-2.075,3.528,5.729,5.729,0,0,1-1.777.5c-5.1.575-12.943-.632-12.943-.632v-1.508s-2.792-.311-11.019-1.334a49.073,49.073,0,0,1-17.038-5.074,3.7,3.7,0,0,1-1.969-3.274l.016-2.987,32.351,5.706Z" transform="translate(10.9 223.388)" fill="#190b05"/>
        <path id="Trazado_98876" data-name="Trazado 98876" d="M193.85,333.66s-3.6,3.388-7.835,3.388-12.5-.106-14.616,1.378a3.475,3.475,0,0,0-1.655,2.647,5.366,5.366,0,0,0,1.127,3.282c1.588,2.331,12.285,5.825,20.333,6.462s8.472.528,12.285,1.163,7.778.938,10.177-.251c4.152-2.056,4.437-8.325,1.9-12.456S193.85,333.66,193.85,333.66Z" transform="translate(11.079 218.703)" fill="#64549d"/>
        <path id="Trazado_98877" data-name="Trazado 98877" d="M194.988,244.781l.658,1.526-1,5.051-16.1,8.1-.948-.132-2.577-.316-4.051-.526v-5.574a7.316,7.316,0,0,0-4.181-6.786,1.676,1.676,0,0,0-.184-.078,7.817,7.817,0,0,1-2.735-1.842l-.238-.238c-3.1-3.287-5.864-10.677-5.077-26.852.158-2.813.79-7.706,2.08-10.205,2.339-4.5,7.309-7.467,17.566-4.655,17.1,4.735,24.565,12.492,25.433,19.2C204.507,228.134,194.988,244.781,194.988,244.781Z" transform="translate(48.631 7.999)" fill="#ffd0a3"/>
        <path id="Trazado_98878" data-name="Trazado 98878" d="M173.673,230.876V225.3a7.316,7.316,0,0,0-4.181-6.786c.842.368,3.435,1.614,6.89,3.463,1.383.741,1.342,5.191,1.342,9.423Z" transform="translate(48.167 35.606)" fill="#f1b987"/>
        <g id="Grupo_53154" data-name="Grupo 53154" transform="translate(155.853 243.615)">
          <g id="Grupo_53153" data-name="Grupo 53153" transform="translate(0)">
            <path id="Trazado_98879" data-name="Trazado 98879" d="M228.93,267.266l-28.758,14.777a2.968,2.968,0,0,1-4.191-1.756L181.473,233.84a3.768,3.768,0,0,1,1.805-4.434l28.536-14.65a2.709,2.709,0,0,1,3.828,1.715l14.766,47.27A2.969,2.969,0,0,1,228.93,267.266Z" transform="translate(-181.308 -214.459)" fill="#12263f"/>
            <path id="Trazado_98880" data-name="Trazado 98880" d="M225.286,264.848,199.832,278a2.747,2.747,0,0,1-3.88-1.619l-13.51-43.144c-.567-2.111-.469-3.033,1.668-4.092l26.624-13.756a1.2,1.2,0,0,1,1.7.759l14.217,45.442A2.746,2.746,0,0,1,225.286,264.848Z" transform="translate(-179.71 -213.193)" fill="url(#linear-gradient)"/>
            <path id="Trazado_98881" data-name="Trazado 98881" d="M197.78,233.871l-9.42,4.862a.453.453,0,0,1-.642-.285l-2.6-8.61a.493.493,0,0,1,.236-.578l9.423-4.862a.454.454,0,0,1,.642.285l2.6,8.61A.487.487,0,0,1,197.78,233.871Zm6.924,21.781-7.3,3.766a.35.35,0,0,1-.495-.223l-5.722-18.3a.384.384,0,0,1,.184-.448l7.3-3.766a.352.352,0,0,1,.5.223l5.719,18.3A.379.379,0,0,1,204.7,255.651Zm4.256-16.4-5.592,2.885a.268.268,0,0,1-.381-.171l-.088-.36a.288.288,0,0,1,.14-.342l5.595-2.885a.27.27,0,0,1,.381.171l.085.357A.292.292,0,0,1,208.959,239.253Zm-4.623,4.737a.478.478,0,0,1-.676-.3l-.153-.635a.518.518,0,0,1,.249-.609l9.907-5.113a.478.478,0,0,1,.676.3l.153.635a.518.518,0,0,1-.249.609m.559,1.847-9.907,5.113a.478.478,0,0,1-.676-.3l-.153-.637a.518.518,0,0,1,.249-.609l9.907-5.113a.481.481,0,0,1,.676.3l.153.635A.516.516,0,0,1,214.8,240.724Zm.562,1.847-9.91,5.113a.478.478,0,0,1-.676-.3l-.153-.637a.516.516,0,0,1,.249-.606l9.907-5.113a.478.478,0,0,1,.676.3l.153.637A.515.515,0,0,1,215.364,242.571Zm.559,1.849-9.91,5.113a.477.477,0,0,1-.673-.3l-.153-.635a.515.515,0,0,1,.246-.609l9.91-5.113a.476.476,0,0,1,.673.3l.153.637A.519.519,0,0,1,215.924,244.42Zm.559,1.847-9.91,5.113a.475.475,0,0,1-.673-.3l-.153-.635a.516.516,0,0,1,.246-.609l9.91-5.113a.477.477,0,0,1,.673.3l.153.635A.516.516,0,0,1,216.483,246.267Zm-5.535-18.105-10.332,5.331a.5.5,0,0,1-.7-.313l-2.847-9.441a.538.538,0,0,1,.256-.635l10.335-5.333a.5.5,0,0,1,.7.316l2.847,9.441A.539.539,0,0,1,210.948,228.162Z" transform="translate(-177.334 -209.281)" fill="#173d7a" opacity="0.55"/>
          </g>
          <path id="Trazado_98882" data-name="Trazado 98882" d="M209.61,251.171l-5.5,4.582-1.039.868s-1.261-5.279-3.486-7.278a14.354,14.354,0,0,0-4.261-1.922,3.407,3.407,0,0,1-1.829-1.228c-1.075-1.469-2.66-4.693-1.829-10.293a6.224,6.224,0,0,1,.715-2.318.06.06,0,0,0,.018-.039c.679-1.168,1.528-1.129,1.528-1.129s3.714,2.639,4.789,3.429c.886.66,2.018,1.943,2.885.982.469-.49-2.246-3.922-3-5.486-.736-1.567.7-3.264,1.339-2.66a37.894,37.894,0,0,1,5.976,9.464C207.46,242.178,209.61,251.171,209.61,251.171Z" transform="translate(-186.592 -192.049)" fill="#ffd0a3"/>
          <path id="Trazado_98883" data-name="Trazado 98883" d="M207,248.768l-1.261,3.922-1.039.868s-1.261-5.279-3.486-7.278a14.355,14.355,0,0,0-4.261-1.922,3.407,3.407,0,0,1-1.829-1.228c-1.075-1.469-2.66-4.693-1.829-10.293a6.224,6.224,0,0,1,.715-2.318.06.06,0,0,0,.018-.039s.039.964,1.567,2.321a38.356,38.356,0,0,0,4.844,3.261c1.057.679,2.714,3.147,3.732,5.618C205.215,244.168,207,248.768,207,248.768Z" transform="translate(-188.23 -188.986)" fill="#f1b987"/>
          <path id="Trazado_98884" data-name="Trazado 98884" d="M192.436,245.46l-.961-3.072a2.411,2.411,0,0,1,.119-1.772,14.413,14.413,0,0,1,2.518-3.888,3.794,3.794,0,0,1,4.605-.746,6.731,6.731,0,0,1,1.2,2.321,7.777,7.777,0,0,1,.236,2.743c-.083.207-2.041,3.012-2.269,3.258A52.538,52.538,0,0,1,192.436,245.46Z" transform="translate(-176.989 -181.013)" fill="#eee"/>
        </g>
        <path id="Trazado_98885" data-name="Trazado 98885" d="M191.525,290.537c-3.813,20.83-6.548,46.657-6.548,46.657s6.364,51.733-.79,96.786c-.313,2.132-1.052,6.628-3.787,8.39a10.246,10.246,0,0,1-8.838-.052c-.13-.078-.262-.132-.394-.21-10.677-5.838-9.547-13.414-11.1-18.385.026-20.04,2.132-69.354-2.129-80.191l-3.815-43.709,1.393-31.248h38.241v.106l.184-.106S197.208,276.967,191.525,290.537Z" transform="translate(60.478 115.207)" fill="#00223d"/>
        <path id="Trazado_98886" data-name="Trazado 98886" d="M184.747,291.379c-3.6,11.834-8.232,42.738-9.205,50.288,0,0,3.551,59.517.526,100.441-10.677-5.838-9.547-13.414-11.1-18.385.026-20.04,2.132-69.354-2.129-80.191l-3.815-43.709,1.393-31.248h26.3A57.95,57.95,0,0,1,184.747,291.379Z" transform="translate(63.186 115.207)" fill="#031422"/>
        <path id="Trazado_98887" data-name="Trazado 98887" d="M215.071,272.96a61.311,61.311,0,0,1-8.26,19.988c-.736,1.1-1.393,2.235-2.025,3.367-.13.526-2,7.522-4.313,16.911-2.341,9.389-5.129,21.172-7.128,31.193,1.106,12.57,4.209,56.6-1.709,94.732a6.988,6.988,0,0,1-5.022,5.683,12.528,12.528,0,0,1-4.209.446,10.544,10.544,0,0,1-3.523-.842c-6.26-2.629-10.783-12.65-10.783-12.65s-.158-63.332-3.447-79.953a74.377,74.377,0,0,1-1.155-9.6c-.606-10.179-1.71-28.748-2.054-36.506-.655-15.1-.762-27.774-.236-33.429l31.325.394Z" transform="translate(32.596 121.134)" fill="#00223d"/>
        <path id="Trazado_98888" data-name="Trazado 98888" d="M201.234,272.7c-.158,1.867-.264,3.106-.264,3.106s-.316,7.89-4.287,19.724c-4,11.834-7.96,39.9-8.382,50.417-.42,9.679,4.727,55.81,2.805,99.338a10.544,10.544,0,0,1-3.523-.842c-6.26-2.629-10.783-12.65-10.783-12.65s-.158-63.332-3.447-79.953a74.377,74.377,0,0,1-1.155-9.6c-.606-10.179-1.71-28.748-2.054-36.506-.655-15.1-.762-27.774-.236-33.429Z" transform="translate(25.967 121.134)" fill="#031422"/>
        <path id="Trazado_98889" data-name="Trazado 98889" d="M225.2,270.894c-5.048,15.334-7.89,40.531-4.838,51.052,3.077,10.519,4.838,25.43,4.838,25.43-2.867,7.892-29.587,24.987-44.5,26.3a22.388,22.388,0,0,1-5.47-.21c-13.124-1.945-25.433-13.6-25.433-13.6s2.839-43.186,4.6-70.8c1.181-18.359,3.89-29.8,5.6-35.4a42.037,42.037,0,0,1,1.422-4.157c1.577-2.077,6.284-5.6,12.283-9.547a.439.439,0,0,0,.129-.052c4.025-2.683,8.6-5.522,13.2-8.231h.026c6.128-3.629,12.308-7.022,17.253-9.5.578-.29,1.132-.552,1.658-.79a39.331,39.331,0,0,1,7.6-3.1c7.022-1.313,16.437,2.393,19.279,15.124C235.718,246.119,230.221,255.534,225.2,270.894Z" transform="translate(36.109 34.855)" fill="#173d7a"/>
        <path id="Trazado_98890" data-name="Trazado 98890" d="M192,301.52c-.894,11.783.9,41.189,1.58,51.707-13.124-1.945-25.433-13.6-25.433-13.6s2.839-43.186,4.6-70.8c1.181-18.359,3.89-29.8,5.6-35.4,1.422-1.632,2.341-2.658,2.341-2.658H198s9,1.842,5.735,22.33C200.423,273.59,193.085,287.056,192,301.52Z" transform="translate(26.231 55.095)" fill="#13356a"/>
        <path id="Trazado_98891" data-name="Trazado 98891" d="M203.5,206.747" transform="translate(-55.886 16.891)" fill="#cbcbcb"/>
        <path id="Trazado_98892" data-name="Trazado 98892" d="M192.427,225.808c-2.629,3.6-12.062,8.814-16.4,9.734a38.633,38.633,0,0,1-9.9.42c-2.891-.041-5.129,1.551-5.944,1.893a.439.439,0,0,1-.13.052.089.089,0,0,1-.054.026l2.577-3.919,3-1.919s4.393-1.6,5.364-2.051a11.194,11.194,0,0,1,2.448-.42h.026c2.6-.316,6.338-.58,6.916-.658.816-.106,7.6-4.761,7.892-4.945.158-.106,1.5-2.316,2.445-3.893.578-.29,1.132-.552,1.658-.79A5.023,5.023,0,0,1,192.427,225.808Z" transform="translate(54.795 36.913)" fill="#64549d"/>
        <path id="Trazado_98893" data-name="Trazado 98893" d="M203.555,230.056c-1.474,8.786-8.915,22.591-12.676,23.855a22.15,22.15,0,0,1-6.209,1.184,5.924,5.924,0,0,1-6.1-4.841,28.241,28.241,0,0,0-2.549-7.941c-2.632-4.867-6.077-7.418-7.812-6.5-1.735.894-1.551,4.022-1.551,4.022l-1.132-.026s-.106-1-.262-2.342c-.132-1.313-.264-3-.342-4.287a14.916,14.916,0,0,0-3.025-9.1,36.02,36.02,0,0,1-4.209-7.758,14.23,14.23,0,0,1-1.052-6.944v-.026c.71-6.76,3.463-9.529,6.077-11.441,8.506-6.229,26.3,5.338,32.874,10.861a22.633,22.633,0,0,1,7.364,10.469v.026A22.57,22.57,0,0,1,203.555,230.056Z" transform="translate(52.477 0)" fill="#00223d"/>
        <path id="Trazado_98894" data-name="Trazado 98894" d="M191.655,220.106l-1.629-1.515a37.849,37.849,0,0,1-24.656,12.163s-3.844,3.878-4.937,8.379l2.24-1.448a9.969,9.969,0,0,1,3.877-1.51c.881-.14,2.828-.236,2.828-.236,8.783-.122,17.525-6.253,22.1-10.039A3.852,3.852,0,0,0,191.655,220.106Z" transform="translate(54.468 35.725)" fill="#fff"/>
        <path id="Trazado_98895" data-name="Trazado 98895" d="M194.158,237.9" transform="translate(-19.707 66.437)" fill="none" stroke="#381e1e" stroke-miterlimit="10" stroke-width="0.759"/>
        <path id="Trazado_98896" data-name="Trazado 98896" d="M200.547,222.556" transform="translate(-45.291 42.03)" fill="none" stroke="#381e1e" stroke-miterlimit="10" stroke-width="0.759"/>
        <path id="Trazado_98897" data-name="Trazado 98897" d="M176.042,331.713a4.442,4.442,0,0,0,.554.8C176.379,332.221,176.192,331.951,176.042,331.713Z" transform="translate(33.949 215.607)" fill="#474747"/>
        <path id="Trazado_98898" data-name="Trazado 98898" d="M176.107,332.433c-.117-.124-.184-.28-.288-.412.168.22.35.451.578.7A2.778,2.778,0,0,1,176.107,332.433Z" transform="translate(34.66 216.097)" fill="#474747"/>
        <path id="Trazado_98899" data-name="Trazado 98899" d="M233.245,247.927c-1.658,9.679-20.12,37.847-20.884,38.977a135.461,135.461,0,0,1-9.231,13.176H203.1c-2.445,3.051-4.471,5.025-5.735,5.393a5.986,5.986,0,0,1-.736.184c-5.732,1.368-10.073-2.341-11.651-6.5-1.5-3.287-5.97-11.047-9.628-21.04-2.445-6.654-3.919-14.782-5.5-21.41a6.467,6.467,0,0,1,.658-4.732c.08-.106.132-.238.21-.342,1.026-1.71,2.448-3.631,3.709-3.841,2.316-.342,2.761.264,2.761.264s4.235,6.812,7.6,12.07c2.6,4.077,5.522,11.205,6.706,14.2.316.894.526,1.419.526,1.419,6.1-14.176,14.072-31.587,17.307-38.873,3.916-8.809,15.831-10.705,22.011-3.287a2.857,2.857,0,0,0,.264.316,5.26,5.26,0,0,1,.868,1.761l.026-.026.052.052C232.874,236.093,234.8,238.88,233.245,247.927Z" transform="translate(-6.979 52.273)" fill="#13356a"/>
        <path id="Trazado_98900" data-name="Trazado 98900" d="M203.555,221.916c-1.474,8.786-8.915,22.591-12.676,23.855a22.15,22.15,0,0,1-6.209,1.184,5.924,5.924,0,0,1-6.1-4.841,28.241,28.241,0,0,0-2.549-7.941c-2.632-4.867-6.077-7.418-7.812-6.5-1.735.894-1.551,4.022-1.551,4.022l-1.132-.026s-.106-1-.262-2.342c-.132-1.313-.264-3-.342-4.287a14.916,14.916,0,0,0-3.025-9.1,36.02,36.02,0,0,1-4.209-7.757,14.23,14.23,0,0,1-1.052-6.944,38.863,38.863,0,0,0,27.72,22.8c20.672,4.339,18.727-12.073,18.595-12.915A22.57,22.57,0,0,1,203.555,221.916Z" transform="translate(52.477 8.14)" fill="#00223d"/>
        <path id="Trazado_98901" data-name="Trazado 98901" d="M187.686,246.5c.316.894.526,1.419.526,1.419a19.173,19.173,0,0,0-1.658,8.548A10.758,10.758,0,0,1,187.686,246.5Z" transform="translate(0.142 80.106)" fill="#173d7a"/>
        <path id="Trazado_98902" data-name="Trazado 98902" d="M232.558,231.6l-.078-.026s.632,8.074-7.022,21.54c-7.675,13.484-23.959,45.706-32.009,44.817-4.24-.469-13.6-20.385-17.1-29.694a156.008,156.008,0,0,1-5.628-20.7c-.078.1-.13.236-.21.342a6.467,6.467,0,0,0-.658,4.732c1.577,6.628,3.051,14.756,5.5,21.41,3.657,9.993,8.128,17.753,9.628,21.04,1.588,4.16,5.921,7.8,11.651,6.46v.036a5.986,5.986,0,0,0,.736-.184c1.264-.368,3.289-2.342,5.735-5.393h.026a135.465,135.465,0,0,0,9.231-13.176c.764-1.129,19.227-29.3,20.884-38.977C234.8,234.783,232.874,232,232.558,231.6Z" transform="translate(-6.979 56.37)" fill="#173d7a"/>
      </g>
      <g id="Grupo_151573" data-name="Grupo 151573" transform="translate(1234.167 4574.405)">
        <g id="Grupo_34494" data-name="Grupo 34494" transform="translate(0 116.095)">
          <g id="Grupo_34493" data-name="Grupo 34493" style="isolation: isolate">
            <g id="Grupo_34491" data-name="Grupo 34491" transform="translate(0 36.155)" style="isolation: isolate">
              <path id="Trazado_85315" data-name="Trazado 85315" d="M158.329,412.49l-.048,7.178c-.027,9.239-6.1,18.464-18.229,25.514-24.418,14.19-64.135,14.19-88.713,0-12.367-7.141-18.544-16.513-18.517-25.872l.05-7.178c-.027,9.36,6.15,18.732,18.517,25.873,24.578,14.19,64.3,14.19,88.713,0C152.232,430.956,158.3,421.73,158.329,412.49Z" transform="translate(-32.821 -412.132)" fill="#cdd1f6"/>
              <g id="Grupo_34490" data-name="Grupo 34490" clip-path="url(#clip-path)">
                <g id="Grupo_34489" data-name="Grupo 34489" style="isolation: isolate">
                  <path id="Trazado_85316" data-name="Trazado 85316" d="M110.849,412.347l-.048,7.178c-.017,5.541-2.208,11.077-6.575,16.14l.05-7.176c4.367-5.065,6.558-10.6,6.573-16.142Z" transform="translate(14.659 -411.989)" fill="#cdd1f6"/>
                  <path id="Trazado_85317" data-name="Trazado 85317" d="M111.467,422.042l-.05,7.176a45.28,45.28,0,0,1-11.655,9.374,65.963,65.963,0,0,1-6.352,3.228l.048-7.176a65.771,65.771,0,0,0,6.353-3.228,45.307,45.307,0,0,0,11.655-9.374Z" transform="translate(7.468 -405.542)" fill="#cdd1f6"/>
                  <path id="Trazado_85318" data-name="Trazado 85318" d="M113.031,429.611l-.048,7.176c-14.242,6.307-32.108,8.591-49,6.848l.05-7.176c16.9,1.743,34.762-.541,49-6.848Z" transform="translate(-12.103 -400.51)" fill="#cdd1f6"/>
                  <path id="Trazado_85319" data-name="Trazado 85319" d="M74.352,436.267l-.05,7.176a91.285,91.285,0,0,1-25.85-6.367l.05-7.176a91.272,91.272,0,0,0,25.85,6.367Z" transform="translate(-22.427 -400.317)" fill="#cdd1f6"/>
                  <path id="Trazado_85320" data-name="Trazado 85320" d="M58.9,441.715l-.05,7.176a66.818,66.818,0,0,1-7.507-3.709c-12.367-7.141-18.544-16.513-18.517-25.872l.05-7.178c-.027,9.36,6.15,18.732,18.517,25.873a66.948,66.948,0,0,0,7.507,3.709Z" transform="translate(-32.821 -412.132)" fill="#cdd1f6"/>
                </g>
              </g>
            </g>
            <g id="Grupo_34492" data-name="Grupo 34492" transform="translate(0.05)">
              <path id="Trazado_85322" data-name="Trazado 85322" d="M139.792,401.06c24.578,14.189,24.706,37.195.29,51.385s-64.135,14.19-88.713,0-24.706-37.2-.29-51.385S115.214,386.869,139.792,401.06Z" transform="translate(-32.851 -390.417)" fill="#e8ecf2"/>
            </g>
          </g>
        </g>
        <g id="Grupo_34496" data-name="Grupo 34496" transform="translate(1.199 90.517)">
          <g id="Grupo_34495" data-name="Grupo 34495">
            <path id="Trazado_85323" data-name="Trazado 85323" d="M138.481,399.388c24.117,13.924,24.243,36.5.283,50.424s-62.933,13.924-87.05,0-24.247-36.5-.285-50.424S114.364,385.464,138.481,399.388Z" transform="translate(-33.541 -365.817)" fill="#00223d"/>
            <path id="Trazado_85324" data-name="Trazado 85324" d="M138.481,398.52c24.117,13.924,24.243,36.5.283,50.423s-62.933,13.925-87.05,0-24.247-36.5-.285-50.424S114.364,384.6,138.481,398.52Z" transform="translate(-33.541 -366.394)" fill="#00223d"/>
            <path id="Trazado_85325" data-name="Trazado 85325" d="M138.481,397.652c24.117,13.924,24.243,36.5.283,50.423s-62.933,13.926-87.05,0-24.247-36.5-.285-50.424S114.364,383.728,138.481,397.652Z" transform="translate(-33.541 -366.972)" fill="#00223d"/>
            <path id="Trazado_85326" data-name="Trazado 85326" d="M138.481,396.784c24.117,13.924,24.243,36.5.283,50.423s-62.933,13.926-87.05,0-24.247-36.5-.285-50.423S114.364,382.86,138.481,396.784Z" transform="translate(-33.541 -367.549)" fill="#00223d"/>
            <path id="Trazado_85327" data-name="Trazado 85327" d="M138.481,395.916c24.117,13.924,24.243,36.5.283,50.423s-62.933,13.924-87.05,0-24.247-36.5-.285-50.423S114.364,381.992,138.481,395.916Z" transform="translate(-33.541 -368.126)" fill="#00223d"/>
            <path id="Trazado_85328" data-name="Trazado 85328" d="M138.481,395.048c24.117,13.924,24.243,36.5.283,50.423s-62.933,13.924-87.05,0-24.247-36.5-.285-50.423S114.364,381.124,138.481,395.048Z" transform="translate(-33.541 -368.703)" fill="#00223d"/>
            <path id="Trazado_85329" data-name="Trazado 85329" d="M138.481,394.179c24.117,13.924,24.243,36.5.283,50.424s-62.933,13.924-87.05,0-24.247-36.5-.285-50.424S114.364,380.255,138.481,394.179Z" transform="translate(-33.541 -369.281)" fill="#00223d"/>
            <path id="Trazado_85330" data-name="Trazado 85330" d="M138.481,393.311c24.117,13.924,24.243,36.5.283,50.423s-62.933,13.926-87.05,0-24.247-36.5-.285-50.424S114.364,379.387,138.481,393.311Z" transform="translate(-33.541 -369.858)" fill="#00223d"/>
            <path id="Trazado_85331" data-name="Trazado 85331" d="M138.481,392.443c24.117,13.924,24.243,36.5.283,50.423s-62.933,13.926-87.05,0-24.247-36.5-.285-50.424S114.364,378.519,138.481,392.443Z" transform="translate(-33.541 -370.435)" fill="#00223d"/>
            <path id="Trazado_85332" data-name="Trazado 85332" d="M138.481,391.575c24.117,13.924,24.243,36.5.283,50.423s-62.933,13.926-87.05,0-24.247-36.5-.285-50.423S114.364,377.651,138.481,391.575Z" transform="translate(-33.541 -371.012)" fill="#00223d"/>
            <path id="Trazado_85333" data-name="Trazado 85333" d="M138.481,390.705c24.117,13.926,24.243,36.5.283,50.425s-62.933,13.925-87.05,0-24.247-36.5-.285-50.423S114.364,376.783,138.481,390.705Z" transform="translate(-33.541 -371.59)" fill="#00223d"/>
            <path id="Trazado_85334" data-name="Trazado 85334" d="M138.481,389.838c24.117,13.926,24.243,36.5.283,50.424s-62.933,13.926-87.05,0-24.247-36.5-.285-50.423S114.364,375.914,138.481,389.838Z" transform="translate(-33.541 -372.167)" fill="#00223d"/>
            <path id="Trazado_85335" data-name="Trazado 85335" d="M138.481,388.97c24.117,13.926,24.243,36.5.283,50.424s-62.933,13.924-87.05,0-24.247-36.5-.285-50.423S114.364,375.046,138.481,388.97Z" transform="translate(-33.541 -372.745)" fill="#00223d"/>
            <path id="Trazado_85336" data-name="Trazado 85336" d="M138.481,388.1c24.117,13.926,24.243,36.5.283,50.424s-62.933,13.924-87.05,0-24.247-36.5-.285-50.423S114.364,374.178,138.481,388.1Z" transform="translate(-33.541 -373.322)" fill="#00223d"/>
            <path id="Trazado_85337" data-name="Trazado 85337" d="M138.481,387.234c24.117,13.924,24.243,36.5.283,50.424s-62.933,13.924-87.05,0-24.247-36.5-.285-50.424S114.364,373.31,138.481,387.234Z" transform="translate(-33.541 -373.899)" fill="#00223d"/>
            <path id="Trazado_85338" data-name="Trazado 85338" d="M138.481,386.366c24.117,13.924,24.243,36.5.283,50.423s-62.933,13.925-87.05,0-24.247-36.5-.285-50.423S114.364,372.442,138.481,386.366Z" transform="translate(-33.541 -374.476)" fill="#00223d"/>
            <path id="Trazado_85339" data-name="Trazado 85339" d="M138.481,385.5c24.117,13.926,24.243,36.5.283,50.424s-62.933,13.926-87.05,0-24.247-36.5-.285-50.423S114.364,371.573,138.481,385.5Z" transform="translate(-33.541 -375.054)" fill="#00223d"/>
          </g>
        </g>
        <g id="Grupo_34502" data-name="Grupo 34502" transform="translate(0 77.698)">
          <g id="Grupo_34501" data-name="Grupo 34501" style="isolation: isolate">
            <g id="Grupo_34499" data-name="Grupo 34499" transform="translate(0 36.155)" style="isolation: isolate">
              <path id="Trazado_85340" data-name="Trazado 85340" d="M158.329,389.428l-.048,7.178c-.027,9.239-6.1,18.464-18.229,25.514-24.418,14.19-64.135,14.19-88.713,0-12.367-7.141-18.544-16.513-18.517-25.872l.05-7.178c-.027,9.36,6.15,18.732,18.517,25.873,24.578,14.19,64.3,14.19,88.713,0C152.232,407.894,158.3,398.668,158.329,389.428Z" transform="translate(-32.821 -389.07)" fill="#cdd1f6"/>
              <g id="Grupo_34498" data-name="Grupo 34498" clip-path="url(#clip-path-2)">
                <g id="Grupo_34497" data-name="Grupo 34497" style="isolation: isolate">
                  <path id="Trazado_85341" data-name="Trazado 85341" d="M110.849,389.285l-.048,7.178c-.017,5.541-2.208,11.077-6.575,16.14l.05-7.176c4.367-5.065,6.558-10.6,6.573-16.142Z" transform="translate(14.659 -388.927)" fill="#cdd1f6"/>
                  <path id="Trazado_85342" data-name="Trazado 85342" d="M111.467,398.98l-.05,7.176a45.279,45.279,0,0,1-11.655,9.374,65.991,65.991,0,0,1-6.352,3.228l.048-7.176a65.461,65.461,0,0,0,6.353-3.228,45.309,45.309,0,0,0,11.655-9.374Z" transform="translate(7.468 -382.48)" fill="#cdd1f6"/>
                  <path id="Trazado_85343" data-name="Trazado 85343" d="M113.031,406.549l-.048,7.176c-14.242,6.307-32.108,8.591-49,6.848l.05-7.176c16.9,1.743,34.762-.541,49-6.848Z" transform="translate(-12.103 -377.448)" fill="#cdd1f6"/>
                  <path id="Trazado_85344" data-name="Trazado 85344" d="M74.352,413.2l-.05,7.176a91.281,91.281,0,0,1-25.85-6.367l.05-7.176a91.267,91.267,0,0,0,25.85,6.367Z" transform="translate(-22.427 -377.255)" fill="#cdd1f6"/>
                  <path id="Trazado_85345" data-name="Trazado 85345" d="M58.9,418.653l-.05,7.176a66.786,66.786,0,0,1-7.507-3.709c-12.367-7.141-18.544-16.513-18.517-25.872l.05-7.178c-.027,9.36,6.15,18.732,18.517,25.873a66.953,66.953,0,0,0,7.507,3.709Z" transform="translate(-32.821 -389.07)" fill="#cdd1f6"/>
                </g>
              </g>
            </g>
            <g id="Grupo_34500" data-name="Grupo 34500" transform="translate(0.05)">
              <path id="Trazado_85347" data-name="Trazado 85347" d="M139.792,378c24.578,14.189,24.706,37.195.29,51.385s-64.135,14.19-88.713,0-24.706-37.2-.29-51.385S115.214,363.807,139.792,378Z" transform="translate(-32.851 -367.355)" fill="#e8ecf2"/>
            </g>
          </g>
        </g>
        <g id="Grupo_34504" data-name="Grupo 34504" transform="translate(1.199 52.255)">
          <g id="Grupo_34503" data-name="Grupo 34503">
            <path id="Trazado_85348" data-name="Trazado 85348" d="M138.481,376.407c24.117,13.924,24.243,36.5.283,50.423s-62.933,13.926-87.05,0-24.247-36.5-.285-50.424S114.364,362.483,138.481,376.407Z" transform="translate(-33.541 -342.836)" fill="#00223d"/>
            <path id="Trazado_85349" data-name="Trazado 85349" d="M138.481,375.539c24.117,13.924,24.243,36.5.283,50.423s-62.933,13.924-87.05,0-24.247-36.5-.285-50.424S114.364,361.615,138.481,375.539Z" transform="translate(-33.541 -343.413)" fill="#00223d"/>
            <path id="Trazado_85350" data-name="Trazado 85350" d="M138.481,374.671c24.117,13.924,24.243,36.5.283,50.423s-62.933,13.924-87.05,0-24.247-36.5-.285-50.423S114.364,360.747,138.481,374.671Z" transform="translate(-33.541 -343.99)" fill="#00223d"/>
            <path id="Trazado_85351" data-name="Trazado 85351" d="M138.481,373.8c24.117,13.926,24.243,36.5.283,50.424s-62.933,13.924-87.05,0-24.247-36.5-.285-50.424S114.364,359.878,138.481,373.8Z" transform="translate(-33.541 -344.568)" fill="#00223d"/>
            <path id="Trazado_85352" data-name="Trazado 85352" d="M138.481,372.934c24.117,13.924,24.243,36.5.283,50.424s-62.933,13.924-87.05,0-24.247-36.5-.285-50.424S114.364,359.01,138.481,372.934Z" transform="translate(-33.541 -345.145)" fill="#00223d"/>
            <path id="Trazado_85353" data-name="Trazado 85353" d="M138.481,372.066c24.117,13.924,24.243,36.5.283,50.423s-62.933,13.926-87.05,0-24.247-36.5-.285-50.424S114.364,358.142,138.481,372.066Z" transform="translate(-33.541 -345.723)" fill="#00223d"/>
            <path id="Trazado_85354" data-name="Trazado 85354" d="M138.481,371.2c24.117,13.924,24.243,36.5.283,50.423s-62.933,13.926-87.05,0-24.247-36.5-.285-50.424S114.364,357.274,138.481,371.2Z" transform="translate(-33.541 -346.3)" fill="#00223d"/>
            <path id="Trazado_85355" data-name="Trazado 85355" d="M138.481,370.33c24.117,13.924,24.243,36.5.283,50.423s-62.933,13.926-87.05,0-24.247-36.5-.285-50.423S114.364,356.406,138.481,370.33Z" transform="translate(-33.541 -346.877)" fill="#00223d"/>
            <path id="Trazado_85356" data-name="Trazado 85356" d="M138.481,369.461c24.117,13.926,24.243,36.5.283,50.424s-62.933,13.926-87.05,0-24.247-36.5-.285-50.423S114.364,355.537,138.481,369.461Z" transform="translate(-33.541 -347.455)" fill="#00223d"/>
            <path id="Trazado_85357" data-name="Trazado 85357" d="M138.481,368.593c24.117,13.926,24.243,36.5.283,50.424s-62.933,13.924-87.05,0-24.247-36.5-.285-50.423S114.364,354.669,138.481,368.593Z" transform="translate(-33.541 -348.032)" fill="#00223d"/>
            <path id="Trazado_85358" data-name="Trazado 85358" d="M138.481,367.725c24.117,13.924,24.243,36.5.283,50.424s-62.933,13.924-87.05,0-24.247-36.5-.285-50.424S114.364,353.8,138.481,367.725Z" transform="translate(-33.541 -348.609)" fill="#00223d"/>
            <path id="Trazado_85359" data-name="Trazado 85359" d="M138.481,366.857c24.117,13.924,24.243,36.5.283,50.423s-62.933,13.925-87.05,0-24.247-36.5-.285-50.424S114.364,352.933,138.481,366.857Z" transform="translate(-33.541 -349.186)" fill="#00223d"/>
            <path id="Trazado_85360" data-name="Trazado 85360" d="M138.481,365.989c24.117,13.924,24.243,36.5.283,50.423s-62.933,13.926-87.05,0-24.247-36.5-.285-50.423S114.364,352.065,138.481,365.989Z" transform="translate(-33.541 -349.763)" fill="#00223d"/>
            <path id="Trazado_85361" data-name="Trazado 85361" d="M138.481,365.121c24.117,13.924,24.243,36.5.283,50.423s-62.933,13.926-87.05,0-24.247-36.5-.285-50.423S114.364,351.2,138.481,365.121Z" transform="translate(-33.541 -350.341)" fill="#00223d"/>
            <path id="Trazado_85362" data-name="Trazado 85362" d="M138.481,364.252c24.117,13.926,24.243,36.5.283,50.424s-62.933,13.924-87.05,0-24.247-36.5-.285-50.423S114.364,350.328,138.481,364.252Z" transform="translate(-33.541 -350.918)" fill="#00223d"/>
            <path id="Trazado_85363" data-name="Trazado 85363" d="M138.481,363.384c24.117,13.925,24.243,36.5.283,50.424s-62.933,13.924-87.05,0-24.247-36.5-.285-50.423S114.364,349.46,138.481,363.384Z" transform="translate(-33.541 -351.495)" fill="#00223d"/>
            <path id="Trazado_85364" data-name="Trazado 85364" d="M138.481,362.516c24.117,13.926,24.243,36.5.283,50.424s-62.933,13.924-87.05,0-24.247-36.5-.285-50.424S114.364,348.592,138.481,362.516Z" transform="translate(-33.541 -352.073)" fill="#00223d"/>
          </g>
        </g>
        <g id="Grupo_34510" data-name="Grupo 34510" transform="translate(0 39.435)">
          <g id="Grupo_34509" data-name="Grupo 34509" style="isolation: isolate">
            <g id="Grupo_34507" data-name="Grupo 34507" transform="translate(0 36.156)" style="isolation: isolate">
              <path id="Trazado_85365" data-name="Trazado 85365" d="M158.329,366.447l-.048,7.176c-.027,9.24-6.1,18.464-18.229,25.513-24.418,14.19-64.135,14.19-88.713,0C38.971,392,32.794,382.623,32.821,373.265l.05-7.176c-.027,9.359,6.15,18.732,18.517,25.872,24.578,14.19,64.3,14.19,88.713,0C152.232,384.911,158.3,375.686,158.329,366.447Z" transform="translate(-32.821 -366.089)" fill="#cdd1f6"/>
              <g id="Grupo_34506" data-name="Grupo 34506" clip-path="url(#clip-path-3)">
                <g id="Grupo_34505" data-name="Grupo 34505" style="isolation: isolate">
                  <path id="Trazado_85366" data-name="Trazado 85366" d="M110.849,366.3l-.048,7.176c-.017,5.541-2.208,11.077-6.575,16.142l.05-7.176c4.367-5.065,6.558-10.6,6.573-16.142Z" transform="translate(14.659 -365.946)" fill="#cdd1f6"/>
                  <path id="Trazado_85367" data-name="Trazado 85367" d="M111.467,376l-.05,7.176a45.277,45.277,0,0,1-11.655,9.372,65.211,65.211,0,0,1-6.352,3.228l.048-7.176a65.031,65.031,0,0,0,6.353-3.228A45.338,45.338,0,0,0,111.467,376Z" transform="translate(7.468 -359.499)" fill="#cdd1f6"/>
                  <path id="Trazado_85368" data-name="Trazado 85368" d="M113.031,383.567l-.048,7.176c-14.242,6.308-32.108,8.591-49,6.849l.05-7.176c16.9,1.742,34.762-.541,49-6.85Z" transform="translate(-12.103 -354.467)" fill="#cdd1f6"/>
                  <path id="Trazado_85369" data-name="Trazado 85369" d="M74.352,390.224,74.3,397.4a91.4,91.4,0,0,1-25.85-6.367l.05-7.176a91.33,91.33,0,0,0,25.85,6.367Z" transform="translate(-22.427 -354.274)" fill="#cdd1f6"/>
                  <path id="Trazado_85370" data-name="Trazado 85370" d="M58.9,395.672l-.05,7.176a66.821,66.821,0,0,1-7.507-3.711C38.971,392,32.794,382.623,32.821,373.265l.05-7.176c-.027,9.359,6.15,18.732,18.517,25.872a67.24,67.24,0,0,0,7.507,3.711Z" transform="translate(-32.821 -366.089)" fill="#cdd1f6"/>
                </g>
              </g>
            </g>
            <g id="Grupo_34508" data-name="Grupo 34508" transform="translate(0.05)">
              <path id="Trazado_85372" data-name="Trazado 85372" d="M139.792,355.016c24.578,14.19,24.706,37.2.29,51.385s-64.135,14.19-88.713,0-24.706-37.195-.29-51.385S115.214,340.825,139.792,355.016Z" transform="translate(-32.851 -344.373)" fill="#e8ecf2"/>
            </g>
          </g>
        </g>
        <g id="Grupo_34512" data-name="Grupo 34512" transform="translate(1.199 12.819)">
          <g id="Grupo_34511" data-name="Grupo 34511">
            <path id="Trazado_85373" data-name="Trazado 85373" d="M138.481,352.721c24.117,13.924,24.243,36.5.283,50.423s-62.933,13.926-87.05,0-24.247-36.5-.285-50.424S114.364,338.8,138.481,352.721Z" transform="translate(-33.541 -319.15)" fill="#00223d"/>
            <path id="Trazado_85374" data-name="Trazado 85374" d="M138.481,351.853c24.117,13.924,24.243,36.5.283,50.423s-62.933,13.926-87.05,0-24.247-36.5-.285-50.424S114.364,337.929,138.481,351.853Z" transform="translate(-33.541 -319.727)" fill="#00223d"/>
            <path id="Trazado_85375" data-name="Trazado 85375" d="M138.481,350.985c24.117,13.924,24.243,36.5.283,50.423s-62.933,13.926-87.05,0-24.247-36.5-.285-50.424S114.364,337.061,138.481,350.985Z" transform="translate(-33.541 -320.305)" fill="#00223d"/>
            <path id="Trazado_85376" data-name="Trazado 85376" d="M138.481,350.117c24.117,13.924,24.243,36.5.283,50.423s-62.933,13.924-87.05,0-24.247-36.5-.285-50.423S114.364,336.193,138.481,350.117Z" transform="translate(-33.541 -320.882)" fill="#00223d"/>
            <path id="Trazado_85377" data-name="Trazado 85377" d="M138.481,349.249c24.117,13.924,24.243,36.5.283,50.423s-62.933,13.924-87.05,0-24.247-36.5-.285-50.423S114.364,335.325,138.481,349.249Z" transform="translate(-33.541 -321.459)" fill="#00223d"/>
            <path id="Trazado_85378" data-name="Trazado 85378" d="M138.481,348.38c24.117,13.926,24.243,36.5.283,50.424s-62.933,13.924-87.05,0-24.247-36.5-.285-50.423S114.364,334.456,138.481,348.38Z" transform="translate(-33.541 -322.037)" fill="#00223d"/>
            <path id="Trazado_85379" data-name="Trazado 85379" d="M138.481,347.512c24.117,13.924,24.243,36.5.283,50.424s-62.933,13.924-87.05,0-24.247-36.5-.285-50.423S114.364,333.588,138.481,347.512Z" transform="translate(-33.541 -322.614)" fill="#00223d"/>
            <path id="Trazado_85380" data-name="Trazado 85380" d="M138.481,346.644c24.117,13.924,24.243,36.5.283,50.423s-62.933,13.926-87.05,0-24.247-36.5-.285-50.424S114.364,332.72,138.481,346.644Z" transform="translate(-33.541 -323.191)" fill="#00223d"/>
            <path id="Trazado_85381" data-name="Trazado 85381" d="M138.481,345.776c24.117,13.924,24.243,36.5.283,50.423s-62.933,13.926-87.05,0-24.247-36.5-.285-50.423S114.364,331.852,138.481,345.776Z" transform="translate(-33.541 -323.768)" fill="#00223d"/>
            <path id="Trazado_85382" data-name="Trazado 85382" d="M138.481,344.908c24.117,13.924,24.243,36.5.283,50.423s-62.933,13.926-87.05,0-24.247-36.5-.285-50.423S114.364,330.984,138.481,344.908Z" transform="translate(-33.541 -324.346)" fill="#00223d"/>
            <path id="Trazado_85383" data-name="Trazado 85383" d="M138.481,344.04c24.117,13.924,24.243,36.5.283,50.423s-62.933,13.924-87.05,0-24.247-36.5-.285-50.423S114.364,330.115,138.481,344.04Z" transform="translate(-33.541 -324.923)" fill="#00223d"/>
            <path id="Trazado_85384" data-name="Trazado 85384" d="M138.481,343.171c24.117,13.926,24.243,36.5.283,50.424s-62.933,13.924-87.05,0-24.247-36.5-.285-50.423S114.364,329.247,138.481,343.171Z" transform="translate(-33.541 -325.5)" fill="#00223d"/>
            <path id="Trazado_85385" data-name="Trazado 85385" d="M138.481,342.3c24.117,13.926,24.243,36.5.283,50.424s-62.933,13.924-87.05,0-24.247-36.5-.285-50.424S114.364,328.379,138.481,342.3Z" transform="translate(-33.541 -326.078)" fill="#00223d"/>
            <path id="Trazado_85386" data-name="Trazado 85386" d="M138.481,341.435c24.117,13.924,24.243,36.5.283,50.424s-62.933,13.924-87.05,0-24.247-36.5-.285-50.424S114.364,327.511,138.481,341.435Z" transform="translate(-33.541 -326.655)" fill="#00223d"/>
            <path id="Trazado_85387" data-name="Trazado 85387" d="M138.481,340.567c24.117,13.924,24.243,36.5.283,50.423-11.693,6.8-26.96,10.275-42.67,10.441-15.79.168-32.032-3.311-44.38-10.441-24.118-13.924-24.247-36.5-.285-50.423S114.364,326.643,138.481,340.567Z" transform="translate(-33.541 -327.232)" fill="#00223d"/>
            <path id="Trazado_85388" data-name="Trazado 85388" d="M138.481,339.7c24.117,13.924,24.243,36.5.283,50.423s-62.933,13.926-87.05,0-24.247-36.5-.285-50.423S114.364,325.775,138.481,339.7Z" transform="translate(-33.541 -327.809)" fill="#00223d"/>
            <path id="Trazado_85389" data-name="Trazado 85389" d="M138.481,338.83c24.117,13.926,24.243,36.5.283,50.424s-62.933,13.924-87.05,0-24.247-36.5-.285-50.423S114.364,324.906,138.481,338.83Z" transform="translate(-33.541 -328.387)" fill="#00223d"/>
          </g>
        </g>
        <g id="Grupo_34518" data-name="Grupo 34518">
          <g id="Grupo_34517" data-name="Grupo 34517" style="isolation: isolate">
            <g id="Grupo_34515" data-name="Grupo 34515" transform="translate(0 36.155)" style="isolation: isolate">
              <path id="Trazado_85390" data-name="Trazado 85390" d="M158.329,342.763l-.048,7.176c-.027,9.239-6.1,18.464-18.229,25.514-24.418,14.189-64.135,14.189-88.713,0-12.367-7.141-18.544-16.513-18.517-25.872l.05-7.178c-.027,9.36,6.15,18.732,18.517,25.873,24.578,14.19,64.3,14.19,88.713,0C152.232,361.227,158.3,352,158.329,342.763Z" transform="translate(-32.821 -342.403)" fill="#cdd1f6"/>
              <g id="Grupo_34514" data-name="Grupo 34514" clip-path="url(#clip-path-4)">
                <g id="Grupo_34513" data-name="Grupo 34513" style="isolation: isolate">
                  <path id="Trazado_85391" data-name="Trazado 85391" d="M110.849,342.619l-.048,7.176c-.017,5.541-2.208,11.077-6.575,16.14l.05-7.176c4.367-5.065,6.558-10.6,6.573-16.14Z" transform="translate(14.659 -342.259)" fill="#cdd1f6"/>
                  <path id="Trazado_85392" data-name="Trazado 85392" d="M111.467,352.313l-.05,7.176a45.277,45.277,0,0,1-11.655,9.374,65.984,65.984,0,0,1-6.352,3.228l.048-7.176a65.771,65.771,0,0,0,6.353-3.228,45.3,45.3,0,0,0,11.655-9.374Z" transform="translate(7.468 -335.813)" fill="#cdd1f6"/>
                  <path id="Trazado_85393" data-name="Trazado 85393" d="M113.031,359.882l-.048,7.176c-14.242,6.307-32.108,8.591-49,6.848l.05-7.176c16.9,1.743,34.762-.541,49-6.848Z" transform="translate(-12.103 -330.78)" fill="#cdd1f6"/>
                  <path id="Trazado_85394" data-name="Trazado 85394" d="M74.352,366.538l-.05,7.176a91.285,91.285,0,0,1-25.85-6.367l.05-7.176a91.272,91.272,0,0,0,25.85,6.367Z" transform="translate(-22.427 -330.588)" fill="#cdd1f6"/>
                  <path id="Trazado_85395" data-name="Trazado 85395" d="M58.9,371.986l-.05,7.176a66.787,66.787,0,0,1-7.507-3.71c-12.367-7.141-18.544-16.513-18.517-25.872l.05-7.178c-.027,9.36,6.15,18.732,18.517,25.873a66.932,66.932,0,0,0,7.507,3.71Z" transform="translate(-32.821 -342.403)" fill="#cdd1f6"/>
                </g>
              </g>
            </g>
            <g id="Grupo_34516" data-name="Grupo 34516" transform="translate(0.05)">
              <path id="Trazado_85397" data-name="Trazado 85397" d="M139.792,331.329c24.578,14.19,24.706,37.2.29,51.387s-64.135,14.19-88.713,0-24.706-37.2-.29-51.387S115.214,317.14,139.792,331.329Z" transform="translate(-32.851 -320.688)" fill="#e8ecf2"/>
            </g>
          </g>
        </g>
        <g id="Grupo_34524" data-name="Grupo 34524" transform="translate(13.776 8.146)">
          <g id="Grupo_34523" data-name="Grupo 34523">
            <g id="Grupo_34520" data-name="Grupo 34520">
              <g id="Grupo_34519" data-name="Grupo 34519">
                <path id="Trazado_85398" data-name="Trazado 85398" d="M134.105,354.22c.01,5.837-4.354,11.425-12.282,15.73-8.694,4.72-20.136,7.079-31.6,7.079s-22.938-2.363-31.694-7.083c-8.047-4.339-12.48-9.973-12.492-15.859,0-.195,0-.386.013-.578-.008-.175-.013-.35-.013-.524-.007-5.839,4.354-11.425,12.286-15.732,8.694-4.718,20.136-7.079,31.6-7.079s22.94,2.363,31.692,7.083c8.047,4.341,12.485,9.973,12.492,15.859,0,.185,0,.366-.012.551v.013C134.1,353.862,134.105,354.041,134.105,354.22Zm-10.023-20.958c-9.176-4.957-21.31-7.682-34.16-7.682s-24.952,2.726-34.086,7.682C46.32,338.432,41.083,345.439,41.095,353c0,.173,0,.348.01.511.01.185.01.358.03.541.476,7.191,5.732,13.839,14.93,18.8,9.175,4.948,21.31,7.684,34.158,7.684s24.954-2.736,34.088-7.684c9.042-4.91,14.225-11.49,14.7-18.612.02-.185.02-.358.03-.541s.012-.386.012-.581C139.042,345.506,133.724,338.462,124.082,333.262Z" transform="translate(-41.095 -325.58)" fill="#b5b9dc"/>
              </g>
            </g>
            <g id="Grupo_34522" data-name="Grupo 34522" transform="translate(0.04 2.183)">
              <g id="Grupo_34521" data-name="Grupo 34521">
                <path id="Trazado_85399" data-name="Trazado 85399" d="M124.066,334.565c-9.175-4.948-21.31-7.674-34.16-7.674s-24.952,2.726-34.086,7.684c-9.042,4.9-14.225,11.48-14.7,18.6.476,7.191,5.732,13.839,14.93,18.8,9.175,4.948,21.31,7.684,34.158,7.684s24.954-2.735,34.088-7.684c9.042-4.91,14.225-11.49,14.7-18.612C138.52,346.171,133.264,339.523,124.066,334.565Z" transform="translate(-41.119 -326.891)" fill="#ff2c9c"/>
              </g>
            </g>
          </g>
          <path id="Trazado_85400" data-name="Trazado 85400" d="M115.22,365.605c-7.885,4.184-18.253,6.282-28.63,6.282s-20.787-2.1-28.725-6.292c-7.284-3.846-11.307-8.853-11.317-14.08,0-.175.01-.338.01-.513.253-5,4.181-9.76,11.127-13.451,7.875-4.2,18.243-6.292,28.62-6.292s20.787,2.106,28.725,6.292c7.063,3.729,11.054,8.543,11.307,13.6v.01c0,.165.01.32.01.474C126.359,356.821,122.4,361.777,115.22,365.605Z" transform="translate(-37.469 -321.804)" fill="#b5b9dc"/>
          <path id="Trazado_85401" data-name="Trazado 85401" d="M115.22,364.159c-7.885,4.186-18.253,6.282-28.63,6.282s-20.787-2.1-28.725-6.29c-7.284-3.846-11.307-8.852-11.317-14.082,0-.173.01-.336.01-.511.253-5,4.181-9.762,11.127-13.453,7.875-4.194,18.243-6.29,28.62-6.29s20.787,2.106,28.725,6.29c7.063,3.731,11.054,8.543,11.307,13.6v.01c0,.165.01.318.01.473C126.359,355.375,122.4,360.333,115.22,364.159Z" transform="translate(-37.469 -322.764)" fill="#e8ecf2"/>
        </g>
      </g>
      <g id="Grupo_151575" data-name="Grupo 151575" transform="translate(1248.018 4459)">
        <g id="Grupo_34775" data-name="Grupo 34775" transform="translate(1.03)" style="isolation: isolate">
          <g id="Grupo_34764" data-name="Grupo 34764" transform="translate(73.923)">
            <g id="Grupo_34763" data-name="Grupo 34763" style="isolation: isolate">
              <path id="Trazado_85695" data-name="Trazado 85695" d="M199.986,349.534l-4.621-2.615a3.527,3.527,0,0,1,1.019-.422L201,349.114a3.547,3.547,0,0,0-1.019.419Z" transform="translate(-195.365 -346.44)" fill="#00223d"/>
              <path id="Trazado_85696" data-name="Trazado 85696" d="M200.416,349.147l-4.621-2.617a1.9,1.9,0,0,1,1.362.159l4.621,2.615a1.886,1.886,0,0,0-1.362-.156Z" transform="translate(-194.776 -346.473)" fill="#00223d"/>
            </g>
          </g>
          <g id="Grupo_34766" data-name="Grupo 34766" transform="translate(2.112 86.448)">
            <g id="Grupo_34765" data-name="Grupo 34765" style="isolation: isolate">
              <path id="Trazado_85697" data-name="Trazado 85697" d="M170.63,387.627l-4.621-2.615a2.248,2.248,0,0,1-.959-2.044l4.621,2.617a2.241,2.241,0,0,0,.959,2.042Z" transform="translate(-165.049 -382.968)" fill="#ffb200"/>
            </g>
          </g>
          <g id="Grupo_34767" data-name="Grupo 34767" transform="translate(32.301 0.478)">
            <path id="Trazado_85698" data-name="Trazado 85698" d="M182.415,373.931l-4.621-2.617,41.622-24.64,4.622,2.616Z" transform="translate(-177.794 -346.675)" fill="#00223d"/>
          </g>
          <g id="Grupo_34769" data-name="Grupo 34769" transform="translate(26.472 20.285)">
            <g id="Grupo_34768" data-name="Grupo 34768" style="isolation: isolate">
              <path id="Trazado_85699" data-name="Trazado 85699" d="M179.954,358.181l-4.621-2.615a4.178,4.178,0,0,1,1.227-.493l4.621,2.618a4.163,4.163,0,0,0-1.227.49Z" transform="translate(-175.333 -354.987)" fill="#00223d"/>
              <path id="Trazado_85700" data-name="Trazado 85700" d="M180.472,357.74l-4.621-2.617a3.011,3.011,0,0,1,2.144.258L182.618,358a3,3,0,0,0-2.146-.258Z" transform="translate(-174.624 -355.037)" fill="#00223d"/>
            </g>
          </g>
          <g id="Grupo_34770" data-name="Grupo 34770" transform="translate(0 40.164)">
            <path id="Trazado_85701" data-name="Trazado 85701" d="M170.891,412.329l-4.622-2.618-2.112-46.282,4.62,2.618Z" transform="translate(-164.158 -363.429)" fill="#00223d"/>
          </g>
          <g id="Grupo_34771" data-name="Grupo 34771" transform="translate(3.27 20.865)">
            <path id="Trazado_85702" data-name="Trazado 85702" d="M170.158,371.38l-4.62-2.614,23.2-13.484,4.622,2.614Z" transform="translate(-165.538 -355.281)" fill="#00223d"/>
          </g>
          <g id="Grupo_34773" data-name="Grupo 34773" transform="translate(0 34.349)">
            <g id="Grupo_34772" data-name="Grupo 34772" style="isolation: isolate">
              <path id="Trazado_85703" data-name="Trazado 85703" d="M168.777,368.577l-4.619-2.617a7.247,7.247,0,0,1,1.663-4.38l4.619,2.615a7.313,7.313,0,0,0-1.663,4.382Z" transform="translate(-164.158 -360.145)" fill="#00223d"/>
              <path id="Trazado_85704" data-name="Trazado 85704" d="M169.479,365.025l-4.619-2.615a6.046,6.046,0,0,1,1.606-1.435l4.619,2.613a6.169,6.169,0,0,0-1.606,1.438Z" transform="translate(-163.197 -360.974)" fill="#00223d"/>
            </g>
          </g>
          <g id="Grupo_34774" data-name="Grupo 34774" transform="translate(4.62 2.616)">
            <path id="Trazado_85705" data-name="Trazado 85705" d="M169.377,381.923l23.2-13.483c1.755-1.04,3.719-.637,4.366.884l1.464,3.371,41.621-24.64c1.838-1.09,3.352-.251,3.38,1.874l-.888,40a7.047,7.047,0,0,1-3.129,5.564l-67.941,40.33c-1.753,1.04-3.2.237-3.233-1.793l-2.113-46.283A7.355,7.355,0,0,1,169.377,381.923Z" transform="translate(-166.108 -347.577)" fill="#b29521"/>
          </g>
        </g>
        <g id="Grupo_34779" data-name="Grupo 34779" transform="translate(3.72 1.561)" style="isolation: isolate">
          <g id="Grupo_34776" data-name="Grupo 34776" transform="translate(0 47.12)">
            <path id="Trazado_85706" data-name="Trazado 85706" d="M169.618,386.92l-2.1.025-2.222-19.921,2.311,1.309Z" transform="translate(-165.293 -367.025)" fill="#a5a9d3"/>
          </g>
          <g id="Grupo_34777" data-name="Grupo 34777">
            <path id="Trazado_85707" data-name="Trazado 85707" d="M167.6,395.561l-2.311-1.309,71.3-47.12,2.31,1.309Z" transform="translate(-165.293 -347.132)" fill="#cdd1f6"/>
          </g>
          <g id="Grupo_34778" data-name="Grupo 34778" transform="translate(2.311 1.309)">
            <path id="Trazado_85708" data-name="Trazado 85708" d="M237.571,347.685l1.992,18.6-71.281,47.1L166.269,394.8Z" transform="translate(-166.269 -347.685)" fill="#f8f9fc"/>
          </g>
        </g>
        <path id="Trazado_85709" data-name="Trazado 85709" d="M200.446,387.453a10.755,10.755,0,0,1,1.909-3.39,10.436,10.436,0,0,1,2.632-2.409l40.688-24.448a4.269,4.269,0,0,1,1.227-.509,2.074,2.074,0,0,1,1.488.154l-4.621-2.615a2.075,2.075,0,0,0-1.488-.152,4.207,4.207,0,0,0-1.225.5l-40.688,24.448a10.414,10.414,0,0,0-2.632,2.411,10.741,10.741,0,0,0-1.912,3.39l-1.435,4.657-27.163,16.19a7.342,7.342,0,0,0-1.935,1.724,6.482,6.482,0,0,0-1.568,3.847l2.049,34.3a1.812,1.812,0,0,0,.824,1.653l4.621,2.615a1.816,1.816,0,0,1-.827-1.656l-2.049-34.3a6.5,6.5,0,0,1,1.57-3.852,7.371,7.371,0,0,1,1.935-1.72l27.163-16.193Z" transform="translate(-163.723 -336.148)" fill="#00223d"/>
        <path id="Trazado_85710" data-name="Trazado 85710" d="M243.006,355.7c1.942-1.151,3.555-.516,3.582,1.4l-.926,43.315a7.035,7.035,0,0,1-3.342,5.327l-71.16,42.242c-1.859,1.1-3.411.5-3.437-1.315l-2.049-34.3a7.352,7.352,0,0,1,3.506-5.571L196.341,390.6l1.436-4.657a11.8,11.8,0,0,1,4.541-5.8Z" transform="translate(-161.054 -334.637)" fill="#e2c140"/>
      </g>
    </g>
  </g>
</svg>
