<svg xmlns="http://www.w3.org/2000/svg" xmlns:xlink="http://www.w3.org/1999/xlink" width="499" height="197" viewBox="0 0 499 197">
  <defs>
    <linearGradient id="linear-gradient" y1="0.5" x2="1" y2="0.5" gradientUnits="objectBoundingBox">
      <stop offset="0" stop-color="#fff"/>
      <stop offset="1" stop-color="#c7e0ea"/>
    </linearGradient>
    <linearGradient id="linear-gradient-3" y1="0.5" x2="1" y2="0.5" gradientUnits="objectBoundingBox">
      <stop offset="0" stop-color="#fff"/>
      <stop offset="1" stop-color="#d2e6ee"/>
    </linearGradient>
  </defs>
  <g id="Grupo_152019" data-name="Grupo 152019" transform="translate(6867 3034)">
    <g id="Grupo_151579" data-name="Grupo 151579" transform="translate(-7736.006 -11756)">
      <g id="Grupo_41977" data-name="Grupo 41977" transform="translate(869.512 8764.104)">
        <g id="Grupo_55332" data-name="Grupo 55332" transform="translate(5.657)">
          <path id="Trazado_119461" data-name="Trazado 119461" d="M275.1,529.9l15.051,8.7V488.935l-15.051-8.7Z" transform="translate(-275.097 -459.496)" fill="#001a2e"/>
          <path id="Trazado_119462" data-name="Trazado 119462" d="M277.155,484.877l11.4,6.63v2.859l-11.4-6.63Zm0,7.092,11.4,6.629V495.74l-11.4-6.63Zm0,4.233,11.4,6.63v-2.859l-11.4-6.63Zm0,4.233,11.4,6.63v-2.859l-11.4-6.63Zm0,29.05,11.4,6.63v-2.859l-11.4-6.63Z" transform="translate(-275.654 -460.754)" fill="url(#linear-gradient)"/>
          <path id="Trazado_119463" data-name="Trazado 119463" d="M331.485,463.733l-35.749,20.639v49.768L331.485,513.5Z" transform="translate(-280.685 -455.03)" fill="#104769"/>
          <path id="Trazado_119464" data-name="Trazado 119464" d="M275.1,472.534,310.846,451.8l15.051,8.7-35.749,20.639Z" transform="translate(-275.097 -451.799)" fill="#e2f0f4"/>
        </g>
        <g id="Grupo_55333" data-name="Grupo 55333" transform="translate(24.805 30.416)">
          <path id="Trazado_119465" data-name="Trazado 119465" d="M301.353,541.985l40.256,23.637v-44.03l-40.256-23.637Z" transform="translate(-301.353 -494.711)" fill="#e2f0f4"/>
          <path id="Trazado_119466" data-name="Trazado 119466" d="M303.176,502.072l37.021,21.8v37.649l-37.021-21.8Z" transform="translate(-301.846 -495.825)" fill="#001a2e"/>
          <path id="Trazado_119467" data-name="Trazado 119467" d="M361.318,525.919l-4.766,3.159v44.115l4.766-3.159Z" transform="translate(-316.297 -502.281)" fill="#001a2e"/>
          <path id="Trazado_119468" data-name="Trazado 119468" d="M301.353,496.751l4.766-3.244,40.256,23.637-4.766,3.159Z" transform="translate(-301.353 -493.506)" fill="#104769"/>
        </g>
        <g id="Grupo_55335" data-name="Grupo 55335" transform="translate(0 80.676)">
          <path id="Trazado_119469" data-name="Trazado 119469" d="M267.34,576.1,286.1,562.425l40.256,23.637L307.6,599.654Z" transform="translate(-267.34 -562.425)" fill="#104769"/>
          <g id="Grupo_55334" data-name="Grupo 55334" transform="translate(3.667 3.019)">
            <path id="Trazado_119470" data-name="Trazado 119470" d="M294.872,570.271l20.7,12.167,1.707-1.2-20.712-12.149Z" transform="translate(-278.461 -567.246)" fill="#e2f0f4"/>
            <path id="Trazado_119471" data-name="Trazado 119471" d="M313.081,584.363l1.051-.741L293.4,571.477l-1.023.716Z" transform="translate(-277.785 -567.894)" fill="#e2f0f4"/>
            <path id="Trazado_119472" data-name="Trazado 119472" d="M313.776,602.782l-2.079-1.218-1.506,1.055,2.087,1.219Z" transform="translate(-282.608 -576.039)" fill="#e2f0f4"/>
            <path id="Trazado_119473" data-name="Trazado 119473" d="M329.991,588.7l-1.716,1.2,2.036,1.2,1.712-1.207Z" transform="translate(-287.504 -572.556)" fill="#e2f0f4"/>
            <path id="Trazado_119474" data-name="Trazado 119474" d="M324.372,587.606l2.033,1.2,1.71-1.2-2.029-1.19Z" transform="translate(-286.447 -571.936)" fill="#e2f0f4"/>
            <path id="Trazado_119475" data-name="Trazado 119475" d="M326.839,591.075l-1.06.742,2.042,1.2,1.059-.747Z" transform="translate(-286.828 -573.2)" fill="#e2f0f4"/>
            <path id="Trazado_119476" data-name="Trazado 119476" d="M297.5,595.194,299,594.133l-20.769-12.168-1.537,1.076Z" transform="translate(-273.54 -570.733)" fill="#e2f0f4"/>
            <path id="Trazado_119477" data-name="Trazado 119477" d="M300.633,593.122l1.05-.74L280.92,580.217l-1.022.716Z" transform="translate(-274.406 -570.26)" fill="#e2f0f4"/>
            <path id="Trazado_119478" data-name="Trazado 119478" d="M308.1,587.867l1.051-.74-20.744-12.154-1.023.716Z" transform="translate(-276.434 -568.84)" fill="#e2f0f4"/>
            <path id="Trazado_119479" data-name="Trazado 119479" d="M309.864,600.491l-2.077-1.217-1.509,1.057,2.084,1.218Z" transform="translate(-281.548 -575.419)" fill="#e2f0f4"/>
            <path id="Trazado_119480" data-name="Trazado 119480" d="M305.612,589.618l1.051-.74-20.751-12.157-1.023.716Z" transform="translate(-275.758 -569.313)" fill="#e2f0f4"/>
            <path id="Trazado_119481" data-name="Trazado 119481" d="M303.122,591.37l1.051-.74-20.757-12.161-1.022.716Z" transform="translate(-275.082 -569.787)" fill="#e2f0f4"/>
            <path id="Trazado_119482" data-name="Trazado 119482" d="M310.591,586.115l1.051-.741L290.9,573.225l-1.023.716Z" transform="translate(-277.109 -568.367)" fill="#e2f0f4"/>
            <path id="Trazado_119483" data-name="Trazado 119483" d="M318.936,594.227l1.055-.744-2.051-1.2-1.055.739Z" transform="translate(-284.42 -573.526)" fill="#e2f0f4"/>
            <path id="Trazado_119484" data-name="Trazado 119484" d="M316.447,595.979l1.055-.744-2.058-1.206-1.055.739Z" transform="translate(-283.744 -574)" fill="#e2f0f4"/>
            <path id="Trazado_119485" data-name="Trazado 119485" d="M324.342,592.823l-1.06.742,2.048,1.2,1.059-.747Z" transform="translate(-286.152 -573.673)" fill="#e2f0f4"/>
            <path id="Trazado_119486" data-name="Trazado 119486" d="M321.426,592.475l1.055-.744-2.045-1.2-1.056.739Z" transform="translate(-285.096 -573.053)" fill="#e2f0f4"/>
            <path id="Trazado_119487" data-name="Trazado 119487" d="M322.932,588.786l-1.056.739,2.04,1.2,1.055-.744Z" transform="translate(-285.771 -572.58)" fill="#e2f0f4"/>
            <path id="Trazado_119488" data-name="Trazado 119488" d="M313.957,597.731l1.055-.743-2.064-1.209-1.055.739Z" transform="translate(-283.069 -574.473)" fill="#e2f0f4"/>
            <path id="Trazado_119489" data-name="Trazado 119489" d="M321.846,594.572l-1.06.742,2.054,1.208,1.059-.747Z" transform="translate(-285.477 -574.146)" fill="#e2f0f4"/>
            <path id="Trazado_119490" data-name="Trazado 119490" d="M311.467,599.482l1.055-.744-2.07-1.213-1.055.739Z" transform="translate(-282.393 -574.946)" fill="#e2f0f4"/>
            <path id="Trazado_119491" data-name="Trazado 119491" d="M319.351,596.32l-1.06.742,2.061,1.211,1.059-.747Z" transform="translate(-284.801 -574.62)" fill="#e2f0f4"/>
            <path id="Trazado_119492" data-name="Trazado 119492" d="M316.855,598.068l-1.06.742,2.067,1.215,1.059-.747Z" transform="translate(-284.125 -575.093)" fill="#e2f0f4"/>
            <path id="Trazado_119493" data-name="Trazado 119493" d="M316.431,601.03l-2.073-1.214-1.059.742,2.073,1.219Z" transform="translate(-283.449 -575.566)" fill="#e2f0f4"/>
            <path id="Trazado_119494" data-name="Trazado 119494" d="M281.463,577.324l-2.361-1.383-1.019.712,2.362,1.388Z" transform="translate(-273.915 -569.102)" fill="#e2f0f4"/>
            <path id="Trazado_119495" data-name="Trazado 119495" d="M318.018,607.193l2.728,1.594,1.5-1.042-2.732-1.6Z" transform="translate(-284.727 -577.279)" fill="#e2f0f4"/>
            <path id="Trazado_119496" data-name="Trazado 119496" d="M321.1,605.144l2.732,1.606,1.078-.748-2.742-1.607Z" transform="translate(-285.562 -576.806)" fill="#e2f0f4"/>
            <path id="Trazado_119497" data-name="Trazado 119497" d="M276.287,580.827l-2.377-1.392-1.543,1.078,2.387,1.394Z" transform="translate(-272.368 -570.048)" fill="#e2f0f4"/>
            <path id="Trazado_119498" data-name="Trazado 119498" d="M278.973,579.076l-2.369-1.388-1.018.712,2.37,1.393Z" transform="translate(-273.239 -569.575)" fill="#e2f0f4"/>
            <path id="Trazado_119499" data-name="Trazado 119499" d="M323.6,603.4l2.742,1.612,1.078-.748-2.752-1.612Z" transform="translate(-286.238 -576.333)" fill="#e2f0f4"/>
            <path id="Trazado_119500" data-name="Trazado 119500" d="M328.592,599.9l2.762,1.624,1.079-.748-2.772-1.624Z" transform="translate(-287.59 -575.386)" fill="#e2f0f4"/>
            <path id="Trazado_119501" data-name="Trazado 119501" d="M326.1,601.648l2.752,1.618,1.078-.748-2.762-1.618Z" transform="translate(-286.914 -575.859)" fill="#e2f0f4"/>
            <path id="Trazado_119502" data-name="Trazado 119502" d="M333.583,596.4l2.782,1.635,1.079-.748-2.792-1.636Z" transform="translate(-288.941 -574.44)" fill="#e2f0f4"/>
            <path id="Trazado_119503" data-name="Trazado 119503" d="M336.079,594.486l2.792,1.641,1.734-1.2-2.8-1.645Z" transform="translate(-289.617 -573.797)" fill="#e2f0f4"/>
            <path id="Trazado_119504" data-name="Trazado 119504" d="M331.087,598.152l2.772,1.629,1.079-.748-2.782-1.63Z" transform="translate(-288.265 -574.913)" fill="#e2f0f4"/>
            <path id="Trazado_119505" data-name="Trazado 119505" d="M283.953,575.573l-2.353-1.378-1.019.712,2.354,1.383Z" transform="translate(-274.592 -568.63)" fill="#e2f0f4"/>
            <path id="Trazado_119506" data-name="Trazado 119506" d="M328.249,595.113l-1.064.745,2.051,1.205,1.064-.75Z" transform="translate(-287.209 -574.293)" fill="#e2f0f4"/>
            <path id="Trazado_119507" data-name="Trazado 119507" d="M325.753,596.861l-1.064.745,2.057,1.209,1.064-.75Z" transform="translate(-286.533 -574.766)" fill="#e2f0f4"/>
            <path id="Trazado_119508" data-name="Trazado 119508" d="M323.257,598.609l-1.064.745,2.063,1.213,1.064-.75Z" transform="translate(-285.857 -575.239)" fill="#e2f0f4"/>
            <path id="Trazado_119509" data-name="Trazado 119509" d="M286.444,573.822l-2.345-1.374-1.019.712,2.346,1.379Z" transform="translate(-275.268 -568.157)" fill="#e2f0f4"/>
            <path id="Trazado_119510" data-name="Trazado 119510" d="M318.265,602.106l-1.064.745,2.076,1.22,1.063-.749Z" transform="translate(-284.506 -576.186)" fill="#e2f0f4"/>
            <path id="Trazado_119511" data-name="Trazado 119511" d="M317.688,605.073l-2.081-1.219-1.5,1.052,2.089,1.221Z" transform="translate(-283.667 -576.659)" fill="#e2f0f4"/>
            <path id="Trazado_119512" data-name="Trazado 119512" d="M320.761,600.357l-1.064.745,2.069,1.216,1.064-.75Z" transform="translate(-285.182 -575.713)" fill="#e2f0f4"/>
            <path id="Trazado_119513" data-name="Trazado 119513" d="M288.934,572.07,286.6,570.7l-1.019.712,2.337,1.374Z" transform="translate(-275.944 -567.684)" fill="#e2f0f4"/>
            <path id="Trazado_119514" data-name="Trazado 119514" d="M291.424,570.319l-2.328-1.364-1.019.712,2.329,1.369Z" transform="translate(-276.621 -567.211)" fill="#e2f0f4"/>
            <path id="Trazado_119515" data-name="Trazado 119515" d="M330.745,593.365l-1.064.745,2.044,1.2,1.064-.75Z" transform="translate(-287.884 -573.82)" fill="#e2f0f4"/>
            <path id="Trazado_119516" data-name="Trazado 119516" d="M294.583,567.922l-2.316-1.359-1.691,1.182,2.321,1.365Z" transform="translate(-277.297 -566.564)" fill="#e2f0f4"/>
            <path id="Trazado_119517" data-name="Trazado 119517" d="M333.9,590.988l-1.719,1.2,2.038,1.2,1.715-1.209Z" transform="translate(-288.56 -573.176)" fill="#e2f0f4"/>
          </g>
        </g>
      </g>
      <g id="Grupo_55340" data-name="Grupo 55340" transform="translate(1297.849 8764.104)">
        <g id="Grupo_55332-2" data-name="Grupo 55332" transform="translate(5.657)">
          <path id="Trazado_119461-2" data-name="Trazado 119461" d="M275.1,529.9l15.051,8.7V488.935l-15.051-8.7Z" transform="translate(-275.097 -459.496)" fill="#001a2e"/>
          <path id="Trazado_119462-2" data-name="Trazado 119462" d="M277.155,484.877l11.4,6.63v2.859l-11.4-6.63Zm0,7.092,11.4,6.629V495.74l-11.4-6.63Zm0,4.233,11.4,6.63v-2.859l-11.4-6.63Zm0,4.233,11.4,6.63v-2.859l-11.4-6.63Zm0,29.05,11.4,6.63v-2.859l-11.4-6.63Z" transform="translate(-275.654 -460.754)" fill="url(#linear-gradient)"/>
          <path id="Trazado_119463-2" data-name="Trazado 119463" d="M331.485,463.733l-35.749,20.639v49.768L331.485,513.5Z" transform="translate(-280.685 -455.03)" fill="#104769"/>
          <path id="Trazado_119464-2" data-name="Trazado 119464" d="M275.1,472.534,310.846,451.8l15.051,8.7-35.749,20.639Z" transform="translate(-275.097 -451.799)" fill="#e2f0f4"/>
        </g>
        <g id="Grupo_55333-2" data-name="Grupo 55333" transform="translate(24.805 30.416)">
          <path id="Trazado_119465-2" data-name="Trazado 119465" d="M301.353,541.985l40.256,23.637v-44.03l-40.256-23.637Z" transform="translate(-301.353 -494.711)" fill="#e2f0f4"/>
          <path id="Trazado_119466-2" data-name="Trazado 119466" d="M303.176,502.072l37.021,21.8v37.649l-37.021-21.8Z" transform="translate(-301.846 -495.825)" fill="#001a2e"/>
          <path id="Trazado_119467-2" data-name="Trazado 119467" d="M361.318,525.919l-4.766,3.159v44.115l4.766-3.159Z" transform="translate(-316.297 -502.281)" fill="#001a2e"/>
          <path id="Trazado_119468-2" data-name="Trazado 119468" d="M301.353,496.751l4.766-3.244,40.256,23.637-4.766,3.159Z" transform="translate(-301.353 -493.506)" fill="#104769"/>
        </g>
        <g id="Grupo_55335-2" data-name="Grupo 55335" transform="translate(0 80.676)">
          <path id="Trazado_119469-2" data-name="Trazado 119469" d="M267.34,576.1,286.1,562.425l40.256,23.637L307.6,599.654Z" transform="translate(-267.34 -562.425)" fill="#104769"/>
          <g id="Grupo_55334-2" data-name="Grupo 55334" transform="translate(3.667 3.019)">
            <path id="Trazado_119470-2" data-name="Trazado 119470" d="M294.872,570.271l20.7,12.167,1.707-1.2-20.712-12.149Z" transform="translate(-278.461 -567.246)" fill="#e2f0f4"/>
            <path id="Trazado_119471-2" data-name="Trazado 119471" d="M313.081,584.363l1.051-.741L293.4,571.477l-1.023.716Z" transform="translate(-277.785 -567.894)" fill="#e2f0f4"/>
            <path id="Trazado_119472-2" data-name="Trazado 119472" d="M313.776,602.782l-2.079-1.218-1.506,1.055,2.087,1.219Z" transform="translate(-282.608 -576.039)" fill="#e2f0f4"/>
            <path id="Trazado_119473-2" data-name="Trazado 119473" d="M329.991,588.7l-1.716,1.2,2.036,1.2,1.712-1.207Z" transform="translate(-287.504 -572.556)" fill="#e2f0f4"/>
            <path id="Trazado_119474-2" data-name="Trazado 119474" d="M324.372,587.606l2.033,1.2,1.71-1.2-2.029-1.19Z" transform="translate(-286.447 -571.936)" fill="#e2f0f4"/>
            <path id="Trazado_119475-2" data-name="Trazado 119475" d="M326.839,591.075l-1.06.742,2.042,1.2,1.059-.747Z" transform="translate(-286.828 -573.2)" fill="#e2f0f4"/>
            <path id="Trazado_119476-2" data-name="Trazado 119476" d="M297.5,595.194,299,594.133l-20.769-12.168-1.537,1.076Z" transform="translate(-273.54 -570.733)" fill="#e2f0f4"/>
            <path id="Trazado_119477-2" data-name="Trazado 119477" d="M300.633,593.122l1.05-.74L280.92,580.217l-1.022.716Z" transform="translate(-274.406 -570.26)" fill="#e2f0f4"/>
            <path id="Trazado_119478-2" data-name="Trazado 119478" d="M308.1,587.867l1.051-.74-20.744-12.154-1.023.716Z" transform="translate(-276.434 -568.84)" fill="#e2f0f4"/>
            <path id="Trazado_119479-2" data-name="Trazado 119479" d="M309.864,600.491l-2.077-1.217-1.509,1.057,2.084,1.218Z" transform="translate(-281.548 -575.419)" fill="#e2f0f4"/>
            <path id="Trazado_119480-2" data-name="Trazado 119480" d="M305.612,589.618l1.051-.74-20.751-12.157-1.023.716Z" transform="translate(-275.758 -569.313)" fill="#e2f0f4"/>
            <path id="Trazado_119481-2" data-name="Trazado 119481" d="M303.122,591.37l1.051-.74-20.757-12.161-1.022.716Z" transform="translate(-275.082 -569.787)" fill="#e2f0f4"/>
            <path id="Trazado_119482-2" data-name="Trazado 119482" d="M310.591,586.115l1.051-.741L290.9,573.225l-1.023.716Z" transform="translate(-277.109 -568.367)" fill="#e2f0f4"/>
            <path id="Trazado_119483-2" data-name="Trazado 119483" d="M318.936,594.227l1.055-.744-2.051-1.2-1.055.739Z" transform="translate(-284.42 -573.526)" fill="#e2f0f4"/>
            <path id="Trazado_119484-2" data-name="Trazado 119484" d="M316.447,595.979l1.055-.744-2.058-1.206-1.055.739Z" transform="translate(-283.744 -574)" fill="#e2f0f4"/>
            <path id="Trazado_119485-2" data-name="Trazado 119485" d="M324.342,592.823l-1.06.742,2.048,1.2,1.059-.747Z" transform="translate(-286.152 -573.673)" fill="#e2f0f4"/>
            <path id="Trazado_119486-2" data-name="Trazado 119486" d="M321.426,592.475l1.055-.744-2.045-1.2-1.056.739Z" transform="translate(-285.096 -573.053)" fill="#e2f0f4"/>
            <path id="Trazado_119487-2" data-name="Trazado 119487" d="M322.932,588.786l-1.056.739,2.04,1.2,1.055-.744Z" transform="translate(-285.771 -572.58)" fill="#e2f0f4"/>
            <path id="Trazado_119488-2" data-name="Trazado 119488" d="M313.957,597.731l1.055-.743-2.064-1.209-1.055.739Z" transform="translate(-283.069 -574.473)" fill="#e2f0f4"/>
            <path id="Trazado_119489-2" data-name="Trazado 119489" d="M321.846,594.572l-1.06.742,2.054,1.208,1.059-.747Z" transform="translate(-285.477 -574.146)" fill="#e2f0f4"/>
            <path id="Trazado_119490-2" data-name="Trazado 119490" d="M311.467,599.482l1.055-.744-2.07-1.213-1.055.739Z" transform="translate(-282.393 -574.946)" fill="#e2f0f4"/>
            <path id="Trazado_119491-2" data-name="Trazado 119491" d="M319.351,596.32l-1.06.742,2.061,1.211,1.059-.747Z" transform="translate(-284.801 -574.62)" fill="#e2f0f4"/>
            <path id="Trazado_119492-2" data-name="Trazado 119492" d="M316.855,598.068l-1.06.742,2.067,1.215,1.059-.747Z" transform="translate(-284.125 -575.093)" fill="#e2f0f4"/>
            <path id="Trazado_119493-2" data-name="Trazado 119493" d="M316.431,601.03l-2.073-1.214-1.059.742,2.073,1.219Z" transform="translate(-283.449 -575.566)" fill="#e2f0f4"/>
            <path id="Trazado_119494-2" data-name="Trazado 119494" d="M281.463,577.324l-2.361-1.383-1.019.712,2.362,1.388Z" transform="translate(-273.915 -569.102)" fill="#e2f0f4"/>
            <path id="Trazado_119495-2" data-name="Trazado 119495" d="M318.018,607.193l2.728,1.594,1.5-1.042-2.732-1.6Z" transform="translate(-284.727 -577.279)" fill="#e2f0f4"/>
            <path id="Trazado_119496-2" data-name="Trazado 119496" d="M321.1,605.144l2.732,1.606,1.078-.748-2.742-1.607Z" transform="translate(-285.562 -576.806)" fill="#e2f0f4"/>
            <path id="Trazado_119497-2" data-name="Trazado 119497" d="M276.287,580.827l-2.377-1.392-1.543,1.078,2.387,1.394Z" transform="translate(-272.368 -570.048)" fill="#e2f0f4"/>
            <path id="Trazado_119498-2" data-name="Trazado 119498" d="M278.973,579.076l-2.369-1.388-1.018.712,2.37,1.393Z" transform="translate(-273.239 -569.575)" fill="#e2f0f4"/>
            <path id="Trazado_119499-2" data-name="Trazado 119499" d="M323.6,603.4l2.742,1.612,1.078-.748-2.752-1.612Z" transform="translate(-286.238 -576.333)" fill="#e2f0f4"/>
            <path id="Trazado_119500-2" data-name="Trazado 119500" d="M328.592,599.9l2.762,1.624,1.079-.748-2.772-1.624Z" transform="translate(-287.59 -575.386)" fill="#e2f0f4"/>
            <path id="Trazado_119501-2" data-name="Trazado 119501" d="M326.1,601.648l2.752,1.618,1.078-.748-2.762-1.618Z" transform="translate(-286.914 -575.859)" fill="#e2f0f4"/>
            <path id="Trazado_119502-2" data-name="Trazado 119502" d="M333.583,596.4l2.782,1.635,1.079-.748-2.792-1.636Z" transform="translate(-288.941 -574.44)" fill="#e2f0f4"/>
            <path id="Trazado_119503-2" data-name="Trazado 119503" d="M336.079,594.486l2.792,1.641,1.734-1.2-2.8-1.645Z" transform="translate(-289.617 -573.797)" fill="#e2f0f4"/>
            <path id="Trazado_119504-2" data-name="Trazado 119504" d="M331.087,598.152l2.772,1.629,1.079-.748-2.782-1.63Z" transform="translate(-288.265 -574.913)" fill="#e2f0f4"/>
            <path id="Trazado_119505-2" data-name="Trazado 119505" d="M283.953,575.573l-2.353-1.378-1.019.712,2.354,1.383Z" transform="translate(-274.592 -568.63)" fill="#e2f0f4"/>
            <path id="Trazado_119506-2" data-name="Trazado 119506" d="M328.249,595.113l-1.064.745,2.051,1.205,1.064-.75Z" transform="translate(-287.209 -574.293)" fill="#e2f0f4"/>
            <path id="Trazado_119507-2" data-name="Trazado 119507" d="M325.753,596.861l-1.064.745,2.057,1.209,1.064-.75Z" transform="translate(-286.533 -574.766)" fill="#e2f0f4"/>
            <path id="Trazado_119508-2" data-name="Trazado 119508" d="M323.257,598.609l-1.064.745,2.063,1.213,1.064-.75Z" transform="translate(-285.857 -575.239)" fill="#e2f0f4"/>
            <path id="Trazado_119509-2" data-name="Trazado 119509" d="M286.444,573.822l-2.345-1.374-1.019.712,2.346,1.379Z" transform="translate(-275.268 -568.157)" fill="#e2f0f4"/>
            <path id="Trazado_119510-2" data-name="Trazado 119510" d="M318.265,602.106l-1.064.745,2.076,1.22,1.063-.749Z" transform="translate(-284.506 -576.186)" fill="#e2f0f4"/>
            <path id="Trazado_119511-2" data-name="Trazado 119511" d="M317.688,605.073l-2.081-1.219-1.5,1.052,2.089,1.221Z" transform="translate(-283.667 -576.659)" fill="#e2f0f4"/>
            <path id="Trazado_119512-2" data-name="Trazado 119512" d="M320.761,600.357l-1.064.745,2.069,1.216,1.064-.75Z" transform="translate(-285.182 -575.713)" fill="#e2f0f4"/>
            <path id="Trazado_119513-2" data-name="Trazado 119513" d="M288.934,572.07,286.6,570.7l-1.019.712,2.337,1.374Z" transform="translate(-275.944 -567.684)" fill="#e2f0f4"/>
            <path id="Trazado_119514-2" data-name="Trazado 119514" d="M291.424,570.319l-2.328-1.364-1.019.712,2.329,1.369Z" transform="translate(-276.621 -567.211)" fill="#e2f0f4"/>
            <path id="Trazado_119515-2" data-name="Trazado 119515" d="M330.745,593.365l-1.064.745,2.044,1.2,1.064-.75Z" transform="translate(-287.884 -573.82)" fill="#e2f0f4"/>
            <path id="Trazado_119516-2" data-name="Trazado 119516" d="M294.583,567.922l-2.316-1.359-1.691,1.182,2.321,1.365Z" transform="translate(-277.297 -566.564)" fill="#e2f0f4"/>
            <path id="Trazado_119517-2" data-name="Trazado 119517" d="M333.9,590.988l-1.719,1.2,2.038,1.2,1.715-1.209Z" transform="translate(-288.56 -573.176)" fill="#e2f0f4"/>
          </g>
        </g>
      </g>
      <g id="Grupo_55336" data-name="Grupo 55336" transform="translate(1016.467 8769.278)">
        <path id="Trazado_82776" data-name="Trazado 82776" d="M-215.593,479.74c0,.04-.015.079-.018.119a3.072,3.072,0,0,1-.073.481c-.008.033-.006.066-.015.1s-.031.074-.043.111a3.423,3.423,0,0,1-.155.4c-.02.044-.029.089-.051.133-.011.022-.029.044-.041.066a4.467,4.467,0,0,1-.265.433c-.026.038-.043.078-.071.116-.005.007-.013.014-.018.022a5.818,5.818,0,0,1-.462.552c-.006.006-.009.012-.015.018-.035.038-.081.074-.118.111-.137.138-.279.275-.435.41-.021.018-.037.037-.058.054-.053.045-.118.088-.172.133-.144.117-.293.233-.451.348-.04.029-.073.059-.115.088s-.112.071-.165.107q-.256.175-.534.346c-.061.038-.114.078-.177.115-.038.022-.082.044-.12.066q-.363.213-.76.421c-.053.027-.1.056-.151.083l-.035.017c-.346.176-.713.35-1.094.52-.032.014-.059.03-.091.044-.063.028-.136.054-.2.082q-.525.227-1.089.446c-.07.027-.131.055-.2.082l-.114.04q-.768.288-1.605.561c-.046.015-.087.032-.134.047-.13.042-.267.082-.4.123-.2.062-.394.123-.6.183s-.421.123-.635.183-.418.119-.632.177l-.226.063c-.1.026-.2.05-.3.076q-.561.146-1.142.286l-.5.12q-.748.174-1.528.337l-.126.028-.025,0q-.767.158-1.564.306l-.447.079c-.388.07-.778.139-1.176.205-.205.034-.416.066-.624.1-.349.055-.7.11-1.053.163-.232.034-.468.066-.7.1-.34.047-.681.095-1.027.139-.247.032-.5.063-.744.093-.344.042-.689.083-1.038.122l-.78.085q-.52.055-1.048.1c-.266.026-.532.051-.8.075-.36.033-.724.062-1.088.091-.265.021-.529.043-.8.062-.383.029-.77.054-1.158.079-.193.012-.381.027-.575.039l-.15.007q-1.259.074-2.55.123l-.228.011c-.146.006-.294.007-.44.013q-.776.027-1.562.044c-.147,0-.29.01-.438.013l-.318,0c-.447.007-.9.012-1.349.015-.189,0-.374.006-.564.006h-.431q-.882,0-1.754-.011l-.092,0q-1.025-.014-2.037-.042h-.015l-.2-.007q-.9-.027-1.791-.064l-.119,0c-.183-.008-.361-.019-.542-.029-.446-.022-.891-.043-1.332-.069l-.228-.012c-.178-.011-.352-.025-.529-.037q-.613-.039-1.219-.083c-.11-.008-.222-.014-.332-.023-.148-.011-.293-.026-.441-.038q-.6-.048-1.188-.1c-.141-.013-.286-.023-.427-.037-.11-.01-.215-.023-.324-.034q-.634-.062-1.257-.13c-.155-.017-.314-.031-.468-.048l-.178-.022q-.9-.1-1.774-.217l-.114-.014-.014,0c-.644-.085-1.274-.177-1.9-.272l-.179-.026c-.114-.018-.221-.038-.334-.055q-.75-.119-1.476-.246c-.107-.019-.221-.035-.328-.055l-.195-.038c-.669-.122-1.326-.248-1.964-.381l-.082-.016c-.058-.012-.11-.026-.167-.038q-1.094-.231-2.124-.484c-.048-.011-.1-.022-.148-.034l-.073-.019q-.644-.161-1.259-.329l-.126-.033q-.678-.187-1.319-.383l-.05-.015c-.31-.094-.609-.192-.906-.289l-.185-.059q-.56-.187-1.087-.381c-.105-.039-.2-.079-.306-.118-.242-.092-.484-.184-.716-.277-.127-.052-.247-.105-.371-.158-.2-.083-.4-.166-.584-.251-.129-.058-.25-.117-.375-.176-.173-.081-.347-.163-.512-.245-.123-.062-.241-.125-.359-.187-.156-.082-.31-.164-.458-.247-.115-.065-.225-.131-.336-.2-.14-.082-.277-.165-.409-.249-.106-.067-.207-.135-.308-.2q-.187-.126-.363-.253-.142-.1-.276-.208c-.111-.086-.216-.173-.318-.26-.083-.071-.164-.141-.242-.212-.1-.088-.186-.177-.274-.266-.071-.072-.141-.143-.207-.216-.082-.09-.155-.181-.229-.273-.057-.072-.116-.143-.168-.216-.068-.095-.126-.19-.185-.285-.043-.071-.09-.142-.128-.213-.054-.1-.1-.2-.139-.3-.029-.068-.063-.135-.087-.2a3.075,3.075,0,0,1-.094-.341c-.014-.057-.034-.114-.044-.171a2.983,2.983,0,0,1-.047-.518h0v16.036a2.985,2.985,0,0,0,.047.519c.01.058.031.114.044.171a3.226,3.226,0,0,0,.094.341c.025.068.058.135.087.2.043.1.086.2.14.3.038.071.084.141.128.212.059.1.118.192.185.286.052.072.11.143.167.215.074.092.148.184.23.275.065.072.135.143.205.214.088.09.179.179.274.267.078.071.159.142.242.212.1.087.208.174.318.26q.134.1.276.209.176.127.362.253c.1.068.2.137.31.2.131.083.267.165.405.247.112.066.224.133.341.2.147.082.3.163.454.244.119.063.237.126.362.188.166.083.34.165.514.247.124.058.246.117.374.175.189.085.387.168.585.252.124.053.244.106.371.157.231.094.473.185.714.277.1.039.2.08.308.119q.527.193,1.085.38c.07.023.144.046.215.068.3.1.613.2.931.3q.641.2,1.317.382l.122.033q.619.169,1.265.33l.212.051q1.035.254,2.136.487l.239.051c.64.134,1.3.26,1.968.382.172.031.347.062.522.092q.727.128,1.476.246c.171.027.34.055.513.081.623.1,1.253.187,1.9.272l.127.015q.875.116,1.774.217c.213.025.43.047.646.07q.623.068,1.257.13l.751.07q.59.054,1.188.1c.256.021.512.042.771.061q.61.045,1.23.084c.247.016.493.033.742.047.445.026.894.049,1.343.07.219.011.435.023.655.033q.888.038,1.791.065l.22.007q1.013.029,2.042.042.916.012,1.842.013c.334,0,.663,0,.995-.007.451,0,.9-.007,1.349-.015.253,0,.5-.01.756-.016q.786-.017,1.561-.044c.223-.007.447-.014.669-.023q1.289-.051,2.55-.123c.241-.014.48-.031.719-.046.391-.025.782-.05,1.169-.079.261-.019.52-.04.779-.061.371-.03.741-.06,1.108-.092l.787-.074q.532-.051,1.056-.106l.778-.084q.523-.059,1.038-.123c.248-.03.5-.06.743-.092.349-.045.694-.093,1.037-.141.231-.032.463-.064.691-.1.358-.053.71-.108,1.062-.164.206-.033.415-.064.619-.1.4-.066.787-.135,1.176-.205.148-.026.3-.051.447-.079q.8-.148,1.564-.306l.15-.033c.522-.109,1.032-.222,1.532-.338.167-.038.33-.078.494-.118q.585-.141,1.149-.288c.176-.046.355-.092.528-.139.216-.059.426-.119.637-.178s.421-.12.626-.181.406-.123.605-.186c.176-.055.352-.111.524-.167q.837-.273,1.607-.562c.107-.04.209-.082.314-.122q.567-.219,1.092-.446c.1-.042.195-.082.288-.124.382-.171.749-.344,1.1-.521.064-.033.123-.067.187-.1.264-.138.518-.278.76-.42.1-.06.2-.121.3-.181q.278-.171.534-.346c.1-.065.189-.13.28-.2.159-.115.307-.231.451-.348.077-.062.157-.124.229-.187.157-.136.3-.273.436-.41.042-.043.091-.086.132-.129a5.814,5.814,0,0,0,.462-.552c.033-.045.058-.091.088-.136a4.445,4.445,0,0,0,.265-.434c.035-.066.062-.133.092-.2a3.386,3.386,0,0,0,.155-.4c.022-.07.041-.139.058-.209a3.083,3.083,0,0,0,.073-.481c.005-.071.019-.142.019-.213V479.646Q-215.591,479.693-215.593,479.74Z" transform="translate(291.218 -469.226)" fill="url(#linear-gradient-3)"/>
        <path id="Trazado_82777" data-name="Trazado 82777" d="M-253.4,461.386c-20.888,0-37.814,4.665-37.814,10.42s16.925,10.423,37.814,10.423,37.814-4.665,37.814-10.423S-232.526,461.386-253.4,461.386Z" transform="translate(291.218 -461.386)" fill="#e8e8e8"/>
      </g>
      <g id="Grupo_55339" data-name="Grupo 55339" transform="translate(1016.467 8842.251)">
        <path id="Trazado_82776-2" data-name="Trazado 82776" d="M-215.593,479.74c0,.04-.015.079-.018.119a3.072,3.072,0,0,1-.073.481c-.008.033-.006.066-.015.1s-.031.074-.043.111a3.423,3.423,0,0,1-.155.4c-.02.044-.029.089-.051.133-.011.022-.029.044-.041.066a4.467,4.467,0,0,1-.265.433c-.026.038-.043.078-.071.116-.005.007-.013.014-.018.022a5.818,5.818,0,0,1-.462.552c-.006.006-.009.012-.015.018-.035.038-.081.074-.118.111-.137.138-.279.275-.435.41-.021.018-.037.037-.058.054-.053.045-.118.088-.172.133-.144.117-.293.233-.451.348-.04.029-.073.059-.115.088s-.112.071-.165.107q-.256.175-.534.346c-.061.038-.114.078-.177.115-.038.022-.082.044-.12.066q-.363.213-.76.421c-.053.027-.1.056-.151.083l-.035.017c-.346.176-.713.35-1.094.52-.032.014-.059.03-.091.044-.063.028-.136.054-.2.082q-.525.227-1.089.446c-.07.027-.131.055-.2.082l-.114.04q-.768.288-1.605.561c-.046.015-.087.032-.134.047-.13.042-.267.082-.4.123-.2.062-.394.123-.6.183s-.421.123-.635.183-.418.119-.632.177l-.226.063c-.1.026-.2.05-.3.076q-.561.146-1.142.286l-.5.12q-.748.174-1.528.337l-.126.028-.025,0q-.767.158-1.564.306l-.447.079c-.388.07-.778.139-1.176.205-.205.034-.416.066-.624.1-.349.055-.7.11-1.053.163-.232.034-.468.066-.7.1-.34.047-.681.095-1.027.139-.247.032-.5.063-.744.093-.344.042-.689.083-1.038.122l-.78.085q-.52.055-1.048.1c-.266.026-.532.051-.8.075-.36.033-.724.062-1.088.091-.265.021-.529.043-.8.062-.383.029-.77.054-1.158.079-.193.012-.381.027-.575.039l-.15.007q-1.259.074-2.55.123l-.228.011c-.146.006-.294.007-.44.013q-.776.027-1.562.044c-.147,0-.29.01-.438.013l-.318,0c-.447.007-.9.012-1.349.015-.189,0-.374.006-.564.006h-.431q-.882,0-1.754-.011l-.092,0q-1.025-.014-2.037-.042h-.015l-.2-.007q-.9-.027-1.791-.064l-.119,0c-.183-.008-.361-.019-.542-.029-.446-.022-.891-.043-1.332-.069l-.228-.012c-.178-.011-.352-.025-.529-.037q-.613-.039-1.219-.083c-.11-.008-.222-.014-.332-.023-.148-.011-.293-.026-.441-.038q-.6-.048-1.188-.1c-.141-.013-.286-.023-.427-.037-.11-.01-.215-.023-.324-.034q-.634-.062-1.257-.13c-.155-.017-.314-.031-.468-.048l-.178-.022q-.9-.1-1.774-.217l-.114-.014-.014,0c-.644-.085-1.274-.177-1.9-.272l-.179-.026c-.114-.018-.221-.038-.334-.055q-.75-.119-1.476-.246c-.107-.019-.221-.035-.328-.055l-.195-.038c-.669-.122-1.326-.248-1.964-.381l-.082-.016c-.058-.012-.11-.026-.167-.038q-1.094-.231-2.124-.484c-.048-.011-.1-.022-.148-.034l-.073-.019q-.644-.161-1.259-.329l-.126-.033q-.678-.187-1.319-.383l-.05-.015c-.31-.094-.609-.192-.906-.289l-.185-.059q-.56-.187-1.087-.381c-.105-.039-.2-.079-.306-.118-.242-.092-.484-.184-.716-.277-.127-.052-.247-.105-.371-.158-.2-.083-.4-.166-.584-.251-.129-.058-.25-.117-.375-.176-.173-.081-.347-.163-.512-.245-.123-.062-.241-.125-.359-.187-.156-.082-.31-.164-.458-.247-.115-.065-.225-.131-.336-.2-.14-.082-.277-.165-.409-.249-.106-.067-.207-.135-.308-.2q-.187-.126-.363-.253-.142-.1-.276-.208c-.111-.086-.216-.173-.318-.26-.083-.071-.164-.141-.242-.212-.1-.088-.186-.177-.274-.266-.071-.072-.141-.143-.207-.216-.082-.09-.155-.181-.229-.273-.057-.072-.116-.143-.168-.216-.068-.095-.126-.19-.185-.285-.043-.071-.09-.142-.128-.213-.054-.1-.1-.2-.139-.3-.029-.068-.063-.135-.087-.2a3.075,3.075,0,0,1-.094-.341c-.014-.057-.034-.114-.044-.171a2.983,2.983,0,0,1-.047-.518h0v16.036a2.985,2.985,0,0,0,.047.519c.01.058.031.114.044.171a3.226,3.226,0,0,0,.094.341c.025.068.058.135.087.2.043.1.086.2.14.3.038.071.084.141.128.212.059.1.118.192.185.286.052.072.11.143.167.215.074.092.148.184.23.275.065.072.135.143.205.214.088.09.179.179.274.267.078.071.159.142.242.212.1.087.208.174.318.26q.134.1.276.209.176.127.362.253c.1.068.2.137.31.2.131.083.267.165.405.247.112.066.224.133.341.2.147.082.3.163.454.244.119.063.237.126.362.188.166.083.34.165.514.247.124.058.246.117.374.175.189.085.387.168.585.252.124.053.244.106.371.157.231.094.473.185.714.277.1.039.2.08.308.119q.527.193,1.085.38c.07.023.144.046.215.068.3.1.613.2.931.3q.641.2,1.317.382l.122.033q.619.169,1.265.33l.212.051q1.035.254,2.136.487l.239.051c.64.134,1.3.26,1.968.382.172.031.347.062.522.092q.727.128,1.476.246c.171.027.34.055.513.081.623.1,1.253.187,1.9.272l.127.015q.875.116,1.774.217c.213.025.43.047.646.07q.623.068,1.257.13l.751.07q.59.054,1.188.1c.256.021.512.042.771.061q.61.045,1.23.084c.247.016.493.033.742.047.445.026.894.049,1.343.07.219.011.435.023.655.033q.888.038,1.791.065l.22.007q1.013.029,2.042.042.916.012,1.842.013c.334,0,.663,0,.995-.007.451,0,.9-.007,1.349-.015.253,0,.5-.01.756-.016q.786-.017,1.561-.044c.223-.007.447-.014.669-.023q1.289-.051,2.55-.123c.241-.014.48-.031.719-.046.391-.025.782-.05,1.169-.079.261-.019.52-.04.779-.061.371-.03.741-.06,1.108-.092l.787-.074q.532-.051,1.056-.106l.778-.084q.523-.059,1.038-.123c.248-.03.5-.06.743-.092.349-.045.694-.093,1.037-.141.231-.032.463-.064.691-.1.358-.053.71-.108,1.062-.164.206-.033.415-.064.619-.1.4-.066.787-.135,1.176-.205.148-.026.3-.051.447-.079q.8-.148,1.564-.306l.15-.033c.522-.109,1.032-.222,1.532-.338.167-.038.33-.078.494-.118q.585-.141,1.149-.288c.176-.046.355-.092.528-.139.216-.059.426-.119.637-.178s.421-.12.626-.181.406-.123.605-.186c.176-.055.352-.111.524-.167q.837-.273,1.607-.562c.107-.04.209-.082.314-.122q.567-.219,1.092-.446c.1-.042.195-.082.288-.124.382-.171.749-.344,1.1-.521.064-.033.123-.067.187-.1.264-.138.518-.278.76-.42.1-.06.2-.121.3-.181q.278-.171.534-.346c.1-.065.189-.13.28-.2.159-.115.307-.231.451-.348.077-.062.157-.124.229-.187.157-.136.3-.273.436-.41.042-.043.091-.086.132-.129a5.814,5.814,0,0,0,.462-.552c.033-.045.058-.091.088-.136a4.445,4.445,0,0,0,.265-.434c.035-.066.062-.133.092-.2a3.386,3.386,0,0,0,.155-.4c.022-.07.041-.139.058-.209a3.083,3.083,0,0,0,.073-.481c.005-.071.019-.142.019-.213V479.646Q-215.591,479.693-215.593,479.74Z" transform="translate(291.218 -469.226)" fill="url(#linear-gradient-3)"/>
        <path id="Trazado_82777-2" data-name="Trazado 82777" d="M-253.4,461.386c-20.888,0-37.814,4.665-37.814,10.42s16.925,10.423,37.814,10.423,37.814-4.665,37.814-10.423S-232.526,461.386-253.4,461.386Z" transform="translate(291.218 -461.386)" fill="#e8e8e8"/>
      </g>
      <g id="Grupo_55337" data-name="Grupo 55337" transform="translate(1167.777 8769.278)">
        <path id="Trazado_82776-3" data-name="Trazado 82776" d="M-215.593,479.74c0,.04-.015.079-.018.119a3.072,3.072,0,0,1-.073.481c-.008.033-.006.066-.015.1s-.031.074-.043.111a3.423,3.423,0,0,1-.155.4c-.02.044-.029.089-.051.133-.011.022-.029.044-.041.066a4.467,4.467,0,0,1-.265.433c-.026.038-.043.078-.071.116-.005.007-.013.014-.018.022a5.818,5.818,0,0,1-.462.552c-.006.006-.009.012-.015.018-.035.038-.081.074-.118.111-.137.138-.279.275-.435.41-.021.018-.037.037-.058.054-.053.045-.118.088-.172.133-.144.117-.293.233-.451.348-.04.029-.073.059-.115.088s-.112.071-.165.107q-.256.175-.534.346c-.061.038-.114.078-.177.115-.038.022-.082.044-.12.066q-.363.213-.76.421c-.053.027-.1.056-.151.083l-.035.017c-.346.176-.713.35-1.094.52-.032.014-.059.03-.091.044-.063.028-.136.054-.2.082q-.525.227-1.089.446c-.07.027-.131.055-.2.082l-.114.04q-.768.288-1.605.561c-.046.015-.087.032-.134.047-.13.042-.267.082-.4.123-.2.062-.394.123-.6.183s-.421.123-.635.183-.418.119-.632.177l-.226.063c-.1.026-.2.05-.3.076q-.561.146-1.142.286l-.5.12q-.748.174-1.528.337l-.126.028-.025,0q-.767.158-1.564.306l-.447.079c-.388.07-.778.139-1.176.205-.205.034-.416.066-.624.1-.349.055-.7.11-1.053.163-.232.034-.468.066-.7.1-.34.047-.681.095-1.027.139-.247.032-.5.063-.744.093-.344.042-.689.083-1.038.122l-.78.085q-.52.055-1.048.1c-.266.026-.532.051-.8.075-.36.033-.724.062-1.088.091-.265.021-.529.043-.8.062-.383.029-.77.054-1.158.079-.193.012-.381.027-.575.039l-.15.007q-1.259.074-2.55.123l-.228.011c-.146.006-.294.007-.44.013q-.776.027-1.562.044c-.147,0-.29.01-.438.013l-.318,0c-.447.007-.9.012-1.349.015-.189,0-.374.006-.564.006h-.431q-.882,0-1.754-.011l-.092,0q-1.025-.014-2.037-.042h-.015l-.2-.007q-.9-.027-1.791-.064l-.119,0c-.183-.008-.361-.019-.542-.029-.446-.022-.891-.043-1.332-.069l-.228-.012c-.178-.011-.352-.025-.529-.037q-.613-.039-1.219-.083c-.11-.008-.222-.014-.332-.023-.148-.011-.293-.026-.441-.038q-.6-.048-1.188-.1c-.141-.013-.286-.023-.427-.037-.11-.01-.215-.023-.324-.034q-.634-.062-1.257-.13c-.155-.017-.314-.031-.468-.048l-.178-.022q-.9-.1-1.774-.217l-.114-.014-.014,0c-.644-.085-1.274-.177-1.9-.272l-.179-.026c-.114-.018-.221-.038-.334-.055q-.75-.119-1.476-.246c-.107-.019-.221-.035-.328-.055l-.195-.038c-.669-.122-1.326-.248-1.964-.381l-.082-.016c-.058-.012-.11-.026-.167-.038q-1.094-.231-2.124-.484c-.048-.011-.1-.022-.148-.034l-.073-.019q-.644-.161-1.259-.329l-.126-.033q-.678-.187-1.319-.383l-.05-.015c-.31-.094-.609-.192-.906-.289l-.185-.059q-.56-.187-1.087-.381c-.105-.039-.2-.079-.306-.118-.242-.092-.484-.184-.716-.277-.127-.052-.247-.105-.371-.158-.2-.083-.4-.166-.584-.251-.129-.058-.25-.117-.375-.176-.173-.081-.347-.163-.512-.245-.123-.062-.241-.125-.359-.187-.156-.082-.31-.164-.458-.247-.115-.065-.225-.131-.336-.2-.14-.082-.277-.165-.409-.249-.106-.067-.207-.135-.308-.2q-.187-.126-.363-.253-.142-.1-.276-.208c-.111-.086-.216-.173-.318-.26-.083-.071-.164-.141-.242-.212-.1-.088-.186-.177-.274-.266-.071-.072-.141-.143-.207-.216-.082-.09-.155-.181-.229-.273-.057-.072-.116-.143-.168-.216-.068-.095-.126-.19-.185-.285-.043-.071-.09-.142-.128-.213-.054-.1-.1-.2-.139-.3-.029-.068-.063-.135-.087-.2a3.075,3.075,0,0,1-.094-.341c-.014-.057-.034-.114-.044-.171a2.983,2.983,0,0,1-.047-.518h0v16.036a2.985,2.985,0,0,0,.047.519c.01.058.031.114.044.171a3.226,3.226,0,0,0,.094.341c.025.068.058.135.087.2.043.1.086.2.14.3.038.071.084.141.128.212.059.1.118.192.185.286.052.072.11.143.167.215.074.092.148.184.23.275.065.072.135.143.205.214.088.09.179.179.274.267.078.071.159.142.242.212.1.087.208.174.318.26q.134.1.276.209.176.127.362.253c.1.068.2.137.31.2.131.083.267.165.405.247.112.066.224.133.341.2.147.082.3.163.454.244.119.063.237.126.362.188.166.083.34.165.514.247.124.058.246.117.374.175.189.085.387.168.585.252.124.053.244.106.371.157.231.094.473.185.714.277.1.039.2.08.308.119q.527.193,1.085.38c.07.023.144.046.215.068.3.1.613.2.931.3q.641.2,1.317.382l.122.033q.619.169,1.265.33l.212.051q1.035.254,2.136.487l.239.051c.64.134,1.3.26,1.968.382.172.031.347.062.522.092q.727.128,1.476.246c.171.027.34.055.513.081.623.1,1.253.187,1.9.272l.127.015q.875.116,1.774.217c.213.025.43.047.646.07q.623.068,1.257.13l.751.07q.59.054,1.188.1c.256.021.512.042.771.061q.61.045,1.23.084c.247.016.493.033.742.047.445.026.894.049,1.343.07.219.011.435.023.655.033q.888.038,1.791.065l.22.007q1.013.029,2.042.042.916.012,1.842.013c.334,0,.663,0,.995-.007.451,0,.9-.007,1.349-.015.253,0,.5-.01.756-.016q.786-.017,1.561-.044c.223-.007.447-.014.669-.023q1.289-.051,2.55-.123c.241-.014.48-.031.719-.046.391-.025.782-.05,1.169-.079.261-.019.52-.04.779-.061.371-.03.741-.06,1.108-.092l.787-.074q.532-.051,1.056-.106l.778-.084q.523-.059,1.038-.123c.248-.03.5-.06.743-.092.349-.045.694-.093,1.037-.141.231-.032.463-.064.691-.1.358-.053.71-.108,1.062-.164.206-.033.415-.064.619-.1.4-.066.787-.135,1.176-.205.148-.026.3-.051.447-.079q.8-.148,1.564-.306l.15-.033c.522-.109,1.032-.222,1.532-.338.167-.038.33-.078.494-.118q.585-.141,1.149-.288c.176-.046.355-.092.528-.139.216-.059.426-.119.637-.178s.421-.12.626-.181.406-.123.605-.186c.176-.055.352-.111.524-.167q.837-.273,1.607-.562c.107-.04.209-.082.314-.122q.567-.219,1.092-.446c.1-.042.195-.082.288-.124.382-.171.749-.344,1.1-.521.064-.033.123-.067.187-.1.264-.138.518-.278.76-.42.1-.06.2-.121.3-.181q.278-.171.534-.346c.1-.065.189-.13.28-.2.159-.115.307-.231.451-.348.077-.062.157-.124.229-.187.157-.136.3-.273.436-.41.042-.043.091-.086.132-.129a5.814,5.814,0,0,0,.462-.552c.033-.045.058-.091.088-.136a4.445,4.445,0,0,0,.265-.434c.035-.066.062-.133.092-.2a3.386,3.386,0,0,0,.155-.4c.022-.07.041-.139.058-.209a3.083,3.083,0,0,0,.073-.481c.005-.071.019-.142.019-.213V479.646Q-215.591,479.693-215.593,479.74Z" transform="translate(291.218 -469.226)" fill="url(#linear-gradient-3)"/>
        <path id="Trazado_82777-3" data-name="Trazado 82777" d="M-253.4,461.386c-20.888,0-37.814,4.665-37.814,10.42s16.925,10.423,37.814,10.423,37.814-4.665,37.814-10.423S-232.526,461.386-253.4,461.386Z" transform="translate(291.218 -461.386)" fill="#e8e8e8"/>
      </g>
      <g id="Grupo_55338" data-name="Grupo 55338" transform="translate(1167.777 8842.251)">
        <path id="Trazado_82776-4" data-name="Trazado 82776" d="M-215.593,479.74c0,.04-.015.079-.018.119a3.072,3.072,0,0,1-.073.481c-.008.033-.006.066-.015.1s-.031.074-.043.111a3.423,3.423,0,0,1-.155.4c-.02.044-.029.089-.051.133-.011.022-.029.044-.041.066a4.467,4.467,0,0,1-.265.433c-.026.038-.043.078-.071.116-.005.007-.013.014-.018.022a5.818,5.818,0,0,1-.462.552c-.006.006-.009.012-.015.018-.035.038-.081.074-.118.111-.137.138-.279.275-.435.41-.021.018-.037.037-.058.054-.053.045-.118.088-.172.133-.144.117-.293.233-.451.348-.04.029-.073.059-.115.088s-.112.071-.165.107q-.256.175-.534.346c-.061.038-.114.078-.177.115-.038.022-.082.044-.12.066q-.363.213-.76.421c-.053.027-.1.056-.151.083l-.035.017c-.346.176-.713.35-1.094.52-.032.014-.059.03-.091.044-.063.028-.136.054-.2.082q-.525.227-1.089.446c-.07.027-.131.055-.2.082l-.114.04q-.768.288-1.605.561c-.046.015-.087.032-.134.047-.13.042-.267.082-.4.123-.2.062-.394.123-.6.183s-.421.123-.635.183-.418.119-.632.177l-.226.063c-.1.026-.2.05-.3.076q-.561.146-1.142.286l-.5.12q-.748.174-1.528.337l-.126.028-.025,0q-.767.158-1.564.306l-.447.079c-.388.07-.778.139-1.176.205-.205.034-.416.066-.624.1-.349.055-.7.11-1.053.163-.232.034-.468.066-.7.1-.34.047-.681.095-1.027.139-.247.032-.5.063-.744.093-.344.042-.689.083-1.038.122l-.78.085q-.52.055-1.048.1c-.266.026-.532.051-.8.075-.36.033-.724.062-1.088.091-.265.021-.529.043-.8.062-.383.029-.77.054-1.158.079-.193.012-.381.027-.575.039l-.15.007q-1.259.074-2.55.123l-.228.011c-.146.006-.294.007-.44.013q-.776.027-1.562.044c-.147,0-.29.01-.438.013l-.318,0c-.447.007-.9.012-1.349.015-.189,0-.374.006-.564.006h-.431q-.882,0-1.754-.011l-.092,0q-1.025-.014-2.037-.042h-.015l-.2-.007q-.9-.027-1.791-.064l-.119,0c-.183-.008-.361-.019-.542-.029-.446-.022-.891-.043-1.332-.069l-.228-.012c-.178-.011-.352-.025-.529-.037q-.613-.039-1.219-.083c-.11-.008-.222-.014-.332-.023-.148-.011-.293-.026-.441-.038q-.6-.048-1.188-.1c-.141-.013-.286-.023-.427-.037-.11-.01-.215-.023-.324-.034q-.634-.062-1.257-.13c-.155-.017-.314-.031-.468-.048l-.178-.022q-.9-.1-1.774-.217l-.114-.014-.014,0c-.644-.085-1.274-.177-1.9-.272l-.179-.026c-.114-.018-.221-.038-.334-.055q-.75-.119-1.476-.246c-.107-.019-.221-.035-.328-.055l-.195-.038c-.669-.122-1.326-.248-1.964-.381l-.082-.016c-.058-.012-.11-.026-.167-.038q-1.094-.231-2.124-.484c-.048-.011-.1-.022-.148-.034l-.073-.019q-.644-.161-1.259-.329l-.126-.033q-.678-.187-1.319-.383l-.05-.015c-.31-.094-.609-.192-.906-.289l-.185-.059q-.56-.187-1.087-.381c-.105-.039-.2-.079-.306-.118-.242-.092-.484-.184-.716-.277-.127-.052-.247-.105-.371-.158-.2-.083-.4-.166-.584-.251-.129-.058-.25-.117-.375-.176-.173-.081-.347-.163-.512-.245-.123-.062-.241-.125-.359-.187-.156-.082-.31-.164-.458-.247-.115-.065-.225-.131-.336-.2-.14-.082-.277-.165-.409-.249-.106-.067-.207-.135-.308-.2q-.187-.126-.363-.253-.142-.1-.276-.208c-.111-.086-.216-.173-.318-.26-.083-.071-.164-.141-.242-.212-.1-.088-.186-.177-.274-.266-.071-.072-.141-.143-.207-.216-.082-.09-.155-.181-.229-.273-.057-.072-.116-.143-.168-.216-.068-.095-.126-.19-.185-.285-.043-.071-.09-.142-.128-.213-.054-.1-.1-.2-.139-.3-.029-.068-.063-.135-.087-.2a3.075,3.075,0,0,1-.094-.341c-.014-.057-.034-.114-.044-.171a2.983,2.983,0,0,1-.047-.518h0v16.036a2.985,2.985,0,0,0,.047.519c.01.058.031.114.044.171a3.226,3.226,0,0,0,.094.341c.025.068.058.135.087.2.043.1.086.2.14.3.038.071.084.141.128.212.059.1.118.192.185.286.052.072.11.143.167.215.074.092.148.184.23.275.065.072.135.143.205.214.088.09.179.179.274.267.078.071.159.142.242.212.1.087.208.174.318.26q.134.1.276.209.176.127.362.253c.1.068.2.137.31.2.131.083.267.165.405.247.112.066.224.133.341.2.147.082.3.163.454.244.119.063.237.126.362.188.166.083.34.165.514.247.124.058.246.117.374.175.189.085.387.168.585.252.124.053.244.106.371.157.231.094.473.185.714.277.1.039.2.08.308.119q.527.193,1.085.38c.07.023.144.046.215.068.3.1.613.2.931.3q.641.2,1.317.382l.122.033q.619.169,1.265.33l.212.051q1.035.254,2.136.487l.239.051c.64.134,1.3.26,1.968.382.172.031.347.062.522.092q.727.128,1.476.246c.171.027.34.055.513.081.623.1,1.253.187,1.9.272l.127.015q.875.116,1.774.217c.213.025.43.047.646.07q.623.068,1.257.13l.751.07q.59.054,1.188.1c.256.021.512.042.771.061q.61.045,1.23.084c.247.016.493.033.742.047.445.026.894.049,1.343.07.219.011.435.023.655.033q.888.038,1.791.065l.22.007q1.013.029,2.042.042.916.012,1.842.013c.334,0,.663,0,.995-.007.451,0,.9-.007,1.349-.015.253,0,.5-.01.756-.016q.786-.017,1.561-.044c.223-.007.447-.014.669-.023q1.289-.051,2.55-.123c.241-.014.48-.031.719-.046.391-.025.782-.05,1.169-.079.261-.019.52-.04.779-.061.371-.03.741-.06,1.108-.092l.787-.074q.532-.051,1.056-.106l.778-.084q.523-.059,1.038-.123c.248-.03.5-.06.743-.092.349-.045.694-.093,1.037-.141.231-.032.463-.064.691-.1.358-.053.71-.108,1.062-.164.206-.033.415-.064.619-.1.4-.066.787-.135,1.176-.205.148-.026.3-.051.447-.079q.8-.148,1.564-.306l.15-.033c.522-.109,1.032-.222,1.532-.338.167-.038.33-.078.494-.118q.585-.141,1.149-.288c.176-.046.355-.092.528-.139.216-.059.426-.119.637-.178s.421-.12.626-.181.406-.123.605-.186c.176-.055.352-.111.524-.167q.837-.273,1.607-.562c.107-.04.209-.082.314-.122q.567-.219,1.092-.446c.1-.042.195-.082.288-.124.382-.171.749-.344,1.1-.521.064-.033.123-.067.187-.1.264-.138.518-.278.76-.42.1-.06.2-.121.3-.181q.278-.171.534-.346c.1-.065.189-.13.28-.2.159-.115.307-.231.451-.348.077-.062.157-.124.229-.187.157-.136.3-.273.436-.41.042-.043.091-.086.132-.129a5.814,5.814,0,0,0,.462-.552c.033-.045.058-.091.088-.136a4.445,4.445,0,0,0,.265-.434c.035-.066.062-.133.092-.2a3.386,3.386,0,0,0,.155-.4c.022-.07.041-.139.058-.209a3.083,3.083,0,0,0,.073-.481c.005-.071.019-.142.019-.213V479.646Q-215.591,479.693-215.593,479.74Z" transform="translate(291.218 -469.226)" fill="url(#linear-gradient-3)"/>
        <path id="Trazado_82777-4" data-name="Trazado 82777" d="M-253.4,461.386c-20.888,0-37.814,4.665-37.814,10.42s16.925,10.423,37.814,10.423,37.814-4.665,37.814-10.423S-232.526,461.386-253.4,461.386Z" transform="translate(291.218 -461.386)" fill="#e8e8e8"/>
      </g>
      <path id="Trazado_119518" data-name="Trazado 119518" d="M-12343.392-8211.494l30.072-12.295" transform="translate(13382.786 16996.725)" fill="none" stroke="#00223d" stroke-linecap="round" stroke-width="4"/>
      <path id="Trazado_119524" data-name="Trazado 119524" d="M-12343.392-8211.494l30.072-12.295" transform="translate(13382.786 17069.697)" fill="none" stroke="#00223d" stroke-linecap="round" stroke-width="4"/>
      <path id="Trazado_119520" data-name="Trazado 119520" d="M-12343.392-8211.494l30.072-12.295" transform="translate(13534.097 16996.725)" fill="none" stroke="#00223d" stroke-linecap="round" stroke-width="4"/>
      <path id="Trazado_119522" data-name="Trazado 119522" d="M-12343.392-8211.494l30.072-12.295" transform="translate(13534.097 17069.697)" fill="none" stroke="#00223d" stroke-linecap="round" stroke-width="4"/>
      <path id="Trazado_119519" data-name="Trazado 119519" d="M0,12.295,30.071,0" transform="translate(1060.715 8794.062) rotate(-135)" fill="none" stroke="#00223d" stroke-linecap="round" stroke-width="4"/>
      <path id="Trazado_119525" data-name="Trazado 119525" d="M0,12.295,30.071,0" transform="translate(1060.715 8867.034) rotate(-135)" fill="none" stroke="#00223d" stroke-linecap="round" stroke-width="4"/>
      <path id="Trazado_119521" data-name="Trazado 119521" d="M0,12.295,30.071,0" transform="translate(1212.026 8794.062) rotate(-135)" fill="none" stroke="#00223d" stroke-linecap="round" stroke-width="4"/>
      <path id="Trazado_119523" data-name="Trazado 119523" d="M0,12.295,30.071,0" transform="translate(1212.026 8867.034) rotate(-135)" fill="none" stroke="#00223d" stroke-linecap="round" stroke-width="4"/>
      <path id="Trazado_119526" data-name="Trazado 119526" d="M-11040.522-7696.055h43.378" transform="translate(11993.296 16514.531)" fill="none" stroke="#00223d" stroke-width="3"/>
      <path id="Trazado_119527" data-name="Trazado 119527" d="M-10942.14-7742.105l-19.884,25.019,19.884,22.3" transform="translate(11956.915 16535.871)" fill="none" stroke="#00223d" stroke-width="3"/>
      <path id="Trazado_119528" data-name="Trazado 119528" d="M0,0H43.378" transform="translate(1310.957 8816.382) rotate(180)" fill="none" stroke="#00223d" stroke-width="3"/>
      <path id="Trazado_119529" data-name="Trazado 119529" d="M19.882,0,0,25.019,19.882,47.324" transform="translate(1268.837 8841.091) rotate(180)" fill="none" stroke="#00223d" stroke-width="3"/>
      <path id="Trazado_119530" data-name="Trazado 119530" d="M-10569.342-7719.013v35.331" transform="translate(11774.934 16525.172)" fill="none" stroke="#00223d" stroke-width="3"/>
      <path id="Trazado_119531" data-name="Trazado 119531" d="M-10780.867-7753.378h75.576" transform="translate(11872.961 16541.098)" fill="none" stroke="#00223d" stroke-width="3"/>
      <path id="Trazado_119532" data-name="Trazado 119532" d="M-10780.867-7753.378h75.576" transform="translate(11872.961 16614.068)" fill="none" stroke="#00223d" stroke-width="3"/>
      <ellipse id="Elipse_3795" data-name="Elipse 3795" cx="5.799" cy="5.799" rx="5.799" ry="5.799" transform="translate(1124.36 8781.774)" fill="#ff2c9c"/>
      <ellipse id="Elipse_3796" data-name="Elipse 3796" cx="5.799" cy="5.799" rx="5.799" ry="5.799" transform="translate(1124.36 8854.929)" fill="#ff2c9c"/>
      <path id="Trazado_194064" data-name="Trazado 194064" d="M9.816,20.881V15.888H0V5.082H9.756V0L28.143,10.452Z" transform="translate(1141.059 8750.056) rotate(90)" fill="#12263f"/>
      <text id="Paquete_1" data-name="Paquete 1" transform="translate(1103.006 8743)" fill="#12263f" font-size="13" font-family="Roboto-Regular, Roboto"><tspan x="0" y="0">Paquete 1</tspan></text>
      <text id="Equipo_A" data-name="Equipo A" transform="translate(884.006 8895)" fill="#12263f" font-size="13" font-family="Roboto-Bold, Roboto" font-weight="700"><tspan x="0" y="0">Equipo A</tspan></text>
      <text id="Equipo_B" data-name="Equipo B" transform="translate(1316.006 8895)" fill="#12263f" font-size="13" font-family="Roboto-Bold, Roboto" font-weight="700"><tspan x="0" y="0">Equipo B</tspan></text>
      <text id="Paquete_2" data-name="Paquete 2" transform="translate(1103.006 8915)" fill="#12263f" font-size="13" font-family="Roboto-Regular, Roboto"><tspan x="0" y="0">Paquete 2</tspan></text>
      <path id="Trazado_194065" data-name="Trazado 194065" d="M9.816,20.881V15.888H0V5.082H9.756V0L28.143,10.452Z" transform="translate(1119.553 8898.958) rotate(-90)" fill="#12263f"/>
      <g id="Grupo_151578" data-name="Grupo 151578" transform="translate(-10.67 -4)">
        <text id="Servicios_de_red_no_orientados_a_conexin_" data-name="Servicios de red no
orientados a conexin " transform="translate(887.676 8740)" fill="#12263f" font-size="13" font-family="Roboto-Bold, Roboto" font-weight="700"><tspan x="0" y="0">Servicios de red no</tspan><tspan x="0" y="15">orientados a conexin </tspan></text>
        <rect id="Rectngulo_44710" data-name="Rectngulo 44710" width="4" height="32" transform="translate(879.676 8727)" fill="#ff2c9c"/>
      </g>
    </g>
  </g>
</svg>
