<svg xmlns="http://www.w3.org/2000/svg" xmlns:xlink="http://www.w3.org/1999/xlink" width="939.28" height="428.664" viewBox="0 0 939.28 428.664">
  <defs>
    <linearGradient id="linear-gradient" x1="0.5" x2="0.5" y2="1" gradientUnits="objectBoundingBox">
      <stop offset="0" stop-color="#039be5"/>
      <stop offset="1" stop-color="#027fbc"/>
    </linearGradient>
    <filter id="Trazado_192907" x="329.907" y="23.537" width="135.415" height="104.349" filterUnits="userSpaceOnUse">
      <feOffset dy="3" input="SourceAlpha"/>
      <feGaussianBlur stdDeviation="3" result="blur"/>
      <feFlood flood-opacity="0.161"/>
      <feComposite operator="in" in2="blur"/>
      <feComposite in="SourceGraphic"/>
    </filter>
    <filter id="Trazado_192909" x="638.256" y="281.599" width="135.415" height="104.349" filterUnits="userSpaceOnUse">
      <feOffset dy="3" input="SourceAlpha"/>
      <feGaussianBlur stdDeviation="3" result="blur-2"/>
      <feFlood flood-opacity="0.161"/>
      <feComposite operator="in" in2="blur-2"/>
      <feComposite in="SourceGraphic"/>
    </filter>
    <filter id="Trazado_192908" x="503.467" y="127.511" width="104.349" height="135.414" filterUnits="userSpaceOnUse">
      <feOffset dy="3" input="SourceAlpha"/>
      <feGaussianBlur stdDeviation="3" result="blur-3"/>
      <feFlood flood-opacity="0.161"/>
      <feComposite operator="in" in2="blur-3"/>
      <feComposite in="SourceGraphic"/>
    </filter>
    <filter id="Trazado_192910" x="800.627" y="127.243" width="104.349" height="135.414" filterUnits="userSpaceOnUse">
      <feOffset dy="3" input="SourceAlpha"/>
      <feGaussianBlur stdDeviation="3" result="blur-4"/>
      <feFlood flood-opacity="0.161"/>
      <feComposite operator="in" in2="blur-4"/>
      <feComposite in="SourceGraphic"/>
    </filter>
    <filter id="Rectángulo_44520" x="472.5" y="254.884" width="173.78" height="173.78" filterUnits="userSpaceOnUse">
      <feOffset dy="3" input="SourceAlpha"/>
      <feGaussianBlur stdDeviation="3" result="blur-5"/>
      <feFlood flood-opacity="0.161"/>
      <feComposite operator="in" in2="blur-5"/>
      <feComposite in="SourceGraphic"/>
    </filter>
    <filter id="Rectángulo_44521" x="765.5" y="253.278" width="173.78" height="173.78" filterUnits="userSpaceOnUse">
      <feOffset dy="3" input="SourceAlpha"/>
      <feGaussianBlur stdDeviation="3" result="blur-6"/>
      <feFlood flood-opacity="0.161"/>
      <feComposite operator="in" in2="blur-6"/>
      <feComposite in="SourceGraphic"/>
    </filter>
    <filter id="Rectángulo_44476" x="58.762" y="308.426" width="330.717" height="55.817" filterUnits="userSpaceOnUse">
      <feOffset dy="3" input="SourceAlpha"/>
      <feGaussianBlur stdDeviation="3" result="blur-7"/>
      <feFlood flood-opacity="0.161"/>
      <feComposite operator="in" in2="blur-7"/>
      <feComposite in="SourceGraphic"/>
    </filter>
  </defs>
  <g id="Grupo_152049" data-name="Grupo 152049" transform="translate(-311.176 -9988.944)">
    <g id="a1kq1p" transform="translate(311.176 9988.944)">
      <g id="Grupo_151210" data-name="Grupo 151210" transform="translate(0 0)">
        <path id="Trazado_192902" data-name="Trazado 192902" d="M2557.437,671.884c-4.774-.974-9.328-1.881-13.873-2.833q-28.372-5.946-56.74-11.915c-9.855-2.071-19.7-4.188-29.573-6.177-1.38-.278-1.723-.89-1.669-2.081.02-.445,0-.893,0-1.34q0-63.664,0-127.327c0-3.149.008-3.131,3.216-3.754q35.228-6.849,70.457-13.7c9.092-1.76,18.2-3.426,27.3-5.129a6.175,6.175,0,0,1,.879-.005Zm-27.588-89.071a33.452,33.452,0,0,0-4.388-17.6c-5.585-9.631-14.208-12.276-23.684-9.831-6.991,1.8-11.284,6.963-14.056,13.354-2.8,6.455-3.445,13.258-2.913,20.263a32.456,32.456,0,0,0,5.409,16.485c8.028,11.593,23.916,12.262,32.822,1.331C2528.38,600.262,2529.9,592.493,2529.849,582.813Z" transform="translate(-2455.577 -497.607)" fill="url(#linear-gradient)"/>
        <path id="Trazado_192903" data-name="Trazado 192903" d="M2696.915,652.093c3.482,2.388,6.53,4.476,9.573,6.568,2.984,2.051,3.2,2.034,6.127.08q23.387-15.593,46.792-31.162c.591-.393,1.225-.721,2.176-1.276.067,1.092.148,1.794.148,2.5q.01,29.918,0,59.835c0,5.328-2.257,8.713-6.572,9.923a9.074,9.074,0,0,1-2.415.292c-17.934.016-35.867-.013-53.8.052-1.8.006-2.256-.566-2.249-2.288.057-14.066.031-28.131.038-42.2C2696.733,653.841,2696.82,653.265,2696.915,652.093Z" transform="translate(-2588.968 -568.804)" fill="url(#linear-gradient)"/>
        <path id="Trazado_192904" data-name="Trazado 192904" d="M2726.989,579.866q13.953,0,27.906.005c3.29.006,6.558,2.953,6.678,6.225a3.249,3.249,0,0,1-1.465,2.157q-14.091,9.629-28.263,19.138c-6.6,4.451-13.222,8.857-19.777,13.367a3.823,3.823,0,0,1-4.873.088c-2.9-1.954-5.875-3.786-8.863-5.6a2.957,2.957,0,0,1-1.635-2.856q.085-15.183,0-30.366c-.01-1.668.505-2.158,2.164-2.145,9.376.071,18.754.034,28.13.034Z" transform="translate(-2588.969 -543.112)" fill="url(#linear-gradient)"/>
        <path id="Trazado_192905" data-name="Trazado 192905" d="M2568.422,668.657a28.607,28.607,0,0,0-2.291-12.6c-1.837-4.039-4.869-6.707-9.4-6.76-4.582-.053-7.729,2.521-9.83,6.534a26.394,26.394,0,0,0-2.606,12.517c0,4.529.393,9.062,2.772,13.134,2.16,3.7,5.016,6.134,9.636,6,4.389-.132,7.156-2.452,9.1-6.1A25.5,25.5,0,0,0,2568.422,668.657Z" transform="translate(-2504.66 -581.526)" fill="url(#linear-gradient)"/>
        <path id="Trazado_192906" data-name="Trazado 192906" d="M2568.425,668.657a25.522,25.522,0,0,1-2.617,12.722c-1.944,3.653-4.711,5.972-9.1,6.1-4.62.138-7.476-2.3-9.636-6-2.38-4.072-2.771-8.606-2.772-13.134a26.394,26.394,0,0,1,2.606-12.517c2.1-4.014,5.248-6.587,9.83-6.534,4.528.052,7.56,2.721,9.4,6.76A28.64,28.64,0,0,1,2568.425,668.657Z" transform="translate(-2504.66 -581.526)" fill="url(#linear-gradient)"/>
      </g>
    </g>
    <g transform="matrix(1, 0, 0, 1, 311.18, 9988.94)" filter="url(#Trazado_192907)">
      <path id="Trazado_192907-2" data-name="Trazado 192907" d="M-7515.024-4557.876h67.164v-12.209l48.983,40.466-48.983,43.7V-4497.7h-67.164Z" transform="translate(7854.43 4600.68)" fill="none" stroke="#12263f" stroke-width="1"/>
    </g>
    <g transform="matrix(1, 0, 0, 1, 311.18, 9988.94)" filter="url(#Trazado_192909)">
      <path id="Trazado_192909-2" data-name="Trazado 192909" d="M-7515.024-4557.876h67.164v-12.209l48.983,40.466-48.983,43.7V-4497.7h-67.164Z" transform="translate(8162.78 4858.75)" fill="none" stroke="#12263f" stroke-width="1"/>
    </g>
    <path id="Trazado_194512" data-name="Trazado 194512" d="M-44.468-3.73A1.5,1.5,0,0,0-45.054-5a7.685,7.685,0,0,0-2.109-.937,14.953,14.953,0,0,1-2.412-.972A3.941,3.941,0,0,1-52-10.439a3.434,3.434,0,0,1,.649-2.056,4.236,4.236,0,0,1,1.865-1.411,7.021,7.021,0,0,1,2.729-.508,6.39,6.39,0,0,1,2.715.552A4.323,4.323,0,0,1-42.187-12.3a4.076,4.076,0,0,1,.659,2.285h-2.93a1.917,1.917,0,0,0-.615-1.519A2.529,2.529,0,0,0-46.8-12.08a2.7,2.7,0,0,0-1.67.454,1.432,1.432,0,0,0-.6,1.2,1.372,1.372,0,0,0,.7,1.162,7.889,7.889,0,0,0,2.056.879,8.882,8.882,0,0,1,3.643,1.865A3.715,3.715,0,0,1-41.528-3.75a3.422,3.422,0,0,1-1.4,2.9A6.113,6.113,0,0,1-46.685.2a7.26,7.26,0,0,1-2.988-.6,4.729,4.729,0,0,1-2.056-1.646,4.214,4.214,0,0,1-.708-2.422H-49.5q0,2.354,2.813,2.354a2.736,2.736,0,0,0,1.631-.425A1.382,1.382,0,0,0-44.468-3.73Zm4.3-1.65a6.267,6.267,0,0,1,.605-2.8,4.432,4.432,0,0,1,1.743-1.9,5.086,5.086,0,0,1,2.642-.674,4.812,4.812,0,0,1,3.491,1.309A5.252,5.252,0,0,1-30.181-5.9l.02.723a5.523,5.523,0,0,1-1.357,3.9A4.718,4.718,0,0,1-35.161.2,4.742,4.742,0,0,1-38.809-1.27a5.62,5.62,0,0,1-1.362-3.984Zm2.822.2a3.95,3.95,0,0,0,.566,2.3,1.868,1.868,0,0,0,1.621.8,1.873,1.873,0,0,0,1.6-.787,4.322,4.322,0,0,0,.576-2.518,3.91,3.91,0,0,0-.576-2.289,1.873,1.873,0,0,0-1.621-.812,1.842,1.842,0,0,0-1.6.807A4.395,4.395,0,0,0-37.349-5.181ZM-25.444,0h-2.832V-15h2.832Zm5.3,0h-2.832V-10.566h2.832Zm-3-13.3a1.39,1.39,0,0,1,.425-1.045,1.6,1.6,0,0,1,1.157-.41,1.6,1.6,0,0,1,1.152.41,1.382,1.382,0,0,1,.43,1.045,1.386,1.386,0,0,1-.435,1.055,1.6,1.6,0,0,1-1.147.41,1.6,1.6,0,0,1-1.147-.41A1.386,1.386,0,0,1-23.14-13.3ZM-13.423-2.08a1.851,1.851,0,0,0,1.27-.43,1.506,1.506,0,0,0,.508-1.143H-9a3.62,3.62,0,0,1-.586,1.968A3.866,3.866,0,0,1-11.162-.3,4.936,4.936,0,0,1-13.374.2a4.587,4.587,0,0,1-3.574-1.44,5.7,5.7,0,0,1-1.309-3.979V-5.41a5.635,5.635,0,0,1,1.3-3.9,4.534,4.534,0,0,1,3.564-1.455,4.444,4.444,0,0,1,3.179,1.128A3.994,3.994,0,0,1-9-6.631h-2.646a1.939,1.939,0,0,0-.508-1.34,1.693,1.693,0,0,0-1.289-.515,1.7,1.7,0,0,0-1.489.719,4.166,4.166,0,0,0-.5,2.333v.293a4.219,4.219,0,0,0,.5,2.347A1.721,1.721,0,0,0-13.423-2.08ZM-4.409,0H-7.241V-10.566h2.832Zm-3-13.3a1.39,1.39,0,0,1,.425-1.045,1.6,1.6,0,0,1,1.157-.41,1.6,1.6,0,0,1,1.152.41,1.382,1.382,0,0,1,.43,1.045,1.386,1.386,0,0,1-.435,1.055,1.6,1.6,0,0,1-1.147.41,1.6,1.6,0,0,1-1.147-.41A1.386,1.386,0,0,1-7.407-13.3Zm8.7.137v2.6H3.1V-8.5H1.294v5.273a1.259,1.259,0,0,0,.225.84,1.128,1.128,0,0,0,.859.254,4.5,4.5,0,0,0,.83-.068V-.059A5.81,5.81,0,0,1,1.5.2q-2.969,0-3.027-3V-8.5H-3.071v-2.07h1.543v-2.6ZM11-1.074A3.539,3.539,0,0,1,8.11.2,3.338,3.338,0,0,1,5.518-.781,4.169,4.169,0,0,1,4.6-3.643v-6.924H7.427v6.834q0,1.652,1.5,1.652a2.038,2.038,0,0,0,1.973-1v-7.489h2.832V0H11.079Zm4.424-4.287A6.368,6.368,0,0,1,16.533-9.3a3.6,3.6,0,0,1,3.032-1.465,3.236,3.236,0,0,1,2.549,1.152V-15h2.832V0H22.4l-.137-1.123A3.321,3.321,0,0,1,19.546.2a3.587,3.587,0,0,1-2.993-1.47A6.573,6.573,0,0,1,15.425-5.361Zm2.822.21a4.171,4.171,0,0,0,.518,2.279,1.686,1.686,0,0,0,1.5.792,1.888,1.888,0,0,0,1.846-1.105V-7.362a1.861,1.861,0,0,0-1.826-1.105Q18.247-8.467,18.247-5.151Zm13.428-.21A6.368,6.368,0,0,1,32.783-9.3a3.6,3.6,0,0,1,3.032-1.465,3.236,3.236,0,0,1,2.549,1.152V-15H41.2V0H38.647l-.137-1.123A3.321,3.321,0,0,1,35.8.2,3.587,3.587,0,0,1,32.8-1.274,6.573,6.573,0,0,1,31.675-5.361Zm2.822.21a4.171,4.171,0,0,0,.518,2.279,1.686,1.686,0,0,0,1.5.792,1.888,1.888,0,0,0,1.846-1.105V-7.362a1.861,1.861,0,0,0-1.826-1.105Q34.5-8.467,34.5-5.151ZM48.247.2A5.187,5.187,0,0,1,44.463-1.23,5.068,5.068,0,0,1,43-5.029V-5.3a6.383,6.383,0,0,1,.615-2.847,4.515,4.515,0,0,1,1.743-1.934,4.893,4.893,0,0,1,2.573-.679,4.385,4.385,0,0,1,3.413,1.367,5.555,5.555,0,0,1,1.245,3.877v1.152H45.864a2.622,2.622,0,0,0,.825,1.66,2.5,2.5,0,0,0,1.743.625,3.046,3.046,0,0,0,2.549-1.182l1.387,1.553a4.237,4.237,0,0,1-1.719,1.4A5.639,5.639,0,0,1,48.247.2Zm-.322-8.682a1.764,1.764,0,0,0-1.362.569,2.946,2.946,0,0,0-.669,1.628h3.926v-.226a2.1,2.1,0,0,0-.508-1.457A1.819,1.819,0,0,0,47.925-8.486ZM-49.7,21h-2.832V10.434H-49.7Zm-3-13.3a1.39,1.39,0,0,1,.425-1.045,1.6,1.6,0,0,1,1.157-.41,1.6,1.6,0,0,1,1.152.41,1.382,1.382,0,0,1,.43,1.045,1.386,1.386,0,0,1-.435,1.055,1.6,1.6,0,0,1-1.147.41,1.6,1.6,0,0,1-1.147-.41A1.386,1.386,0,0,1-52.7,7.7Zm7.92,2.734.088,1.221a3.689,3.689,0,0,1,3.037-1.416,3.066,3.066,0,0,1,2.5.986,4.6,4.6,0,0,1,.84,2.949V21h-2.822V14.242a1.831,1.831,0,0,0-.391-1.3,1.749,1.749,0,0,0-1.3-.405,1.942,1.942,0,0,0-1.787,1.016V21h-2.822V10.434Zm11.982-2.6v2.6h1.807V12.5h-1.807v5.273a1.259,1.259,0,0,0,.225.84,1.128,1.128,0,0,0,.859.254,4.5,4.5,0,0,0,.83-.068v2.139a5.81,5.81,0,0,1-1.709.254q-2.969,0-3.027-3V12.5h-1.543v-2.07h1.543v-2.6ZM-24.551,21.2a5.187,5.187,0,0,1-3.784-1.426,5.068,5.068,0,0,1-1.46-3.8V15.7a6.383,6.383,0,0,1,.615-2.847,4.515,4.515,0,0,1,1.743-1.934,4.893,4.893,0,0,1,2.573-.679,4.385,4.385,0,0,1,3.413,1.367,5.555,5.555,0,0,1,1.245,3.877v1.152h-6.729a2.622,2.622,0,0,0,.825,1.66,2.5,2.5,0,0,0,1.743.625,3.046,3.046,0,0,0,2.549-1.182l1.387,1.553a4.237,4.237,0,0,1-1.719,1.4A5.639,5.639,0,0,1-24.551,21.2Zm-.322-8.682a1.764,1.764,0,0,0-1.362.569,2.946,2.946,0,0,0-.669,1.628h3.926v-.226a2.1,2.1,0,0,0-.508-1.457A1.819,1.819,0,0,0-24.873,12.514Zm12.207.566A7.667,7.667,0,0,0-13.682,13a2.067,2.067,0,0,0-2.1,1.084V21H-18.6V10.434h2.666l.078,1.26a2.615,2.615,0,0,1,2.354-1.455,2.957,2.957,0,0,1,.879.127ZM-7.1,18.92a1.851,1.851,0,0,0,1.27-.43,1.506,1.506,0,0,0,.508-1.143h2.646a3.62,3.62,0,0,1-.586,1.968A3.866,3.866,0,0,1-4.839,20.7a4.936,4.936,0,0,1-2.212.493,4.587,4.587,0,0,1-3.574-1.44,5.7,5.7,0,0,1-1.309-3.979V15.59a5.635,5.635,0,0,1,1.3-3.9A4.534,4.534,0,0,1-7.07,10.238a4.444,4.444,0,0,1,3.179,1.128,3.994,3.994,0,0,1,1.216,3H-5.322a1.939,1.939,0,0,0-.508-1.34,1.693,1.693,0,0,0-1.289-.515,1.7,1.7,0,0,0-1.489.719,4.166,4.166,0,0,0-.5,2.333v.293a4.219,4.219,0,0,0,.5,2.347A1.721,1.721,0,0,0-7.1,18.92ZM5.059,21a3.134,3.134,0,0,1-.283-.947A3.415,3.415,0,0,1,2.109,21.2a3.752,3.752,0,0,1-2.573-.9,2.89,2.89,0,0,1-1.021-2.266A2.986,2.986,0,0,1-.239,15.453a6.144,6.144,0,0,1,3.6-.908h1.3v-.605a1.741,1.741,0,0,0-.376-1.172A1.479,1.479,0,0,0,3.1,12.328a1.682,1.682,0,0,0-1.118.342,1.161,1.161,0,0,0-.405.938H-1.25a2.835,2.835,0,0,1,.566-1.7,3.744,3.744,0,0,1,1.6-1.226,5.837,5.837,0,0,1,2.324-.444,4.611,4.611,0,0,1,3.1.981A3.433,3.433,0,0,1,7.49,13.979v4.58a5.052,5.052,0,0,0,.42,2.275V21ZM2.725,19.037a2.431,2.431,0,0,0,1.152-.278,1.828,1.828,0,0,0,.781-.747V16.2H3.6q-2.119,0-2.256,1.465l-.01.166a1.13,1.13,0,0,0,.371.869A1.441,1.441,0,0,0,2.725,19.037Zm9.58-8.6.088,1.182a3.713,3.713,0,0,1,3.037-1.377,2.818,2.818,0,0,1,2.8,1.611,3.628,3.628,0,0,1,3.174-1.611,3.152,3.152,0,0,1,2.559,1,4.6,4.6,0,0,1,.84,3.013V21H21.973V14.262a2.012,2.012,0,0,0-.352-1.313,1.558,1.558,0,0,0-1.24-.415,1.761,1.761,0,0,0-1.758,1.211L18.633,21H15.811V14.271a1.988,1.988,0,0,0-.361-1.328,1.573,1.573,0,0,0-1.23-.41,1.829,1.829,0,0,0-1.738,1V21H9.658V10.434Zm24.189,5.381a6.4,6.4,0,0,1-1.084,3.96A3.591,3.591,0,0,1,32.383,21.2a3.3,3.3,0,0,1-2.744-1.318L29.512,21H26.973V6h2.822v5.381a3.214,3.214,0,0,1,2.568-1.143A3.62,3.62,0,0,1,35.4,11.659a6.408,6.408,0,0,1,1.1,4Zm-2.822-.205a4.2,4.2,0,0,0-.508-2.339,1.717,1.717,0,0,0-1.514-.737,1.862,1.862,0,0,0-1.855,1.1v4.17A1.887,1.887,0,0,0,31.67,18.92a1.742,1.742,0,0,0,1.8-1.348A6.952,6.952,0,0,0,33.672,15.609ZM41.211,21H38.379V10.434h2.832Zm-3-13.3a1.39,1.39,0,0,1,.425-1.045,1.831,1.831,0,0,1,2.31,0,1.382,1.382,0,0,1,.43,1.045,1.386,1.386,0,0,1-.435,1.055,1.81,1.81,0,0,1-2.295,0A1.386,1.386,0,0,1,38.213,7.7Zm4.883,7.92a6.267,6.267,0,0,1,.605-2.8,4.432,4.432,0,0,1,1.743-1.9,5.086,5.086,0,0,1,2.642-.674,4.812,4.812,0,0,1,3.491,1.309A5.252,5.252,0,0,1,53.086,15.1l.02.723a5.523,5.523,0,0,1-1.357,3.9,5.261,5.261,0,0,1-7.29,0A5.62,5.62,0,0,1,43.1,15.746Zm2.822.2a3.95,3.95,0,0,0,.566,2.3,2.035,2.035,0,0,0,3.223.01,4.322,4.322,0,0,0,.576-2.518,3.91,3.91,0,0,0-.576-2.289,1.873,1.873,0,0,0-1.621-.812,1.842,1.842,0,0,0-1.6.807A4.395,4.395,0,0,0,45.918,15.819ZM-35.645,36.639A6.368,6.368,0,0,1-34.536,32.7,3.6,3.6,0,0,1-31.5,31.238a3.236,3.236,0,0,1,2.549,1.152V27h2.832V42h-2.549l-.137-1.123A3.321,3.321,0,0,1-31.523,42.2a3.587,3.587,0,0,1-2.993-1.47A6.573,6.573,0,0,1-35.645,36.639Zm2.822.21a4.171,4.171,0,0,0,.518,2.279,1.686,1.686,0,0,0,1.5.792,1.888,1.888,0,0,0,1.846-1.105V34.638a1.861,1.861,0,0,0-1.826-1.105Q-32.822,33.533-32.822,36.849Zm13.75,5.347a5.187,5.187,0,0,1-3.784-1.426,5.068,5.068,0,0,1-1.46-3.8V36.7a6.383,6.383,0,0,1,.615-2.847,4.515,4.515,0,0,1,1.743-1.934,4.893,4.893,0,0,1,2.573-.679,4.385,4.385,0,0,1,3.413,1.367,5.555,5.555,0,0,1,1.245,3.877v1.152h-6.729a2.622,2.622,0,0,0,.825,1.66,2.494,2.494,0,0,0,1.743.625,3.046,3.046,0,0,0,2.549-1.182l1.387,1.553a4.237,4.237,0,0,1-1.719,1.4A5.639,5.639,0,0,1-19.072,42.2Zm-.322-8.682a1.764,1.764,0,0,0-1.362.569,2.946,2.946,0,0,0-.669,1.628H-17.5v-.226a2.1,2.1,0,0,0-.508-1.457A1.819,1.819,0,0,0-19.395,33.514Zm14.629-4.678v2.6h1.807V33.5H-4.766v5.273a1.259,1.259,0,0,0,.225.84,1.128,1.128,0,0,0,.859.254,4.5,4.5,0,0,0,.83-.068v2.139a5.81,5.81,0,0,1-1.709.254q-2.969,0-3.027-3V33.5H-9.131v-2.07h1.543v-2.6ZM3.477,42.2A5.187,5.187,0,0,1-.308,40.77a5.068,5.068,0,0,1-1.46-3.8V36.7a6.383,6.383,0,0,1,.615-2.847A4.515,4.515,0,0,1,.591,31.917a4.893,4.893,0,0,1,2.573-.679,4.385,4.385,0,0,1,3.413,1.367,5.555,5.555,0,0,1,1.245,3.877v1.152H1.094a2.622,2.622,0,0,0,.825,1.66,2.494,2.494,0,0,0,1.743.625,3.046,3.046,0,0,0,2.549-1.182L7.6,40.291a4.237,4.237,0,0,1-1.719,1.4A5.639,5.639,0,0,1,3.477,42.2Zm-.322-8.682a1.764,1.764,0,0,0-1.362.569,2.946,2.946,0,0,0-.669,1.628H5.049v-.226a2.1,2.1,0,0,0-.508-1.457A1.819,1.819,0,0,0,3.154,33.514Zm10.293,1.074,1.777-3.154h3.018l-3.008,5.176L18.369,42H15.342l-1.885-3.32L11.582,42H8.545l3.135-5.391-3-5.176h3.027Zm9.531-5.752v2.6h1.807V33.5H22.979v5.273a1.259,1.259,0,0,0,.225.84,1.128,1.128,0,0,0,.859.254,4.5,4.5,0,0,0,.83-.068v2.139a5.81,5.81,0,0,1-1.709.254q-2.969,0-3.027-3V33.5H18.613v-2.07h1.543v-2.6Zm2.646,7.783a6.266,6.266,0,0,1,.605-2.8,4.432,4.432,0,0,1,1.743-1.9,5.086,5.086,0,0,1,2.642-.674,4.812,4.812,0,0,1,3.491,1.309A5.252,5.252,0,0,1,35.615,36.1l.02.723a5.523,5.523,0,0,1-1.357,3.9,4.718,4.718,0,0,1-3.643,1.47,4.742,4.742,0,0,1-3.647-1.465,5.62,5.62,0,0,1-1.362-3.984Zm2.822.2a3.95,3.95,0,0,0,.566,2.3,2.035,2.035,0,0,0,3.223.01,4.322,4.322,0,0,0,.576-2.518,3.91,3.91,0,0,0-.576-2.289,1.873,1.873,0,0,0-1.621-.812,1.842,1.842,0,0,0-1.6.807A4.395,4.395,0,0,0,28.447,36.819Z" transform="translate(557.893 10043.99)" fill="#12263f"/>
    <path id="Trazado_194514" data-name="Trazado 194514" d="M-52.115-3.357A1.353,1.353,0,0,0-52.642-4.5a6.917,6.917,0,0,0-1.9-.844,13.458,13.458,0,0,1-2.171-.875A3.547,3.547,0,0,1-58.891-9.4a3.09,3.09,0,0,1,.584-1.85,3.812,3.812,0,0,1,1.679-1.27,6.318,6.318,0,0,1,2.457-.457,5.751,5.751,0,0,1,2.443.5,3.891,3.891,0,0,1,1.666,1.4,3.668,3.668,0,0,1,.593,2.057h-2.637a1.726,1.726,0,0,0-.554-1.367,2.276,2.276,0,0,0-1.556-.488,2.432,2.432,0,0,0-1.5.409,1.289,1.289,0,0,0-.536,1.077,1.235,1.235,0,0,0,.628,1.046,7.1,7.1,0,0,0,1.85.791A7.994,7.994,0,0,1-50.5-5.871a3.343,3.343,0,0,1,1.028,2.5A3.08,3.08,0,0,1-50.726-.769,5.5,5.5,0,0,1-54.11.176,6.534,6.534,0,0,1-56.8-.365a4.256,4.256,0,0,1-1.85-1.481,3.793,3.793,0,0,1-.637-2.18h2.646q0,2.118,2.531,2.118a2.462,2.462,0,0,0,1.468-.382A1.244,1.244,0,0,0-52.115-3.357Zm8.64,3.533a4.668,4.668,0,0,1-3.406-1.283,4.561,4.561,0,0,1-1.314-3.419v-.246a5.745,5.745,0,0,1,.554-2.562,4.064,4.064,0,0,1,1.569-1.74,4.4,4.4,0,0,1,2.316-.611,3.947,3.947,0,0,1,3.072,1.23,5,5,0,0,1,1.121,3.489v1.037H-45.62a2.36,2.36,0,0,0,.743,1.494,2.245,2.245,0,0,0,1.569.563,2.742,2.742,0,0,0,2.294-1.063l1.248,1.4A3.813,3.813,0,0,1-41.313-.277,5.075,5.075,0,0,1-43.475.176Zm-.29-7.813a1.587,1.587,0,0,0-1.226.512,2.651,2.651,0,0,0-.6,1.466h3.533v-.2a1.891,1.891,0,0,0-.457-1.311A1.638,1.638,0,0,0-43.765-7.638Zm10.986.51a6.9,6.9,0,0,0-.914-.07,1.86,1.86,0,0,0-1.89.976V0h-2.54V-9.51h2.4l.07,1.134a2.354,2.354,0,0,1,2.118-1.31,2.662,2.662,0,0,1,.791.114ZM-27.839-3.1l1.767-6.407h2.654L-26.626,0h-2.426L-32.26-9.51h2.654ZM-19.622,0H-22.17V-9.51h2.549Zm-2.7-11.971a1.251,1.251,0,0,1,.382-.94A1.436,1.436,0,0,1-20.9-13.28a1.44,1.44,0,0,1,1.037.369,1.244,1.244,0,0,1,.387.94,1.247,1.247,0,0,1-.391.949,1.443,1.443,0,0,1-1.033.369,1.443,1.443,0,0,1-1.033-.369A1.247,1.247,0,0,1-22.32-11.971Zm8.745,10.1a1.666,1.666,0,0,0,1.143-.387,1.355,1.355,0,0,0,.457-1.028h2.382a3.258,3.258,0,0,1-.527,1.771A3.48,3.48,0,0,1-11.54-.268a4.442,4.442,0,0,1-1.991.444,4.129,4.129,0,0,1-3.217-1.3A5.13,5.13,0,0,1-17.925-4.7v-.167a5.071,5.071,0,0,1,1.169-3.507,4.08,4.08,0,0,1,3.208-1.31A4,4,0,0,1-10.687-8.67a3.594,3.594,0,0,1,1.094,2.7h-2.382a1.745,1.745,0,0,0-.457-1.206,1.524,1.524,0,0,0-1.16-.464,1.53,1.53,0,0,0-1.34.647,3.749,3.749,0,0,0-.453,2.1v.264a3.8,3.8,0,0,0,.448,2.113A1.549,1.549,0,0,0-13.575-1.872ZM-5.462,0H-8.011V-9.51h2.549Zm-2.7-11.971a1.251,1.251,0,0,1,.382-.94,1.436,1.436,0,0,1,1.042-.369,1.44,1.44,0,0,1,1.037.369,1.244,1.244,0,0,1,.387.94,1.247,1.247,0,0,1-.391.949,1.443,1.443,0,0,1-1.033.369,1.443,1.443,0,0,1-1.033-.369A1.247,1.247,0,0,1-8.161-11.971Zm4.395,7.128a5.64,5.64,0,0,1,.545-2.522A3.989,3.989,0,0,1-1.652-9.079,4.577,4.577,0,0,1,.725-9.686,4.33,4.33,0,0,1,3.867-8.508a4.727,4.727,0,0,1,1.358,3.2l.018.65A4.97,4.97,0,0,1,4.021-1.147,4.247,4.247,0,0,1,.743.176,4.268,4.268,0,0,1-2.54-1.143,5.058,5.058,0,0,1-3.766-4.729Zm2.54.18a3.555,3.555,0,0,0,.51,2.073,1.682,1.682,0,0,0,1.459.717,1.686,1.686,0,0,0,1.441-.709A3.89,3.89,0,0,0,2.7-4.847a3.519,3.519,0,0,0-.519-2.06A1.686,1.686,0,0,0,.725-7.638a1.658,1.658,0,0,0-1.441.726A3.955,3.955,0,0,0-1.226-4.662ZM18.092-3.357A1.353,1.353,0,0,0,17.565-4.5a6.917,6.917,0,0,0-1.9-.844A13.458,13.458,0,0,1,13.5-6.223,3.547,3.547,0,0,1,11.316-9.4a3.09,3.09,0,0,1,.584-1.85,3.812,3.812,0,0,1,1.679-1.27,6.318,6.318,0,0,1,2.457-.457,5.751,5.751,0,0,1,2.443.5,3.891,3.891,0,0,1,1.666,1.4,3.668,3.668,0,0,1,.593,2.057H18.1a1.726,1.726,0,0,0-.554-1.367,2.276,2.276,0,0,0-1.556-.488,2.432,2.432,0,0,0-1.5.409,1.289,1.289,0,0,0-.536,1.077,1.235,1.235,0,0,0,.628,1.046,7.1,7.1,0,0,0,1.85.791,7.994,7.994,0,0,1,3.278,1.679,3.343,3.343,0,0,1,1.028,2.5A3.08,3.08,0,0,1,19.481-.769,5.5,5.5,0,0,1,16.1.176a6.534,6.534,0,0,1-2.689-.541,4.256,4.256,0,0,1-1.85-1.481,3.793,3.793,0,0,1-.637-2.18h2.646q0,2.118,2.531,2.118a2.462,2.462,0,0,0,1.468-.382A1.244,1.244,0,0,0,18.092-3.357ZM25.967-12.8l3.287,9.281,3.27-9.281h3.463V0H33.341V-3.5L33.6-9.536,30.151,0H28.34L24.9-9.527,25.159-3.5V0H22.522V-12.8Zm21.955,2.136H44V0H41.366V-10.661H37.5V-12.8H47.922Zm4.14,6.152V0H49.425V-12.8h4.992a5.776,5.776,0,0,1,2.536.527,3.886,3.886,0,0,1,1.683,1.5,4.178,4.178,0,0,1,.589,2.21,3.674,3.674,0,0,1-1.288,2.966,5.363,5.363,0,0,1-3.564,1.085Zm0-2.136h2.355a2.316,2.316,0,0,0,1.6-.492,1.79,1.79,0,0,0,.549-1.406,2.111,2.111,0,0,0-.554-1.521,2.068,2.068,0,0,0-1.529-.6H52.062Z" transform="translate(851.97 10041.99)" fill="#12263f"/>
    <path id="Trazado_194513" data-name="Trazado 194513" d="M-39.438-5.01V0h-2.93V-14.219h5.547A6.417,6.417,0,0,1-34-13.633a4.318,4.318,0,0,1,1.87,1.665,4.643,4.643,0,0,1,.654,2.456,4.083,4.083,0,0,1-1.431,3.3A5.959,5.959,0,0,1-36.87-5.01Zm0-2.373h2.617a2.573,2.573,0,0,0,1.772-.547,1.989,1.989,0,0,0,.61-1.562,2.345,2.345,0,0,0-.615-1.689,2.3,2.3,0,0,0-1.7-.664h-2.686Zm15.723-.537A7.667,7.667,0,0,0-24.731-8a2.067,2.067,0,0,0-2.1,1.084V0h-2.822V-10.566h2.666l.078,1.26a2.615,2.615,0,0,1,2.354-1.455,2.957,2.957,0,0,1,.879.127Zm.566,2.539a6.266,6.266,0,0,1,.605-2.8,4.432,4.432,0,0,1,1.743-1.9,5.086,5.086,0,0,1,2.642-.674,4.812,4.812,0,0,1,3.491,1.309A5.252,5.252,0,0,1-13.159-5.9l.02.723a5.523,5.523,0,0,1-1.357,3.9A4.718,4.718,0,0,1-18.14.2,4.742,4.742,0,0,1-21.787-1.27a5.62,5.62,0,0,1-1.362-3.984Zm2.822.2a3.95,3.95,0,0,0,.566,2.3,1.868,1.868,0,0,0,1.621.8,1.873,1.873,0,0,0,1.6-.787,4.322,4.322,0,0,0,.576-2.518,3.91,3.91,0,0,0-.576-2.289,1.873,1.873,0,0,0-1.621-.812,1.842,1.842,0,0,0-1.6.807A4.395,4.395,0,0,0-20.327-5.181Zm12.3-7.984v2.6h1.807V-8.5H-8.022v5.273a1.259,1.259,0,0,0,.225.84,1.128,1.128,0,0,0,.859.254,4.5,4.5,0,0,0,.83-.068V-.059A5.81,5.81,0,0,1-7.817.2q-2.969,0-3.027-3V-8.5h-1.543v-2.07h1.543v-2.6Zm2.646,7.783a6.266,6.266,0,0,1,.605-2.8,4.432,4.432,0,0,1,1.743-1.9,5.086,5.086,0,0,1,2.642-.674A4.812,4.812,0,0,1,3.105-9.453,5.252,5.252,0,0,1,4.614-5.9l.02.723a5.523,5.523,0,0,1-1.357,3.9A4.718,4.718,0,0,1-.366.2,4.742,4.742,0,0,1-4.014-1.27,5.62,5.62,0,0,1-5.376-5.254Zm2.822.2a3.95,3.95,0,0,0,.566,2.3,1.868,1.868,0,0,0,1.621.8,1.873,1.873,0,0,0,1.6-.787,4.322,4.322,0,0,0,.576-2.518,3.91,3.91,0,0,0-.576-2.289A1.873,1.873,0,0,0-.386-8.486a1.842,1.842,0,0,0-1.6.807A4.395,4.395,0,0,0-2.554-5.181Zm13.32,3.1a1.851,1.851,0,0,0,1.27-.43,1.506,1.506,0,0,0,.508-1.143H15.19A3.62,3.62,0,0,1,14.6-1.685,3.866,3.866,0,0,1,13.027-.3,4.936,4.936,0,0,1,10.815.2a4.587,4.587,0,0,1-3.574-1.44A5.7,5.7,0,0,1,5.933-5.225V-5.41a5.635,5.635,0,0,1,1.3-3.9A4.534,4.534,0,0,1,10.8-10.762a4.444,4.444,0,0,1,3.179,1.128,3.994,3.994,0,0,1,1.216,3H12.544a1.939,1.939,0,0,0-.508-1.34,1.693,1.693,0,0,0-1.289-.515,1.7,1.7,0,0,0-1.489.719,4.166,4.166,0,0,0-.5,2.333v.293a4.219,4.219,0,0,0,.5,2.347A1.721,1.721,0,0,0,10.767-2.08Zm5.6-3.3a6.266,6.266,0,0,1,.605-2.8,4.432,4.432,0,0,1,1.743-1.9,5.086,5.086,0,0,1,2.642-.674,4.812,4.812,0,0,1,3.491,1.309A5.252,5.252,0,0,1,26.353-5.9l.02.723a5.523,5.523,0,0,1-1.357,3.9A4.718,4.718,0,0,1,21.372.2,4.742,4.742,0,0,1,17.725-1.27a5.62,5.62,0,0,1-1.362-3.984Zm2.822.2a3.95,3.95,0,0,0,.566,2.3,1.868,1.868,0,0,0,1.621.8,1.873,1.873,0,0,0,1.6-.787,4.322,4.322,0,0,0,.576-2.518,3.91,3.91,0,0,0-.576-2.289,1.873,1.873,0,0,0-1.621-.812,1.842,1.842,0,0,0-1.6.807A4.395,4.395,0,0,0,19.185-5.181ZM31.089,0H28.257V-15h2.832Zm1.885-5.381a6.267,6.267,0,0,1,.605-2.8,4.432,4.432,0,0,1,1.743-1.9,5.086,5.086,0,0,1,2.642-.674,4.812,4.812,0,0,1,3.491,1.309A5.252,5.252,0,0,1,42.964-5.9l.02.723a5.523,5.523,0,0,1-1.357,3.9A4.718,4.718,0,0,1,37.983.2,4.742,4.742,0,0,1,34.336-1.27a5.62,5.62,0,0,1-1.362-3.984Zm2.822.2a3.95,3.95,0,0,0,.566,2.3,1.868,1.868,0,0,0,1.621.8,1.873,1.873,0,0,0,1.6-.787,4.322,4.322,0,0,0,.576-2.518,3.91,3.91,0,0,0-.576-2.289,1.873,1.873,0,0,0-1.621-.812,1.842,1.842,0,0,0-1.6.807A4.395,4.395,0,0,0,35.8-5.181Zm-43,14.335h-4.355V21h-2.93V9.154h-4.3V6.781H-7.207ZM5.625,16.264a5.031,5.031,0,0,1-1.694,3.613A5.951,5.951,0,0,1-.1,21.2a5.351,5.351,0,0,1-4.3-1.841A7.548,7.548,0,0,1-5.967,14.3v-.869a8.523,8.523,0,0,1,.723-3.613,5.416,5.416,0,0,1,2.065-2.4,5.786,5.786,0,0,1,3.12-.835A5.8,5.8,0,0,1,3.906,7.9a5.407,5.407,0,0,1,1.738,3.7H2.715a2.97,2.97,0,0,0-.767-2,2.839,2.839,0,0,0-2.007-.62,2.489,2.489,0,0,0-2.192,1.05A5.883,5.883,0,0,0-3,13.295v1.074a6.3,6.3,0,0,0,.7,3.369A2.443,2.443,0,0,0-.1,18.8a2.892,2.892,0,0,0,2.026-.62A2.8,2.8,0,0,0,2.7,16.264Zm4.854-.273V21H7.549V6.781H13.1a6.417,6.417,0,0,1,2.817.586,4.318,4.318,0,0,1,1.87,1.665,4.643,4.643,0,0,1,.654,2.456,4.083,4.083,0,0,1-1.431,3.3,5.959,5.959,0,0,1-3.96,1.206Zm0-2.373H13.1a2.573,2.573,0,0,0,1.772-.547,1.989,1.989,0,0,0,.61-1.562,2.345,2.345,0,0,0-.615-1.689,2.3,2.3,0,0,0-1.7-.664H10.479Z" transform="translate(861.059 10080.929)" fill="#12263f"/>
    <path id="Trazado_194516" data-name="Trazado 194516" d="M-34.912-5.205h-2.334V0h-2.93V-14.219h5.283A5.972,5.972,0,0,1-31.006-13.1a3.876,3.876,0,0,1,1.367,3.174,4.374,4.374,0,0,1-.63,2.427,4.3,4.3,0,0,1-1.909,1.548L-29.1-.137V0h-3.145Zm-2.334-2.373h2.363a2.42,2.42,0,0,0,1.709-.562,2.007,2.007,0,0,0,.605-1.548,2.148,2.148,0,0,0-.571-1.582,2.374,2.374,0,0,0-1.753-.576h-2.354ZM-22.734.2A5.187,5.187,0,0,1-26.519-1.23a5.068,5.068,0,0,1-1.46-3.8V-5.3a6.383,6.383,0,0,1,.615-2.847,4.515,4.515,0,0,1,1.743-1.934,4.893,4.893,0,0,1,2.573-.679,4.385,4.385,0,0,1,3.413,1.367,5.555,5.555,0,0,1,1.245,3.877v1.152h-6.729a2.622,2.622,0,0,0,.825,1.66,2.5,2.5,0,0,0,1.743.625A3.046,3.046,0,0,0-20-3.262l1.387,1.553a4.237,4.237,0,0,1-1.719,1.4A5.639,5.639,0,0,1-22.734.2Zm-.322-8.682a1.764,1.764,0,0,0-1.362.569,2.946,2.946,0,0,0-.669,1.628h3.926v-.226a2.1,2.1,0,0,0-.508-1.457A1.819,1.819,0,0,0-23.057-8.486Zm5.83,3.125A6.368,6.368,0,0,1-16.118-9.3a3.6,3.6,0,0,1,3.032-1.465,3.236,3.236,0,0,1,2.549,1.152V-15h2.832V0h-2.549l-.137-1.123A3.321,3.321,0,0,1-13.105.2,3.587,3.587,0,0,1-16.1-1.274,6.573,6.573,0,0,1-17.227-5.361Zm2.822.21a4.171,4.171,0,0,0,.518,2.279,1.686,1.686,0,0,0,1.5.792,1.888,1.888,0,0,0,1.846-1.105V-7.362a1.861,1.861,0,0,0-1.826-1.105Q-14.4-8.467-14.4-5.151ZM2.441,0H-.391V-15H2.441ZM4.326-5.381a6.266,6.266,0,0,1,.605-2.8,4.432,4.432,0,0,1,1.743-1.9,5.086,5.086,0,0,1,2.642-.674,4.812,4.812,0,0,1,3.491,1.309A5.252,5.252,0,0,1,14.316-5.9l.02.723a5.523,5.523,0,0,1-1.357,3.9A4.718,4.718,0,0,1,9.336.2,4.742,4.742,0,0,1,5.688-1.27,5.62,5.62,0,0,1,4.326-5.254Zm2.822.2a3.95,3.95,0,0,0,.566,2.3,1.868,1.868,0,0,0,1.621.8,1.873,1.873,0,0,0,1.6-.787,4.322,4.322,0,0,0,.576-2.518,3.91,3.91,0,0,0-.576-2.289,1.873,1.873,0,0,0-1.621-.812,1.842,1.842,0,0,0-1.6.807A4.395,4.395,0,0,0,7.148-5.181Zm13.32,3.1a1.851,1.851,0,0,0,1.27-.43,1.506,1.506,0,0,0,.508-1.143h2.646a3.62,3.62,0,0,1-.586,1.968A3.866,3.866,0,0,1,22.729-.3,4.936,4.936,0,0,1,20.518.2a4.587,4.587,0,0,1-3.574-1.44,5.7,5.7,0,0,1-1.309-3.979V-5.41a5.635,5.635,0,0,1,1.3-3.9A4.534,4.534,0,0,1,20.5-10.762a4.444,4.444,0,0,1,3.179,1.128,3.994,3.994,0,0,1,1.216,3H22.246a1.939,1.939,0,0,0-.508-1.34,1.693,1.693,0,0,0-1.289-.515,1.7,1.7,0,0,0-1.489.719,4.166,4.166,0,0,0-.5,2.333v.293a4.219,4.219,0,0,0,.5,2.347A1.721,1.721,0,0,0,20.469-2.08ZM32.627,0a3.134,3.134,0,0,1-.283-.947A3.415,3.415,0,0,1,29.678.2,3.752,3.752,0,0,1,27.1-.7a2.89,2.89,0,0,1-1.021-2.266,2.986,2.986,0,0,1,1.245-2.578,6.144,6.144,0,0,1,3.6-.908h1.3v-.605a1.741,1.741,0,0,0-.376-1.172,1.479,1.479,0,0,0-1.187-.439,1.682,1.682,0,0,0-1.118.342,1.161,1.161,0,0,0-.405.938H26.318a2.835,2.835,0,0,1,.566-1.7,3.744,3.744,0,0,1,1.6-1.226,5.837,5.837,0,0,1,2.324-.444,4.611,4.611,0,0,1,3.1.981,3.433,3.433,0,0,1,1.147,2.759v4.58a5.052,5.052,0,0,0,.42,2.275V0ZM30.293-1.963a2.431,2.431,0,0,0,1.152-.278,1.828,1.828,0,0,0,.781-.747V-4.8H31.172q-2.119,0-2.256,1.465l-.01.166a1.13,1.13,0,0,0,.371.869A1.441,1.441,0,0,0,30.293-1.963ZM40.205,0H37.373V-15h2.832ZM-15.1,18.646h6.221V21h-9.15V6.781h2.93ZM1.016,18.07H-4.121L-5.1,21H-8.213L-2.92,6.781H-.205L5.117,21H2ZM-3.33,15.7H.225l-1.787-5.322ZM18.008,21h-2.93l-5.7-9.355V21H6.445V6.781h2.93l5.713,9.375V6.781h2.92Z" transform="translate(1158.378 10082.534)" fill="#12263f"/>
    <g transform="matrix(1, 0, 0, 1, 311.18, 9988.94)" filter="url(#Trazado_192908)">
      <path id="Trazado_192908-2" data-name="Trazado 192908" d="M0,12.21H67.163V0l48.983,40.467-48.983,43.7V72.382H0Z" transform="translate(597.75 134.01) rotate(90)" fill="none" stroke="#12263f" stroke-width="1"/>
    </g>
    <g transform="matrix(1, 0, 0, 1, 311.18, 9988.94)" filter="url(#Trazado_192910)">
      <path id="Trazado_192910-2" data-name="Trazado 192910" d="M0,12.21H67.163V0l48.983,40.467-48.983,43.7V72.382H0Z" transform="translate(810.69 250.16) rotate(-90)" fill="none" stroke="#12263f" stroke-width="1"/>
    </g>
    <g transform="matrix(1, 0, 0, 1, 311.18, 9988.94)" filter="url(#Rectángulo_44520)">
      <rect id="Rectángulo_44520-2" data-name="Rectángulo 44520" width="155.78" height="155.78" rx="5" transform="translate(481.5 260.88)" fill="url(#linear-gradient)"/>
    </g>
    <g transform="matrix(1, 0, 0, 1, 311.18, 9988.94)" filter="url(#Rectángulo_44521)">
      <rect id="Rectángulo_44521-2" data-name="Rectángulo 44521" width="155.78" height="155.78" rx="5" transform="translate(774.5 259.28)" fill="url(#linear-gradient)"/>
    </g>
    <path id="Trazado_194515" data-name="Trazado 194515" d="M-56.055-5.01V0h-2.93V-14.219h5.547a6.417,6.417,0,0,1,2.817.586,4.318,4.318,0,0,1,1.87,1.665A4.643,4.643,0,0,1-48.1-9.512a4.083,4.083,0,0,1-1.431,3.3,5.959,5.959,0,0,1-3.96,1.206Zm0-2.373h2.617a2.573,2.573,0,0,0,1.772-.547,1.989,1.989,0,0,0,.61-1.562,2.345,2.345,0,0,0-.615-1.689,2.3,2.3,0,0,0-1.7-.664h-2.686Zm16.113,6.309A3.539,3.539,0,0,1-42.832.2a3.338,3.338,0,0,1-2.593-.977,4.169,4.169,0,0,1-.913-2.861v-6.924h2.822v6.834q0,1.652,1.5,1.652a2.038,2.038,0,0,0,1.973-1v-7.489h2.832V0h-2.656ZM-30.215.2A5.187,5.187,0,0,1-34-1.23a5.068,5.068,0,0,1-1.46-3.8V-5.3a6.383,6.383,0,0,1,.615-2.847A4.515,4.515,0,0,1-33.1-10.083a4.893,4.893,0,0,1,2.573-.679,4.385,4.385,0,0,1,3.413,1.367,5.555,5.555,0,0,1,1.245,3.877v1.152H-32.6a2.622,2.622,0,0,0,.825,1.66,2.5,2.5,0,0,0,1.743.625A3.046,3.046,0,0,0-27.48-3.262l1.387,1.553a4.237,4.237,0,0,1-1.719,1.4A5.639,5.639,0,0,1-30.215.2Zm-.322-8.682a1.764,1.764,0,0,0-1.362.569,2.946,2.946,0,0,0-.669,1.628h3.926v-.226a2.1,2.1,0,0,0-.508-1.457A1.819,1.819,0,0,0-30.537-8.486Zm12.207.566A7.667,7.667,0,0,0-19.346-8a2.067,2.067,0,0,0-2.1,1.084V0h-2.822V-10.566H-21.6l.078,1.26a2.615,2.615,0,0,1,2.354-1.455,2.957,2.957,0,0,1,.879.127Zm5.225-5.244v2.6H-11.3V-8.5h-1.807v5.273a1.259,1.259,0,0,0,.225.84,1.128,1.128,0,0,0,.859.254,4.5,4.5,0,0,0,.83-.068V-.059A5.81,5.81,0,0,1-12.9.2q-2.969,0-3.027-3V-8.5h-1.543v-2.07h1.543v-2.6Zm2.646,7.783a6.267,6.267,0,0,1,.605-2.8,4.432,4.432,0,0,1,1.743-1.9,5.086,5.086,0,0,1,2.642-.674A4.812,4.812,0,0,1-1.978-9.453,5.252,5.252,0,0,1-.469-5.9l.02.723a5.523,5.523,0,0,1-1.357,3.9A4.718,4.718,0,0,1-5.449.2,4.742,4.742,0,0,1-9.1-1.27a5.62,5.62,0,0,1-1.362-3.984Zm2.822.2a3.95,3.95,0,0,0,.566,2.3,1.868,1.868,0,0,0,1.621.8,1.873,1.873,0,0,0,1.6-.787,4.322,4.322,0,0,0,.576-2.518,3.91,3.91,0,0,0-.576-2.289,1.873,1.873,0,0,0-1.621-.812,1.842,1.842,0,0,0-1.6.807A4.395,4.395,0,0,0-7.637-5.181ZM9.248,0H6.416V-15H9.248Zm1.885-5.381a6.267,6.267,0,0,1,.605-2.8,4.432,4.432,0,0,1,1.743-1.9,5.086,5.086,0,0,1,2.642-.674,4.812,4.812,0,0,1,3.491,1.309A5.252,5.252,0,0,1,21.123-5.9l.02.723a5.523,5.523,0,0,1-1.357,3.9A4.718,4.718,0,0,1,16.143.2,4.742,4.742,0,0,1,12.5-1.27a5.62,5.62,0,0,1-1.362-3.984Zm2.822.2a3.95,3.95,0,0,0,.566,2.3,1.868,1.868,0,0,0,1.621.8,1.873,1.873,0,0,0,1.6-.787,4.322,4.322,0,0,0,.576-2.518,3.91,3.91,0,0,0-.576-2.289,1.873,1.873,0,0,0-1.621-.812,1.842,1.842,0,0,0-1.6.807A4.395,4.395,0,0,0,13.955-5.181ZM16.68-15h3.076l-2.705,3.027H14.756Zm5.791,9.639a6.193,6.193,0,0,1,1.157-3.916,3.75,3.75,0,0,1,3.12-1.484A3.289,3.289,0,0,1,29.453-9.57l.117-1h2.559V-.352a4.516,4.516,0,0,1-.63,2.412,4.045,4.045,0,0,1-1.772,1.563,6.231,6.231,0,0,1-2.676.537A5.794,5.794,0,0,1,24.785,3.7a4.021,4.021,0,0,1-1.67-1.2L24.365.781a3.306,3.306,0,0,0,2.559,1.182,2.42,2.42,0,0,0,1.748-.6,2.253,2.253,0,0,0,.625-1.7V-.908A3.264,3.264,0,0,1,26.729.2a3.74,3.74,0,0,1-3.081-1.489,6.191,6.191,0,0,1-1.177-3.95Zm2.822.21A3.856,3.856,0,0,0,25.869-2.9a1.833,1.833,0,0,0,1.582.817A1.96,1.96,0,0,0,29.3-3.048V-7.5a1.955,1.955,0,0,0-1.826-.968,1.844,1.844,0,0,0-1.6.831A4.346,4.346,0,0,0,25.293-5.151ZM37.275,0H34.443V-10.566h2.832Zm-3-13.3a1.39,1.39,0,0,1,.425-1.045,1.6,1.6,0,0,1,1.157-.41,1.6,1.6,0,0,1,1.152.41,1.382,1.382,0,0,1,.43,1.045,1.386,1.386,0,0,1-.435,1.055,1.6,1.6,0,0,1-1.147.41,1.6,1.6,0,0,1-1.147-.41A1.386,1.386,0,0,1,34.277-13.3ZM43.994-2.08a1.851,1.851,0,0,0,1.27-.43,1.506,1.506,0,0,0,.508-1.143h2.646a3.62,3.62,0,0,1-.586,1.968A3.866,3.866,0,0,1,46.255-.3,4.936,4.936,0,0,1,44.043.2a4.587,4.587,0,0,1-3.574-1.44A5.7,5.7,0,0,1,39.16-5.225V-5.41a5.635,5.635,0,0,1,1.3-3.9,4.534,4.534,0,0,1,3.564-1.455A4.444,4.444,0,0,1,47.2-9.634a3.994,3.994,0,0,1,1.216,3H45.771a1.939,1.939,0,0,0-.508-1.34,1.693,1.693,0,0,0-1.289-.515,1.7,1.7,0,0,0-1.489.719,4.166,4.166,0,0,0-.5,2.333v.293a4.219,4.219,0,0,0,.5,2.347A1.721,1.721,0,0,0,43.994-2.08Zm5.6-3.3a6.267,6.267,0,0,1,.605-2.8,4.432,4.432,0,0,1,1.743-1.9,5.086,5.086,0,0,1,2.642-.674,4.812,4.812,0,0,1,3.491,1.309A5.252,5.252,0,0,1,59.58-5.9l.02.723a5.523,5.523,0,0,1-1.357,3.9A4.718,4.718,0,0,1,54.6.2,4.742,4.742,0,0,1,50.952-1.27,5.62,5.62,0,0,1,49.59-5.254Zm2.822.2a3.95,3.95,0,0,0,.566,2.3,1.868,1.868,0,0,0,1.621.8,1.873,1.873,0,0,0,1.6-.787,4.322,4.322,0,0,0,.576-2.518A3.91,3.91,0,0,0,56.2-7.675a1.873,1.873,0,0,0-1.621-.812,1.842,1.842,0,0,0-1.6.807A4.395,4.395,0,0,0,52.412-5.181ZM-.762,21h-9.746V19.066l4.6-4.9a11.347,11.347,0,0,0,1.4-1.807,2.9,2.9,0,0,0,.454-1.465A2.172,2.172,0,0,0-4.531,9.4,1.727,1.727,0,0,0-5.9,8.861a1.863,1.863,0,0,0-1.509.659,2.611,2.611,0,0,0-.552,1.733h-2.832a4.661,4.661,0,0,1,.62-2.373A4.371,4.371,0,0,1-8.418,7.2a5.328,5.328,0,0,1,2.568-.61A5.045,5.045,0,0,1-2.437,7.641a3.731,3.731,0,0,1,1.216,2.979,4.781,4.781,0,0,1-.547,2.148,11.939,11.939,0,0,1-1.875,2.549l-3.232,3.408H-.762Zm2.148-6.992.82-7.227h7.969V9.135H4.521L4.17,12.191a4.474,4.474,0,0,1,2.139-.537,4.1,4.1,0,0,1,3.184,1.26,5.032,5.032,0,0,1,1.152,3.525,5.155,5.155,0,0,1-.581,2.466A4.1,4.1,0,0,1,8.4,20.595a5.2,5.2,0,0,1-2.559.6,5.52,5.52,0,0,1-2.393-.522A4.244,4.244,0,0,1,1.7,19.2a4.006,4.006,0,0,1-.679-2.158H3.818a2.086,2.086,0,0,0,.62,1.382,1.966,1.966,0,0,0,1.392.493A1.735,1.735,0,0,0,7.3,18.231a3.189,3.189,0,0,0,.518-1.948,2.637,2.637,0,0,0-.6-1.855,2.186,2.186,0,0,0-1.689-.645,2.443,2.443,0,0,0-1.631.527l-.273.254Z" transform="translate(870.676 10366.793)" fill="#12263f"/>
    <path id="Trazado_194517" data-name="Trazado 194517" d="M-53.506-5.01V0h-2.93V-14.219h5.547a6.417,6.417,0,0,1,2.817.586,4.318,4.318,0,0,1,1.87,1.665,4.643,4.643,0,0,1,.654,2.456,4.083,4.083,0,0,1-1.431,3.3,5.959,5.959,0,0,1-3.96,1.206Zm0-2.373h2.617a2.573,2.573,0,0,0,1.772-.547,1.989,1.989,0,0,0,.61-1.562,2.345,2.345,0,0,0-.615-1.689,2.3,2.3,0,0,0-1.7-.664h-2.686Zm16.113,6.309A3.539,3.539,0,0,1-40.283.2a3.338,3.338,0,0,1-2.593-.977,4.169,4.169,0,0,1-.913-2.861v-6.924h2.822v6.834q0,1.652,1.5,1.652a2.038,2.038,0,0,0,1.973-1v-7.489h2.832V0h-2.656ZM-27.666.2A5.187,5.187,0,0,1-31.45-1.23a5.068,5.068,0,0,1-1.46-3.8V-5.3a6.383,6.383,0,0,1,.615-2.847,4.515,4.515,0,0,1,1.743-1.934,4.893,4.893,0,0,1,2.573-.679,4.385,4.385,0,0,1,3.413,1.367A5.555,5.555,0,0,1-23.32-5.518v1.152h-6.729a2.622,2.622,0,0,0,.825,1.66,2.5,2.5,0,0,0,1.743.625,3.046,3.046,0,0,0,2.549-1.182l1.387,1.553a4.237,4.237,0,0,1-1.719,1.4A5.639,5.639,0,0,1-27.666.2Zm-.322-8.682a1.764,1.764,0,0,0-1.362.569,2.946,2.946,0,0,0-.669,1.628h3.926v-.226A2.1,2.1,0,0,0-26.6-7.971,1.819,1.819,0,0,0-27.988-8.486Zm12.207.566A7.667,7.667,0,0,0-16.8-8a2.067,2.067,0,0,0-2.1,1.084V0h-2.822V-10.566h2.666l.078,1.26a2.615,2.615,0,0,1,2.354-1.455,2.957,2.957,0,0,1,.879.127Zm5.225-5.244v2.6H-8.75V-8.5h-1.807v5.273a1.259,1.259,0,0,0,.225.84,1.128,1.128,0,0,0,.859.254,4.5,4.5,0,0,0,.83-.068V-.059A5.81,5.81,0,0,1-10.352.2q-2.969,0-3.027-3V-8.5h-1.543v-2.07h1.543v-2.6ZM-7.91-5.381a6.266,6.266,0,0,1,.605-2.8,4.432,4.432,0,0,1,1.743-1.9,5.086,5.086,0,0,1,2.642-.674A4.812,4.812,0,0,1,.571-9.453,5.252,5.252,0,0,1,2.08-5.9l.02.723a5.523,5.523,0,0,1-1.357,3.9A4.718,4.718,0,0,1-2.9.2,4.742,4.742,0,0,1-6.548-1.27,5.62,5.62,0,0,1-7.91-5.254Zm2.822.2a3.95,3.95,0,0,0,.566,2.3,1.868,1.868,0,0,0,1.621.8,1.873,1.873,0,0,0,1.6-.787A4.322,4.322,0,0,0-.723-5.386,3.91,3.91,0,0,0-1.3-7.675,1.873,1.873,0,0,0-2.92-8.486a1.842,1.842,0,0,0-1.6.807A4.395,4.395,0,0,0-5.088-5.181ZM9.59,0V-8.5H8.018v-2.07H9.59v-.9a3.648,3.648,0,0,1,1.021-2.759,3.952,3.952,0,0,1,2.856-.981,6.6,6.6,0,0,1,1.436.2l-.029,2.188a3.6,3.6,0,0,0-.859-.088q-1.592,0-1.592,1.494v.85h2.1V-8.5h-2.1V0Zm9.443,0H16.211V-10.566h2.822ZM18.2-14.854h3.076l-2.705,3.027H16.279ZM27.188-2.92a.909.909,0,0,0-.513-.815,5.824,5.824,0,0,0-1.646-.532q-3.77-.791-3.77-3.2a2.9,2.9,0,0,1,1.167-2.349,4.708,4.708,0,0,1,3.052-.942,5.067,5.067,0,0,1,3.218.947A2.985,2.985,0,0,1,29.9-7.354H27.08a1.366,1.366,0,0,0-.391-1,1.653,1.653,0,0,0-1.221-.4,1.689,1.689,0,0,0-1.1.322,1.017,1.017,0,0,0-.391.82.87.87,0,0,0,.444.757,4.571,4.571,0,0,0,1.5.5,12.244,12.244,0,0,1,1.777.474,2.92,2.92,0,0,1,2.236,2.842A2.756,2.756,0,0,1,28.691-.7a5.35,5.35,0,0,1-3.2.894A5.588,5.588,0,0,1,23.13-.278a3.957,3.957,0,0,1-1.616-1.3,3.018,3.018,0,0,1-.586-1.782H23.6a1.473,1.473,0,0,0,.557,1.152,2.208,2.208,0,0,0,1.387.4,2.044,2.044,0,0,0,1.226-.308A.957.957,0,0,0,27.188-2.92ZM34.727,0H31.895V-10.566h2.832Zm-3-13.3a1.39,1.39,0,0,1,.425-1.045,1.6,1.6,0,0,1,1.157-.41,1.6,1.6,0,0,1,1.152.41,1.382,1.382,0,0,1,.43,1.045,1.386,1.386,0,0,1-.435,1.055,1.6,1.6,0,0,1-1.147.41,1.6,1.6,0,0,1-1.147-.41A1.386,1.386,0,0,1,31.729-13.3ZM41.445-2.08a1.851,1.851,0,0,0,1.27-.43,1.506,1.506,0,0,0,.508-1.143h2.646a3.62,3.62,0,0,1-.586,1.968A3.866,3.866,0,0,1,43.706-.3,4.936,4.936,0,0,1,41.494.2a4.587,4.587,0,0,1-3.574-1.44,5.7,5.7,0,0,1-1.309-3.979V-5.41a5.635,5.635,0,0,1,1.3-3.9,4.534,4.534,0,0,1,3.564-1.455,4.444,4.444,0,0,1,3.179,1.128,3.994,3.994,0,0,1,1.216,3H43.223a1.939,1.939,0,0,0-.508-1.34,1.693,1.693,0,0,0-1.289-.515,1.7,1.7,0,0,0-1.489.719,4.166,4.166,0,0,0-.5,2.333v.293a4.219,4.219,0,0,0,.5,2.347A1.721,1.721,0,0,0,41.445-2.08Zm5.6-3.3a6.267,6.267,0,0,1,.605-2.8,4.432,4.432,0,0,1,1.743-1.9,5.086,5.086,0,0,1,2.642-.674,4.812,4.812,0,0,1,3.491,1.309A5.252,5.252,0,0,1,57.031-5.9l.02.723a5.523,5.523,0,0,1-1.357,3.9A4.718,4.718,0,0,1,52.051.2,4.742,4.742,0,0,1,48.4-1.27a5.62,5.62,0,0,1-1.362-3.984Zm2.822.2a3.95,3.95,0,0,0,.566,2.3,1.868,1.868,0,0,0,1.621.8,1.873,1.873,0,0,0,1.6-.787,4.322,4.322,0,0,0,.576-2.518,3.91,3.91,0,0,0-.576-2.289,1.873,1.873,0,0,0-1.621-.812,1.842,1.842,0,0,0-1.6.807A4.395,4.395,0,0,0,49.863-5.181ZM-20.786,15.795H-23.12V21h-2.93V6.781h5.283A5.972,5.972,0,0,1-16.88,7.9a3.876,3.876,0,0,1,1.367,3.174,4.374,4.374,0,0,1-.63,2.427,4.3,4.3,0,0,1-1.909,1.548l3.076,5.811V21H-18.12Zm-2.334-2.373h2.363a2.42,2.42,0,0,0,1.709-.562,2.007,2.007,0,0,0,.605-1.548,2.148,2.148,0,0,0-.571-1.582,2.374,2.374,0,0,0-1.753-.576H-23.12ZM-7.554,6.781h2.93v9.844a4.707,4.707,0,0,1-.6,2.4,4.076,4.076,0,0,1-1.694,1.606A5.293,5.293,0,0,1-9.39,21.2a5.031,5.031,0,0,1-3.516-1.147,4.169,4.169,0,0,1-1.26-3.247h2.949a2.286,2.286,0,0,0,.439,1.543,1.758,1.758,0,0,0,1.387.5,1.679,1.679,0,0,0,1.338-.576,2.434,2.434,0,0,0,.5-1.641ZM3.188,16.049h-5.5V13.773h5.5Zm10.5-.4H15.3v2.275H13.687V21H10.864V17.924H5.034l-.127-1.777,5.928-9.365h2.852Zm-5.967,0h3.145v-5.02l-.186.322Zm9.512-1.641.82-7.227h7.969V9.135H20.366l-.352,3.057a4.474,4.474,0,0,1,2.139-.537,4.1,4.1,0,0,1,3.184,1.26,5.032,5.032,0,0,1,1.152,3.525,5.155,5.155,0,0,1-.581,2.466,4.1,4.1,0,0,1-1.665,1.689,5.2,5.2,0,0,1-2.559.6,5.52,5.52,0,0,1-2.393-.522,4.244,4.244,0,0,1-1.743-1.47,4.006,4.006,0,0,1-.679-2.158h2.793a2.086,2.086,0,0,0,.62,1.382,1.966,1.966,0,0,0,1.392.493,1.735,1.735,0,0,0,1.475-.688,3.189,3.189,0,0,0,.518-1.948,2.637,2.637,0,0,0-.6-1.855,2.186,2.186,0,0,0-1.689-.645,2.443,2.443,0,0,0-1.631.527l-.273.254Z" transform="translate(1162.676 10365.187)" fill="#12263f"/>
    <g id="cvsCpv.tif" transform="translate(1123.676 10266.531)">
      <g id="Grupo_151211" data-name="Grupo 151211" transform="translate(0 0)">
        <path id="Trazado_192911" data-name="Trazado 192911" d="M3520.477-595.5a3.041,3.041,0,0,1-3.267,1.887c-3.509-.07-7.021-.02-10.532-.018h-.894v9.944h2.622c.722,0,1.446-.027,2.168,0a2.516,2.516,0,0,1,2.606,2.667q.022,7.28,0,14.56a2.5,2.5,0,0,1-2.646,2.7q-7.318.024-14.637,0a2.464,2.464,0,0,1-2.629-2.555q-.054-7.4,0-14.792a2.493,2.493,0,0,1,2.7-2.576c1.546-.026,3.093-.005,4.706-.005v-9.886h-39.711v9.891c1.461,0,2.877,0,4.291,0,2.245,0,3.143.9,3.143,3.147q0,6.854,0,13.708c0,2.144-.928,3.074-3.059,3.075q-6.932,0-13.863,0c-2.09,0-3.007-.928-3.008-3.038q0-6.931,0-13.863c0-2.085.94-3.023,3.028-3.029,1.439,0,2.88,0,4.375,0v-9.948h-.848c-3.743,0-7.486.012-11.23-.006a2.486,2.486,0,0,1-2.441-3.385,2.512,2.512,0,0,1,2.516-1.573q6.621-.01,13.243,0l20.446,0h.737v-9.948h-3.317c-.517,0-1.034.02-1.549-.009a2.465,2.465,0,0,1-2.535-2.637c-.019-3.253-.007-6.506-.007-9.758,0-1.626-.014-3.253.005-4.879a2.464,2.464,0,0,1,2.677-2.643q7.24-.018,14.483,0a2.5,2.5,0,0,1,2.719,2.765q.014,7.2,0,14.4a2.5,2.5,0,0,1-2.735,2.752c-1.543.022-3.086,0-4.675,0v9.945h.941c10.972,0,21.944.023,32.915-.018a3.08,3.08,0,0,1,3.267,1.886Zm-57.147,26.732v-9.862h-9.823v9.862Zm44.848,0v-9.863h-9.87v9.863Zm-32.277-54.7v9.883h9.825v-9.883Z" transform="translate(-3441.167 628.484)" fill="#fff"/>
      </g>
    </g>
    <g id="FVuvf5" transform="translate(839.259 10270.617)">
      <g id="Grupo_151212" data-name="Grupo 151212" transform="translate(0 0)">
        <path id="Trazado_192912" data-name="Trazado 192912" d="M4072.514-574.724h-63.522v-63.525h63.522Zm-3.624-3.661c0-.491,0-.862,0-1.232q0-6.57-.009-13.141,0-20.387.026-40.774c0-.808-.15-1.128-1.054-1.127q-27.116.039-54.235,0c-.817,0-1.034.231-1.033,1.043q.035,27.062.021,54.124c0,.361.034.722.052,1.1Z" transform="translate(-4009.576 638.249)" fill="#fff"/>
        <path id="Trazado_192913" data-name="Trazado 192913" d="M4063.988-510.026V-540h7.427v-7.432H4097.5v7.393h7.4v30.009Zm3.683-14.889h33.553v-11.448h-7.459v-7.372h-18.683v7.413h-7.411Zm.007,3.75v7.521c1.113,0,2.134.035,3.15-.029a.856.856,0,0,0,.571-.605q.089-3.127.052-6.256a.851.851,0,0,0-.571-.6C4069.835-521.2,4068.784-521.165,4067.678-521.165Zm26.079,7.459v-7.38h-3.686v7.38Zm3.8-7.428v7.421h3.672v-7.421Zm-22.458-.052c0,2.395-.013,4.641.02,6.887,0,.22.277.616.442.625,1.075.057,2.155.029,3.31.029,0-2.432.016-4.711-.029-6.989,0-.188-.411-.512-.646-.526C4077.222-521.22,4076.237-521.185,4075.1-521.185Zm7.427,7.451h3.743v-7.429c-1.11,0-2.157-.028-3.2.026a.774.774,0,0,0-.521.546C4082.518-518.318,4082.531-516.043,4082.531-513.734Z" transform="translate(-4052.689 566.086)" fill="#fff"/>
        <path id="Trazado_192914" data-name="Trazado 192914" d="M4126.473-601.773v3.517h-25.964v-3.517Z" transform="translate(-4081.708 609.267)" fill="#fff"/>
      </g>
    </g>
    <g id="Grupo_151213" data-name="Grupo 151213" transform="translate(378.938 10230.557)">
      <g transform="matrix(1, 0, 0, 1, -67.76, -241.61)" filter="url(#Rectángulo_44476)">
        <rect id="Rectángulo_44476-2" data-name="Rectángulo 44476" width="312.717" height="37.817" rx="2" transform="translate(67.76 314.43)" fill="url(#linear-gradient)"/>
      </g>
      <text id="Servicio_simplificado_de_correo_electrónico" data-name="Servicio
simplificado
de correo electrónico" transform="translate(4.592 30)" fill="#12263f" font-size="32" font-family="Roboto-Bold, Roboto" font-weight="700"><tspan x="0" y="0">Servicio</tspan><tspan x="0" y="36">simplificado</tspan><tspan fill="#fff"><tspan x="0" y="72">de correo electrónico</tspan></tspan></text>
    </g>
  </g>
</svg>
