<svg xmlns="http://www.w3.org/2000/svg" xmlns:xlink="http://www.w3.org/1999/xlink" width="474.027" height="375.665" viewBox="0 0 474.027 375.665">
  <defs>
    <radialGradient id="radial-gradient" cx="-0.095" cy="0.312" r="0.861" gradientTransform="translate(-0.366) scale(1.732 1)" gradientUnits="objectBoundingBox">
      <stop offset="0" stop-color="#274f89"/>
      <stop offset="1" stop-color="#173d7a"/>
    </radialGradient>
    <linearGradient id="linear-gradient" y1="0.5" x2="1.319" y2="0.5" gradientUnits="objectBoundingBox">
      <stop offset="0" stop-color="#d4ecff"/>
      <stop offset="0.239" stop-color="#d0e9fd"/>
      <stop offset="0.46" stop-color="#c5e2f9"/>
      <stop offset="0.675" stop-color="#b2d5f1"/>
      <stop offset="0.884" stop-color="#98c4e7"/>
      <stop offset="1" stop-color="#86b8e0"/>
    </linearGradient>
    <radialGradient id="radial-gradient-2" cx="-1.237" cy="-0.578" r="1.555" gradientTransform="translate(-0.366) scale(1.732 1)" gradientUnits="objectBoundingBox">
      <stop offset="0" stop-color="#699dd1"/>
      <stop offset="0.266" stop-color="#6296cb"/>
      <stop offset="0.641" stop-color="#5084bd"/>
      <stop offset="1" stop-color="#396caa"/>
    </radialGradient>
    <radialGradient id="radial-gradient-3" cx="-0.095" cy="0.312" r="0.861" xlink:href="#radial-gradient"/>
    <radialGradient id="radial-gradient-4" cx="-1.237" cy="-0.578" r="1.555" xlink:href="#radial-gradient-2"/>
    <radialGradient id="radial-gradient-5" cx="0.055" cy="0.064" r="1.056" gradientTransform="translate(-0.02) scale(1.039 1)" xlink:href="#radial-gradient-2"/>
    <linearGradient id="linear-gradient-3" x1="0.131" y1="0.119" x2="0.99" y2="1.006" gradientUnits="objectBoundingBox">
      <stop offset="0" stop-color="#d4ecff"/>
      <stop offset="0.201" stop-color="#d0e9fd"/>
      <stop offset="0.387" stop-color="#c5e2f9"/>
      <stop offset="0.568" stop-color="#b2d5f1"/>
      <stop offset="0.744" stop-color="#98c4e7"/>
      <stop offset="0.842" stop-color="#86b8e0"/>
    </linearGradient>
    <radialGradient id="radial-gradient-6" cx="0.385" cy="0.966" r="0.708" gradientTransform="translate(0.212) scale(0.577 1)" gradientUnits="objectBoundingBox">
      <stop offset="0" stop-color="#396caa"/>
      <stop offset="0.359" stop-color="#5084bd"/>
      <stop offset="0.734" stop-color="#6296cb"/>
      <stop offset="1" stop-color="#699dd1"/>
    </radialGradient>
    <radialGradient id="radial-gradient-7" cx="0.996" cy="0.327" r="1.237" gradientTransform="translate(0.212) scale(0.577 1)" gradientUnits="objectBoundingBox">
      <stop offset="0" stop-color="#173d7a"/>
      <stop offset="0.423" stop-color="#143a76"/>
      <stop offset="0.815" stop-color="#0d336b"/>
      <stop offset="1" stop-color="#092e63"/>
    </radialGradient>
    <radialGradient id="radial-gradient-8" cx="-0.062" cy="0.839" r="0.382" gradientTransform="translate(-0.723) scale(2.447 1)" xlink:href="#radial-gradient-2"/>
    <radialGradient id="radial-gradient-9" cx="-0.169" cy="1.053" r="0.384" gradientTransform="translate(-0.689) scale(2.377 1)" xlink:href="#radial-gradient-2"/>
    <radialGradient id="radial-gradient-10" cx="-0.062" cy="0.839" r="0.382" gradientTransform="translate(-0.723) scale(2.447 1)" xlink:href="#radial-gradient-2"/>
    <radialGradient id="radial-gradient-11" cx="-0.169" cy="1.053" r="0.384" gradientTransform="translate(-0.689) scale(2.377 1)" xlink:href="#radial-gradient-2"/>
    <radialGradient id="radial-gradient-12" cx="0.5" cy="0.5" r="0.471" gradientTransform="translate(-0.069) scale(1.139 1)" xlink:href="#radial-gradient-2"/>
    <linearGradient id="linear-gradient-4" x1="0" x2="1" xlink:href="#linear-gradient"/>
    <radialGradient id="radial-gradient-13" cx="1.002" cy="0.908" r="1.092" gradientTransform="translate(0.007) scale(0.987 1)" gradientUnits="objectBoundingBox">
      <stop offset="0" stop-color="#173d7a"/>
      <stop offset="1" stop-color="#274f89"/>
    </radialGradient>
  </defs>
  <g id="Grupo_152008" data-name="Grupo 152008" transform="translate(-186.5 -372)">
    <g id="Grupo_142777" data-name="Grupo 142777" transform="translate(33.213 335.642)">
      <g id="Grupo_142603" data-name="Grupo 142603" transform="translate(209.859 131.081)" opacity="0.158">
        <path id="Trazado_183874" data-name="Trazado 183874" d="M540.278,160.423l-35.844-20.695,35.844-20.7,35.845,20.7Zm-33.306-20.695,33.306,19.229,33.307-19.229L540.278,120.5Z" transform="translate(-158.675 -119.03)" fill="#173d7a"/>
        <path id="Trazado_183875" data-name="Trazado 183875" d="M479.925,160.423l-35.845-20.7,35.844-20.695.316.184,35.529,20.511Zm-33.307-20.7,33.307,19.231,33.306-19.229L479.924,120.5Z" transform="translate(-167.472 -119.03)" fill="#173d7a"/>
        <path id="Trazado_183876" data-name="Trazado 183876" d="M510.1,177.846l-35.845-20.695,35.845-20.7,35.844,20.7Zm-33.307-20.695L510.1,176.38l33.306-19.229L510.1,137.922Z" transform="translate(-163.073 -116.49)" fill="#173d7a"/>
        <path id="Trazado_183877" data-name="Trazado 183877" d="M540.279,195.269l-.316-.183-35.529-20.512,35.844-20.7.317.183,35.529,20.513Zm-33.307-20.695L540.279,193.8l33.307-19.229-33.308-19.23Z" transform="translate(-158.675 -113.95)" fill="#173d7a"/>
        <path id="Trazado_183878" data-name="Trazado 183878" d="M419.57,160.422l-.316-.183-35.529-20.511,35.844-20.7.317.184,35.529,20.511Zm-33.307-20.695,33.307,19.229,33.307-19.229L419.569,120.5Z" transform="translate(-176.27 -119.03)" fill="#173d7a"/>
        <path id="Trazado_183879" data-name="Trazado 183879" d="M449.748,177.845l-.316-.183L413.9,157.15l35.844-20.7,35.845,20.7ZM416.441,157.15l33.307,19.229,33.306-19.228-33.307-19.23Z" transform="translate(-171.871 -116.49)" fill="#173d7a"/>
        <path id="Trazado_183880" data-name="Trazado 183880" d="M479.926,195.268l-.316-.183-35.529-20.511,35.844-20.695,35.844,20.7Zm-33.307-20.695L479.926,193.8l33.305-19.228-33.306-19.23Z" transform="translate(-167.472 -113.95)" fill="#173d7a"/>
        <path id="Trazado_183881" data-name="Trazado 183881" d="M510.1,212.692l-35.845-20.7L510.1,171.3l.316.183L545.947,192Zm-33.307-20.7L510.1,211.226,543.409,192,510.1,172.766Z" transform="translate(-163.073 -111.411)" fill="#173d7a"/>
        <path id="Trazado_183882" data-name="Trazado 183882" d="M540.28,230.115l-.316-.183-35.529-20.513,35.844-20.695.317.183,35.529,20.511Zm-33.307-20.7,33.307,19.229,33.307-19.229-33.309-19.229Z" transform="translate(-158.674 -108.871)" fill="#173d7a"/>
        <path id="Trazado_183883" data-name="Trazado 183883" d="M359.216,160.422l-35.845-20.7,35.844-20.695.316.184,35.529,20.511Zm-33.307-20.7,33.307,19.231,33.306-19.229L359.215,120.5Z" transform="translate(-185.067 -119.03)" fill="#173d7a"/>
        <path id="Trazado_183884" data-name="Trazado 183884" d="M389.394,177.845l-.317-.183L353.548,157.15l35.845-20.7.316.183,35.529,20.513ZM356.086,157.15l33.309,19.229L422.7,157.15l-33.307-19.229Z" transform="translate(-180.668 -116.49)" fill="#173d7a"/>
        <path id="Trazado_183885" data-name="Trazado 183885" d="M419.571,195.268l-.316-.183-35.529-20.511,35.844-20.7.317.183,35.529,20.513Zm-33.307-20.695L419.571,193.8l33.307-19.229L419.57,155.342Z" transform="translate(-176.269 -113.951)" fill="#173d7a"/>
        <path id="Trazado_183886" data-name="Trazado 183886" d="M449.749,212.691l-.316-.183L413.9,191.995,449.748,171.3l.317.183,35.528,20.511Zm-33.307-20.7,33.307,19.23,33.306-19.23-33.307-19.229Z" transform="translate(-171.871 -111.411)" fill="#173d7a"/>
        <path id="Trazado_183887" data-name="Trazado 183887" d="M479.926,230.114l-35.844-20.7,35.844-20.695,35.844,20.7Zm-33.306-20.7,33.306,19.229,33.306-19.228-33.306-19.23Z" transform="translate(-167.472 -108.871)" fill="#173d7a"/>
        <path id="Trazado_183888" data-name="Trazado 183888" d="M510.1,247.538l-35.846-20.7L510.1,206.147l.316.183,35.529,20.511Zm-33.308-20.7L510.1,246.071l33.306-19.229L510.1,207.612Z" transform="translate(-163.073 -106.331)" fill="#173d7a"/>
        <path id="Trazado_183889" data-name="Trazado 183889" d="M540.281,264.96l-.316-.183-35.529-20.511,35.844-20.7.317.184,35.529,20.511Zm-33.307-20.695,33.307,19.229,33.307-19.229L540.28,225.036Z" transform="translate(-158.674 -103.792)" fill="#173d7a"/>
        <path id="Trazado_183890" data-name="Trazado 183890" d="M298.861,160.421l-.316-.183-35.529-20.511,35.844-20.7.317.184,35.529,20.511Zm-33.307-20.695,33.307,19.229,33.307-19.229L298.86,120.5Z" transform="translate(-193.865 -119.03)" fill="#173d7a"/>
        <path id="Trazado_183891" data-name="Trazado 183891" d="M329.039,177.844l-.316-.183-35.529-20.511,35.844-20.7,35.845,20.7Zm-33.307-20.695,33.307,19.229,33.306-19.228-33.307-19.23Z" transform="translate(-189.466 -116.49)" fill="#173d7a"/>
        <path id="Trazado_183892" data-name="Trazado 183892" d="M359.217,195.267l-.316-.183-35.529-20.511,35.844-20.695.316.183,35.529,20.513ZM325.91,174.572,359.217,193.8l33.306-19.228-33.307-19.231Z" transform="translate(-185.067 -113.951)" fill="#173d7a"/>
        <path id="Trazado_183893" data-name="Trazado 183893" d="M389.4,212.691l-35.846-20.7L389.394,171.3l.316.183,35.529,20.511Zm-33.309-20.7L389.4,211.225l33.306-19.23-33.307-19.229Z" transform="translate(-180.668 -111.411)" fill="#173d7a"/>
        <path id="Trazado_183894" data-name="Trazado 183894" d="M419.572,230.114l-.316-.183-35.529-20.513,35.844-20.695.317.183,35.529,20.511Zm-33.307-20.7,33.307,19.229,33.307-19.229-33.309-19.229Z" transform="translate(-176.269 -108.871)" fill="#173d7a"/>
        <path id="Trazado_183895" data-name="Trazado 183895" d="M449.749,247.537l-35.844-20.7,35.844-20.695,35.844,20.695Zm-33.306-20.7,33.306,19.229,33.306-19.229-33.306-19.229Z" transform="translate(-171.87 -106.332)" fill="#173d7a"/>
        <path id="Trazado_183896" data-name="Trazado 183896" d="M479.927,264.959l-.317-.183-35.528-20.511,35.844-20.7,35.845,20.7ZM446.62,244.264l33.307,19.229,33.306-19.228-33.307-19.231Z" transform="translate(-167.472 -103.792)" fill="#173d7a"/>
        <path id="Trazado_183897" data-name="Trazado 183897" d="M510.105,282.382l-.317-.183-35.529-20.511L510.1,240.992l.316.183,35.529,20.513ZM476.8,261.687l33.309,19.229,33.306-19.228L510.1,242.459Z" transform="translate(-163.073 -101.252)" fill="#173d7a"/>
        <path id="Trazado_183898" data-name="Trazado 183898" d="M540.282,299.806l-35.845-20.7,35.844-20.695.317.183,35.528,20.513Zm-33.307-20.7,33.307,19.23,33.307-19.229-33.309-19.23Z" transform="translate(-158.674 -98.713)" fill="#173d7a"/>
        <path id="Trazado_183899" data-name="Trazado 183899" d="M238.507,160.42l-.316-.183-35.529-20.511,35.844-20.695.316.184,35.529,20.511ZM205.2,139.725l33.307,19.229,33.306-19.228L238.506,120.5Z" transform="translate(-202.662 -119.03)" fill="#173d7a"/>
        <path id="Trazado_183900" data-name="Trazado 183900" d="M268.685,177.844l-35.845-20.7,35.844-20.695.316.183,35.529,20.513Zm-33.308-20.7,33.308,19.231,33.306-19.229L268.684,137.92Z" transform="translate(-198.263 -116.49)" fill="#173d7a"/>
        <path id="Trazado_183901" data-name="Trazado 183901" d="M298.862,195.267l-.316-.183-35.529-20.511,35.844-20.7.317.183,35.529,20.513Zm-33.307-20.695L298.862,193.8l33.307-19.229-33.309-19.23Z" transform="translate(-193.864 -113.951)" fill="#173d7a"/>
        <path id="Trazado_183902" data-name="Trazado 183902" d="M329.04,212.69l-.316-.183L293.2,191.994,329.039,171.3l.317.183,35.528,20.511Zm-33.307-20.7,33.307,19.231,33.306-19.231-33.307-19.229Z" transform="translate(-189.466 -111.411)" fill="#173d7a"/>
        <path id="Trazado_183903" data-name="Trazado 183903" d="M359.218,230.113l-.317-.183-35.528-20.513,35.844-20.695,35.845,20.7Zm-33.307-20.7,33.307,19.23,33.306-19.229-33.307-19.23Z" transform="translate(-185.067 -108.871)" fill="#173d7a"/>
        <path id="Trazado_183904" data-name="Trazado 183904" d="M389.4,247.536l-.317-.183L353.55,226.84,389.4,206.146l.316.183,35.529,20.511Zm-33.309-20.7L389.4,246.069,422.7,226.841,389.4,207.611Z" transform="translate(-180.668 -106.332)" fill="#173d7a"/>
        <path id="Trazado_183905" data-name="Trazado 183905" d="M419.573,264.959l-35.845-20.7,35.844-20.695,35.845,20.7Zm-33.307-20.7,33.307,19.231,33.306-19.229-33.307-19.229Z" transform="translate(-176.269 -103.792)" fill="#173d7a"/>
        <path id="Trazado_183906" data-name="Trazado 183906" d="M449.75,282.382l-35.844-20.695,35.843-20.7.316.183,35.529,20.513Zm-33.306-20.695,33.306,19.229,33.306-19.229-33.307-19.229Z" transform="translate(-171.87 -101.253)" fill="#173d7a"/>
        <path id="Trazado_183907" data-name="Trazado 183907" d="M479.928,299.8l-.317-.183L444.083,279.11l35.844-20.7.316.183,35.529,20.513ZM446.621,279.11l33.307,19.229,33.306-19.229-33.307-19.231Z" transform="translate(-167.472 -98.713)" fill="#173d7a"/>
        <path id="Trazado_183908" data-name="Trazado 183908" d="M510.106,317.228l-.317-.183L474.26,296.532l35.845-20.695,35.845,20.7Zm-33.308-20.7,33.308,19.231,33.306-19.229L510.105,277.3Z" transform="translate(-163.073 -96.173)" fill="#173d7a"/>
        <path id="Trazado_183909" data-name="Trazado 183909" d="M540.283,334.652l-35.845-20.7,35.844-20.694.317.183,35.528,20.511Zm-33.307-20.7,33.307,19.23,33.307-19.229-33.308-19.229Z" transform="translate(-158.674 -93.633)" fill="#173d7a"/>
        <path id="Trazado_183910" data-name="Trazado 183910" d="M238.508,195.266l-.316-.183-35.529-20.511,35.844-20.7,35.845,20.7ZM205.2,174.571,238.508,193.8l33.306-19.228L238.507,155.34Z" transform="translate(-202.662 -113.951)" fill="#173d7a"/>
        <path id="Trazado_183911" data-name="Trazado 183911" d="M268.686,212.69l-35.846-20.7L268.685,171.3l.316.183,35.529,20.511Zm-33.309-20.7,33.309,19.232,33.306-19.231-33.307-19.229Z" transform="translate(-198.263 -111.411)" fill="#173d7a"/>
        <path id="Trazado_183912" data-name="Trazado 183912" d="M298.863,230.113l-.316-.183-35.529-20.513,35.844-20.695.317.183,35.529,20.511Zm-33.307-20.7,33.307,19.23,33.307-19.23-33.308-19.229Z" transform="translate(-193.864 -108.871)" fill="#173d7a"/>
        <path id="Trazado_183913" data-name="Trazado 183913" d="M329.041,247.536l-.316-.183L293.2,226.84l35.844-20.695.316.183,35.529,20.511Zm-33.307-20.7,33.307,19.229,33.306-19.229L329.04,207.61Z" transform="translate(-189.465 -106.332)" fill="#173d7a"/>
        <path id="Trazado_183914" data-name="Trazado 183914" d="M359.219,264.959l-.317-.184-35.528-20.511,35.844-20.695.316.183,35.529,20.511Zm-33.307-20.7,33.307,19.229,33.306-19.229-33.307-19.229Z" transform="translate(-185.067 -103.792)" fill="#173d7a"/>
        <path id="Trazado_183915" data-name="Trazado 183915" d="M389.4,282.381l-.317-.183-35.529-20.511,35.845-20.7,35.845,20.7Zm-33.309-20.695L389.4,280.915,422.7,261.687,389.4,242.457Z" transform="translate(-180.668 -101.253)" fill="#173d7a"/>
        <path id="Trazado_183916" data-name="Trazado 183916" d="M419.573,299.8l-35.844-20.7,35.844-20.695,35.845,20.7Zm-33.306-20.7,33.306,19.23L452.88,279.11l-33.307-19.231Z" transform="translate(-176.269 -98.713)" fill="#173d7a"/>
        <path id="Trazado_183917" data-name="Trazado 183917" d="M449.751,317.228l-.316-.183-35.529-20.513,35.844-20.695.316.183L485.6,296.532Zm-33.307-20.7,33.307,19.231,33.306-19.231L449.75,277.3Z" transform="translate(-171.87 -96.173)" fill="#173d7a"/>
        <path id="Trazado_183918" data-name="Trazado 183918" d="M479.929,334.651l-.317-.183-35.528-20.513,35.844-20.695.316.183,35.529,20.511Zm-33.308-20.7,33.308,19.23,33.306-19.23-33.307-19.229Z" transform="translate(-167.471 -93.634)" fill="#173d7a"/>
        <path id="Trazado_183919" data-name="Trazado 183919" d="M510.107,352.074l-.317-.183-35.529-20.513,35.845-20.695,35.845,20.7Zm-33.309-20.7,33.309,19.229,33.306-19.228-33.307-19.231Z" transform="translate(-163.073 -91.094)" fill="#173d7a"/>
        <path id="Trazado_183920" data-name="Trazado 183920" d="M540.284,369.5l-.316-.184L504.439,348.8l35.844-20.695.317.185L576.128,348.8Zm-33.307-20.7,33.307,19.229L573.592,348.8l-33.308-19.229Z" transform="translate(-158.674 -88.554)" fill="#173d7a"/>
        <path id="Trazado_183921" data-name="Trazado 183921" d="M238.509,230.112l-.316-.183-35.529-20.513,35.844-20.695,35.845,20.7Zm-33.307-20.7,33.307,19.23,33.306-19.229-33.307-19.231Z" transform="translate(-202.662 -108.872)" fill="#173d7a"/>
        <path id="Trazado_183922" data-name="Trazado 183922" d="M268.687,247.535l-.317-.183-35.529-20.513,35.845-20.694.316.183,35.529,20.511Zm-33.309-20.7,33.309,19.229,33.306-19.228L268.686,207.61Z" transform="translate(-198.263 -106.332)" fill="#173d7a"/>
        <path id="Trazado_183923" data-name="Trazado 183923" d="M298.864,264.959l-35.845-20.7,35.844-20.694.317.183,35.529,20.511Zm-33.307-20.7,33.307,19.231,33.307-19.229-33.309-19.229Z" transform="translate(-193.864 -103.792)" fill="#173d7a"/>
        <path id="Trazado_183924" data-name="Trazado 183924" d="M329.042,282.381l-.316-.183L293.2,261.686l35.844-20.7.316.183,35.529,20.513Zm-33.307-20.695,33.307,19.229,33.306-19.229-33.307-19.229Z" transform="translate(-189.465 -101.253)" fill="#173d7a"/>
        <path id="Trazado_183925" data-name="Trazado 183925" d="M359.22,299.8l-.317-.183-35.528-20.511,35.844-20.7.316.183,35.529,20.513Zm-33.307-20.695,33.307,19.229,33.306-19.229L359.219,259.88Z" transform="translate(-185.066 -98.713)" fill="#173d7a"/>
        <path id="Trazado_183926" data-name="Trazado 183926" d="M389.4,317.227l-35.845-20.695,35.845-20.7,35.844,20.7ZM356.09,296.532,389.4,315.761,422.7,296.532,389.4,277.3Z" transform="translate(-180.668 -96.173)" fill="#173d7a"/>
        <path id="Trazado_183927" data-name="Trazado 183927" d="M419.574,334.65l-.316-.183-35.529-20.513,35.844-20.694.317.183,35.528,20.511Zm-33.307-20.7,33.307,19.23,33.307-19.229-33.309-19.229Z" transform="translate(-176.269 -93.634)" fill="#173d7a"/>
        <path id="Trazado_183928" data-name="Trazado 183928" d="M449.752,352.074l-35.845-20.7,35.844-20.694.316.183L485.6,331.378Zm-33.307-20.7,33.307,19.231,33.306-19.229-33.307-19.229Z" transform="translate(-171.87 -91.094)" fill="#173d7a"/>
        <path id="Trazado_183929" data-name="Trazado 183929" d="M479.93,369.5l-.317-.184L444.085,348.8l35.844-20.695.316.183L515.774,348.8Zm-33.309-20.7L479.93,368.03,513.236,348.8l-33.307-19.229Z" transform="translate(-167.471 -88.554)" fill="#173d7a"/>
        <path id="Trazado_183930" data-name="Trazado 183930" d="M238.51,264.958l-.317-.184-35.528-20.511,35.844-20.695.316.183,35.529,20.511Zm-33.307-20.7,33.307,19.229,33.306-19.229-33.307-19.229Z" transform="translate(-202.662 -103.792)" fill="#173d7a"/>
        <path id="Trazado_183931" data-name="Trazado 183931" d="M268.688,282.38l-.317-.183-35.529-20.512,35.845-20.7,35.845,20.7ZM235.38,261.685l33.309,19.229,33.306-19.228-33.307-19.231Z" transform="translate(-198.263 -101.253)" fill="#173d7a"/>
        <path id="Trazado_183932" data-name="Trazado 183932" d="M298.865,299.8l-35.845-20.7,35.844-20.695.317.183,35.529,20.513Zm-33.307-20.7,33.307,19.23,33.307-19.229L298.864,259.88Z" transform="translate(-193.864 -98.713)" fill="#173d7a"/>
        <path id="Trazado_183933" data-name="Trazado 183933" d="M329.043,317.227l-.316-.183L293.2,296.532l35.844-20.7.316.183,35.529,20.513Zm-33.307-20.695,33.307,19.229,33.306-19.229L329.042,277.3Z" transform="translate(-189.465 -96.173)" fill="#173d7a"/>
        <path id="Trazado_183934" data-name="Trazado 183934" d="M359.221,334.65l-.317-.183-35.528-20.513,35.844-20.695,35.844,20.695Zm-33.309-20.7,33.309,19.23,33.305-19.23L359.22,294.724Z" transform="translate(-185.066 -93.634)" fill="#173d7a"/>
        <path id="Trazado_183935" data-name="Trazado 183935" d="M389.4,352.073l-35.845-20.7L389.4,310.682l.316.183,35.529,20.511Zm-33.307-20.7L389.4,350.606,422.7,331.377,389.4,312.147Z" transform="translate(-180.668 -91.094)" fill="#173d7a"/>
        <path id="Trazado_183936" data-name="Trazado 183936" d="M419.575,369.5l-.316-.184L383.73,348.8l35.844-20.695,35.845,20.7Zm-33.307-20.7,33.307,19.229L452.883,348.8l-33.308-19.23Z" transform="translate(-176.269 -88.554)" fill="#173d7a"/>
        <path id="Trazado_183937" data-name="Trazado 183937" d="M238.511,299.8l-.317-.183-35.528-20.511,35.844-20.7.316.183,35.529,20.513ZM205.2,279.108l33.307,19.229,33.306-19.229L238.51,259.879Z" transform="translate(-202.661 -98.713)" fill="#173d7a"/>
        <path id="Trazado_183938" data-name="Trazado 183938" d="M268.689,317.226l-.317-.183-35.529-20.511,35.845-20.7,35.845,20.7Zm-33.309-20.695,33.309,19.229L302,296.532,268.688,277.3Z" transform="translate(-198.263 -96.173)" fill="#173d7a"/>
        <path id="Trazado_183939" data-name="Trazado 183939" d="M298.866,334.649l-.316-.183-35.529-20.513,35.844-20.694.317.183,35.528,20.511Zm-33.307-20.7,33.307,19.231,33.307-19.229-33.309-19.229Z" transform="translate(-193.864 -93.634)" fill="#173d7a"/>
        <path id="Trazado_183940" data-name="Trazado 183940" d="M329.044,352.073l-35.845-20.7,35.844-20.694.316.183,35.529,20.511Zm-33.307-20.7,33.307,19.23,33.306-19.229-33.307-19.229Z" transform="translate(-189.465 -91.094)" fill="#173d7a"/>
        <path id="Trazado_183941" data-name="Trazado 183941" d="M359.221,369.5l-35.844-20.7,35.844-20.695L395.065,348.8Zm-33.307-20.7,33.307,19.229L392.527,348.8,359.221,329.57Z" transform="translate(-185.066 -88.554)" fill="#173d7a"/>
        <path id="Trazado_183942" data-name="Trazado 183942" d="M238.512,334.649l-.317-.183-35.528-20.513,35.844-20.695.316.183,35.529,20.511Zm-33.309-20.7,33.309,19.231,33.306-19.231-33.307-19.229Z" transform="translate(-202.661 -93.634)" fill="#173d7a"/>
        <path id="Trazado_183943" data-name="Trazado 183943" d="M268.69,352.072l-.317-.183-35.529-20.513,35.845-20.695.316.183,35.529,20.511Zm-33.309-20.7,33.309,19.229L302,331.376l-33.307-19.229Z" transform="translate(-198.263 -91.094)" fill="#173d7a"/>
        <path id="Trazado_183944" data-name="Trazado 183944" d="M298.867,369.495l-.316-.184L263.022,348.8,298.866,328.1l35.845,20.7ZM265.56,348.8l33.307,19.229L332.175,348.8l-33.309-19.23Z" transform="translate(-193.864 -88.555)" fill="#173d7a"/>
        <path id="Trazado_183945" data-name="Trazado 183945" d="M238.513,369.495l-.317-.184L202.668,348.8,238.512,328.1l.316.183L274.357,348.8ZM205.2,348.8l33.309,19.229L271.819,348.8l-33.307-19.229Z" transform="translate(-202.661 -88.555)" fill="#173d7a"/>
      </g>
      <g id="Grupo_142605" data-name="Grupo 142605" transform="translate(263.232 90.579)">
        <g id="Grupo_142604" data-name="Grupo 142604" transform="translate(0)">
          <path id="Trazado_183946" data-name="Trazado 183946" d="M276.846,159.637l-25.883-14.944,25.883-14.943,25.883,14.944Z" transform="translate(-248.995 -76.966)" fill="#7dc3ea" opacity="0.372"/>
          <path id="Trazado_183947" data-name="Trazado 183947" d="M277.1,152.061a1.957,1.957,0,0,1-.983-.265l-25.884-14.943a1.968,1.968,0,0,1,0-3.409L276.112,118.5a1.966,1.966,0,0,1,1.967,0l25.884,14.944a1.967,1.967,0,0,1,0,3.408L278.08,151.8A1.961,1.961,0,0,1,277.1,152.061Zm-21.948-16.913L277.1,147.821l21.948-12.671L277.1,122.479Z" transform="translate(-249.245 -78.644)" fill="#fff"/>
          <path id="Trazado_183948" data-name="Trazado 183948" d="M299.436,126.609l-25.883,14.943V111.666l25.883-14.943Z" transform="translate(-245.702 -81.78)" fill="url(#radial-gradient)"/>
          <path id="Trazado_183949" data-name="Trazado 183949" d="M276.846,113.567,250.963,98.624l25.882-14.943,25.883,14.944Z" transform="translate(-248.995 -83.681)" fill="url(#linear-gradient)"/>
          <path id="Trazado_183950" data-name="Trazado 183950" d="M276.846,141.552l-25.883-14.943V96.723l25.883,14.943Z" transform="translate(-248.995 -81.78)" fill="url(#radial-gradient-2)"/>
        </g>
        <path id="Trazado_183951" data-name="Trazado 183951" d="M266.338,123.353l-7.239-4.18v-8.359l7.239,4.18Z" transform="translate(-247.809 -79.726)" fill="#fff"/>
      </g>
      <g id="Grupo_142607" data-name="Grupo 142607" transform="translate(205.305 315.405)">
        <g id="Grupo_142606" data-name="Grupo 142606">
          <path id="Trazado_183952" data-name="Trazado 183952" d="M226.288,355.861,200.4,340.917l25.883-14.943,25.883,14.944Z" transform="translate(-198.437 -273.19)" fill="#7dc3ea" opacity="0.372"/>
          <path id="Trazado_183953" data-name="Trazado 183953" d="M226.538,348.284a1.972,1.972,0,0,1-.984-.263l-25.882-14.943a1.966,1.966,0,0,1,0-3.408l25.882-14.944a1.966,1.966,0,0,1,1.967,0L253.4,329.67a1.967,1.967,0,0,1,0,3.408L227.521,348.02A1.965,1.965,0,0,1,226.538,348.284Zm-21.947-16.91,21.947,12.67,21.947-12.67L226.538,318.7Z" transform="translate(-198.687 -274.868)" fill="#fff"/>
          <path id="Trazado_183954" data-name="Trazado 183954" d="M248.878,322.833,223,337.776V307.89l25.883-14.943Z" transform="translate(-195.144 -278.004)" fill="url(#radial-gradient-3)"/>
          <path id="Trazado_183955" data-name="Trazado 183955" d="M226.288,309.791l-25.883-14.943L226.287,279.9l25.883,14.944Z" transform="translate(-198.437 -279.905)" fill="url(#linear-gradient)"/>
          <path id="Trazado_183956" data-name="Trazado 183956" d="M226.288,337.776l-25.883-14.944V292.947l25.883,14.943Z" transform="translate(-198.437 -278.004)" fill="url(#radial-gradient-4)"/>
        </g>
        <path id="Trazado_183957" data-name="Trazado 183957" d="M215.78,319.577l-7.239-4.18v-8.359l7.239,4.18Z" transform="translate(-197.251 -275.95)" fill="#fff"/>
      </g>
      <g id="Grupo_142610" data-name="Grupo 142610" transform="translate(521.563 265.716)">
        <path id="Trazado_183958" data-name="Trazado 183958" d="M513.667,314.957l-35.708-20.616c-2.191-1.265-1.916-3.475.614-4.936L513.052,269.5c2.531-1.461,6.359-1.619,8.55-.354l35.708,20.616c2.192,1.265,1.917,3.475-.614,4.936L522.217,314.6C519.687,316.064,515.859,316.222,513.667,314.957Z" transform="translate(-474.453 -231.908)" fill="#7dc3ea" opacity="0.372"/>
        <path id="Trazado_183959" data-name="Trazado 183959" d="M517.656,308.261a9.614,9.614,0,0,1-4.746-1.135L477.2,286.511a4.545,4.545,0,0,1-2.492-3.9c0-1.751,1.132-3.409,3.107-4.549L512.3,258.154c3.191-1.839,7.738-1.992,10.579-.353l35.707,20.615a4.543,4.543,0,0,1,2.493,3.9c0,1.75-1.133,3.408-3.107,4.549l-34.478,19.905A11.878,11.878,0,0,1,517.656,308.261Zm.51-47.535a8,8,0,0,0-3.843.942l-34.478,19.906c-.866.5-1.074.952-1.079,1.038a1.306,1.306,0,0,0,.466.387l35.708,20.615c1.574.909,4.622.741,6.519-.355l34.479-19.906c.866-.5,1.075-.952,1.08-1.037a1.315,1.315,0,0,0-.467-.387l-35.707-20.613A5.5,5.5,0,0,0,518.166,260.725Z" transform="translate(-474.711 -233.603)" fill="#fff"/>
        <path id="Trazado_183960" data-name="Trazado 183960" d="M558.776,270.406h0v-12.32l-27.626-.015-9.55-5.513c-2.191-1.265-6.019-1.107-8.55.354l-8.909,5.144-27.651-.016v12.671a2.475,2.475,0,0,0,1.468,2.29l35.708,20.616c2.192,1.266,6.02,1.107,8.55-.354l34.478-19.907C558.154,272.515,558.859,271.423,558.776,270.406Z" transform="translate(-474.452 -234.326)" fill="#396caa"/>
        <path id="Trazado_183961" data-name="Trazado 183961" d="M517.634,251.709a9.87,9.87,0,0,0-4.583,1.2l-8.909,5.144-27.651-.016V270.71a2.475,2.475,0,0,0,1.468,2.29l35.708,20.616a7.727,7.727,0,0,0,3.968.848Z" transform="translate(-474.452 -234.325)" fill="url(#radial-gradient-5)"/>
        <path id="Trazado_183962" data-name="Trazado 183962" d="M479.62,257.236l-3.129,0V269.9a2.475,2.475,0,0,0,1.468,2.29l1.661.96Z" transform="translate(-474.452 -233.52)" fill="#d4ecff"/>
        <path id="Trazado_183963" data-name="Trazado 183963" d="M509.416,290.36a9.737,9.737,0,0,0,6.834-.078V275.9h-6.834Z" transform="translate(-469.652 -230.8)" fill="#5793ce"/>
        <path id="Trazado_183964" data-name="Trazado 183964" d="M513.667,283.2l-35.708-20.615c-2.191-1.266-1.916-3.476.614-4.937l34.478-19.905c2.531-1.461,6.359-1.62,8.55-.355l35.708,20.616c2.192,1.265,1.917,3.475-.614,4.936l-34.478,19.907C519.687,284.31,515.859,284.469,513.667,283.2Z" transform="translate(-474.453 -236.537)" fill="url(#linear-gradient-3)"/>
        <path id="Trazado_183965" data-name="Trazado 183965" d="M556.695,257.663,522.217,277.57c-2.53,1.461-6.358,1.62-8.55.354l-35.708-20.616a3.3,3.3,0,0,1-1.093-.97c-.753,1.212-.411,2.526,1.093,3.395l35.708,20.616c2.192,1.266,6.02,1.107,8.55-.354l34.478-19.907c1.966-1.134,2.564-2.72,1.707-3.965A4.781,4.781,0,0,1,556.695,257.663Z" transform="translate(-474.453 -233.682)" fill="#fff"/>
        <g id="Grupo_142608" data-name="Grupo 142608" transform="translate(68.306 32.944)">
          <path id="Trazado_183966" data-name="Trazado 183966" d="M537.211,271a3.186,3.186,0,0,1-1.441,2.5c-.8.461-1.443.087-1.443-.832a3.191,3.191,0,0,1,1.443-2.5C536.566,269.7,537.211,270.076,537.211,271Z" transform="translate(-534.327 -264.608)" fill="#d4ecff"/>
          <path id="Trazado_183967" data-name="Trazado 183967" d="M541.261,268.658a3.188,3.188,0,0,1-1.441,2.5c-.8.459-1.443.087-1.443-.833a3.187,3.187,0,0,1,1.443-2.5C540.616,267.366,541.261,267.738,541.261,268.658Z" transform="translate(-533.737 -264.949)" fill="#d4ecff"/>
          <path id="Trazado_183968" data-name="Trazado 183968" d="M545.311,266.32a3.187,3.187,0,0,1-1.442,2.5c-.8.459-1.441.087-1.441-.833a3.186,3.186,0,0,1,1.441-2.5C544.666,265.026,545.311,265.4,545.311,266.32Z" transform="translate(-533.146 -265.29)" fill="#d4ecff"/>
        </g>
        <g id="Grupo_142609" data-name="Grupo 142609" transform="translate(23.923 12.048)">
          <path id="Trazado_183969" data-name="Trazado 183969" d="M512.993,268.889l-16.71-9.647c-1.026-.591-.9-1.626.288-2.31l16.133-9.315a4.452,4.452,0,0,1,4-.166l16.71,9.647c1.025.592.9,1.627-.288,2.31l-16.133,9.315A4.445,4.445,0,0,1,512.993,268.889Z" transform="translate(-495.591 -247.052)" fill="#5793ce"/>
          <path id="Trazado_183970" data-name="Trazado 183970" d="M512.481,259.445l-2.312-1.335c-.142-.081-.124-.225.04-.32l2.232-1.288a.615.615,0,0,1,.553-.024l2.312,1.335c.142.083.124.226-.04.32l-2.232,1.289A.612.612,0,0,1,512.481,259.445Z" transform="translate(-493.48 -245.686)" fill="#d4ecff"/>
          <path id="Trazado_183971" data-name="Trazado 183971" d="M496.283,259.242l.048.027a2.43,2.43,0,0,1,.239-.165l16.133-9.315a4.449,4.449,0,0,1,4-.166l16.663,9.62c.945-.676.994-1.6.047-2.145l-16.71-9.647a4.452,4.452,0,0,0-4,.166l-16.133,9.315C495.386,257.616,495.258,258.651,496.283,259.242Z" transform="translate(-495.591 -247.052)" fill="#396caa"/>
        </g>
      </g>
      <path id="Trazado_183972" data-name="Trazado 183972" d="M598.238,207.6,486.654,142.98c-6.061-3.511-16.658-3.087-23.668.948L228.8,278.7c-7.011,4.034-7.78,10.151-1.719,13.662L338.667,356.98c6.061,3.511,16.658,3.087,23.668-.948L596.521,221.258C603.531,217.224,604.3,211.107,598.238,207.6Z" transform="translate(10.161 15.195)" fill="#7dc3ea"/>
      <path id="Trazado_183973" data-name="Trazado 183973" d="M349.255,347.811a22.943,22.943,0,0,1-11.319-2.658L226.352,280.536c-3.269-1.894-5.065-4.6-5.062-7.634,0-3.5,2.478-6.933,6.784-9.411L462.259,128.717c7.666-4.413,18.92-4.827,25.622-.946l111.586,64.618c3.268,1.893,5.065,4.6,5.061,7.633,0,3.5-2.477,6.933-6.784,9.411L363.558,344.206A29.333,29.333,0,0,1,349.255,347.811ZM476.618,129.052a25.686,25.686,0,0,0-12.41,3.05L230.023,266.876c-3.019,1.738-4.824,3.992-4.826,6.031,0,2.018,1.691,3.424,3.113,4.247l111.584,64.616c5.421,3.139,15.365,2.7,21.715-.951L595.794,206.046c3.02-1.737,4.824-3.992,4.827-6.031,0-2.018-1.692-3.424-3.113-4.246L485.923,131.151A19.008,19.008,0,0,0,476.618,129.052Z" transform="translate(9.912 12.937)" fill="#fff"/>
      <g id="Grupo_142615" data-name="Grupo 142615" transform="translate(223.935 88.703)">
        <g id="Grupo_142611" data-name="Grupo 142611">
          <path id="Trazado_183974" data-name="Trazado 183974" d="M336.59,323.65,220.463,256.4c-3.814-2.209-5.592-5.188-5.466-8.287l-.025.009.047-16.851,6.458,7.565c.419-.276.841-.552,1.3-.816L460.334,101.306c9.432-5.429,23.689-6,31.843-1.276l114.5,66.3c2.317-2.538,7.176-7.9,7.176-7.9l-.055,16.483,0,0c.172,3.716-2.472,7.674-7.8,10.739L368.432,322.375C359,327.8,344.745,328.373,336.59,323.65Z" transform="translate(-214.944 -79.889)" fill="url(#radial-gradient-6)"/>
          <path id="Trazado_183975" data-name="Trazado 183975" d="M266.517,259.357l6.688,3.862c.888.512,1.609-.032,1.609-1.217h0a3.854,3.854,0,0,0-1.609-3.073l-6.688-3.861c-.889-.513-1.609.032-1.609,1.216h0A3.848,3.848,0,0,0,266.517,259.357Z" transform="translate(-207.665 -56.851)" fill="#173d7a"/>
          <path id="Trazado_183976" data-name="Trazado 183976" d="M442.992,101.306c9.432-5.429,23.689-6,31.843-1.276l114.5,66.3c2.317-2.538,7.176-7.9,7.176-7.9l-.055,16.483,0,0c.171,3.716-2.474,7.674-7.8,10.739L351.09,322.375a36.746,36.746,0,0,1-17.145,4.454l.226-162.9Z" transform="translate(-197.601 -79.889)" fill="#396caa"/>
          <path id="Trazado_183977" data-name="Trazado 183977" d="M608.348,152.492,492.22,85.244c-8.154-4.723-22.411-4.152-31.842,1.275L222.818,223.235c-9.431,5.429-10.465,13.658-2.311,18.38l116.127,67.248c8.154,4.723,22.411,4.152,31.843-1.276L606.035,170.872C615.467,165.444,616.5,157.215,608.348,152.492Z" transform="translate(-214.938 -82.044)" fill="#d4ecff"/>
          <path id="Trazado_183978" data-name="Trazado 183978" d="M336.554,300.524,220.427,233.277c-4.206-2.436-5.948-5.8-5.374-9.241.206,2.791,1.995,5.434,5.462,7.442l116.127,67.248c8.154,4.723,22.411,4.152,31.843-1.276L606.044,160.734c4.568-2.628,7.147-5.913,7.686-9.14.278,3.774-2.352,7.819-7.774,10.939L368.4,299.249C358.965,304.676,344.708,305.248,336.554,300.524Z" transform="translate(-214.947 -71.906)" fill="#fff"/>
          <path id="Trazado_183979" data-name="Trazado 183979" d="M598.238,154.366,486.654,89.749c-6.061-3.511-16.658-3.086-23.668.949L228.8,225.471c-7.011,4.034-7.78,10.15-1.719,13.661L338.667,303.75c6.061,3.511,16.658,3.086,23.668-.949L596.521,168.027C603.531,163.993,604.3,157.877,598.238,154.366Z" transform="translate(-213.774 -81.268)" fill="url(#radial-gradient-7)"/>
        </g>
        <g id="Grupo_142613" data-name="Grupo 142613" transform="translate(58.346 140.559)">
          <path id="Trazado_183980" data-name="Trazado 183980" d="M358.5,253.083l-78.74-45.461,5.026-2.9,78.74,45.461Z" transform="translate(-263.845 -204.721)" fill="#d4ecff"/>
          <path id="Trazado_183981" data-name="Trazado 183981" d="M305.739,238.661,265.87,215.642l5.026-2.9,39.869,23.019Z" transform="translate(-265.87 -203.552)" fill="#d4ecff"/>
          <path id="Trazado_183982" data-name="Trazado 183982" d="M319.2,246.432l-12.931-7.466,5.026-2.9,12.931,7.466Z" transform="translate(-259.981 -200.152)" fill="#ff2c9c"/>
          <path id="Trazado_183983" data-name="Trazado 183983" d="M336.238,256.269,323.307,248.8l5.026-2.9,12.931,7.466Z" transform="translate(-257.498 -198.718)" fill="#fff"/>
          <path id="Trazado_183984" data-name="Trazado 183984" d="M305.173,230.314l-32.358-18.682,5.026-2.9L310.2,227.412Z" transform="translate(-264.858 -204.137)" fill="#fff"/>
          <path id="Trazado_183985" data-name="Trazado 183985" d="M339.646,250.217l-32.358-18.682,5.026-2.9,32.358,18.682Z" transform="translate(-259.833 -201.235)" fill="#d4ecff"/>
          <g id="Grupo_142612" data-name="Grupo 142612" transform="translate(48.78 4.961)">
            <path id="Trazado_183986" data-name="Trazado 183986" d="M315.523,213.138a6.481,6.481,0,0,1-5.864,0c-1.619-.935-1.619-2.451,0-3.386a6.481,6.481,0,0,1,5.864,0C317.142,210.687,317.142,212.2,315.523,213.138Z" transform="translate(-308.444 -209.051)" fill="#ff2c9c"/>
            <path id="Trazado_183987" data-name="Trazado 183987" d="M323.17,217.553a6.488,6.488,0,0,1-5.864,0c-1.619-.935-1.619-2.451,0-3.386a6.48,6.48,0,0,1,5.864,0C324.788,215.1,324.788,216.618,323.17,217.553Z" transform="translate(-307.33 -208.407)" fill="#fff"/>
            <path id="Trazado_183988" data-name="Trazado 183988" d="M330.815,221.967a6.478,6.478,0,0,1-5.863,0c-1.62-.935-1.62-2.45,0-3.385a6.478,6.478,0,0,1,5.863,0C332.434,219.517,332.434,221.032,330.815,221.967Z" transform="translate(-306.215 -207.764)" fill="#d4ecff"/>
            <path id="Trazado_183989" data-name="Trazado 183989" d="M338.462,226.382a6.48,6.48,0,0,1-5.864,0c-1.619-.935-1.619-2.451,0-3.385a6.48,6.48,0,0,1,5.864,0C340.081,223.931,340.081,225.447,338.462,226.382Z" transform="translate(-305.1 -207.12)" fill="#ff2c9c"/>
            <path id="Trazado_183990" data-name="Trazado 183990" d="M346.109,230.8a6.48,6.48,0,0,1-5.864,0c-1.619-.935-1.619-2.451,0-3.386a6.48,6.48,0,0,1,5.864,0C347.728,228.346,347.728,229.862,346.109,230.8Z" transform="translate(-303.986 -206.477)" fill="#fff"/>
          </g>
        </g>
        <g id="Grupo_142614" data-name="Grupo 142614" transform="translate(252.88 28.458)">
          <path id="Trazado_183991" data-name="Trazado 183991" d="M500.6,147.63l-13.258-7.654L492.492,137l13.257,7.654Z" transform="translate(-428.122 -102.491)" fill="#ff2c9c"/>
          <path id="Trazado_183992" data-name="Trazado 183992" d="M516.709,156.932l-13.257-7.654L508.6,146.3l13.258,7.654Z" transform="translate(-425.773 -101.135)" fill="#fff"/>
          <path id="Trazado_183993" data-name="Trazado 183993" d="M448.913,117.51l-13.258-7.654,5.153-2.975,13.258,7.654Z" transform="translate(-435.655 -106.881)" fill="#fff"/>
          <path id="Trazado_183994" data-name="Trazado 183994" d="M498.679,154.745l-18.461-10.658,5.153-2.975,18.461,10.658Z" transform="translate(-429.16 -101.892)" fill="#fff"/>
          <path id="Trazado_183995" data-name="Trazado 183995" d="M508.932,160.664l-8.1-4.677,5.153-2.975,8.1,4.677Z" transform="translate(-426.155 -100.157)" fill="#d4ecff"/>
        </g>
      </g>
      <g id="Grupo_142632" data-name="Grupo 142632" transform="translate(358.476 36.358)">
        <path id="Trazado_183996" data-name="Trazado 183996" d="M441.862,224.509,333.4,161.961l31.609-18.249,108.462,62.547Z" transform="translate(-332.222 -20.71)" fill="#082c60"/>
        <path id="Trazado_183997" data-name="Trazado 183997" d="M442.5,226.392a1.672,1.672,0,0,1-.835-.223L333.207,163.621a1.672,1.672,0,0,1,0-2.894l31.609-18.25a1.673,1.673,0,0,1,1.671,0l108.461,62.547a1.672,1.672,0,0,1,0,2.9l-31.609,18.249A1.658,1.658,0,0,1,442.5,226.392ZM337.386,162.173,442.5,222.792l28.266-16.319L365.652,145.854Z" transform="translate(-332.372 -20.922)" fill="#fff"/>
        <g id="Grupo_142631" data-name="Grupo 142631" transform="translate(3.815)">
          <g id="Grupo_142619" data-name="Grupo 142619" transform="translate(37.716 65.745)">
            <g id="Grupo_142618" data-name="Grupo 142618">
              <path id="Trazado_183998" data-name="Trazado 183998" d="M378.164,176.568a1.339,1.339,0,0,1-1.341-1.341V132.891a1.341,1.341,0,0,1,2.681,0v42.337A1.34,1.34,0,0,1,378.164,176.568Z" transform="translate(-367.424 -88.228)" fill="#396caa"/>
              <g id="Grupo_142617" data-name="Grupo 142617">
                <path id="Trazado_183999" data-name="Trazado 183999" d="M372.209,128.532v28.6h0a3.29,3.29,0,0,0,1.941,2.705,10.359,10.359,0,0,0,9.372,0,3.29,3.29,0,0,0,1.941-2.705v-28.6Z" transform="translate(-368.097 -88.667)" fill="url(#radial-gradient-8)"/>
                <g id="Grupo_142616" data-name="Grupo 142616">
                  <path id="Trazado_184000" data-name="Trazado 184000" d="M372.209,132.807v9.681a17.142,17.142,0,0,0,13.254,0v-9.681A17.152,17.152,0,0,0,372.209,132.807Z" transform="translate(-368.097 -88.238)" fill="#396caa"/>
                  <path id="Trazado_184001" data-name="Trazado 184001" d="M390.1,93.739H368.62V138.6h0c0,1.587,1.048,3.174,3.145,4.385a16.789,16.789,0,0,0,15.188,0c2.1-1.211,3.145-2.8,3.145-4.385h0Z" transform="translate(-368.62 -93.739)" fill="url(#radial-gradient-9)"/>
                </g>
              </g>
            </g>
            <path id="Trazado_184002" data-name="Trazado 184002" d="M376.895,150.19c0,1.316-.923,1.849-2.062,1.192a4.56,4.56,0,0,1-2.064-3.574c0-1.315.924-1.848,2.064-1.19A4.559,4.559,0,0,1,376.895,150.19Z" transform="translate(-368.015 -86.072)" fill="#d4ecff"/>
          </g>
          <g id="Grupo_142623" data-name="Grupo 142623" transform="translate(79.364 89.819)">
            <g id="Grupo_142622" data-name="Grupo 142622">
              <path id="Trazado_184003" data-name="Trazado 184003" d="M414.512,197.579a1.34,1.34,0,0,1-1.339-1.341V153.9a1.34,1.34,0,1,1,2.68,0v42.337A1.34,1.34,0,0,1,414.512,197.579Z" transform="translate(-403.773 -109.239)" fill="#396caa"/>
              <g id="Grupo_142621" data-name="Grupo 142621">
                <path id="Trazado_184004" data-name="Trazado 184004" d="M408.558,149.543v28.6h0a3.294,3.294,0,0,0,1.941,2.705,10.359,10.359,0,0,0,9.372,0,3.292,3.292,0,0,0,1.941-2.705v-28.6Z" transform="translate(-404.446 -109.678)" fill="url(#radial-gradient-10)"/>
                <g id="Grupo_142620" data-name="Grupo 142620">
                  <path id="Trazado_184005" data-name="Trazado 184005" d="M408.558,153.818V163.5a17.145,17.145,0,0,0,13.255,0v-9.681A17.156,17.156,0,0,0,408.558,153.818Z" transform="translate(-404.446 -109.249)" fill="#396caa"/>
                  <path id="Trazado_184006" data-name="Trazado 184006" d="M426.448,114.75H404.969v44.861h0c0,1.587,1.048,3.174,3.146,4.384a16.779,16.779,0,0,0,15.187,0c2.1-1.21,3.145-2.8,3.145-4.384h0Z" transform="translate(-404.969 -114.75)" fill="url(#radial-gradient-11)"/>
                </g>
              </g>
            </g>
            <path id="Trazado_184007" data-name="Trazado 184007" d="M413.245,171.2c0,1.315-.925,1.849-2.064,1.192a4.564,4.564,0,0,1-2.064-3.574c0-1.315.925-1.849,2.064-1.192A4.565,4.565,0,0,1,413.245,171.2Z" transform="translate(-404.364 -107.083)" fill="#d4ecff"/>
          </g>
          <g id="Grupo_142630" data-name="Grupo 142630">
            <g id="Grupo_142626" data-name="Grupo 142626">
              <path id="Trazado_184008" data-name="Trazado 184008" d="M342.065,67.485l28.511-16.4s-1.072,16.37-1.072,16.4-16.379,5.073-16.379,5.073Z" transform="translate(-334.775 -34.212)" fill="#5793ce"/>
              <path id="Trazado_184009" data-name="Trazado 184009" d="M492.1,164.041c0-11.513-8.082-25.51-18.053-31.267a17.92,17.92,0,0,0-6.168-2.286C465,115.38,454.492,99.337,441.957,92.1a25.361,25.361,0,0,0-10.606-3.59c-1.712-18.312-14.444-39.121-29.9-48.048-8.077-4.663-15.4-5.214-20.811-2.359V38.09l-.261.15c-.139.077-.276.156-.411.237l-16.812,9.929,5.586,4.412c-5.015,2.191-8.184,7.815-8.184,16.129,0,15.33,10.763,33.973,24.04,41.638l81.961,58.527,2.528,17.056,17.711-10.431.047-.029.107-.062,0,0C490.132,173.726,492.1,169.718,492.1,164.041Z" transform="translate(-332.08 -36.358)" fill="url(#radial-gradient-12)"/>
              <path id="Trazado_184010" data-name="Trazado 184010" d="M361.278,62.2l38.586-22.544c-7.491-3.907-14.259-4.229-19.334-1.549V38.09l-.262.15c-.137.077-.275.156-.41.237l-16.812,9.929,5.586,4.412C365.127,54.351,362.528,57.565,361.278,62.2Z" transform="translate(-331.974 -36.358)" fill="#5793ce"/>
              <path id="Trazado_184011" data-name="Trazado 184011" d="M427.21,121.618,455.363,105.1c-4.829-8.351-11.478-15.649-18.84-19.9q-1.461-.844-2.883-1.484L397.83,104.656Z" transform="translate(-326.646 -29.455)" fill="#5793ce"/>
              <path id="Trazado_184012" data-name="Trazado 184012" d="M369.744,50.158,382.291,57.4l22.977-13.534a45.513,45.513,0,0,0-5.162-3.5A32.289,32.289,0,0,0,392.077,37Z" transform="translate(-330.74 -36.265)" fill="#d4ecff"/>
              <path id="Trazado_184013" data-name="Trazado 184013" d="M448.193,98.133l-22.471,13.242,7.815,8.716,20.4-12.044A65.53,65.53,0,0,0,448.193,98.133Z" transform="translate(-322.58 -27.353)" fill="#d4ecff"/>
              <path id="Trazado_184014" data-name="Trazado 184014" d="M460.019,141.849a17.972,17.972,0,0,0-6.169-2.286c-2.874-15.107-13.386-31.151-25.921-38.388a25.382,25.382,0,0,0-10.608-3.59c-1.711-18.31-14.442-39.121-29.9-48.048-16.627-9.6-30.107-1.817-30.107,17.381,0,.652.018,1.308.049,1.968C345.2,63.248,335.7,69.6,335.7,84c0,15.331,10.763,33.973,24.04,41.638l100.276,57.9c9.97,5.756,18.053,1.09,18.053-10.422S469.989,147.605,460.019,141.849Z" transform="translate(-335.702 -35.036)" fill="url(#linear-gradient-4)"/>
              <g id="Grupo_142624" data-name="Grupo 142624" transform="translate(5.499 8.961)">
                <path id="Trazado_184015" data-name="Trazado 184015" d="M356.661,66.341c-.03-.66-.049-1.318-.049-1.968,0-.027,0-.054,0-.081-6.718-2.611-12.49-1.475-16.113,2.717C344.437,63.768,350.16,63.326,356.661,66.341Z" transform="translate(-340.501 -41.451)" fill="#fff"/>
                <path id="Trazado_184016" data-name="Trazado 184016" d="M457.889,140.6a17.946,17.946,0,0,0-6.169-2.287c-2.874-15.107-13.386-31.151-25.921-38.387a25.36,25.36,0,0,0-10.606-3.59c-1.712-18.312-14.443-39.122-29.9-48.048-10.359-5.981-19.494-5.213-24.911.857,5.518-4.716,13.967-4.9,23.443.574,15.461,8.926,28.193,29.736,29.9,48.046a25.382,25.382,0,0,1,10.608,3.59c12.535,7.237,23.046,23.28,25.921,38.388a17.973,17.973,0,0,1,6.169,2.286c9.97,5.756,18.053,19.755,18.053,31.268,0,4.153-1.064,7.4-2.878,9.6,2.7-2.083,4.346-5.859,4.346-11.034C475.942,160.355,467.86,146.356,457.889,140.6Z" transform="translate(-337.604 -44.179)" fill="#fff"/>
              </g>
              <g id="Grupo_142625" data-name="Grupo 142625" transform="translate(5.04 15.418)">
                <path id="Trazado_184017" data-name="Trazado 184017" d="M354.6,72.821l7.538,3.495-.384-8.3c-.027-.583-.044-1.162-.044-1.737,0-7.409,2.237-12.78,6.3-15.125s9.833-1.595,16.248,2.109c13.8,7.966,25.837,27.36,27.407,44.151l.4,4.231,4.236.325a20.391,20.391,0,0,1,8.474,2.93c10.96,6.328,20.839,21.033,23.489,34.964l.663,3.488,3.507.549a13.02,13.02,0,0,1,4.43,1.673c8.419,4.861,15.532,17.181,15.532,26.9,0,3.638-1.008,6.307-2.767,7.324s-4.574.553-7.725-1.265l-100.277-57.9c-11.665-6.734-21.52-23.8-21.52-37.274,0-5.285,1.558-9.313,4.276-11.049a7.322,7.322,0,0,1,4-1.069A15.082,15.082,0,0,1,354.6,72.821Z" transform="translate(-340.101 -49.815)" fill="url(#radial-gradient-13)"/>
              </g>
            </g>
            <g id="Grupo_142629" data-name="Grupo 142629" transform="translate(47.715 64.144)">
              <path id="Trazado_184018" data-name="Trazado 184018" d="M396.435,125.165l2.645-1.328-2.6-1.973Z" transform="translate(-374.565 -88.039)" fill="#5793ce"/>
              <path id="Trazado_184019" data-name="Trazado 184019" d="M389.5,93.723l2.568-1.3.047,1.344Z" transform="translate(-375.575 -92.33)" fill="#5793ce"/>
              <path id="Trazado_184020" data-name="Trazado 184020" d="M403.336,118.251l2.68-1.348L400.858,112Z" transform="translate(-373.92 -89.477)" fill="#5793ce"/>
              <g id="Grupo_142627" data-name="Grupo 142627" transform="translate(2.686)">
                <path id="Trazado_184021" data-name="Trazado 184021" d="M399.807,126.563l-12.524-7.375a2.669,2.669,0,0,1-1.147-2.106l.041-14.5L401,111.314l-.041,14.5C400.96,126.6,400.442,126.938,399.807,126.563Z" transform="translate(-378.751 -90.849)" fill="#5793ce"/>
                <path id="Trazado_184022" data-name="Trazado 184022" d="M393.471,92.453l-13.527,8.7c-.574.37-.11,1.746.762,2.259l13.814,8.137,13.815,8.136c.872.513,1.342-.314.772-1.357L395.676,93.751C395.095,92.689,394.055,92.077,393.471,92.453Z" transform="translate(-379.691 -92.342)" fill="#5793ce"/>
              </g>
              <g id="Grupo_142628" data-name="Grupo 142628" transform="translate(0 1.352)">
                <path id="Trazado_184023" data-name="Trazado 184023" d="M397.463,127.744l-12.524-7.376a2.669,2.669,0,0,1-1.147-2.106l.041-14.5,14.826,8.732-.041,14.5C398.616,127.782,398.1,128.118,397.463,127.744Z" transform="translate(-376.407 -92.029)" fill="#ff2c9c"/>
                <path id="Trazado_184024" data-name="Trazado 184024" d="M391.127,93.633l-13.527,8.7c-.574.369-.11,1.746.762,2.259l13.814,8.136,13.814,8.136c.872.513,1.342-.313.772-1.357L393.332,94.931C392.751,93.869,391.712,93.257,391.127,93.633Z" transform="translate(-377.347 -93.522)" fill="#ff2c9c"/>
              </g>
            </g>
          </g>
        </g>
      </g>
      <path id="Trazado_184025" data-name="Trazado 184025" d="M397.867,228.187l-78.142-45.116,2.073-1.2,78.142,45.116Z" transform="translate(24.261 21.211)" fill="#79b1e0"/>
      <path id="Trazado_184026" data-name="Trazado 184026" d="M345.079,199.016l-26.341-15.208,4.335-2.5,26.341,15.208Z" transform="translate(24.117 21.128)" fill="#d4ecff"/>
      <path id="Trazado_184027" data-name="Trazado 184027" d="M340.964,198.065l-1.108-.625,6.81-3.932,1.108.626Z" transform="translate(27.195 22.907)" fill="#fff"/>
      <path id="Trazado_184028" data-name="Trazado 184028" d="M460.517,287.379a12.247,12.247,0,0,0-1.954,1.431c-.27-8.79-6.619-12.286-14.433-7.775-6.364,3.674-11.754,11.54-13.687,19.25a8.631,8.631,0,0,0-5.4,1.342c-5.7,3.288-10.313,11.287-10.313,17.864s4.617,9.244,10.313,5.955l35.473-20.479a16.832,16.832,0,0,0,7.615-13.19C468.132,286.92,464.723,284.951,460.517,287.379Z" transform="translate(38.109 35.378)" fill="#7dc3ea"/>
      <path id="Trazado_184029" data-name="Trazado 184029" d="M213.009,189.966a12.832,12.832,0,0,0-3.268,2.808c-.154-6.441-4.776-9.016-10.469-5.729a19.059,19.059,0,0,0-5.031,4.389c-2.534-4.43-7.784-5.457-13.868-1.944-8.555,4.939-15.491,16.952-15.491,26.832a18.414,18.414,0,0,0,.155,2.309,5.844,5.844,0,0,0-4.338.875,16.384,16.384,0,0,0-7.412,12.838c0,4.727,3.318,6.643,7.412,4.279l52.31-30.2a15.75,15.75,0,0,0,7.126-12.342C220.134,189.537,216.945,187.694,213.009,189.966Z" transform="translate(0 21.756)" fill="#7dc3ea"/>
      <g id="Grupo_142633" data-name="Grupo 142633" transform="translate(603.828 252.408)">
        <path id="Trazado_184030" data-name="Trazado 184030" d="M553.2,241.257a7.393,7.393,0,0,1-3.344,5.793c-1.847,1.067-3.344.2-3.344-1.931a7.393,7.393,0,0,1,3.344-5.793C551.7,238.259,553.2,239.124,553.2,241.257Z" transform="translate(-546.51 -222.889)" fill="#fff"/>
        <path id="Trazado_184031" data-name="Trazado 184031" d="M561.252,236.608a7.392,7.392,0,0,1-3.344,5.793c-1.848,1.067-3.344.2-3.344-1.931a7.39,7.39,0,0,1,3.344-5.793C559.755,233.61,561.252,234.475,561.252,236.608Z" transform="translate(-545.336 -223.567)" fill="#fff"/>
        <path id="Trazado_184032" data-name="Trazado 184032" d="M553.2,231.959a7.393,7.393,0,0,1-3.344,5.793c-1.847,1.067-3.344.2-3.344-1.931a7.393,7.393,0,0,1,3.344-5.793C551.7,228.961,553.2,229.826,553.2,231.959Z" transform="translate(-546.51 -224.245)" fill="#fff"/>
        <path id="Trazado_184033" data-name="Trazado 184033" d="M561.252,227.31a7.392,7.392,0,0,1-3.344,5.793c-1.848,1.067-3.344.2-3.344-1.931a7.39,7.39,0,0,1,3.344-5.793C559.755,224.312,561.252,225.177,561.252,227.31Z" transform="translate(-545.336 -224.922)" fill="#fff"/>
      </g>
      <g id="Grupo_142634" data-name="Grupo 142634" transform="translate(475.269 47.5)">
        <path id="Trazado_184034" data-name="Trazado 184034" d="M441,58.543,434.307,62.4V54.681L441,50.819Z" transform="translate(-434.307 -45.392)" fill="#fff"/>
        <path id="Trazado_184035" data-name="Trazado 184035" d="M449.1,53.806l-6.689,3.862V49.944l6.689-3.862Z" transform="translate(-433.126 -46.083)" fill="#fff"/>
        <path id="Trazado_184036" data-name="Trazado 184036" d="M441.046,67.288l-6.689,3.862V63.427l6.689-3.862Z" transform="translate(-434.299 -44.117)" fill="#fff"/>
        <path id="Trazado_184037" data-name="Trazado 184037" d="M449.1,62.639,442.409,66.5V58.778l6.689-3.862Z" transform="translate(-433.126 -44.795)" fill="#fff"/>
      </g>
    </g>
  </g>
</svg>
