<svg xmlns="http://www.w3.org/2000/svg" xmlns:xlink="http://www.w3.org/1999/xlink" width="548.531" height="416.507" viewBox="0 0 548.531 416.507">
  <defs>
    <linearGradient id="linear-gradient" x1="0.5" x2="0.5" y2="1" gradientUnits="objectBoundingBox">
      <stop offset="0" stop-color="#fff"/>
      <stop offset="1" stop-color="#d2e6ee"/>
    </linearGradient>
    <linearGradient id="linear-gradient-17" x1="0.5" x2="0.5" y2="1" gradientUnits="objectBoundingBox">
      <stop offset="0" stop-color="#f5f5f5"/>
      <stop offset="0.25" stop-color="#f5f5f5"/>
      <stop offset="1" stop-color="#a7b3cf"/>
    </linearGradient>
  </defs>
  <g id="Grupo_152641" data-name="Grupo 152641" transform="translate(-156.881 -5649.493)">
    <g id="Grupo_151144" data-name="Grupo 151144" transform="translate(199.948 5742.829)" opacity="0.158">
      <path id="Trazado_183874" data-name="Trazado 183874" d="M544.008,164.73l-39.574-22.848,39.574-22.85,39.575,22.85Zm-36.772-22.848,36.772,21.23,36.773-21.23-36.773-21.23Z" transform="translate(-122.695 -119.029)" fill="#173d7a"/>
      <path id="Trazado_183875" data-name="Trazado 183875" d="M483.655,164.73,444.08,141.88l39.574-22.848.349.2,39.226,22.646Zm-36.773-22.85,36.773,21.232,36.772-21.23-36.773-21.23Z" transform="translate(-138.688 -119.029)" fill="#173d7a"/>
      <path id="Trazado_183876" data-name="Trazado 183876" d="M513.832,182.153,474.257,159.3l39.575-22.85,39.574,22.85ZM477.059,159.3l36.773,21.23L550.6,159.3l-36.772-21.23Z" transform="translate(-130.692 -114.413)" fill="#173d7a"/>
      <path id="Trazado_183877" data-name="Trazado 183877" d="M544.009,199.576l-.349-.2-39.226-22.646,39.574-22.849.35.2,39.226,22.647Zm-36.773-22.848,36.773,21.23,36.773-21.23L544.008,155.5Z" transform="translate(-122.695 -109.796)" fill="#173d7a"/>
      <path id="Trazado_183878" data-name="Trazado 183878" d="M423.3,164.729l-.349-.2-39.226-22.646,39.574-22.85.35.2,39.226,22.646Zm-36.773-22.848,36.773,21.23,36.773-21.23L423.3,120.65Z" transform="translate(-154.682 -119.03)" fill="#173d7a"/>
      <path id="Trazado_183879" data-name="Trazado 183879" d="M453.478,182.152l-.349-.2L413.9,159.3l39.574-22.85L493.052,159.3ZM416.7,159.3l36.773,21.23L490.25,159.3l-36.773-21.232Z" transform="translate(-146.685 -114.413)" fill="#173d7a"/>
      <path id="Trazado_183880" data-name="Trazado 183880" d="M483.656,199.575l-.349-.2-39.226-22.646,39.574-22.848,39.574,22.849Zm-36.773-22.848,36.773,21.23,36.771-21.229L483.655,155.5Z" transform="translate(-138.688 -109.796)" fill="#173d7a"/>
      <path id="Trazado_183881" data-name="Trazado 183881" d="M513.833,217l-39.575-22.851L513.832,171.3l.349.2,39.226,22.646ZM477.06,194.148l36.773,21.233,36.772-21.232-36.773-21.23Z" transform="translate(-130.692 -105.179)" fill="#173d7a"/>
      <path id="Trazado_183882" data-name="Trazado 183882" d="M544.01,234.422l-.349-.2-39.226-22.647,39.574-22.848.35.2,39.226,22.646Zm-36.773-22.85L544.01,232.8l36.773-21.23-36.775-21.23Z" transform="translate(-122.695 -100.562)" fill="#173d7a"/>
      <path id="Trazado_183883" data-name="Trazado 183883" d="M362.946,164.729l-39.575-22.85,39.574-22.848.349.2,39.226,22.646Zm-36.773-22.85,36.773,21.232,36.772-21.23-36.773-21.23Z" transform="translate(-170.675 -119.03)" fill="#173d7a"/>
      <path id="Trazado_183884" data-name="Trazado 183884" d="M393.125,182.152l-.35-.2L353.548,159.3l39.575-22.85.349.2L432.7,159.3ZM356.35,159.3l36.775,21.23L429.9,159.3l-36.773-21.23Z" transform="translate(-162.678 -114.413)" fill="#173d7a"/>
      <path id="Trazado_183885" data-name="Trazado 183885" d="M423.3,199.575l-.349-.2-39.226-22.646,39.574-22.85.35.2,39.226,22.647Zm-36.773-22.848,36.773,21.23,36.773-21.23L423.3,155.495Z" transform="translate(-154.682 -109.796)" fill="#173d7a"/>
      <path id="Trazado_183886" data-name="Trazado 183886" d="M453.479,217l-.349-.2L413.9,194.148,453.478,171.3l.35.2,39.225,22.646Zm-36.773-22.85,36.773,21.232,36.772-21.232-36.773-21.23Z" transform="translate(-146.685 -105.179)" fill="#173d7a"/>
      <path id="Trazado_183887" data-name="Trazado 183887" d="M483.656,234.421l-39.574-22.85,39.574-22.848,39.574,22.85Zm-36.772-22.85,36.772,21.23,36.772-21.229-36.772-21.232Z" transform="translate(-138.688 -100.562)" fill="#173d7a"/>
      <path id="Trazado_183888" data-name="Trazado 183888" d="M513.834,251.845l-39.576-22.851,39.575-22.847.349.2L553.408,229ZM477.06,228.994l36.775,21.232L550.606,229l-36.773-21.23Z" transform="translate(-130.692 -95.945)" fill="#173d7a"/>
      <path id="Trazado_183889" data-name="Trazado 183889" d="M544.011,269.267l-.349-.2-39.226-22.646,39.574-22.849.351.2,39.226,22.646Zm-36.773-22.848,36.773,21.23,36.773-21.23-36.775-21.23Z" transform="translate(-122.695 -91.328)" fill="#173d7a"/>
      <path id="Trazado_183890" data-name="Trazado 183890" d="M302.591,164.728l-.349-.2L263.016,141.88l39.574-22.85.35.2,39.226,22.646ZM265.818,141.88l36.773,21.23,36.773-21.23-36.775-21.23Z" transform="translate(-186.669 -119.03)" fill="#173d7a"/>
      <path id="Trazado_183891" data-name="Trazado 183891" d="M332.769,182.151l-.349-.2L293.194,159.3l39.574-22.85L372.343,159.3ZM296,159.3l36.773,21.23L369.541,159.3l-36.773-21.232Z" transform="translate(-178.672 -114.413)" fill="#173d7a"/>
      <path id="Trazado_183892" data-name="Trazado 183892" d="M362.947,199.574l-.349-.2-39.226-22.646,39.574-22.848.349.2,39.226,22.647Zm-36.773-22.848,36.773,21.23,36.772-21.229-36.773-21.232Z" transform="translate(-170.675 -109.796)" fill="#173d7a"/>
      <path id="Trazado_183893" data-name="Trazado 183893" d="M393.125,217l-39.576-22.851L393.124,171.3l.349.2L432.7,194.148Zm-36.775-22.851,36.775,21.233L429.9,194.148l-36.773-21.23Z" transform="translate(-162.678 -105.179)" fill="#173d7a"/>
      <path id="Trazado_183894" data-name="Trazado 183894" d="M423.3,234.421l-.349-.2-39.226-22.647L423.3,188.723l.35.2,39.226,22.646Zm-36.773-22.85L423.3,232.8l36.773-21.23L423.3,190.341Z" transform="translate(-154.681 -100.562)" fill="#173d7a"/>
      <path id="Trazado_183895" data-name="Trazado 183895" d="M453.479,251.844,413.9,228.994l39.574-22.848,39.574,22.848Zm-36.772-22.85,36.772,21.23,36.772-21.23-36.772-21.23Z" transform="translate(-146.684 -95.945)" fill="#173d7a"/>
      <path id="Trazado_183896" data-name="Trazado 183896" d="M483.657,269.266l-.351-.2-39.225-22.646,39.574-22.849,39.575,22.851Zm-36.773-22.848,36.773,21.23,36.772-21.229-36.773-21.232Z" transform="translate(-138.688 -91.328)" fill="#173d7a"/>
      <path id="Trazado_183897" data-name="Trazado 183897" d="M513.836,286.689l-.35-.2L474.259,263.84l39.575-22.848.349.2,39.226,22.647ZM477.061,263.84l36.775,21.23,36.772-21.229-36.773-21.23Z" transform="translate(-130.691 -86.711)" fill="#173d7a"/>
      <path id="Trazado_183898" data-name="Trazado 183898" d="M544.012,304.113l-39.575-22.85,39.574-22.848.35.2,39.225,22.647Zm-36.773-22.85,36.773,21.232,36.773-21.23-36.775-21.232Z" transform="translate(-122.694 -82.094)" fill="#173d7a"/>
      <path id="Trazado_183899" data-name="Trazado 183899" d="M242.237,164.727l-.349-.2-39.226-22.646,39.574-22.848.349.2,39.226,22.646Zm-36.773-22.848,36.773,21.23,36.772-21.229-36.773-21.23Z" transform="translate(-202.662 -119.03)" fill="#173d7a"/>
      <path id="Trazado_183900" data-name="Trazado 183900" d="M272.415,182.151,232.84,159.3l39.574-22.848.349.2L311.989,159.3ZM235.641,159.3l36.775,21.232,36.772-21.23-36.773-21.23Z" transform="translate(-194.665 -114.413)" fill="#173d7a"/>
      <path id="Trazado_183901" data-name="Trazado 183901" d="M302.592,199.574l-.349-.2-39.226-22.646,39.574-22.85.35.2,39.226,22.647Zm-36.773-22.848,36.773,21.23,36.773-21.23-36.775-21.232Z" transform="translate(-186.668 -109.796)" fill="#173d7a"/>
      <path id="Trazado_183902" data-name="Trazado 183902" d="M332.77,217l-.349-.2L293.2,194.147,332.769,171.3l.35.2,39.225,22.646ZM296,194.147l36.773,21.232,36.772-21.232-36.773-21.23Z" transform="translate(-178.671 -105.179)" fill="#173d7a"/>
      <path id="Trazado_183903" data-name="Trazado 183903" d="M362.948,234.42l-.35-.2L323.373,211.57l39.574-22.848,39.575,22.849Zm-36.773-22.85L362.948,232.8l36.772-21.23L362.947,190.34Z" transform="translate(-170.675 -100.562)" fill="#173d7a"/>
      <path id="Trazado_183904" data-name="Trazado 183904" d="M393.126,251.843l-.35-.2L353.55,228.993l39.575-22.847.349.2L432.7,228.994Zm-36.775-22.85,36.775,21.23L429.9,228.994l-36.773-21.23Z" transform="translate(-162.678 -95.945)" fill="#173d7a"/>
      <path id="Trazado_183905" data-name="Trazado 183905" d="M423.3,269.266l-39.575-22.849L423.3,223.568l39.575,22.849ZM386.53,246.416,423.3,267.648l36.772-21.23L423.3,225.187Z" transform="translate(-154.681 -91.328)" fill="#173d7a"/>
      <path id="Trazado_183906" data-name="Trazado 183906" d="M453.48,286.689l-39.574-22.848,39.573-22.849.349.2,39.226,22.647Zm-36.772-22.848,36.772,21.23,36.772-21.23-36.773-21.23Z" transform="translate(-146.684 -86.712)" fill="#173d7a"/>
      <path id="Trazado_183907" data-name="Trazado 183907" d="M483.658,304.112l-.35-.2-39.225-22.646,39.574-22.85.349.2,39.226,22.647Zm-36.773-22.848,36.773,21.23,36.772-21.23-36.773-21.232Z" transform="translate(-138.688 -82.095)" fill="#173d7a"/>
      <path id="Trazado_183908" data-name="Trazado 183908" d="M513.836,321.535l-.35-.2L474.26,298.685l39.575-22.848,39.575,22.849Zm-36.775-22.85,36.775,21.232,36.772-21.23-36.773-21.232Z" transform="translate(-130.691 -77.478)" fill="#173d7a"/>
      <path id="Trazado_183909" data-name="Trazado 183909" d="M544.013,338.959l-39.575-22.851,39.574-22.847.35.2,39.225,22.646ZM507.24,316.108l36.773,21.232,36.773-21.23-36.774-21.23Z" transform="translate(-122.694 -72.861)" fill="#173d7a"/>
      <path id="Trazado_183910" data-name="Trazado 183910" d="M242.238,199.573l-.349-.2-39.226-22.646,39.574-22.85,39.575,22.851Zm-36.773-22.848,36.773,21.23,36.772-21.229-36.773-21.233Z" transform="translate(-202.661 -109.796)" fill="#173d7a"/>
      <path id="Trazado_183911" data-name="Trazado 183911" d="M272.416,217,232.84,194.146,272.415,171.3l.349.2,39.226,22.646Zm-36.775-22.851,36.775,21.233,36.772-21.232-36.773-21.23Z" transform="translate(-194.665 -105.179)" fill="#173d7a"/>
      <path id="Trazado_183912" data-name="Trazado 183912" d="M302.593,234.42l-.349-.2L263.018,211.57l39.574-22.848.35.2,39.226,22.646ZM265.82,211.57,302.593,232.8l36.773-21.232-36.774-21.23Z" transform="translate(-186.668 -100.562)" fill="#173d7a"/>
      <path id="Trazado_183913" data-name="Trazado 183913" d="M332.771,251.843l-.349-.2L293.2,228.993l39.574-22.848.349.2,39.226,22.646ZM296,228.993l36.773,21.23,36.772-21.23-36.773-21.23Z" transform="translate(-178.671 -95.945)" fill="#173d7a"/>
      <path id="Trazado_183914" data-name="Trazado 183914" d="M362.949,269.266l-.35-.2-39.225-22.646,39.574-22.848.349.2,39.226,22.646Zm-36.773-22.849,36.773,21.23,36.772-21.23-36.773-21.23Z" transform="translate(-170.674 -91.328)" fill="#173d7a"/>
      <path id="Trazado_183915" data-name="Trazado 183915" d="M393.128,286.688l-.35-.2L353.551,263.84l39.575-22.85L432.7,263.841ZM356.353,263.84l36.775,21.23L429.9,263.841l-36.773-21.232Z" transform="translate(-162.678 -86.712)" fill="#173d7a"/>
      <path id="Trazado_183916" data-name="Trazado 183916" d="M423.3,304.112l-39.574-22.849L423.3,258.414l39.575,22.85Zm-36.772-22.849L423.3,302.494l36.773-21.23L423.3,260.032Z" transform="translate(-154.681 -82.095)" fill="#173d7a"/>
      <path id="Trazado_183917" data-name="Trazado 183917" d="M453.481,321.535l-.349-.2-39.226-22.647,39.574-22.848.349.2,39.226,22.646Zm-36.773-22.85,36.773,21.232,36.772-21.232-36.773-21.23Z" transform="translate(-146.684 -77.478)" fill="#173d7a"/>
      <path id="Trazado_183918" data-name="Trazado 183918" d="M483.659,338.958l-.35-.2-39.225-22.647,39.574-22.848.349.2,39.226,22.646Zm-36.775-22.85,36.775,21.232,36.772-21.232-36.773-21.23Z" transform="translate(-138.687 -72.861)" fill="#173d7a"/>
      <path id="Trazado_183919" data-name="Trazado 183919" d="M513.837,356.381l-.35-.2-39.226-22.647,39.575-22.848,39.575,22.85Zm-36.775-22.85,36.775,21.23,36.772-21.229L513.836,312.3Z" transform="translate(-130.691 -68.244)" fill="#173d7a"/>
      <path id="Trazado_183920" data-name="Trazado 183920" d="M544.014,373.8l-.349-.2-39.226-22.646,39.574-22.848.35.2,39.225,22.646Zm-36.773-22.85,36.773,21.23,36.773-21.229-36.774-21.23Z" transform="translate(-122.694 -63.627)" fill="#173d7a"/>
      <path id="Trazado_183921" data-name="Trazado 183921" d="M242.239,234.419l-.349-.2-39.226-22.647,39.574-22.848,39.575,22.85Zm-36.773-22.85L242.239,232.8l36.772-21.23-36.773-21.232Z" transform="translate(-202.661 -100.563)" fill="#173d7a"/>
      <path id="Trazado_183922" data-name="Trazado 183922" d="M272.417,251.841l-.35-.2-39.226-22.647,39.575-22.847.349.2,39.226,22.646Zm-36.775-22.85,36.775,21.23,36.772-21.229-36.773-21.23Z" transform="translate(-194.665 -95.945)" fill="#173d7a"/>
      <path id="Trazado_183923" data-name="Trazado 183923" d="M302.594,269.266l-39.575-22.851,39.574-22.847.35.2,39.226,22.646Zm-36.773-22.851,36.773,21.232,36.773-21.23-36.775-21.23Z" transform="translate(-186.668 -91.328)" fill="#173d7a"/>
      <path id="Trazado_183924" data-name="Trazado 183924" d="M332.772,286.688l-.349-.2L293.2,263.84l39.574-22.85.349.2,39.226,22.647ZM296,263.84l36.773,21.23,36.772-21.23-36.773-21.23Z" transform="translate(-178.671 -86.712)" fill="#173d7a"/>
      <path id="Trazado_183925" data-name="Trazado 183925" d="M362.95,304.111l-.35-.2-39.225-22.646,39.574-22.85.349.2,39.226,22.647Zm-36.773-22.848,36.773,21.23,36.772-21.23-36.773-21.23Z" transform="translate(-170.674 -82.095)" fill="#173d7a"/>
      <path id="Trazado_183926" data-name="Trazado 183926" d="M393.127,321.534l-39.575-22.848,39.575-22.85,39.574,22.85Zm-36.773-22.848,36.773,21.23,36.772-21.23-36.772-21.232Z" transform="translate(-162.677 -77.478)" fill="#173d7a"/>
      <path id="Trazado_183927" data-name="Trazado 183927" d="M423.3,338.957l-.349-.2-39.226-22.647L423.3,293.26l.35.2,39.225,22.646Zm-36.773-22.85L423.3,337.339l36.773-21.23L423.3,294.878Z" transform="translate(-154.681 -72.861)" fill="#173d7a"/>
      <path id="Trazado_183928" data-name="Trazado 183928" d="M453.482,356.381,413.907,333.53l39.574-22.847.349.2,39.226,22.646ZM416.709,333.53l36.773,21.232,36.772-21.23L453.481,312.3Z" transform="translate(-146.684 -68.244)" fill="#173d7a"/>
      <path id="Trazado_183929" data-name="Trazado 183929" d="M483.66,373.8l-.351-.2-39.225-22.646,39.574-22.848.349.2,39.226,22.646Zm-36.775-22.85,36.775,21.23,36.772-21.23-36.773-21.23Z" transform="translate(-138.687 -63.627)" fill="#173d7a"/>
      <path id="Trazado_183930" data-name="Trazado 183930" d="M242.24,269.265l-.35-.2-39.225-22.646,39.574-22.848.349.2,39.226,22.646Zm-36.773-22.849,36.773,21.23,36.772-21.23-36.773-21.23Z" transform="translate(-202.661 -91.329)" fill="#173d7a"/>
      <path id="Trazado_183931" data-name="Trazado 183931" d="M272.418,286.687l-.35-.2-39.226-22.646,39.575-22.849,39.575,22.851Zm-36.775-22.848,36.775,21.23L309.19,263.84l-36.773-21.232Z" transform="translate(-194.664 -86.712)" fill="#173d7a"/>
      <path id="Trazado_183932" data-name="Trazado 183932" d="M302.6,304.111,263.02,281.261l39.574-22.848.35.2,39.226,22.647Zm-36.773-22.849L302.6,302.493l36.773-21.23-36.775-21.23Z" transform="translate(-186.667 -82.095)" fill="#173d7a"/>
      <path id="Trazado_183933" data-name="Trazado 183933" d="M332.773,321.534l-.349-.2L293.2,298.686l39.574-22.85.349.2,39.226,22.647ZM296,298.686l36.773,21.23,36.772-21.23-36.773-21.232Z" transform="translate(-178.671 -77.478)" fill="#173d7a"/>
      <path id="Trazado_183934" data-name="Trazado 183934" d="M362.951,338.957l-.35-.2-39.225-22.647,39.574-22.848,39.574,22.848Zm-36.775-22.849,36.775,21.232,36.771-21.232-36.772-21.23Z" transform="translate(-170.674 -72.861)" fill="#173d7a"/>
      <path id="Trazado_183935" data-name="Trazado 183935" d="M393.128,356.38l-39.575-22.85,39.574-22.848.349.2L432.7,333.53Zm-36.773-22.85,36.773,21.23L429.9,333.53,393.127,312.3Z" transform="translate(-162.677 -68.244)" fill="#173d7a"/>
      <path id="Trazado_183936" data-name="Trazado 183936" d="M423.305,373.8l-.349-.2L383.73,350.953,423.3,328.105l39.575,22.849Zm-36.773-22.85,36.773,21.23,36.773-21.229L423.3,329.723Z" transform="translate(-154.681 -63.627)" fill="#173d7a"/>
      <path id="Trazado_183937" data-name="Trazado 183937" d="M242.241,304.11l-.35-.2-39.225-22.646,39.574-22.85.349.2,39.226,22.647Zm-36.773-22.848,36.773,21.23,36.772-21.23-36.773-21.23Z" transform="translate(-202.661 -82.095)" fill="#173d7a"/>
      <path id="Trazado_183938" data-name="Trazado 183938" d="M272.419,321.533l-.35-.2-39.226-22.646,39.575-22.85,39.575,22.851Zm-36.775-22.848,36.775,21.23,36.772-21.229-36.773-21.233Z" transform="translate(-194.664 -77.478)" fill="#173d7a"/>
      <path id="Trazado_183939" data-name="Trazado 183939" d="M302.6,338.956l-.349-.2-39.226-22.647,39.574-22.847.35.2,39.225,22.646Zm-36.773-22.85L302.6,337.338l36.773-21.23-36.775-21.23Z" transform="translate(-186.667 -72.861)" fill="#173d7a"/>
      <path id="Trazado_183940" data-name="Trazado 183940" d="M332.774,356.38,293.2,333.529l39.574-22.847.349.2,39.226,22.646ZM296,333.529l36.773,21.232,36.772-21.23L332.773,312.3Z" transform="translate(-178.67 -68.244)" fill="#173d7a"/>
      <path id="Trazado_183941" data-name="Trazado 183941" d="M362.951,373.8l-39.574-22.85,39.574-22.848,39.574,22.848Zm-36.773-22.85,36.773,21.23,36.772-21.23-36.772-21.23Z" transform="translate(-170.673 -63.627)" fill="#173d7a"/>
      <path id="Trazado_183942" data-name="Trazado 183942" d="M242.242,338.956l-.35-.2-39.225-22.647,39.574-22.848.349.2,39.226,22.646Zm-36.775-22.85,36.775,21.232,36.772-21.232-36.773-21.23Z" transform="translate(-202.66 -72.861)" fill="#173d7a"/>
      <path id="Trazado_183943" data-name="Trazado 183943" d="M272.42,356.379l-.35-.2-39.226-22.647,39.575-22.848.349.2,39.226,22.646Zm-36.774-22.85,36.774,21.23,36.772-21.23L272.419,312.3Z" transform="translate(-194.664 -68.244)" fill="#173d7a"/>
      <path id="Trazado_183944" data-name="Trazado 183944" d="M302.6,373.8l-.349-.2-39.226-22.646L302.6,328.1l39.575,22.849Zm-36.773-22.849,36.773,21.23,36.773-21.229L302.6,329.722Z" transform="translate(-186.667 -63.628)" fill="#173d7a"/>
      <path id="Trazado_183945" data-name="Trazado 183945" d="M242.243,373.8l-.35-.2-39.225-22.646L242.242,328.1l.349.2,39.226,22.646Zm-36.775-22.849,36.775,21.23,36.772-21.23-36.773-21.23Z" transform="translate(-202.66 -63.628)" fill="#173d7a"/>
    </g>
    <g id="Grupo_41977" data-name="Grupo 41977" transform="translate(132.972 5575.882)">
      <path id="Trazado_95347" data-name="Trazado 95347" d="M310.1,213.358l35.484-20.486c6.5-3.751,17.033-3.751,23.528,0l15.272,9.262L507.638,273.3c6.5,3.75,6.5,9.832,0,13.582L400,349.024" transform="translate(58.427 23.773)" fill="none" stroke="#00223d" stroke-linecap="round" stroke-linejoin="round" stroke-width="3"/>
      <path id="Trazado_95348" data-name="Trazado 95348" d="M118.68,194.175l68.933-39.8c6.5-3.75,17.03-3.75,23.526,0l15.273,9.264L304.3,208.606" transform="translate(19.348 15.914)" fill="none" stroke="#00223d" stroke-linecap="round" stroke-linejoin="round" stroke-width="3"/>
      <path id="Trazado_95349" data-name="Trazado 95349" d="M146.386,375.164l-106.17-61.3c-6.5-3.752-6.5-9.834,0-13.584l114.928-66.355" transform="translate(2.334 32.729)" fill="none" stroke="#00223d" stroke-linecap="round" stroke-linejoin="round" stroke-width="3"/>
      <line id="Línea_335" data-name="Línea 335" x1="81.844" y2="48.398" transform="translate(138.027 345.376)" fill="none" stroke="#00223d" stroke-linecap="round" stroke-linejoin="round" stroke-width="3"/>
      <line id="Línea_336" data-name="Línea 336" x1="135.273" y2="78.555" transform="translate(220.12 257.369)" fill="none" stroke="#00223d" stroke-linecap="round" stroke-linejoin="round" stroke-width="3"/>
      <path id="Trazado_95350" data-name="Trazado 95350" d="M372.1,351.661,246.839,423.982c-6.5,3.75-17.03,3.75-23.527,0l-99.677-57.549" transform="translate(20.359 56.765)" fill="none" stroke="#00223d" stroke-linecap="round" stroke-linejoin="round" stroke-width="3"/>
      <path id="Trazado_95351" data-name="Trazado 95351" d="M377.284,233.247,271.043,171.909a1.981,1.981,0,0,0-1.984,0l-49.085,28.338a1.984,1.984,0,0,0,0,3.437l106.241,61.337a1.975,1.975,0,0,0,1.984,0l49.085-28.337a1.984,1.984,0,0,0,0-3.437Z" transform="translate(39.825 20.014)" opacity="0.2" style="mix-blend-mode: multiply;isolation: isolate"/>
      <g id="Grupo_41938" data-name="Grupo 41938" transform="translate(260.79 73.611)">
        <path id="Trazado_95352" data-name="Trazado 95352" d="M357.943,243.559,308.858,271.9V152.545l49.085-28.339Z" transform="translate(-202.617 -63.282)" fill="url(#linear-gradient)"/>
        <path id="Trazado_95353" data-name="Trazado 95353" d="M357.943,144.206l-49.085,28.338v-2.962l49.085-28.339Z" transform="translate(-202.617 -59.803)" fill="#00223d"/>
        <path id="Trazado_95354" data-name="Trazado 95354" d="M357.943,164.246l-49.085,28.339v-2.962l49.085-28.339Z" transform="translate(-202.617 -55.712)" fill="#00223d"/>
        <path id="Trazado_95355" data-name="Trazado 95355" d="M357.943,184.288l-49.085,28.339v-2.962l49.085-28.339Z" transform="translate(-202.617 -51.621)" fill="#00223d"/>
        <path id="Trazado_95356" data-name="Trazado 95356" d="M357.943,204.328l-49.085,28.339v-2.963l49.085-28.339Z" transform="translate(-202.617 -47.529)" fill="#00223d"/>
        <path id="Trazado_95357" data-name="Trazado 95357" d="M333.2,224.076a7.478,7.478,0,0,1-3.384,5.859c-1.869,1.079-3.384.206-3.384-1.953a7.476,7.476,0,0,1,3.384-5.859C331.682,221.043,333.2,221.916,333.2,224.076Z" transform="translate(-199.029 -43.386)" fill="#00223d"/>
        <g id="Grupo_41937" data-name="Grupo 41937" transform="translate(114.463 170.329)">
          <path id="Trazado_95358" data-name="Trazado 95358" d="M319.07,228.324a7.485,7.485,0,0,0-3.384,5.859c0,2.158,1.517,3.032,3.384,1.952a7.466,7.466,0,0,0,3.385-5.858C322.453,228.121,320.941,227.245,319.07,228.324Z" transform="translate(-315.686 -212.449)" fill="#ff2c9c"/>
          <path id="Trazado_95359" data-name="Trazado 95359" d="M341.241,215.523a7.489,7.489,0,0,0-3.385,5.862c0,2.157,1.517,3.032,3.385,1.953a7.476,7.476,0,0,0,3.384-5.862C344.625,215.32,343.111,214.447,341.241,215.523Z" transform="translate(-311.16 -215.062)" fill="#e2c140"/>
        </g>
        <path id="Trazado_95360" data-name="Trazado 95360" d="M326.869,277.492l-106.24-61.338V96.8L326.871,158.14Z" transform="translate(-220.629 -68.876)" fill="url(#linear-gradient)"/>
        <path id="Trazado_95361" data-name="Trazado 95361" d="M326.87,163.289,220.629,101.95l49.086-28.339L375.955,134.95Z" transform="translate(-220.629 -73.611)" fill="#d2e1f1"/>
        <path id="Trazado_95362" data-name="Trazado 95362" d="M326.869,178.14,220.629,116.8V113.84l106.24,61.338Z" transform="translate(-220.629 -65.398)" fill="#21587b"/>
        <path id="Trazado_95363" data-name="Trazado 95363" d="M326.871,198.18,220.629,136.842V133.88l106.241,61.338Z" transform="translate(-220.629 -61.307)" fill="#21587b"/>
        <path id="Trazado_95364" data-name="Trazado 95364" d="M326.871,218.221,220.629,156.884v-2.963l106.241,61.338Z" transform="translate(-220.629 -57.215)" fill="#21587b"/>
        <path id="Trazado_95365" data-name="Trazado 95365" d="M326.869,238.262l-106.24-61.339v-2.962L326.871,235.3Z" transform="translate(-220.629 -53.124)" fill="#21587b"/>
      </g>
      <path id="Trazado_95366" data-name="Trazado 95366" d="M313.348,332.882l-99.109-57.22a10.525,10.525,0,0,0-9.74,0L146.069,309.4a4.369,4.369,0,0,0,0,8.008l99.108,57.221a10.523,10.523,0,0,0,9.739,0l58.43-33.736a4.369,4.369,0,0,0,0-8.008Z" transform="translate(24.404 41.005)" opacity="0.2" style="mix-blend-mode: multiply;isolation: isolate"/>
      <g id="Grupo_41939" data-name="Grupo 41939" transform="translate(169.919 311.157)">
        <path id="Trazado_95367" data-name="Trazado 95367" d="M313.55,331.639v-.384a2.681,2.681,0,0,0-1.586-2.234L212.856,271.8a8.482,8.482,0,0,0-7.674,0l-58.429,33.733a2.69,2.69,0,0,0-1.587,2.234v.836a.27.27,0,0,0,0,.031v.108a.29.29,0,0,0,0,.033v1.5a.267.267,0,0,0,0,.031v2.679a2.684,2.684,0,0,0,1.587,2.232l99.108,57.22a8.489,8.489,0,0,0,7.674,0L311.964,338.7a2.682,2.682,0,0,0,1.586-2.232v-4.83Z" transform="translate(-145.164 -270.883)" fill="#00223d"/>
        <path id="Trazado_95368" data-name="Trazado 95368" d="M311.964,329.021c2.119,1.222,2.117,3.207,0,4.431l-58.429,33.733a8.481,8.481,0,0,1-7.674,0l-99.108-57.218c-2.119-1.225-2.118-3.208,0-4.434L205.183,271.8a8.482,8.482,0,0,1,7.674,0Z" transform="translate(-145.164 -270.883)" fill="url(#linear-gradient)"/>
        <path id="Trazado_95369" data-name="Trazado 95369" d="M286.064,322.023c1.676.968,1.679,2.539,0,3.506l-46.248,26.7a6.727,6.727,0,0,1-6.075,0L160.434,309.91c-1.677-.969-1.677-2.54,0-3.506l46.249-26.7a6.709,6.709,0,0,1,6.075,0Z" transform="translate(-142.304 -269.231)" fill="#00223d"/>
        <path id="Trazado_95370" data-name="Trazado 95370" d="M281.57,321.694c1.592.918,1.626,2.39.076,3.287l-42.784,24.7a6.3,6.3,0,0,1-5.692-.04l-69.558-40.162c-1.593-.92-1.623-2.389-.072-3.286l42.781-24.7a6.3,6.3,0,0,1,5.693.042Z" transform="translate(-141.646 -268.852)" fill="#a6e4ff"/>
        <path id="Trazado_95371" data-name="Trazado 95371" d="M163.612,308.507l7.007,4.046q13.469-13.474,26.921-26.963l-34,19.631C161.989,306.118,162.019,307.587,163.612,308.507Z" transform="translate(-141.646 -267.881)" fill="#bfecff"/>
        <path id="Trazado_95372" data-name="Trazado 95372" d="M243.586,301.032l-12.678-7.319q-17.717,17.715-35.431,35.432l12.677,7.319Q225.869,318.748,243.586,301.032Z" transform="translate(-134.893 -266.222)" fill="#bfecff"/>
        <path id="Trazado_95373" data-name="Trazado 95373" d="M225.6,345.063l34.5-34.5-7.127-4.115q-17.717,17.719-35.433,35.433l4.372,2.526A6.242,6.242,0,0,0,225.6,345.063Z" transform="translate(-130.389 -263.622)" fill="#bfecff"/>
        <path id="Trazado_95374" data-name="Trazado 95374" d="M220.02,287.433l-3.893-2.248q-17.663,17.755-35.367,35.47l3.828,2.21Q202.305,305.149,220.02,287.433Z" transform="translate(-137.897 -267.963)" fill="#bfecff"/>
        <path id="Trazado_95375" data-name="Trazado 95375" d="M187.861,283.793a1.032,1.032,0,0,1,0,1.956l-16.947,9.787a3.757,3.757,0,0,1-3.392,0h0a1.033,1.033,0,0,1,0-1.957l16.948-9.786a3.739,3.739,0,0,1,3.391,0Z" transform="translate(-140.743 -268.33)" fill="#00223d"/>
        <path id="Trazado_95376" data-name="Trazado 95376" d="M258.687,330.336c2.912,1.682,2.912,4.407,0,6.091a11.667,11.667,0,0,1-10.547,0c-2.912-1.682-2.912-4.407,0-6.089A11.664,11.664,0,0,1,258.687,330.336Z" transform="translate(-124.587 -259.002)" fill="#fff"/>
        <path id="Trazado_95377" data-name="Trazado 95377" d="M256.2,331.217c1.8,1.043,1.8,2.731,0,3.773a7.221,7.221,0,0,1-6.535,0c-1.8-1.042-1.8-2.73,0-3.773A7.235,7.235,0,0,1,256.2,331.217Z" transform="translate(-124.106 -258.725)" fill="#66797a"/>
        <path id="Trazado_95378" data-name="Trazado 95378" d="M247.089,337.3a.806.806,0,0,1,0,1.524l-13.937,8.044a2.91,2.91,0,0,1-2.636,0h0a.8.8,0,0,1,0-1.52l13.936-8.049a2.915,2.915,0,0,1,2.637,0Z" transform="translate(-127.851 -257.388)" fill="#00223d"/>
        <path id="Trazado_95379" data-name="Trazado 95379" d="M276.78,320.16a.8.8,0,0,1,0,1.523l-13.935,8.046a2.928,2.928,0,0,1-2.639,0h0a.8.8,0,0,1,0-1.521l13.937-8.049a2.916,2.916,0,0,1,2.637,0Z" transform="translate(-121.79 -260.887)" fill="#00223d"/>
      </g>
      <path id="Trazado_95380" data-name="Trazado 95380" d="M248.565,207.534l-85.338-49.269a16.5,16.5,0,0,0-8.015-2.124,10.682,10.682,0,0,0-5.327,1.263L27.067,228.313a5.929,5.929,0,0,0-3.158,5.167c0,2.564,1.694,5.012,4.649,6.719L113.9,289.467a16.491,16.491,0,0,0,8.014,2.124,10.674,10.674,0,0,0,5.328-1.266l122.816-70.907a5.927,5.927,0,0,0,3.16-5.167C253.215,211.689,251.52,209.241,248.565,207.534Z" transform="translate(0 16.849)" opacity="0.2" style="mix-blend-mode: multiply;isolation: isolate"/>
      <g id="Grupo_41940" data-name="Grupo 41940" transform="translate(27.531 170.33)">
        <path id="Trazado_95381" data-name="Trazado 95381" d="M248.972,210.878c0-.015,0-.029,0-.042s0-.03,0-.045,0-.029,0-.045,0-.03,0-.045,0-.03,0-.046,0-.028,0-.042v-.045c0-.014,0-.03,0-.045s0-.03,0-.045,0-.029,0-.043,0-.03,0-.046,0-.029,0-.043,0-.03,0-.045,0-.03,0-.045,0-.029,0-.045,0-.029,0-.043,0-.031,0-.045,0-.03,0-.045,0-.029,0-.043,0-.03,0-.047,0-.03,0-.045,0-.028,0-.041v-.046c0-.014,0-.03,0-.045s0-.03,0-.045,0-.03,0-.043,0-.03,0-.046,0-.029,0-.043,0-.03,0-.045,0-.03,0-.045,0-.029,0-.045,0-.029,0-.044,0-.029,0-.043,0-.03,0-.045,0-.03,0-.045,0-.029,0-.045,0-.029,0-.045,0-.029,0-.043,0-.03,0-.044,0-.03,0-.045,0-.028,0-.04,0-.035,0-.053,0-.026,0-.04,0-.03,0-.045,0-.03,0-.045,0-.03,0-.045,0-.03,0-.043,0-.03,0-.045,0-.03,0-.046,0-.029,0-.043,0-.057,0-.084c.091-1.216-.895-2.62-2.833-3.74L160.8,155.571c-3.095-1.787-7.448-2.172-9.72-.861L28.266,225.619a2.378,2.378,0,0,0-1.343,1.916c0,.045,0,.09,0,.135,0,.017,0,.032,0,.048s0,.029,0,.044,0,.029,0,.043,0,.03,0,.044,0,.03,0,.045,0,.03,0,.045,0,.03,0,.046,0,.028,0,.041,0,.031,0,.046,0,.03,0,.045,0,.03,0,.045,0,.03,0,.045,0,.029,0,.043,0,.03,0,.045,0,.03,0,.045,0,.03,0,.045,0,.03,0,.045,0,.03,0,.043,0,.03,0,.046,0,.029,0,.043,0,.031,0,.046,0,.029,0,.042,0,.03,0,.046,0,.029,0,.045,0,.03,0,.043,0,.03,0,.045,0,.029,0,.043,0,.031,0,.046,0,.03,0,.043,0,.03,0,.045,0,.03,0,.043,0,.031,0,.046,0,.029,0,.045,0,.029,0,.045,0,.029,0,.043,0,.03,0,.046,0,.029,0,.043,0,.03,0,.045,0,.029,0,.045,0,.029,0,.045,0,.029,0,.046,0,.028,0,.04,0,.031,0,.047,0,.03,0,.045,0,.029,0,.043,0,.03,0,.045,0,.03,0,.045,0,.03,0,.046,0,.03,0,.045,0,.028,0,.042,0,.03,0,.045,0,.03,0,.045,0,.03,0,.044,0,.029,0,.045,0,.03,0,.045,0,.029,0,.043,0,.031,0,.045,0,.03,0,.045,0,.03,0,.045,0,.03,0,.043,0,.03,0,.046,0,.029,0,.045,0,.029,0,.043,0,.03,0,.044,0,.029,0,.046,0,.028,0,.043,0,.029,0,.042,0,.031,0,.047,0,.03,0,.045,0,.028,0,.042,0,.029,0,.046,0,.029,0,.043,0,.03,0,.045,0,.03,0,.044,0,.03,0,.045,0,.03,0,.045,0,.029,0,.043,0,.03,0,.045,0,.03,0,.045,0,.03,0,.045,0,.029,0,.045,0,.029,0,.045,0,.029,0,.045,0,.029,0,.043,0,.03,0,.045,0,.03,0,.045,0,.029,0,.043,0,.03,0,.046,0,.029,0,.043,0,.03,0,.045,0,.03,0,.045,0,.029,0,.044,0,.03,0,.045,0,.029,0,.043,0,.03,0,.045,0,.029,0,.044,0,.03,0,.045,0,.029,0,.045,0,.029,0,.045,0,.029,0,.045,0,.029,0,.043,0,.03,0,.045,0,.029,0,.045,0,.029,0,.043,0,.031,0,.045,0,.03,0,.045,0,.03,0,.045,0,.029,0,.043,0,.03,0,.045,0,.03,0,.045,0,.03,0,.045,0,.03,0,.045,0,.029,0,.045,0,.03,0,.045,0,.029,0,.043,0,.03,0,.046,0,.029,0,.045,0,.028,0,.043,0,.029,0,.045,0,.03,0,.043,0,.031,0,.045,0,.03,0,.045,0,.03,0,.045,0,.03,0,.043,0,.03,0,.045,0,.03,0,.046,0,.028,0,.043,0,.03,0,.045,0,.029,0,.043,0,.03,0,.046,0,.029,0,.045,0,.029,0,.045,0,.029,0,.043,0,.029,0,.045,0,.029,0,.045,0,.029,0,.043,0,.031,0,.045,0,.03,0,.045,0,.03,0,.045,0,.03,0,.043,0,.03,0,.045,0,.03,0,.045,0,.03,0,.045,0,.029,0,.045,0,.029,0,.045,0,.029,0,.043,0,.031,0,.046c-.089,1.214.9,2.615,2.832,3.734l85.338,49.269c3.095,1.787,7.446,2.172,9.72.861L247.63,217.145a2.38,2.38,0,0,0,1.343-1.922c0-.014,0-.03,0-.045s0-.03,0-.043,0-.03,0-.046,0-.03,0-.044,0-.028,0-.042,0-.03,0-.046,0-.029,0-.043,0-.031,0-.045,0-.03,0-.045,0-.03,0-.045,0-.029,0-.045,0-.029,0-.045,0-.029,0-.043,0-.03,0-.046,0-.029,0-.043,0-.03,0-.045,0-.03,0-.043,0-.03,0-.046,0-.029,0-.045,0-.029,0-.043,0-.03,0-.045,0-.029,0-.045,0-.029,0-.045,0-.03,0-.043,0-.03,0-.045,0-.03,0-.045,0-.03,0-.045,0-.029,0-.044,0-.029,0-.043,0-.03,0-.046,0-.029,0-.043,0-.03,0-.045,0-.03,0-.045,0-.029,0-.043,0-.03,0-.046,0-.029,0-.043,0-.03,0-.045,0-.029,0-.045,0-.029,0-.045,0-.029,0-.043,0-.03,0-.045,0-.03,0-.045,0-.03,0-.045,0-.029,0-.044,0-.029,0-.045,0-.029,0-.043,0-.03,0-.045,0-.03,0-.045,0-.029,0-.045,0-.03,0-.045,0-.029,0-.043,0-.03,0-.046,0-.028,0-.043,0-.03,0-.045,0-.03,0-.045,0-.029,0-.045,0-.029,0-.043,0-.03,0-.045,0-.03,0-.045,0-.029,0-.045,0-.029,0-.044,0-.029,0-.043,0-.03,0-.044,0-.03,0-.045,0-.03,0-.043,0-.03,0-.045,0-.03,0-.044,0-.03,0-.045,0-.03,0-.045,0-.029,0-.045,0-.03,0-.044,0-.029,0-.043,0-.03,0-.044,0-.03,0-.045,0-.03,0-.044,0-.03,0-.045,0-.028,0-.042,0-.031,0-.048,0-.029,0-.043,0-.029,0-.043,0-.029,0-.042,0-.033,0-.047,0-.03,0-.046,0-.028,0-.041,0-.03,0-.046,0-.029,0-.043,0-.03,0-.046,0-.029,0-.043,0-.03,0-.045,0-.03,0-.045,0-.029,0-.044,0-.029,0-.045,0-.029,0-.043,0-.03,0-.045,0-.03,0-.046,0-.029,0-.043,0-.028,0-.043S248.972,210.893,248.972,210.878Z" transform="translate(-26.917 -153.932)" fill="#00223d"/>
        <path id="Trazado_95382" data-name="Trazado 95382" d="M124.813,281.36c-2.273,1.313-6.625.926-9.72-.861L29.755,231.231c-3.095-1.788-3.762-4.3-1.49-5.613L151.082,154.71c2.272-1.311,6.625-.926,9.72.861l85.337,49.268c3.1,1.788,3.763,4.3,1.491,5.613Z" transform="translate(-26.917 -153.932)" fill="url(#linear-gradient)"/>
        <path id="Trazado_95383" data-name="Trazado 95383" d="M133.16,266.947c-2.1,1.214-6.051.9-8.822-.7l-76.37-44.092c-2.768-1.6-3.31-3.879-1.208-5.094L141.7,162.252c2.1-1.214,6.052-.9,8.822.7l76.37,44.092c2.77,1.6,3.31,3.879,1.209,5.092Z" transform="translate(-23.127 -152.384)" fill="#00223d"/>
        <path id="Trazado_95384" data-name="Trazado 95384" d="M131.317,263.17c-2,1.154-5.69.886-8.252-.591L52.42,221.79c-2.561-1.479-3.022-3.611-1.027-4.764l90.243-52.1c1.994-1.151,5.69-.886,8.251.594L220.531,206.3c2.562,1.479,3.022,3.613,1.028,4.764Z" transform="translate(-22.173 -151.834)" fill="#1e2729"/>
        <path id="Trazado_95385" data-name="Trazado 95385" d="M52.42,214.448l.741.428,14.7-14.7-16.468,9.508C49.4,210.836,49.859,212.969,52.42,214.448Z" transform="translate(-22.173 -144.491)" fill="#2b383b"/>
        <path id="Trazado_95386" data-name="Trazado 95386" d="M143.1,164.25a7.135,7.135,0,0,0-4.035.674l-28.323,16.352L62.766,229.249l9.718,5.611Z" transform="translate(-19.598 -151.833)" fill="#2b383b"/>
        <path id="Trazado_95387" data-name="Trazado 95387" d="M177.572,184.059,166.3,177.552,94.951,248.9l11.27,6.506Z" transform="translate(-13.028 -149.11)" fill="#2b383b"/>
        <path id="Trazado_95388" data-name="Trazado 95388" d="M194.883,194.182l-9.332-5.387-70.027,70.028a5.955,5.955,0,0,0,2.448-.672l30.62-17.678Z" transform="translate(-8.828 -146.814)" fill="#2b383b"/>
        <path id="Trazado_95389" data-name="Trazado 95389" d="M193.873,199.18l-.125-.072q-6.506,6.51-13.017,13.017l14.17-8.181C196.9,202.793,196.436,200.659,193.873,199.18Z" transform="translate(4.484 -144.709)" fill="#2b383b"/>
        <path id="Trazado_95390" data-name="Trazado 95390" d="M156.981,172.17l-4.681-2.7L80.951,240.82l4.679,2.7Q121.307,207.846,156.981,172.17Z" transform="translate(-15.886 -150.76)" fill="#2b383b"/>
        <path id="Trazado_95391" data-name="Trazado 95391" d="M181.935,185.777a4.013,4.013,0,0,1-3.635,0l-18.176-10.493a1.108,1.108,0,0,1,0-2.1h0a4.017,4.017,0,0,1,3.635,0l18.176,10.494a1.107,1.107,0,0,1,0,2.1Z" transform="translate(0.124 -150.09)" fill="#324245"/>
        <path id="Trazado_95392" data-name="Trazado 95392" d="M79.182,238.323a12.5,12.5,0,0,1-11.309,0c-3.125-1.8-3.125-4.728,0-6.53a12.5,12.5,0,0,1,11.309,0C82.3,233.6,82.3,236.521,79.182,238.323Z" transform="translate(-19.034 -138.312)" fill="#00223d"/>
        <path id="Trazado_95393" data-name="Trazado 95393" d="M76.514,236.784a7.75,7.75,0,0,1-7.007,0c-1.935-1.119-1.935-2.93,0-4.046a7.739,7.739,0,0,1,7.006,0C78.448,233.854,78.448,235.665,76.514,236.784Z" transform="translate(-18.518 -138.014)" fill="#4b6366"/>
        <path id="Trazado_95394" data-name="Trazado 95394" d="M68.445,232.125a3.126,3.126,0,0,1-2.829,0L41.027,217.928c-1.063-.614-1.291-1.476-.511-1.928h0a3.789,3.789,0,0,1,3.339.3l24.589,14.2a.862.862,0,0,1,0,1.633Z" transform="translate(-24.235 -141.315)" fill="#00223d"/>
        <path id="Trazado_95395" data-name="Trazado 95395" d="M108.737,255.387a3.788,3.788,0,0,1-3.339-.294l-24.59-14.2a.861.861,0,0,1,0-1.632h0a3.127,3.127,0,0,1,2.827,0l24.588,14.2c1.064.614,1.293,1.477.513,1.927Z" transform="translate(-16.034 -136.58)" fill="#00223d"/>
      </g>
      <path id="Trazado_95396" data-name="Trazado 95396" d="M499.7,342.791l-54.8-31.639a14.557,14.557,0,0,0-13.435,0L296.735,388.94a5.769,5.769,0,0,0,0,10.613l54.8,31.64a14.56,14.56,0,0,0,13.436,0L499.7,353.405a5.768,5.768,0,0,0,0-10.615Z" transform="translate(54.982 48.159)" opacity="0.2" style="mix-blend-mode: multiply;isolation: isolate"/>
      <path id="Trazado_95397" data-name="Trazado 95397" d="M191.481,401.562a14.239,14.239,0,0,1-12.884,0c-3.558-2.053-3.558-5.384,0-7.438a14.232,14.232,0,0,1,12.884,0C195.039,396.179,195.039,399.509,191.481,401.562Z" transform="translate(31.035 65.119)" fill="#00223d"/>
      <path id="Trazado_95398" data-name="Trazado 95398" d="M83.268,325.262a14.239,14.239,0,0,1-12.884,0c-3.558-2.053-3.558-5.384,0-7.437a14.224,14.224,0,0,1,12.884,0C86.826,319.879,86.826,323.209,83.268,325.262Z" transform="translate(8.943 49.542)" fill="#00223d"/>
      <path id="Trazado_95399" data-name="Trazado 95399" d="M152.078,328.849a14.239,14.239,0,0,1-12.884,0c-3.559-2.053-3.559-5.385,0-7.438a14.231,14.231,0,0,1,12.884,0C155.636,323.465,155.636,326.8,152.078,328.849Z" transform="translate(22.991 50.274)" fill="#00223d"/>
      <path id="Trazado_95400" data-name="Trazado 95400" d="M264.422,255.039a14.236,14.236,0,0,1-12.883,0c-3.559-2.055-3.559-5.385,0-7.438a14.229,14.229,0,0,1,12.883,0C267.98,249.654,267.98,252.984,264.422,255.039Z" transform="translate(45.926 35.206)" fill="#00223d"/>
      <path id="Trazado_95401" data-name="Trazado 95401" d="M417.781,226.254a14.239,14.239,0,0,1-12.884,0c-3.557-2.053-3.557-5.384,0-7.438a14.232,14.232,0,0,1,12.884,0C421.34,220.871,421.34,224.2,417.781,226.254Z" transform="translate(77.235 29.329)" fill="#00223d"/>
      <path id="Trazado_95402" data-name="Trazado 95402" d="M185.9,158.542a14.241,14.241,0,0,1-12.886,0c-3.558-2.053-3.558-5.384,0-7.438a14.241,14.241,0,0,1,12.886,0C189.457,153.159,189.457,156.489,185.9,158.542Z" transform="translate(29.895 15.506)" fill="#00223d"/>
      <path id="Trazado_95403" data-name="Trazado 95403" d="M201.959,384.822,134.835,346.07a13.709,13.709,0,0,0-12.628,0L55.082,384.826a5.249,5.249,0,0,0,0,9.686l67.127,38.757a13.709,13.709,0,0,0,12.626,0l67.126-38.757a5.252,5.252,0,0,0,0-9.69Z" transform="translate(5.706 55.309)" opacity="0.2" style="mix-blend-mode: multiply;isolation: isolate"/>
      <g id="Grupo_41943" data-name="Grupo 41943" transform="translate(59.64 343.182)">
        <path id="Trazado_95404" data-name="Trazado 95404" d="M125.983,406.975,58.856,368.22a10.662,10.662,0,0,1-3.569-3.673,4.363,4.363,0,0,1-1.705.5v13.592a11.666,11.666,0,0,0,5.274,9.136l67.127,38.756c2.913,1.681,5.274-.507,5.274-3.87V403.931C131.257,407.293,128.9,408.658,125.983,406.975Z" transform="translate(-53.582 -283.787)" fill="url(#linear-gradient)"/>
        <path id="Trazado_95405" data-name="Trazado 95405" d="M190.592,364.937h-1.446a10.826,10.826,0,0,1-3.787,4.042l-67.128,36.437c-2.914,1.681-5.274,2.639-5.274-.725v18.716c0,3.363,2.361,4.725,5.274,3.045L185.358,387.7a11.664,11.664,0,0,0,5.275-9.136V364.933C190.62,364.933,190.606,364.937,190.592,364.937Z" transform="translate(-41.46 -283.708)" fill="#e1eef2"/>
        <path id="Trazado_95406" data-name="Trazado 95406" d="M177.683,383.936,122.153,416v-9.873l55.528-32.06Z" transform="translate(-39.583 -281.844)" fill="#00223d"/>
        <g id="Grupo_41941" data-name="Grupo 41941" transform="translate(84.407 94.771)">
          <path id="Trazado_95407" data-name="Trazado 95407" d="M123.678,407.57l1.5-.863.116,1.166,2.178-1.254.116-1.3,1.5-.865V398.21l-5.406,3.12Z" transform="translate(-123.678 -371.686)" fill="url(#linear-gradient)"/>
          <path id="Trazado_95408" data-name="Trazado 95408" d="M130.037,403.9l1.5-.865.116,1.169,2.176-1.257.117-1.3,1.5-.864V394.54l-5.4,3.117Z" transform="translate(-122.38 -372.435)" fill="url(#linear-gradient)"/>
          <path id="Trazado_95409" data-name="Trazado 95409" d="M136.4,400.23l1.5-.864.118,1.168,2.176-1.257.116-1.3,1.5-.864v-6.241l-5.4,3.12Z" transform="translate(-121.082 -373.184)" fill="url(#linear-gradient)"/>
          <path id="Trazado_95410" data-name="Trazado 95410" d="M142.754,396.558l1.5-.864.117,1.168,2.176-1.257.117-1.3,1.5-.864V387.2l-5.4,3.121Z" transform="translate(-119.784 -373.934)" fill="url(#linear-gradient)"/>
          <path id="Trazado_95411" data-name="Trazado 95411" d="M149.113,392.887l1.5-.865.116,1.169,2.176-1.256.116-1.3,1.5-.864v-6.243l-5.4,3.121Z" transform="translate(-118.486 -374.684)" fill="url(#linear-gradient)"/>
          <path id="Trazado_95412" data-name="Trazado 95412" d="M155.471,389.216l1.5-.864.116,1.167,2.177-1.256.116-1.3,1.5-.866v-6.241l-5.4,3.12Z" transform="translate(-117.188 -375.433)" fill="url(#linear-gradient)"/>
          <path id="Trazado_95413" data-name="Trazado 95413" d="M161.83,379.3v6.242l1.5-.864.115,1.168,2.178-1.255.116-1.3,1.5-.866v-6.242Z" transform="translate(-115.889 -376.183)" fill="url(#linear-gradient)"/>
        </g>
        <path id="Trazado_95414" data-name="Trazado 95414" d="M68.94,343.163l-6.793-26.336c-.182-.7-1.138-1.1-2.143-.915s-1.762.891-1.682,1.613l2.948,27.037a7.576,7.576,0,0,0,.27,1.331L66.321,372.1a3.873,3.873,0,0,0,7.62-1.391L69.158,344.5A7.839,7.839,0,0,0,68.94,343.163Z" transform="translate(-52.615 -293.725)" fill="url(#linear-gradient)"/>
        <g id="Grupo_41942" data-name="Grupo 41942" transform="translate(8.607 49.18)">
          <path id="Trazado_95415" data-name="Trazado 95415" d="M67.356,339.812a7.708,7.708,0,0,0-.206-1.233l-.066-.258Z" transform="translate(-59.433 -338.321)" fill="#cfdade"/>
          <path id="Trazado_95416" data-name="Trazado 95416" d="M73.448,365.918l-3.09-16.933a3.87,3.87,0,0,1-7.625,1.326l-2-10.979.047.44a7.57,7.57,0,0,0,.27,1.331l4.782,26.207a3.873,3.873,0,0,0,7.62-1.391Z" transform="translate(-60.73 -338.115)" fill="#cfdade"/>
        </g>
        <path id="Trazado_95417" data-name="Trazado 95417" d="M80.961,332.408l-8.123-33.63a1.973,1.973,0,0,0-3.826.7l4.28,34.329a12.336,12.336,0,0,0,.336,1.7l6.089,33.372c.491,2.679,2.591,4.541,4.7,4.156s3.413-2.866,2.924-5.546l-6.091-33.373A12.556,12.556,0,0,0,80.961,332.408Z" transform="translate(-50.434 -297.479)" fill="url(#linear-gradient)"/>
        <path id="Trazado_95418" data-name="Trazado 95418" d="M86.661,361.741l-3.007-16.473c-.007,2.212-1.216,4.077-3.015,4.406-2.106.384-4.206-1.476-4.695-4.157L72.31,325.608l.306,2.455a12.333,12.333,0,0,0,.336,1.7l6.089,33.372c.491,2.679,2.591,4.541,4.7,4.156S87.15,364.422,86.661,361.741Z" transform="translate(-49.758 -291.736)" fill="#cfdade"/>
        <path id="Trazado_95419" data-name="Trazado 95419" d="M94.938,336.634,88.146,310.3c-.183-.706-1.139-1.1-2.146-.916s-1.76.891-1.681,1.615l2.948,27.036a7.756,7.756,0,0,0,.27,1.329l4.782,26.206a3.873,3.873,0,1,0,7.62-1.389l-4.783-26.207A7.793,7.793,0,0,0,94.938,336.634Z" transform="translate(-47.308 -295.058)" fill="url(#linear-gradient)"/>
        <path id="Trazado_95420" data-name="Trazado 95420" d="M99.488,359.777l-4.251-23.294a3.863,3.863,0,0,1-7.645.3l-1.073-5.88.3,2.732a7.758,7.758,0,0,0,.27,1.329l4.782,26.206a3.873,3.873,0,1,0,7.62-1.39Z" transform="translate(-46.858 -290.656)" fill="#cfdade"/>
        <path id="Trazado_95421" data-name="Trazado 95421" d="M133.443,413.735a11.659,11.659,0,0,1-10.548,0L55.768,374.979c-2.914-1.683-2.914-4.41,0-6.091l67.128-38.756a11.654,11.654,0,0,1,10.548,0l67.126,38.754c2.915,1.682,2.915,4.408,0,6.092Z" transform="translate(-53.582 -291.07)" fill="url(#linear-gradient)"/>
        <path id="Trazado_95422" data-name="Trazado 95422" d="M131.669,406.559a10.517,10.517,0,0,1-9.506,0L61.687,371.642c-2.624-1.515-2.625-3.973,0-5.489l60.477-34.917a10.513,10.513,0,0,1,9.506,0l60.476,34.916c2.625,1.516,2.625,3.974,0,5.487Z" transform="translate(-52.329 -290.819)" fill="#e1eef2"/>
        <path id="Trazado_95423" data-name="Trazado 95423" d="M61.687,370.31,71.36,375.9q19.569-19.654,39.169-39.272l-48.843,28.2C59.062,366.338,59.063,368.8,61.687,370.31Z" transform="translate(-52.329 -289.487)" fill="#e6f3f7"/>
        <path id="Trazado_95424" data-name="Trazado 95424" d="M141.482,338.746l-9.335-5.391q-25.607,25.609-51.168,51.268l9.272,5.353Z" transform="translate(-47.989 -290.154)" fill="#e6f3f7"/>
        <path id="Trazado_95425" data-name="Trazado 95425" d="M160.849,349.92l-9.338-5.391L100.28,395.758l9.337,5.391Q135.233,375.537,160.849,349.92Z" transform="translate(-44.048 -287.873)" fill="#e6f3f7"/>
        <path id="Trazado_95426" data-name="Trazado 95426" d="M177.619,360.926l-9.047-5.222q-18.85,18.852-37.7,37.7l46.748-26.991C180.244,364.9,180.244,362.443,177.619,360.926Z" transform="translate(-37.803 -285.592)" fill="#e6f3f7"/>
      </g>
      <g id="Grupo_41945" data-name="Grupo 41945" transform="translate(233.609 164.429)">
        <path id="Trazado_95427" data-name="Trazado 95427" d="M222.292,207.794,198.058,193.8c.054,31.126,9.958,54.829,25.6,66.551l13.85,8Z" transform="translate(-198.056 -139.892)" fill="#12263f"/>
        <path id="Trazado_95428" data-name="Trazado 95428" d="M300.409,154.546l-9.551-5.514c-.939.584-1.878,1.164-2.827,1.711-15.824,9.138-30.628,12.015-43.265,9.462-12.636,17.146-27.438,31.36-43.265,40.5-1.154.667-2.3,1.29-3.443,1.889v.1c0,.084,0,.167,0,.252l24.234,13.991Z" transform="translate(-198.056 -149.032)" fill="#12263f"/>
        <path id="Trazado_95429" data-name="Trazado 95429" d="M260.913,179.764l31.576-25.219-9.551-5.514c-.939.584-1.879,1.164-2.827,1.711-15.824,9.138-30.628,12.015-43.265,9.462l8.935,5.808Z" transform="translate(-190.137 -149.032)" fill="#12263f"/>
        <path id="Trazado_95430" data-name="Trazado 95430" d="M295.451,155.629c-15.825,9.138-30.628,12.015-43.265,9.464-12.638,17.145-27.44,31.358-43.266,40.5-1.154.666-2.3,1.29-3.443,1.889,0,.034,0,.066,0,.1,0,43.731,18.9,70.834,46.71,74.152,27.808-35.427,46.709-84.357,46.709-128.088v-.1C297.752,154.262,296.605,154.963,295.451,155.629Z" transform="translate(-196.541 -148.111)" fill="#ff2c9c"/>
        <g id="Grupo_41944" data-name="Grupo 41944" transform="translate(26.261 30.171)">
          <path id="Trazado_95431" data-name="Trazado 95431" d="M234.99,210.763l-15.124-8.733c.034,19.427,6.213,34.22,15.976,41.535l8.643,4.99Z" transform="translate(-219.865 -168.384)" fill="#205173"/>
          <path id="Trazado_95432" data-name="Trazado 95432" d="M283.743,177.53l-5.961-3.441c-.585.365-1.173.727-1.763,1.069-9.878,5.7-19.117,7.5-27,5.9-7.887,10.7-17.125,19.572-27,25.275-.72.415-1.437.8-2.148,1.18v.061c0,.052,0,.1,0,.157l15.124,8.733Z" transform="translate(-219.865 -174.088)" fill="#3d7293"/>
          <path id="Trazado_95433" data-name="Trazado 95433" d="M261.018,191.73l17.783-14.2-5.961-3.441c-.585.365-1.173.727-1.763,1.069-9.878,5.7-19.117,7.5-27,5.9l5.574,3.626Z" transform="translate(-214.923 -174.088)" fill="#21587b"/>
          <path id="Trazado_95434" data-name="Trazado 95434" d="M280.649,178.206c-9.878,5.7-19.115,7.5-27,5.906-7.886,10.7-17.124,19.57-27,25.273-.719.417-1.437.806-2.148,1.179v.063c0,27.293,11.8,44.208,29.151,46.279C271,234.795,282.8,204.258,282.8,176.965V176.9C282.085,177.352,281.37,177.79,280.649,178.206Z" transform="translate(-218.92 -173.513)" fill="url(#linear-gradient-17)"/>
          <path id="Trazado_95435" data-name="Trazado 95435" d="M248.7,256.906c17.357-22.111,29.153-52.648,29.153-79.94V176.9c-.713.448-1.428.886-2.149,1.3-9.878,5.7-19.115,7.5-27,5.906C248.7,184.112,257.462,211.284,248.7,256.906Z" transform="translate(-213.978 -173.513)" fill="#3d7293"/>
        </g>
      </g>
      <g id="Grupo_41951" data-name="Grupo 41951" transform="translate(338.057 248.027)">
        <path id="Trazado_95436" data-name="Trazado 95436" d="M425.82,219.358,287.3,297.8c-3.029,1.746-3.03,4.579,0,6.327l7.591,5.746c-3.026-1.746-3.026-4.582,0-6.328l134.733-77.79c3.026-1.747,4.416-.589,6.387-1.866,0,0,1.133-.349.218-2.266C434.7,218.423,428.846,217.611,425.82,219.358Z" transform="translate(-284.749 -218.457)" fill="#00223d"/>
        <path id="Trazado_95437" data-name="Trazado 95437" d="M292.02,386.613v-92.49c0-3.494,2.453-4.913,5.483-3.164l-7.224-5.531c-3.027-1.748-5.481-.332-5.481,3.163v92.487c0,3.5,2.326,7.991,5.481,9.495,5.324,2.537,3.454.639,3.454.639C294.63,391.213,293.806,389.53,292.02,386.613Z" transform="translate(-284.796 -204.937)" fill="#00223d"/>
        <path id="Trazado_95438" data-name="Trazado 95438" d="M435.9,316.512a12.115,12.115,0,0,1-5.483,9.495L295.686,403.794c-3.028,1.747-5.482.332-5.482-3.165V308.141a12.114,12.114,0,0,1,5.482-9.493l134.731-77.788c3.027-1.747,5.483-.33,5.483,3.165Z" transform="translate(-283.692 -218.119)" fill="url(#linear-gradient)"/>
        <path id="Trazado_95439" data-name="Trazado 95439" d="M429.393,312.476a10.922,10.922,0,0,1-5.065,8.478L299.889,392.8c-2.795,1.613-5.065.436-5.061-2.635l0-81.184a10.936,10.936,0,0,1,5.065-8.478l124.442-71.845c2.794-1.615,5.062-.436,5.062,2.632Z" transform="translate(-282.749 -216.521)" fill="#1e2729"/>
        <path id="Trazado_95440" data-name="Trazado 95440" d="M300.7,287.718l-1.006.58a10.8,10.8,0,0,0-3.922,4.348Z" transform="translate(-282.555 -204.317)" fill="#2b383b"/>
        <path id="Trazado_95441" data-name="Trazado 95441" d="M294.827,323.4v16.244q47.083-47.085,94.164-94.165l-38.434,22.19Z" transform="translate(-282.748 -212.94)" fill="#2b383b"/>
        <path id="Trazado_95442" data-name="Trazado 95442" d="M429.392,231.811v-.845a4.718,4.718,0,0,0-.206-1.438Q362.007,296.711,294.827,363.89v2.488Z" transform="translate(-282.748 -216.196)" fill="#2b383b"/>
        <path id="Trazado_95443" data-name="Trazado 95443" d="M295.822,382.426a8.4,8.4,0,0,1-.995.842v2.627a3.232,3.232,0,0,0,1.451,3.054q66.56-66.554,133.114-133.111v-6.982Z" transform="translate(-282.748 -212.25)" fill="#2b383b"/>
        <path id="Trazado_95444" data-name="Trazado 95444" d="M421.393,279.824v-7.738l-87.385,87.383,18.31-10.573Q386.857,314.363,421.393,279.824Z" transform="translate(-274.749 -207.508)" fill="#2b383b"/>
        <g id="Grupo_41950" data-name="Grupo 41950" transform="translate(12.703 104.696)">
          <path id="Trazado_95445" data-name="Trazado 95445" d="M500.384,347.363V341.54a3.845,3.845,0,0,0-2.271-3.187l-54.8-31.639a12.114,12.114,0,0,0-10.964,0L297.615,384.5a3.831,3.831,0,0,0-2.267,3.185v6.47a3.837,3.837,0,0,0,2.267,3.186l54.8,31.64a12.121,12.121,0,0,0,10.964,0L498.113,351.2a3.841,3.841,0,0,0,2.271-3.189v-.644Z" transform="translate(-295.345 -305.402)" fill="#00223d"/>
          <path id="Trazado_95446" data-name="Trazado 95446" d="M498.113,338.352c3.03,1.748,3.03,4.583,0,6.33L363.382,422.47a12.113,12.113,0,0,1-10.964,0l-54.8-31.638c-3.027-1.748-3.027-4.583,0-6.329l134.734-77.79a12.114,12.114,0,0,1,10.964,0Z" transform="translate(-295.346 -305.402)" fill="url(#linear-gradient)"/>
          <path id="Trazado_95447" data-name="Trazado 95447" d="M321.967,374.535a.668.668,0,0,1,0,1.264l-7.988,4.61a2.411,2.411,0,0,1-2.193,0L303.8,375.8a.667.667,0,0,1,0-1.266l7.985-4.61a2.411,2.411,0,0,1,2.193,0Z" transform="translate(-293.712 -292.283)" fill="#00223d"/>
          <g id="Grupo_41946" data-name="Grupo 41946" transform="translate(30.875 6.862)">
            <path id="Trazado_95448" data-name="Trazado 95448" d="M329.428,359.739l-7.987,4.611a.667.667,0,0,0,0,1.266l7.987,4.611a2.416,2.416,0,0,0,2.192,0l7.986-4.611a.669.669,0,0,0,0-1.267l-7.986-4.61A2.417,2.417,0,0,0,329.428,359.739Z" transform="translate(-320.986 -301.225)" fill="#00223d"/>
            <path id="Trazado_95449" data-name="Trazado 95449" d="M339.9,353.692l-7.987,4.612a.667.667,0,0,0,0,1.264l7.985,4.612a2.426,2.426,0,0,0,2.193,0l7.986-4.612a.667.667,0,0,0,0-1.264l-7.986-4.612A2.415,2.415,0,0,0,339.9,353.692Z" transform="translate(-318.848 -302.459)" fill="#00223d"/>
            <path id="Trazado_95450" data-name="Trazado 95450" d="M350.375,347.644l-7.987,4.611a.667.667,0,0,0,0,1.264l7.987,4.613a2.418,2.418,0,0,0,2.193,0l7.986-4.613a.667.667,0,0,0,0-1.264l-7.986-4.611A2.426,2.426,0,0,0,350.375,347.644Z" transform="translate(-316.709 -303.693)" fill="#00223d"/>
            <path id="Trazado_95451" data-name="Trazado 95451" d="M360.849,341.6l-7.988,4.61a.67.67,0,0,0,0,1.268l7.986,4.609a2.427,2.427,0,0,0,2.192,0l7.986-4.608a.67.67,0,0,0,0-1.268l-7.987-4.61A2.416,2.416,0,0,0,360.849,341.6Z" transform="translate(-314.571 -304.928)" fill="#00223d"/>
            <path id="Trazado_95452" data-name="Trazado 95452" d="M371.323,335.551l-7.987,4.612a.667.667,0,0,0,0,1.264l7.987,4.612a2.431,2.431,0,0,0,2.191,0l7.986-4.612a.667.667,0,0,0,0-1.264l-7.988-4.613A2.419,2.419,0,0,0,371.323,335.551Z" transform="translate(-312.433 -306.163)" fill="#00223d"/>
            <path id="Trazado_95453" data-name="Trazado 95453" d="M381.8,329.5l-7.987,4.611a.669.669,0,0,0,0,1.265l7.987,4.611a2.411,2.411,0,0,0,2.193,0l7.985-4.611a.667.667,0,0,0,0-1.265l-7.985-4.611A2.426,2.426,0,0,0,381.8,329.5Z" transform="translate(-310.294 -307.397)" fill="#00223d"/>
            <path id="Trazado_95454" data-name="Trazado 95454" d="M392.27,323.455l-7.986,4.612a.669.669,0,0,0,0,1.267l7.986,4.609a2.426,2.426,0,0,0,2.193,0l7.987-4.609a.669.669,0,0,0,0-1.267l-7.987-4.612A2.426,2.426,0,0,0,392.27,323.455Z" transform="translate(-308.156 -308.632)" fill="#00223d"/>
            <path id="Trazado_95455" data-name="Trazado 95455" d="M402.743,317.408l-7.986,4.611a.669.669,0,0,0,0,1.266l7.986,4.613a2.426,2.426,0,0,0,2.193,0l7.988-4.613a.668.668,0,0,0,0-1.266l-7.988-4.611A2.422,2.422,0,0,0,402.743,317.408Z" transform="translate(-306.018 -309.866)" fill="#00223d"/>
            <path id="Trazado_95456" data-name="Trazado 95456" d="M413.217,311.362l-7.986,4.611a.668.668,0,0,0,0,1.265l7.986,4.612a2.433,2.433,0,0,0,2.193,0l7.987-4.612a.668.668,0,0,0,0-1.265l-7.987-4.611A2.425,2.425,0,0,0,413.217,311.362Z" transform="translate(-303.88 -311.1)" fill="#00223d"/>
          </g>
          <g id="Grupo_41947" data-name="Grupo 41947" transform="translate(22.031 14.333)">
            <path id="Trazado_95457" data-name="Trazado 95457" d="M343.871,365.944,314.1,383.135a.669.669,0,0,0,0,1.267l7.985,4.612a2.428,2.428,0,0,0,2.194,0l29.774-17.193a.667.667,0,0,0,0-1.264l-7.985-4.612A2.426,2.426,0,0,0,343.871,365.944Z" transform="translate(-313.642 -307.429)" fill="#00223d"/>
            <path id="Trazado_95458" data-name="Trazado 95458" d="M350.651,359.9l-7.987,4.612a.668.668,0,0,0,0,1.266l7.987,4.608a2.41,2.41,0,0,0,2.194,0l7.984-4.608a.668.668,0,0,0,0-1.266l-7.984-4.612A2.429,2.429,0,0,0,350.651,359.9Z" transform="translate(-307.809 -308.663)" fill="#00223d"/>
            <path id="Trazado_95459" data-name="Trazado 95459" d="M361.125,353.849l-7.987,4.612a.667.667,0,0,0,0,1.264l7.987,4.614a2.425,2.425,0,0,0,2.193,0l7.983-4.614a.667.667,0,0,0,0-1.264l-7.983-4.612A2.434,2.434,0,0,0,361.125,353.849Z" transform="translate(-305.671 -309.898)" fill="#00223d"/>
            <path id="Trazado_95460" data-name="Trazado 95460" d="M371.6,347.8l-7.987,4.611a.668.668,0,0,0,0,1.266l7.987,4.612a2.423,2.423,0,0,0,2.192,0l7.987-4.612a.668.668,0,0,0,0-1.266l-7.985-4.611A2.414,2.414,0,0,0,371.6,347.8Z" transform="translate(-303.533 -311.132)" fill="#00223d"/>
            <path id="Trazado_95461" data-name="Trazado 95461" d="M382.073,341.758l-7.987,4.609a.668.668,0,0,0,0,1.267l7.987,4.611a2.423,2.423,0,0,0,2.192,0l7.987-4.611a.669.669,0,0,0,0-1.267l-7.987-4.609A2.416,2.416,0,0,0,382.073,341.758Z" transform="translate(-301.395 -312.367)" fill="#00223d"/>
            <path id="Trazado_95462" data-name="Trazado 95462" d="M392.545,335.709l-7.987,4.61a.669.669,0,0,0,0,1.266l7.987,4.612a2.428,2.428,0,0,0,2.194,0l7.985-4.609a.669.669,0,0,0,0-1.267l-7.985-4.611A2.425,2.425,0,0,0,392.545,335.709Z" transform="translate(-299.257 -313.601)" fill="#00223d"/>
            <path id="Trazado_95463" data-name="Trazado 95463" d="M403.02,329.663l-7.987,4.612a.668.668,0,0,0,0,1.266l7.987,4.611a2.423,2.423,0,0,0,2.192,0l7.988-4.611a.669.669,0,0,0,0-1.266l-7.988-4.612A2.416,2.416,0,0,0,403.02,329.663Z" transform="translate(-297.118 -314.836)" fill="#00223d"/>
            <path id="Trazado_95464" data-name="Trazado 95464" d="M413.494,323.615l-7.987,4.609a.67.67,0,0,0,0,1.267l7.987,4.611a2.423,2.423,0,0,0,2.191,0l7.987-4.611a.668.668,0,0,0,0-1.265l-7.987-4.611A2.423,2.423,0,0,0,413.494,323.615Z" transform="translate(-294.98 -316.07)" fill="#00223d"/>
            <path id="Trazado_95465" data-name="Trazado 95465" d="M423.967,317.568l-7.985,4.612a.667.667,0,0,0,0,1.266l7.985,4.609a2.408,2.408,0,0,0,2.192,0l7.986-4.609a.667.667,0,0,0,0-1.266l-7.986-4.612A2.419,2.419,0,0,0,423.967,317.568Z" transform="translate(-292.842 -317.305)" fill="#00223d"/>
          </g>
          <g id="Grupo_41948" data-name="Grupo 41948" transform="translate(48.967 29.884)">
            <path id="Trazado_95466" data-name="Trazado 95466" d="M366.24,378.86l-29.776,17.19a.668.668,0,0,0,0,1.265l7.987,4.613a2.421,2.421,0,0,0,2.19,0l29.777-17.193a.668.668,0,0,0,0-1.265l-7.987-4.611A2.415,2.415,0,0,0,366.24,378.86Z" transform="translate(-336.01 -320.344)" fill="#00223d"/>
            <path id="Trazado_95467" data-name="Trazado 95467" d="M373.019,372.812l-7.986,4.612a.667.667,0,0,0,0,1.264l7.986,4.612a2.426,2.426,0,0,0,2.193,0l7.986-4.612a.668.668,0,0,0,0-1.264l-7.988-4.612A2.425,2.425,0,0,0,373.019,372.812Z" transform="translate(-330.178 -321.578)" fill="#00223d"/>
            <path id="Trazado_95468" data-name="Trazado 95468" d="M421.329,348.625,375.506,375.08a.668.668,0,0,0,0,1.266l7.987,4.611a2.424,2.424,0,0,0,2.192,0L431.508,354.5a.669.669,0,0,0,0-1.267l-7.987-4.61A2.418,2.418,0,0,0,421.329,348.625Z" transform="translate(-328.04 -326.516)" fill="#00223d"/>
            <path id="Trazado_95469" data-name="Trazado 95469" d="M425.389,342.576l-7.987,4.611a.668.668,0,0,0,0,1.267l7.987,4.609a2.411,2.411,0,0,0,2.189,0l7.988-4.609a.67.67,0,0,0,0-1.267l-7.988-4.611A2.419,2.419,0,0,0,425.389,342.576Z" transform="translate(-319.487 -327.751)" fill="#00223d"/>
            <path id="Trazado_95470" data-name="Trazado 95470" d="M448.472,330.483l-20.6,11.892a.669.669,0,0,0,0,1.267l7.986,4.61a2.416,2.416,0,0,0,2.192,0l20.6-11.891a.667.667,0,0,0,0-1.264l-7.986-4.613A2.424,2.424,0,0,0,448.472,330.483Z" transform="translate(-317.349 -330.22)" fill="#00223d"/>
          </g>
          <g id="Grupo_41949" data-name="Grupo 41949" transform="translate(35.33 22.013)">
            <path id="Trazado_95471" data-name="Trazado 95471" d="M342.227,378.405l-17.087,9.867a.667.667,0,0,0,0,1.264l7.988,4.612a2.418,2.418,0,0,0,2.193,0l17.083-9.866a.668.668,0,0,0,0-1.267l-7.985-4.611A2.43,2.43,0,0,0,342.227,378.405Z" transform="translate(-324.686 -312.565)" fill="#00223d"/>
            <path id="Trazado_95472" data-name="Trazado 95472" d="M361.7,366.276l-7.985,4.611a.667.667,0,0,0,0,1.264l7.985,4.612a2.426,2.426,0,0,0,2.193,0l7.986-4.612a.667.667,0,0,0,0-1.264l-7.986-4.611A2.419,2.419,0,0,0,361.7,366.276Z" transform="translate(-318.853 -315.042)" fill="#00223d"/>
            <path id="Trazado_95473" data-name="Trazado 95473" d="M351.222,372.322l-7.985,4.611a.668.668,0,0,0,0,1.265l7.985,4.612a2.423,2.423,0,0,0,2.192,0L361.4,378.2a.668.668,0,0,0,0-1.265l-7.988-4.611A2.416,2.416,0,0,0,351.222,372.322Z" transform="translate(-320.991 -313.807)" fill="#00223d"/>
            <path id="Trazado_95474" data-name="Trazado 95474" d="M372.169,360.228l-7.986,4.61a.669.669,0,0,0,0,1.267l7.986,4.611a2.429,2.429,0,0,0,2.194,0l7.985-4.611a.669.669,0,0,0,0-1.267l-7.986-4.61A2.429,2.429,0,0,0,372.169,360.228Z" transform="translate(-316.715 -316.276)" fill="#00223d"/>
            <path id="Trazado_95475" data-name="Trazado 95475" d="M382.643,354.18l-7.985,4.612a.667.667,0,0,0,0,1.266l7.987,4.611a2.417,2.417,0,0,0,2.192,0l7.985-4.611a.667.667,0,0,0,0-1.266l-7.985-4.612A2.429,2.429,0,0,0,382.643,354.18Z" transform="translate(-314.577 -317.51)" fill="#00223d"/>
            <path id="Trazado_95476" data-name="Trazado 95476" d="M393.117,348.133l-7.986,4.612a.669.669,0,0,0,0,1.267l7.986,4.611a2.423,2.423,0,0,0,2.192,0l7.988-4.611a.668.668,0,0,0,0-1.267l-7.985-4.612A2.431,2.431,0,0,0,393.117,348.133Z" transform="translate(-312.438 -318.745)" fill="#00223d"/>
            <path id="Trazado_95477" data-name="Trazado 95477" d="M403.592,342.086l-7.987,4.611a.668.668,0,0,0,0,1.267l7.987,4.61a2.416,2.416,0,0,0,2.192,0l7.986-4.61a.669.669,0,0,0,0-1.267l-7.986-4.611A2.423,2.423,0,0,0,403.592,342.086Z" transform="translate(-310.3 -319.979)" fill="#00223d"/>
            <path id="Trazado_95478" data-name="Trazado 95478" d="M414.066,336.04l-7.988,4.611a.668.668,0,0,0,0,1.266l7.987,4.612a2.426,2.426,0,0,0,2.193,0l7.985-4.612a.668.668,0,0,0,0-1.266l-7.985-4.611A2.419,2.419,0,0,0,414.066,336.04Z" transform="translate(-308.162 -321.214)" fill="#00223d"/>
            <path id="Trazado_95479" data-name="Trazado 95479" d="M424.539,329.992l-7.986,4.611a.668.668,0,0,0,0,1.266l7.986,4.612a2.425,2.425,0,0,0,2.193,0l7.985-4.611a.668.668,0,0,0,0-1.266l-7.985-4.611A2.426,2.426,0,0,0,424.539,329.992Z" transform="translate(-306.023 -322.448)" fill="#00223d"/>
            <path id="Trazado_95480" data-name="Trazado 95480" d="M435.013,323.945l-7.987,4.609a.668.668,0,0,0,0,1.266l7.987,4.612a2.416,2.416,0,0,0,2.192,0l7.988-4.612a.669.669,0,0,0,0-1.266l-7.988-4.609A2.42,2.42,0,0,0,435.013,323.945Z" transform="translate(-303.885 -323.683)" fill="#00223d"/>
          </g>
        </g>
      </g>
      <g id="Grupo_151149" data-name="Grupo 151149" transform="translate(466.791 176.08)">
        <g id="Grupo_34836" data-name="Grupo 34836">
          <g id="Grupo_34835" data-name="Grupo 34835">
            <g id="Grupo_34834" data-name="Grupo 34834" style="isolation: isolate">
              <g id="Grupo_34831" data-name="Grupo 34831" transform="translate(30.52 17.62)">
                <path id="Trazado_85790" data-name="Trazado 85790" d="M208.049,321.559l2.6-1.509-.1,35.069-2.6,1.51Z" transform="translate(-207.949 -320.05)" fill="#264d65"/>
              </g>
              <g id="Grupo_34832" data-name="Grupo 34832" transform="translate(0.099)">
                <path id="Trazado_85791" data-name="Trazado 85791" d="M194.272,313.637l2.6-1.509,30.52,17.62-2.6,1.509Z" transform="translate(-194.272 -312.128)" fill="#264d65"/>
              </g>
              <g id="Grupo_34833" data-name="Grupo 34833" transform="translate(0 1.509)">
                <path id="Trazado_85792" data-name="Trazado 85792" d="M224.847,330.427l-.1,35.07-30.52-17.622.1-35.069Z" transform="translate(-194.227 -312.806)" fill="#21587b"/>
              </g>
            </g>
          </g>
        </g>
        <g id="Grupo_34838" data-name="Grupo 34838" transform="translate(3.738 12.459)">
          <g id="Grupo_34837" data-name="Grupo 34837">
            <path id="Trazado_85793" data-name="Trazado 85793" d="M202.344,327.952c1.05.6,1.9.113,1.9-1.1v-4.464l7.874,4.546a4.129,4.129,0,0,1,1.859,3.221V338.1c0,1.183-.836,1.666-1.859,1.076L209.9,337.9l.994,3.995c.1.392-.04.44-.3.107l-5.227-6.6a1.452,1.452,0,0,1-.129-.193l-4.1-2.367a4.132,4.132,0,0,1-1.862-3.223v-3.434Z" transform="translate(-191.779 -312.025)" fill="#f5f5fd"/>
            <path id="Trazado_85794" data-name="Trazado 85794" d="M195.908,318.82v6.539a3.4,3.4,0,0,0,1.53,2.651l1.826,1.054-.819,2.342c-.08.231.031.4.249.376l4.3-.467a.189.189,0,0,0,.107-.038l3.372,1.948c.841.485,1.53.089,1.53-.883V325.8a3.393,3.393,0,0,0-1.53-2.651l-9.035-5.216C196.6,317.451,195.908,317.848,195.908,318.82Zm8.067,8.205c0-.623.436-.874.974-.563a2.153,2.153,0,0,1,.976,1.688c0,.623-.436.874-.976.565A2.16,2.16,0,0,1,203.975,327.026Zm-2.994-1.728c0-.623.436-.874.974-.565a2.159,2.159,0,0,1,.976,1.69c0,.623-.438.874-.976.563A2.153,2.153,0,0,1,200.981,325.3Zm-3-1.73c0-.62.438-.874.976-.563a2.159,2.159,0,0,1,.976,1.69c0,.623-.438.874-.976.563A2.159,2.159,0,0,1,197.985,323.567Z" transform="translate(-195.908 -317.729)" fill="#f5f5fd"/>
          </g>
        </g>
      </g>
      <g id="Grupo_151150" data-name="Grupo 151150" transform="translate(491.845 101.102)">
        <g id="Grupo_34845" data-name="Grupo 34845">
          <g id="Grupo_34844" data-name="Grupo 34844">
            <g id="Grupo_34843" data-name="Grupo 34843" style="isolation: isolate">
              <g id="Grupo_34840" data-name="Grupo 34840" transform="translate(28.8 16.627)">
                <path id="Trazado_85795" data-name="Trazado 85795" d="M218.535,287.316l2.451-1.423-.094,33.093-2.451,1.424Z" transform="translate(-218.44 -285.893)" fill="#cba81f"/>
              </g>
              <g id="Grupo_34841" data-name="Grupo 34841" transform="translate(0.094)">
                <path id="Trazado_85796" data-name="Trazado 85796" d="M205.534,279.841l2.451-1.424,28.8,16.627-2.451,1.423Z" transform="translate(-205.534 -278.417)" fill="#cba81f"/>
              </g>
              <g id="Grupo_34842" data-name="Grupo 34842" transform="translate(0 1.424)">
                <path id="Trazado_85797" data-name="Trazado 85797" d="M234.386,295.684l-.094,33.093-28.8-16.628.094-33.092Z" transform="translate(-205.492 -279.057)" fill="#e2c140"/>
              </g>
            </g>
          </g>
        </g>
        <g id="Grupo_34848" data-name="Grupo 34848" transform="translate(3.906 12.038)">
          <g id="Grupo_34847" data-name="Grupo 34847">
            <path id="Trazado_85798" data-name="Trazado 85798" d="M213.13,286.567c0,1.561-1.108,2.2-2.462,1.421L208.3,286.62l4.833-2.791Z" transform="translate(-205.964 -283.829)" fill="#f5f5fd"/>
            <g id="Grupo_34846" data-name="Grupo 34846" transform="translate(0 0.354)">
              <path id="Trazado_85799" data-name="Trazado 85799" d="M213.219,307.74l9.5,5.485c1.355.783,2.462.142,2.462-1.421V293.434a5.466,5.466,0,0,0-2.462-4.266l-8.974-5.18v2.738c0,1.959-1.379,2.753-3.076,1.775l-2.371-1.368v11.7a4.236,4.236,0,0,1,1.108.458,8.969,8.969,0,0,1,4.052,7.022A4.047,4.047,0,0,1,213.219,307.74Zm9.982-9.76c0,.5-.414.669-.923.376L211.2,291.962a1.912,1.912,0,0,1-.925-1.443c0-.5.416-.67.925-.376l11.076,6.4A1.9,1.9,0,0,1,223.2,297.98Zm0,3.47c0,.5-.414.669-.923.376L211.2,295.431a1.911,1.911,0,0,1-.925-1.443c0-.5.416-.669.925-.376l11.076,6.394A1.909,1.909,0,0,1,223.2,301.45Zm0,3.387c0,.5-.414.669-.923.376l-11.076-6.4a1.911,1.911,0,0,1-.925-1.441c0-.5.416-.67.925-.376l11.076,6.4A1.9,1.9,0,0,1,223.2,304.837Zm-9.11-1.492c0-.5.416-.667.923-.376l7.264,4.195a1.909,1.909,0,0,1,.923,1.441c0,.5-.414.669-.923.376l-7.264-4.195A1.907,1.907,0,0,1,214.091,303.345Z" transform="translate(-205.964 -283.988)" fill="#f5f5fd"/>
              <path id="Trazado_85800" data-name="Trazado 85800" d="M207.248,293.431a7.6,7.6,0,0,0,3.441,5.961c1.9,1.1,3.441.207,3.441-1.988a7.606,7.606,0,0,0-3.441-5.959C208.787,290.348,207.248,291.238,207.248,293.431Zm1.695.443,1.321.763v-1.479l.847.489v1.479l1.321.761v1.076l-1.321-.763v1.477l-.847-.492V295.71l-1.321-.763Z" transform="translate(-207.248 -275.435)" fill="#f5f5fd"/>
            </g>
          </g>
        </g>
      </g>
      <g id="Grupo_151151" data-name="Grupo 151151" transform="translate(437.869 112.535)">
        <g id="Grupo_34855" data-name="Grupo 34855">
          <g id="Grupo_34854" data-name="Grupo 34854">
            <g id="Grupo_34853" data-name="Grupo 34853" style="isolation: isolate">
              <g id="Grupo_34850" data-name="Grupo 34850" transform="translate(30.3 17.494)">
                <path id="Trazado_85801" data-name="Trazado 85801" d="M194.946,292.922l2.578-1.5-.1,34.817-2.579,1.5Z" transform="translate(-194.847 -291.423)" fill="#336ba2"/>
              </g>
              <g id="Grupo_34851" data-name="Grupo 34851" transform="translate(0.099)">
                <path id="Trazado_85802" data-name="Trazado 85802" d="M181.268,285.056l2.578-1.5,30.3,17.494-2.578,1.5Z" transform="translate(-181.268 -283.558)" fill="#336ba2"/>
              </g>
              <g id="Grupo_34852" data-name="Grupo 34852" transform="translate(0 1.499)">
                <path id="Trazado_85803" data-name="Trazado 85803" d="M211.623,301.726l-.1,34.817-30.3-17.494.1-34.818Z" transform="translate(-181.224 -284.232)" fill="#5793ce"/>
              </g>
            </g>
          </g>
        </g>
        <g id="Grupo_34858" data-name="Grupo 34858" transform="translate(4.889 14.737)">
          <g id="Grupo_34857" data-name="Grupo 34857">
            <g id="Grupo_34856" data-name="Grupo 34856" transform="translate(5.22 4.182)">
              <path id="Trazado_85804" data-name="Trazado 85804" d="M195.2,303.1l-3.421,1.973a1.013,1.013,0,0,1-1.045-.142,2.722,2.722,0,0,1-1.048-1.065l-3.418-5.923c-.538-.932-.538-1.942,0-2.251s1.41.194,1.951,1.125l.872,1.51v-5.087c0-1.048.736-1.475,1.644-.95a3.633,3.633,0,0,1,1.644,2.847v5.089l.872-.5c.538-.311,1.412.193,1.951,1.125S195.743,302.787,195.2,303.1Z" transform="translate(-185.647 -292.064)" fill="#f5f5fd"/>
              <path id="Trazado_85805" data-name="Trazado 85805" d="M185.769,298.246c0-1.012.714-1.426,1.59-.919l7,4.041a3.522,3.522,0,0,1,1.593,2.756c0,1.014-.714,1.426-1.593.919l-7-4.041A3.523,3.523,0,0,1,185.769,298.246Zm1.59-.716c-.778-.449-1.415-.082-1.415.818a3.135,3.135,0,0,0,1.415,2.451l7,4.041c.781.449,1.417.082,1.417-.816a3.136,3.136,0,0,0-1.417-2.453Z" transform="translate(-185.769 -285.886)" fill="#f5f5fd"/>
              <path id="Trazado_85806" data-name="Trazado 85806" d="M187.2,297.667l5.4,3.121a3.322,3.322,0,0,1,1.5,2.6c0,.959-.672,1.348-1.5.868l-5.4-3.121Z" transform="translate(-184.016 -285.205)" fill="#f5f5fd"/>
            </g>
            <path id="Trazado_85807" data-name="Trazado 85807" d="M183.422,297.542c0-6.566,4.624-9.237,10.311-5.954s10.311,11.3,10.311,17.86-4.626,9.237-10.311,5.954S183.42,304.108,183.422,297.542Zm1.157.667c0,5.83,4.106,12.942,9.155,15.858s9.155.543,9.155-5.287-4.106-12.942-9.155-15.856S184.579,292.382,184.579,298.209Z" transform="translate(-183.422 -290.184)" fill="#f5f5fd"/>
          </g>
        </g>
      </g>
    </g>
  </g>
</svg>
