<svg xmlns="http://www.w3.org/2000/svg" width="521.128" height="343.776" viewBox="0 0 521.128 343.776">
  <g id="Grupo_151348" data-name="Grupo 151348" transform="translate(-39.005 93.203)">
    <path id="Trazado_193316" data-name="Trazado 193316" d="M347.438,133.164,265.482,85.68l91.834-52.873,81.956,47.485Zm-78.85-47.481,78.853,45.686,88.725-51.08L357.313,34.6Z" transform="translate(120.861 38.651)" fill="#fff"/>
    <path id="Trazado_193590" data-name="Trazado 193590" d="M347.438,133.164,265.482,85.68l91.834-52.873,81.956,47.485Zm-78.85-47.481,78.853,45.686,88.725-51.08L357.313,34.6Z" transform="translate(-126.078 -46.349)" fill="#fff"/>
    <path id="Trazado_193435" data-name="Trazado 193435" d="M179.233,194.708l-.391-.229L39.005,112.66l82.738-47.6.776,1.345L42.1,112.672,179.236,192.91l41.624-24.1.779,1.345Z" transform="translate(0 55.866)" fill="#fff"/>
    <g id="Grupo_151326" data-name="Grupo 151326" transform="translate(332.597 148.491)">
      <path id="Trazado_193489" data-name="Trazado 193489" d="M118.513,88.542l-38.6-22.286,38.6-22.284,38.6,22.284ZM83.021,66.256l35.492,20.491L154,66.256l-35.489-20.49Z" transform="translate(-38.211 -18.263)" fill="#fff"/>
      <g id="Grupo_151325" data-name="Grupo 151325" transform="translate(46.267 9.754)">
        <path id="Trazado_193490" data-name="Trazado 193490" d="M150.949,58.407h0V48.218L128.1,48.205l-7.9-4.56a7.861,7.861,0,0,0-7.072.293l-7.368,4.254L82.9,48.181V58.659a2.05,2.05,0,0,0,1.215,1.9L113.643,77.6a7.858,7.858,0,0,0,7.07-.294l28.515-16.462A2.8,2.8,0,0,0,150.949,58.407Z" transform="translate(-82.888 -28.567)" fill="#396caa"/>
        <path id="Trazado_193491" data-name="Trazado 193491" d="M116.923,42.943a8.163,8.163,0,0,0-3.79.994l-7.368,4.254L82.9,48.179V58.657a2.05,2.05,0,0,0,1.215,1.9L113.643,77.6a6.42,6.42,0,0,0,3.281.7Z" transform="translate(-82.888 -28.566)" fill="#396caa"/>
        <path id="Trazado_193492" data-name="Trazado 193492" d="M85.486,46.359l-2.589,0V56.835a2.05,2.05,0,0,0,1.215,1.9l1.374.793Z" transform="translate(-82.888 -26.744)" fill="#5793ce"/>
        <path id="Trazado_193493" data-name="Trazado 193493" d="M103.239,69.85a8.06,8.06,0,0,0,5.653-.064v-11.9h-5.653Z" transform="translate(-72.03 -20.591)" fill="#5793ce"/>
        <path id="Trazado_193494" data-name="Trazado 193494" d="M113.645,72.162,84.114,55.114c-1.813-1.048-1.586-2.876.508-4.083l28.514-16.464a7.861,7.861,0,0,1,7.072-.293l29.531,17.05c1.811,1.046,1.584,2.874-.508,4.083L120.715,71.869A7.853,7.853,0,0,1,113.645,72.162Z" transform="translate(-82.89 -33.568)" fill="#d4ecff"/>
        <path id="Trazado_193495" data-name="Trazado 193495" d="M149.23,46.945,120.715,63.407a7.858,7.858,0,0,1-7.07.293L84.114,46.651a2.725,2.725,0,0,1-.9-.8,1.9,1.9,0,0,0,.9,2.808L113.644,65.7a7.853,7.853,0,0,0,7.07-.293L149.23,48.949c1.626-.939,2.12-2.25,1.411-3.28A3.958,3.958,0,0,1,149.23,46.945Z" transform="translate(-82.89 -27.111)" fill="#fff"/>
        <g id="Grupo_151323" data-name="Grupo 151323" transform="translate(54.815 27.246)">
          <path id="Trazado_193496" data-name="Trazado 193496" d="M121.016,55.074a2.64,2.64,0,0,1-1.193,2.067c-.658.379-1.192.071-1.192-.69a2.637,2.637,0,0,1,1.192-2.066C120.482,54.005,121.016,54.314,121.016,55.074Z" transform="translate(-118.631 -49.792)" fill="#d4ecff"/>
          <path id="Trazado_193497" data-name="Trazado 193497" d="M123.518,53.63a2.637,2.637,0,0,1-1.192,2.066c-.659.38-1.193.072-1.193-.689a2.635,2.635,0,0,1,1.193-2.066C122.984,52.561,123.518,52.87,123.518,53.63Z" transform="translate(-117.296 -50.563)" fill="#d4ecff"/>
          <path id="Trazado_193498" data-name="Trazado 193498" d="M126.021,52.185a2.639,2.639,0,0,1-1.193,2.066c-.659.38-1.193.072-1.193-.689a2.635,2.635,0,0,1,1.193-2.066C125.486,51.116,126.021,51.425,126.021,52.185Z" transform="translate(-115.961 -51.334)" fill="#d4ecff"/>
        </g>
        <g id="Grupo_151324" data-name="Grupo 151324" transform="translate(18.109 9.964)">
          <path id="Trazado_193499" data-name="Trazado 193499" d="M109.089,58.125,95.27,50.147c-.848-.489-.742-1.345.238-1.911l13.343-7.7a3.679,3.679,0,0,1,3.31-.136l13.818,7.978c.848.489.742,1.345-.238,1.911l-13.343,7.7A3.684,3.684,0,0,1,109.089,58.125Z" transform="translate(-94.698 -40.065)" fill="#5793ce"/>
          <path id="Trazado_193500" data-name="Trazado 193500" d="M105.637,48.354l-1.912-1.1c-.117-.069-.1-.187.034-.265L105.6,45.92a.508.508,0,0,1,.457-.018l1.912,1.1c.117.067.1.186-.034.264l-1.847,1.066A.5.5,0,0,1,105.637,48.354Z" transform="translate(-89.922 -36.975)" fill="#d4ecff"/>
          <path id="Trazado_193501" data-name="Trazado 193501" d="M95.27,50.147l.038.023a2.27,2.27,0,0,1,.2-.136l13.343-7.7a3.679,3.679,0,0,1,3.31-.138l13.78,7.957c.781-.56.822-1.322.038-1.774L112.16,40.4a3.679,3.679,0,0,0-3.31.136l-13.343,7.7C94.528,48.8,94.422,49.658,95.27,50.147Z" transform="translate(-94.698 -40.065)" fill="#396caa"/>
        </g>
      </g>
      <path id="Trazado_193502" data-name="Trazado 193502" d="M98.656,68.648a8.067,8.067,0,0,1-7.3,0c-2.017-1.164-2.017-3.052,0-4.216a8.067,8.067,0,0,1,7.3,0C100.673,65.6,100.673,67.484,98.656,68.648Z" transform="translate(-32.915 -7.811)" fill="#fff"/>
    </g>
    <g id="Grupo_151350" data-name="Grupo 151350" transform="translate(106.786 55.39)">
      <path id="Trazado_193489-2" data-name="Trazado 193489" d="M118.513,88.542l-38.6-22.286,38.6-22.284,38.6,22.284ZM83.021,66.256l35.492,20.491L154,66.256l-35.489-20.49Z" transform="translate(-38.211 -18.263)" fill="#fff"/>
      <g id="Grupo_151325-2" data-name="Grupo 151325" transform="translate(46.267 9.754)">
        <path id="Trazado_193490-2" data-name="Trazado 193490" d="M150.949,58.407h0V48.218L128.1,48.205l-7.9-4.56a7.861,7.861,0,0,0-7.072.293l-7.368,4.254L82.9,48.181V58.659a2.05,2.05,0,0,0,1.215,1.9L113.643,77.6a7.858,7.858,0,0,0,7.07-.294l28.515-16.462A2.8,2.8,0,0,0,150.949,58.407Z" transform="translate(-82.888 -28.567)" fill="#396caa"/>
        <path id="Trazado_193491-2" data-name="Trazado 193491" d="M116.923,42.943a8.163,8.163,0,0,0-3.79.994l-7.368,4.254L82.9,48.179V58.657a2.05,2.05,0,0,0,1.215,1.9L113.643,77.6a6.42,6.42,0,0,0,3.281.7Z" transform="translate(-82.888 -28.566)" fill="#396caa"/>
        <path id="Trazado_193492-2" data-name="Trazado 193492" d="M85.486,46.359l-2.589,0V56.835a2.05,2.05,0,0,0,1.215,1.9l1.374.793Z" transform="translate(-82.888 -26.744)" fill="#5793ce"/>
        <path id="Trazado_193493-2" data-name="Trazado 193493" d="M103.239,69.85a8.06,8.06,0,0,0,5.653-.064v-11.9h-5.653Z" transform="translate(-72.03 -20.591)" fill="#5793ce"/>
        <path id="Trazado_193494-2" data-name="Trazado 193494" d="M113.645,72.162,84.114,55.114c-1.813-1.048-1.586-2.876.508-4.083l28.514-16.464a7.861,7.861,0,0,1,7.072-.293l29.531,17.05c1.811,1.046,1.584,2.874-.508,4.083L120.715,71.869A7.853,7.853,0,0,1,113.645,72.162Z" transform="translate(-82.89 -33.568)" fill="#d4ecff"/>
        <path id="Trazado_193495-2" data-name="Trazado 193495" d="M149.23,46.945,120.715,63.407a7.858,7.858,0,0,1-7.07.293L84.114,46.651a2.725,2.725,0,0,1-.9-.8,1.9,1.9,0,0,0,.9,2.808L113.644,65.7a7.853,7.853,0,0,0,7.07-.293L149.23,48.949c1.626-.939,2.12-2.25,1.411-3.28A3.958,3.958,0,0,1,149.23,46.945Z" transform="translate(-82.89 -27.111)" fill="#fff"/>
        <g id="Grupo_151323-2" data-name="Grupo 151323" transform="translate(54.815 27.246)">
          <path id="Trazado_193496-2" data-name="Trazado 193496" d="M121.016,55.074a2.64,2.64,0,0,1-1.193,2.067c-.658.379-1.192.071-1.192-.69a2.637,2.637,0,0,1,1.192-2.066C120.482,54.005,121.016,54.314,121.016,55.074Z" transform="translate(-118.631 -49.792)" fill="#d4ecff"/>
          <path id="Trazado_193497-2" data-name="Trazado 193497" d="M123.518,53.63a2.637,2.637,0,0,1-1.192,2.066c-.659.38-1.193.072-1.193-.689a2.635,2.635,0,0,1,1.193-2.066C122.984,52.561,123.518,52.87,123.518,53.63Z" transform="translate(-117.296 -50.563)" fill="#d4ecff"/>
          <path id="Trazado_193498-2" data-name="Trazado 193498" d="M126.021,52.185a2.639,2.639,0,0,1-1.193,2.066c-.659.38-1.193.072-1.193-.689a2.635,2.635,0,0,1,1.193-2.066C125.486,51.116,126.021,51.425,126.021,52.185Z" transform="translate(-115.961 -51.334)" fill="#d4ecff"/>
        </g>
        <g id="Grupo_151324-2" data-name="Grupo 151324" transform="translate(18.109 9.964)">
          <path id="Trazado_193499-2" data-name="Trazado 193499" d="M109.089,58.125,95.27,50.147c-.848-.489-.742-1.345.238-1.911l13.343-7.7a3.679,3.679,0,0,1,3.31-.136l13.818,7.978c.848.489.742,1.345-.238,1.911l-13.343,7.7A3.684,3.684,0,0,1,109.089,58.125Z" transform="translate(-94.698 -40.065)" fill="#5793ce"/>
          <path id="Trazado_193500-2" data-name="Trazado 193500" d="M105.637,48.354l-1.912-1.1c-.117-.069-.1-.187.034-.265L105.6,45.92a.508.508,0,0,1,.457-.018l1.912,1.1c.117.067.1.186-.034.264l-1.847,1.066A.5.5,0,0,1,105.637,48.354Z" transform="translate(-89.922 -36.975)" fill="#d4ecff"/>
          <path id="Trazado_193501-2" data-name="Trazado 193501" d="M95.27,50.147l.038.023a2.27,2.27,0,0,1,.2-.136l13.343-7.7a3.679,3.679,0,0,1,3.31-.138l13.78,7.957c.781-.56.822-1.322.038-1.774L112.16,40.4a3.679,3.679,0,0,0-3.31.136l-13.343,7.7C94.528,48.8,94.422,49.658,95.27,50.147Z" transform="translate(-94.698 -40.065)" fill="#396caa"/>
        </g>
      </g>
    </g>
    <g id="Grupo_151347" data-name="Grupo 151347" transform="translate(419.403 -39.62)">
      <g id="Grupo_151339" data-name="Grupo 151339">
        <g id="Grupo_151330" data-name="Grupo 151330">
          <path id="Trazado_193507" data-name="Trazado 193507" d="M287.047,127.647h0V-7.271L340.684-21.31l9.88-5.7c2.267-1.308,6.228-1.144,8.846.367l9.217,5.322,28.607-.015L388.764,108.9a2.564,2.564,0,0,1-1.52,2.37L333.72,151.661c-2.268,1.31-6.228,1.146-8.846-.367L289.2,130.7C287.691,129.828,286.963,128.7,287.047,127.647Z" transform="translate(-287.036 45.876)" fill="#396caa"/>
          <path id="Trazado_193508" data-name="Trazado 193508" d="M340.076-27.893a10.219,10.219,0,0,1,4.742,1.244l9.217,5.322,28.607-.015V113.938a2.562,2.562,0,0,1-1.518,2.37l-62,35.351a8.016,8.016,0,0,1-4.106.877l-.64-136.126Z" transform="translate(-272.445 45.878)" fill="#d4ecff"/>
          <path id="Trazado_193509" data-name="Trazado 193509" d="M319.567,137.082a10.079,10.079,0,0,1-7.072-.081V-.055h7.072Z" transform="translate(-273.452 60.734)" fill="#5793ce"/>
          <path id="Trazado_193510" data-name="Trazado 193510" d="M333.721,22.683l62-35.351c2.267-1.31,1.983-3.6-.635-5.107l-35.671-20.6c-2.618-1.511-6.579-1.675-8.846-.367l-62,35.351c-2.268,1.31-1.983,3.6.635,5.107l35.671,20.6C327.493,23.829,331.453,23.993,333.721,22.683Z" transform="translate(-287.038 39.62)" fill="#d4ecff"/>
          <path id="Trazado_193511" data-name="Trazado 193511" d="M289.2-8.943l35.671,20.594c2.618,1.512,6.578,1.676,8.846.367l62-35.351a3.41,3.41,0,0,0,1.132-1c.779,1.253.425,2.613-1.132,3.512l-62,35.351c-2.268,1.31-6.228,1.146-8.846-.367L289.2-6.435c-2.035-1.173-2.653-2.814-1.767-4.1A4.949,4.949,0,0,0,289.2-8.943Z" transform="translate(-287.036 47.776)" fill="#fafdff"/>
          <g id="Grupo_151329" data-name="Grupo 151329" transform="translate(23.084 11.437)">
            <path id="Trazado_193512" data-name="Trazado 193512" d="M323.934,4.376l41.277-23.927c1.061-.612.928-1.682-.3-2.389l-16.692-9.638a4.6,4.6,0,0,0-4.139-.172L302.805-7.823c-1.06.613-.928,1.682.3,2.389L319.795,4.2A4.594,4.594,0,0,0,323.934,4.376Z" transform="translate(-302.089 32.162)" fill="#173d7a"/>
            <g id="Grupo_151328" data-name="Grupo 151328" transform="translate(17.135 10.561)">
              <path id="Trazado_193513" data-name="Trazado 193513" d="M331.915-22.15l2.393-1.38c.146-.086.127-.233-.041-.331l-2.31-1.333a.636.636,0,0,0-.572-.025l-2.393,1.38c-.147.086-.129.233.041.331l2.31,1.334A.64.64,0,0,0,331.915-22.15Z" transform="translate(-304.921 25.276)" fill="#d4ecff"/>
              <path id="Trazado_193514" data-name="Trazado 193514" d="M326.7-19.154l2.391-1.382c.147-.084.129-.232-.04-.33l-2.31-1.334a.643.643,0,0,0-.574-.023l-2.391,1.38c-.147.086-.129.233.041.331l2.308,1.333A.639.639,0,0,0,326.7-19.154Z" transform="translate(-307.701 26.875)" fill="#d4ecff"/>
              <path id="Trazado_193515" data-name="Trazado 193515" d="M321.495-16.158l2.391-1.382c.147-.084.129-.233-.041-.33l-2.31-1.334a.635.635,0,0,0-.572-.023l-2.391,1.38c-.147.084-.129.233.04.331l2.31,1.333A.639.639,0,0,0,321.495-16.158Z" transform="translate(-310.481 28.473)" fill="#ff2c9c"/>
              <path id="Trazado_193516" data-name="Trazado 193516" d="M316.283-13.162l2.393-1.382c.147-.084.129-.233-.041-.33l-2.31-1.334a.631.631,0,0,0-.572-.023l-2.392,1.38c-.146.084-.127.233.041.331l2.31,1.333A.636.636,0,0,0,316.283-13.162Z" transform="translate(-313.262 30.072)" fill="#d4ecff"/>
            </g>
            <path id="Trazado_193517" data-name="Trazado 193517" d="M365.209-19.551l-.049.029a2.828,2.828,0,0,0-.248-.172l-16.692-9.638a4.6,4.6,0,0,0-4.139-.17L302.852-5.6c-.977-.7-1.029-1.653-.049-2.219L344.08-31.749a4.6,4.6,0,0,1,4.139.172l16.692,9.638C366.137-21.233,366.27-20.162,365.209-19.551Z" transform="translate(-302.087 32.162)" fill="#5793ce"/>
          </g>
        </g>
        <g id="Grupo_151332" data-name="Grupo 151332" transform="translate(5.012 60.541)">
          <path id="Trazado_193518" data-name="Trazado 193518" d="M316.167,28.347,292.7,14.911a5.727,5.727,0,0,1-2.391-4.569V1.95c0-1.761,1.07-2.57,2.391-1.808l23.47,13.436a5.727,5.727,0,0,1,2.391,4.569v8.394C318.557,28.3,317.487,29.11,316.167,28.347Z" transform="translate(-290.306 0.145)" fill="#173d7a"/>
          <path id="Trazado_193519" data-name="Trazado 193519" d="M291.536-.123a2.343,2.343,0,0,0-.6,1.747v8.392a5.727,5.727,0,0,0,2.391,4.569L316.8,28.021a1.721,1.721,0,0,0,1.161.253,1.423,1.423,0,0,1-1.79.061L292.7,14.9a5.727,5.727,0,0,1-2.391-4.569V1.938C290.306.742,290.806,0,291.536-.123Z" transform="translate(-290.306 0.157)" fill="#fff"/>
          <g id="Grupo_151331" data-name="Grupo 151331" transform="translate(8.929 10.226)">
            <path id="Trazado_193520" data-name="Trazado 193520" d="M303.5,14.227l-2.153-1.244a1.249,1.249,0,0,1-.52-1v-2.3c0-.385.233-.561.52-.394l2.153,1.242a1.248,1.248,0,0,1,.521,1v2.3C304.017,14.216,303.783,14.393,303.5,14.227Z" transform="translate(-293.623 -5.077)" fill="#396caa"/>
            <path id="Trazado_193521" data-name="Trazado 193521" d="M298.8,11.517l-2.153-1.244a1.246,1.246,0,0,1-.521-1v-2.3c0-.383.233-.56.521-.394L298.8,7.827a1.252,1.252,0,0,1,.52,1v2.3C299.323,11.506,299.089,11.683,298.8,11.517Z" transform="translate(-296.128 -6.522)" fill="#fff"/>
          </g>
        </g>
        <g id="Grupo_151334" data-name="Grupo 151334" transform="translate(5.012 121.187)">
          <path id="Trazado_193522" data-name="Trazado 193522" d="M316.167,67.89,292.7,54.454a5.727,5.727,0,0,1-2.391-4.569V41.493c0-1.761,1.07-2.57,2.391-1.808l23.47,13.436a5.729,5.729,0,0,1,2.391,4.569v8.394C318.557,67.844,317.487,68.654,316.167,67.89Z" transform="translate(-290.306 -39.398)" fill="#173d7a"/>
          <path id="Trazado_193523" data-name="Trazado 193523" d="M291.536,39.42a2.343,2.343,0,0,0-.6,1.747v8.392a5.727,5.727,0,0,0,2.391,4.569L316.8,67.564a1.721,1.721,0,0,0,1.161.253,1.423,1.423,0,0,1-1.79.061L292.7,54.442a5.727,5.727,0,0,1-2.391-4.569V41.481C290.306,40.285,290.806,39.544,291.536,39.42Z" transform="translate(-290.306 -39.386)" fill="#fff"/>
          <g id="Grupo_151333" data-name="Grupo 151333" transform="translate(8.929 10.226)">
            <path id="Trazado_193524" data-name="Trazado 193524" d="M303.5,53.77l-2.153-1.244a1.249,1.249,0,0,1-.52-1v-2.3c0-.385.233-.561.52-.394L303.5,50.08a1.249,1.249,0,0,1,.521,1v2.3C304.017,53.759,303.783,53.936,303.5,53.77Z" transform="translate(-293.623 -44.62)" fill="#396caa"/>
            <path id="Trazado_193525" data-name="Trazado 193525" d="M298.8,51.06l-2.153-1.242a1.251,1.251,0,0,1-.521-1v-2.3c0-.383.233-.56.521-.394L298.8,47.37a1.252,1.252,0,0,1,.52,1v2.3C299.323,51.049,299.089,51.226,298.8,51.06Z" transform="translate(-296.128 -46.065)" fill="#fff"/>
          </g>
        </g>
        <g id="Grupo_151336" data-name="Grupo 151336" transform="translate(5.012 151.509)">
          <path id="Trazado_193526" data-name="Trazado 193526" d="M316.167,87.663,292.7,74.226a5.729,5.729,0,0,1-2.391-4.569V61.264c0-1.761,1.07-2.57,2.391-1.807l23.47,13.436a5.727,5.727,0,0,1,2.391,4.569v8.392C318.557,87.615,317.487,88.425,316.167,87.663Z" transform="translate(-290.306 -59.169)" fill="#173d7a"/>
          <path id="Trazado_193527" data-name="Trazado 193527" d="M291.536,59.192a2.339,2.339,0,0,0-.6,1.745v8.392a5.727,5.727,0,0,0,2.391,4.569L316.8,87.336a1.729,1.729,0,0,0,1.161.253,1.425,1.425,0,0,1-1.79.061L292.7,74.214a5.727,5.727,0,0,1-2.391-4.569V61.252C290.306,60.057,290.806,59.316,291.536,59.192Z" transform="translate(-290.306 -59.157)" fill="#fff"/>
          <g id="Grupo_151335" data-name="Grupo 151335" transform="translate(8.929 10.225)">
            <path id="Trazado_193528" data-name="Trazado 193528" d="M303.5,73.541,301.342,72.3a1.249,1.249,0,0,1-.52-1V69c0-.383.233-.56.52-.394l2.153,1.244a1.246,1.246,0,0,1,.521,1v2.3C304.017,73.532,303.783,73.708,303.5,73.541Z" transform="translate(-293.623 -64.39)" fill="#396caa"/>
            <path id="Trazado_193529" data-name="Trazado 193529" d="M298.8,70.832l-2.153-1.244a1.246,1.246,0,0,1-.521-1v-2.3c0-.383.233-.56.521-.394l2.153,1.244a1.249,1.249,0,0,1,.52,1v2.3C299.323,70.822,299.089,71,298.8,70.832Z" transform="translate(-296.128 -65.836)" fill="#fff"/>
          </g>
        </g>
        <g id="Grupo_151338" data-name="Grupo 151338" transform="translate(5.012 90.864)">
          <path id="Trazado_193530" data-name="Trazado 193530" d="M316.167,48.12,292.7,34.683a5.73,5.73,0,0,1-2.391-4.57V21.721c0-1.761,1.07-2.57,2.391-1.807l23.47,13.436a5.727,5.727,0,0,1,2.391,4.569v8.392C318.557,48.072,317.487,48.882,316.167,48.12Z" transform="translate(-290.306 -19.626)" fill="#173d7a"/>
          <path id="Trazado_193531" data-name="Trazado 193531" d="M291.536,19.649a2.336,2.336,0,0,0-.6,1.745v8.392a5.727,5.727,0,0,0,2.391,4.569L316.8,47.793a1.729,1.729,0,0,0,1.161.253,1.425,1.425,0,0,1-1.79.061L292.7,34.671a5.73,5.73,0,0,1-2.391-4.57V21.709C290.306,20.514,290.806,19.773,291.536,19.649Z" transform="translate(-290.306 -19.614)" fill="#fff"/>
          <g id="Grupo_151337" data-name="Grupo 151337" transform="translate(8.929 10.225)">
            <path id="Trazado_193532" data-name="Trazado 193532" d="M303.5,34l-2.153-1.242a1.249,1.249,0,0,1-.52-1v-2.3c0-.383.233-.56.52-.394l2.153,1.244a1.246,1.246,0,0,1,.521,1v2.3C304.017,33.989,303.783,34.165,303.5,34Z" transform="translate(-293.623 -24.847)" fill="#396caa"/>
            <path id="Trazado_193533" data-name="Trazado 193533" d="M298.8,31.288l-2.153-1.242a1.246,1.246,0,0,1-.521-1v-2.3c0-.383.233-.56.521-.394L298.8,27.6a1.249,1.249,0,0,1,.52,1v2.3C299.323,31.279,299.089,31.455,298.8,31.288Z" transform="translate(-296.128 -26.293)" fill="#fff"/>
          </g>
        </g>
      </g>
      <g id="Grupo_151340" data-name="Grupo 151340" transform="translate(49.005 32.744)">
        <path id="Trazado_193534" data-name="Trazado 193534" d="M321.184,29.43,375.328-1.831a5.255,5.255,0,0,0,2.195-4.193V-16.347c0-1.616-.983-2.359-2.195-1.659L321.184,13.254a5.254,5.254,0,0,0-2.193,4.191V27.77C318.991,29.387,319.973,30.129,321.184,29.43Z" transform="translate(-318.991 18.27)" fill="#5793ce"/>
        <path id="Trazado_193535" data-name="Trazado 193535" d="M321.822,24.5,372.856-4.961a2.664,2.664,0,0,0,1.113-2.127V-14.85c0-.819-.5-1.2-1.113-.842L321.822,13.775a2.664,2.664,0,0,0-1.113,2.127v7.76C320.709,24.483,321.207,24.86,321.822,24.5Z" transform="translate(-318.074 19.574)" fill="#d4ecff" opacity="0.4"/>
        <path id="Trazado_193536" data-name="Trazado 193536" d="M348.153-4.718l7.616-4.4a2.592,2.592,0,0,0,1.081-2.066h0c0-.8-.485-1.161-1.081-.817l-7.616,4.4a2.582,2.582,0,0,0-1.081,2.064h0C347.072-4.738,347.555-4.373,348.153-4.718Z" transform="translate(-304.005 21.548)" fill="#d4ecff"/>
        <path id="Trazado_193537" data-name="Trazado 193537" d="M343.545-4.98c0,.8.558,1.118,1.248.721a2.763,2.763,0,0,0,1.248-2.162c0-.8-.56-1.118-1.248-.721A2.759,2.759,0,0,0,343.545-4.98Z" transform="translate(-305.887 24.117)" fill="#173d7a"/>
        <path id="Trazado_193538" data-name="Trazado 193538" d="M340.673-3.322c0,.8.56,1.118,1.248.721a2.759,2.759,0,0,0,1.248-2.162c0-.8-.558-1.12-1.248-.721A2.761,2.761,0,0,0,340.673-3.322Z" transform="translate(-307.42 25.001)" fill="#173d7a"/>
        <path id="Trazado_193539" data-name="Trazado 193539" d="M337.8-1.666c0,.8.558,1.12,1.248.721A2.758,2.758,0,0,0,340.3-3.106c0-.8-.56-1.12-1.248-.721A2.754,2.754,0,0,0,337.8-1.666Z" transform="translate(-308.952 25.886)" fill="#d4ecff"/>
        <path id="Trazado_193540" data-name="Trazado 193540" d="M334.93-.007c0,.8.56,1.12,1.248.721a2.757,2.757,0,0,0,1.248-2.162c0-.8-.558-1.118-1.248-.721A2.763,2.763,0,0,0,334.93-.007Z" transform="translate(-310.485 26.771)" fill="#173d7a"/>
        <path id="Trazado_193541" data-name="Trazado 193541" d="M323.075,9.786,325.641,8.3a1.66,1.66,0,0,0,.695-1.325V4.264c0-.511-.311-.745-.695-.525l-2.566,1.482a1.659,1.659,0,0,0-.693,1.325V9.261C322.382,9.772,322.692,10.006,323.075,9.786Z" transform="translate(-317.181 29.971)" fill="#173d7a"/>
      </g>
      <g id="Grupo_151341" data-name="Grupo 151341" transform="translate(49.005 50.95)">
        <path id="Trazado_193542" data-name="Trazado 193542" d="M321.184,41.3,375.328,10.04a5.255,5.255,0,0,0,2.195-4.193V-4.478c0-1.615-.983-2.357-2.195-1.658L321.184,25.124a5.259,5.259,0,0,0-2.193,4.193V39.641C318.991,41.256,319.973,42,321.184,41.3Z" transform="translate(-318.991 6.399)" fill="#5793ce"/>
        <path id="Trazado_193543" data-name="Trazado 193543" d="M321.822,36.375,372.856,6.91a2.669,2.669,0,0,0,1.113-2.127V-2.979c0-.821-.5-1.2-1.113-.842L321.822,25.644a2.668,2.668,0,0,0-1.113,2.127v7.762C320.709,36.354,321.207,36.731,321.822,36.375Z" transform="translate(-318.074 7.703)" fill="#d4ecff" opacity="0.4"/>
        <path id="Trazado_193544" data-name="Trazado 193544" d="M348.153,7.153l7.616-4.4A2.592,2.592,0,0,0,356.851.69h0c0-.8-.485-1.161-1.081-.817l-7.616,4.4a2.582,2.582,0,0,0-1.081,2.064h0C347.072,7.132,347.555,7.5,348.153,7.153Z" transform="translate(-304.005 9.677)" fill="#d4ecff"/>
        <path id="Trazado_193545" data-name="Trazado 193545" d="M343.545,6.891c0,.8.558,1.118,1.248.721a2.763,2.763,0,0,0,1.248-2.162c0-.8-.56-1.12-1.248-.721A2.757,2.757,0,0,0,343.545,6.891Z" transform="translate(-305.887 12.246)" fill="#fff"/>
        <path id="Trazado_193546" data-name="Trazado 193546" d="M340.673,8.547c0,.8.56,1.12,1.248.721a2.754,2.754,0,0,0,1.248-2.161c0-.8-.558-1.12-1.248-.721A2.758,2.758,0,0,0,340.673,8.547Z" transform="translate(-307.42 13.13)" fill="#173d7a"/>
        <path id="Trazado_193547" data-name="Trazado 193547" d="M337.8,10.205c0,.8.558,1.12,1.248.721A2.761,2.761,0,0,0,340.3,8.764c0-.8-.56-1.118-1.248-.719A2.754,2.754,0,0,0,337.8,10.205Z" transform="translate(-308.952 14.015)" fill="#d4ecff"/>
        <path id="Trazado_193548" data-name="Trazado 193548" d="M334.93,11.864c0,.8.56,1.12,1.248.721a2.759,2.759,0,0,0,1.248-2.162c0-.8-.558-1.118-1.248-.721A2.763,2.763,0,0,0,334.93,11.864Z" transform="translate(-310.485 14.9)" fill="#173d7a"/>
        <path id="Trazado_193549" data-name="Trazado 193549" d="M323.075,21.657l2.566-1.482a1.66,1.66,0,0,0,.695-1.325V16.135c0-.511-.311-.745-.695-.525l-2.566,1.482a1.659,1.659,0,0,0-.693,1.325v2.715C322.382,21.643,322.692,21.877,323.075,21.657Z" transform="translate(-317.181 18.1)" fill="#173d7a"/>
      </g>
      <g id="Grupo_151342" data-name="Grupo 151342" transform="translate(49.005 69.156)">
        <path id="Trazado_193550" data-name="Trazado 193550" d="M321.184,53.17l54.144-31.259a5.255,5.255,0,0,0,2.195-4.193V7.393c0-1.615-.983-2.357-2.195-1.658L321.184,36.995a5.254,5.254,0,0,0-2.193,4.193V51.512C318.991,53.127,319.973,53.869,321.184,53.17Z" transform="translate(-318.991 -5.472)" fill="#5793ce"/>
        <path id="Trazado_193551" data-name="Trazado 193551" d="M321.822,48.246l51.034-29.465a2.669,2.669,0,0,0,1.113-2.127V8.892c0-.821-.5-1.2-1.113-.842L321.822,37.515a2.668,2.668,0,0,0-1.113,2.127V47.4C320.709,48.225,321.207,48.6,321.822,48.246Z" transform="translate(-318.074 -4.168)" fill="#d4ecff" opacity="0.4"/>
        <path id="Trazado_193552" data-name="Trazado 193552" d="M348.153,19.024l7.616-4.4a2.592,2.592,0,0,0,1.081-2.066h0c0-.8-.485-1.163-1.081-.817l-7.616,4.4a2.587,2.587,0,0,0-1.081,2.066h0C347.072,19,347.555,19.37,348.153,19.024Z" transform="translate(-304.005 -2.195)" fill="#d4ecff"/>
        <path id="Trazado_193553" data-name="Trazado 193553" d="M343.545,18.762c0,.8.558,1.118,1.248.719a2.758,2.758,0,0,0,1.248-2.161c0-.8-.56-1.12-1.248-.721A2.754,2.754,0,0,0,343.545,18.762Z" transform="translate(-305.887 0.375)" fill="#fff"/>
        <path id="Trazado_193554" data-name="Trazado 193554" d="M340.673,20.418c0,.8.56,1.12,1.248.721a2.754,2.754,0,0,0,1.248-2.162c0-.8-.558-1.118-1.248-.719A2.758,2.758,0,0,0,340.673,20.418Z" transform="translate(-307.42 1.259)" fill="#173d7a"/>
        <path id="Trazado_193555" data-name="Trazado 193555" d="M337.8,22.077c0,.8.558,1.12,1.248.721a2.761,2.761,0,0,0,1.248-2.162c0-.8-.56-1.118-1.248-.721A2.759,2.759,0,0,0,337.8,22.077Z" transform="translate(-308.952 2.144)" fill="#d4ecff"/>
        <path id="Trazado_193556" data-name="Trazado 193556" d="M334.93,23.735c0,.8.56,1.118,1.248.721a2.759,2.759,0,0,0,1.248-2.162c0-.8-.558-1.118-1.248-.721A2.763,2.763,0,0,0,334.93,23.735Z" transform="translate(-310.485 3.029)" fill="#173d7a"/>
        <path id="Trazado_193557" data-name="Trazado 193557" d="M323.075,33.528l2.566-1.482a1.66,1.66,0,0,0,.695-1.325V28.007c0-.511-.311-.747-.695-.525l-2.566,1.482a1.659,1.659,0,0,0-.693,1.325V33C322.382,33.514,322.692,33.749,323.075,33.528Z" transform="translate(-317.181 6.229)" fill="#173d7a"/>
      </g>
      <g id="Grupo_151343" data-name="Grupo 151343" transform="translate(49.005 87.362)">
        <path id="Trazado_193558" data-name="Trazado 193558" d="M321.184,65.041l54.144-31.259a5.258,5.258,0,0,0,2.195-4.193V19.265c0-1.615-.983-2.359-2.195-1.658L321.184,48.866a5.254,5.254,0,0,0-2.193,4.193V63.383C318.991,65,319.973,65.741,321.184,65.041Z" transform="translate(-318.991 -17.343)" fill="#5793ce"/>
        <path id="Trazado_193559" data-name="Trazado 193559" d="M321.822,60.117l51.034-29.465a2.669,2.669,0,0,0,1.113-2.127V20.763c0-.821-.5-1.2-1.113-.842L321.822,49.386a2.668,2.668,0,0,0-1.113,2.127v7.762C320.709,60.1,321.207,60.471,321.822,60.117Z" transform="translate(-318.074 -16.038)" fill="#d4ecff" opacity="0.4"/>
        <path id="Trazado_193560" data-name="Trazado 193560" d="M348.153,30.9l7.616-4.4a2.592,2.592,0,0,0,1.081-2.066h0c0-.8-.485-1.163-1.081-.817l-7.616,4.4a2.587,2.587,0,0,0-1.081,2.066h0C347.072,30.874,347.555,31.241,348.153,30.9Z" transform="translate(-304.005 -14.065)" fill="#d4ecff"/>
        <path id="Trazado_193561" data-name="Trazado 193561" d="M343.545,30.631c0,.8.558,1.12,1.248.721a2.758,2.758,0,0,0,1.248-2.161c0-.8-.56-1.12-1.248-.721A2.754,2.754,0,0,0,343.545,30.631Z" transform="translate(-305.887 -11.496)" fill="#173d7a"/>
        <path id="Trazado_193562" data-name="Trazado 193562" d="M340.673,32.29c0,.8.56,1.12,1.248.721a2.757,2.757,0,0,0,1.248-2.162c0-.8-.558-1.118-1.248-.721A2.763,2.763,0,0,0,340.673,32.29Z" transform="translate(-307.42 -10.611)" fill="#173d7a"/>
        <path id="Trazado_193563" data-name="Trazado 193563" d="M337.8,33.948c0,.8.558,1.118,1.248.721a2.763,2.763,0,0,0,1.248-2.162c0-.8-.56-1.118-1.248-.721A2.759,2.759,0,0,0,337.8,33.948Z" transform="translate(-308.952 -9.726)" fill="#d4ecff"/>
        <path id="Trazado_193564" data-name="Trazado 193564" d="M334.93,35.606c0,.8.56,1.118,1.248.721a2.759,2.759,0,0,0,1.248-2.162c0-.8-.558-1.118-1.248-.721A2.763,2.763,0,0,0,334.93,35.606Z" transform="translate(-310.485 -8.842)" fill="#173d7a"/>
        <path id="Trazado_193565" data-name="Trazado 193565" d="M323.075,45.4l2.566-1.482a1.663,1.663,0,0,0,.695-1.327V39.878c0-.512-.311-.747-.695-.525l-2.566,1.48a1.664,1.664,0,0,0-.693,1.327v2.715C322.382,45.385,322.692,45.62,323.075,45.4Z" transform="translate(-317.181 -5.642)" fill="#d4ecff"/>
      </g>
      <g id="Grupo_151344" data-name="Grupo 151344" transform="translate(49.005 105.567)">
        <path id="Trazado_193566" data-name="Trazado 193566" d="M321.184,76.913l54.144-31.261a5.255,5.255,0,0,0,2.195-4.191V31.136c0-1.616-.983-2.359-2.195-1.659L321.184,60.737a5.254,5.254,0,0,0-2.193,4.193V75.253C318.991,76.87,319.973,77.612,321.184,76.913Z" transform="translate(-318.991 -29.213)" fill="#5793ce"/>
        <path id="Trazado_193567" data-name="Trazado 193567" d="M321.822,71.988l51.034-29.466a2.664,2.664,0,0,0,1.113-2.127v-7.76c0-.821-.5-1.2-1.113-.842L321.822,61.257a2.666,2.666,0,0,0-1.113,2.127v7.762C320.709,71.965,321.207,72.343,321.822,71.988Z" transform="translate(-318.074 -27.908)" fill="#d4ecff" opacity="0.4"/>
        <path id="Trazado_193568" data-name="Trazado 193568" d="M348.153,42.766l7.616-4.4a2.592,2.592,0,0,0,1.081-2.066h0c0-.8-.485-1.163-1.081-.817l-7.616,4.4a2.587,2.587,0,0,0-1.081,2.066h0C347.072,42.745,347.555,43.11,348.153,42.766Z" transform="translate(-304.005 -25.935)" fill="#d4ecff"/>
        <path id="Trazado_193569" data-name="Trazado 193569" d="M343.545,42.5c0,.8.558,1.12,1.248.721a2.761,2.761,0,0,0,1.248-2.162c0-.8-.56-1.118-1.248-.721A2.759,2.759,0,0,0,343.545,42.5Z" transform="translate(-305.887 -23.366)" fill="#173d7a"/>
        <path id="Trazado_193570" data-name="Trazado 193570" d="M340.673,44.161c0,.8.56,1.118,1.248.721a2.759,2.759,0,0,0,1.248-2.162c0-.8-.558-1.118-1.248-.721A2.763,2.763,0,0,0,340.673,44.161Z" transform="translate(-307.42 -22.481)" fill="#fff"/>
        <path id="Trazado_193571" data-name="Trazado 193571" d="M337.8,45.819c0,.8.558,1.118,1.248.721a2.763,2.763,0,0,0,1.248-2.162c0-.8-.56-1.118-1.248-.721A2.759,2.759,0,0,0,337.8,45.819Z" transform="translate(-308.952 -21.597)" fill="#d4ecff"/>
        <path id="Trazado_193572" data-name="Trazado 193572" d="M334.93,47.477c0,.8.56,1.118,1.248.721a2.759,2.759,0,0,0,1.248-2.162c0-.8-.558-1.12-1.248-.721A2.761,2.761,0,0,0,334.93,47.477Z" transform="translate(-310.485 -20.712)" fill="#fff"/>
        <path id="Trazado_193573" data-name="Trazado 193573" d="M323.075,57.269l2.566-1.48a1.666,1.666,0,0,0,.695-1.327V51.747c0-.511-.311-.745-.695-.525L323.075,52.7a1.66,1.66,0,0,0-.693,1.327v2.713C322.382,57.255,322.692,57.491,323.075,57.269Z" transform="translate(-317.181 -17.512)" fill="#d4ecff"/>
      </g>
      <g id="Grupo_151345" data-name="Grupo 151345" transform="translate(49.005 123.773)">
        <path id="Trazado_193574" data-name="Trazado 193574" d="M321.184,88.784l54.144-31.261a5.255,5.255,0,0,0,2.195-4.191V43.007c0-1.616-.983-2.359-2.195-1.659L321.184,72.608a5.254,5.254,0,0,0-2.193,4.191V87.124C318.991,88.741,319.973,89.483,321.184,88.784Z" transform="translate(-318.991 -41.084)" fill="#5793ce"/>
        <path id="Trazado_193575" data-name="Trazado 193575" d="M321.822,83.858l51.034-29.465a2.664,2.664,0,0,0,1.113-2.127V44.5c0-.819-.5-1.2-1.113-.84L321.822,73.128a2.664,2.664,0,0,0-1.113,2.127v7.762C320.709,83.836,321.207,84.214,321.822,83.858Z" transform="translate(-318.074 -39.779)" fill="#d4ecff" opacity="0.4"/>
        <path id="Trazado_193576" data-name="Trazado 193576" d="M348.153,54.637l7.616-4.4a2.586,2.586,0,0,0,1.081-2.064h0c0-.8-.485-1.163-1.081-.817l-7.616,4.4a2.587,2.587,0,0,0-1.081,2.066h0C347.072,54.616,347.555,54.981,348.153,54.637Z" transform="translate(-304.005 -37.806)" fill="#d4ecff"/>
        <path id="Trazado_193577" data-name="Trazado 193577" d="M343.545,54.374c0,.8.558,1.12,1.248.721a2.763,2.763,0,0,0,1.248-2.162c0-.8-.56-1.118-1.248-.721A2.759,2.759,0,0,0,343.545,54.374Z" transform="translate(-305.887 -35.237)" fill="#173d7a"/>
        <path id="Trazado_193578" data-name="Trazado 193578" d="M340.673,56.032c0,.8.56,1.118,1.248.721a2.759,2.759,0,0,0,1.248-2.162c0-.8-.558-1.118-1.248-.721A2.763,2.763,0,0,0,340.673,56.032Z" transform="translate(-307.42 -34.352)" fill="#173d7a"/>
        <path id="Trazado_193579" data-name="Trazado 193579" d="M337.8,57.69c0,.8.558,1.118,1.248.721a2.763,2.763,0,0,0,1.248-2.162c0-.8-.56-1.12-1.248-.721A2.757,2.757,0,0,0,337.8,57.69Z" transform="translate(-308.952 -33.468)" fill="#d4ecff"/>
        <path id="Trazado_193580" data-name="Trazado 193580" d="M334.93,59.348c0,.8.56,1.118,1.248.719a2.754,2.754,0,0,0,1.248-2.161c0-.8-.558-1.12-1.248-.721A2.759,2.759,0,0,0,334.93,59.348Z" transform="translate(-310.485 -32.583)" fill="#173d7a"/>
        <path id="Trazado_193581" data-name="Trazado 193581" d="M323.075,69.14l2.566-1.482a1.66,1.66,0,0,0,.695-1.325V63.618c0-.511-.311-.745-.695-.525l-2.566,1.482a1.659,1.659,0,0,0-.693,1.325v2.715C322.382,69.126,322.692,69.36,323.075,69.14Z" transform="translate(-317.181 -29.383)" fill="#173d7a"/>
      </g>
      <g id="Grupo_151346" data-name="Grupo 151346" transform="translate(49.005 141.979)">
        <path id="Trazado_193582" data-name="Trazado 193582" d="M321.184,100.655l54.144-31.261a5.255,5.255,0,0,0,2.195-4.193V54.878c0-1.616-.983-2.359-2.195-1.659L321.184,84.479a5.254,5.254,0,0,0-2.193,4.191V99C318.991,100.612,319.973,101.354,321.184,100.655Z" transform="translate(-318.991 -52.955)" fill="#5793ce"/>
        <path id="Trazado_193583" data-name="Trazado 193583" d="M321.822,95.729l51.034-29.465a2.664,2.664,0,0,0,1.113-2.127V56.375c0-.819-.5-1.2-1.113-.84L321.822,85a2.664,2.664,0,0,0-1.113,2.127v7.762C320.709,95.707,321.207,96.085,321.822,95.729Z" transform="translate(-318.074 -51.65)" fill="#d4ecff" opacity="0.4"/>
        <path id="Trazado_193584" data-name="Trazado 193584" d="M348.153,66.507l7.616-4.4a2.592,2.592,0,0,0,1.081-2.066h0c0-.8-.485-1.161-1.081-.816l-7.616,4.4a2.587,2.587,0,0,0-1.081,2.066h0C347.072,66.487,347.555,66.852,348.153,66.507Z" transform="translate(-304.005 -49.677)" fill="#d4ecff"/>
        <path id="Trazado_193585" data-name="Trazado 193585" d="M342.637,67.608c0,1.5,1.055,2.113,2.359,1.362a5.21,5.21,0,0,0,2.357-4.084c0-1.5-1.055-2.113-2.357-1.36A5.207,5.207,0,0,0,342.637,67.608Z" transform="translate(-306.372 -47.487)" fill="#fff"/>
        <path id="Trazado_193586" data-name="Trazado 193586" d="M336.69,70.368c0,.8.558,1.118,1.248.719a2.758,2.758,0,0,0,1.248-2.161c0-.8-.56-1.12-1.248-.721A2.757,2.757,0,0,0,336.69,70.368Z" transform="translate(-309.546 -44.908)" fill="#173d7a"/>
        <path id="Trazado_193587" data-name="Trazado 193587" d="M333.818,72.024c0,.8.56,1.12,1.248.721a2.754,2.754,0,0,0,1.248-2.161c0-.8-.558-1.12-1.248-.721A2.758,2.758,0,0,0,333.818,72.024Z" transform="translate(-311.078 -44.023)" fill="#d4ecff"/>
        <path id="Trazado_193588" data-name="Trazado 193588" d="M330.947,73.683c0,.8.558,1.12,1.248.721a2.761,2.761,0,0,0,1.248-2.162c0-.8-.56-1.118-1.248-.721A2.759,2.759,0,0,0,330.947,73.683Z" transform="translate(-312.611 -43.139)" fill="#173d7a"/>
        <path id="Trazado_193589" data-name="Trazado 193589" d="M323.075,81.011l2.566-1.482a1.66,1.66,0,0,0,.695-1.325V75.489c0-.511-.311-.745-.695-.525l-2.566,1.482a1.659,1.659,0,0,0-.693,1.325v2.715C322.382,81,322.692,81.231,323.075,81.011Z" transform="translate(-317.181 -41.254)" fill="#d4ecff"/>
      </g>
    </g>
    <g id="Grupo_151349" data-name="Grupo 151349" transform="translate(189.914 -93.203)">
      <g id="Grupo_151339-2" data-name="Grupo 151339">
        <g id="Grupo_151330-2" data-name="Grupo 151330">
          <path id="Trazado_193507-2" data-name="Trazado 193507" d="M287.046,103.019h0V-10.537L332.19-22.353l8.315-4.8a8.28,8.28,0,0,1,7.445.309l7.758,4.479,24.078-.013L372.658,87.244a2.158,2.158,0,0,1-1.279,1.994l-45.05,33.993a8.272,8.272,0,0,1-7.445-.309L288.86,105.588C287.588,104.854,286.975,103.9,287.046,103.019Z" transform="translate(-287.037 43.029)" fill="#396caa"/>
          <path id="Trazado_193508-2" data-name="Trazado 193508" d="M336.008-27.893A8.6,8.6,0,0,1,340-26.846l7.758,4.479,24.078-.013V91.482a2.156,2.156,0,0,1-1.278,1.994l-52.18,29.754a6.747,6.747,0,0,1-3.456.738L314.383,9.4Z" transform="translate(-279.085 43.03)" fill="#d4ecff"/>
          <path id="Trazado_193509-2" data-name="Trazado 193509" d="M318.447,115.368a8.483,8.483,0,0,1-5.952-.068V-.055h5.952Z" transform="translate(-279.634 51.126)" fill="#5793ce"/>
          <path id="Trazado_193510-2" data-name="Trazado 193510" d="M326.33,12.819l52.18-29.754c1.908-1.1,1.669-3.027-.534-4.3L347.952-38.568a8.28,8.28,0,0,0-7.445-.309L288.326-9.123c-1.909,1.1-1.669,3.027.534,4.3L318.884,12.51A8.272,8.272,0,0,0,326.33,12.819Z" transform="translate(-287.038 39.62)" fill="#d4ecff"/>
          <path id="Trazado_193511-2" data-name="Trazado 193511" d="M288.86-11.38,318.883,5.953a8.272,8.272,0,0,0,7.445.309l52.18-29.754a2.869,2.869,0,0,0,.953-.844c.656,1.055.358,2.2-.953,2.956L326.329,8.374a8.272,8.272,0,0,1-7.445-.309L288.86-9.269c-1.713-.987-2.233-2.369-1.487-3.453A4.165,4.165,0,0,0,288.86-11.38Z" transform="translate(-287.037 44.065)" fill="#fafdff"/>
          <g id="Grupo_151329-2" data-name="Grupo 151329" transform="translate(19.429 9.626)">
            <path id="Trazado_193512-2" data-name="Trazado 193512" d="M320.475-1.409l34.741-20.138c.893-.515.781-1.416-.25-2.011L340.917-31.67a3.875,3.875,0,0,0-3.484-.145L302.692-11.676c-.892.516-.781,1.416.25,2.011l14.049,8.112A3.867,3.867,0,0,0,320.475-1.409Z" transform="translate(-302.089 32.162)" fill="#173d7a"/>
            <g id="Grupo_151328-2" data-name="Grupo 151328" transform="translate(14.422 8.889)">
              <path id="Trazado_193513-2" data-name="Trazado 193513" d="M331.436-22.645l2.014-1.162c.123-.072.107-.2-.035-.279l-1.944-1.122a.535.535,0,0,0-.482-.021l-2.014,1.162c-.124.072-.108.2.035.279l1.944,1.123A.539.539,0,0,0,331.436-22.645Z" transform="translate(-308.716 25.276)" fill="#d4ecff"/>
              <path id="Trazado_193514-2" data-name="Trazado 193514" d="M326.226-19.649l2.012-1.163c.124-.071.108-.195-.034-.278l-1.944-1.123a.542.542,0,0,0-.483-.019l-2.012,1.162c-.124.072-.108.2.035.279l1.943,1.122A.538.538,0,0,0,326.226-19.649Z" transform="translate(-310.231 26.147)" fill="#d4ecff"/>
              <path id="Trazado_193515-2" data-name="Trazado 193515" d="M321.016-16.653l2.012-1.163c.124-.071.108-.2-.035-.278l-1.944-1.123a.535.535,0,0,0-.481-.019l-2.012,1.162c-.124.071-.108.2.034.279l1.944,1.122A.538.538,0,0,0,321.016-16.653Z" transform="translate(-311.747 27.019)" fill="#ff2c9c"/>
              <path id="Trazado_193516-2" data-name="Trazado 193516" d="M315.8-13.657l2.014-1.163c.124-.071.108-.2-.035-.278l-1.944-1.123a.531.531,0,0,0-.482-.019l-2.014,1.162c-.123.071-.107.2.035.279l1.944,1.122A.535.535,0,0,0,315.8-13.657Z" transform="translate(-313.262 27.89)" fill="#d4ecff"/>
            </g>
            <path id="Trazado_193517-2" data-name="Trazado 193517" d="M355.216-21.547l-.041.025a2.381,2.381,0,0,0-.209-.145l-14.049-8.112a3.87,3.87,0,0,0-3.484-.143l-34.7,20.114c-.822-.589-.866-1.392-.041-1.868l34.741-20.138a3.875,3.875,0,0,1,3.484.145l14.049,8.112C356-22.963,356.109-22.062,355.216-21.547Z" transform="translate(-302.088 32.162)" fill="#5793ce"/>
          </g>
        </g>
        <g id="Grupo_151332-2" data-name="Grupo 151332" transform="translate(4.219 50.955)">
          <path id="Trazado_193518-2" data-name="Trazado 193518" d="M312.072,23.836,292.318,12.527a4.82,4.82,0,0,1-2.012-3.845V1.618c0-1.482.9-2.163,2.012-1.522l19.754,11.309a4.82,4.82,0,0,1,2.012,3.845v7.065C314.084,23.8,313.183,24.478,312.072,23.836Z" transform="translate(-290.306 0.145)" fill="#173d7a"/>
          <path id="Trazado_193519-2" data-name="Trazado 193519" d="M291.341-.123a1.972,1.972,0,0,0-.5,1.47V8.411a4.82,4.82,0,0,0,2.012,3.845L312.6,23.565a1.448,1.448,0,0,0,.977.213,1.2,1.2,0,0,1-1.506.052L292.318,12.521a4.82,4.82,0,0,1-2.012-3.845V1.612C290.306.605,290.727-.018,291.341-.123Z" transform="translate(-290.306 0.151)" fill="#fff"/>
          <g id="Grupo_151331-2" data-name="Grupo 151331" transform="translate(7.515 8.606)">
            <path id="Trazado_193520-2" data-name="Trazado 193520" d="M303.072,13.436l-1.812-1.047a1.051,1.051,0,0,1-.438-.838V9.617c0-.324.2-.472.438-.332l1.812,1.046a1.051,1.051,0,0,1,.439.838V13.1C303.511,13.427,303.315,13.576,303.072,13.436Z" transform="translate(-294.763 -5.734)" fill="#396caa"/>
            <path id="Trazado_193521-2" data-name="Trazado 193521" d="M298.379,10.726l-1.812-1.047a1.049,1.049,0,0,1-.439-.838V6.907c0-.323.2-.471.439-.332l1.812,1.046a1.054,1.054,0,0,1,.438.839v1.935C298.817,10.717,298.621,10.866,298.379,10.726Z" transform="translate(-296.128 -6.522)" fill="#fff"/>
          </g>
        </g>
        <g id="Grupo_151334-2" data-name="Grupo 151334" transform="translate(4.219 101.999)">
          <path id="Trazado_193522-2" data-name="Trazado 193522" d="M312.072,63.379,292.318,52.07a4.82,4.82,0,0,1-2.012-3.845V41.161c0-1.482.9-2.163,2.012-1.522l19.754,11.309a4.822,4.822,0,0,1,2.012,3.845v7.065C314.084,63.34,313.183,64.022,312.072,63.379Z" transform="translate(-290.306 -39.398)" fill="#173d7a"/>
          <path id="Trazado_193523-2" data-name="Trazado 193523" d="M291.341,39.42a1.972,1.972,0,0,0-.5,1.47v7.063a4.82,4.82,0,0,0,2.012,3.845L312.6,63.108a1.448,1.448,0,0,0,.977.213,1.2,1.2,0,0,1-1.506.052L292.318,52.064a4.82,4.82,0,0,1-2.012-3.845V41.155C290.306,40.148,290.727,39.525,291.341,39.42Z" transform="translate(-290.306 -39.392)" fill="#fff"/>
          <g id="Grupo_151333-2" data-name="Grupo 151333" transform="translate(7.515 8.606)">
            <path id="Trazado_193524-2" data-name="Trazado 193524" d="M303.072,52.979l-1.812-1.047a1.051,1.051,0,0,1-.438-.838V49.16c0-.324.2-.472.438-.332l1.812,1.046a1.051,1.051,0,0,1,.439.839v1.935C303.511,52.97,303.315,53.119,303.072,52.979Z" transform="translate(-294.763 -45.277)" fill="#396caa"/>
            <path id="Trazado_193525-2" data-name="Trazado 193525" d="M298.379,50.269l-1.812-1.046a1.053,1.053,0,0,1-.439-.839V46.45c0-.323.2-.471.439-.332l1.812,1.046a1.054,1.054,0,0,1,.438.839v1.935C298.817,50.26,298.621,50.409,298.379,50.269Z" transform="translate(-296.128 -46.065)" fill="#fff"/>
          </g>
        </g>
        <g id="Grupo_151336-2" data-name="Grupo 151336" transform="translate(4.219 127.52)">
          <path id="Trazado_193526-2" data-name="Trazado 193526" d="M312.072,83.151,292.318,71.842A4.822,4.822,0,0,1,290.306,68V60.932c0-1.482.9-2.163,2.012-1.521L312.072,70.72a4.82,4.82,0,0,1,2.012,3.845v7.063C314.084,83.111,313.183,83.793,312.072,83.151Z" transform="translate(-290.306 -59.169)" fill="#173d7a"/>
          <path id="Trazado_193527-2" data-name="Trazado 193527" d="M291.341,59.192a1.969,1.969,0,0,0-.5,1.469v7.063a4.82,4.82,0,0,0,2.012,3.845L312.6,82.88a1.456,1.456,0,0,0,.977.213,1.2,1.2,0,0,1-1.506.052L292.318,71.836a4.82,4.82,0,0,1-2.012-3.845V60.926C290.306,59.92,290.727,59.3,291.341,59.192Z" transform="translate(-290.306 -59.163)" fill="#fff"/>
          <g id="Grupo_151335-2" data-name="Grupo 151335" transform="translate(7.515 8.606)">
            <path id="Trazado_193528-2" data-name="Trazado 193528" d="M303.072,72.75,301.26,71.7a1.051,1.051,0,0,1-.438-.838V68.931c0-.323.2-.471.438-.332l1.812,1.047a1.049,1.049,0,0,1,.439.838v1.935C303.511,72.742,303.315,72.891,303.072,72.75Z" transform="translate(-294.763 -65.048)" fill="#396caa"/>
            <path id="Trazado_193529-2" data-name="Trazado 193529" d="M298.379,70.041l-1.812-1.047a1.049,1.049,0,0,1-.439-.838V66.221c0-.323.2-.471.439-.332l1.812,1.047a1.051,1.051,0,0,1,.438.838V69.71C298.817,70.032,298.621,70.181,298.379,70.041Z" transform="translate(-296.128 -65.836)" fill="#fff"/>
          </g>
        </g>
        <g id="Grupo_151338-2" data-name="Grupo 151338" transform="translate(4.219 76.477)">
          <path id="Trazado_193530-2" data-name="Trazado 193530" d="M312.072,43.608,292.318,32.3a4.822,4.822,0,0,1-2.012-3.847V21.389c0-1.482.9-2.163,2.012-1.521l19.754,11.309a4.82,4.82,0,0,1,2.012,3.845v7.063C314.084,43.568,313.183,44.25,312.072,43.608Z" transform="translate(-290.306 -19.626)" fill="#173d7a"/>
          <path id="Trazado_193531-2" data-name="Trazado 193531" d="M291.341,19.649a1.967,1.967,0,0,0-.5,1.469v7.063a4.82,4.82,0,0,0,2.012,3.845L312.6,43.337a1.456,1.456,0,0,0,.977.213,1.2,1.2,0,0,1-1.506.052L292.318,32.293a4.822,4.822,0,0,1-2.012-3.847V21.383C290.306,20.377,290.727,19.754,291.341,19.649Z" transform="translate(-290.306 -19.62)" fill="#fff"/>
          <g id="Grupo_151337-2" data-name="Grupo 151337" transform="translate(7.515 8.606)">
            <path id="Trazado_193532-2" data-name="Trazado 193532" d="M303.072,33.207l-1.812-1.046a1.051,1.051,0,0,1-.438-.838V29.388c0-.323.2-.471.438-.332l1.812,1.047a1.049,1.049,0,0,1,.439.838v1.935C303.511,33.2,303.315,33.348,303.072,33.207Z" transform="translate(-294.763 -25.505)" fill="#396caa"/>
            <path id="Trazado_193533-2" data-name="Trazado 193533" d="M298.379,30.5l-1.812-1.046a1.049,1.049,0,0,1-.439-.838V26.678c0-.323.2-.471.439-.332l1.812,1.047a1.051,1.051,0,0,1,.438.838v1.936C298.817,30.489,298.621,30.638,298.379,30.5Z" transform="translate(-296.128 -26.293)" fill="#fff"/>
          </g>
        </g>
      </g>
      <g id="Grupo_151340-2" data-name="Grupo 151340" transform="translate(41.246 27.559)">
        <path id="Trazado_193534-2" data-name="Trazado 193534" d="M320.837,21.877,366.408-4.434a4.423,4.423,0,0,0,1.847-3.529v-8.689c0-1.361-.827-1.985-1.847-1.4L320.837,8.263a4.422,4.422,0,0,0-1.846,3.528v8.69C318.991,21.841,319.817,22.466,320.837,21.877Z" transform="translate(-318.991 18.27)" fill="#5793ce"/>
        <path id="Trazado_193535-2" data-name="Trazado 193535" d="M321.646,18.119,364.6-6.681a2.242,2.242,0,0,0,.937-1.79V-15c0-.689-.42-1.007-.937-.709l-42.954,24.8a2.242,2.242,0,0,0-.937,1.79V17.41C320.709,18.1,321.128,18.418,321.646,18.119Z" transform="translate(-318.491 18.981)" fill="#d4ecff" opacity="0.4"/>
        <path id="Trazado_193536-2" data-name="Trazado 193536" d="M347.982-5.891l6.41-3.7a2.181,2.181,0,0,0,.91-1.739h0c0-.67-.408-.977-.91-.688l-6.41,3.7a2.173,2.173,0,0,0-.91,1.737h0C347.072-5.908,347.479-5.6,347.982-5.891Z" transform="translate(-310.824 20.056)" fill="#d4ecff"/>
        <path id="Trazado_193537-2" data-name="Trazado 193537" d="M343.545-5.35c0,.67.47.941,1.051.607a2.326,2.326,0,0,0,1.051-1.82c0-.67-.471-.941-1.051-.607A2.322,2.322,0,0,0,343.545-5.35Z" transform="translate(-311.85 21.456)" fill="#173d7a"/>
        <path id="Trazado_193538-2" data-name="Trazado 193538" d="M340.673-3.692c0,.67.471.941,1.051.607a2.322,2.322,0,0,0,1.051-1.82c0-.67-.47-.942-1.051-.607A2.324,2.324,0,0,0,340.673-3.692Z" transform="translate(-312.685 21.938)" fill="#173d7a"/>
        <path id="Trazado_193539-2" data-name="Trazado 193539" d="M337.8-2.035c0,.671.47.942,1.051.607A2.321,2.321,0,0,0,339.9-3.247c0-.67-.471-.942-1.051-.607A2.318,2.318,0,0,0,337.8-2.035Z" transform="translate(-313.52 22.42)" fill="#d4ecff"/>
        <path id="Trazado_193540-2" data-name="Trazado 193540" d="M334.93-.377c0,.67.471.942,1.051.607a2.32,2.32,0,0,0,1.051-1.82c0-.67-.47-.941-1.051-.607A2.326,2.326,0,0,0,334.93-.377Z" transform="translate(-314.355 22.902)" fill="#173d7a"/>
        <path id="Trazado_193541-2" data-name="Trazado 193541" d="M322.965,8.815l2.16-1.247a1.4,1.4,0,0,0,.585-1.115V4.168c0-.43-.262-.627-.585-.441l-2.16,1.247a1.4,1.4,0,0,0-.583,1.115V8.374C322.382,8.8,322.643,9,322.965,8.815Z" transform="translate(-318.005 24.646)" fill="#173d7a"/>
      </g>
      <g id="Grupo_151341-2" data-name="Grupo 151341" transform="translate(41.246 42.883)">
        <path id="Trazado_193542-2" data-name="Trazado 193542" d="M320.837,33.747l45.571-26.31a4.423,4.423,0,0,0,1.847-3.529v-8.69c0-1.359-.827-1.984-1.847-1.4l-45.571,26.31a4.426,4.426,0,0,0-1.846,3.529v8.69C318.991,33.711,319.817,34.337,320.837,33.747Z" transform="translate(-318.991 6.399)" fill="#5793ce"/>
        <path id="Trazado_193543-2" data-name="Trazado 193543" d="M321.646,29.99,364.6,5.19a2.246,2.246,0,0,0,.937-1.79V-3.133c0-.691-.42-1.007-.937-.709l-42.954,24.8a2.246,2.246,0,0,0-.937,1.79v6.533C320.709,29.972,321.128,30.289,321.646,29.99Z" transform="translate(-318.491 7.11)" fill="#d4ecff" opacity="0.4"/>
        <path id="Trazado_193544-2" data-name="Trazado 193544" d="M347.982,5.98l6.41-3.7A2.181,2.181,0,0,0,355.3.541h0c0-.67-.408-.977-.91-.688l-6.41,3.7a2.173,2.173,0,0,0-.91,1.737h0C347.072,5.962,347.479,6.27,347.982,5.98Z" transform="translate(-310.824 8.185)" fill="#d4ecff"/>
        <path id="Trazado_193545-2" data-name="Trazado 193545" d="M343.545,6.521c0,.67.47.941,1.051.607a2.326,2.326,0,0,0,1.051-1.82c0-.67-.471-.942-1.051-.607A2.32,2.32,0,0,0,343.545,6.521Z" transform="translate(-311.85 9.585)" fill="#fff"/>
        <path id="Trazado_193546-2" data-name="Trazado 193546" d="M340.673,8.178c0,.671.471.942,1.051.607a2.318,2.318,0,0,0,1.051-1.819c0-.67-.47-.942-1.051-.607A2.321,2.321,0,0,0,340.673,8.178Z" transform="translate(-312.685 10.067)" fill="#173d7a"/>
        <path id="Trazado_193547-2" data-name="Trazado 193547" d="M337.8,9.836c0,.67.47.942,1.051.607a2.324,2.324,0,0,0,1.051-1.82c0-.67-.471-.941-1.051-.605A2.318,2.318,0,0,0,337.8,9.836Z" transform="translate(-313.52 10.549)" fill="#d4ecff"/>
        <path id="Trazado_193548-2" data-name="Trazado 193548" d="M334.93,11.494c0,.67.471.942,1.051.607a2.322,2.322,0,0,0,1.051-1.82c0-.67-.47-.941-1.051-.607A2.326,2.326,0,0,0,334.93,11.494Z" transform="translate(-314.355 11.031)" fill="#173d7a"/>
        <path id="Trazado_193549-2" data-name="Trazado 193549" d="M322.965,20.686l2.16-1.247a1.4,1.4,0,0,0,.585-1.115V16.039c0-.43-.262-.627-.585-.441l-2.16,1.247a1.4,1.4,0,0,0-.583,1.115v2.285C322.382,20.675,322.643,20.872,322.965,20.686Z" transform="translate(-318.005 12.775)" fill="#173d7a"/>
      </g>
      <g id="Grupo_151342-2" data-name="Grupo 151342" transform="translate(41.246 58.206)">
        <path id="Trazado_193550-2" data-name="Trazado 193550" d="M320.837,45.618l45.571-26.31a4.423,4.423,0,0,0,1.847-3.529V7.089c0-1.359-.827-1.984-1.847-1.4L320.837,32a4.422,4.422,0,0,0-1.846,3.529v8.69C318.991,45.582,319.817,46.207,320.837,45.618Z" transform="translate(-318.991 -5.472)" fill="#5793ce"/>
        <path id="Trazado_193551-2" data-name="Trazado 193551" d="M321.646,41.861l42.954-24.8a2.246,2.246,0,0,0,.937-1.79V8.738c0-.691-.42-1.007-.937-.709l-42.954,24.8a2.246,2.246,0,0,0-.937,1.79v6.533C320.709,41.843,321.128,42.159,321.646,41.861Z" transform="translate(-318.491 -4.761)" fill="#d4ecff" opacity="0.4"/>
        <path id="Trazado_193552-2" data-name="Trazado 193552" d="M347.982,17.851l6.41-3.7a2.181,2.181,0,0,0,.91-1.739h0c0-.67-.408-.978-.91-.688l-6.41,3.7a2.178,2.178,0,0,0-.91,1.739h0C347.072,17.833,347.479,18.142,347.982,17.851Z" transform="translate(-310.824 -3.686)" fill="#d4ecff"/>
        <path id="Trazado_193553-2" data-name="Trazado 193553" d="M343.545,18.392c0,.67.47.941,1.051.605a2.322,2.322,0,0,0,1.051-1.819c0-.67-.471-.942-1.051-.607A2.318,2.318,0,0,0,343.545,18.392Z" transform="translate(-311.85 -2.286)" fill="#fff"/>
        <path id="Trazado_193554-2" data-name="Trazado 193554" d="M340.673,20.049c0,.67.471.942,1.051.607a2.318,2.318,0,0,0,1.051-1.82c0-.67-.47-.941-1.051-.605A2.321,2.321,0,0,0,340.673,20.049Z" transform="translate(-312.685 -1.804)" fill="#173d7a"/>
        <path id="Trazado_193555-2" data-name="Trazado 193555" d="M337.8,21.707c0,.67.47.942,1.051.607a2.324,2.324,0,0,0,1.051-1.82c0-.67-.471-.941-1.051-.607A2.322,2.322,0,0,0,337.8,21.707Z" transform="translate(-313.52 -1.322)" fill="#d4ecff"/>
        <path id="Trazado_193556-2" data-name="Trazado 193556" d="M334.93,23.365c0,.67.471.941,1.051.607a2.322,2.322,0,0,0,1.051-1.82c0-.67-.47-.941-1.051-.607A2.326,2.326,0,0,0,334.93,23.365Z" transform="translate(-314.355 -0.84)" fill="#173d7a"/>
        <path id="Trazado_193557-2" data-name="Trazado 193557" d="M322.965,32.557l2.16-1.247a1.4,1.4,0,0,0,.585-1.115V27.91c0-.43-.262-.629-.585-.441l-2.16,1.247a1.4,1.4,0,0,0-.583,1.115v2.285C322.382,32.546,322.643,32.743,322.965,32.557Z" transform="translate(-318.005 0.904)" fill="#173d7a"/>
      </g>
      <g id="Grupo_151343-2" data-name="Grupo 151343" transform="translate(41.246 73.529)">
        <path id="Trazado_193558-2" data-name="Trazado 193558" d="M320.837,57.489l45.571-26.31a4.425,4.425,0,0,0,1.847-3.529V18.96c0-1.359-.827-1.985-1.847-1.4l-45.571,26.31a4.422,4.422,0,0,0-1.846,3.529v8.69C318.991,57.453,319.817,58.078,320.837,57.489Z" transform="translate(-318.991 -17.343)" fill="#5793ce"/>
        <path id="Trazado_193559-2" data-name="Trazado 193559" d="M321.646,53.732l42.954-24.8a2.246,2.246,0,0,0,.937-1.79V20.609c0-.691-.42-1.007-.937-.709L321.646,44.7a2.246,2.246,0,0,0-.937,1.79v6.533C320.709,53.714,321.128,54.03,321.646,53.732Z" transform="translate(-318.491 -16.632)" fill="#d4ecff" opacity="0.4"/>
        <path id="Trazado_193560-2" data-name="Trazado 193560" d="M347.982,29.722l6.41-3.7a2.181,2.181,0,0,0,.91-1.739h0c0-.67-.408-.978-.91-.688l-6.41,3.7a2.178,2.178,0,0,0-.91,1.739h0C347.072,29.7,347.479,30.013,347.982,29.722Z" transform="translate(-310.824 -15.557)" fill="#d4ecff"/>
        <path id="Trazado_193561-2" data-name="Trazado 193561" d="M343.545,30.262c0,.67.47.942,1.051.607a2.322,2.322,0,0,0,1.051-1.819c0-.671-.471-.942-1.051-.607A2.318,2.318,0,0,0,343.545,30.262Z" transform="translate(-311.85 -14.156)" fill="#173d7a"/>
        <path id="Trazado_193562-2" data-name="Trazado 193562" d="M340.673,31.92c0,.67.471.942,1.051.607a2.32,2.32,0,0,0,1.051-1.82c0-.67-.47-.941-1.051-.607A2.326,2.326,0,0,0,340.673,31.92Z" transform="translate(-312.685 -13.674)" fill="#173d7a"/>
        <path id="Trazado_193563-2" data-name="Trazado 193563" d="M337.8,33.578c0,.67.47.941,1.051.607a2.326,2.326,0,0,0,1.051-1.82c0-.67-.471-.941-1.051-.607A2.322,2.322,0,0,0,337.8,33.578Z" transform="translate(-313.52 -13.192)" fill="#d4ecff"/>
        <path id="Trazado_193564-2" data-name="Trazado 193564" d="M334.93,35.236c0,.67.471.941,1.051.607a2.322,2.322,0,0,0,1.051-1.82c0-.67-.47-.941-1.051-.607A2.326,2.326,0,0,0,334.93,35.236Z" transform="translate(-314.355 -12.71)" fill="#173d7a"/>
        <path id="Trazado_193565-2" data-name="Trazado 193565" d="M322.965,44.428l2.16-1.247a1.4,1.4,0,0,0,.585-1.117V39.781c0-.431-.262-.629-.585-.441l-2.16,1.246a1.4,1.4,0,0,0-.583,1.117v2.285C322.382,44.417,322.643,44.614,322.965,44.428Z" transform="translate(-318.005 -10.966)" fill="#d4ecff"/>
      </g>
      <g id="Grupo_151344-2" data-name="Grupo 151344" transform="translate(41.246 88.852)">
        <path id="Trazado_193566-2" data-name="Trazado 193566" d="M320.837,69.36l45.571-26.311a4.423,4.423,0,0,0,1.847-3.528v-8.69c0-1.361-.827-1.985-1.847-1.4L320.837,55.746a4.422,4.422,0,0,0-1.846,3.529v8.689C318.991,69.324,319.817,69.949,320.837,69.36Z" transform="translate(-318.991 -29.213)" fill="#5793ce"/>
        <path id="Trazado_193567-2" data-name="Trazado 193567" d="M321.646,65.6,364.6,40.8a2.242,2.242,0,0,0,.937-1.79V32.48c0-.691-.42-1.008-.937-.709l-42.954,24.8a2.244,2.244,0,0,0-.937,1.79v6.533C320.709,65.583,321.128,65.9,321.646,65.6Z" transform="translate(-318.491 -28.502)" fill="#d4ecff" opacity="0.4"/>
        <path id="Trazado_193568-2" data-name="Trazado 193568" d="M347.982,41.593l6.41-3.7a2.181,2.181,0,0,0,.91-1.739h0c0-.67-.408-.978-.91-.688l-6.41,3.7a2.178,2.178,0,0,0-.91,1.739h0C347.072,41.575,347.479,41.882,347.982,41.593Z" transform="translate(-310.824 -27.427)" fill="#d4ecff"/>
        <path id="Trazado_193569-2" data-name="Trazado 193569" d="M343.545,42.133c0,.67.47.942,1.051.607a2.324,2.324,0,0,0,1.051-1.82c0-.67-.471-.941-1.051-.607A2.322,2.322,0,0,0,343.545,42.133Z" transform="translate(-311.85 -26.027)" fill="#173d7a"/>
        <path id="Trazado_193570-2" data-name="Trazado 193570" d="M340.673,43.791c0,.67.471.941,1.051.607a2.322,2.322,0,0,0,1.051-1.82c0-.67-.47-.941-1.051-.607A2.326,2.326,0,0,0,340.673,43.791Z" transform="translate(-312.685 -25.545)" fill="#fff"/>
        <path id="Trazado_193571-2" data-name="Trazado 193571" d="M337.8,45.449c0,.67.47.941,1.051.607a2.326,2.326,0,0,0,1.051-1.82c0-.67-.471-.941-1.051-.607A2.322,2.322,0,0,0,337.8,45.449Z" transform="translate(-313.52 -25.062)" fill="#d4ecff"/>
        <path id="Trazado_193572-2" data-name="Trazado 193572" d="M334.93,47.107c0,.67.471.941,1.051.607a2.322,2.322,0,0,0,1.051-1.82c0-.67-.47-.942-1.051-.607A2.324,2.324,0,0,0,334.93,47.107Z" transform="translate(-314.355 -24.58)" fill="#fff"/>
        <path id="Trazado_193573-2" data-name="Trazado 193573" d="M322.965,56.3l2.16-1.246a1.4,1.4,0,0,0,.585-1.117V51.651c0-.43-.262-.627-.585-.441l-2.16,1.247a1.4,1.4,0,0,0-.583,1.117v2.283C322.382,56.287,322.643,56.485,322.965,56.3Z" transform="translate(-318.005 -22.837)" fill="#d4ecff"/>
      </g>
      <g id="Grupo_151345-2" data-name="Grupo 151345" transform="translate(41.246 104.175)">
        <path id="Trazado_193574-2" data-name="Trazado 193574" d="M320.837,81.231,366.408,54.92a4.423,4.423,0,0,0,1.847-3.528V42.7c0-1.361-.827-1.985-1.847-1.4L320.837,67.617a4.422,4.422,0,0,0-1.846,3.528v8.69C318.991,81.2,319.817,81.82,320.837,81.231Z" transform="translate(-318.991 -41.084)" fill="#5793ce"/>
        <path id="Trazado_193575-2" data-name="Trazado 193575" d="M321.646,77.472l42.954-24.8a2.242,2.242,0,0,0,.937-1.79V44.35c0-.689-.42-1.007-.937-.707l-42.954,24.8a2.242,2.242,0,0,0-.937,1.79v6.533C320.709,77.454,321.128,77.772,321.646,77.472Z" transform="translate(-318.491 -40.373)" fill="#d4ecff" opacity="0.4"/>
        <path id="Trazado_193576-2" data-name="Trazado 193576" d="M347.982,53.464l6.41-3.7a2.177,2.177,0,0,0,.91-1.737h0c0-.67-.408-.978-.91-.688l-6.41,3.7a2.178,2.178,0,0,0-.91,1.739h0C347.072,53.446,347.479,53.753,347.982,53.464Z" transform="translate(-310.824 -39.298)" fill="#d4ecff"/>
        <path id="Trazado_193577-2" data-name="Trazado 193577" d="M343.545,54c0,.67.47.942,1.051.607a2.326,2.326,0,0,0,1.051-1.82c0-.67-.471-.941-1.051-.607A2.322,2.322,0,0,0,343.545,54Z" transform="translate(-311.85 -37.898)" fill="#173d7a"/>
        <path id="Trazado_193578-2" data-name="Trazado 193578" d="M340.673,55.662c0,.67.471.941,1.051.607a2.322,2.322,0,0,0,1.051-1.82c0-.67-.47-.941-1.051-.607A2.326,2.326,0,0,0,340.673,55.662Z" transform="translate(-312.685 -37.416)" fill="#173d7a"/>
        <path id="Trazado_193579-2" data-name="Trazado 193579" d="M337.8,57.32c0,.67.47.941,1.051.607a2.326,2.326,0,0,0,1.051-1.82c0-.67-.471-.942-1.051-.607A2.32,2.32,0,0,0,337.8,57.32Z" transform="translate(-313.52 -36.934)" fill="#d4ecff"/>
        <path id="Trazado_193580-2" data-name="Trazado 193580" d="M334.93,58.978c0,.67.471.941,1.051.605a2.318,2.318,0,0,0,1.051-1.819c0-.67-.47-.942-1.051-.607A2.322,2.322,0,0,0,334.93,58.978Z" transform="translate(-314.355 -36.451)" fill="#173d7a"/>
        <path id="Trazado_193581-2" data-name="Trazado 193581" d="M322.965,68.169l2.16-1.247a1.4,1.4,0,0,0,.585-1.115V63.522c0-.43-.262-.627-.585-.441l-2.16,1.247a1.4,1.4,0,0,0-.583,1.115v2.285C322.382,68.158,322.643,68.355,322.965,68.169Z" transform="translate(-318.005 -34.708)" fill="#173d7a"/>
      </g>
      <g id="Grupo_151346-2" data-name="Grupo 151346" transform="translate(41.246 119.499)">
        <path id="Trazado_193582-2" data-name="Trazado 193582" d="M320.837,93.1l45.571-26.311a4.423,4.423,0,0,0,1.847-3.529V54.574c0-1.361-.827-1.985-1.847-1.4L320.837,79.488a4.422,4.422,0,0,0-1.846,3.528v8.69C318.991,93.066,319.817,93.691,320.837,93.1Z" transform="translate(-318.991 -52.955)" fill="#5793ce"/>
        <path id="Trazado_193583-2" data-name="Trazado 193583" d="M321.646,89.343l42.954-24.8a2.242,2.242,0,0,0,.937-1.79V56.221c0-.689-.42-1.007-.937-.707l-42.954,24.8a2.242,2.242,0,0,0-.937,1.79v6.533C320.709,89.325,321.128,89.643,321.646,89.343Z" transform="translate(-318.491 -52.244)" fill="#d4ecff" opacity="0.4"/>
        <path id="Trazado_193584-2" data-name="Trazado 193584" d="M347.982,65.334l6.41-3.7a2.181,2.181,0,0,0,.91-1.739h0c0-.67-.408-.977-.91-.687l-6.41,3.7a2.178,2.178,0,0,0-.91,1.739h0C347.072,65.317,347.479,65.624,347.982,65.334Z" transform="translate(-310.824 -51.169)" fill="#d4ecff"/>
        <path id="Trazado_193585-2" data-name="Trazado 193585" d="M342.637,66.91c0,1.266.888,1.779,1.985,1.146a4.385,4.385,0,0,0,1.984-3.437c0-1.265-.888-1.779-1.984-1.145A4.383,4.383,0,0,0,342.637,66.91Z" transform="translate(-312.114 -49.975)" fill="#fff"/>
        <path id="Trazado_193586-2" data-name="Trazado 193586" d="M336.69,70c0,.67.47.941,1.051.605a2.321,2.321,0,0,0,1.051-1.819c0-.67-.471-.942-1.051-.607A2.32,2.32,0,0,0,336.69,70Z" transform="translate(-313.844 -48.57)" fill="#173d7a"/>
        <path id="Trazado_193587-2" data-name="Trazado 193587" d="M333.818,71.655c0,.67.471.942,1.051.607a2.318,2.318,0,0,0,1.051-1.819c0-.671-.47-.942-1.051-.607A2.322,2.322,0,0,0,333.818,71.655Z" transform="translate(-314.679 -48.088)" fill="#d4ecff"/>
        <path id="Trazado_193588-2" data-name="Trazado 193588" d="M330.947,73.313c0,.67.47.942,1.051.607a2.324,2.324,0,0,0,1.051-1.82c0-.67-.471-.941-1.051-.607A2.322,2.322,0,0,0,330.947,73.313Z" transform="translate(-315.514 -47.606)" fill="#173d7a"/>
        <path id="Trazado_193589-2" data-name="Trazado 193589" d="M322.965,80.04l2.16-1.247a1.4,1.4,0,0,0,.585-1.115V75.393c0-.43-.262-.627-.585-.441l-2.16,1.247a1.4,1.4,0,0,0-.583,1.115V79.6C322.382,80.029,322.643,80.226,322.965,80.04Z" transform="translate(-318.005 -46.579)" fill="#d4ecff"/>
      </g>
    </g>
    <path id="Trazado_193342" data-name="Trazado 193342" d="M245.31,204.58,113.457,128.233,214.579,69.971l131.855,76.346ZM116.563,128.236l128.751,74.55,98.013-56.472L214.576,71.765Z" transform="translate(52.729 11.215)" fill="#fff"/>
    <g id="Grupo_151319" data-name="Grupo 151319" transform="translate(199.346 5.937)">
      <path id="Trazado_193343" data-name="Trazado 193343" d="M298.644,74.785,206.312,21.477a3.723,3.723,0,0,0-3.129-.383l.006-.009-.167.063-.041.015-3.336,1.278,2.994,1.466c-.014.055-.031.106-.043.163L186.282,98.261c-.753,3.426.755,7.426,3.366,8.934l90.11,52.026-.321,3.819,3.647-1.414a5.123,5.123,0,0,0,2.612-3.715l16.314-74.192C302.764,80.293,301.256,76.293,298.644,74.785Z" transform="translate(-107.856 -20.906)" fill="#173d7a"/>
      <path id="Trazado_193344" data-name="Trazado 193344" d="M296.793,74.785,204.461,21.477a3.723,3.723,0,0,0-3.129-.383l.006-.009-.167.063-.041.015-3.336,1.278,2.994,1.466c-.014.055-.031.106-.043.163L189.558,74.922l45.177,35.2L299.71,78.464A7.154,7.154,0,0,0,296.793,74.785Z" transform="translate(-106.004 -20.906)" fill="#396caa"/>
      <path id="Trazado_193345" data-name="Trazado 193345" d="M259.625,66.388l7.029-2.992a8.806,8.806,0,0,0-2.848-7.038l-11.125,4.681Z" transform="translate(-72.318 -1.986)" fill="#274f89"/>
      <path id="Trazado_193346" data-name="Trazado 193346" d="M278.231,162.228,185.9,108.921c-2.612-1.509-4.119-5.507-3.366-8.934l16.314-74.194c.753-3.426,3.48-4.98,6.092-3.472L297.271,75.63c2.612,1.508,4.119,5.507,3.366,8.934l-16.314,74.192C283.571,162.182,280.844,163.737,278.231,162.228Z" transform="translate(-109.857 -20.457)" fill="#d4ecff"/>
      <path id="Trazado_193347" data-name="Trazado 193347" d="M291.25,75.415,198.918,22.108a3.648,3.648,0,0,0-3.635-.16,3.8,3.8,0,0,1,2.748.483l92.332,53.307c2.612,1.509,4.119,5.509,3.366,8.935l-16.314,74.192a5.2,5.2,0,0,1-2.457,3.63c1.558-.34,2.86-1.755,3.343-3.955l16.314-74.192C295.37,80.924,293.862,76.923,291.25,75.415Z" transform="translate(-102.949 -20.568)" fill="#fff"/>
      <path id="Trazado_193348" data-name="Trazado 193348" d="M274.909,155.389l-86.836-50.111c-2.391-1.379-3.77-5.04-3.081-8.174l15.038-68.38c.689-3.135,3.185-4.558,5.575-3.178l86.837,50.111c2.389,1.379,3.768,5.04,3.08,8.174l-15.037,68.38C279.795,155.346,277.3,156.769,274.909,155.389Z" transform="translate(-108.536 -18.71)" fill="#fff"/>
      <path id="Trazado_193349" data-name="Trazado 193349" d="M274.909,155.389l-86.836-50.111c-2.391-1.379-3.77-5.04-3.081-8.174l15.038-68.38c.689-3.135,3.185-4.558,5.575-3.178l86.837,50.111c2.389,1.379,3.768,5.04,3.08,8.174l-15.037,68.38C279.795,155.346,277.3,156.769,274.909,155.389Z" transform="translate(-108.536 -18.71)" fill="#173d7a"/>
      <path id="Trazado_193350" data-name="Trazado 193350" d="M275.666,155.046l-86.837-50.111c-2.389-1.379-3.768-5.04-3.08-8.174l15.038-68.38a4.808,4.808,0,0,1,2.187-3.3,4.421,4.421,0,0,0-2.945,3.606l-15.038,68.38c-.689,3.135.69,6.8,3.081,8.174l86.836,50.111a3.337,3.337,0,0,0,3.388.12A3.462,3.462,0,0,1,275.666,155.046Z" transform="translate(-108.536 -18.676)" fill="#5793ce"/>
      <path id="Trazado_193351" data-name="Trazado 193351" d="M304.727,132.161,292.105,130.5,210.634,83.456c-2.613-1.508-7.174-1.319-10.191.423L142.713,117.2l-7.633-1.009v4.331l.008,0a2.974,2.974,0,0,0,1.753,2.675L229.172,176.5c2.613,1.509,7.174,1.319,10.191-.422L302.234,139.8c1.7-.98,2.543-2.242,2.494-3.428h0Z" transform="translate(-135.077 11.932)" fill="#173d7a"/>
      <path id="Trazado_193352" data-name="Trazado 193352" d="M243.511,96.642,237.723,93.3H174.086l-31.373,18.1-7.633-1.009v4.331l.008,0a2.974,2.974,0,0,0,1.753,2.675l92.331,53.307a9.56,9.56,0,0,0,5.26.986Z" transform="translate(-135.077 17.728)" fill="#396caa"/>
      <path id="Trazado_193353" data-name="Trazado 193353" d="M138.468,104.893l-3.388-.448v4.331l.008,0a2.974,2.974,0,0,0,1.753,2.675l1.627.939Z" transform="translate(-135.077 23.676)" fill="#5793ce"/>
      <path id="Trazado_193354" data-name="Trazado 193354" d="M197.038,147.6a11.821,11.821,0,0,0,8.658-.538v-9.657h-8.658Z" transform="translate(-102.013 41.266)" fill="#274f89"/>
      <path id="Trazado_193355" data-name="Trazado 193355" d="M229.173,174.676l-92.331-53.308c-2.612-1.508-2.285-4.141.732-5.883L200.444,79.2c3.017-1.741,7.578-1.931,10.191-.422l92.331,53.307c2.612,1.509,2.285,4.142-.732,5.885l-62.871,36.286C236.347,176,231.786,176.184,229.173,174.676Z" transform="translate(-135.078 9.434)" fill="#d4ecff"/>
      <path id="Trazado_193356" data-name="Trazado 193356" d="M302.233,122.379l-62.871,36.286c-3.017,1.742-7.578,1.931-10.191.423L136.84,105.78A3.43,3.43,0,0,1,135.216,104c-.408,1.236.112,2.485,1.624,3.359l92.331,53.307c2.613,1.508,7.174,1.319,10.191-.422l62.871-36.286c2.027-1.172,2.834-2.744,2.356-4.109A4.905,4.905,0,0,1,302.233,122.379Z" transform="translate(-135.076 23.441)" fill="#fff"/>
      <g id="Grupo_151317" data-name="Grupo 151317" transform="translate(36.629 90.475)">
        <path id="Trazado_193357" data-name="Trazado 193357" d="M163.365,96.843l-4.178-2.411c-.334-.195-.293-.532.1-.756l4.931-2.846a1.454,1.454,0,0,1,1.308-.055l4.178,2.412c.336.193.293.532-.094.756l-4.932,2.846A1.449,1.449,0,0,1,163.365,96.843Z" transform="translate(-158.962 -74.164)" fill="#5793ce"/>
        <path id="Trazado_193358" data-name="Trazado 193358" d="M167.572,99.272l-4.178-2.412c-.336-.193-.293-.532.094-.755l4.931-2.848a1.462,1.462,0,0,1,1.31-.054l4.178,2.412c.334.193.293.532-.1.755l-4.931,2.848A1.459,1.459,0,0,1,167.572,99.272Z" transform="translate(-156.717 -72.868)" fill="#5793ce"/>
        <path id="Trazado_193359" data-name="Trazado 193359" d="M171.778,101.7,167.6,99.289c-.336-.193-.294-.532.094-.756l4.931-2.846a1.454,1.454,0,0,1,1.308-.054l4.178,2.411c.336.195.294.532-.094.756l-4.931,2.846A1.458,1.458,0,0,1,171.778,101.7Z" transform="translate(-154.472 -71.572)" fill="#5793ce"/>
        <path id="Trazado_193360" data-name="Trazado 193360" d="M177.6,99.536l-4.176-2.412c-.336-.193-.294-.532.094-.755l4.139-2.391a1.459,1.459,0,0,1,1.308-.054l4.178,2.412c.336.193.293.532-.094.755l-4.139,2.391A1.462,1.462,0,0,1,177.6,99.536Z" transform="translate(-151.367 -72.483)" fill="#5793ce"/>
        <path id="Trazado_193361" data-name="Trazado 193361" d="M181.8,101.965l-4.178-2.412c-.336-.193-.293-.532.094-.756l4.139-2.389a1.452,1.452,0,0,1,1.31-.054l4.178,2.411c.334.195.293.532-.1.756l-4.139,2.389A1.454,1.454,0,0,1,181.8,101.965Z" transform="translate(-149.122 -71.187)" fill="#5793ce"/>
        <path id="Trazado_193362" data-name="Trazado 193362" d="M186.01,104.393l-4.178-2.411c-.336-.193-.293-.532.094-.756l4.139-2.389a1.454,1.454,0,0,1,1.308-.055l4.178,2.412c.336.193.294.532-.094.756l-4.139,2.389A1.449,1.449,0,0,1,186.01,104.393Z" transform="translate(-146.877 -69.891)" fill="#5793ce"/>
        <path id="Trazado_193363" data-name="Trazado 193363" d="M190.216,106.822l-4.178-2.412c-.334-.193-.293-.531.1-.755l4.139-2.389a1.454,1.454,0,0,1,1.308-.055l4.178,2.412c.336.193.293.532-.094.755l-4.139,2.391A1.457,1.457,0,0,1,190.216,106.822Z" transform="translate(-144.633 -68.595)" fill="#5793ce"/>
        <path id="Trazado_193364" data-name="Trazado 193364" d="M194.423,109.251l-4.178-2.412c-.336-.193-.293-.532.094-.755l4.139-2.391a1.457,1.457,0,0,1,1.31-.054l4.178,2.412c.334.193.293.531-.1.755l-4.139,2.389A1.454,1.454,0,0,1,194.423,109.251Z" transform="translate(-142.388 -67.299)" fill="#5793ce"/>
        <path id="Trazado_193365" data-name="Trazado 193365" d="M198.631,111.68l-4.178-2.412c-.336-.193-.294-.532.094-.756l4.139-2.389a1.449,1.449,0,0,1,1.308-.054l4.178,2.411c.336.195.294.532-.094.756l-4.139,2.389A1.454,1.454,0,0,1,198.631,111.68Z" transform="translate(-140.143 -66.003)" fill="#5793ce"/>
        <path id="Trazado_193366" data-name="Trazado 193366" d="M202.836,114.108l-4.178-2.411c-.334-.195-.293-.532.1-.756l4.139-2.389a1.454,1.454,0,0,1,1.308-.055l4.178,2.412c.336.193.293.532-.094.756l-4.139,2.389A1.452,1.452,0,0,1,202.836,114.108Z" transform="translate(-137.898 -64.707)" fill="#5793ce"/>
        <path id="Trazado_193367" data-name="Trazado 193367" d="M207.044,116.537l-4.178-2.412c-.336-.193-.293-.532.094-.755l4.139-2.391a1.462,1.462,0,0,1,1.31-.054l4.178,2.412c.334.193.293.532-.1.755l-4.139,2.391A1.459,1.459,0,0,1,207.044,116.537Z" transform="translate(-135.653 -63.411)" fill="#5793ce"/>
        <path id="Trazado_193368" data-name="Trazado 193368" d="M211.251,118.966l-4.178-2.412c-.336-.193-.294-.532.094-.756l4.139-2.389a1.449,1.449,0,0,1,1.308-.054l4.178,2.411c.336.195.293.532-.094.756l-4.139,2.389A1.454,1.454,0,0,1,211.251,118.966Z" transform="translate(-133.408 -62.115)" fill="#5793ce"/>
        <path id="Trazado_193369" data-name="Trazado 193369" d="M215.456,121.394l-4.178-2.411c-.334-.195-.293-.532.1-.756l4.139-2.389a1.454,1.454,0,0,1,1.308-.055L221,118.195c.336.193.293.532-.094.756l-4.139,2.389A1.452,1.452,0,0,1,215.456,121.394Z" transform="translate(-131.163 -60.818)" fill="#5793ce"/>
        <path id="Trazado_193370" data-name="Trazado 193370" d="M183.8,98.386l-4.178-2.412c-.336-.193-.294-.531.094-.755l4.139-2.389a1.454,1.454,0,0,1,1.308-.055l4.178,2.412c.336.193.294.532-.094.756L185.1,98.332A1.454,1.454,0,0,1,183.8,98.386Z" transform="translate(-148.06 -73.097)" fill="#5793ce"/>
        <path id="Trazado_193371" data-name="Trazado 193371" d="M179.525,95.921l-4.178-2.411c-.334-.195-.293-.532.1-.756l4.139-2.389a1.454,1.454,0,0,1,1.308-.055l4.178,2.412c.336.193.293.532-.094.756l-4.139,2.389A1.452,1.452,0,0,1,179.525,95.921Z" transform="translate(-150.338 -74.412)" fill="#5793ce"/>
        <path id="Trazado_193372" data-name="Trazado 193372" d="M176.927,94.42l-9-5.195c-.336-.193-.293-.532.094-.756l4.139-2.389a1.457,1.457,0,0,1,1.31-.054l9,5.194c.336.193.294.532-.094.756l-4.139,2.389A1.449,1.449,0,0,1,176.927,94.42Z" transform="translate(-154.297 -76.698)" fill="#5793ce"/>
        <path id="Trazado_193373" data-name="Trazado 193373" d="M179.326,91.078l-7.3-4.216c-.336-.193-.293-.532.094-.756l4.139-2.389a1.452,1.452,0,0,1,1.31-.054l7.3,4.214c.334.195.293.532-.1.756l-4.139,2.389A1.454,1.454,0,0,1,179.326,91.078Z" transform="translate(-152.112 -77.96)" fill="#5793ce"/>
        <path id="Trazado_193374" data-name="Trazado 193374" d="M188,100.815,183.824,98.4c-.334-.193-.293-.532.1-.755l4.139-2.391a1.454,1.454,0,0,1,1.308-.054l4.178,2.412c.336.193.293.531-.094.755l-4.139,2.391A1.462,1.462,0,0,1,188,100.815Z" transform="translate(-145.815 -71.801)" fill="#5793ce"/>
        <path id="Trazado_193375" data-name="Trazado 193375" d="M192.208,103.244l-4.178-2.412c-.336-.193-.293-.532.094-.756l4.139-2.389a1.452,1.452,0,0,1,1.31-.054l4.178,2.411c.334.195.293.532-.1.756l-4.139,2.389A1.454,1.454,0,0,1,192.208,103.244Z" transform="translate(-143.57 -70.505)" fill="#5793ce"/>
        <path id="Trazado_193376" data-name="Trazado 193376" d="M196.416,105.672l-4.178-2.411c-.336-.195-.294-.532.094-.756l4.139-2.389a1.454,1.454,0,0,1,1.308-.055l4.178,2.412c.336.193.293.532-.094.756l-4.139,2.389A1.449,1.449,0,0,1,196.416,105.672Z" transform="translate(-141.325 -69.209)" fill="#5793ce"/>
        <path id="Trazado_193377" data-name="Trazado 193377" d="M200.621,108.1l-4.178-2.412c-.334-.193-.293-.531.1-.755l4.139-2.391a1.459,1.459,0,0,1,1.308-.054l4.178,2.412c.336.193.293.532-.094.755l-4.139,2.391A1.462,1.462,0,0,1,200.621,108.1Z" transform="translate(-139.08 -67.912)" fill="#5793ce"/>
        <path id="Trazado_193378" data-name="Trazado 193378" d="M204.829,110.53l-4.178-2.412c-.336-.193-.293-.532.094-.756l4.139-2.389a1.449,1.449,0,0,1,1.308-.054l4.178,2.411c.336.195.294.532-.094.756l-4.139,2.389A1.454,1.454,0,0,1,204.829,110.53Z" transform="translate(-136.835 -66.617)" fill="#5793ce"/>
        <path id="Trazado_193379" data-name="Trazado 193379" d="M209.036,112.958l-4.178-2.411c-.336-.195-.294-.532.094-.756l4.139-2.389a1.454,1.454,0,0,1,1.308-.055l4.178,2.412c.336.193.293.532-.094.756l-4.139,2.389A1.449,1.449,0,0,1,209.036,112.958Z" transform="translate(-134.59 -65.32)" fill="#5793ce"/>
        <path id="Trazado_193380" data-name="Trazado 193380" d="M213.241,115.387l-4.178-2.412c-.334-.193-.293-.531.094-.755l4.139-2.391a1.462,1.462,0,0,1,1.31-.054l4.178,2.412c.334.193.293.532-.1.755l-4.139,2.391A1.454,1.454,0,0,1,213.241,115.387Z" transform="translate(-132.345 -64.024)" fill="#5793ce"/>
        <path id="Trazado_193381" data-name="Trazado 193381" d="M217.448,117.816l-4.178-2.412c-.336-.193-.293-.532.094-.756l4.139-2.389a1.454,1.454,0,0,1,1.308-.054l4.178,2.412c.336.193.294.531-.094.755l-4.139,2.389A1.454,1.454,0,0,1,217.448,117.816Z" transform="translate(-130.1 -62.728)" fill="#5793ce"/>
        <path id="Trazado_193382" data-name="Trazado 193382" d="M221.654,120.245l-4.178-2.412c-.334-.193-.293-.532.1-.756l4.139-2.389a1.449,1.449,0,0,1,1.308-.054l4.178,2.411c.336.193.293.532-.094.756l-4.139,2.389A1.457,1.457,0,0,1,221.654,120.245Z" transform="translate(-127.855 -61.432)" fill="#5793ce"/>
        <path id="Trazado_193383" data-name="Trazado 193383" d="M230.852,125.554l-9.116-5.262c-.334-.195-.293-.532.1-.756l4.139-2.389a1.454,1.454,0,0,1,1.308-.055l9.116,5.264c.334.193.293.532-.1.756L232.16,125.5A1.454,1.454,0,0,1,230.852,125.554Z" transform="translate(-125.582 -60.12)" fill="#5793ce"/>
        <path id="Trazado_193384" data-name="Trazado 193384" d="M238.547,120.541l-7.694-4.441c-.334-.195-.293-.532.094-.756l4.139-2.389a1.457,1.457,0,0,1,1.31-.055l7.693,4.443c.336.193.294.531-.094.755l-4.139,2.389A1.454,1.454,0,0,1,238.547,120.541Z" transform="translate(-120.717 -62.358)" fill="#5793ce"/>
        <path id="Trazado_193385" data-name="Trazado 193385" d="M195.368,100.34l-4.178-2.412c-.336-.193-.293-.532.094-.756l4.139-2.389a1.452,1.452,0,0,1,1.31-.054l4.178,2.411c.334.195.293.532-.1.756l-4.139,2.389A1.454,1.454,0,0,1,195.368,100.34Z" transform="translate(-141.883 -72.055)" fill="#5793ce"/>
        <path id="Trazado_193386" data-name="Trazado 193386" d="M191.057,97.851l-4.178-2.412c-.336-.193-.293-.532.094-.756l4.139-2.389a1.449,1.449,0,0,1,1.308-.054l4.178,2.411c.336.195.294.532-.094.756L192.366,97.8A1.454,1.454,0,0,1,191.057,97.851Z" transform="translate(-144.184 -73.383)" fill="#5793ce"/>
        <path id="Trazado_193387" data-name="Trazado 193387" d="M186.747,95.361l-4.178-2.411c-.336-.195-.294-.532.094-.756L186.8,89.8a1.454,1.454,0,0,1,1.308-.055l4.178,2.412c.336.193.293.532-.094.756l-4.139,2.389A1.449,1.449,0,0,1,186.747,95.361Z" transform="translate(-146.485 -74.711)" fill="#5793ce"/>
        <path id="Trazado_193388" data-name="Trazado 193388" d="M182.434,92.872l-4.178-2.411c-.334-.195-.293-.532.1-.756l4.139-2.389a1.454,1.454,0,0,1,1.308-.055l4.178,2.412c.336.193.293.532-.094.756l-4.139,2.389A1.452,1.452,0,0,1,182.434,92.872Z" transform="translate(-148.785 -76.04)" fill="#5793ce"/>
        <path id="Trazado_193389" data-name="Trazado 193389" d="M199.576,102.768l-4.178-2.411c-.336-.193-.294-.532.094-.756l4.139-2.389a1.454,1.454,0,0,1,1.308-.055l4.178,2.412c.336.193.294.532-.094.756l-4.139,2.389A1.449,1.449,0,0,1,199.576,102.768Z" transform="translate(-139.638 -70.758)" fill="#5793ce"/>
        <path id="Trazado_193390" data-name="Trazado 193390" d="M203.781,105.2l-4.178-2.412c-.334-.193-.293-.531.1-.755l4.139-2.391a1.459,1.459,0,0,1,1.308-.054L209.324,102c.336.193.293.532-.094.755l-4.139,2.391A1.457,1.457,0,0,1,203.781,105.2Z" transform="translate(-137.393 -69.462)" fill="#5793ce"/>
        <path id="Trazado_193391" data-name="Trazado 193391" d="M207.988,107.626l-4.178-2.412c-.336-.193-.293-.532.094-.755l4.139-2.391a1.457,1.457,0,0,1,1.31-.054l4.178,2.412c.334.193.293.531-.1.755l-4.139,2.389A1.454,1.454,0,0,1,207.988,107.626Z" transform="translate(-135.149 -68.166)" fill="#5793ce"/>
        <path id="Trazado_193392" data-name="Trazado 193392" d="M212.2,110.054l-4.178-2.411c-.336-.193-.294-.532.094-.756l4.139-2.389a1.449,1.449,0,0,1,1.308-.054l4.178,2.411c.336.193.293.532-.094.756L213.5,110A1.449,1.449,0,0,1,212.2,110.054Z" transform="translate(-132.904 -66.87)" fill="#5793ce"/>
        <path id="Trazado_193393" data-name="Trazado 193393" d="M216.4,112.483l-4.178-2.411c-.334-.195-.293-.532.1-.756l4.139-2.389a1.454,1.454,0,0,1,1.308-.055l4.178,2.412c.336.193.293.532-.094.756l-4.139,2.389A1.457,1.457,0,0,1,216.4,112.483Z" transform="translate(-130.659 -65.574)" fill="#5793ce"/>
        <path id="Trazado_193394" data-name="Trazado 193394" d="M220.608,114.912l-4.178-2.412c-.336-.193-.293-.532.094-.755l4.139-2.391a1.457,1.457,0,0,1,1.31-.054l4.176,2.412c.336.193.294.532-.094.755l-4.139,2.391A1.459,1.459,0,0,1,220.608,114.912Z" transform="translate(-128.414 -64.278)" fill="#5793ce"/>
        <path id="Trazado_193395" data-name="Trazado 193395" d="M224.816,117.341l-4.178-2.412c-.336-.193-.294-.532.094-.756l4.139-2.389a1.449,1.449,0,0,1,1.308-.054l4.178,2.411c.336.195.293.532-.094.756l-4.139,2.389A1.454,1.454,0,0,1,224.816,117.341Z" transform="translate(-126.169 -62.982)" fill="#5793ce"/>
        <path id="Trazado_193396" data-name="Trazado 193396" d="M229.021,119.769l-4.178-2.411c-.334-.195-.293-.532.094-.756l4.141-2.389a1.454,1.454,0,0,1,1.308-.055l4.178,2.412c.334.193.293.532-.1.756l-4.139,2.389A1.449,1.449,0,0,1,229.021,119.769Z" transform="translate(-123.924 -61.686)" fill="#5793ce"/>
        <path id="Trazado_193397" data-name="Trazado 193397" d="M233.229,122.2l-4.178-2.412c-.336-.193-.293-.532.094-.755l4.139-2.389a1.454,1.454,0,0,1,1.308-.055L238.77,119c.336.193.294.532-.094.755l-4.139,2.391A1.459,1.459,0,0,1,233.229,122.2Z" transform="translate(-121.679 -60.389)" fill="#5793ce"/>
        <path id="Trazado_193398" data-name="Trazado 193398" d="M193.154,94.332l-4.178-2.411c-.336-.195-.293-.532.094-.756l4.139-2.389a1.458,1.458,0,0,1,1.31-.055l4.178,2.412c.334.193.293.532-.1.756l-4.139,2.389A1.449,1.449,0,0,1,193.154,94.332Z" transform="translate(-143.065 -75.26)" fill="#5793ce"/>
        <path id="Trazado_193399" data-name="Trazado 193399" d="M188.967,91.916,184.79,89.5c-.334-.193-.293-.532.1-.756l4.139-2.389a1.454,1.454,0,0,1,1.308-.054l4.178,2.412c.336.193.293.531-.094.755l-4.139,2.389A1.457,1.457,0,0,1,188.967,91.916Z" transform="translate(-145.299 -76.55)" fill="#5793ce"/>
        <path id="Trazado_193400" data-name="Trazado 193400" d="M184.783,89.5l-4.178-2.412c-.336-.193-.294-.531.094-.755l4.139-2.389a1.454,1.454,0,0,1,1.308-.055l4.178,2.412c.336.193.293.532-.094.756l-4.139,2.389A1.454,1.454,0,0,1,184.783,89.5Z" transform="translate(-147.533 -77.84)" fill="#5793ce"/>
        <path id="Trazado_193401" data-name="Trazado 193401" d="M180.6,87.083l-4.178-2.412c-.336-.193-.293-.532.094-.756l4.139-2.389a1.449,1.449,0,0,1,1.308-.054l4.178,2.411c.336.195.294.532-.094.756L181.9,87.028A1.454,1.454,0,0,1,180.6,87.083Z" transform="translate(-149.767 -79.129)" fill="#5793ce"/>
        <path id="Trazado_193402" data-name="Trazado 193402" d="M184.9,84.042l-4.178-2.412c-.336-.193-.293-.532.094-.756l1.37-.79a1.454,1.454,0,0,1,1.308-.054l4.178,2.411c.336.195.293.532-.094.756l-1.37.79A1.454,1.454,0,0,1,184.9,84.042Z" transform="translate(-147.47 -79.899)" fill="#5793ce"/>
        <path id="Trazado_193403" data-name="Trazado 193403" d="M190.362,87.194l-4.178-2.411c-.334-.195-.293-.532.1-.756l1.368-.79a1.454,1.454,0,0,1,1.308-.055l4.178,2.412c.336.193.293.532-.094.756l-1.368.79A1.452,1.452,0,0,1,190.362,87.194Z" transform="translate(-144.555 -78.216)" fill="#5793ce"/>
        <path id="Trazado_193404" data-name="Trazado 193404" d="M194.532,89.6l-4.178-2.412c-.336-.193-.294-.532.094-.755l1.368-.791a1.462,1.462,0,0,1,1.31-.054L197.3,88c.336.193.294.531-.094.755l-1.368.79A1.454,1.454,0,0,1,194.532,89.6Z" transform="translate(-142.33 -76.931)" fill="#5793ce"/>
        <path id="Trazado_193405" data-name="Trazado 193405" d="M198.7,92.007,194.522,89.6c-.336-.195-.293-.532.094-.756l1.368-.79a1.452,1.452,0,0,1,1.31-.054l4.178,2.411c.334.193.293.532-.1.756l-1.368.79A1.449,1.449,0,0,1,198.7,92.007Z" transform="translate(-140.106 -75.647)" fill="#5793ce"/>
        <path id="Trazado_193406" data-name="Trazado 193406" d="M202.867,94.414,198.69,92c-.334-.193-.293-.532.1-.755l1.368-.791a1.459,1.459,0,0,1,1.308-.054l4.178,2.412c.336.193.293.532-.094.755l-1.368.791A1.462,1.462,0,0,1,202.867,94.414Z" transform="translate(-137.881 -74.363)" fill="#5793ce"/>
        <path id="Trazado_193407" data-name="Trazado 193407" d="M226.139,107.849l-4.178-2.411c-.336-.195-.293-.532.094-.756l1.37-.79a1.454,1.454,0,0,1,1.308-.055l4.178,2.412c.336.195.293.532-.094.756l-1.37.79A1.449,1.449,0,0,1,226.139,107.849Z" transform="translate(-125.463 -67.193)" fill="#5793ce"/>
        <path id="Trazado_193408" data-name="Trazado 193408" d="M230.306,110.256l-4.178-2.412c-.334-.193-.293-.532.1-.755l1.368-.791a1.459,1.459,0,0,1,1.308-.054l4.178,2.412c.336.193.293.532-.094.755l-1.368.79A1.457,1.457,0,0,1,230.306,110.256Z" transform="translate(-123.238 -65.909)" fill="#5793ce"/>
        <path id="Trazado_193409" data-name="Trazado 193409" d="M234.476,112.662l-4.178-2.411c-.336-.193-.294-.532.094-.756l1.368-.79a1.449,1.449,0,0,1,1.308-.054l4.178,2.411c.336.195.294.532-.094.756l-1.368.79A1.449,1.449,0,0,1,234.476,112.662Z" transform="translate(-121.014 -64.624)" fill="#5793ce"/>
        <path id="Trazado_193410" data-name="Trazado 193410" d="M238.643,115.069l-4.178-2.412c-.336-.193-.293-.532.094-.755l1.368-.791a1.462,1.462,0,0,1,1.31-.054l4.178,2.412c.334.193.293.532-.1.755l-1.368.791A1.459,1.459,0,0,1,238.643,115.069Z" transform="translate(-118.789 -63.34)" fill="#5793ce"/>
        <path id="Trazado_193411" data-name="Trazado 193411" d="M197.361,96.761l-4.178-2.412c-.336-.193-.294-.531.094-.755l4.139-2.389a1.454,1.454,0,0,1,1.308-.055l4.178,2.412c.336.193.294.532-.094.755l-4.139,2.391A1.454,1.454,0,0,1,197.361,96.761Z" transform="translate(-140.821 -73.964)" fill="#5793ce"/>
        <path id="Trazado_193412" data-name="Trazado 193412" d="M201.566,99.19l-4.178-2.412c-.334-.193-.293-.532.1-.755l4.139-2.391a1.454,1.454,0,0,1,1.308-.054l4.178,2.412c.336.193.293.531-.094.755l-4.139,2.391A1.462,1.462,0,0,1,201.566,99.19Z" transform="translate(-138.575 -72.668)" fill="#5793ce"/>
        <path id="Trazado_193413" data-name="Trazado 193413" d="M205.773,101.619,201.6,99.207c-.336-.193-.293-.532.094-.756l4.139-2.389a1.452,1.452,0,0,1,1.31-.054l4.178,2.411c.334.195.293.532-.1.756l-4.139,2.389A1.454,1.454,0,0,1,205.773,101.619Z" transform="translate(-136.331 -71.372)" fill="#5793ce"/>
        <path id="Trazado_193414" data-name="Trazado 193414" d="M209.981,104.047l-4.178-2.411c-.336-.195-.294-.532.094-.756l4.139-2.389a1.454,1.454,0,0,1,1.308-.055l4.178,2.412c.336.193.293.532-.094.756l-4.139,2.389A1.449,1.449,0,0,1,209.981,104.047Z" transform="translate(-134.086 -70.076)" fill="#5793ce"/>
        <path id="Trazado_193415" data-name="Trazado 193415" d="M214.186,106.476l-4.178-2.412c-.334-.193-.293-.531.1-.755l4.139-2.391a1.459,1.459,0,0,1,1.308-.054l4.178,2.412c.334.193.293.531-.094.755l-4.139,2.391A1.462,1.462,0,0,1,214.186,106.476Z" transform="translate(-131.841 -68.78)" fill="#5793ce"/>
        <path id="Trazado_193416" data-name="Trazado 193416" d="M218.393,108.905l-4.178-2.412c-.336-.193-.293-.532.094-.756l4.139-2.389a1.449,1.449,0,0,1,1.308-.054l4.178,2.411c.336.195.294.532-.094.756L219.7,108.85A1.454,1.454,0,0,1,218.393,108.905Z" transform="translate(-129.596 -67.484)" fill="#5793ce"/>
        <path id="Trazado_193417" data-name="Trazado 193417" d="M222.6,111.333l-4.178-2.411c-.336-.195-.294-.532.094-.756l4.139-2.389a1.454,1.454,0,0,1,1.308-.055l4.178,2.412c.336.193.293.532-.094.756l-4.139,2.389A1.449,1.449,0,0,1,222.6,111.333Z" transform="translate(-127.351 -66.188)" fill="#5793ce"/>
        <path id="Trazado_193418" data-name="Trazado 193418" d="M226.806,113.762l-4.178-2.412c-.336-.193-.293-.531.094-.755l4.139-2.391a1.462,1.462,0,0,1,1.31-.054l4.178,2.412c.334.193.293.532-.1.755l-4.139,2.391A1.454,1.454,0,0,1,226.806,113.762Z" transform="translate(-125.106 -64.891)" fill="#5793ce"/>
        <path id="Trazado_193419" data-name="Trazado 193419" d="M231.014,116.191l-4.178-2.412c-.336-.193-.293-.532.094-.756l4.139-2.389a1.454,1.454,0,0,1,1.308-.054l4.178,2.411c.336.195.294.532-.094.756l-4.139,2.389A1.454,1.454,0,0,1,231.014,116.191Z" transform="translate(-122.861 -63.595)" fill="#5793ce"/>
        <path id="Trazado_193420" data-name="Trazado 193420" d="M176.138,98.694l-12.3-7.1c-.334-.193-.293-.532.1-.755l4.139-2.391a1.459,1.459,0,0,1,1.308-.054l12.3,7.1c.336.193.293.532-.094.755l-4.139,2.391A1.459,1.459,0,0,1,176.138,98.694Z" transform="translate(-156.482 -75.437)" fill="#5793ce"/>
        <path id="Trazado_193421" data-name="Trazado 193421" d="M227.817,128.53l-12.3-7.1c-.336-.195-.293-.532.094-.756l4.139-2.389a1.454,1.454,0,0,1,1.308-.055l12.3,7.1c.334.193.293.532-.094.756l-4.141,2.389A1.454,1.454,0,0,1,227.817,128.53Z" transform="translate(-128.903 -59.514)" fill="#5793ce"/>
        <path id="Trazado_193422" data-name="Trazado 193422" d="M208.166,122.709l-4.178-2.411c-.334-.195-.293-.532.1-.756l4.931-2.846a1.454,1.454,0,0,1,1.308-.055l4.178,2.412c.336.193.293.532-.094.756l-4.931,2.846A1.457,1.457,0,0,1,208.166,122.709Z" transform="translate(-135.053 -60.361)" fill="#5793ce"/>
        <path id="Trazado_193423" data-name="Trazado 193423" d="M178.49,105.575l-6.682-3.857c-.336-.195-.293-.532.094-.756l4.932-2.846a1.454,1.454,0,0,1,1.308-.055l6.681,3.859c.336.193.294.531-.094.755l-4.931,2.848A1.459,1.459,0,0,1,178.49,105.575Z" transform="translate(-152.227 -70.276)" fill="#5793ce"/>
        <path id="Trazado_193424" data-name="Trazado 193424" d="M204.985,120.872l-6.681-3.857c-.336-.193-.294-.532.094-.756l4.931-2.846a1.449,1.449,0,0,1,1.308-.054l6.682,3.857c.336.193.293.532-.094.755l-4.932,2.848A1.454,1.454,0,0,1,204.985,120.872Z" transform="translate(-138.088 -62.113)" fill="#5793ce"/>
        <path id="Trazado_193425" data-name="Trazado 193425" d="M184.559,109.079l-6.682-3.857c-.334-.193-.293-.532.1-.756l4.931-2.846a1.449,1.449,0,0,1,1.308-.054l6.682,3.857c.334.193.293.532-.1.755l-4.931,2.848A1.459,1.459,0,0,1,184.559,109.079Z" transform="translate(-148.988 -68.406)" fill="#5793ce"/>
        <path id="Trazado_193426" data-name="Trazado 193426" d="M184.162,101.537l29.048,16.771a.4.4,0,0,1,0,.753l-5.029,2.9a1.439,1.439,0,0,1-1.305,0l-29.048-16.771Z" transform="translate(-148.894 -68.351)" fill="#5793ce"/>
        <path id="Trazado_193427" data-name="Trazado 193427" d="M219.558,124.993l4.653,2.687c.276.158.241.436-.077.618l-2.017,1.166a1.2,1.2,0,0,1-1.074.044l-4.653-2.687c-.275-.16-.241-.436.077-.62l2.018-1.164A1.186,1.186,0,0,1,219.558,124.993Z" transform="translate(-128.413 -55.891)" fill="#5793ce"/>
        <path id="Trazado_193428" data-name="Trazado 193428" d="M215.317,122.544l4.653,2.687c.275.158.241.436-.077.62l-2.018,1.164a1.2,1.2,0,0,1-1.072.044l-4.653-2.687c-.276-.158-.241-.436.077-.62l2.017-1.164A1.189,1.189,0,0,1,215.317,122.544Z" transform="translate(-130.677 -57.198)" fill="#5793ce"/>
        <path id="Trazado_193429" data-name="Trazado 193429" d="M211.11,120.115l4.653,2.687c.275.16.241.436-.077.62l-2.017,1.164a1.189,1.189,0,0,1-1.074.044l-4.653-2.687c-.275-.158-.241-.436.077-.618l2.018-1.166A1.2,1.2,0,0,1,211.11,120.115Z" transform="translate(-132.922 -58.494)" fill="#5793ce"/>
        <path id="Trazado_193430" data-name="Trazado 193430" d="M217.64,121.2l4.653,2.687c.275.158.241.436-.077.618l-2.018,1.166a1.2,1.2,0,0,1-1.072.044l-4.653-2.687c-.276-.16-.241-.436.077-.62l2.017-1.164A1.189,1.189,0,0,1,217.64,121.2Z" transform="translate(-129.437 -57.913)" fill="#5793ce"/>
      </g>
      <g id="Grupo_151318" data-name="Grupo 151318" transform="translate(97.955 32.992)">
        <path id="Trazado_193431" data-name="Trazado 193431" d="M211.668,50.735l-10.493-6.058.447-2.259,10.493,6.058Z" transform="translate(-197.759 -42.418)" fill="#d4ecff"/>
        <path id="Trazado_193432" data-name="Trazado 193432" d="M210.926,54.158,200.433,48.1l.447-2.259L211.373,51.9Z" transform="translate(-198.156 -40.591)" fill="#fff"/>
        <path id="Trazado_193433" data-name="Trazado 193433" d="M244.507,101.642l-10.493-6.058.447-2.259,10.493,6.058Z" transform="translate(-180.235 -15.251)" fill="#d4ecff"/>
        <path id="Trazado_193434" data-name="Trazado 193434" d="M209.441,61.005l-10.493-6.058.447-2.259,10.493,6.058Z" transform="translate(-198.948 -36.937)" fill="#d4ecff"/>
      </g>
    </g>
    <g id="Grupo_151327" data-name="Grupo 151327" transform="translate(313.134 53.455)">
      <path id="Trazado_193503" data-name="Trazado 193503" d="M223.821,72.581l-10.578-6.105A2.914,2.914,0,0,1,212,63.483l2.3-10.334a1.391,1.391,0,0,1,2.144-1.034l10.578,6.107a2.914,2.914,0,0,1,1.247,2.991l-2.3,10.335A1.39,1.39,0,0,1,223.821,72.581Z" transform="translate(-207.849 -51.889)" fill="#ff2c9c"/>
      <path id="Trazado_193504" data-name="Trazado 193504" d="M235.851,79.527,225.273,73.42a2.914,2.914,0,0,1-1.247-2.991l2.3-10.335a1.391,1.391,0,0,1,2.144-1.032l10.578,6.105a2.917,2.917,0,0,1,1.247,2.992l-2.3,10.334A1.39,1.39,0,0,1,235.851,79.527Z" transform="translate(-201.429 -48.183)" fill="#b3e0ff"/>
      <path id="Trazado_193505" data-name="Trazado 193505" d="M221.155,84.552l-10.576-6.105a2.915,2.915,0,0,1-1.248-2.992l2.3-10.334a1.39,1.39,0,0,1,2.143-1.034l10.578,6.107a2.908,2.908,0,0,1,1.247,2.991l-2.3,10.334A1.391,1.391,0,0,1,221.155,84.552Z" transform="translate(-209.272 -45.501)" fill="#fff"/>
      <path id="Trazado_193506" data-name="Trazado 193506" d="M233.186,91.5l-10.578-6.107a2.908,2.908,0,0,1-1.247-2.991l2.3-10.335a1.391,1.391,0,0,1,2.143-1.034l10.578,6.107a2.912,2.912,0,0,1,1.247,2.992l-2.3,10.334A1.39,1.39,0,0,1,233.186,91.5Z" transform="translate(-202.852 -41.794)" fill="#396caa"/>
    </g>
  </g>
</svg>
