<svg xmlns="http://www.w3.org/2000/svg" width="580.172" height="221.708" viewBox="0 0 580.172 221.708">
  <g id="Grupo_152636" data-name="Grupo 152636" transform="translate(6731.577 1653.903)">
    <g id="Grupo_151228" data-name="Grupo 151228">
      <g id="Rectángulo_44526" data-name="Rectángulo 44526" transform="translate(-6731.577 -1621.84)" fill="none" stroke="#12263f" stroke-width="4">
        <rect width="484" height="162" rx="10" stroke="none"/>
        <rect x="2" y="2" width="480" height="158" rx="8" fill="none"/>
      </g>
      <g id="swdVQE" transform="translate(-5972.099 2987.331) rotate(-90)">
        <g id="Grupo_151223" data-name="Grupo 151223" transform="translate(4470.19 -733.799)">
          <path id="Trazado_192920" data-name="Trazado 192920" d="M4470.19-703.682c.227-1.418.388-2.851.691-4.253a29.61,29.61,0,0,1,25.374-23.037,29.634,29.634,0,0,1,32.792,25.006,29.6,29.6,0,0,1-18.623,31.96,29.639,29.639,0,0,1-38.29-17.013,29.178,29.178,0,0,1-1.82-7.822,4.62,4.62,0,0,0-.125-.578Zm29.548-26.477a28.561,28.561,0,0,0-28.529,28.528,28.555,28.555,0,0,0,28.6,28.588,28.568,28.568,0,0,0,28.536-28.591A28.573,28.573,0,0,0,4499.739-730.16Z" transform="translate(-4470.19 731.526)"/>
          <path id="Trazado_192921" data-name="Trazado 192921" d="M4957.2-733.8c1.615.269,3.25.454,4.844.821a29.569,29.569,0,0,1,22.615,26.714c.018.282.078.561.118.842v2.531c-.206,1.49-.336,2.995-.63,4.467a29.519,29.519,0,0,1-26.8,23.67,29.58,29.58,0,0,1-31.283-23.985,29.625,29.625,0,0,1,23.86-34.607c1-.177,2.011-.3,3.016-.453Zm-30.63,29.576a28.558,28.558,0,0,0,28.517,28.538,28.549,28.549,0,0,0,28.627-28.489,28.548,28.548,0,0,0-28.579-28.606A28.558,28.558,0,0,0,4926.57-704.223Z" transform="translate(-4864.875 733.799)"/>
          <path id="Trazado_192922" data-name="Trazado 192922" d="M4513.59-706.946v4.663h9.384v-4.823c1.842.577,3.588,1,5.242,1.661a26.591,26.591,0,0,1,16.614,27.116,26.811,26.811,0,0,1-3.37,10.784,1.163,1.163,0,0,1-1.185.707c-2.662-.04-5.324-.018-8.068-.018-.013.266-.035.5-.035.732,0,2.508-.011,5.017.007,7.525a.867.867,0,0,1-.49.9q-13.414,7.287-26.819,0a.87.87,0,0,1-.486-.907c.017-2.486.007-4.973.007-7.459v-.793h-.788c-2.486,0-4.973-.012-7.458.01a.948.948,0,0,1-.949-.534,26.706,26.706,0,0,1,4.356-32.316,26.564,26.564,0,0,1,13.575-7.175C4513.235-706.891,4513.344-706.905,4513.59-706.946Zm17.555,39.064h7.718c1.667,0,1.667,0,2.412-1.5a25.657,25.657,0,0,0-10.4-33.691,24.269,24.269,0,0,0-6.889-2.628v4.418h-11.422V-705.7c-.265.053-.458.083-.646.13-16.1,3.986-24.182,22.58-16.152,37.131a.959.959,0,0,0,.99.563c2.642-.023,5.284-.012,7.926-.009.233,0,.468.021.739.035,0,.3,0,.519,0,.739,0,2.664,0,5.328-.011,7.992a.757.757,0,0,0,.425.8c8.267,4.295,16.533,4.336,24.813.038a.848.848,0,0,0,.51-.886c-.021-2.62-.011-5.239-.011-7.859Z" transform="translate(-4488.77 710.662)"/>
          <path id="Trazado_192923" data-name="Trazado 192923" d="M4969.054-704.192h9.364v-4.713c.924.219,1.765.385,2.586.619a26.592,26.592,0,0,1,19.272,28.071,26.57,26.57,0,0,1-3.442,10.9.926.926,0,0,1-.934.547c-2.486-.023-4.973-.011-7.459-.01h-.792c-.013.285-.032.52-.032.756,0,2.486-.018,4.973.012,7.459a1,1,0,0,1-.613,1.032q-13.307,7.135-26.589-.027a.956.956,0,0,1-.575-.985c.026-2.464.012-4.928.012-7.393v-.8c-.273-.014-.506-.036-.74-.036-2.508,0-5.017-.011-7.526.008a.938.938,0,0,1-.944-.533,26.7,26.7,0,0,1,9.067-36.014,26.785,26.785,0,0,1,8.488-3.393c.255-.054.512-.1.845-.162ZM4968-707.607c-.257.055-.451.089-.64.138a25.63,25.63,0,0,0-10.151,5.221,25.718,25.718,0,0,0-6.106,31.674,1.242,1.242,0,0,0,1.288.757c2.53-.041,5.061-.018,7.591-.016.918,0,.921,0,.922.895,0,2.619.013,5.239-.009,7.858a.9.9,0,0,0,.556.934,25.554,25.554,0,0,0,24.579,0,.906.906,0,0,0,.558-.934c-.022-2.663.008-5.327-.023-7.991-.007-.627.207-.783.8-.777,2.6.027,5.195-.014,7.791.03a1.185,1.185,0,0,0,1.221-.754,25.843,25.843,0,0,0,2.788-8.7,25.615,25.615,0,0,0-19.027-28.2c-.2-.052-.412-.075-.643-.116,0,1.316-.016,2.556.009,3.795.01.467-.093.667-.621.663q-5.127-.034-10.255,0c-.506,0-.647-.164-.637-.65C4968.016-705.022,4968-706.262,4968-707.607Z" transform="translate(-4883.545 712.221)"/>
          <path id="Trazado_192926" data-name="Trazado 192926" d="M4653.315-608.828c0-2.641.013-5.282-.011-7.922-.005-.539.131-.73.7-.725q4.394.039,8.788,0c.53,0,.741.124.739.7q-.028,7.922,0,15.844c0,.631-.222.774-.812.768q-4.326-.04-8.654,0c-.574.005-.769-.144-.762-.741C4653.332-603.546,4653.315-606.187,4653.315-608.828Zm9.132-7.561h-8.055V-601.3h8.055Z" transform="translate(-4628.907 632.972)"/>
          <path id="Trazado_192927" data-name="Trazado 192927" d="M4795.534-510.738a3.358,3.358,0,0,1-3.43-3.386,3.453,3.453,0,0,1,3.409-3.374,3.476,3.476,0,0,1,3.409,3.389A3.377,3.377,0,0,1,4795.534-510.738Zm2.322-3.384a2.345,2.345,0,0,0-2.329-2.337,2.344,2.344,0,0,0-2.362,2.369,2.326,2.326,0,0,0,2.394,2.329A2.331,2.331,0,0,0,4797.856-514.121Z" transform="translate(-4749.217 546.315)"/>
          <path id="Trazado_192928" data-name="Trazado 192928" d="M4543.5-510.749a3.38,3.38,0,0,1-3.347-3.35,3.423,3.423,0,0,1,3.436-3.421,3.476,3.476,0,0,1,3.368,3.439A3.44,3.44,0,0,1,4543.5-510.749Zm2.391-3.343a2.353,2.353,0,0,0-2.349-2.386,2.347,2.347,0,0,0-2.344,2.321,2.322,2.322,0,0,0,2.279,2.375A2.333,2.333,0,0,0,4545.9-514.092Z" transform="translate(-4530.836 546.334)"/>
          <path id="Trazado_192929" data-name="Trazado 192929" d="M4621.627-414.166a3.339,3.339,0,0,1-3.346,3.395,3.378,3.378,0,0,1-3.4-3.288,3.442,3.442,0,0,1,3.333-3.519A3.377,3.377,0,0,1,4621.627-414.166Zm-3.384,2.349a2.361,2.361,0,0,0,2.386-2.353,2.374,2.374,0,0,0-2.33-2.348,2.366,2.366,0,0,0-2.383,2.359A2.351,2.351,0,0,0,4618.243-411.817Z" transform="translate(-4595.603 459.707)"/>
          <path id="Trazado_192930" data-name="Trazado 192930" d="M4572.366-614.633a3.361,3.361,0,0,1-3.408,3.354,3.3,3.3,0,0,1-3.371-3.369,3.418,3.418,0,0,1,3.474-3.377A3.373,3.373,0,0,1,4572.366-614.633Zm-3.387-2.347a2.344,2.344,0,0,0-2.359,2.3,2.371,2.371,0,0,0,2.352,2.392,2.351,2.351,0,0,0,2.349-2.384A2.32,2.32,0,0,0,4568.979-616.98Z" transform="translate(-4552.878 633.449)"/>
          <path id="Trazado_192931" data-name="Trazado 192931" d="M4721.03-410.784a3.323,3.323,0,0,1-3.342-3.4,3.4,3.4,0,0,1,3.385-3.386,3.5,3.5,0,0,1,3.373,3.368A3.368,3.368,0,0,1,4721.03-410.784Zm2.363-3.349a2.346,2.346,0,0,0-2.353-2.379,2.366,2.366,0,0,0-2.345,2.329,2.352,2.352,0,0,0,2.361,2.373A2.33,2.33,0,0,0,4723.394-414.133Z" transform="translate(-4684.715 459.7)"/>
          <path id="Trazado_192932" data-name="Trazado 192932" d="M4773.62-614.555a3.331,3.331,0,0,1-3.469,3.275,3.319,3.319,0,0,1-3.295-3.447,3.374,3.374,0,0,1,3.462-3.3A3.4,3.4,0,0,1,4773.62-614.555Zm-3.374-2.43a2.358,2.358,0,0,0-2.371,2.368,2.379,2.379,0,0,0,2.35,2.331,2.377,2.377,0,0,0,2.37-2.377A2.357,2.357,0,0,0,4770.247-616.985Z" transform="translate(-4727.332 633.451)"/>
          <path id="Trazado_192933" data-name="Trazado 192933" d="M4622.666-631.183c.146-.052.206-.068.261-.1.931-.463,1.729-.261,2.1.534a1.716,1.716,0,0,1-.877,2.232,1.512,1.512,0,0,1-2-.923,2.658,2.658,0,0,1,2.015-3.682c.165-.014.343.134.514.207-.141.1-.272.248-.427.278A1.862,1.862,0,0,0,4622.666-631.183Zm-.037,1.063c.011.706.413,1.187.984,1.176.538-.01.882-.458.859-1.116a.905.905,0,0,0-.929-.982A.91.91,0,0,0,4622.629-630.12Z" transform="translate(-4601.726 646.532)" fill="#fff"/>
          <path id="Trazado_192934" data-name="Trazado 192934" d="M4601.283-530.222c-.59,0-1.137,0-1.684,0-.439,0-.52-.223-.31-.543.569-.87,1.145-1.737,1.768-2.568.132-.176.476-.194.823-.321v2.72l.648.451-.61.429a3.253,3.253,0,0,1-.013.673c-.028.147-.189.268-.29.4-.111-.131-.284-.247-.318-.4A4.178,4.178,0,0,1,4601.283-530.222Zm-1.38-.557h1.353v-1.935Z" transform="translate(-4581.994 560.318)" fill="#fff"/>
          <path id="Trazado_192937" data-name="Trazado 192937" d="M4627.857-459.3c.045-.137.048-.319.141-.405a1.769,1.769,0,0,1,2-.084,1.425,1.425,0,0,1,.35,1.806,8.181,8.181,0,0,1-1.063,1.349,4.338,4.338,0,0,1-.671.515l.122.189c.5,0,1-.018,1.492.012.127.008.246.165.368.253-.11.1-.218.287-.331.29-.839.025-1.678.013-2.688.013a3.681,3.681,0,0,1,.372-.668c.406-.44.852-.843,1.258-1.282a1.59,1.59,0,0,0,.473-.708c.063-.406.128-.981-.093-1.213s-.788-.125-1.205-.138c-.115,0-.234.1-.351.156Z" transform="translate(-4606.604 496.524)" fill="#fff"/>
          <path id="Trazado_192938" data-name="Trazado 192938" d="M4737.232-458.475l-.82.377c0-.214-.051-.468.008-.5a8.133,8.133,0,0,1,1.206-.471,1.062,1.062,0,0,1,.213.492c.022,1.175.03,2.35,0,3.524,0,.178-.229.351-.351.526a1.745,1.745,0,0,1-.244-.576C4737.22-456.2,4737.232-457.3,4737.232-458.475Z" transform="translate(-4700.927 495.668)" fill="#fff"/>
          <path id="Trazado_192939" data-name="Trazado 192939" d="M5109.5-619.906h10.034v17.15H5109.5Zm9.018,16.158v-15.125H5110.5v15.125Z" transform="translate(-5024.326 635.079)"/>
          <path id="Trazado_192940" data-name="Trazado 192940" d="M5173-416.57a3.377,3.377,0,0,1,3.419-3.343,3.368,3.368,0,0,1,3.357,3.4,3.421,3.421,0,0,1-3.408,3.376A3.479,3.479,0,0,1,5173-416.57Zm1.043,0a2.358,2.358,0,0,0,2.287,2.382,2.374,2.374,0,0,0,2.414-2.33,2.351,2.351,0,0,0-2.361-2.373A2.332,2.332,0,0,0,5174.043-416.572Z" transform="translate(-5079.368 461.731)"/>
          <path id="Trazado_192941" data-name="Trazado 192941" d="M5225.778-620.661a3.349,3.349,0,0,1,3.371,3.38,3.434,3.434,0,0,1-3.4,3.384,3.369,3.369,0,0,1-3.36-3.4A3.343,3.343,0,0,1,5225.778-620.661Zm-.005,5.722a2.328,2.328,0,0,0,2.337-2.319,2.322,2.322,0,0,0-2.352-2.369,2.332,2.332,0,0,0-2.341,2.317A2.334,2.334,0,0,0,5225.772-614.938Z" transform="translate(-5122.175 635.734)"/>
          <path id="Trazado_192942" data-name="Trazado 192942" d="M5073.74-419.94a3.4,3.4,0,0,1,3.414,3.424,3.444,3.444,0,0,1-3.368,3.358,3.48,3.48,0,0,1-3.419-3.453A3.394,3.394,0,0,1,5073.74-419.94Zm2.368,3.347a2.329,2.329,0,0,0-2.336-2.322,2.34,2.34,0,0,0-2.359,2.37,2.357,2.357,0,0,0,2.34,2.33A2.35,2.35,0,0,0,5076.108-416.593Z" transform="translate(-4990.409 461.754)"/>
          <path id="Trazado_192943" data-name="Trazado 192943" d="M5021.245-617.312a3.319,3.319,0,0,1,3.4-3.346,3.41,3.41,0,0,1,3.381,3.4,3.474,3.474,0,0,1-3.435,3.365A3.347,3.347,0,0,1,5021.245-617.312Zm3.393-2.314a2.328,2.328,0,0,0-2.366,2.357,2.332,2.332,0,0,0,2.324,2.333,2.344,2.344,0,0,0,2.372-2.358A2.34,2.34,0,0,0,5024.637-619.626Z" transform="translate(-4947.831 635.732)"/>
          <path id="Trazado_192944" data-name="Trazado 192944" d="M5254.563-516.622a3.349,3.349,0,0,1-3.415,3.327,3.387,3.387,0,0,1-3.344-3.343,3.388,3.388,0,0,1,3.432-3.4A3.333,3.333,0,0,1,5254.563-516.622Zm-1.019-.03a2.365,2.365,0,0,0-2.317-2.359,2.363,2.363,0,0,0-2.4,2.339,2.38,2.38,0,0,0,2.382,2.366A2.383,2.383,0,0,0,5253.545-516.651Z" transform="translate(-5144.207 548.513)"/>
          <path id="Trazado_192945" data-name="Trazado 192945" d="M4999.094-513.383a3.386,3.386,0,0,1-3.342-3.415,3.41,3.41,0,0,1,3.352-3.35,3.341,3.341,0,0,1,3.383,3.427A3.288,3.288,0,0,1,4999.094-513.383Zm2.4-3.384a2.366,2.366,0,0,0-2.333-2.343,2.368,2.368,0,0,0-2.385,2.358,2.38,2.38,0,0,0,2.4,2.348A2.377,2.377,0,0,0,5001.489-516.767Z" transform="translate(-4925.734 548.611)"/>
          <path id="Trazado_192946" data-name="Trazado 192946" d="M5078.117-633.739c1.022-.472,1.658-.429,2.111.085a1.732,1.732,0,0,1,.068,1.991,1.529,1.529,0,0,1-2.606-.1,2.713,2.713,0,0,1,1.832-3.886c.188-.027.4.112.6.175-.162.105-.311.271-.487.305A1.82,1.82,0,0,0,5078.117-633.739Zm1.784,1.171c0-.648-.315-1-.88-1.012a.929.929,0,0,0-.96.889,1.034,1.034,0,0,0,1,1.159C5079.616-631.541,5079.905-631.9,5079.9-632.568Z" transform="translate(-4996.486 648.729)" fill="#fff"/>
          <path id="Trazado_192947" data-name="Trazado 192947" d="M5057.43-537v2.858l.668.415-.66.4a2.4,2.4,0,0,1-.013.6,1.627,1.627,0,0,1-.293.462,1.432,1.432,0,0,1-.266-.428,4.312,4.312,0,0,1-.012-.776c-.6,0-1.12.01-1.644,0s-.629-.22-.33-.66c.549-.806,1.091-1.619,1.682-2.395C5056.715-536.73,5057.036-536.8,5057.43-537Zm-1.959,2.935c1.349.169,1.349.169,1.364-1.026,0-.278,0-.556,0-.949Z" transform="translate(-4976.843 563.221)" fill="#fff"/>
          <path id="Trazado_192948" data-name="Trazado 192948" d="M5084.491-458.658h1.948c-.26.618-2.167.735-2.986.2l.426-.467a14.528,14.528,0,0,0,1.566-1.787,1.5,1.5,0,0,0,.019-1.275c-.243-.467-.787-.352-1.254-.181a1.476,1.476,0,0,1-.5,0c.093-.149.15-.352.283-.436a1.635,1.635,0,0,1,1.918.138,1.446,1.446,0,0,1,.16,1.837A25.039,25.039,0,0,1,5084.491-458.658Z" transform="translate(-5001.751 498.943)" fill="#fff"/>
          <path id="Trazado_192949" data-name="Trazado 192949" d="M5218.329-534.254a4.48,4.48,0,0,1,.7,1.144,1.154,1.154,0,0,1-.728,1.35,2.343,2.343,0,0,1-1.926-.095c-.056-.064-.088-.243-.049-.278a.5.5,0,0,1,.338-.127c.283.024.563.134.844.13a.814.814,0,0,0,.9-.791c.044-.54-.3-.8-.772-.926-.148-.038-.317,0-.459-.054-.1-.035-.17-.154-.253-.236a1.522,1.522,0,0,1,.264-.234c.071-.039.175-.013.262-.029.486-.085.889-.306.781-.865s-.568-.618-1.049-.517c-.191.04-.375.118-.722.231.056-.243.038-.471.139-.554a1.746,1.746,0,0,1,2.077.238C5219.067-535.34,5218.935-534.817,5218.329-534.254Z" transform="translate(-5116.905 562.651)" fill="#fff"/>
          <path id="Trazado_192950" data-name="Trazado 192950" d="M5196.623-635.195h-1.672c-.057.383-.1.706-.162,1.089.236.023.425.039.613.06a1.4,1.4,0,0,1,1.376,1.287,1.51,1.51,0,0,1-1.121,1.606,4.693,4.693,0,0,1-1.43-.067c-.093-.011-.166-.2-.247-.311a1.218,1.218,0,0,1,.411-.159c.261,0,.523.109.781.095a.914.914,0,0,0,.953-.912.869.869,0,0,0-.773-1c-.344-.066-.7-.072-1.13-.113.066-.563.135-1.146.206-1.728,0-.043.021-.116.043-.12a10.152,10.152,0,0,1,1.444-.267,2.427,2.427,0,0,1,.8.248Z" transform="translate(-5097.552 648.798)" fill="#fff"/>
          <path id="Trazado_192951" data-name="Trazado 192951" d="M5192.661-461.4l-.856.374c.056-.257.043-.506.132-.551a11.359,11.359,0,0,1,1.139-.447,1.872,1.872,0,0,1,.2.56c.02,1.171.025,2.342,0,3.513,0,.17-.215.336-.33.5-.1-.162-.269-.323-.271-.487C5192.649-459.055,5192.661-460.175,5192.661-461.4Z" transform="translate(-5095.668 498.232)" fill="#fff"/>
          <path id="Trazado_192952" data-name="Trazado 192952" d="M4627.093-616.62a.909.909,0,0,1,.914-.923.9.9,0,0,1,.929.982c.023.659-.322,1.106-.859,1.116C4627.506-615.433,4627.1-615.914,4627.093-616.62Z" transform="translate(-4606.189 633.031)" fill="#fff"/>
          <path id="Trazado_192953" data-name="Trazado 192953" d="M4604.617-524.672l1.353-1.935v1.935Z" transform="translate(-4586.708 554.211)" fill="#fff"/>
          <path id="Trazado_192954" data-name="Trazado 192954" d="M5084.331-619.082c.005.671-.284,1.027-.841,1.036a1.034,1.034,0,0,1-1-1.159.929.929,0,0,1,.96-.889C5084.016-620.086,5084.326-619.729,5084.331-619.082Z" transform="translate(-5000.917 635.242)" fill="#fff"/>
          <path id="Trazado_192955" data-name="Trazado 192955" d="M5060.373-527.817l1.364-1.975c0,.393,0,.671,0,.949C5061.722-527.648,5061.722-527.648,5060.373-527.817Z" transform="translate(-4981.746 556.971)" fill="#fff"/>
        </g>
      </g>
      <g id="wqustP.tif" transform="translate(-11159.439 -1484.724)">
        <g id="Grupo_151224" data-name="Grupo 151224" transform="translate(4541.864 -47.054)">
          <path id="Trazado_192956" data-name="Trazado 192956" d="M4541.864-5.659V-39.437a1.33,1.33,0,0,0,.114-.271,8.672,8.672,0,0,1,8.819-7.342q50.077-.007,100.155,0a8.7,8.7,0,0,1,8.965,8.961q.007,5.066,0,10.133,0,10.532,0,21.064a8.624,8.624,0,0,1-3.07,6.824,8.976,8.976,0,0,1-6.134,2.095q-49.832-.015-99.664-.007c-.123,0-.246,0-.369,0a8.454,8.454,0,0,1-7.646-4.417A19.358,19.358,0,0,1,4541.864-5.659Zm59.045-38.124H4582.65q-15.861,0-31.723,0c-3.439,0-5.771,2.209-5.78,5.571-.028,10.46-.01,20.919-.011,31.379a5.384,5.384,0,0,0,.744,2.875,5.587,5.587,0,0,0,5.165,2.718q49.827-.015,99.656-.007a3.453,3.453,0,0,0,.736-.019,9.482,9.482,0,0,0,2.121-.553,5.388,5.388,0,0,0,3.095-5.285q-.021-15.413-.006-30.826c0-.246-.009-.491-.022-.736a5.252,5.252,0,0,0-1.69-3.636,5.8,5.8,0,0,0-4.227-1.491Q4625.808-43.771,4600.909-43.783Z" transform="translate(-4541.864 47.054)" fill="#12263f"/>
          <path id="Trazado_192957" data-name="Trazado 192957" d="M4796.086,43.652c-7.4,0-14.8.017-22.194-.006a8.356,8.356,0,0,1-8.48-7.466q-.39-4.032-.816-8.061c-.382-3.663-.808-7.323-1.151-10.99a8.258,8.258,0,0,1,7.31-8.863,13.5,13.5,0,0,1,1.411-.074q24.285-.006,48.57,0a8.419,8.419,0,0,1,8.333,5.684,9.8,9.8,0,0,1,.137,4.906c-.86,5.581-1.719,11.162-2.5,16.755a10.6,10.6,0,0,1-1.133,4.16,8.29,8.29,0,0,1-7.6,4.236q-10.943-.016-21.887,0Zm.39-32.9q-12.079,0-24.158,0a10.721,10.721,0,0,0-1.531.1,5.731,5.731,0,0,0-4.816,5.792c.13,1.549.321,3.093.484,4.639.5,4.7,1.109,9.392,1.445,14.1a6.092,6.092,0,0,0,6.156,5.72c14.609.046,29.217.173,43.826.268.287,0,.574-.012.86-.033a5.726,5.726,0,0,0,5.216-4.542c.1-.477.1-.975.171-1.46q1.3-8.71,2.609-17.418a6.545,6.545,0,0,0-.114-3.27,5.873,5.873,0,0,0-5.808-3.9Q4808.647,10.744,4796.476,10.75Z" transform="translate(-4736.142 -1.389)" fill="#12263f"/>
          <path id="Trazado_192958" data-name="Trazado 192958" d="M4597.483,94.861a8.234,8.234,0,1,1-8.25-8.232A8.243,8.243,0,0,1,4597.483,94.861Zm-8.212-5.664a5.658,5.658,0,1,0,5.641,5.673A5.661,5.661,0,0,0,4589.271,89.2Z" transform="translate(-4576.197 -70.174)" fill="#12263f"/>
          <path id="Trazado_192959" data-name="Trazado 192959" d="M5334.979,94.864a8.232,8.232,0,1,1,8.2,8.22A8.219,8.219,0,0,1,5334.979,94.864Zm8.2-5.666a5.658,5.658,0,1,0,5.7,5.628A5.637,5.637,0,0,0,5343.176,89.2Z" transform="translate(-5237.355 -70.175)" fill="#12263f"/>
          <path id="Trazado_192960" data-name="Trazado 192960" d="M4881.767,176.049a3.263,3.263,0,1,1,3.24-3.256A3.263,3.263,0,0,1,4881.767,176.049Z" transform="translate(-4837.042 -142.866)" fill="#12263f"/>
          <path id="Trazado_192961" data-name="Trazado 192961" d="M5128.449,176.051a3.263,3.263,0,1,1,3.248-3.25A3.261,3.261,0,0,1,5128.449,176.051Z" transform="translate(-5053.368 -142.867)" fill="#12263f"/>
          <path id="Trazado_192962" data-name="Trazado 192962" d="M5079.092,78.3a3.266,3.266,0,1,1,3.235,3.258A3.275,3.275,0,0,1,5079.092,78.3Z" transform="translate(-5012.965 -59.994)" fill="#12263f"/>
          <path id="Trazado_192963" data-name="Trazado 192963" d="M5045.461,176.051a3.263,3.263,0,0,1-.023-6.526,3.263,3.263,0,1,1,.023,6.526Z" transform="translate(-4980.605 -142.867)" fill="#12263f"/>
          <path id="Trazado_192964" data-name="Trazado 192964" d="M5168.606,78.3a3.265,3.265,0,1,1-3.3-3.269A3.291,3.291,0,0,1,5168.606,78.3Z" transform="translate(-5085.736 -60.005)" fill="#12263f"/>
          <path id="Trazado_192965" data-name="Trazado 192965" d="M4915.387,78.295a3.265,3.265,0,1,1,3.234,3.262A3.283,3.283,0,0,1,4915.387,78.295Z" transform="translate(-4869.411 -59.994)" fill="#12263f"/>
          <path id="Trazado_192966" data-name="Trazado 192966" d="M4999.071,78.285a3.265,3.265,0,1,1-3.243-3.256A3.272,3.272,0,0,1,4999.071,78.285Z" transform="translate(-4937.069 -60.002)" fill="#12263f"/>
          <path id="Trazado_192967" data-name="Trazado 192967" d="M4958.912,176.049a3.263,3.263,0,1,1,3.25-3.237A3.283,3.283,0,0,1,4958.912,176.049Z" transform="translate(-4904.7 -142.866)" fill="#12263f"/>
          <path id="Trazado_192968" data-name="Trazado 192968" d="M4833.2,81.567a3.266,3.266,0,1,1,3.351-3.214A3.288,3.288,0,0,1,4833.2,81.567Z" transform="translate(-4794.542 -60.006)" fill="#12263f"/>
        </g>
      </g>
      <g id="_2oHvv9.tif" data-name="2oHvv9.tif" transform="translate(-12551.84 -1671.713)">
        <g id="Grupo_151226" data-name="Grupo 151226" transform="translate(6060.332 139.936)">
          <path id="Trazado_193015" data-name="Trazado 193015" d="M6133.686,145.375v38.072a15.833,15.833,0,0,1-1.221,2.851,6.161,6.161,0,0,1-5.524,2.556q-29.927-.014-59.855-.005c-.143,0-.286,0-.429,0a6.168,6.168,0,0,1-6.323-6.485c0-1.311,0-2.623,0-3.934q0-15.986,0-31.973a6.036,6.036,0,0,1,3.56-5.872,13.2,13.2,0,0,1,2.314-.647h61.6a1.926,1.926,0,0,0,.4.118,5.811,5.811,0,0,1,3.225,1.337A6.624,6.624,0,0,1,6133.686,145.375Zm-36.677-2.327q-15.078,0-30.158,0a3.107,3.107,0,0,0-3.47,3.435c-.007.811,0,1.622,0,2.433q0,16.674,0,33.349c0,2.244,1.182,3.5,3.328,3.5q30.3.01,60.6,0a3.063,3.063,0,0,0,3.326-3.29c.018-.882,0-1.765,0-2.648q0-16.6,0-33.205a3.625,3.625,0,0,0-.728-2.48,3.383,3.383,0,0,0-2.818-1.106Q6112.052,143.059,6097.009,143.048Z" transform="translate(-6060.332 -139.936)" fill="#12263f"/>
          <path id="Trazado_193016" data-name="Trazado 193016" d="M6178.967,242.149c-4.177,0-8.357-.063-12.533.018a7.759,7.759,0,0,1-8.038-6.492c-.793-4.019-1.555-8.045-2.245-12.083a7.73,7.73,0,0,1,7.524-8.916q15.291-.031,30.581,0a7.719,7.719,0,0,1,7.55,8.952c-.748,4.292-1.513,8.587-2.482,12.833a7.321,7.321,0,0,1-7.4,5.686C6187.609,242.161,6183.288,242.149,6178.967,242.149Zm.095-24.437c-4.964,0-9.927-.007-14.892.009a6.334,6.334,0,0,0-1.762.215c-2.38.707-3.662,3.082-3.156,5.818q1.044,5.654,2.131,11.3a4.653,4.653,0,0,0,4.923,4.05q12.672,0,25.344,0a4.649,4.649,0,0,0,4.932-4.039c.726-3.764,1.422-7.534,2.137-11.3a4.869,4.869,0,0,0-5.053-6.08C6188.8,217.792,6183.931,217.712,6179.062,217.712Z" transform="translate(-6142.307 -203.934)" fill="#12263f"/>
          <path id="Trazado_193017" data-name="Trazado 193017" d="M6109.143,292.352a3.035,3.035,0,1,1-3.027-3.041A3.006,3.006,0,0,1,6109.143,292.352Z" transform="translate(-6096.937 -267.869)" fill="#12263f"/>
          <path id="Trazado_193018" data-name="Trazado 193018" d="M6492.395,292.348a3.036,3.036,0,1,1-3.031-3.037A3.006,3.006,0,0,1,6492.395,292.348Z" transform="translate(-6425.173 -267.869)" fill="#12263f"/>
          <path id="Trazado_193019" data-name="Trazado 193019" d="M6276.407,301.46a1.509,1.509,0,1,1-1.469-1.53A1.53,1.53,0,0,1,6276.407,301.46Z" transform="translate(-6242.805 -276.963)" fill="#12263f"/>
          <path id="Trazado_193020" data-name="Trazado 193020" d="M6402.673,299.932a1.508,1.508,0,1,1-1.535,1.465A1.532,1.532,0,0,1,6402.673,299.932Z" transform="translate(-6352.216 -276.965)" fill="#12263f"/>
          <path id="Trazado_193021" data-name="Trazado 193021" d="M6255.06,258.915a1.524,1.524,0,0,1-1.453,1.542,1.564,1.564,0,0,1-1.564-1.52,1.531,1.531,0,0,1,1.507-1.494A1.486,1.486,0,0,1,6255.06,258.915Z" transform="translate(-6224.523 -240.575)" fill="#12263f"/>
          <path id="Trazado_193022" data-name="Trazado 193022" d="M6294.75,258.92a1.486,1.486,0,0,1,1.505-1.476,1.529,1.529,0,0,1,1.511,1.489,1.562,1.562,0,0,1-1.558,1.525A1.525,1.525,0,0,1,6294.75,258.92Z" transform="translate(-6261.099 -240.576)" fill="#12263f"/>
          <path id="Trazado_193023" data-name="Trazado 193023" d="M6381.343,257.457a1.486,1.486,0,0,1,1.477,1.505,1.529,1.529,0,0,1-1.492,1.509,1.563,1.563,0,0,1-1.525-1.558A1.525,1.525,0,0,1,6381.343,257.457Z" transform="translate(-6333.943 -240.587)" fill="#12263f"/>
          <path id="Trazado_193024" data-name="Trazado 193024" d="M6253.586,345.435a1.526,1.526,0,0,1-1.535-1.462,1.563,1.563,0,0,1,1.532-1.552,1.528,1.528,0,0,1,1.486,1.514A1.487,1.487,0,0,1,6253.586,345.435Z" transform="translate(-6224.53 -313.354)" fill="#12263f"/>
          <path id="Trazado_193025" data-name="Trazado 193025" d="M6296.24,345.432a1.489,1.489,0,0,1-1.5-1.487,1.527,1.527,0,0,1,1.542-1.528,1.569,1.569,0,0,1,1.476,1.538A1.525,1.525,0,0,1,6296.24,345.432Z" transform="translate(-6261.096 -313.351)" fill="#12263f"/>
          <path id="Trazado_193026" data-name="Trazado 193026" d="M6382.811,343.966a1.486,1.486,0,0,1-1.507,1.475,1.529,1.529,0,0,1-1.51-1.49,1.563,1.563,0,0,1,1.559-1.524A1.525,1.525,0,0,1,6382.811,343.966Z" transform="translate(-6333.937 -313.359)" fill="#12263f"/>
          <path id="Trazado_193027" data-name="Trazado 193027" d="M6210.969,257.459a1.5,1.5,0,0,1,1.536,1.455,1.511,1.511,0,1,1-3.022.054A1.513,1.513,0,0,1,6210.969,257.459Z" transform="translate(-6188.072 -240.589)" fill="#12263f"/>
          <path id="Trazado_193028" data-name="Trazado 193028" d="M6338.757,257.46a1.506,1.506,0,0,1,1.516,1.477,1.511,1.511,0,1,1-3.022.01A1.507,1.507,0,0,1,6338.757,257.46Z" transform="translate(-6297.5 -240.59)" fill="#12263f"/>
          <path id="Trazado_193029" data-name="Trazado 193029" d="M6230.875,301.372a1.516,1.516,0,0,1,1.517-1.479,1.51,1.51,0,1,1-.068,3.019A1.5,1.5,0,0,1,6230.875,301.372Z" transform="translate(-6206.394 -276.931)" fill="#12263f"/>
          <path id="Trazado_193030" data-name="Trazado 193030" d="M6318.941,301.379a1.5,1.5,0,0,1-1.453,1.536,1.51,1.51,0,1,1-.06-3.02A1.515,1.515,0,0,1,6318.941,301.379Z" transform="translate(-6279.235 -276.934)" fill="#12263f"/>
          <path id="Trazado_193031" data-name="Trazado 193031" d="M6360.055,302.982a1.5,1.5,0,1,1,.211-3,1.5,1.5,0,0,1-.211,3Z" transform="translate(-6315.823 -277.006)" fill="#12263f"/>
          <path id="Trazado_193032" data-name="Trazado 193032" d="M6211.052,345.438a1.5,1.5,0,0,1-1.534-1.457,1.512,1.512,0,1,1,3.023-.049A1.512,1.512,0,0,1,6211.052,345.438Z" transform="translate(-6188.102 -313.358)" fill="#12263f"/>
          <path id="Trazado_193033" data-name="Trazado 193033" d="M6338.714,345.438a1.515,1.515,0,0,1-1.485-1.512,1.512,1.512,0,1,1,3.022.06A1.5,1.5,0,0,1,6338.714,345.438Z" transform="translate(-6297.482 -313.358)" fill="#12263f"/>
        </g>
      </g>
      <g id="rcJnib.tif" transform="translate(-11346.877 -2054.909)">
        <g id="Grupo_151225" data-name="Grupo 151225" transform="translate(4729.302 452.148)">
          <path id="Trazado_192969" data-name="Trazado 192969" d="M4927.887,460.35v40.638c-.194.052-.142.224-.172.355a9.554,9.554,0,0,1-9.754,7.767c-39.912,0-138.825,0-178.738,0a9.561,9.561,0,0,1-9.919-9.935q0-9.47,0-18.94,0-9.144,0-18.287a9.491,9.491,0,0,1,2.381-6.518,9.783,9.783,0,0,1,7.758-3.281c39.768.014,138.535.009,178.3.009.146,0,.291,0,.437,0a9.591,9.591,0,0,1,9.513,7.622C4927.736,459.971,4927.616,460.233,4927.887,460.35Zm-2.316,40.062a1.693,1.693,0,0,0,.121-.99q.008-18.79,0-37.58a1.594,1.594,0,0,0-.114-.92,6.865,6.865,0,0,0-2.471-4.762,7.833,7.833,0,0,0-5.376-1.789c-39.758.018-138.517.014-178.275.014-.387,0-.775,0-1.163.015a7.3,7.3,0,0,0-6.685,6.522,1.418,1.418,0,0,0-.113.847q-.006,18.862,0,37.725a1.515,1.515,0,0,0,.12.918,7.231,7.231,0,0,0,6.4,6.395,1.666,1.666,0,0,0,1.024.086c.314.011.628.031.943.031,39.405,0,137.811,0,177.215,0,.314,0,.629-.02.943-.031a1.666,1.666,0,0,0,1.024-.086A7.231,7.231,0,0,0,4925.571,500.412Z" transform="translate(-4729.302 -452.148)" fill="#12263f"/>
          <path id="Trazado_192970" data-name="Trazado 192970" d="M4744.409,512.417c.247.207.16.492.16.746q.005,19,0,37.993c0,.255.087.539-.151.75a1.508,1.508,0,0,1-.12-.918q-.008-18.862,0-37.725A1.418,1.418,0,0,1,4744.409,512.417Z" transform="translate(-4742.103 -503.643)" fill="#474747"/>
          <path id="Trazado_192972" data-name="Trazado 192972" d="M4789.179,826.493c.362-.21.715-.317,1.024.086A1.67,1.67,0,0,1,4789.179,826.493Z" transform="translate(-4780.461 -771.834)" fill="#474747"/>
          <path id="Trazado_192973" data-name="Trazado 192973" d="M5621.167,826.579c.31-.4.663-.3,1.025-.086A1.669,1.669,0,0,1,5621.167,826.579Z" transform="translate(-5491.325 -771.835)" fill="#474747"/>
          <path id="Trazado_192974" data-name="Trazado 192974" d="M4827.3,517.273l2.9,0h5.825q11.256,0,22.511-.013c1.5,0,3-.067,4.5-.1l22.284-.028q4.8,0,9.592,0c9.691-.009,78.382-.005,88.073-.049a26.487,26.487,0,0,1,4.7.176c4.1.716,5.9,3.408,4.983,7.5-1.079,4.8-2.221,9.589-3.343,14.381-.884,3.781-1.682,7.581-2.827,11.3-1.049,3.409-3.2,5.121-7.146,5.285-.339.014-.677.026-1.016.039h-2.318c-3.187-.013-65.375-.031-68.563-.038q-6.341-.012-12.682-.009c-2.71-.07-5.42-.013-8.132-.09-3.122-.088-6.248-.031-9.372-.032a1.859,1.859,0,0,0-.859.076c-7.45-.158-14.9-.09-22.351-.1-2.733-.073-5.467-.01-8.2-.089-3.048-.089-6.1-.03-9.15-.035a2.176,2.176,0,0,0-.86.089l-2.283-.125-.144-.045c-3.449-.818-5.46-3.219-6.841-6.267-1.146-2.528-1.494-5.284-2.122-7.956-1.292-5.492-2.581-10.987-3.744-16.507-.427-2.028-.261-4.079,1.449-5.63a7.024,7.024,0,0,1,3.9-1.593,4.787,4.787,0,0,0,.485-.119Zm6.828,34.658c2.627.032,5.254.072,7.882.094,1.3.011,2.6-.013,3.9-.02a3.4,3.4,0,0,0,1.158.01.565.565,0,0,0,.441,0l12.647.055h1.745c.1.008.192.024.288.024q11.893.049,23.788.095c.167,0,.333-.029.5-.044a3.409,3.409,0,0,0,1.159.01.566.566,0,0,0,.441,0c5.572.1,11.145.081,16.718.059,4.778.023,68.556.048,73.334.066.457,0,.915-.046,1.372-.071a.909.909,0,0,0,.6-.087l.422-.058a.293.293,0,0,0,.307-.085,2.506,2.506,0,0,0,2.123-1.926c.487-1.487.975-2.981,1.337-4.5,1.673-7.011,3.164-14.065,4.9-21.063a3.911,3.911,0,0,0-.012-2.761c-.545-.918-1.495-.968-2.4-1.114l-.435-.024a6.18,6.18,0,0,0-1.584-.1q-4.964.018-9.93.048c-2.415.015-63.83.038-66.244.058l-11.2.017c-.192-.008-.386-.022-.579-.022q-13.208.033-26.417.07c-3.846.013-7.691.052-11.537.08l-11.195.017q-10.151,0-20.3,0a4.95,4.95,0,0,0-.782.124l-.289.023a2.09,2.09,0,0,0-1.021.265.605.605,0,0,0-.433.179c-1.009.586-.869,1.512-.728,2.439l.02.29a3.116,3.116,0,0,0,.267,1.163,2.366,2.366,0,0,0,.031.359q2.107,9.193,4.219,18.384a14.83,14.83,0,0,0,1.935,5.253,5.662,5.662,0,0,0,3.245,2.62C4833.9,551.984,4834.014,551.953,4834.128,551.93Z" transform="translate(-4807.231 -507.611)" fill="#12263f"/>
          <path id="Trazado_192975" data-name="Trazado 192975" d="M5602.324,630.687a4.184,4.184,0,0,1-4.191-4.346,4.23,4.23,0,0,1,4.33-4.227,4.287,4.287,0,1,1-.139,8.573Zm-3.887-4.271a3.983,3.983,0,0,0,7.966.03,3.983,3.983,0,1,0-7.966-.03Z" transform="translate(-5411.644 -597.37)" fill="#12263f"/>
          <path id="Trazado_192976" data-name="Trazado 192976" d="M4759.5,630.685a4.221,4.221,0,0,1-4.283-4.271,4.3,4.3,0,1,1,8.591.034A4.2,4.2,0,0,1,4759.5,630.685Zm-.017-.3a3.98,3.98,0,1,0-3.958-3.99A4,4,0,0,0,4759.487,630.384Z" transform="translate(-4751.447 -597.368)" fill="#12263f"/>
          <path id="Trazado_192983" data-name="Trazado 192983" d="M4909.153,780.179l.144.045C4909.2,780.353,4909.17,780.29,4909.153,780.179Z" transform="translate(-4882.969 -732.423)" fill="#555"/>
          <path id="Trazado_192988" data-name="Trazado 192988" d="M5284.61,756.853c.129-.311.406-.207.63-.207q7.717-.007,15.433,0c.241,0,.559-.122.655.264C5295.755,756.933,5290.182,756.949,5284.61,756.853Z" transform="translate(-5203.766 -712.301)" fill="#fcfcfc"/>
          <path id="Trazado_192989" data-name="Trazado 192989" d="M5005.961,755.85c.129-.31.406-.206.628-.207q5.681-.008,11.362,0c.24,0,.558-.123.656.261Z" transform="translate(-4965.683 -711.444)" fill="#fcfcfc"/>
          <path id="Trazado_192994" data-name="Trazado 192994" d="M4994.975,755.672a.81.81,0,0,1,1.158.01A3.406,3.406,0,0,1,4994.975,755.672Z" transform="translate(-4956.296 -711.279)" fill="#fcfcfc"/>
          <path id="Trazado_192995" data-name="Trazado 192995" d="M5096.84,755.741a.7.7,0,0,1,1.161,0Z" transform="translate(-5043.332 -711.28)" fill="#fcfcfc"/>
          <path id="Trazado_192996" data-name="Trazado 192996" d="M5273.624,756.668a.81.81,0,0,1,1.158.01A3.407,3.407,0,0,1,5273.624,756.668Z" transform="translate(-5194.378 -712.13)" fill="#fcfcfc"/>
          <path id="Trazado_192997" data-name="Trazado 192997" d="M5507.324,756.906c.145-.394.359-.317.6-.087A.91.91,0,0,1,5507.324,756.906Z" transform="translate(-5394.055 -712.301)" fill="#fcfcfc"/>
          <path id="Trazado_192998" data-name="Trazado 192998" d="M4911.894,755.191c.162-.248.258-.184.313.067C4912.094,755.28,4911.978,755.311,4911.894,755.191Z" transform="translate(-4885.312 -710.938)" fill="#fcfcfc"/>
          <path id="Trazado_192999" data-name="Trazado 192999" d="M5514.314,756.243c.05-.217.13-.325.306-.085A.292.292,0,0,1,5514.314,756.243Z" transform="translate(-5400.028 -711.783)" fill="#fcfcfc"/>
          <path id="Trazado_193000" data-name="Trazado 193000" d="M5189.281,666a3.73,3.73,0,1,1-3.754-3.72A3.761,3.761,0,0,1,5189.281,666Z" transform="translate(-5115.941 -631.685)" fill="#12263f"/>
          <path id="Trazado_193001" data-name="Trazado 193001" d="M5026.018,666.01a3.729,3.729,0,1,1-3.77-3.718A3.791,3.791,0,0,1,5026.018,666.01Z" transform="translate(-4976.449 -631.698)" fill="#12263f"/>
          <path id="Trazado_193002" data-name="Trazado 193002" d="M4988.659,593.063a3.713,3.713,0,1,1-3.746,3.7A3.7,3.7,0,0,1,4988.659,593.063Z" transform="translate(-4947.7 -572.547)" fill="#12263f"/>
          <path id="Trazado_193003" data-name="Trazado 193003" d="M5351.1,665.906a3.745,3.745,0,0,1-3.633,3.83,3.732,3.732,0,1,1,3.633-3.83Z" transform="translate(-5254.207 -631.681)" fill="#12263f"/>
          <path id="Trazado_193039" data-name="Trazado 193039" d="M5351.1,665.906a3.745,3.745,0,0,1-3.633,3.83,3.732,3.732,0,1,1,3.633-3.83Z" transform="translate(-5219.762 -631.681)" fill="#12263f"/>
          <path id="Trazado_193044" data-name="Trazado 193044" d="M5351.1,665.906a3.745,3.745,0,0,1-3.633,3.83,3.732,3.732,0,1,1,3.633-3.83Z" transform="translate(-5183.033 -631.681)" fill="#12263f"/>
          <path id="Trazado_193004" data-name="Trazado 193004" d="M5109.291,665.993a3.722,3.722,0,1,1-3.75-3.717A3.745,3.745,0,0,1,5109.291,665.993Z" transform="translate(-5047.609 -631.684)" fill="#12263f"/>
          <path id="Trazado_193005" data-name="Trazado 193005" d="M5146.477,593.062a3.713,3.713,0,1,1-3.745,3.7A3.7,3.7,0,0,1,5146.477,593.062Z" transform="translate(-5082.542 -572.547)" fill="#12263f"/>
          <path id="Trazado_193006" data-name="Trazado 193006" d="M5260.458,666.006a3.719,3.719,0,1,1,3.725,3.74A3.746,3.746,0,0,1,5260.458,666.006Z" transform="translate(-5183.129 -631.685)" fill="#12263f"/>
          <path id="Trazado_193042" data-name="Trazado 193042" d="M5260.458,666.006a3.719,3.719,0,1,1,3.725,3.74A3.746,3.746,0,0,1,5260.458,666.006Z" transform="translate(-5148.685 -631.685)" fill="#12263f"/>
          <path id="Trazado_193048" data-name="Trazado 193048" d="M5260.458,666.006a3.719,3.719,0,1,1,3.725,3.74A3.746,3.746,0,0,1,5260.458,666.006Z" transform="translate(-5111.956 -631.685)" fill="#12263f"/>
          <path id="Trazado_193007" data-name="Trazado 193007" d="M4951.484,666a3.72,3.72,0,1,1-3.745-3.72A3.747,3.747,0,0,1,4951.484,666Z" transform="translate(-4912.781 -631.687)" fill="#12263f"/>
          <path id="Trazado_193008" data-name="Trazado 193008" d="M5230.135,596.757a3.723,3.723,0,1,1-3.739-3.7A3.718,3.718,0,0,1,5230.135,596.757Z" transform="translate(-5150.86 -572.541)" fill="#12263f"/>
          <path id="Trazado_193009" data-name="Trazado 193009" d="M5388.2,593.057a3.713,3.713,0,1,1,.028,7.426,3.713,3.713,0,0,1-.028-7.426Z" transform="translate(-5289.115 -572.543)" fill="#12263f"/>
          <path id="Trazado_193040" data-name="Trazado 193040" d="M5388.2,593.057a3.713,3.713,0,1,1,.028,7.426,3.713,3.713,0,0,1-.028-7.426Z" transform="translate(-5254.671 -572.543)" fill="#12263f"/>
          <path id="Trazado_193043" data-name="Trazado 193043" d="M5388.2,593.057a3.713,3.713,0,1,1,.028,7.426,3.713,3.713,0,0,1-.028-7.426Z" transform="translate(-5217.942 -572.543)" fill="#12263f"/>
          <path id="Trazado_193010" data-name="Trazado 193010" d="M5063.021,593.067a3.712,3.712,0,1,1-3.765,3.7A3.746,3.746,0,0,1,5063.021,593.067Z" transform="translate(-5011.22 -572.551)" fill="#12263f"/>
          <path id="Trazado_193011" data-name="Trazado 193011" d="M5468.237,593.069a3.712,3.712,0,1,1-.085,7.423,3.712,3.712,0,1,1,.085-7.423Z" transform="translate(-5357.444 -572.553)" fill="#12263f"/>
          <path id="Trazado_193037" data-name="Trazado 193037" d="M5468.237,593.069a3.712,3.712,0,1,1-.085,7.423,3.712,3.712,0,1,1,.085-7.423Z" transform="translate(-5323 -572.553)" fill="#12263f"/>
          <path id="Trazado_193012" data-name="Trazado 193012" d="M4906.349,593.064a3.712,3.712,0,1,1-3.741,3.713A3.742,3.742,0,0,1,4906.349,593.064Z" transform="translate(-4877.376 -572.549)" fill="#12263f"/>
          <path id="Trazado_193013" data-name="Trazado 193013" d="M5304.918,593.071a3.712,3.712,0,1,1-3.682,3.76A3.7,3.7,0,0,1,5304.918,593.071Z" transform="translate(-5217.971 -572.555)" fill="#12263f"/>
          <path id="Trazado_193041" data-name="Trazado 193041" d="M5304.918,593.071a3.712,3.712,0,1,1-3.682,3.76A3.7,3.7,0,0,1,5304.918,593.071Z" transform="translate(-5183.526 -572.555)" fill="#12263f"/>
          <path id="Trazado_193047" data-name="Trazado 193047" d="M5304.918,593.071a3.712,3.712,0,1,1-3.682,3.76A3.7,3.7,0,0,1,5304.918,593.071Z" transform="translate(-5146.797 -572.555)" fill="#12263f"/>
          <path id="Trazado_193014" data-name="Trazado 193014" d="M5427.381,669.752a3.732,3.732,0,1,1,3.747-3.74A3.8,3.8,0,0,1,5427.381,669.752Z" transform="translate(-5322.563 -631.693)" fill="#12263f"/>
          <path id="Trazado_193038" data-name="Trazado 193038" d="M5427.381,669.752a3.732,3.732,0,1,1,3.747-3.74A3.8,3.8,0,0,1,5427.381,669.752Z" transform="translate(-5288.118 -631.693)" fill="#12263f"/>
        </g>
      </g>
      <g id="L6Getv.tif" transform="translate(-12572.164 -2167.396)">
        <g id="Grupo_151227" data-name="Grupo 151227" transform="translate(6200.835 635.666)">
          <path id="Trazado_193035" data-name="Trazado 193035" d="M6270.309,679.254c7.05,0,14.1.01,21.152-.006a4.265,4.265,0,0,1,4.23,2.414,5.018,5.018,0,0,1,.465,2.069c.04,4.664.031,9.328.017,13.992a4.278,4.278,0,0,1-4.375,4.467c-1.392.037-2.785.009-4.177.009q-19.2,0-38.4.008a4.554,4.554,0,0,1-3.854-1.667,4.305,4.305,0,0,1-.926-2.749c-.005-4.709-.021-9.418,0-14.126a4.3,4.3,0,0,1,4.641-4.405q8.185-.016,16.37,0Zm-.07,20.082h21.075c1.519,0,2-.483,2-2.019q0-6.589,0-13.178c0-1.538-.48-2.023-2-2.023H6249.3c-1.52,0-2,.483-2,2.019q0,6.589,0,13.178c0,1.558.476,2.024,2.062,2.024Z" transform="translate(-6244.434 -679.248)" fill="#12263f"/>
          <path id="Trazado_193036" data-name="Trazado 193036" d="M6307.241,721.673q9.054,0,18.11.009a3.291,3.291,0,0,1,1.234.225,1.262,1.262,0,0,1,.732,1.263c.005,1.882.022,3.765-.006,5.647a1.375,1.375,0,0,1-1.5,1.458c-1.211.028-2.423.018-3.634,0-.375,0-.594.044-.71.49a1.392,1.392,0,0,1-2.638-.023c-.107-.407-.3-.47-.66-.467q-2.323.019-4.645,0c-.347,0-.564.033-.67.454a1.268,1.268,0,0,1-1.3.971,1.286,1.286,0,0,1-1.356-.989c-.1-.376-.283-.439-.614-.437-1.571.011-3.142.014-4.713,0a.551.551,0,0,0-.645.487,1.394,1.394,0,0,1-2.642-.012c-.109-.4-.293-.477-.655-.473-1.548.014-3.1.011-4.646,0-.342,0-.567.025-.672.45a1.266,1.266,0,0,1-1.3.974,1.288,1.288,0,0,1-1.36-.983c-.1-.371-.273-.446-.61-.442q-1.751.02-3.5,0c-1.208-.011-1.722-.517-1.73-1.716-.012-1.7-.009-3.406,0-5.109.007-1.276.543-1.781,1.888-1.781Q6298.118,721.669,6307.241,721.673Zm-17.25,5.7h34.424v-2.762h-34.424Z" transform="translate(-6281.341 -715.945)" fill="#12263f"/>
        </g>
      </g>
      <g id="L6Getv.tif-2" data-name="L6Getv.tif" transform="translate(-12572.164 -2141.323)">
        <g id="Grupo_151227-2" data-name="Grupo 151227" transform="translate(6200.835 635.666)">
          <path id="Trazado_193035-2" data-name="Trazado 193035" d="M6270.309,679.254c7.05,0,14.1.01,21.152-.006a4.265,4.265,0,0,1,4.23,2.414,5.018,5.018,0,0,1,.465,2.069c.04,4.664.031,9.328.017,13.992a4.278,4.278,0,0,1-4.375,4.467c-1.392.037-2.785.009-4.177.009q-19.2,0-38.4.008a4.554,4.554,0,0,1-3.854-1.667,4.305,4.305,0,0,1-.926-2.749c-.005-4.709-.021-9.418,0-14.126a4.3,4.3,0,0,1,4.641-4.405q8.185-.016,16.37,0Zm-.07,20.082h21.075c1.519,0,2-.483,2-2.019q0-6.589,0-13.178c0-1.538-.48-2.023-2-2.023H6249.3c-1.52,0-2,.483-2,2.019q0,6.589,0,13.178c0,1.558.476,2.024,2.062,2.024Z" transform="translate(-6244.434 -679.248)" fill="#12263f"/>
          <path id="Trazado_193036-2" data-name="Trazado 193036" d="M6307.241,721.673q9.054,0,18.11.009a3.291,3.291,0,0,1,1.234.225,1.262,1.262,0,0,1,.732,1.263c.005,1.882.022,3.765-.006,5.647a1.375,1.375,0,0,1-1.5,1.458c-1.211.028-2.423.018-3.634,0-.375,0-.594.044-.71.49a1.392,1.392,0,0,1-2.638-.023c-.107-.407-.3-.47-.66-.467q-2.323.019-4.645,0c-.347,0-.564.033-.67.454a1.268,1.268,0,0,1-1.3.971,1.286,1.286,0,0,1-1.356-.989c-.1-.376-.283-.439-.614-.437-1.571.011-3.142.014-4.713,0a.551.551,0,0,0-.645.487,1.394,1.394,0,0,1-2.642-.012c-.109-.4-.293-.477-.655-.473-1.548.014-3.1.011-4.646,0-.342,0-.567.025-.672.45a1.266,1.266,0,0,1-1.3.974,1.288,1.288,0,0,1-1.36-.983c-.1-.371-.273-.446-.61-.442q-1.751.02-3.5,0c-1.208-.011-1.722-.517-1.73-1.716-.012-1.7-.009-3.406,0-5.109.007-1.276.543-1.781,1.888-1.781Q6298.118,721.669,6307.241,721.673Zm-17.25,5.7h34.424v-2.762h-34.424Z" transform="translate(-6281.341 -715.945)" fill="#12263f"/>
        </g>
      </g>
      <g id="FVuvf5" transform="translate(-6370.744 -1592.597)">
        <g id="Grupo_151212" data-name="Grupo 151212" transform="translate(-0.584 0)">
          <path id="Trazado_192912" data-name="Trazado 192912" d="M4060.744-586.5h-51.751v-51.753h51.751Zm-2.952-2.983c0-.4,0-.7,0-1q0-5.353-.007-10.706,0-16.609.021-33.218c0-.658-.122-.919-.858-.918q-22.092.032-44.186,0c-.665,0-.842.188-.842.849q.028,22.048.018,44.1c0,.294.027.588.042.9Z" transform="translate(-4008.993 638.249)" fill="#12263f"/>
          <path id="Trazado_192913" data-name="Trazado 192913" d="M4063.988-516.957v-24.416h6.051v-6.055h21.248v6.023h6.029v24.448Zm3-12.13h27.335v-9.327h-6.077v-6.006h-15.22v6.04h-6.038Zm.006,3.055v6.127c.906,0,1.739.029,2.566-.023a.7.7,0,0,0,.466-.493q.073-2.547.042-5.1a.692.692,0,0,0-.465-.491C4068.752-526.059,4067.9-526.031,4066.995-526.031Zm21.246,6.077v-6.012h-3v6.012Zm3.1-6.051v6.046h2.992v-6.046Zm-18.3-.042c0,1.951-.011,3.781.016,5.611,0,.179.226.5.36.509.876.046,1.755.024,2.7.024,0-1.982.013-3.838-.024-5.694,0-.153-.334-.417-.526-.429C4074.77-526.076,4073.968-526.048,4073.044-526.048Zm6.051,6.07h3.049v-6.053c-.9,0-1.757-.023-2.606.021a.631.631,0,0,0-.424.445C4079.084-523.712,4079.1-521.859,4079.1-519.978Z" transform="translate(-4054.308 562.629)" fill="#12263f"/>
          <path id="Trazado_192914" data-name="Trazado 192914" d="M4121.662-601.773v2.866h-21.153v-2.866Z" transform="translate(-4084.716 607.878)" fill="#12263f"/>
        </g>
      </g>
      <circle id="Elipse_5017" data-name="Elipse 5017" cx="9" cy="9" r="9" transform="translate(-6295.577 -1509.84)" fill="#12263f"/>
      <circle id="Elipse_5018" data-name="Elipse 5018" cx="9" cy="9" r="9" transform="translate(-6295.577 -1546.84)" fill="#12263f"/>
      <circle id="Elipse_5019" data-name="Elipse 5019" cx="9" cy="9" r="9" transform="translate(-6295.577 -1581.84)" fill="#12263f"/>
      <g id="Elipse_5020" data-name="Elipse 5020" transform="translate(-6298.577 -1512.84)" fill="none" stroke="#12263f" stroke-width="1">
        <circle cx="12" cy="12" r="12" stroke="none"/>
        <circle cx="12" cy="12" r="11.5" fill="none"/>
      </g>
      <g id="Elipse_5021" data-name="Elipse 5021" transform="translate(-6298.577 -1549.84)" fill="none" stroke="#12263f" stroke-width="1">
        <circle cx="12" cy="12" r="12" stroke="none"/>
        <circle cx="12" cy="12" r="11.5" fill="none"/>
      </g>
      <g id="Elipse_5022" data-name="Elipse 5022" transform="translate(-6298.577 -1584.84)" fill="none" stroke="#12263f" stroke-width="1">
        <circle cx="12" cy="12" r="12" stroke="none"/>
        <circle cx="12" cy="12" r="11.5" fill="none"/>
      </g>
      <path id="Trazado_195419" data-name="Trazado 195419" d="M-34.819-4.175V0h-1.406V-10.664h3.933a3.952,3.952,0,0,1,2.743.894A3.029,3.029,0,0,1-28.557-7.4a2.989,2.989,0,0,1-.97,2.391,4.128,4.128,0,0,1-2.78.839Zm0-1.15h2.527a2.526,2.526,0,0,0,1.729-.532,1.945,1.945,0,0,0,.6-1.537,2.009,2.009,0,0,0-.6-1.526,2.367,2.367,0,0,0-1.648-.594h-2.607ZM-22.083-.784A2.878,2.878,0,0,1-24.4.146a2.464,2.464,0,0,1-1.93-.736A3.186,3.186,0,0,1-27-2.769V-7.925h1.355v5.12q0,1.8,1.465,1.8a2.028,2.028,0,0,0,2.065-1.157V-7.925h1.355V0h-1.289Zm6.665.93A3.463,3.463,0,0,1-18.04-.912,3.928,3.928,0,0,1-19.05-3.743v-.249A4.756,4.756,0,0,1-18.6-6.1a3.514,3.514,0,0,1,1.26-1.45,3.167,3.167,0,0,1,1.754-.524,2.968,2.968,0,0,1,2.4,1.018,4.408,4.408,0,0,1,.857,2.915v.564H-17.7a2.817,2.817,0,0,0,.685,1.893,2.153,2.153,0,0,0,1.666.721,2.36,2.36,0,0,0,1.216-.293,3.055,3.055,0,0,0,.872-.776l.828.645A3.328,3.328,0,0,1-15.417.146Zm-.168-7.1a1.807,1.807,0,0,0-1.377.6,2.9,2.9,0,0,0-.688,1.674h3.97v-.1a2.581,2.581,0,0,0-.557-1.6A1.7,1.7,0,0,0-15.586-6.958Zm8.657.249A4.061,4.061,0,0,0-7.6-6.76,1.786,1.786,0,0,0-9.4-5.625V0h-1.355V-7.925h1.318l.022.916a2.11,2.11,0,0,1,1.89-1.062,1.384,1.384,0,0,1,.6.1Zm3.45-3.135v1.919H-2v1.047H-3.479v4.921a1.1,1.1,0,0,0,.2.715A.832.832,0,0,0-2.607-1a3.281,3.281,0,0,0,.645-.088V0A3.951,3.951,0,0,1-3,.146,1.687,1.687,0,0,1-4.373-.4a2.36,2.36,0,0,1-.461-1.56V-6.877H-6.277V-7.925h1.443V-9.844ZM-.923-4.036A4.681,4.681,0,0,1-.465-6.13,3.415,3.415,0,0,1,.809-7.566a3.469,3.469,0,0,1,1.864-.505A3.342,3.342,0,0,1,5.292-6.951a4.311,4.311,0,0,1,1,2.981v.1A4.722,4.722,0,0,1,5.848-1.8,3.365,3.365,0,0,1,4.581-.366,3.509,3.509,0,0,1,2.688.146,3.334,3.334,0,0,1,.077-.974a4.29,4.29,0,0,1-1-2.966Zm1.362.161a3.39,3.39,0,0,0,.612,2.117,1.957,1.957,0,0,0,1.637.8,1.945,1.945,0,0,0,1.641-.809,3.707,3.707,0,0,0,.608-2.267,3.384,3.384,0,0,0-.619-2.113,1.968,1.968,0,0,0-1.644-.809,1.946,1.946,0,0,0-1.619.8A3.68,3.68,0,0,0,.439-3.875Zm12.883-.3V0H11.917V-10.664H15.85a3.952,3.952,0,0,1,2.743.894A3.029,3.029,0,0,1,19.585-7.4a2.989,2.989,0,0,1-.97,2.391,4.128,4.128,0,0,1-2.78.839Zm0-1.15H15.85a2.526,2.526,0,0,0,1.729-.532,1.945,1.945,0,0,0,.6-1.537,2.009,2.009,0,0,0-.6-1.526,2.367,2.367,0,0,0-1.648-.594H13.323Zm11.2.571a6.612,6.612,0,0,1-2.633-1.278A2.442,2.442,0,0,1,21.064-7.9a2.58,2.58,0,0,1,1.007-2.084,4,4,0,0,1,2.618-.824,4.369,4.369,0,0,1,1.959.425,3.222,3.222,0,0,1,1.333,1.172,3,3,0,0,1,.472,1.633H27.041a1.95,1.95,0,0,0-.615-1.525,2.5,2.5,0,0,0-1.736-.555,2.561,2.561,0,0,0-1.622.459,1.53,1.53,0,0,0-.582,1.273,1.376,1.376,0,0,0,.553,1.1A5.424,5.424,0,0,0,24.921-6,8.734,8.734,0,0,1,27-5.175a3.157,3.157,0,0,1,1.113,1.051,2.683,2.683,0,0,1,.363,1.414A2.492,2.492,0,0,1,27.466-.634a4.31,4.31,0,0,1-2.7.78,5.013,5.013,0,0,1-2.051-.421,3.451,3.451,0,0,1-1.469-1.154,2.815,2.815,0,0,1-.516-1.663h1.414a1.837,1.837,0,0,0,.714,1.527A3.007,3.007,0,0,0,24.763-1a2.764,2.764,0,0,0,1.707-.454A1.475,1.475,0,0,0,27.063-2.7a1.448,1.448,0,0,0-.549-1.212A6.333,6.333,0,0,0,24.521-4.753ZM36.914,0H29.927V-.974l3.691-4.1A8.77,8.77,0,0,0,34.75-6.588a2.524,2.524,0,0,0,.311-1.2,1.913,1.913,0,0,0-.505-1.37A1.767,1.767,0,0,0,33.208-9.7a2.093,2.093,0,0,0-1.571.575,2.2,2.2,0,0,0-.56,1.6H29.722A3.145,3.145,0,0,1,30.67-9.9a3.516,3.516,0,0,1,2.538-.908,3.379,3.379,0,0,1,2.351.78,2.661,2.661,0,0,1,.864,2.076q0,1.575-2.007,3.75l-2.856,3.1h5.354Z" transform="translate(-6675.898 -1642.653)" fill="#12263f"/>
      <path id="Trazado_195420" data-name="Trazado 195420" d="M-37.6-4.175V0h-1.406V-10.664h3.933a3.952,3.952,0,0,1,2.743.894A3.029,3.029,0,0,1-31.337-7.4a2.989,2.989,0,0,1-.97,2.391,4.128,4.128,0,0,1-2.78.839Zm0-1.15h2.527a2.526,2.526,0,0,0,1.729-.532,1.945,1.945,0,0,0,.6-1.537,2.009,2.009,0,0,0-.6-1.526,2.367,2.367,0,0,0-1.648-.594H-37.6ZM-24.862-.784a2.878,2.878,0,0,1-2.322.93,2.464,2.464,0,0,1-1.93-.736,3.186,3.186,0,0,1-.67-2.179V-7.925h1.355v5.12q0,1.8,1.465,1.8A2.028,2.028,0,0,0-24.9-2.161V-7.925h1.355V0h-1.289Zm6.665.93A3.463,3.463,0,0,1-20.819-.912,3.928,3.928,0,0,1-21.83-3.743v-.249a4.756,4.756,0,0,1,.45-2.106,3.514,3.514,0,0,1,1.26-1.45,3.167,3.167,0,0,1,1.754-.524,2.968,2.968,0,0,1,2.4,1.018,4.408,4.408,0,0,1,.857,2.915v.564h-5.369a2.817,2.817,0,0,0,.685,1.893,2.153,2.153,0,0,0,1.666.721,2.36,2.36,0,0,0,1.216-.293,3.055,3.055,0,0,0,.872-.776l.828.645A3.328,3.328,0,0,1-18.2.146Zm-.168-7.1a1.807,1.807,0,0,0-1.377.6,2.9,2.9,0,0,0-.688,1.674h3.97v-.1a2.581,2.581,0,0,0-.557-1.6A1.7,1.7,0,0,0-18.365-6.958Zm8.657.249a4.061,4.061,0,0,0-.667-.051,1.786,1.786,0,0,0-1.809,1.135V0h-1.355V-7.925h1.318l.022.916a2.11,2.11,0,0,1,1.89-1.062,1.384,1.384,0,0,1,.6.1Zm3.45-3.135v1.919h1.479v1.047H-6.259v4.921a1.1,1.1,0,0,0,.2.715A.832.832,0,0,0-5.387-1a3.281,3.281,0,0,0,.645-.088V0a3.951,3.951,0,0,1-1.04.146A1.687,1.687,0,0,1-7.152-.4a2.36,2.36,0,0,1-.461-1.56V-6.877H-9.056V-7.925h1.443V-9.844ZM-3.7-4.036A4.681,4.681,0,0,1-3.245-6.13,3.415,3.415,0,0,1-1.97-7.566,3.469,3.469,0,0,1-.106-8.071,3.342,3.342,0,0,1,2.512-6.951a4.311,4.311,0,0,1,1,2.981v.1A4.722,4.722,0,0,1,3.069-1.8,3.365,3.365,0,0,1,1.8-.366,3.509,3.509,0,0,1-.092.146,3.334,3.334,0,0,1-2.7-.974a4.29,4.29,0,0,1-1-2.966Zm1.362.161a3.39,3.39,0,0,0,.612,2.117,1.957,1.957,0,0,0,1.637.8,1.945,1.945,0,0,0,1.641-.809,3.707,3.707,0,0,0,.608-2.267,3.384,3.384,0,0,0-.619-2.113A1.968,1.968,0,0,0-.106-6.958a1.946,1.946,0,0,0-1.619.8A3.68,3.68,0,0,0-2.34-3.875ZM13.539-2.1a1,1,0,0,0-.414-.853,3.983,3.983,0,0,0-1.443-.524,6.822,6.822,0,0,1-1.633-.527,2.324,2.324,0,0,1-.894-.732A1.752,1.752,0,0,1,8.866-5.75,2.056,2.056,0,0,1,9.69-7.4,3.218,3.218,0,0,1,11.8-8.071a3.311,3.311,0,0,1,2.186.7,2.21,2.21,0,0,1,.839,1.78H13.458a1.223,1.223,0,0,0-.472-.959,1.77,1.77,0,0,0-1.19-.4,1.852,1.852,0,0,0-1.157.322,1.014,1.014,0,0,0-.417.842.822.822,0,0,0,.388.74,4.776,4.776,0,0,0,1.4.476,7.308,7.308,0,0,1,1.644.542,2.4,2.4,0,0,1,.934.758,1.864,1.864,0,0,1,.3,1.08,2.028,2.028,0,0,1-.85,1.7,3.564,3.564,0,0,1-2.2.641A3.991,3.991,0,0,1,10.155-.19a2.74,2.74,0,0,1-1.146-.941,2.268,2.268,0,0,1-.414-1.307H9.95a1.4,1.4,0,0,0,.546,1.08,2.117,2.117,0,0,0,1.344.4,2.185,2.185,0,0,0,1.234-.311A.956.956,0,0,0,13.539-2.1ZM19.948.146A3.463,3.463,0,0,1,17.325-.912a3.928,3.928,0,0,1-1.011-2.831v-.249a4.756,4.756,0,0,1,.45-2.106,3.514,3.514,0,0,1,1.26-1.45,3.167,3.167,0,0,1,1.754-.524,2.968,2.968,0,0,1,2.4,1.018,4.408,4.408,0,0,1,.857,2.915v.564H17.67a2.817,2.817,0,0,0,.685,1.893,2.153,2.153,0,0,0,1.666.721,2.36,2.36,0,0,0,1.216-.293,3.055,3.055,0,0,0,.872-.776l.828.645A3.328,3.328,0,0,1,19.948.146Zm-.168-7.1a1.807,1.807,0,0,0-1.377.6,2.9,2.9,0,0,0-.688,1.674h3.97v-.1a2.581,2.581,0,0,0-.557-1.6A1.7,1.7,0,0,0,19.779-6.958Zm8.657.249a4.061,4.061,0,0,0-.667-.051,1.786,1.786,0,0,0-1.809,1.135V0H24.606V-7.925h1.318l.022.916a2.11,2.11,0,0,1,1.89-1.062,1.384,1.384,0,0,1,.6.1ZM31.154,0H29.8V-7.925h1.355ZM29.689-10.027a.809.809,0,0,1,.2-.557.756.756,0,0,1,.6-.227.768.768,0,0,1,.6.227.8.8,0,0,1,.205.557.774.774,0,0,1-.205.549.782.782,0,0,1-.6.22.77.77,0,0,1-.6-.22A.782.782,0,0,1,29.689-10.027ZM36.61.146A3.463,3.463,0,0,1,33.988-.912a3.928,3.928,0,0,1-1.011-2.831v-.249a4.756,4.756,0,0,1,.45-2.106,3.514,3.514,0,0,1,1.26-1.45,3.167,3.167,0,0,1,1.754-.524,2.968,2.968,0,0,1,2.4,1.018A4.408,4.408,0,0,1,39.7-4.138v.564H34.332a2.817,2.817,0,0,0,.685,1.893,2.153,2.153,0,0,0,1.666.721A2.36,2.36,0,0,0,37.9-1.252a3.055,3.055,0,0,0,.872-.776l.828.645A3.328,3.328,0,0,1,36.61.146Zm-.168-7.1a1.807,1.807,0,0,0-1.377.6,2.9,2.9,0,0,0-.688,1.674h3.97v-.1a2.581,2.581,0,0,0-.557-1.6A1.7,1.7,0,0,0,36.442-6.958Z" transform="translate(-6558.548 -1432.342)" fill="#12263f"/>
      <path id="Trazado_195421" data-name="Trazado 195421" d="M-49.42-4.175V0h-1.406V-10.664h3.933a3.952,3.952,0,0,1,2.743.894A3.029,3.029,0,0,1-43.158-7.4a2.989,2.989,0,0,1-.97,2.391,4.128,4.128,0,0,1-2.78.839Zm0-1.15h2.527a2.526,2.526,0,0,0,1.729-.532,1.945,1.945,0,0,0,.6-1.537,2.009,2.009,0,0,0-.6-1.526,2.367,2.367,0,0,0-1.648-.594H-49.42ZM-36.683-.784a2.878,2.878,0,0,1-2.322.93,2.464,2.464,0,0,1-1.93-.736,3.186,3.186,0,0,1-.67-2.179V-7.925h1.355v5.12q0,1.8,1.465,1.8A2.028,2.028,0,0,0-36.72-2.161V-7.925h1.355V0h-1.289Zm6.665.93A3.463,3.463,0,0,1-32.64-.912a3.928,3.928,0,0,1-1.011-2.831v-.249A4.756,4.756,0,0,1-33.2-6.1a3.514,3.514,0,0,1,1.26-1.45,3.167,3.167,0,0,1,1.754-.524,2.968,2.968,0,0,1,2.4,1.018,4.408,4.408,0,0,1,.857,2.915v.564H-32.3a2.817,2.817,0,0,0,.685,1.893,2.153,2.153,0,0,0,1.666.721,2.36,2.36,0,0,0,1.216-.293,3.055,3.055,0,0,0,.872-.776l.828.645A3.328,3.328,0,0,1-30.018.146Zm-.168-7.1a1.807,1.807,0,0,0-1.377.6,2.9,2.9,0,0,0-.688,1.674h3.97v-.1a2.581,2.581,0,0,0-.557-1.6A1.7,1.7,0,0,0-30.187-6.958Zm8.657.249A4.061,4.061,0,0,0-22.2-6.76a1.786,1.786,0,0,0-1.809,1.135V0H-25.36V-7.925h1.318l.022.916a2.11,2.11,0,0,1,1.89-1.062,1.384,1.384,0,0,1,.6.1Zm3.45-3.135v1.919H-16.6v1.047H-18.08v4.921a1.1,1.1,0,0,0,.2.715A.832.832,0,0,0-17.208-1a3.281,3.281,0,0,0,.645-.088V0A3.951,3.951,0,0,1-17.6.146,1.687,1.687,0,0,1-18.973-.4a2.36,2.36,0,0,1-.461-1.56V-6.877h-1.443V-7.925h1.443V-9.844Zm2.556,5.808a4.681,4.681,0,0,1,.458-2.095,3.415,3.415,0,0,1,1.274-1.436,3.469,3.469,0,0,1,1.864-.505A3.342,3.342,0,0,1-9.309-6.951a4.311,4.311,0,0,1,1,2.981v.1A4.722,4.722,0,0,1-8.752-1.8,3.365,3.365,0,0,1-10.02-.366a3.509,3.509,0,0,1-1.893.513A3.334,3.334,0,0,1-14.524-.974a4.29,4.29,0,0,1-1-2.966Zm1.362.161a3.39,3.39,0,0,0,.612,2.117,1.957,1.957,0,0,0,1.637.8,1.945,1.945,0,0,0,1.641-.809,3.707,3.707,0,0,0,.608-2.267,3.384,3.384,0,0,0-.619-2.113,1.968,1.968,0,0,0-1.644-.809,1.946,1.946,0,0,0-1.619.8A3.68,3.68,0,0,0-14.161-3.875Zm10.935-.154a4.642,4.642,0,0,1,.864-2.933A2.733,2.733,0,0,1-.1-8.071a2.748,2.748,0,0,1,2.2.952V-11.25H3.461V0H2.216L2.15-.85a2.759,2.759,0,0,1-2.263,1A2.707,2.707,0,0,1-2.358-.981a4.7,4.7,0,0,1-.868-2.944Zm1.355.154a3.515,3.515,0,0,0,.557,2.109A1.8,1.8,0,0,0,.223-1,1.977,1.977,0,0,0,2.106-2.161V-5.8A1.992,1.992,0,0,0,.238-6.921a1.808,1.808,0,0,0-1.553.769A3.87,3.87,0,0,0-1.871-3.875ZM8.851.146A3.463,3.463,0,0,1,6.229-.912,3.928,3.928,0,0,1,5.219-3.743v-.249A4.756,4.756,0,0,1,5.669-6.1a3.514,3.514,0,0,1,1.26-1.45,3.167,3.167,0,0,1,1.754-.524,2.968,2.968,0,0,1,2.4,1.018,4.408,4.408,0,0,1,.857,2.915v.564H6.573a2.817,2.817,0,0,0,.685,1.893,2.153,2.153,0,0,0,1.666.721,2.36,2.36,0,0,0,1.216-.293,3.055,3.055,0,0,0,.872-.776l.828.645A3.328,3.328,0,0,1,8.851.146Zm-.168-7.1a1.807,1.807,0,0,0-1.377.6,2.9,2.9,0,0,0-.688,1.674h3.97v-.1a2.581,2.581,0,0,0-.557-1.6A1.7,1.7,0,0,0,8.683-6.958Zm11.155,5.12L21.8-7.925h1.384L20.343,0H19.31L16.439-7.925h1.384ZM25.961,0H24.606V-7.925h1.355ZM24.5-10.027a.809.809,0,0,1,.2-.557.756.756,0,0,1,.6-.227.768.768,0,0,1,.6.227.8.8,0,0,1,.205.557.774.774,0,0,1-.205.549.782.782,0,0,1-.6.22.77.77,0,0,1-.6-.22A.782.782,0,0,1,24.5-10.027Zm3.3,6a4.642,4.642,0,0,1,.864-2.933,2.733,2.733,0,0,1,2.263-1.11,2.748,2.748,0,0,1,2.2.952V-11.25h1.355V0H33.241l-.066-.85a2.759,2.759,0,0,1-2.263,1A2.707,2.707,0,0,1,28.667-.981,4.7,4.7,0,0,1,27.8-3.926Zm1.355.154a3.515,3.515,0,0,0,.557,2.109A1.8,1.8,0,0,0,31.249-1a1.977,1.977,0,0,0,1.882-1.157V-5.8a1.992,1.992,0,0,0-1.868-1.121,1.808,1.808,0,0,0-1.553.769A3.87,3.87,0,0,0,29.154-3.875ZM39.877.146A3.463,3.463,0,0,1,37.255-.912a3.928,3.928,0,0,1-1.011-2.831v-.249a4.756,4.756,0,0,1,.45-2.106,3.514,3.514,0,0,1,1.26-1.45,3.167,3.167,0,0,1,1.754-.524,2.968,2.968,0,0,1,2.4,1.018,4.408,4.408,0,0,1,.857,2.915v.564H37.6a2.817,2.817,0,0,0,.685,1.893,2.153,2.153,0,0,0,1.666.721,2.36,2.36,0,0,0,1.216-.293,3.055,3.055,0,0,0,.872-.776l.828.645A3.328,3.328,0,0,1,39.877.146Zm-.168-7.1a1.807,1.807,0,0,0-1.377.6,2.9,2.9,0,0,0-.688,1.674h3.97v-.1a2.581,2.581,0,0,0-.557-1.6A1.7,1.7,0,0,0,39.708-6.958Zm4.468,2.922a4.681,4.681,0,0,1,.458-2.095,3.415,3.415,0,0,1,1.274-1.436,3.469,3.469,0,0,1,1.864-.505,3.342,3.342,0,0,1,2.618,1.121,4.311,4.311,0,0,1,1,2.981v.1A4.722,4.722,0,0,1,50.947-1.8,3.365,3.365,0,0,1,49.68-.366a3.509,3.509,0,0,1-1.893.513A3.334,3.334,0,0,1,45.176-.974a4.29,4.29,0,0,1-1-2.966Zm1.362.161a3.39,3.39,0,0,0,.612,2.117,1.957,1.957,0,0,0,1.637.8,1.945,1.945,0,0,0,1.641-.809,3.707,3.707,0,0,0,.608-2.267,3.384,3.384,0,0,0-.619-2.113,1.968,1.968,0,0,0-1.644-.809,1.946,1.946,0,0,0-1.619.8A3.68,3.68,0,0,0,45.538-3.875Z" transform="translate(-6454.833 -1432.342)" fill="#12263f"/>
      <path id="Trazado_195422" data-name="Trazado 195422" d="M-39.276-4.175V0h-1.406V-10.664h3.933a3.952,3.952,0,0,1,2.743.894A3.029,3.029,0,0,1-33.014-7.4a2.989,2.989,0,0,1-.97,2.391,4.128,4.128,0,0,1-2.78.839Zm0-1.15h2.527a2.526,2.526,0,0,0,1.729-.532,1.945,1.945,0,0,0,.6-1.537,2.009,2.009,0,0,0-.6-1.526,2.367,2.367,0,0,0-1.648-.594h-2.607ZM-26.539-.784a2.878,2.878,0,0,1-2.322.93,2.464,2.464,0,0,1-1.93-.736,3.186,3.186,0,0,1-.67-2.179V-7.925h1.355v5.12q0,1.8,1.465,1.8a2.028,2.028,0,0,0,2.065-1.157V-7.925h1.355V0H-26.51Zm6.665.93A3.463,3.463,0,0,1-22.5-.912a3.928,3.928,0,0,1-1.011-2.831v-.249a4.756,4.756,0,0,1,.45-2.106,3.514,3.514,0,0,1,1.26-1.45,3.167,3.167,0,0,1,1.754-.524,2.968,2.968,0,0,1,2.4,1.018,4.408,4.408,0,0,1,.857,2.915v.564h-5.369a2.817,2.817,0,0,0,.685,1.893A2.153,2.153,0,0,0-19.8-.959a2.36,2.36,0,0,0,1.216-.293,3.055,3.055,0,0,0,.872-.776l.828.645A3.328,3.328,0,0,1-19.874.146Zm-.168-7.1a1.807,1.807,0,0,0-1.377.6,2.9,2.9,0,0,0-.688,1.674h3.97v-.1a2.581,2.581,0,0,0-.557-1.6A1.7,1.7,0,0,0-20.043-6.958Zm8.657.249a4.061,4.061,0,0,0-.667-.051,1.786,1.786,0,0,0-1.809,1.135V0h-1.355V-7.925H-13.9l.022.916a2.11,2.11,0,0,1,1.89-1.062,1.384,1.384,0,0,1,.6.1Zm3.45-3.135v1.919h1.479v1.047H-7.936v4.921a1.1,1.1,0,0,0,.2.715A.832.832,0,0,0-7.064-1a3.281,3.281,0,0,0,.645-.088V0A3.951,3.951,0,0,1-7.46.146,1.687,1.687,0,0,1-8.829-.4a2.36,2.36,0,0,1-.461-1.56V-6.877h-1.443V-7.925h1.443V-9.844ZM-5.38-4.036A4.681,4.681,0,0,1-4.922-6.13,3.415,3.415,0,0,1-3.647-7.566a3.469,3.469,0,0,1,1.864-.505A3.342,3.342,0,0,1,.835-6.951a4.311,4.311,0,0,1,1,2.981v.1A4.722,4.722,0,0,1,1.392-1.8,3.365,3.365,0,0,1,.125-.366,3.509,3.509,0,0,1-1.769.146,3.334,3.334,0,0,1-4.38-.974a4.29,4.29,0,0,1-1-2.966Zm1.362.161a3.39,3.39,0,0,0,.612,2.117,1.957,1.957,0,0,0,1.637.8A1.945,1.945,0,0,0-.128-1.769,3.707,3.707,0,0,0,.48-4.036,3.384,3.384,0,0,0-.139-6.149a1.968,1.968,0,0,0-1.644-.809,1.946,1.946,0,0,0-1.619.8A3.68,3.68,0,0,0-4.017-3.875ZM8.148-2.1a1,1,0,0,0-.414-.853,3.983,3.983,0,0,0-1.443-.524,6.822,6.822,0,0,1-1.633-.527,2.324,2.324,0,0,1-.894-.732A1.752,1.752,0,0,1,3.475-5.75,2.056,2.056,0,0,1,4.3-7.4a3.218,3.218,0,0,1,2.106-.674,3.311,3.311,0,0,1,2.186.7A2.21,2.21,0,0,1,9.43-5.6H8.068A1.223,1.223,0,0,0,7.6-6.555a1.77,1.77,0,0,0-1.19-.4,1.852,1.852,0,0,0-1.157.322,1.014,1.014,0,0,0-.417.842.822.822,0,0,0,.388.74,4.776,4.776,0,0,0,1.4.476,7.308,7.308,0,0,1,1.644.542,2.4,2.4,0,0,1,.934.758A1.864,1.864,0,0,1,9.5-2.2a2.028,2.028,0,0,1-.85,1.7,3.564,3.564,0,0,1-2.2.641A3.991,3.991,0,0,1,4.764-.19a2.74,2.74,0,0,1-1.146-.941A2.268,2.268,0,0,1,3.2-2.439H4.559A1.4,1.4,0,0,0,5.1-1.359a2.117,2.117,0,0,0,1.344.4,2.185,2.185,0,0,0,1.234-.311A.956.956,0,0,0,8.148-2.1ZM22.7-10.664v7.251a3.4,3.4,0,0,1-.948,2.468A3.822,3.822,0,0,1,19.2.132l-.374.015A3.992,3.992,0,0,1,16.036-.8a3.379,3.379,0,0,1-1.055-2.6v-7.266h1.392v7.222a2.439,2.439,0,0,0,.637,1.8A2.449,2.449,0,0,0,18.827-1a2.465,2.465,0,0,0,1.827-.637,2.435,2.435,0,0,0,.634-1.794v-7.229Zm5.361,5.911A6.612,6.612,0,0,1,25.43-6.031,2.442,2.442,0,0,1,24.606-7.9a2.58,2.58,0,0,1,1.007-2.084,4,4,0,0,1,2.618-.824,4.369,4.369,0,0,1,1.959.425,3.222,3.222,0,0,1,1.333,1.172A3,3,0,0,1,32-7.581H30.582a1.95,1.95,0,0,0-.615-1.525,2.5,2.5,0,0,0-1.736-.555,2.561,2.561,0,0,0-1.622.459,1.53,1.53,0,0,0-.582,1.273,1.376,1.376,0,0,0,.553,1.1A5.424,5.424,0,0,0,28.462-6a8.734,8.734,0,0,1,2.08.825,3.157,3.157,0,0,1,1.113,1.051,2.683,2.683,0,0,1,.363,1.414A2.492,2.492,0,0,1,31.007-.634a4.31,4.31,0,0,1-2.7.78,5.013,5.013,0,0,1-2.051-.421,3.451,3.451,0,0,1-1.469-1.154,2.815,2.815,0,0,1-.516-1.663h1.414A1.837,1.837,0,0,0,26.4-1.564,3.007,3.007,0,0,0,28.3-1a2.764,2.764,0,0,0,1.707-.454A1.475,1.475,0,0,0,30.6-2.7a1.448,1.448,0,0,0-.549-1.212A6.333,6.333,0,0,0,28.063-4.753ZM33.82,0V-10.664h3.486a4.047,4.047,0,0,1,2.611.718,2.587,2.587,0,0,1,.875,2.124A2.166,2.166,0,0,1,40.367-6.5a2.754,2.754,0,0,1-1.157.89,2.473,2.473,0,0,1,1.366.919,2.638,2.638,0,0,1,.5,1.615,2.852,2.852,0,0,1-.93,2.256A3.847,3.847,0,0,1,37.518,0Zm1.406-4.988V-1.15h2.322A2.236,2.236,0,0,0,39.1-1.659a1.788,1.788,0,0,0,.568-1.4q0-1.926-2.095-1.926Zm0-1.128H37.35a2.226,2.226,0,0,0,1.476-.462,1.55,1.55,0,0,0,.553-1.255,1.524,1.524,0,0,0-.513-1.281,2.518,2.518,0,0,0-1.56-.4h-2.08Z" transform="translate(-6342.35 -1432.342)" fill="#12263f"/>
      <path id="Trazado_195423" data-name="Trazado 195423" d="M9.082-3.384A3.923,3.923,0,0,1,7.833-.773,4.093,4.093,0,0,1,5.039.146,3.758,3.758,0,0,1,2.01-1.208,5.451,5.451,0,0,1,.872-4.834V-5.859A6.076,6.076,0,0,1,1.4-8.474a3.966,3.966,0,0,1,1.505-1.732,4.191,4.191,0,0,1,2.256-.6,3.853,3.853,0,0,1,2.725.948A3.971,3.971,0,0,1,9.082-7.236H7.668a3.064,3.064,0,0,0-.795-1.851,2.4,2.4,0,0,0-1.71-.573,2.516,2.516,0,0,0-2.113,1,4.577,4.577,0,0,0-.765,2.837v1.034A4.7,4.7,0,0,0,3.01-2.03,2.343,2.343,0,0,0,5.039-1a2.706,2.706,0,0,0,1.8-.531,2.947,2.947,0,0,0,.831-1.849Zm1.348-.652a4.681,4.681,0,0,1,.458-2.095,3.415,3.415,0,0,1,1.274-1.436,3.469,3.469,0,0,1,1.864-.505,3.342,3.342,0,0,1,2.618,1.121,4.311,4.311,0,0,1,1,2.981v.1A4.722,4.722,0,0,1,17.2-1.8,3.365,3.365,0,0,1,15.934-.366a3.509,3.509,0,0,1-1.893.513A3.334,3.334,0,0,1,11.429-.974a4.29,4.29,0,0,1-1-2.966Zm1.362.161A3.39,3.39,0,0,0,12.4-1.758a1.957,1.957,0,0,0,1.637.8,1.945,1.945,0,0,0,1.641-.809,3.707,3.707,0,0,0,.608-2.267,3.384,3.384,0,0,0-.619-2.113,1.968,1.968,0,0,0-1.644-.809,1.946,1.946,0,0,0-1.619.8A3.68,3.68,0,0,0,11.792-3.875Zm8.833-4.05.044,1a2.888,2.888,0,0,1,2.373-1.143q2.512,0,2.534,2.834V0H24.221V-5.244a1.824,1.824,0,0,0-.392-1.267,1.57,1.57,0,0,0-1.2-.41,1.956,1.956,0,0,0-1.157.352,2.387,2.387,0,0,0-.776.923V0H19.343V-7.925ZM30.908.146A3.463,3.463,0,0,1,28.286-.912a3.928,3.928,0,0,1-1.011-2.831v-.249a4.756,4.756,0,0,1,.45-2.106,3.514,3.514,0,0,1,1.26-1.45,3.167,3.167,0,0,1,1.754-.524,2.968,2.968,0,0,1,2.4,1.018A4.408,4.408,0,0,1,34-4.138v.564H28.63a2.817,2.817,0,0,0,.685,1.893,2.153,2.153,0,0,0,1.666.721A2.36,2.36,0,0,0,32.2-1.252a3.055,3.055,0,0,0,.872-.776l.828.645A3.328,3.328,0,0,1,30.908.146Zm-.168-7.1a1.807,1.807,0,0,0-1.377.6,2.9,2.9,0,0,0-.688,1.674h3.97v-.1a2.581,2.581,0,0,0-.557-1.6A1.7,1.7,0,0,0,30.74-6.958Zm8.005,6A1.952,1.952,0,0,0,40.012-1.4a1.546,1.546,0,0,0,.6-1.1h1.282a2.457,2.457,0,0,1-.469,1.3,3.087,3.087,0,0,1-1.154.981,3.329,3.329,0,0,1-1.527.366,3.265,3.265,0,0,1-2.574-1.08,4.3,4.3,0,0,1-.956-2.955v-.227a4.771,4.771,0,0,1,.425-2.058,3.236,3.236,0,0,1,1.219-1.4,3.464,3.464,0,0,1,1.879-.5,3.178,3.178,0,0,1,2.216.8A2.853,2.853,0,0,1,41.895-5.2H40.613a1.867,1.867,0,0,0-.582-1.263,1.811,1.811,0,0,0-1.293-.494,1.9,1.9,0,0,0-1.6.743,3.491,3.491,0,0,0-.568,2.15v.256A3.422,3.422,0,0,0,37.134-1.7,1.906,1.906,0,0,0,38.745-.959Zm6.511-8.884v1.919h1.479v1.047H45.256v4.921a1.1,1.1,0,0,0,.2.715A.832.832,0,0,0,46.128-1a3.281,3.281,0,0,0,.645-.088V0a3.951,3.951,0,0,1-1.04.146A1.687,1.687,0,0,1,44.363-.4a2.36,2.36,0,0,1-.461-1.56V-6.877H42.458V-7.925H43.9V-9.844Zm2.556,5.808A4.681,4.681,0,0,1,48.27-6.13a3.415,3.415,0,0,1,1.274-1.436,3.469,3.469,0,0,1,1.864-.505,3.342,3.342,0,0,1,2.618,1.121,4.311,4.311,0,0,1,1,2.981v.1A4.722,4.722,0,0,1,54.584-1.8,3.365,3.365,0,0,1,53.317-.366a3.509,3.509,0,0,1-1.893.513A3.334,3.334,0,0,1,48.812-.974a4.29,4.29,0,0,1-1-2.966Zm1.362.161a3.39,3.39,0,0,0,.612,2.117,1.957,1.957,0,0,0,1.637.8,1.945,1.945,0,0,0,1.641-.809,3.707,3.707,0,0,0,.608-2.267,3.384,3.384,0,0,0-.619-2.113,1.968,1.968,0,0,0-1.644-.809,1.946,1.946,0,0,0-1.619.8A3.68,3.68,0,0,0,49.175-3.875ZM60.557-6.709a4.061,4.061,0,0,0-.667-.051,1.786,1.786,0,0,0-1.809,1.135V0H56.726V-7.925h1.318l.022.916a2.11,2.11,0,0,1,1.89-1.062,1.384,1.384,0,0,1,.6.1ZM65.09.146A3.463,3.463,0,0,1,62.468-.912a3.928,3.928,0,0,1-1.011-2.831v-.249a4.756,4.756,0,0,1,.45-2.106,3.514,3.514,0,0,1,1.26-1.45,3.167,3.167,0,0,1,1.754-.524,2.968,2.968,0,0,1,2.4,1.018,4.408,4.408,0,0,1,.857,2.915v.564H62.813A2.817,2.817,0,0,0,63.5-1.681a2.153,2.153,0,0,0,1.666.721,2.36,2.36,0,0,0,1.216-.293,3.055,3.055,0,0,0,.872-.776l.828.645A3.328,3.328,0,0,1,65.09.146Zm-.168-7.1a1.807,1.807,0,0,0-1.377.6,2.9,2.9,0,0,0-.688,1.674h3.97v-.1a2.581,2.581,0,0,0-.557-1.6A1.7,1.7,0,0,0,64.922-6.958ZM74.363-2.1a1,1,0,0,0-.414-.853,3.983,3.983,0,0,0-1.443-.524,6.822,6.822,0,0,1-1.633-.527,2.324,2.324,0,0,1-.894-.732A1.752,1.752,0,0,1,69.69-5.75,2.056,2.056,0,0,1,70.514-7.4a3.218,3.218,0,0,1,2.106-.674,3.311,3.311,0,0,1,2.186.7,2.21,2.21,0,0,1,.839,1.78H74.282a1.223,1.223,0,0,0-.472-.959,1.77,1.77,0,0,0-1.19-.4,1.852,1.852,0,0,0-1.157.322,1.014,1.014,0,0,0-.417.842.822.822,0,0,0,.388.74,4.776,4.776,0,0,0,1.4.476,7.308,7.308,0,0,1,1.644.542,2.4,2.4,0,0,1,.934.758,1.864,1.864,0,0,1,.3,1.08,2.028,2.028,0,0,1-.85,1.7,3.564,3.564,0,0,1-2.2.641A3.991,3.991,0,0,1,70.979-.19a2.74,2.74,0,0,1-1.146-.941,2.268,2.268,0,0,1-.414-1.307h1.355a1.4,1.4,0,0,0,.546,1.08,2.117,2.117,0,0,0,1.344.4A2.185,2.185,0,0,0,73.9-1.271.956.956,0,0,0,74.363-2.1ZM5.918,16a2.846,2.846,0,0,1-.19-.835,3.023,3.023,0,0,1-2.256.981,2.8,2.8,0,0,1-1.923-.663A2.145,2.145,0,0,1,.8,13.8,2.24,2.24,0,0,1,1.74,11.88,4.437,4.437,0,0,1,4.387,11.2H5.706v-.623a1.522,1.522,0,0,0-.425-1.132A1.707,1.707,0,0,0,4.028,9.02a1.976,1.976,0,0,0-1.216.366,1.079,1.079,0,0,0-.491.886H.959a1.87,1.87,0,0,1,.421-1.146,2.874,2.874,0,0,1,1.143-.875,3.844,3.844,0,0,1,1.586-.322,3.133,3.133,0,0,1,2.146.685A2.47,2.47,0,0,1,7.061,10.5v3.647a4.459,4.459,0,0,0,.278,1.736V16ZM3.669,14.967a2.381,2.381,0,0,0,1.208-.33,1.994,1.994,0,0,0,.828-.857V12.155H4.644q-2.49,0-2.49,1.458a1.234,1.234,0,0,0,.425,1A1.633,1.633,0,0,0,3.669,14.967ZM10.657,16H9.3V4.75h1.355Zm4.006-9.844V8.075h1.479V9.123H14.663v4.921a1.1,1.1,0,0,0,.2.715.832.832,0,0,0,.674.238,3.281,3.281,0,0,0,.645-.088V16a3.951,3.951,0,0,1-1.04.146,1.687,1.687,0,0,1-1.37-.549,2.36,2.36,0,0,1-.461-1.56V9.123H11.865V8.075h1.443V6.156ZM22.617,16a2.846,2.846,0,0,1-.19-.835,3.023,3.023,0,0,1-2.256.981,2.8,2.8,0,0,1-1.923-.663A2.145,2.145,0,0,1,17.5,13.8a2.24,2.24,0,0,1,.941-1.923,4.437,4.437,0,0,1,2.648-.685H22.4v-.623a1.522,1.522,0,0,0-.425-1.132,1.707,1.707,0,0,0-1.252-.421,1.976,1.976,0,0,0-1.216.366,1.079,1.079,0,0,0-.491.886H17.659a1.87,1.87,0,0,1,.421-1.146,2.874,2.874,0,0,1,1.143-.875,3.844,3.844,0,0,1,1.586-.322,3.133,3.133,0,0,1,2.146.685A2.47,2.47,0,0,1,23.76,10.5v3.647a4.459,4.459,0,0,0,.278,1.736V16Zm-2.249-1.033a2.381,2.381,0,0,0,1.208-.33,1.994,1.994,0,0,0,.828-.857V12.155H21.343q-2.49,0-2.49,1.458a1.234,1.234,0,0,0,.425,1A1.633,1.633,0,0,0,20.369,14.967Zm8.02-.806,1.963-6.086h1.384L28.894,16H27.861L24.99,8.075h1.384Zm4.182-2.2a4.681,4.681,0,0,1,.458-2.095A3.415,3.415,0,0,1,34.3,8.434a3.469,3.469,0,0,1,1.864-.505,3.342,3.342,0,0,1,2.618,1.121,4.311,4.311,0,0,1,1,2.981v.1a4.722,4.722,0,0,1-.443,2.076,3.365,3.365,0,0,1-1.267,1.432,3.509,3.509,0,0,1-1.893.513,3.334,3.334,0,0,1-2.611-1.121,4.29,4.29,0,0,1-1-2.966Zm1.362.161a3.39,3.39,0,0,0,.612,2.117,2.072,2.072,0,0,0,3.278-.011,3.707,3.707,0,0,0,.608-2.267,3.384,3.384,0,0,0-.619-2.113,1.968,1.968,0,0,0-1.644-.809,1.946,1.946,0,0,0-1.619.8A3.68,3.68,0,0,0,33.933,12.125Zm8.708,2.769h4.636V16H40.986V15L45.359,9.2H41.052V8.075h6.006v.959Zm12.466-.879,1.846-5.94H58.4l-3.186,9.148q-.74,1.978-2.351,1.978l-.256-.022-.505-.1v-1.1l.366.029a1.8,1.8,0,0,0,1.073-.278,2.014,2.014,0,0,0,.634-1.018l.3-.806L51.65,8.075H53.13ZM2.3,24.075l.037.879a2.927,2.927,0,0,1,2.351-1.025A2.266,2.266,0,0,1,6.951,25.2,3,3,0,0,1,7.98,24.28a3.039,3.039,0,0,1,1.5-.352q2.607,0,2.651,2.761V32H10.774V26.771a1.82,1.82,0,0,0-.388-1.271,1.71,1.71,0,0,0-1.3-.421,1.8,1.8,0,0,0-1.252.45,1.827,1.827,0,0,0-.579,1.212V32H5.889V26.807A1.512,1.512,0,0,0,4.2,25.079a1.813,1.813,0,0,0-1.824,1.135V32H1.018V24.075ZM15.645,32H14.29V24.075h1.355ZM14.18,21.973a.809.809,0,0,1,.2-.557.756.756,0,0,1,.6-.227.768.768,0,0,1,.6.227.8.8,0,0,1,.205.557.774.774,0,0,1-.205.549.782.782,0,0,1-.6.22.77.77,0,0,1-.6-.22A.782.782,0,0,1,14.18,21.973Zm6.812,9.067a1.952,1.952,0,0,0,1.267-.439,1.546,1.546,0,0,0,.6-1.1h1.282a2.457,2.457,0,0,1-.469,1.3,3.087,3.087,0,0,1-1.154.981,3.329,3.329,0,0,1-1.527.366,3.265,3.265,0,0,1-2.574-1.08,4.3,4.3,0,0,1-.956-2.955v-.227a4.771,4.771,0,0,1,.425-2.058,3.236,3.236,0,0,1,1.219-1.4,3.464,3.464,0,0,1,1.879-.5,3.178,3.178,0,0,1,2.216.8,2.853,2.853,0,0,1,.941,2.073H22.859a1.867,1.867,0,0,0-.582-1.263,1.811,1.811,0,0,0-1.293-.494,1.9,1.9,0,0,0-1.6.743,3.491,3.491,0,0,0-.568,2.15v.256A3.422,3.422,0,0,0,19.38,30.3,1.906,1.906,0,0,0,20.991,31.041Zm8.5-5.75a4.06,4.06,0,0,0-.667-.051,1.786,1.786,0,0,0-1.809,1.135V32H25.664V24.075h1.318l.022.916a2.11,2.11,0,0,1,1.89-1.062,1.384,1.384,0,0,1,.6.1Zm.74,2.673a4.681,4.681,0,0,1,.458-2.095,3.415,3.415,0,0,1,1.274-1.436,3.469,3.469,0,0,1,1.864-.505,3.342,3.342,0,0,1,2.618,1.121,4.311,4.311,0,0,1,1,2.981v.1a4.722,4.722,0,0,1-.443,2.076,3.365,3.365,0,0,1-1.267,1.432,3.509,3.509,0,0,1-1.893.513,3.334,3.334,0,0,1-2.611-1.121,4.29,4.29,0,0,1-1-2.966Zm1.362.161a3.39,3.39,0,0,0,.612,2.117,2.072,2.072,0,0,0,3.278-.011,3.707,3.707,0,0,0,.608-2.267,3.384,3.384,0,0,0-.619-2.113,1.968,1.968,0,0,0-1.644-.809,1.946,1.946,0,0,0-1.619.8A3.68,3.68,0,0,0,31.6,28.125ZM39.814,32V25.123H38.562V24.075h1.252v-.813a2.7,2.7,0,0,1,.681-1.97,2.573,2.573,0,0,1,1.926-.7,3.578,3.578,0,0,1,.93.124l-.073,1.092a3.892,3.892,0,0,0-.732-.066,1.322,1.322,0,0,0-1.018.386,1.564,1.564,0,0,0-.359,1.106v.838h1.692v1.047H41.169V32ZM44,27.964a4.681,4.681,0,0,1,.458-2.095,3.415,3.415,0,0,1,1.274-1.436,3.469,3.469,0,0,1,1.864-.505,3.342,3.342,0,0,1,2.618,1.121,4.311,4.311,0,0,1,1,2.981v.1a4.722,4.722,0,0,1-.443,2.076A3.365,3.365,0,0,1,49.5,31.634a3.509,3.509,0,0,1-1.893.513A3.334,3.334,0,0,1,45,31.026a4.29,4.29,0,0,1-1-2.966Zm1.362.161a3.39,3.39,0,0,0,.612,2.117,2.072,2.072,0,0,0,3.278-.011,3.707,3.707,0,0,0,.608-2.267,3.384,3.384,0,0,0-.619-2.113,1.968,1.968,0,0,0-1.644-.809,1.946,1.946,0,0,0-1.619.8A3.68,3.68,0,0,0,45.359,28.125Zm8.833-4.05.044,1a2.888,2.888,0,0,1,2.373-1.143q2.512,0,2.534,2.834V32H57.788V26.756a1.824,1.824,0,0,0-.392-1.267,1.57,1.57,0,0,0-1.2-.41,1.956,1.956,0,0,0-1.157.352,2.387,2.387,0,0,0-.776.923V32H52.91V24.075Zm6.636,3.889a4.681,4.681,0,0,1,.458-2.095,3.415,3.415,0,0,1,1.274-1.436,3.469,3.469,0,0,1,1.864-.505,3.342,3.342,0,0,1,2.618,1.121,4.311,4.311,0,0,1,1,2.981v.1A4.722,4.722,0,0,1,67.6,30.2a3.365,3.365,0,0,1-1.267,1.432,3.509,3.509,0,0,1-1.893.513,3.334,3.334,0,0,1-2.611-1.121,4.29,4.29,0,0,1-1-2.966Zm1.362.161a3.39,3.39,0,0,0,.612,2.117,2.072,2.072,0,0,0,3.278-.011,3.707,3.707,0,0,0,.608-2.267,3.384,3.384,0,0,0-.619-2.113,1.968,1.968,0,0,0-1.644-.809,1.946,1.946,0,0,0-1.619.8A3.68,3.68,0,0,0,62.19,28.125Z" transform="translate(-6227.123 -1551.843)" fill="#12263f"/>
      <path id="Trazado_195417" data-name="Trazado 195417" d="M-48.076-4.175V0h-1.406V-10.664h3.933a3.952,3.952,0,0,1,2.743.894A3.029,3.029,0,0,1-41.814-7.4a2.989,2.989,0,0,1-.97,2.391,4.128,4.128,0,0,1-2.78.839Zm0-1.15h2.527a2.526,2.526,0,0,0,1.729-.532,1.945,1.945,0,0,0,.6-1.537,2.009,2.009,0,0,0-.6-1.526,2.367,2.367,0,0,0-1.648-.594h-2.607ZM-35.339-.784a2.878,2.878,0,0,1-2.322.93,2.464,2.464,0,0,1-1.93-.736,3.186,3.186,0,0,1-.67-2.179V-7.925h1.355v5.12q0,1.8,1.465,1.8a2.028,2.028,0,0,0,2.065-1.157V-7.925h1.355V0H-35.31Zm6.665.93A3.463,3.463,0,0,1-31.3-.912a3.928,3.928,0,0,1-1.011-2.831v-.249a4.756,4.756,0,0,1,.45-2.106,3.514,3.514,0,0,1,1.26-1.45,3.167,3.167,0,0,1,1.754-.524,2.968,2.968,0,0,1,2.4,1.018,4.408,4.408,0,0,1,.857,2.915v.564h-5.369a2.817,2.817,0,0,0,.685,1.893A2.153,2.153,0,0,0-28.6-.959a2.36,2.36,0,0,0,1.216-.293,3.055,3.055,0,0,0,.872-.776l.828.645A3.328,3.328,0,0,1-28.674.146Zm-.168-7.1a1.807,1.807,0,0,0-1.377.6,2.9,2.9,0,0,0-.688,1.674h3.97v-.1a2.581,2.581,0,0,0-.557-1.6A1.7,1.7,0,0,0-28.843-6.958Zm8.657.249a4.061,4.061,0,0,0-.667-.051,1.786,1.786,0,0,0-1.809,1.135V0h-1.355V-7.925H-22.7l.022.916a2.11,2.11,0,0,1,1.89-1.062,1.384,1.384,0,0,1,.6.1Zm3.45-3.135v1.919h1.479v1.047h-1.479v4.921a1.1,1.1,0,0,0,.2.715A.832.832,0,0,0-15.864-1a3.281,3.281,0,0,0,.645-.088V0a3.951,3.951,0,0,1-1.04.146A1.687,1.687,0,0,1-17.629-.4a2.36,2.36,0,0,1-.461-1.56V-6.877h-1.443V-7.925h1.443V-9.844Zm2.556,5.808a4.681,4.681,0,0,1,.458-2.095,3.415,3.415,0,0,1,1.274-1.436,3.469,3.469,0,0,1,1.864-.505A3.342,3.342,0,0,1-7.965-6.951a4.311,4.311,0,0,1,1,2.981v.1A4.722,4.722,0,0,1-7.408-1.8,3.365,3.365,0,0,1-8.676-.366a3.509,3.509,0,0,1-1.893.513A3.334,3.334,0,0,1-13.18-.974a4.29,4.29,0,0,1-1-2.966Zm1.362.161a3.39,3.39,0,0,0,.612,2.117,1.957,1.957,0,0,0,1.637.8,1.945,1.945,0,0,0,1.641-.809A3.707,3.707,0,0,0-8.32-4.036a3.384,3.384,0,0,0-.619-2.113,1.968,1.968,0,0,0-1.644-.809,1.946,1.946,0,0,0-1.619.8A3.68,3.68,0,0,0-12.817-3.875Zm17.959,0A4.745,4.745,0,0,1,4.314-.959,2.653,2.653,0,0,1,2.073.146,2.906,2.906,0,0,1-.2-.769V3.047H-1.553V-7.925H-.315l.066.879a2.791,2.791,0,0,1,2.3-1.025A2.7,2.7,0,0,1,4.31-6.995a4.8,4.8,0,0,1,.831,3ZM3.787-4.028a3.5,3.5,0,0,0-.571-2.117,1.84,1.84,0,0,0-1.567-.776A1.992,1.992,0,0,0-.2-5.83v3.787A2,2,0,0,0,1.663-.959a1.832,1.832,0,0,0,1.549-.773A3.822,3.822,0,0,0,3.787-4.028ZM11.755,0a2.846,2.846,0,0,1-.19-.835A3.023,3.023,0,0,1,9.309.146,2.8,2.8,0,0,1,7.386-.516,2.145,2.145,0,0,1,6.636-2.2,2.24,2.24,0,0,1,7.577-4.12,4.437,4.437,0,0,1,10.225-4.8h1.318v-.623a1.522,1.522,0,0,0-.425-1.132A1.707,1.707,0,0,0,9.866-6.98a1.976,1.976,0,0,0-1.216.366,1.079,1.079,0,0,0-.491.886H6.8a1.87,1.87,0,0,1,.421-1.146,2.874,2.874,0,0,1,1.143-.875,3.844,3.844,0,0,1,1.586-.322,3.133,3.133,0,0,1,2.146.685A2.47,2.47,0,0,1,12.9-5.5v3.647a4.459,4.459,0,0,0,.278,1.736V0ZM9.507-1.033a2.381,2.381,0,0,0,1.208-.33,1.994,1.994,0,0,0,.828-.857V-3.845H10.481q-2.49,0-2.49,1.458a1.234,1.234,0,0,0,.425,1A1.633,1.633,0,0,0,9.507-1.033Zm9.346-5.676a4.061,4.061,0,0,0-.667-.051,1.786,1.786,0,0,0-1.809,1.135V0H15.022V-7.925H16.34l.022.916a2.11,2.11,0,0,1,1.89-1.062,1.384,1.384,0,0,1,.6.1ZM24.7,0a2.846,2.846,0,0,1-.19-.835,3.023,3.023,0,0,1-2.256.981,2.8,2.8,0,0,1-1.923-.663A2.145,2.145,0,0,1,19.578-2.2a2.24,2.24,0,0,1,.941-1.923A4.437,4.437,0,0,1,23.167-4.8h1.318v-.623a1.522,1.522,0,0,0-.425-1.132,1.707,1.707,0,0,0-1.252-.421,1.976,1.976,0,0,0-1.216.366,1.079,1.079,0,0,0-.491.886H19.739a1.87,1.87,0,0,1,.421-1.146A2.874,2.874,0,0,1,21.3-7.749a3.844,3.844,0,0,1,1.586-.322,3.133,3.133,0,0,1,2.146.685A2.47,2.47,0,0,1,25.84-5.5v3.647a4.459,4.459,0,0,0,.278,1.736V0ZM22.449-1.033a2.381,2.381,0,0,0,1.208-.33,1.994,1.994,0,0,0,.828-.857V-3.845H23.423q-2.49,0-2.49,1.458a1.234,1.234,0,0,0,.425,1A1.633,1.633,0,0,0,22.449-1.033ZM29.436,0H28.081V-11.25h1.355Zm5.457.146A3.463,3.463,0,0,1,32.271-.912,3.928,3.928,0,0,1,31.26-3.743v-.249A4.756,4.756,0,0,1,31.71-6.1a3.514,3.514,0,0,1,1.26-1.45,3.167,3.167,0,0,1,1.754-.524,2.968,2.968,0,0,1,2.4,1.018,4.408,4.408,0,0,1,.857,2.915v.564H32.615A2.817,2.817,0,0,0,33.3-1.681a2.153,2.153,0,0,0,1.666.721,2.36,2.36,0,0,0,1.216-.293,3.055,3.055,0,0,0,.872-.776l.828.645A3.328,3.328,0,0,1,34.893.146Zm-.168-7.1a1.807,1.807,0,0,0-1.377.6,2.9,2.9,0,0,0-.688,1.674h3.97v-.1a2.581,2.581,0,0,0-.557-1.6A1.7,1.7,0,0,0,34.724-6.958ZM41.023,0H39.668V-11.25h1.355Zm1.809-4.036A4.681,4.681,0,0,1,43.29-6.13a3.415,3.415,0,0,1,1.274-1.436,3.469,3.469,0,0,1,1.864-.505,3.342,3.342,0,0,1,2.618,1.121,4.311,4.311,0,0,1,1,2.981v.1A4.722,4.722,0,0,1,49.6-1.8,3.365,3.365,0,0,1,48.336-.366a3.509,3.509,0,0,1-1.893.513A3.334,3.334,0,0,1,43.832-.974a4.29,4.29,0,0,1-1-2.966Zm1.362.161a3.39,3.39,0,0,0,.612,2.117,1.957,1.957,0,0,0,1.637.8,1.945,1.945,0,0,0,1.641-.809,3.707,3.707,0,0,0,.608-2.267,3.384,3.384,0,0,0-.619-2.113,1.968,1.968,0,0,0-1.644-.809,1.946,1.946,0,0,0-1.619.8A3.68,3.68,0,0,0,44.194-3.875Z" transform="translate(-6514.548 -1642.653)" fill="#12263f"/>
      <path id="Trazado_195418" data-name="Trazado 195418" d="M-43.964-3.384A3.923,3.923,0,0,1-45.212-.773a4.093,4.093,0,0,1-2.794.919,3.758,3.758,0,0,1-3.029-1.355,5.451,5.451,0,0,1-1.139-3.625V-5.859a6.076,6.076,0,0,1,.531-2.615,3.966,3.966,0,0,1,1.505-1.732,4.191,4.191,0,0,1,2.256-.6,3.853,3.853,0,0,1,2.725.948,3.971,3.971,0,0,1,1.194,2.626h-1.414a3.064,3.064,0,0,0-.795-1.851,2.4,2.4,0,0,0-1.71-.573,2.516,2.516,0,0,0-2.113,1,4.577,4.577,0,0,0-.765,2.837v1.034a4.7,4.7,0,0,0,.725,2.764A2.343,2.343,0,0,0-48.007-1a2.706,2.706,0,0,0,1.8-.531,2.947,2.947,0,0,0,.831-1.849Zm1.348-.652a4.681,4.681,0,0,1,.458-2.095,3.415,3.415,0,0,1,1.274-1.436,3.469,3.469,0,0,1,1.864-.505A3.342,3.342,0,0,1-36.4-6.951a4.311,4.311,0,0,1,1,2.981v.1A4.722,4.722,0,0,1-35.845-1.8,3.365,3.365,0,0,1-37.112-.366a3.509,3.509,0,0,1-1.893.513A3.334,3.334,0,0,1-41.616-.974a4.29,4.29,0,0,1-1-2.966Zm1.362.161a3.39,3.39,0,0,0,.612,2.117,1.957,1.957,0,0,0,1.637.8,1.945,1.945,0,0,0,1.641-.809,3.707,3.707,0,0,0,.608-2.267,3.384,3.384,0,0,0-.619-2.113,1.968,1.968,0,0,0-1.644-.809,1.946,1.946,0,0,0-1.619.8A3.68,3.68,0,0,0-41.254-3.875Zm8.833-4.05.044,1A2.888,2.888,0,0,1-30-8.071q2.512,0,2.534,2.834V0h-1.355V-5.244a1.824,1.824,0,0,0-.392-1.267,1.57,1.57,0,0,0-1.2-.41,1.956,1.956,0,0,0-1.157.352,2.387,2.387,0,0,0-.776.923V0H-33.7V-7.925ZM-22.137.146A3.463,3.463,0,0,1-24.76-.912,3.928,3.928,0,0,1-25.77-3.743v-.249A4.756,4.756,0,0,1-25.32-6.1a3.514,3.514,0,0,1,1.26-1.45,3.167,3.167,0,0,1,1.754-.524,2.968,2.968,0,0,1,2.4,1.018,4.408,4.408,0,0,1,.857,2.915v.564h-5.369a2.817,2.817,0,0,0,.685,1.893,2.153,2.153,0,0,0,1.666.721,2.36,2.36,0,0,0,1.216-.293,3.055,3.055,0,0,0,.872-.776l.828.645A3.328,3.328,0,0,1-22.137.146Zm-.168-7.1a1.807,1.807,0,0,0-1.377.6,2.9,2.9,0,0,0-.688,1.674h3.97v-.1a2.581,2.581,0,0,0-.557-1.6A1.7,1.7,0,0,0-22.306-6.958Zm8.005,6A1.952,1.952,0,0,0-13.033-1.4a1.546,1.546,0,0,0,.6-1.1h1.282a2.457,2.457,0,0,1-.469,1.3,3.087,3.087,0,0,1-1.154.981A3.329,3.329,0,0,1-14.3.146a3.265,3.265,0,0,1-2.574-1.08,4.3,4.3,0,0,1-.956-2.955v-.227a4.771,4.771,0,0,1,.425-2.058,3.236,3.236,0,0,1,1.219-1.4,3.464,3.464,0,0,1,1.879-.5,3.178,3.178,0,0,1,2.216.8A2.853,2.853,0,0,1-11.151-5.2h-1.282a1.867,1.867,0,0,0-.582-1.263,1.811,1.811,0,0,0-1.293-.494,1.9,1.9,0,0,0-1.6.743,3.491,3.491,0,0,0-.568,2.15v.256A3.422,3.422,0,0,0-15.912-1.7,1.906,1.906,0,0,0-14.3-.959Zm6.511-8.884v1.919H-6.31v1.047H-7.789v4.921a1.1,1.1,0,0,0,.2.715A.832.832,0,0,0-6.918-1a3.281,3.281,0,0,0,.645-.088V0a3.951,3.951,0,0,1-1.04.146A1.687,1.687,0,0,1-8.683-.4a2.36,2.36,0,0,1-.461-1.56V-6.877h-1.443V-7.925h1.443V-9.844Zm2.556,5.808A4.681,4.681,0,0,1-4.775-6.13,3.415,3.415,0,0,1-3.5-7.566a3.469,3.469,0,0,1,1.864-.505A3.342,3.342,0,0,1,.981-6.951a4.311,4.311,0,0,1,1,2.981v.1A4.722,4.722,0,0,1,1.538-1.8,3.365,3.365,0,0,1,.271-.366,3.509,3.509,0,0,1-1.622.146,3.334,3.334,0,0,1-4.233-.974a4.29,4.29,0,0,1-1-2.966Zm1.362.161a3.39,3.39,0,0,0,.612,2.117,1.957,1.957,0,0,0,1.637.8A1.945,1.945,0,0,0,.018-1.769,3.707,3.707,0,0,0,.626-4.036,3.384,3.384,0,0,0,.007-6.149a1.968,1.968,0,0,0-1.644-.809,1.946,1.946,0,0,0-1.619.8A3.68,3.68,0,0,0-3.871-3.875ZM7.511-6.709a4.061,4.061,0,0,0-.667-.051A1.786,1.786,0,0,0,5.035-5.625V0H3.68V-7.925H5l.022.916A2.11,2.11,0,0,1,6.91-8.071a1.384,1.384,0,0,1,.6.1ZM12.14-4.028A4.642,4.642,0,0,1,13-6.962a2.733,2.733,0,0,1,2.263-1.11,2.748,2.748,0,0,1,2.2.952V-11.25h1.355V0H17.582l-.066-.85a2.759,2.759,0,0,1-2.263,1A2.707,2.707,0,0,1,13.008-.981a4.7,4.7,0,0,1-.868-2.944Zm1.355.154a3.515,3.515,0,0,0,.557,2.109A1.8,1.8,0,0,0,15.59-1a1.977,1.977,0,0,0,1.882-1.157V-5.8A1.992,1.992,0,0,0,15.6-6.921a1.808,1.808,0,0,0-1.553.769A3.87,3.87,0,0,0,13.495-3.875ZM24.218.146A3.463,3.463,0,0,1,21.6-.912a3.928,3.928,0,0,1-1.011-2.831v-.249a4.756,4.756,0,0,1,.45-2.106,3.514,3.514,0,0,1,1.26-1.45,3.167,3.167,0,0,1,1.754-.524,2.968,2.968,0,0,1,2.4,1.018,4.408,4.408,0,0,1,.857,2.915v.564H21.94a2.817,2.817,0,0,0,.685,1.893,2.153,2.153,0,0,0,1.666.721,2.36,2.36,0,0,0,1.216-.293,3.055,3.055,0,0,0,.872-.776l.828.645A3.328,3.328,0,0,1,24.218.146Zm-.168-7.1a1.807,1.807,0,0,0-1.377.6,2.9,2.9,0,0,0-.688,1.674h3.97v-.1a2.581,2.581,0,0,0-.557-1.6A1.7,1.7,0,0,0,24.049-6.958Zm12.371.249a4.061,4.061,0,0,0-.667-.051,1.786,1.786,0,0,0-1.809,1.135V0H32.589V-7.925h1.318l.022.916a2.11,2.11,0,0,1,1.89-1.062,1.384,1.384,0,0,1,.6.1ZM40.953.146A3.463,3.463,0,0,1,38.331-.912a3.928,3.928,0,0,1-1.011-2.831v-.249a4.756,4.756,0,0,1,.45-2.106,3.514,3.514,0,0,1,1.26-1.45,3.167,3.167,0,0,1,1.754-.524,2.968,2.968,0,0,1,2.4,1.018,4.408,4.408,0,0,1,.857,2.915v.564H38.676a2.817,2.817,0,0,0,.685,1.893,2.153,2.153,0,0,0,1.666.721,2.36,2.36,0,0,0,1.216-.293,3.055,3.055,0,0,0,.872-.776l.828.645A3.328,3.328,0,0,1,40.953.146Zm-.168-7.1a1.807,1.807,0,0,0-1.377.6,2.9,2.9,0,0,0-.688,1.674h3.97v-.1a2.581,2.581,0,0,0-.557-1.6A1.7,1.7,0,0,0,40.785-6.958Zm4.5,2.93a4.642,4.642,0,0,1,.864-2.933,2.733,2.733,0,0,1,2.263-1.11,2.748,2.748,0,0,1,2.2.952V-11.25h1.355V0H50.724l-.066-.85a2.759,2.759,0,0,1-2.263,1A2.707,2.707,0,0,1,46.15-.981a4.7,4.7,0,0,1-.868-2.944Zm1.355.154a3.515,3.515,0,0,0,.557,2.109A1.8,1.8,0,0,0,48.732-1a1.977,1.977,0,0,0,1.882-1.157V-5.8a1.992,1.992,0,0,0-1.868-1.121,1.808,1.808,0,0,0-1.553.769A3.87,3.87,0,0,0,46.637-3.875Z" transform="translate(-6346.577 -1642.653)" fill="#12263f"/>
      <path id="Trazado_193034" data-name="Trazado 193034" d="M-6681.568-872.484v-24.125" transform="translate(5.423 -737.84)" fill="none" stroke="#12263f" stroke-width="2"/>
      <path id="Trazado_193035-3" data-name="Trazado 193035" d="M-6681.568-872.484v-24.125" transform="translate(-13240.115 -2343.205) rotate(180)" fill="none" stroke="#12263f" stroke-width="2"/>
      <path id="Trazado_193036-3" data-name="Trazado 193036" d="M-6681.568-872.484v-24.125" transform="translate(-13136.4 -2343.205) rotate(180)" fill="none" stroke="#12263f" stroke-width="2"/>
      <path id="Trazado_193037-2" data-name="Trazado 193037" d="M-6681.568-872.484v-24.125" transform="translate(-13023.918 -2343.205) rotate(180)" fill="none" stroke="#12263f" stroke-width="2"/>
      <path id="Trazado_193038-2" data-name="Trazado 193038" d="M-6681.568-872.484v-24.125" transform="translate(-7133.032 5140.728) rotate(90)" fill="none" stroke="#12263f" stroke-width="2"/>
      <path id="Trazado_193039-2" data-name="Trazado 193039" d="M-6681.568-872.484v-24.125" transform="translate(166.751 -737.84)" fill="none" stroke="#12263f" stroke-width="2"/>
      <path id="Trazado_193040-2" data-name="Trazado 193040" d="M-6681.568-872.484v-24.125" transform="translate(336.115 -737.84)" fill="none" stroke="#12263f" stroke-width="2"/>
      <path id="Trazado_193041-2" data-name="Trazado 193041" d="M-6715.321-858.756v-7.475h70.417v7.475" transform="translate(4.423 -743.84)" fill="none" stroke="#12263f" stroke-width="2"/>
      <path id="Trazado_193042-2" data-name="Trazado 193042" d="M-6715.322-858.756v-7.475h118.056v7.475" transform="translate(-13214.842 -2337.205) rotate(180)" fill="none" stroke="#12263f" stroke-width="2"/>
      <path id="Trazado_193043-2" data-name="Trazado 193043" d="M-6715.322-858.756v-7.475h73.354v7.475" transform="translate(-13133.477 -2337.205) rotate(180)" fill="none" stroke="#12263f" stroke-width="2"/>
      <path id="Trazado_193044-2" data-name="Trazado 193044" d="M-6715.322-858.756v-7.475h59.163v7.475" transform="translate(-13028.09 -2337.205) rotate(180)" fill="none" stroke="#12263f" stroke-width="2"/>
      <path id="Trazado_193045" data-name="Trazado 193045" d="M-6715.323-858.756v-7.475h101.868v7.475" transform="translate(-7127.032 5126.82) rotate(90)" fill="none" stroke="#12263f" stroke-width="2"/>
      <path id="Trazado_193046" data-name="Trazado 193046" d="M-6715.322-858.756v-7.475h207.752v7.475" transform="translate(92.423 -743.84)" fill="none" stroke="#12263f" stroke-width="2"/>
      <path id="Trazado_193047-2" data-name="Trazado 193047" d="M-6715.322-858.756v-7.475h64.685v7.475" transform="translate(337.87 -743.84)" fill="none" stroke="#12263f" stroke-width="2"/>
    </g>
    <path id="Trazado_193106" data-name="Trazado 193106" d="M-6681.568-872.484v-24.125" transform="translate(-7133.032 5140.728) rotate(90)" fill="none" stroke="#12263f" stroke-width="2"/>
    <path id="Trazado_193107" data-name="Trazado 193107" d="M-6715.323-858.756v-7.475h101.868v7.475" transform="translate(-7127.032 5126.82) rotate(90)" fill="none" stroke="#12263f" stroke-width="2"/>
  </g>
</svg>
