<svg xmlns="http://www.w3.org/2000/svg" xmlns:xlink="http://www.w3.org/1999/xlink" width="371.701" height="368.885" viewBox="0 0 371.701 368.885">
  <defs>
    <radialGradient id="radial-gradient" cx="0.967" cy="0.944" r="1.063" gradientTransform="translate(-0.095) scale(1.19 1)" gradientUnits="objectBoundingBox">
      <stop offset="0" stop-color="#86b8e0"/>
      <stop offset="0.116" stop-color="#98c4e7"/>
      <stop offset="0.325" stop-color="#b2d5f1"/>
      <stop offset="0.54" stop-color="#c5e2f9"/>
      <stop offset="0.761" stop-color="#d0e9fd"/>
      <stop offset="1" stop-color="#d4ecff"/>
    </radialGradient>
    <radialGradient id="radial-gradient-2" cx="0.892" cy="0.72" r="0.788" gradientTransform="translate(-0.09) scale(1.18 1)" gradientUnits="objectBoundingBox">
      <stop offset="0" stop-color="#173d7a"/>
      <stop offset="1" stop-color="#274f89"/>
    </radialGradient>
    <radialGradient id="radial-gradient-3" cx="1.127" cy="0.6" r="2.077" gradientTransform="translate(0.211) scale(0.577 1)" xlink:href="#radial-gradient"/>
    <radialGradient id="radial-gradient-4" cx="1.002" cy="0.908" r="1.092" gradientTransform="translate(0.007) scale(0.987 1)" xlink:href="#radial-gradient-2"/>
    <radialGradient id="radial-gradient-5" cx="0.234" cy="0.38" r="0.644" gradientTransform="translate(-0.287) scale(1.574 1)" gradientUnits="objectBoundingBox">
      <stop offset="0" stop-color="#396caa"/>
      <stop offset="1" stop-color="#274f89"/>
    </radialGradient>
    <linearGradient id="linear-gradient" x1="0.029" y1="0.235" x2="0.883" y2="0.916" gradientUnits="objectBoundingBox">
      <stop offset="0" stop-color="#d4ecff"/>
      <stop offset="0.239" stop-color="#d0e9fd"/>
      <stop offset="0.46" stop-color="#c5e2f9"/>
      <stop offset="0.675" stop-color="#b2d5f1"/>
      <stop offset="0.884" stop-color="#98c4e7"/>
      <stop offset="1" stop-color="#86b8e0"/>
    </linearGradient>
    <linearGradient id="linear-gradient-2" x1="-6.199" y1="8.517" x2="-5.073" y2="8.43" gradientUnits="objectBoundingBox">
      <stop offset="0" stop-color="#3919bb"/>
      <stop offset="1" stop-color="#6507fa"/>
    </linearGradient>
    <radialGradient id="radial-gradient-6" cx="0.988" cy="0.656" r="1.746" gradientTransform="translate(0.211) scale(0.577 1)" xlink:href="#radial-gradient-2"/>
    <linearGradient id="linear-gradient-4" x1="0.101" y1="0.5" x2="1.101" y2="0.5" xlink:href="#linear-gradient"/>
    <radialGradient id="radial-gradient-7" cx="0.923" cy="0.779" r="1.227" gradientTransform="translate(0.133) scale(0.734 1)" xlink:href="#radial-gradient-2"/>
  </defs>
  <g id="Grupo_152638" data-name="Grupo 152638" transform="translate(-166.989 -960.203)">
    <g id="Grupo_152006" data-name="Grupo 152006" transform="translate(314.264 1300.512)">
      <path id="Trazado_194446" data-name="Trazado 194446" d="M340.233,366.714a6.055,6.055,0,0,1-2.739,4.744c-1.512.873-2.739.165-2.739-1.581a6.054,6.054,0,0,1,2.739-4.743C339.007,364.26,340.233,364.968,340.233,366.714Z" transform="translate(-334.755 -349.383)" fill="#fff"/>
      <path id="Trazado_194447" data-name="Trazado 194447" d="M348.777,361.781a6.055,6.055,0,0,1-2.739,4.744c-1.512.873-2.739.165-2.739-1.581a6.054,6.054,0,0,1,2.739-4.743C347.551,359.327,348.777,360.036,348.777,361.781Z" transform="translate(-334.422 -349.576)" fill="#fff"/>
      <path id="Trazado_194448" data-name="Trazado 194448" d="M357.321,356.849a6.051,6.051,0,0,1-2.739,4.743c-1.512.874-2.739.165-2.739-1.581a6.054,6.054,0,0,1,2.739-4.743C356.095,354.394,357.321,355.1,357.321,356.849Z" transform="translate(-334.088 -349.768)" fill="#fff"/>
      <path id="Trazado_194449" data-name="Trazado 194449" d="M365.865,351.916a6.051,6.051,0,0,1-2.739,4.743c-1.512.874-2.739.165-2.739-1.581a6.054,6.054,0,0,1,2.739-4.743C364.639,349.461,365.865,350.17,365.865,351.916Z" transform="translate(-333.755 -349.961)" fill="#fff"/>
    </g>
    <path id="Trazado_194451" data-name="Trazado 194451" d="M244.795,321.124a11.128,11.128,0,0,0-2.833,2.434c-.132-5.586-4.141-7.818-9.077-4.968a16.5,16.5,0,0,0-4.362,3.807c-2.2-3.841-6.749-4.733-12.026-1.687-7.419,4.284-13.432,14.7-13.432,23.266a15.864,15.864,0,0,0,.135,2,5.066,5.066,0,0,0-3.762.76,14.205,14.205,0,0,0-6.426,11.132c0,4.1,2.877,5.759,6.426,3.71l45.357-26.188a13.654,13.654,0,0,0,6.179-10.7C250.974,320.751,248.208,319.154,244.795,321.124Z" transform="translate(-26.022 949.279)" fill="#fff" opacity="0.4"/>
    <g id="Grupo_152027" data-name="Grupo 152027" transform="translate(184.948 1040.245)">
      <path id="Trazado_194480" data-name="Trazado 194480" d="M329.193,354.647,213.8,288.025c-3.265-1.885-2.855-5.176.914-7.353l78.574-45.349c3.768-2.176,9.471-2.413,12.735-.528l115.392,66.622c3.265,1.885,2.855,5.176-.914,7.353l-78.573,45.349C338.159,356.295,332.457,356.532,329.193,354.647Z" transform="translate(-210.245 -94.238)" fill="#7dc3ea"/>
      <path id="Trazado_194481" data-name="Trazado 194481" d="M334.789,345.063a12.638,12.638,0,0,1-6.222-1.459L213.176,276.982a5.087,5.087,0,0,1-2.88-4.365c0-1.995,1.383-3.938,3.793-5.33l78.574-45.349c4.206-2.428,10.394-2.661,14.087-.528l115.393,66.622a5.09,5.09,0,0,1,2.879,4.364c0,1.995-1.382,3.938-3.793,5.33l-78.574,45.35A16.1,16.1,0,0,1,334.789,345.063Zm-34.229-122.4a13.526,13.526,0,0,0-6.546,1.615l-78.574,45.349c-1.528.883-2.441,2-2.441,2.988a2.593,2.593,0,0,0,1.526,2.023L329.92,341.262c2.839,1.64,8.05,1.4,11.384-.528l78.574-45.35c1.529-.882,2.442-2,2.442-2.988a2.594,2.594,0,0,0-1.527-2.022L305.4,223.752A9.911,9.911,0,0,0,300.561,222.665Z" transform="translate(-210.296 -94.767)" fill="#fff"/>
      <g id="Grupo_152026" data-name="Grupo 152026" transform="translate(1.352)">
        <path id="Trazado_194482" data-name="Trazado 194482" d="M446.365,166.8,330.972,100.182a4.656,4.656,0,0,0-3.91-.479l.007-.012-.21.079-.051.02-4.171,1.6,3.743,1.832c-.017.07-.037.134-.053.2l-20.39,92.723c-.94,4.282.943,9.281,4.208,11.165l112.616,65.019-.4,4.772,4.557-1.766a6.4,6.4,0,0,0,3.265-4.642l20.389-92.722C451.512,173.687,449.629,168.689,446.365,166.8Z" transform="translate(-207.925 -99.469)" fill="#173d7a"/>
        <path id="Trazado_194483" data-name="Trazado 194483" d="M446.115,166.8,330.723,100.182a4.655,4.655,0,0,0-3.91-.479l.007-.012-.21.079-.051.02-4.171,1.6,3.743,1.832c-.017.07-.037.134-.053.2L312.1,166.974l56.459,43.988,81.2-39.561A8.961,8.961,0,0,0,446.115,166.8Z" transform="translate(-207.675 -99.469)" fill="#396caa"/>
        <path id="Trazado_194484" data-name="Trazado 194484" d="M437.22,177.4,446,173.663a11.005,11.005,0,0,0-3.559-8.8l-13.9,5.85Z" transform="translate(-203.131 -96.917)" fill="#274f89"/>
        <path id="Trazado_194485" data-name="Trazado 194485" d="M418.623,276.587,303.23,209.965c-3.265-1.885-5.148-6.884-4.207-11.165l20.389-92.722c.94-4.282,4.349-6.225,7.614-4.34l115.392,66.621c3.265,1.885,5.148,6.884,4.208,11.165l-20.39,92.723C425.3,276.529,421.886,278.471,418.623,276.587Z" transform="translate(-208.195 -99.408)" fill="url(#radial-gradient)"/>
        <path id="Trazado_194486" data-name="Trazado 194486" d="M442.594,167.968,327.2,101.347a4.559,4.559,0,0,0-4.544-.2,4.742,4.742,0,0,1,3.436.6l115.392,66.621c3.265,1.885,5.148,6.885,4.208,11.165L425.3,272.261a6.5,6.5,0,0,1-3.07,4.537c1.948-.425,3.574-2.192,4.179-4.943L446.8,179.133C447.742,174.851,445.858,169.853,442.594,167.968Z" transform="translate(-207.263 -99.423)" fill="#fff"/>
        <path id="Trazado_194487" data-name="Trazado 194487" d="M415.943,269.987,307.419,207.361c-2.987-1.725-4.711-6.3-3.851-10.217l18.793-85.457c.861-3.918,3.98-5.7,6.968-3.972l108.524,62.626c2.987,1.725,4.711,6.3,3.851,10.217L422.91,266.015C422.049,269.933,418.93,271.712,415.943,269.987Z" transform="translate(-208.017 -99.172)" fill="#fff"/>
        <path id="Trazado_194488" data-name="Trazado 194488" d="M415.943,269.987,307.419,207.361c-2.987-1.725-4.711-6.3-3.851-10.217l18.793-85.457c.861-3.918,3.98-5.7,6.968-3.972l108.524,62.626c2.987,1.725,4.711,6.3,3.851,10.217L422.91,266.015C422.049,269.933,418.93,271.712,415.943,269.987Z" transform="translate(-208.017 -99.172)" fill="url(#radial-gradient-2)"/>
        <path id="Trazado_194489" data-name="Trazado 194489" d="M416.889,269.6,308.364,206.971c-2.987-1.724-4.711-6.3-3.851-10.216L323.308,111.3a6.005,6.005,0,0,1,2.734-4.121c-1.72.443-3.142,2.055-3.68,4.506l-18.793,85.456c-.86,3.919.863,8.493,3.851,10.218l108.524,62.626a4.173,4.173,0,0,0,4.233.15A4.325,4.325,0,0,1,416.889,269.6Z" transform="translate(-208.017 -99.168)" fill="#5793ce"/>
        <path id="Trazado_194490" data-name="Trazado 194490" d="M423.617,275.119l-15.773-2.082-101.82-58.786c-3.265-1.885-8.967-1.649-12.735.528l-72.15,41.64-9.538-1.259v5.411l.009,0a3.716,3.716,0,0,0,2.19,3.343l115.393,66.622c3.264,1.884,8.966,1.648,12.735-.528l78.573-45.35c2.121-1.224,3.178-2.8,3.116-4.282h0Z" transform="translate(-211.597 -95.039)" fill="#173d7a"/>
        <path id="Trazado_194491" data-name="Trazado 194491" d="M347.113,237.192l-7.234-4.177H260.348l-39.209,22.622-9.538-1.259v5.411l.009,0a3.716,3.716,0,0,0,2.19,3.343l115.393,66.622a11.94,11.94,0,0,0,6.572,1.231Z" transform="translate(-211.597 -94.257)" fill="#396caa"/>
        <path id="Trazado_194492" data-name="Trazado 194492" d="M215.834,254.134l-4.233-.559v5.411l.009,0a3.716,3.716,0,0,0,2.19,3.343l2.033,1.174Z" transform="translate(-211.597 -93.455)" fill="#5793ce"/>
        <path id="Trazado_194493" data-name="Trazado 194493" d="M325.895,327.12a14.778,14.778,0,0,0,10.821-.671V314.377H325.895Z" transform="translate(-207.137 -91.082)" fill="#274f89"/>
        <path id="Trazado_194494" data-name="Trazado 194494" d="M329.193,325.468,213.8,258.847c-3.265-1.885-2.855-5.177.914-7.353l78.574-45.349c3.768-2.177,9.471-2.413,12.735-.528l115.392,66.621c3.265,1.885,2.855,5.177-.914,7.353L341.929,324.94C338.159,327.117,332.457,327.353,329.193,325.468Z" transform="translate(-211.597 -95.376)" fill="url(#radial-gradient-3)"/>
        <path id="Trazado_194495" data-name="Trazado 194495" d="M420.5,275.725l-78.573,45.349c-3.77,2.176-9.472,2.413-12.735.528L213.8,254.98a4.291,4.291,0,0,1-2.029-2.219c-.511,1.544.14,3.106,2.029,4.2l115.393,66.621c3.264,1.885,8.966,1.649,12.735-.528L420.5,277.7c2.534-1.463,3.542-3.429,2.945-5.133A6.141,6.141,0,0,1,420.5,275.725Z" transform="translate(-211.597 -93.487)" fill="#fff"/>
        <g id="Grupo_152023" data-name="Grupo 152023" transform="translate(45.778 113.071)">
          <path id="Trazado_194496" data-name="Trazado 194496" d="M261.16,235.863l-5.221-3.014c-.42-.242-.367-.665.117-.944l6.162-3.558a1.817,1.817,0,0,1,1.635-.068l5.221,3.014c.419.242.367.665-.117.944L262.8,235.8A1.817,1.817,0,0,1,261.16,235.863Z" transform="translate(-255.655 -207.519)" fill="#5793ce"/>
          <path id="Trazado_194497" data-name="Trazado 194497" d="M268.92,240.343l-5.221-3.014c-.42-.242-.367-.665.117-.944l6.162-3.558a1.817,1.817,0,0,1,1.635-.068l5.221,3.014c.419.242.367.665-.117.944l-6.162,3.558A1.817,1.817,0,0,1,268.92,240.343Z" transform="translate(-255.353 -207.344)" fill="#5793ce"/>
          <path id="Trazado_194498" data-name="Trazado 194498" d="M276.68,244.824l-5.221-3.014c-.42-.242-.367-.665.117-.944l6.162-3.559a1.817,1.817,0,0,1,1.635-.068l5.221,3.014c.419.242.367.665-.117.944l-6.162,3.558A1.818,1.818,0,0,1,276.68,244.824Z" transform="translate(-255.05 -207.169)" fill="#5793ce"/>
          <path id="Trazado_194499" data-name="Trazado 194499" d="M287.412,241.1l-5.221-3.014c-.419-.242-.366-.665.117-.945l5.173-2.987a1.817,1.817,0,0,1,1.635-.068l5.221,3.014c.42.242.367.665-.117.944l-5.173,2.986A1.817,1.817,0,0,1,287.412,241.1Z" transform="translate(-254.631 -207.292)" fill="#5793ce"/>
          <path id="Trazado_194500" data-name="Trazado 194500" d="M295.172,245.583l-5.221-3.014c-.419-.242-.366-.665.118-.944l5.172-2.987a1.817,1.817,0,0,1,1.635-.068l5.221,3.014c.42.242.367.665-.117.944l-5.173,2.987A1.817,1.817,0,0,1,295.172,245.583Z" transform="translate(-254.328 -207.118)" fill="#5793ce"/>
          <path id="Trazado_194501" data-name="Trazado 194501" d="M302.932,250.063l-5.221-3.014c-.419-.242-.366-.665.118-.944L303,243.118a1.821,1.821,0,0,1,1.635-.069l5.221,3.015c.42.242.367.664-.117.943l-5.172,2.987A1.819,1.819,0,0,1,302.932,250.063Z" transform="translate(-254.025 -206.943)" fill="#5793ce"/>
          <path id="Trazado_194502" data-name="Trazado 194502" d="M310.692,254.543l-5.22-3.014c-.42-.242-.367-.664.117-.943l5.173-2.987a1.815,1.815,0,0,1,1.634-.068l5.221,3.014c.42.242.367.665-.117.944l-5.172,2.986A1.819,1.819,0,0,1,310.692,254.543Z" transform="translate(-253.722 -206.768)" fill="#5793ce"/>
          <path id="Trazado_194503" data-name="Trazado 194503" d="M318.453,259.024l-5.221-3.014c-.42-.242-.367-.665.117-.944l5.172-2.987a1.819,1.819,0,0,1,1.636-.068l5.22,3.014c.42.242.367.665-.117.944l-5.172,2.987A1.821,1.821,0,0,1,318.453,259.024Z" transform="translate(-253.42 -206.593)" fill="#5793ce"/>
          <path id="Trazado_194504" data-name="Trazado 194504" d="M326.213,263.5l-5.221-3.014c-.42-.242-.367-.665.117-.944l5.173-2.986a1.817,1.817,0,0,1,1.635-.069l5.221,3.014c.419.242.367.665-.117.944l-5.173,2.987A1.817,1.817,0,0,1,326.213,263.5Z" transform="translate(-253.117 -206.418)" fill="#5793ce"/>
          <path id="Trazado_194505" data-name="Trazado 194505" d="M333.973,267.983l-5.221-3.014c-.42-.242-.367-.665.117-.944l5.173-2.986a1.817,1.817,0,0,1,1.635-.068l5.221,3.014c.419.242.367.664-.117.943l-5.173,2.987A1.817,1.817,0,0,1,333.973,267.983Z" transform="translate(-252.814 -206.243)" fill="#5793ce"/>
          <path id="Trazado_194506" data-name="Trazado 194506" d="M341.733,272.465l-5.221-3.015c-.42-.242-.367-.664.117-.943l5.173-2.987a1.817,1.817,0,0,1,1.635-.068l5.221,3.014c.419.242.367.665-.117.944l-5.173,2.986A1.821,1.821,0,0,1,341.733,272.465Z" transform="translate(-252.511 -206.069)" fill="#5793ce"/>
          <path id="Trazado_194507" data-name="Trazado 194507" d="M349.493,276.945l-5.221-3.014c-.42-.242-.367-.665.117-.944L349.562,270a1.817,1.817,0,0,1,1.635-.068l5.221,3.014c.419.242.367.665-.117.944l-5.173,2.987A1.817,1.817,0,0,1,349.493,276.945Z" transform="translate(-252.208 -205.894)" fill="#5793ce"/>
          <path id="Trazado_194508" data-name="Trazado 194508" d="M357.253,281.424l-5.221-3.014c-.42-.242-.367-.665.117-.944l5.173-2.986a1.817,1.817,0,0,1,1.635-.069l5.221,3.014c.419.242.367.665-.117.944l-5.173,2.987A1.817,1.817,0,0,1,357.253,281.424Z" transform="translate(-251.906 -205.719)" fill="#5793ce"/>
          <path id="Trazado_194509" data-name="Trazado 194509" d="M298.846,238.982l-5.221-3.015c-.419-.242-.367-.664.117-.943l5.173-2.987a1.817,1.817,0,0,1,1.635-.068l5.221,3.014c.42.242.367.665-.117.944l-5.173,2.986A1.817,1.817,0,0,1,298.846,238.982Z" transform="translate(-254.185 -207.375)" fill="#5793ce"/>
          <path id="Trazado_194510" data-name="Trazado 194510" d="M290.97,234.434l-5.22-3.014c-.42-.242-.367-.665.116-.944l5.173-2.986a1.817,1.817,0,0,1,1.635-.068l5.221,3.014c.42.242.367.665-.117.944l-5.173,2.986A1.817,1.817,0,0,1,290.97,234.434Z" transform="translate(-254.492 -207.553)" fill="#5793ce"/>
          <path id="Trazado_194511" data-name="Trazado 194511" d="M283.308,230.01l-11.245-6.492c-.419-.242-.367-.665.117-.944l5.173-2.987a1.817,1.817,0,0,1,1.635-.068l11.245,6.492c.419.242.367.665-.117.944l-5.173,2.987A1.817,1.817,0,0,1,283.308,230.01Z" transform="translate(-255.026 -207.861)" fill="#5793ce"/>
          <path id="Trazado_194512" data-name="Trazado 194512" d="M288.742,224.425l-9.126-5.269c-.419-.242-.367-.665.117-.944l5.173-2.986a1.817,1.817,0,0,1,1.635-.068l9.126,5.268c.419.242.367.665-.117.944l-5.173,2.987A1.817,1.817,0,0,1,288.742,224.425Z" transform="translate(-254.731 -208.031)" fill="#5793ce"/>
          <path id="Trazado_194513" data-name="Trazado 194513" d="M306.606,243.462l-5.221-3.014c-.419-.242-.367-.665.117-.944l5.173-2.987a1.817,1.817,0,0,1,1.635-.068l5.221,3.014c.42.242.367.665-.117.944l-5.173,2.987A1.817,1.817,0,0,1,306.606,243.462Z" transform="translate(-253.882 -207.2)" fill="#5793ce"/>
          <path id="Trazado_194514" data-name="Trazado 194514" d="M314.366,247.942l-5.221-3.014c-.419-.242-.366-.665.118-.944L314.435,241a1.817,1.817,0,0,1,1.635-.069l5.221,3.014c.42.242.367.665-.117.944L316,247.874A1.817,1.817,0,0,1,314.366,247.942Z" transform="translate(-253.579 -207.025)" fill="#5793ce"/>
          <path id="Trazado_194515" data-name="Trazado 194515" d="M322.126,252.422l-5.221-3.014c-.419-.242-.366-.665.118-.944l5.172-2.986a1.819,1.819,0,0,1,1.636-.068l5.22,3.014c.42.242.367.665-.117.944l-5.173,2.986A1.817,1.817,0,0,1,322.126,252.422Z" transform="translate(-253.276 -206.851)" fill="#5793ce"/>
          <path id="Trazado_194516" data-name="Trazado 194516" d="M329.886,256.9l-5.221-3.015c-.419-.241-.366-.664.118-.943l5.173-2.987a1.817,1.817,0,0,1,1.635-.068l5.221,3.014c.419.242.366.665-.118.944l-5.172,2.986A1.82,1.82,0,0,1,329.886,256.9Z" transform="translate(-252.974 -206.676)" fill="#5793ce"/>
          <path id="Trazado_194517" data-name="Trazado 194517" d="M337.647,261.383l-5.221-3.014c-.42-.242-.367-.665.117-.944l5.173-2.987a1.817,1.817,0,0,1,1.635-.068l5.221,3.014c.419.242.366.665-.118.944l-5.172,2.987A1.817,1.817,0,0,1,337.647,261.383Z" transform="translate(-252.671 -206.501)" fill="#5793ce"/>
          <path id="Trazado_194518" data-name="Trazado 194518" d="M345.407,265.863l-5.221-3.014c-.42-.242-.367-.665.117-.944l5.173-2.986a1.817,1.817,0,0,1,1.635-.069l5.221,3.015c.419.241.366.664-.117.943l-5.173,2.987A1.817,1.817,0,0,1,345.407,265.863Z" transform="translate(-252.368 -206.326)" fill="#5793ce"/>
          <path id="Trazado_194519" data-name="Trazado 194519" d="M353.167,270.342l-5.221-3.014c-.42-.242-.367-.665.117-.944l5.173-2.986a1.817,1.817,0,0,1,1.635-.068l5.221,3.014c.419.242.367.665-.117.944l-5.173,2.986A1.817,1.817,0,0,1,353.167,270.342Z" transform="translate(-252.065 -206.151)" fill="#5793ce"/>
          <path id="Trazado_194520" data-name="Trazado 194520" d="M360.927,274.824l-5.221-3.014c-.42-.242-.367-.665.117-.944L361,267.878a1.817,1.817,0,0,1,1.635-.068l5.221,3.014c.419.242.367.665-.117.944l-5.173,2.986A1.818,1.818,0,0,1,360.927,274.824Z" transform="translate(-251.762 -205.977)" fill="#5793ce"/>
          <path id="Trazado_194521" data-name="Trazado 194521" d="M368.687,279.3l-5.221-3.014c-.42-.242-.367-.665.117-.945l5.173-2.987a1.817,1.817,0,0,1,1.635-.068l5.221,3.014c.419.242.367.665-.117.944l-5.173,2.987A1.817,1.817,0,0,1,368.687,279.3Z" transform="translate(-251.459 -205.802)" fill="#5793ce"/>
          <path id="Trazado_194522" data-name="Trazado 194522" d="M382.713,287.4l-11.392-6.577c-.419-.242-.367-.665.117-.944l5.173-2.987a1.817,1.817,0,0,1,1.635-.068L389.64,283.4c.42.242.367.665-.117.944l-5.173,2.987A1.817,1.817,0,0,1,382.713,287.4Z" transform="translate(-251.153 -205.625)" fill="#5793ce"/>
          <path id="Trazado_194523" data-name="Trazado 194523" d="M397.755,278.641l-9.615-5.55c-.419-.242-.367-.665.117-.944l5.173-2.987a1.817,1.817,0,0,1,1.635-.068l9.615,5.552c.42.242.367.665-.117.944l-5.173,2.986A1.817,1.817,0,0,1,397.755,278.641Z" transform="translate(-250.497 -205.927)" fill="#5793ce"/>
          <path id="Trazado_194524" data-name="Trazado 194524" d="M320.2,242.585l-5.221-3.014c-.419-.242-.367-.665.117-.944l5.173-2.986a1.821,1.821,0,0,1,1.635-.069l5.221,3.015c.419.242.367.664-.117.943l-5.173,2.987A1.817,1.817,0,0,1,320.2,242.585Z" transform="translate(-253.352 -207.234)" fill="#5793ce"/>
          <path id="Trazado_194525" data-name="Trazado 194525" d="M312.243,237.994l-5.221-3.015c-.42-.242-.367-.664.117-.943l5.173-2.987a1.817,1.817,0,0,1,1.635-.068l5.221,3.014c.419.242.367.665-.117.944l-5.173,2.986A1.821,1.821,0,0,1,312.243,237.994Z" transform="translate(-253.662 -207.414)" fill="#5793ce"/>
          <path id="Trazado_194526" data-name="Trazado 194526" d="M304.29,233.4l-5.221-3.014c-.42-.242-.367-.665.117-.944l5.173-2.987a1.817,1.817,0,0,1,1.635-.068l5.221,3.014c.419.242.366.665-.117.944l-5.173,2.987A1.817,1.817,0,0,1,304.29,233.4Z" transform="translate(-253.972 -207.593)" fill="#5793ce"/>
          <path id="Trazado_194527" data-name="Trazado 194527" d="M296.337,228.81l-5.221-3.014c-.42-.242-.367-.665.117-.944l5.173-2.986a1.817,1.817,0,0,1,1.635-.069l5.221,3.014c.419.242.367.665-.117.944l-5.173,2.987A1.817,1.817,0,0,1,296.337,228.81Z" transform="translate(-254.283 -207.772)" fill="#5793ce"/>
          <path id="Trazado_194528" data-name="Trazado 194528" d="M327.956,247.065l-5.221-3.014c-.419-.242-.367-.664.117-.943l5.173-2.987a1.817,1.817,0,0,1,1.635-.068l5.221,3.014c.419.242.367.665-.117.944L329.591,247A1.817,1.817,0,0,1,327.956,247.065Z" transform="translate(-253.049 -207.06)" fill="#5793ce"/>
          <path id="Trazado_194529" data-name="Trazado 194529" d="M335.716,251.546l-5.221-3.014c-.419-.242-.367-.665.117-.944l5.173-2.987a1.817,1.817,0,0,1,1.635-.068l5.221,3.014c.419.242.367.665-.117.944l-5.173,2.987A1.821,1.821,0,0,1,335.716,251.546Z" transform="translate(-252.746 -206.885)" fill="#5793ce"/>
          <path id="Trazado_194530" data-name="Trazado 194530" d="M343.476,256.026l-5.221-3.014c-.419-.242-.367-.665.117-.944l5.173-2.986a1.818,1.818,0,0,1,1.635-.069l5.221,3.014c.42.242.367.665-.117.944l-5.173,2.987A1.817,1.817,0,0,1,343.476,256.026Z" transform="translate(-252.443 -206.71)" fill="#5793ce"/>
          <path id="Trazado_194531" data-name="Trazado 194531" d="M351.236,260.505l-5.221-3.014c-.419-.242-.367-.665.117-.944l5.173-2.986a1.817,1.817,0,0,1,1.635-.068l5.221,3.014c.419.242.367.664-.117.943l-5.173,2.987A1.817,1.817,0,0,1,351.236,260.505Z" transform="translate(-252.14 -206.535)" fill="#5793ce"/>
          <path id="Trazado_194532" data-name="Trazado 194532" d="M359,264.987l-5.221-3.015c-.419-.242-.367-.664.117-.943l5.173-2.987a1.817,1.817,0,0,1,1.635-.068l5.221,3.014c.42.242.367.665-.117.944l-5.173,2.986A1.821,1.821,0,0,1,359,264.987Z" transform="translate(-251.838 -206.36)" fill="#5793ce"/>
          <path id="Trazado_194533" data-name="Trazado 194533" d="M366.756,269.467l-5.221-3.014c-.419-.242-.367-.665.117-.944l5.173-2.987a1.817,1.817,0,0,1,1.635-.068l5.221,3.014c.42.242.367.665-.117.944l-5.173,2.987A1.817,1.817,0,0,1,366.756,269.467Z" transform="translate(-251.535 -206.186)" fill="#5793ce"/>
          <path id="Trazado_194534" data-name="Trazado 194534" d="M374.516,273.947l-5.221-3.014c-.419-.242-.367-.665.117-.944L374.585,267a1.817,1.817,0,0,1,1.635-.069l5.221,3.014c.42.242.367.665-.117.944l-5.173,2.987A1.817,1.817,0,0,1,374.516,273.947Z" transform="translate(-251.232 -206.011)" fill="#5793ce"/>
          <path id="Trazado_194535" data-name="Trazado 194535" d="M382.276,278.427l-5.221-3.014c-.419-.242-.367-.665.117-.945l5.173-2.986a1.817,1.817,0,0,1,1.635-.068l5.221,3.014c.42.242.367.665-.117.944l-5.173,2.986A1.817,1.817,0,0,1,382.276,278.427Z" transform="translate(-250.929 -205.836)" fill="#5793ce"/>
          <path id="Trazado_194536" data-name="Trazado 194536" d="M390.036,282.908l-5.221-3.015c-.419-.241-.366-.664.117-.943l5.173-2.987a1.817,1.817,0,0,1,1.635-.068l5.221,3.014c.42.242.367.665-.117.945l-5.173,2.986A1.817,1.817,0,0,1,390.036,282.908Z" transform="translate(-250.626 -205.661)" fill="#5793ce"/>
          <path id="Trazado_194537" data-name="Trazado 194537" d="M316.11,231.5l-5.221-3.015c-.42-.242-.367-.664.117-.943l5.173-2.987a1.817,1.817,0,0,1,1.635-.068l5.221,3.014c.419.242.367.665-.117.944l-5.173,2.986A1.818,1.818,0,0,1,316.11,231.5Z" transform="translate(-253.511 -207.667)" fill="#5793ce"/>
          <path id="Trazado_194538" data-name="Trazado 194538" d="M308.388,227.046l-5.221-3.015c-.419-.242-.367-.664.117-.943l5.173-2.987a1.817,1.817,0,0,1,1.635-.068l5.221,3.014c.42.242.367.665-.117.944l-5.173,2.986A1.818,1.818,0,0,1,308.388,227.046Z" transform="translate(-253.812 -207.841)" fill="#5793ce"/>
          <path id="Trazado_194539" data-name="Trazado 194539" d="M300.667,222.588l-5.221-3.015c-.42-.241-.367-.664.117-.943l5.173-2.987a1.817,1.817,0,0,1,1.635-.068l5.221,3.014c.419.242.367.665-.117.944l-5.173,2.986A1.818,1.818,0,0,1,300.667,222.588Z" transform="translate(-254.114 -208.015)" fill="#5793ce"/>
          <path id="Trazado_194540" data-name="Trazado 194540" d="M292.945,218.13l-5.221-3.015c-.419-.241-.366-.664.117-.943l5.173-2.987a1.817,1.817,0,0,1,1.635-.068l5.221,3.014c.42.242.367.665-.117.944l-5.172,2.986A1.82,1.82,0,0,1,292.945,218.13Z" transform="translate(-254.415 -208.189)" fill="#5793ce"/>
          <path id="Trazado_194541" data-name="Trazado 194541" d="M300.885,213.469l-5.221-3.014c-.419-.242-.366-.664.117-.943l1.71-.988a1.817,1.817,0,0,1,1.635-.068l5.221,3.014c.42.242.367.665-.117.944l-1.71.987A1.817,1.817,0,0,1,300.885,213.469Z" transform="translate(-254.105 -208.293)" fill="#5793ce"/>
          <path id="Trazado_194542" data-name="Trazado 194542" d="M310.962,219.287l-5.221-3.014c-.42-.242-.367-.665.117-.944l1.71-.987a1.817,1.817,0,0,1,1.635-.068l5.221,3.014c.419.242.367.665-.117.944l-1.71.987A1.817,1.817,0,0,1,310.962,219.287Z" transform="translate(-253.712 -208.066)" fill="#5793ce"/>
          <path id="Trazado_194543" data-name="Trazado 194543" d="M318.651,223.727l-5.221-3.015c-.419-.242-.367-.664.117-.943l1.71-.988a1.817,1.817,0,0,1,1.635-.068l5.221,3.014c.42.242.367.665-.117.944l-1.71.987A1.821,1.821,0,0,1,318.651,223.727Z" transform="translate(-253.412 -207.892)" fill="#5793ce"/>
          <path id="Trazado_194544" data-name="Trazado 194544" d="M326.34,228.166l-5.221-3.014c-.419-.242-.366-.665.118-.944l1.709-.987a1.821,1.821,0,0,1,1.635-.069l5.221,3.015c.42.242.367.665-.117.943l-1.71.988A1.817,1.817,0,0,1,326.34,228.166Z" transform="translate(-253.112 -207.719)" fill="#5793ce"/>
          <path id="Trazado_194545" data-name="Trazado 194545" d="M334.03,232.605l-5.221-3.014c-.42-.242-.367-.665.117-.944l1.71-.987a1.817,1.817,0,0,1,1.635-.068l5.221,3.014c.419.242.366.665-.117.944l-1.71.987A1.817,1.817,0,0,1,334.03,232.605Z" transform="translate(-252.812 -207.546)" fill="#5793ce"/>
          <path id="Trazado_194546" data-name="Trazado 194546" d="M376.958,257.39l-5.221-3.014c-.42-.242-.367-.665.117-.944l1.71-.987a1.817,1.817,0,0,1,1.635-.069l5.221,3.015c.419.241.366.664-.117.943l-1.71.988A1.818,1.818,0,0,1,376.958,257.39Z" transform="translate(-251.137 -206.579)" fill="#5793ce"/>
          <path id="Trazado_194547" data-name="Trazado 194547" d="M384.647,261.829l-5.221-3.014c-.42-.242-.367-.665.117-.944l1.71-.987a1.817,1.817,0,0,1,1.635-.068l5.221,3.014c.419.242.367.665-.117.944l-1.71.987A1.817,1.817,0,0,1,384.647,261.829Z" transform="translate(-250.837 -206.406)" fill="#5793ce"/>
          <path id="Trazado_194548" data-name="Trazado 194548" d="M392.336,266.27l-5.221-3.015c-.419-.241-.367-.664.117-.943l1.71-.988a1.817,1.817,0,0,1,1.635-.068l5.221,3.014c.42.242.367.665-.117.944l-1.71.987A1.818,1.818,0,0,1,392.336,266.27Z" transform="translate(-250.537 -206.232)" fill="#5793ce"/>
          <path id="Trazado_194549" data-name="Trazado 194549" d="M400.026,270.708l-5.222-3.014c-.419-.242-.366-.665.118-.944l1.71-.987a1.815,1.815,0,0,1,1.634-.068l5.221,3.014c.42.242.367.665-.117.944l-1.709.987A1.817,1.817,0,0,1,400.026,270.708Z" transform="translate(-250.237 -206.059)" fill="#5793ce"/>
          <path id="Trazado_194550" data-name="Trazado 194550" d="M323.87,235.984l-5.221-3.014c-.42-.242-.367-.665.117-.944l5.173-2.987a1.817,1.817,0,0,1,1.635-.068l5.221,3.014c.419.242.367.665-.117.944l-5.173,2.987A1.817,1.817,0,0,1,323.87,235.984Z" transform="translate(-253.208 -207.492)" fill="#5793ce"/>
          <path id="Trazado_194551" data-name="Trazado 194551" d="M331.63,240.464l-5.221-3.014c-.42-.242-.367-.665.117-.944l5.173-2.986a1.818,1.818,0,0,1,1.635-.069l5.221,3.014c.419.242.367.665-.117.944l-5.173,2.987A1.817,1.817,0,0,1,331.63,240.464Z" transform="translate(-252.906 -207.317)" fill="#5793ce"/>
          <path id="Trazado_194552" data-name="Trazado 194552" d="M339.39,244.943l-5.221-3.014c-.419-.242-.367-.665.117-.944L339.459,238a1.817,1.817,0,0,1,1.635-.068l5.221,3.014c.419.242.367.665-.117.944l-5.173,2.986A1.817,1.817,0,0,1,339.39,244.943Z" transform="translate(-252.603 -207.142)" fill="#5793ce"/>
          <path id="Trazado_194553" data-name="Trazado 194553" d="M347.15,249.425l-5.221-3.015c-.419-.241-.367-.664.117-.943l5.173-2.987a1.817,1.817,0,0,1,1.635-.068l5.221,3.014c.419.242.367.665-.117.944l-5.173,2.986A1.818,1.818,0,0,1,347.15,249.425Z" transform="translate(-252.3 -206.968)" fill="#5793ce"/>
          <path id="Trazado_194554" data-name="Trazado 194554" d="M354.91,253.9l-5.221-3.014c-.419-.242-.367-.665.117-.944l5.173-2.987a1.817,1.817,0,0,1,1.635-.068l5.221,3.014c.419.242.367.665-.117.944l-5.173,2.987A1.817,1.817,0,0,1,354.91,253.9Z" transform="translate(-251.997 -206.793)" fill="#5793ce"/>
          <path id="Trazado_194555" data-name="Trazado 194555" d="M362.67,258.385l-5.221-3.014c-.419-.242-.367-.665.117-.944l5.173-2.986a1.818,1.818,0,0,1,1.635-.069l5.221,3.015c.42.241.367.664-.117.943l-5.173,2.987A1.817,1.817,0,0,1,362.67,258.385Z" transform="translate(-251.694 -206.618)" fill="#5793ce"/>
          <path id="Trazado_194556" data-name="Trazado 194556" d="M370.43,262.865l-5.221-3.014c-.419-.242-.367-.665.117-.944l5.173-2.986a1.817,1.817,0,0,1,1.635-.068l5.221,3.014c.42.242.367.665-.117.944l-5.173,2.986A1.817,1.817,0,0,1,370.43,262.865Z" transform="translate(-251.391 -206.443)" fill="#5793ce"/>
          <path id="Trazado_194557" data-name="Trazado 194557" d="M378.19,267.346l-5.221-3.014c-.419-.242-.367-.665.117-.944l5.173-2.987a1.817,1.817,0,0,1,1.635-.068l5.221,3.014c.42.242.367.665-.117.944l-5.173,2.986A1.818,1.818,0,0,1,378.19,267.346Z" transform="translate(-251.089 -206.268)" fill="#5793ce"/>
          <path id="Trazado_194558" data-name="Trazado 194558" d="M385.95,271.826l-5.221-3.014c-.419-.242-.367-.665.117-.944l5.173-2.987a1.817,1.817,0,0,1,1.635-.068l5.221,3.014c.42.242.367.665-.117.944l-5.173,2.987A1.817,1.817,0,0,1,385.95,271.826Z" transform="translate(-250.786 -206.094)" fill="#5793ce"/>
          <path id="Trazado_194559" data-name="Trazado 194559" d="M279.885,236.757l-15.376-8.877c-.419-.242-.367-.665.117-.944l5.173-2.987a1.817,1.817,0,0,1,1.635-.068l15.376,8.877c.42.242.367.665-.117.944l-5.173,2.987A1.817,1.817,0,0,1,279.885,236.757Z" transform="translate(-255.321 -207.691)" fill="#5793ce"/>
          <path id="Trazado_194560" data-name="Trazado 194560" d="M375.219,291.8l-15.377-8.877c-.419-.242-.366-.665.117-.944l5.173-2.986a1.818,1.818,0,0,1,1.635-.069l15.376,8.878c.42.241.367.664-.117.943l-5.173,2.987A1.817,1.817,0,0,1,375.219,291.8Z" transform="translate(-251.601 -205.543)" fill="#5793ce"/>
          <path id="Trazado_194561" data-name="Trazado 194561" d="M343.8,283.578l-5.221-3.014c-.42-.242-.367-.665.117-.944l6.162-3.558a1.817,1.817,0,0,1,1.635-.068l5.221,3.014c.42.242.367.665-.117.944l-6.162,3.558A1.817,1.817,0,0,1,343.8,283.578Z" transform="translate(-252.43 -205.657)" fill="#5793ce"/>
          <path id="Trazado_194562" data-name="Trazado 194562" d="M287.568,251.111l-8.35-4.821c-.42-.242-.367-.665.117-.944l6.162-3.558a1.817,1.817,0,0,1,1.635-.069l8.351,4.821c.419.242.366.665-.118.944l-6.162,3.558A1.821,1.821,0,0,1,287.568,251.111Z" transform="translate(-254.747 -206.995)" fill="#5793ce"/>
          <path id="Trazado_194563" data-name="Trazado 194563" d="M336.445,279.33l-8.35-4.821c-.42-.242-.367-.665.117-.944l6.162-3.558a1.818,1.818,0,0,1,1.635-.069l8.35,4.821c.42.242.367.665-.117.944l-6.162,3.558A1.821,1.821,0,0,1,336.445,279.33Z" transform="translate(-252.84 -205.894)" fill="#5793ce"/>
          <path id="Trazado_194564" data-name="Trazado 194564" d="M298.764,257.575l-8.35-4.821c-.419-.242-.367-.665.117-.944l6.162-3.558a1.818,1.818,0,0,1,1.635-.069L306.68,253c.419.242.366.665-.117.944l-6.163,3.558A1.817,1.817,0,0,1,298.764,257.575Z" transform="translate(-254.31 -206.742)" fill="#5793ce"/>
          <path id="Trazado_194565" data-name="Trazado 194565" d="M298.374,248.209l36.3,20.959a.5.5,0,0,1,0,.942l-6.284,3.628a1.8,1.8,0,0,1-1.631,0l-36.3-20.96Z" transform="translate(-254.297 -206.735)" fill="#5793ce"/>
          <path id="Trazado_194566" data-name="Trazado 194566" d="M365.443,291.416l5.815,3.357c.344.2.3.546-.1.774L368.641,297a1.491,1.491,0,0,1-1.34.055l-5.815-3.357c-.344-.2-.3-.546.1-.774l2.521-1.456A1.49,1.49,0,0,1,365.443,291.416Z" transform="translate(-251.535 -205.054)" fill="#5793ce"/>
          <path id="Trazado_194567" data-name="Trazado 194567" d="M357.619,286.9l5.815,3.358c.344.2.3.544-.1.774l-2.521,1.455a1.488,1.488,0,0,1-1.34.056l-5.816-3.358c-.343-.2-.3-.544.1-.774l2.521-1.455A1.49,1.49,0,0,1,357.619,286.9Z" transform="translate(-251.84 -205.231)" fill="#5793ce"/>
          <path id="Trazado_194568" data-name="Trazado 194568" d="M349.859,282.418l5.815,3.357c.344.2.3.545-.1.774L353.057,288a1.488,1.488,0,0,1-1.34.056L345.9,284.7c-.343-.2-.3-.544.1-.774l2.521-1.456A1.493,1.493,0,0,1,349.859,282.418Z" transform="translate(-252.143 -205.405)" fill="#5793ce"/>
          <path id="Trazado_194569" data-name="Trazado 194569" d="M361.9,284.424l5.815,3.358c.344.2.3.544-.1.774l-2.521,1.455a1.488,1.488,0,0,1-1.34.056l-5.815-3.358c-.344-.2-.3-.544.1-.774l2.522-1.455A1.488,1.488,0,0,1,361.9,284.424Z" transform="translate(-251.673 -205.327)" fill="#5793ce"/>
        </g>
        <g id="Grupo_152024" data-name="Grupo 152024" transform="translate(122.42 41.232)">
          <path id="Trazado_194570" data-name="Trazado 194570" d="M346.642,149.546l-13.114-7.571.559-2.823,13.114,7.571Z" transform="translate(-329.259 -139.152)" fill="#d4ecff"/>
          <path id="Trazado_194571" data-name="Trazado 194571" d="M345.272,155.861l-13.114-7.571.559-2.823,13.114,7.571Z" transform="translate(-329.312 -138.905)" fill="#fff"/>
          <path id="Trazado_194572" data-name="Trazado 194572" d="M407.219,243.455l-13.114-7.571.559-2.823,13.114,7.571Z" transform="translate(-326.895 -135.487)" fill="#d4ecff"/>
          <path id="Trazado_194573" data-name="Trazado 194573" d="M342.533,168.492l-13.114-7.571.559-2.823,13.114,7.571Z" transform="translate(-329.419 -138.413)" fill="#d4ecff"/>
        </g>
        <path id="Trazado_194574" data-name="Trazado 194574" d="M397.649,204.791l-48.512-28.008.624-3.154,48.512,28.008Z" transform="translate(-206.23 -96.575)" fill="#d4ecff"/>
        <path id="Trazado_194575" data-name="Trazado 194575" d="M380.377,209.6l-33.864-19.551.624-3.154L381,206.442Z" transform="translate(-206.332 -96.057)" fill="#d4ecff"/>
        <path id="Trazado_194576" data-name="Trazado 194576" d="M377.121,200.328l-29.3-16.914.624-3.154,29.3,16.914Z" transform="translate(-206.281 -96.316)" fill="#fff"/>
        <g id="Grupo_152025" data-name="Grupo 152025" transform="translate(160.855 73.805)">
          <path id="Trazado_194577" data-name="Trazado 194577" d="M370.178,173.648a1.828,1.828,0,0,1-2.634.81,2.292,2.292,0,0,1-.943-2.876,1.828,1.828,0,0,1,2.634-.81A2.293,2.293,0,0,1,370.178,173.648Z" transform="translate(-366.411 -170.502)" fill="#ff2c9c"/>
          <path id="Trazado_194578" data-name="Trazado 194578" d="M376.25,177.154a1.828,1.828,0,0,1-2.634.81,2.293,2.293,0,0,1-.943-2.876,1.828,1.828,0,0,1,2.634-.81A2.292,2.292,0,0,1,376.25,177.154Z" transform="translate(-366.174 -170.365)" fill="#fff"/>
          <path id="Trazado_194579" data-name="Trazado 194579" d="M382.322,180.66a1.827,1.827,0,0,1-2.633.81,2.291,2.291,0,0,1-.943-2.876,1.828,1.828,0,0,1,2.633-.811A2.292,2.292,0,0,1,382.322,180.66Z" transform="translate(-365.937 -170.228)" fill="#d4ecff"/>
          <path id="Trazado_194580" data-name="Trazado 194580" d="M388.4,184.166a1.828,1.828,0,0,1-2.634.81,2.292,2.292,0,0,1-.943-2.876,1.828,1.828,0,0,1,2.634-.811A2.294,2.294,0,0,1,388.4,184.166Z" transform="translate(-365.7 -170.092)" fill="#ff2c9c"/>
        </g>
        <path id="Trazado_194581" data-name="Trazado 194581" d="M395.065,210.688l-14.648-8.457.624-3.154,14.648,8.457Z" transform="translate(-205.009 -95.582)" fill="#ff2c9c"/>
      </g>
    </g>
    <g id="Grupo_152637" data-name="Grupo 152637">
      <g id="Grupo_152636" data-name="Grupo 152636">
        <g id="Grupo_152006-2" data-name="Grupo 152006" transform="translate(204.063 1086.979)" opacity="0.158">
          <path id="Trazado_183874" data-name="Trazado 183874" d="M533.166,152.21l-28.732-16.589,28.732-16.59,28.733,16.59Zm-26.7-16.589,26.7,15.414,26.7-15.414-26.7-15.414Z" transform="translate(-227.278 -119.03)" fill="#173d7a"/>
          <path id="Trazado_183875" data-name="Trazado 183875" d="M472.813,152.21l-28.733-16.59,28.732-16.589.254.148,28.48,16.442Zm-26.7-16.59,26.7,15.415,26.7-15.414-26.7-15.414Z" transform="translate(-222.355 -119.03)" fill="#173d7a"/>
          <path id="Trazado_183876" data-name="Trazado 183876" d="M502.99,169.633l-28.733-16.589,28.733-16.59,28.732,16.59Zm-26.7-16.589,26.7,15.414,26.7-15.414-26.7-15.414Z" transform="translate(-224.816 -120.451)" fill="#173d7a"/>
          <path id="Trazado_183877" data-name="Trazado 183877" d="M533.167,187.056l-.254-.147-28.48-16.442,28.732-16.59.254.147,28.48,16.443Zm-26.7-16.589,26.7,15.414,26.7-15.414-26.7-15.415Z" transform="translate(-227.278 -121.872)" fill="#173d7a"/>
          <path id="Trazado_183878" data-name="Trazado 183878" d="M412.458,152.209l-.254-.147-28.48-16.442,28.732-16.59.254.148,28.48,16.442Zm-26.7-16.589,26.7,15.414,26.7-15.414-26.7-15.414Z" transform="translate(-217.431 -119.03)" fill="#173d7a"/>
          <path id="Trazado_183879" data-name="Trazado 183879" d="M442.636,169.632l-.253-.147L413.9,153.044l28.732-16.59,28.733,16.591Zm-26.7-16.589,26.7,15.414,26.7-15.413-26.7-15.415Z" transform="translate(-219.893 -120.451)" fill="#173d7a"/>
          <path id="Trazado_183880" data-name="Trazado 183880" d="M472.814,187.055l-.253-.147-28.48-16.442,28.732-16.589,28.732,16.59Zm-26.7-16.589,26.7,15.414,26.7-15.413-26.7-15.415Z" transform="translate(-222.355 -121.872)" fill="#173d7a"/>
          <path id="Trazado_183881" data-name="Trazado 183881" d="M502.991,204.479l-28.733-16.59L502.99,171.3l.254.147,28.48,16.442Zm-26.7-16.59,26.7,15.416,26.7-15.415-26.7-15.414Z" transform="translate(-224.816 -123.293)" fill="#173d7a"/>
          <path id="Trazado_183882" data-name="Trazado 183882" d="M533.168,221.9l-.254-.147-28.479-16.443,28.732-16.589.254.147,28.48,16.442Zm-26.7-16.59,26.7,15.414,26.7-15.414-26.7-15.414Z" transform="translate(-227.278 -124.715)" fill="#173d7a"/>
          <path id="Trazado_183883" data-name="Trazado 183883" d="M352.1,152.209l-28.733-16.59L352.1,119.031l.254.148,28.48,16.442Zm-26.7-16.59,26.7,15.415,26.7-15.414-26.7-15.414Z" transform="translate(-212.508 -119.03)" fill="#173d7a"/>
          <path id="Trazado_183884" data-name="Trazado 183884" d="M382.282,169.632l-.254-.147-28.48-16.442,28.733-16.59.254.147,28.48,16.443Zm-26.7-16.589,26.7,15.414,26.7-15.414-26.7-15.414Z" transform="translate(-214.97 -120.451)" fill="#173d7a"/>
          <path id="Trazado_183885" data-name="Trazado 183885" d="M412.459,187.055l-.253-.147-28.48-16.442,28.732-16.59.254.147,28.48,16.443Zm-26.7-16.589,26.7,15.414,26.7-15.414-26.7-15.415Z" transform="translate(-217.432 -121.872)" fill="#173d7a"/>
          <path id="Trazado_183886" data-name="Trazado 183886" d="M442.637,204.478l-.253-.147L413.9,187.889,442.636,171.3l.254.147,28.479,16.442Zm-26.7-16.59,26.7,15.415,26.7-15.415-26.7-15.414Z" transform="translate(-219.893 -123.293)" fill="#173d7a"/>
          <path id="Trazado_183887" data-name="Trazado 183887" d="M472.814,221.9l-28.732-16.59,28.732-16.589,28.732,16.59Zm-26.7-16.59,26.7,15.414,26.7-15.413-26.7-15.415Z" transform="translate(-222.355 -124.715)" fill="#173d7a"/>
          <path id="Trazado_183888" data-name="Trazado 183888" d="M502.992,239.325l-28.734-16.591,28.733-16.588.253.147,28.48,16.442Zm-26.7-16.591,26.7,15.415,26.7-15.414-26.7-15.414Z" transform="translate(-224.816 -126.136)" fill="#173d7a"/>
          <path id="Trazado_183889" data-name="Trazado 183889" d="M533.169,256.747l-.254-.147-28.48-16.442,28.732-16.59.254.148L561.9,240.159Zm-26.7-16.589,26.7,15.414,26.7-15.414-26.7-15.414Z" transform="translate(-227.278 -127.557)" fill="#173d7a"/>
          <path id="Trazado_183890" data-name="Trazado 183890" d="M291.749,152.208l-.253-.147-28.48-16.442,28.732-16.59.254.148,28.48,16.442Zm-26.7-16.589,26.7,15.414,26.7-15.414-26.7-15.414Z" transform="translate(-207.585 -119.03)" fill="#173d7a"/>
          <path id="Trazado_183891" data-name="Trazado 183891" d="M321.927,169.631l-.253-.147-28.48-16.442,28.732-16.59,28.733,16.59Zm-26.7-16.589,26.7,15.414,26.7-15.413-26.7-15.415Z" transform="translate(-210.047 -120.451)" fill="#173d7a"/>
          <path id="Trazado_183892" data-name="Trazado 183892" d="M352.105,187.054l-.254-.147-28.48-16.442L352.1,153.877l.254.147,28.48,16.443Zm-26.7-16.589,26.7,15.414,26.7-15.413-26.7-15.415Z" transform="translate(-212.508 -121.872)" fill="#173d7a"/>
          <path id="Trazado_183893" data-name="Trazado 183893" d="M382.283,204.478l-28.734-16.59L382.282,171.3l.254.147,28.48,16.442Zm-26.7-16.59,26.7,15.416,26.7-15.415-26.7-15.414Z" transform="translate(-214.97 -123.293)" fill="#173d7a"/>
          <path id="Trazado_183894" data-name="Trazado 183894" d="M412.46,221.9l-.253-.147-28.48-16.443,28.732-16.589.254.147,28.48,16.442Zm-26.7-16.59,26.7,15.414,26.7-15.414-26.7-15.414Z" transform="translate(-217.432 -124.715)" fill="#173d7a"/>
          <path id="Trazado_183895" data-name="Trazado 183895" d="M442.637,239.324l-28.732-16.59,28.732-16.589,28.732,16.589Zm-26.7-16.59,26.7,15.414,26.7-15.414-26.7-15.414Z" transform="translate(-219.893 -126.136)" fill="#173d7a"/>
          <path id="Trazado_183896" data-name="Trazado 183896" d="M472.815,256.746l-.255-.147-28.479-16.442,28.732-16.59,28.733,16.591Zm-26.7-16.589,26.7,15.414,26.7-15.413-26.7-15.415Z" transform="translate(-222.355 -127.557)" fill="#173d7a"/>
          <path id="Trazado_183897" data-name="Trazado 183897" d="M502.993,274.169l-.254-.147-28.48-16.442,28.733-16.589.253.147,28.48,16.443Zm-26.7-16.589,26.7,15.414,26.7-15.413-26.7-15.414Z" transform="translate(-224.816 -128.978)" fill="#173d7a"/>
          <path id="Trazado_183898" data-name="Trazado 183898" d="M533.17,291.593,504.437,275l28.732-16.589.254.147L561.9,275ZM506.471,275l26.7,15.415L559.869,275l-26.7-15.415Z" transform="translate(-227.278 -130.399)" fill="#173d7a"/>
          <path id="Trazado_183899" data-name="Trazado 183899" d="M231.4,152.207l-.253-.147-28.48-16.442,28.732-16.589.253.148,28.48,16.442Zm-26.7-16.589,26.7,15.414,26.7-15.413-26.7-15.414Z" transform="translate(-202.662 -119.03)" fill="#173d7a"/>
          <path id="Trazado_183900" data-name="Trazado 183900" d="M261.573,169.631l-28.733-16.59,28.732-16.589.254.147,28.48,16.443Zm-26.7-16.59,26.7,15.415,26.7-15.414-26.7-15.414Z" transform="translate(-205.124 -120.451)" fill="#173d7a"/>
          <path id="Trazado_183901" data-name="Trazado 183901" d="M291.75,187.054l-.253-.147-28.48-16.442,28.732-16.59.254.147,28.48,16.443Zm-26.7-16.589,26.7,15.414,26.7-15.414-26.7-15.415Z" transform="translate(-207.585 -121.872)" fill="#173d7a"/>
          <path id="Trazado_183902" data-name="Trazado 183902" d="M321.928,204.477l-.254-.147-28.48-16.443L321.927,171.3l.254.147,28.479,16.442Zm-26.7-16.59,26.7,15.415,26.7-15.415-26.7-15.414Z" transform="translate(-210.047 -123.293)" fill="#173d7a"/>
          <path id="Trazado_183903" data-name="Trazado 183903" d="M352.106,221.9l-.254-.147-28.479-16.443,28.732-16.589,28.733,16.59Zm-26.7-16.59,26.7,15.415,26.7-15.414-26.7-15.415Z" transform="translate(-212.508 -124.714)" fill="#173d7a"/>
          <path id="Trazado_183904" data-name="Trazado 183904" d="M382.284,239.323l-.254-.147-28.48-16.443,28.733-16.588.253.147,28.48,16.442Zm-26.7-16.59,26.7,15.414,26.7-15.413-26.7-15.414Z" transform="translate(-214.97 -126.136)" fill="#173d7a"/>
          <path id="Trazado_183905" data-name="Trazado 183905" d="M412.461,256.746l-28.733-16.59,28.732-16.589,28.733,16.59Zm-26.7-16.59,26.7,15.415,26.7-15.414-26.7-15.414Z" transform="translate(-217.432 -127.557)" fill="#173d7a"/>
          <path id="Trazado_183906" data-name="Trazado 183906" d="M442.638,274.169l-28.732-16.589,28.731-16.59.253.147,28.48,16.443Zm-26.7-16.589,26.7,15.414,26.7-15.414-26.7-15.414Z" transform="translate(-219.893 -128.978)" fill="#173d7a"/>
          <path id="Trazado_183907" data-name="Trazado 183907" d="M472.816,291.592l-.254-.147L444.083,275l28.732-16.59.254.147L501.548,275ZM446.117,275l26.7,15.414L499.514,275l-26.7-15.415Z" transform="translate(-222.355 -130.399)" fill="#173d7a"/>
          <path id="Trazado_183908" data-name="Trazado 183908" d="M502.994,309.015l-.254-.147-28.48-16.443,28.733-16.589,28.733,16.59Zm-26.7-16.59,26.7,15.415,26.7-15.414-26.7-15.415Z" transform="translate(-224.817 -131.821)" fill="#173d7a"/>
          <path id="Trazado_183909" data-name="Trazado 183909" d="M533.171,326.439l-28.733-16.591,28.732-16.588.254.147L561.9,309.85Zm-26.7-16.591,26.7,15.415,26.7-15.414-26.7-15.414Z" transform="translate(-227.278 -133.242)" fill="#173d7a"/>
          <path id="Trazado_183910" data-name="Trazado 183910" d="M231.4,187.053l-.253-.147-28.48-16.442,28.732-16.59,28.733,16.59Zm-26.7-16.589,26.7,15.414,26.7-15.413L231.4,155.05Z" transform="translate(-202.662 -121.872)" fill="#173d7a"/>
          <path id="Trazado_183911" data-name="Trazado 183911" d="M261.574,204.477l-28.734-16.59L261.573,171.3l.254.147,28.48,16.442Zm-26.7-16.59,26.7,15.416,26.7-15.415-26.7-15.414Z" transform="translate(-205.124 -123.293)" fill="#173d7a"/>
          <path id="Trazado_183912" data-name="Trazado 183912" d="M291.751,221.9l-.253-.147-28.48-16.443,28.732-16.589.254.147,28.48,16.442Zm-26.7-16.59,26.7,15.415,26.7-15.415L291.75,189.9Z" transform="translate(-207.585 -124.714)" fill="#173d7a"/>
          <path id="Trazado_183913" data-name="Trazado 183913" d="M321.929,239.323l-.253-.147L293.2,222.734l28.732-16.589.253.147,28.48,16.442Zm-26.7-16.59,26.7,15.414,26.7-15.414-26.7-15.414Z" transform="translate(-210.047 -126.136)" fill="#173d7a"/>
          <path id="Trazado_183914" data-name="Trazado 183914" d="M352.107,256.746l-.254-.148-28.479-16.442,28.732-16.589.253.147,28.48,16.442Zm-26.7-16.59,26.7,15.414,26.7-15.414-26.7-15.414Z" transform="translate(-212.509 -127.557)" fill="#173d7a"/>
          <path id="Trazado_183915" data-name="Trazado 183915" d="M382.285,274.168l-.254-.147-28.48-16.442,28.733-16.59,28.733,16.591Zm-26.7-16.589,26.7,15.414,26.7-15.413-26.7-15.415Z" transform="translate(-214.97 -128.978)" fill="#173d7a"/>
          <path id="Trazado_183916" data-name="Trazado 183916" d="M412.461,291.592,383.729,275l28.732-16.589L441.194,275ZM385.763,275l26.7,15.415L439.16,275l-26.7-15.415Z" transform="translate(-217.432 -130.399)" fill="#173d7a"/>
          <path id="Trazado_183917" data-name="Trazado 183917" d="M442.639,309.015l-.253-.147-28.48-16.443,28.732-16.589.254.147,28.48,16.442Zm-26.7-16.59,26.7,15.415,26.7-15.415-26.7-15.414Z" transform="translate(-219.893 -131.821)" fill="#173d7a"/>
          <path id="Trazado_183918" data-name="Trazado 183918" d="M472.817,326.438l-.254-.147-28.479-16.443,28.732-16.589.253.147,28.48,16.442Zm-26.7-16.59,26.7,15.415,26.7-15.415-26.7-15.414Z" transform="translate(-222.355 -133.242)" fill="#173d7a"/>
          <path id="Trazado_183919" data-name="Trazado 183919" d="M502.995,343.861l-.254-.147-28.48-16.443,28.733-16.589,28.733,16.59Zm-26.7-16.59,26.7,15.414,26.7-15.413-26.7-15.415Z" transform="translate(-224.817 -134.663)" fill="#173d7a"/>
          <path id="Trazado_183920" data-name="Trazado 183920" d="M533.172,361.284l-.253-.148-28.48-16.442,28.732-16.589.254.148L561.9,344.7Zm-26.7-16.59,26.7,15.414,26.7-15.413-26.7-15.414Z" transform="translate(-227.278 -136.084)" fill="#173d7a"/>
          <path id="Trazado_183921" data-name="Trazado 183921" d="M231.4,221.9l-.253-.147-28.48-16.443L231.4,188.721l28.733,16.59Zm-26.7-16.59,26.7,15.415,26.7-15.414L231.4,189.9Z" transform="translate(-202.662 -124.714)" fill="#173d7a"/>
          <path id="Trazado_183922" data-name="Trazado 183922" d="M261.575,239.322l-.254-.147-28.48-16.443,28.733-16.588.254.147,28.48,16.442Zm-26.7-16.59,26.7,15.414,26.7-15.413-26.7-15.414Z" transform="translate(-205.124 -126.136)" fill="#173d7a"/>
          <path id="Trazado_183923" data-name="Trazado 183923" d="M291.752,256.746l-28.733-16.591,28.732-16.588.254.147,28.48,16.442Zm-26.7-16.591,26.7,15.415,26.7-15.414-26.7-15.414Z" transform="translate(-207.585 -127.557)" fill="#173d7a"/>
          <path id="Trazado_183924" data-name="Trazado 183924" d="M321.93,274.168l-.253-.147L293.2,257.58l28.732-16.59.253.147,28.48,16.443Zm-26.7-16.589,26.7,15.414,26.7-15.414-26.7-15.414Z" transform="translate(-210.047 -128.978)" fill="#173d7a"/>
          <path id="Trazado_183925" data-name="Trazado 183925" d="M352.108,291.591l-.254-.147L323.375,275l28.732-16.59.253.147L380.84,275ZM325.409,275l26.7,15.414L378.806,275l-26.7-15.414Z" transform="translate(-212.509 -130.399)" fill="#173d7a"/>
          <path id="Trazado_183926" data-name="Trazado 183926" d="M382.285,309.014l-28.733-16.589,28.733-16.59,28.732,16.59Zm-26.7-16.589,26.7,15.414,26.7-15.414-26.7-15.415Z" transform="translate(-214.97 -131.82)" fill="#173d7a"/>
          <path id="Trazado_183927" data-name="Trazado 183927" d="M412.462,326.437l-.254-.147-28.48-16.443,28.732-16.588.254.147,28.479,16.442Zm-26.7-16.59,26.7,15.415,26.7-15.414-26.7-15.414Z" transform="translate(-217.432 -133.242)" fill="#173d7a"/>
          <path id="Trazado_183928" data-name="Trazado 183928" d="M442.64,343.861l-28.733-16.591,28.732-16.588.254.147,28.48,16.442Zm-26.7-16.591,26.7,15.415,26.7-15.414-26.7-15.414Z" transform="translate(-219.893 -134.663)" fill="#173d7a"/>
          <path id="Trazado_183929" data-name="Trazado 183929" d="M472.818,361.284l-.255-.148-28.479-16.442,28.732-16.589.253.147,28.479,16.442Zm-26.7-16.59,26.7,15.414,26.7-15.414-26.7-15.414Z" transform="translate(-222.355 -136.084)" fill="#173d7a"/>
          <path id="Trazado_183930" data-name="Trazado 183930" d="M231.4,256.745l-.254-.148-28.479-16.442L231.4,223.567l.253.147,28.48,16.442Zm-26.7-16.59,26.7,15.414,26.7-15.414-26.7-15.414Z" transform="translate(-202.662 -127.557)" fill="#173d7a"/>
          <path id="Trazado_183931" data-name="Trazado 183931" d="M261.576,274.167l-.254-.147-28.48-16.442,28.733-16.59,28.733,16.59Zm-26.7-16.589,26.7,15.414,26.7-15.413-26.7-15.415Z" transform="translate(-205.124 -128.978)" fill="#173d7a"/>
          <path id="Trazado_183932" data-name="Trazado 183932" d="M291.753,291.591,263.02,275l28.732-16.589.254.147L320.486,275ZM265.054,275l26.7,15.415L318.452,275l-26.7-15.414Z" transform="translate(-207.585 -130.399)" fill="#173d7a"/>
          <path id="Trazado_183933" data-name="Trazado 183933" d="M321.931,309.014l-.253-.147L293.2,292.426l28.732-16.59.253.147,28.48,16.443Zm-26.7-16.589,26.7,15.414,26.7-15.414-26.7-15.415Z" transform="translate(-210.047 -131.82)" fill="#173d7a"/>
          <path id="Trazado_183934" data-name="Trazado 183934" d="M352.109,326.437l-.254-.147-28.479-16.443,28.732-16.589,28.732,16.589Zm-26.7-16.59,26.7,15.415,26.7-15.415-26.7-15.414Z" transform="translate(-212.509 -133.242)" fill="#173d7a"/>
          <path id="Trazado_183935" data-name="Trazado 183935" d="M382.286,343.86l-28.733-16.59,28.732-16.589.253.147,28.48,16.442Zm-26.7-16.59,26.7,15.414,26.7-15.414-26.7-15.414Z" transform="translate(-214.97 -134.663)" fill="#173d7a"/>
          <path id="Trazado_183936" data-name="Trazado 183936" d="M412.463,361.283l-.254-.148-28.48-16.442,28.732-16.589,28.733,16.59Zm-26.7-16.59,26.7,15.414,26.7-15.413-26.7-15.415Z" transform="translate(-217.432 -136.084)" fill="#173d7a"/>
          <path id="Trazado_183937" data-name="Trazado 183937" d="M231.4,291.59l-.254-.147L202.666,275l28.732-16.59.253.147L260.131,275ZM204.7,275l26.7,15.414L258.1,275l-26.7-15.414Z" transform="translate(-202.662 -130.399)" fill="#173d7a"/>
          <path id="Trazado_183938" data-name="Trazado 183938" d="M261.577,309.013l-.254-.147-28.479-16.442,28.733-16.59,28.733,16.59Zm-26.7-16.589,26.7,15.414,26.7-15.413-26.7-15.416Z" transform="translate(-205.124 -131.82)" fill="#173d7a"/>
          <path id="Trazado_183939" data-name="Trazado 183939" d="M291.754,326.436l-.253-.147-28.48-16.443,28.732-16.588.254.147,28.479,16.442Zm-26.7-16.59,26.7,15.415,26.7-15.414-26.7-15.414Z" transform="translate(-207.585 -133.242)" fill="#173d7a"/>
          <path id="Trazado_183940" data-name="Trazado 183940" d="M321.932,343.86,293.2,327.27l28.732-16.588.254.147,28.48,16.442Zm-26.7-16.59,26.7,15.415,26.7-15.414-26.7-15.414Z" transform="translate(-210.047 -134.663)" fill="#173d7a"/>
          <path id="Trazado_183941" data-name="Trazado 183941" d="M352.109,361.283l-28.732-16.59,28.732-16.589,28.732,16.589Zm-26.7-16.59,26.7,15.414,26.7-15.414-26.7-15.414Z" transform="translate(-212.509 -136.084)" fill="#173d7a"/>
          <path id="Trazado_183942" data-name="Trazado 183942" d="M231.4,326.436l-.254-.147-28.479-16.443L231.4,293.258l.253.147,28.48,16.442Zm-26.7-16.59,26.7,15.415,26.7-15.415-26.7-15.414Z" transform="translate(-202.662 -133.242)" fill="#173d7a"/>
          <path id="Trazado_183943" data-name="Trazado 183943" d="M261.578,343.859l-.254-.147-28.48-16.443,28.733-16.589.254.147,28.48,16.442Zm-26.7-16.59,26.7,15.414,26.7-15.414-26.7-15.414Z" transform="translate(-205.124 -134.663)" fill="#173d7a"/>
          <path id="Trazado_183944" data-name="Trazado 183944" d="M291.755,361.282l-.254-.148-28.48-16.442L291.754,328.1l28.733,16.59Zm-26.7-16.59,26.7,15.414,26.7-15.413-26.7-15.415Z" transform="translate(-207.586 -136.084)" fill="#173d7a"/>
          <path id="Trazado_183945" data-name="Trazado 183945" d="M231.4,361.282l-.254-.148-28.479-16.442L231.4,328.1l.253.147,28.48,16.442Zm-26.7-16.59,26.7,15.414,26.7-15.414-26.7-15.414Z" transform="translate(-202.662 -136.084)" fill="#173d7a"/>
        </g>
        <path id="Trazado_194445" data-name="Trazado 194445" d="M507.968,70.35a9.981,9.981,0,0,0-1.6,1.172c-.221-7.2-5.421-10.061-11.82-6.367-5.211,3.009-9.625,9.45-11.208,15.764a7.059,7.059,0,0,0-4.42,1.1c-4.665,2.693-8.446,9.242-8.446,14.628s3.781,7.569,8.446,4.876l29.047-16.771a13.784,13.784,0,0,0,6.236-10.8C514.2,69.974,511.412,68.361,507.968,70.35Z" transform="translate(-15.195 939.375)" fill="#fff"/>
        <path id="Trazado_194450" data-name="Trazado 194450" d="M269.809,180.88a10.493,10.493,0,0,0-2.675,2.3c-.126-5.275-3.911-7.382-8.572-4.691a15.617,15.617,0,0,0-4.121,3.6c-2.075-3.627-6.373-4.469-11.355-1.593-7.006,4.045-12.686,13.882-12.686,21.972a15.156,15.156,0,0,0,.128,1.891,4.781,4.781,0,0,0-3.552.717,13.414,13.414,0,0,0-6.07,10.513c0,3.87,2.717,5.439,6.07,3.5l42.835-24.732a12.9,12.9,0,0,0,5.836-10.107C275.645,180.528,273.032,179.02,269.809,180.88Z" transform="translate(-24.934 943.814)" fill="#fff"/>
        <g id="Grupo_152022" data-name="Grupo 152022" transform="translate(318.609 960.203)">
          <g id="Grupo_152010" data-name="Grupo 152010" transform="translate(31.534 62.279)">
            <path id="Trazado_194452" data-name="Trazado 194452" d="M374.453,142.394a.667.667,0,0,1-.667-.667V103.778a.667.667,0,0,1,1.334,0v37.949A.668.668,0,0,1,374.453,142.394Z" transform="translate(-369.111 -81.563)" fill="#396caa"/>
            <g id="Grupo_152009" data-name="Grupo 152009" transform="translate(0 0)">
              <g id="Grupo_152007" data-name="Grupo 152007" transform="translate(2.045 19.829)">
                <rect id="Rectngulo_45144" data-name="Rectngulo 45144" width="6.593" height="14.227" fill="#5793ce"/>
                <path id="Trazado_194453" data-name="Trazado 194453" d="M376.883,116.566a5.148,5.148,0,0,1-4.662,0c-1.287-.743-1.287-1.948,0-2.691a5.153,5.153,0,0,1,4.661,0C378.171,114.618,378.171,115.823,376.883,116.566Z" transform="translate(-371.255 -100.994)" fill="#5793ce"/>
              </g>
              <g id="Grupo_152008" data-name="Grupo 152008">
                <rect id="Rectngulo_45145" data-name="Rectngulo 45145" width="10.683" height="22.314" fill="#5793ce"/>
                <path id="Trazado_194454" data-name="Trazado 194454" d="M371.255,103.734v4.815a8.531,8.531,0,0,0,6.594,0v-4.815A8.526,8.526,0,0,0,371.255,103.734Z" transform="translate(-369.21 -81.565)" fill="#396caa"/>
                <path id="Trazado_194455" data-name="Trazado 194455" d="M378.405,106.145a8.342,8.342,0,0,1-7.554,0c-2.086-1.2-2.086-3.157,0-4.361a8.345,8.345,0,0,1,7.554,0C380.492,102.988,380.492,104.94,378.405,106.145Z" transform="translate(-369.287 -81.65)" fill="#5793ce"/>
              </g>
            </g>
          </g>
          <g id="Grupo_152014" data-name="Grupo 152014" transform="translate(68.542 83.103)">
            <path id="Trazado_194456" data-name="Trazado 194456" d="M410.071,162.435a.668.668,0,0,1-.667-.667V123.82a.667.667,0,0,1,1.334,0v37.948A.667.667,0,0,1,410.071,162.435Z" transform="translate(-404.729 -101.605)" fill="#396caa"/>
            <g id="Grupo_152013" data-name="Grupo 152013">
              <g id="Grupo_152011" data-name="Grupo 152011" transform="translate(2.045 19.828)">
                <rect id="Rectngulo_45146" data-name="Rectngulo 45146" width="6.593" height="14.227" fill="#5793ce"/>
                <path id="Trazado_194457" data-name="Trazado 194457" d="M412.5,136.608a5.155,5.155,0,0,1-4.662,0c-1.287-.744-1.287-1.948,0-2.692a5.153,5.153,0,0,1,4.661,0C413.789,134.66,413.789,135.864,412.5,136.608Z" transform="translate(-406.873 -121.035)" fill="#5793ce"/>
              </g>
              <g id="Grupo_152012" data-name="Grupo 152012">
                <rect id="Rectngulo_45147" data-name="Rectngulo 45147" width="10.684" height="22.314" fill="#5793ce"/>
                <path id="Trazado_194458" data-name="Trazado 194458" d="M406.874,123.775v4.815a8.524,8.524,0,0,0,6.593,0v-4.815A8.533,8.533,0,0,0,406.874,123.775Z" transform="translate(-404.828 -101.606)" fill="#396caa"/>
                <path id="Trazado_194459" data-name="Trazado 194459" d="M414.023,126.187a8.348,8.348,0,0,1-7.554,0c-2.086-1.2-2.086-3.158,0-4.362a8.348,8.348,0,0,1,7.554,0C416.11,123.029,416.11,124.983,414.023,126.187Z" transform="translate(-404.905 -101.692)" fill="#5793ce"/>
              </g>
            </g>
          </g>
          <g id="Grupo_152021" data-name="Grupo 152021">
            <g id="Grupo_152017" data-name="Grupo 152017">
              <path id="Trazado_194460" data-name="Trazado 194460" d="M444.777,139l14.325-8.437L445.46,113.541l-3.586,5.86Z" transform="translate(-334.92 -18.877)" fill="#5793ce"/>
              <path id="Trazado_194461" data-name="Trazado 194461" d="M344.564,48.6l22.863-13.153s-.86,13.126-.86,13.153-13.133,4.068-13.133,4.068Z" transform="translate(-338.717 -21.924)" fill="#5793ce"/>
              <path id="Trazado_194462" data-name="Trazado 194462" d="M451.918,99.745a14.417,14.417,0,0,0-4.946-1.834C444.666,85.8,436.238,72.933,426.186,67.13a20.338,20.338,0,0,0-8.505-2.878C416.31,49.568,406.1,32.881,393.7,25.724c-6.476-3.738-12.352-4.181-16.688-1.891v-.011l-.211.121c-.11.061-.22.125-.328.19L363,32.094l4.479,3.538c-4.021,1.757-6.562,6.266-6.562,12.933,0,12.294,8.63,27.242,19.277,33.389l71.729,51.22c8,4.615,14.476.874,14.476-8.357S459.913,104.36,451.918,99.745Z" transform="translate(-338.079 -22.432)" fill="#5793ce"/>
              <path id="Trazado_194463" data-name="Trazado 194463" d="M361.553,43.152l30.941-18.078c-6.007-3.133-11.434-3.391-15.5-1.242v-.011l-.211.121c-.11.061-.22.125-.328.19L362.97,32.094l4.479,3.538C364.639,36.86,362.555,39.438,361.553,43.152Z" transform="translate(-338.054 -22.432)" fill="#5793ce"/>
              <path id="Trazado_194464" data-name="Trazado 194464" d="M417.432,94.7l22.576-13.249c-3.872-6.7-9.2-12.548-15.107-15.956q-1.172-.676-2.312-1.19L393.874,81.1Z" transform="translate(-336.793 -20.798)" fill="#5793ce"/>
              <path id="Trazado_194465" data-name="Trazado 194465" d="M369.039,33.55,379.1,39.358l18.425-10.852a36.69,36.69,0,0,0-4.139-2.805,25.851,25.851,0,0,0-6.439-2.7Z" transform="translate(-337.762 -22.41)" fill="#d4ecff"/>
              <path id="Trazado_194466" data-name="Trazado 194466" d="M436.555,77.056,418.537,87.674l6.266,6.989L441.161,85A52.509,52.509,0,0,0,436.555,77.056Z" transform="translate(-335.831 -20.301)" fill="#d4ecff"/>
              <path id="Trazado_194467" data-name="Trazado 194467" d="M438.622,107.769a14.409,14.409,0,0,0-4.946-1.834c-2.3-12.114-10.734-24.978-20.785-30.781a20.348,20.348,0,0,0-8.505-2.878c-1.373-14.683-11.582-31.37-23.98-38.528-13.333-7.7-24.141-1.458-24.141,13.937,0,.523.015,1.048.038,1.578-9.749-4.522-17.367.574-17.367,12.122,0,12.293,8.631,27.241,19.277,33.388L438.622,141.2c8,4.615,14.476.874,14.476-8.357S446.617,112.384,438.622,107.769Z" transform="translate(-338.937 -22.119)" fill="#d4ecff"/>
              <g id="Grupo_152015" data-name="Grupo 152015" transform="translate(4.41 7.185)">
                <path id="Trazado_194468" data-name="Trazado 194468" d="M356.139,48.661c-.024-.53-.038-1.057-.038-1.578,0-.023,0-.044,0-.065-5.386-2.095-10.015-1.182-12.92,2.178C346.336,46.6,350.926,46.243,356.139,48.661Z" transform="translate(-343.181 -28.701)" fill="#fff"/>
                <path id="Trazado_194469" data-name="Trazado 194469" d="M438.947,106.664A14.4,14.4,0,0,0,434,104.831c-2.3-12.114-10.734-24.978-20.786-30.781a20.341,20.341,0,0,0-8.505-2.879C403.339,56.488,393.13,39.8,380.732,32.644c-8.306-4.8-15.632-4.18-19.975.688,4.425-3.782,11.2-3.927,18.8.459,12.4,7.158,22.607,23.845,23.979,38.528A20.347,20.347,0,0,1,412.04,75.2c10.05,5.8,18.48,18.667,20.785,30.781a14.409,14.409,0,0,1,4.946,1.834c8,4.615,14.476,15.84,14.476,25.072a11.923,11.923,0,0,1-2.308,7.7c2.168-1.67,3.485-4.7,3.485-8.847C453.423,122.5,446.943,111.28,438.947,106.664Z" transform="translate(-342.495 -29.347)" fill="#fff"/>
              </g>
              <g id="Grupo_152016" data-name="Grupo 152016" transform="translate(4.042 12.363)">
                <path id="Trazado_194470" data-name="Trazado 194470" d="M354.453,52.779l6.044,2.8-.307-6.655c-.022-.468-.035-.932-.035-1.392,0-5.941,1.793-10.248,5.05-12.128s7.885-1.279,13.029,1.69c11.066,6.389,20.718,21.94,21.976,35.4l.317,3.392,3.4.262a16.349,16.349,0,0,1,6.8,2.348c8.788,5.075,16.71,16.865,18.835,28.037l.532,2.8,2.812.441a10.467,10.467,0,0,1,3.552,1.341c6.751,3.9,12.455,13.776,12.455,21.571,0,2.918-.809,5.058-2.219,5.873s-3.668.445-6.195-1.014L360.083,91.123c-9.353-5.4-17.256-19.088-17.256-29.888,0-4.239,1.25-7.467,3.429-8.86a5.872,5.872,0,0,1,3.205-.857A12.075,12.075,0,0,1,354.453,52.779Z" transform="translate(-342.827 -34.331)" fill="url(#radial-gradient-4)"/>
              </g>
            </g>
            <g id="Grupo_152020" data-name="Grupo 152020" transform="translate(38.261 51.435)">
              <path id="Trazado_194471" data-name="Trazado 194471" d="M392.64,100.687l2.121-1.065-2.088-1.582Z" transform="translate(-375.103 -70.916)" fill="#5793ce"/>
              <path id="Trazado_194472" data-name="Trazado 194472" d="M386.508,73.05l2.059-1.041.038,1.078Z" transform="translate(-375.342 -71.932)" fill="#5793ce"/>
              <path id="Trazado_194473" data-name="Trazado 194473" d="M398.538,94.33l2.149-1.081-4.136-3.934Z" transform="translate(-374.95 -71.257)" fill="#5793ce"/>
              <g id="Grupo_152018" data-name="Grupo 152018" transform="translate(2.154)">
                <path id="Trazado_194474" data-name="Trazado 194474" d="M394.5,100.219l-10.043-5.914a2.145,2.145,0,0,1-.92-1.688l.033-11.627,11.888,7-.033,11.626C395.419,100.25,395,100.519,394.5,100.219Z" transform="translate(-377.612 -71.582)" fill="#5793ce"/>
                <path id="Trazado_194475" data-name="Trazado 194475" d="M388.884,72.024,378.038,79c-.46.3-.088,1.4.611,1.812l11.077,6.524L400.8,93.864c.7.411,1.076-.251.619-1.088l-10.771-19.71C390.186,72.213,389.353,71.723,388.884,72.024Z" transform="translate(-377.834 -71.935)" fill="#5793ce"/>
              </g>
              <g id="Grupo_152019" data-name="Grupo 152019" transform="translate(0 1.084)">
                <path id="Trazado_194476" data-name="Trazado 194476" d="M392.423,101.263l-10.042-5.915a2.137,2.137,0,0,1-.92-1.688l.032-11.626,11.888,7-.033,11.627C393.347,101.294,392.932,101.563,392.423,101.263Z" transform="translate(-375.539 -72.625)" fill="#d4ecff"/>
                <path id="Trazado_194477" data-name="Trazado 194477" d="M386.811,73.067l-10.846,6.98c-.46.3-.088,1.4.611,1.811l11.077,6.525,11.078,6.524c.7.411,1.075-.251.618-1.088L388.578,74.108C388.114,73.257,387.28,72.766,386.811,73.067Z" transform="translate(-375.761 -72.978)" fill="#d4ecff"/>
              </g>
            </g>
          </g>
          <path id="Trazado_194478" data-name="Trazado 194478" d="M373.531,112.848c0,.654-.459.92-1.027.592a2.269,2.269,0,0,1-1.026-1.778c0-.655.459-.92,1.026-.592A2.268,2.268,0,0,1,373.531,112.848Z" transform="translate(-337.667 -18.979)" fill="#d4ecff"/>
          <path id="Trazado_194479" data-name="Trazado 194479" d="M409.233,133.181c0,.655-.459.92-1.027.592A2.269,2.269,0,0,1,407.181,132c0-.655.459-.92,1.026-.592A2.268,2.268,0,0,1,409.233,133.181Z" transform="translate(-336.274 -18.186)" fill="#d4ecff"/>
        </g>
        <g id="Grupo_152045" data-name="Grupo 152045" transform="translate(377.513 1119.62)">
          <path id="Trazado_194582" data-name="Trazado 194582" d="M446.783,379.128l-47.8-27.6c-1.752-1.011-1.532-2.777.491-3.945l50.665-29.327a7.6,7.6,0,0,1,6.834-.284l47.8,27.6c1.752,1.012,1.532,2.778-.491,3.946l-50.665,29.327A7.592,7.592,0,0,1,446.783,379.128Z" transform="translate(-395.544 -170.344)" fill="#7dc3ea"/>
          <path id="Trazado_194583" data-name="Trazado 194583" d="M449.811,370.533a7.485,7.485,0,0,1-3.683-.867l-47.8-27.6a3.434,3.434,0,0,1-1.891-2.94,4.167,4.167,0,0,1,2.381-3.459l50.663-29.327a9.037,9.037,0,0,1,8.254-.283l47.8,27.6a3.437,3.437,0,0,1,1.891,2.941,4.171,4.171,0,0,1-2.382,3.459L454.38,369.383A9.338,9.338,0,0,1,449.811,370.533Zm4.262-62.513a6.592,6.592,0,0,0-3.175.776l-50.663,29.325c-.71.409-.966.825-.966,1.006,0,.106.147.3.474.487l47.8,27.6a6.24,6.24,0,0,0,5.417-.284L503.625,337.6c.71-.408.965-.826.965-1,0-.107-.146-.3-.474-.487l-47.8-27.6A4.622,4.622,0,0,0,454.073,308.02Z" transform="translate(-395.598 -170.816)" fill="#fff"/>
          <g id="Grupo_152044" data-name="Grupo 152044">
            <g id="Grupo_152043" data-name="Grupo 152043">
              <g id="Grupo_152038" data-name="Grupo 152038">
                <g id="Grupo_152030" data-name="Grupo 152030">
                  <g id="Grupo_152029" data-name="Grupo 152029">
                    <g id="Grupo_152028" data-name="Grupo 152028">
                      <path id="Trazado_194584" data-name="Trazado 194584" d="M449.842,238.2s-26.244,2.5-42.05,3.714l41.925,119.4L505.17,329.33l.027-.017.1-.056v-.005a3.091,3.091,0,0,0,1.133-2.738v-116.7a8.456,8.456,0,0,0-.963-3.725Z" transform="translate(-395.154 -174.683)" fill="url(#radial-gradient-5)"/>
                      <path id="Trazado_194585" data-name="Trazado 194585" d="M503.424,204.429l-48.769-28.156a2.2,2.2,0,0,0-2.221-.191h0L396.757,208.2l2.624,9.709,13.959,39.758,2.629,1.518L505.9,207.264A6.866,6.866,0,0,0,503.424,204.429Z" transform="translate(-395.585 -175.862)" fill="url(#linear-gradient)"/>
                      <path id="Trazado_194586" data-name="Trazado 194586" d="M444.817,219.657l42.28-24.341-32.984-19.043a2.2,2.2,0,0,0-2.221-.191h0L410.66,199.868Z" transform="translate(-395.042 -175.862)" fill="#173d7a" opacity="0.5"/>
                      <path id="Trazado_194587" data-name="Trazado 194587" d="M447.832,361.179l-48.769-28.156a8.225,8.225,0,0,1-3.434-6.561v-116.7c0-2.529,1.538-3.691,3.434-2.6l48.769,28.156a8.225,8.225,0,0,1,3.434,6.561v116.7C451.265,361.111,449.728,362.274,447.832,361.179Z" transform="translate(-395.629 -174.657)" fill="#5793ce"/>
                      <path id="Trazado_194588" data-name="Trazado 194588" d="M448.81,234.754,400.041,206.6a2.028,2.028,0,0,0-2.7.2,2.54,2.54,0,0,1,1.656.388l48.769,28.156A8.225,8.225,0,0,1,451.2,241.9V358.6a3.569,3.569,0,0,1-.732,2.4c1.06-.167,1.778-1.256,1.778-2.984v-116.7A8.225,8.225,0,0,0,448.81,234.754Z" transform="translate(-395.562 -174.679)" fill="#fff"/>
                      <path id="Trazado_194589" data-name="Trazado 194589" d="M444.632,353.926,402,329.313a7.188,7.188,0,0,1-3-5.736V215.193c0-2.211,1.343-3.227,3-2.27l42.632,24.614a7.188,7.188,0,0,1,3,5.735V351.657C447.634,353.868,446.29,354.884,444.632,353.926Z" transform="translate(-395.498 -174.43)" fill="url(#linear-gradient-2)"/>
                      <path id="Trazado_194590" data-name="Trazado 194590" d="M444.632,353.926,402,329.313a7.188,7.188,0,0,1-3-5.736V215.193c0-2.211,1.343-3.227,3-2.27l42.632,24.614a7.188,7.188,0,0,1,3,5.735V351.657C447.634,353.868,446.29,354.884,444.632,353.926Z" transform="translate(-395.498 -174.43)" fill="url(#linear-gradient-2)"/>
                      <path id="Trazado_194591" data-name="Trazado 194591" d="M444.632,353.926,402,329.313a7.188,7.188,0,0,1-3-5.736V215.193c0-2.211,1.343-3.227,3-2.27l42.632,24.614a7.188,7.188,0,0,1,3,5.735V351.657C447.634,353.868,446.29,354.884,444.632,353.926Z" transform="translate(-395.498 -174.43)" fill="#173d7a"/>
                      <path id="Trazado_194592" data-name="Trazado 194592" d="M446.025,353.107l-42.633-24.614a7.191,7.191,0,0,1-3-5.735V214.373a3.464,3.464,0,0,1,.431-1.81c-1.072-.008-1.823.977-1.823,2.63V323.576a7.188,7.188,0,0,0,3,5.736l42.632,24.613a1.738,1.738,0,0,0,2.572-.459A2.418,2.418,0,0,1,446.025,353.107Z" transform="translate(-395.498 -174.43)" fill="#396caa"/>
                    </g>
                  </g>
                </g>
                <g id="Grupo_152032" data-name="Grupo 152032" transform="translate(8.016 42.853)">
                  <g id="Grupo_152031" data-name="Grupo 152031" transform="translate(0)">
                    <path id="Trazado_194593" data-name="Trazado 194593" d="M444.462,301.069l-15.846-9.149-25.272,14.592,44.12,25.473v-25.18A7.188,7.188,0,0,0,444.462,301.069Z" transform="translate(-403.344 -214.187)" fill="#173d7a"/>
                    <path id="Trazado_194594" data-name="Trazado 194594" d="M444.462,279.694l-15.846-9.149-25.272,14.591,44.12,25.473v-25.18A7.188,7.188,0,0,0,444.462,279.694Z" transform="translate(-403.344 -215.021)" fill="#173d7a"/>
                    <path id="Trazado_194595" data-name="Trazado 194595" d="M444.462,258.318l-15.846-9.149-25.272,14.592,44.12,25.473v-25.18A7.188,7.188,0,0,0,444.462,258.318Z" transform="translate(-403.344 -215.855)" fill="#173d7a"/>
                    <path id="Trazado_194596" data-name="Trazado 194596" d="M444.462,236.943l-15.846-9.149-25.272,14.591,44.12,25.473v-25.18A7.188,7.188,0,0,0,444.462,236.943Z" transform="translate(-403.344 -216.689)" fill="#173d7a"/>
                    <path id="Trazado_194597" data-name="Trazado 194597" d="M444.462,237.36l-35.08-20.254-6.038,3.486,44.12,25.474V243.1A7.188,7.188,0,0,0,444.462,237.36Z" transform="translate(-403.344 -217.106)" fill="#173d7a"/>
                  </g>
                  <path id="Trazado_194598" data-name="Trazado 194598" d="M447.464,245.934l-44.121-25.473V234.5l44.121,25.473Z" transform="translate(-403.344 -216.975)" fill="#5793ce"/>
                  <path id="Trazado_194599" data-name="Trazado 194599" d="M447.464,267.31l-44.121-25.473v14.038l44.121,25.473Z" transform="translate(-403.344 -216.141)" fill="#5793ce"/>
                  <path id="Trazado_194600" data-name="Trazado 194600" d="M447.464,288.685l-44.121-25.473V277.25l44.121,25.473Z" transform="translate(-403.344 -215.307)" fill="#5793ce"/>
                  <path id="Trazado_194601" data-name="Trazado 194601" d="M447.464,310.061l-44.121-25.473v14.038L447.464,324.1Z" transform="translate(-403.344 -214.473)" fill="#5793ce"/>
                  <path id="Trazado_194602" data-name="Trazado 194602" d="M447.464,331.436l-44.121-25.473V320l44.121,25.473Z" transform="translate(-403.344 -213.639)" fill="#5793ce"/>
                </g>
                <g id="Grupo_152033" data-name="Grupo 152033" transform="translate(13.314 53.167)">
                  <path id="Trazado_194603" data-name="Trazado 194603" d="M443.374,254.713l-33.232-19.187a4.068,4.068,0,0,1-1.7-3.246v-3.759c0-1.251.761-1.826,1.7-1.284l33.232,19.187a4.068,4.068,0,0,1,1.7,3.246v3.759C445.073,254.679,444.312,255.255,443.374,254.713Z" transform="translate(-408.443 -227.033)" fill="#173d7a"/>
                  <path id="Trazado_194604" data-name="Trazado 194604" d="M411.822,234.807a4.069,4.069,0,0,1-1.7-3.246V227.8a2.385,2.385,0,0,1,.062-.54l-.043-.025c-.939-.541-1.7.033-1.7,1.284v3.759a4.066,4.066,0,0,0,1.7,3.246l33.231,19.187a1.017,1.017,0,0,0,1.636-.744Z" transform="translate(-408.443 -227.033)" fill="#06033e" opacity="0.3"/>
                  <path id="Trazado_194605" data-name="Trazado 194605" d="M432.8,244.253l-20-11.546a1.432,1.432,0,0,1-.6-1.142h0c0-.441.267-.643.6-.452l20,11.546a1.432,1.432,0,0,1,.6,1.142h0C433.4,244.241,433.129,244.443,432.8,244.253Z" transform="translate(-408.296 -226.877)" fill="#fff"/>
                </g>
                <g id="Grupo_152034" data-name="Grupo 152034" transform="translate(13.314 75.24)">
                  <path id="Trazado_194606" data-name="Trazado 194606" d="M443.374,275.957,410.142,256.77a4.068,4.068,0,0,1-1.7-3.246v-3.759c0-1.251.761-1.827,1.7-1.284l33.232,19.187a4.068,4.068,0,0,1,1.7,3.246v3.759C445.073,275.923,444.312,276.5,443.374,275.957Z" transform="translate(-408.443 -248.277)" fill="#173d7a"/>
                  <path id="Trazado_194607" data-name="Trazado 194607" d="M411.822,256.05a4.068,4.068,0,0,1-1.7-3.246v-3.759a2.392,2.392,0,0,1,.062-.54l-.043-.024c-.939-.542-1.7.033-1.7,1.284v3.759a4.066,4.066,0,0,0,1.7,3.246l33.231,19.187a1.017,1.017,0,0,0,1.636-.745Z" transform="translate(-408.443 -248.277)" fill="#06033e" opacity="0.3"/>
                  <path id="Trazado_194608" data-name="Trazado 194608" d="M432.8,265.5l-20-11.546a1.429,1.429,0,0,1-.6-1.142h0c0-.44.267-.642.6-.452l20,11.546a1.435,1.435,0,0,1,.6,1.142h0C433.4,265.485,433.129,265.687,432.8,265.5Z" transform="translate(-408.296 -248.12)" fill="#fff"/>
                </g>
                <g id="Grupo_152035" data-name="Grupo 152035" transform="translate(13.314 97.518)">
                  <path id="Trazado_194609" data-name="Trazado 194609" d="M443.374,297.4l-33.232-19.187a4.068,4.068,0,0,1-1.7-3.246v-3.759c0-1.251.761-1.826,1.7-1.284l33.232,19.187a4.068,4.068,0,0,1,1.7,3.246v3.759C445.073,297.364,444.312,297.94,443.374,297.4Z" transform="translate(-408.443 -269.718)" fill="#173d7a"/>
                  <path id="Trazado_194610" data-name="Trazado 194610" d="M411.822,277.492a4.069,4.069,0,0,1-1.7-3.246v-3.76a2.383,2.383,0,0,1,.062-.539l-.043-.025c-.939-.541-1.7.033-1.7,1.284v3.759a4.066,4.066,0,0,0,1.7,3.246L443.374,297.4a1.017,1.017,0,0,0,1.636-.744Z" transform="translate(-408.443 -269.718)" fill="#06033e" opacity="0.3"/>
                  <path id="Trazado_194611" data-name="Trazado 194611" d="M432.8,286.938l-20-11.546a1.432,1.432,0,0,1-.6-1.142h0c0-.441.267-.643.6-.452l20,11.546a1.432,1.432,0,0,1,.6,1.142h0C433.4,286.926,433.129,287.128,432.8,286.938Z" transform="translate(-408.296 -269.561)" fill="#d4ecff"/>
                </g>
                <g id="Grupo_152036" data-name="Grupo 152036" transform="translate(13.314 120.002)">
                  <path id="Trazado_194612" data-name="Trazado 194612" d="M443.374,319.038l-33.232-19.187a4.069,4.069,0,0,1-1.7-3.246v-3.759c0-1.251.761-1.827,1.7-1.285l33.232,19.187a4.071,4.071,0,0,1,1.7,3.247v3.759C445.073,319,444.312,319.579,443.374,319.038Z" transform="translate(-408.443 -291.357)" fill="#173d7a"/>
                  <path id="Trazado_194613" data-name="Trazado 194613" d="M411.822,299.131a4.068,4.068,0,0,1-1.7-3.246v-3.759a2.392,2.392,0,0,1,.062-.54l-.043-.024c-.939-.542-1.7.032-1.7,1.284v3.759a4.067,4.067,0,0,0,1.7,3.246l33.231,19.187a1.017,1.017,0,0,0,1.636-.745Z" transform="translate(-408.443 -291.357)" fill="#06033e" opacity="0.3"/>
                  <path id="Trazado_194614" data-name="Trazado 194614" d="M432.8,308.577l-20-11.546a1.432,1.432,0,0,1-.6-1.142h0c0-.441.267-.642.6-.452l20,11.546a1.435,1.435,0,0,1,.6,1.142h0C433.4,308.566,433.129,308.767,432.8,308.577Z" transform="translate(-408.296 -291.201)" fill="#ff2c9c"/>
                </g>
                <g id="Grupo_152037" data-name="Grupo 152037" transform="translate(13.314 142.04)">
                  <path id="Trazado_194615" data-name="Trazado 194615" d="M443.374,340.248l-33.232-19.187a4.068,4.068,0,0,1-1.7-3.246v-3.759c0-1.251.761-1.826,1.7-1.284l33.232,19.187a4.068,4.068,0,0,1,1.7,3.246v3.759C445.073,340.214,444.312,340.79,443.374,340.248Z" transform="translate(-408.443 -312.568)" fill="#173d7a"/>
                  <path id="Trazado_194616" data-name="Trazado 194616" d="M411.822,320.342a4.07,4.07,0,0,1-1.7-3.247v-3.759a2.383,2.383,0,0,1,.062-.539l-.043-.025c-.939-.541-1.7.033-1.7,1.284v3.759a4.066,4.066,0,0,0,1.7,3.246l33.231,19.187a1.017,1.017,0,0,0,1.636-.744Z" transform="translate(-408.443 -312.568)" fill="#06033e" opacity="0.3"/>
                  <path id="Trazado_194617" data-name="Trazado 194617" d="M432.8,329.788l-20-11.547a1.429,1.429,0,0,1-.6-1.142h0c0-.44.267-.642.6-.451l20,11.546a1.432,1.432,0,0,1,.6,1.142h0C433.4,329.776,433.129,329.978,432.8,329.788Z" transform="translate(-408.296 -312.411)" fill="#d4ecff"/>
                </g>
                <path id="Trazado_194618" data-name="Trazado 194618" d="M403.344,220.461l3.474,2.006V236.5l-3.474-2.006Z" transform="translate(-395.328 -174.122)" fill="#173d7a" opacity="0.5"/>
                <path id="Trazado_194619" data-name="Trazado 194619" d="M403.344,241.837l3.474,2.006V257.88l-3.474-2.006Z" transform="translate(-395.328 -173.288)" fill="#173d7a" opacity="0.5"/>
                <path id="Trazado_194620" data-name="Trazado 194620" d="M403.344,263.212l3.474,2.006v14.038l-3.474-2.006Z" transform="translate(-395.328 -172.454)" fill="#173d7a" opacity="0.5"/>
                <path id="Trazado_194621" data-name="Trazado 194621" d="M403.344,284.588l3.474,2.006v14.038l-3.474-2.006Z" transform="translate(-395.328 -171.62)" fill="#173d7a" opacity="0.5"/>
                <path id="Trazado_194622" data-name="Trazado 194622" d="M403.344,305.963l3.474,2.006v14.038L403.344,320Z" transform="translate(-395.328 -170.786)" fill="#173d7a" opacity="0.5"/>
              </g>
              <path id="Trazado_194623" data-name="Trazado 194623" d="M435.871,245.14c0,.449-.316.63-.7.406a1.555,1.555,0,0,1-.7-1.219c0-.449.315-.631.7-.406A1.558,1.558,0,0,1,435.871,245.14Z" transform="translate(-394.114 -173.21)" fill="#d4ecff"/>
              <path id="Trazado_194624" data-name="Trazado 194624" d="M438.741,246.8c0,.449-.315.631-.7.406a1.555,1.555,0,0,1-.7-1.219c0-.449.315-.631.7-.406A1.555,1.555,0,0,1,438.741,246.8Z" transform="translate(-394.002 -173.146)" fill="#ff2c9c"/>
              <path id="Trazado_194625" data-name="Trazado 194625" d="M441.611,248.454c0,.449-.315.631-.7.406a1.555,1.555,0,0,1-.7-1.219c0-.448.315-.63.7-.406A1.555,1.555,0,0,1,441.611,248.454Z" transform="translate(-393.89 -173.081)" fill="#d4ecff"/>
              <path id="Trazado_194626" data-name="Trazado 194626" d="M435.871,266.5c0,.449-.316.631-.7.406a1.555,1.555,0,0,1-.7-1.218c0-.449.315-.631.7-.406A1.557,1.557,0,0,1,435.871,266.5Z" transform="translate(-394.114 -172.377)" fill="#ff2c9c"/>
              <path id="Trazado_194627" data-name="Trazado 194627" d="M438.741,268.162c0,.448-.315.63-.7.405a1.552,1.552,0,0,1-.7-1.218c0-.449.315-.631.7-.406A1.555,1.555,0,0,1,438.741,268.162Z" transform="translate(-394.002 -172.312)" fill="#d4ecff"/>
              <path id="Trazado_194628" data-name="Trazado 194628" d="M441.611,269.819c0,.448-.315.63-.7.406a1.555,1.555,0,0,1-.7-1.219c0-.449.315-.631.7-.406A1.555,1.555,0,0,1,441.611,269.819Z" transform="translate(-393.89 -172.247)" fill="#fff"/>
              <path id="Trazado_194629" data-name="Trazado 194629" d="M435.871,288.03c0,.449-.316.631-.7.406a1.555,1.555,0,0,1-.7-1.218c0-.449.315-.631.7-.406A1.557,1.557,0,0,1,435.871,288.03Z" transform="translate(-394.114 -171.537)" fill="#fff"/>
              <path id="Trazado_194630" data-name="Trazado 194630" d="M438.741,289.688c0,.448-.315.63-.7.405a1.552,1.552,0,0,1-.7-1.218c0-.449.315-.631.7-.406A1.555,1.555,0,0,1,438.741,289.688Z" transform="translate(-394.002 -171.472)" fill="#ff2c9c"/>
              <path id="Trazado_194631" data-name="Trazado 194631" d="M441.611,291.345c0,.449-.315.63-.7.406a1.555,1.555,0,0,1-.7-1.219c0-.449.315-.631.7-.406A1.555,1.555,0,0,1,441.611,291.345Z" transform="translate(-393.89 -171.407)" fill="#fff"/>
              <path id="Trazado_194632" data-name="Trazado 194632" d="M435.871,309.243c0,.449-.316.631-.7.406a1.555,1.555,0,0,1-.7-1.219c0-.449.315-.631.7-.406A1.558,1.558,0,0,1,435.871,309.243Z" transform="translate(-394.114 -170.709)" fill="#fff"/>
              <path id="Trazado_194633" data-name="Trazado 194633" d="M438.741,310.9c0,.449-.315.631-.7.406a1.555,1.555,0,0,1-.7-1.219c0-.448.315-.63.7-.406A1.555,1.555,0,0,1,438.741,310.9Z" transform="translate(-394.002 -170.644)" fill="#d4ecff"/>
              <path id="Trazado_194634" data-name="Trazado 194634" d="M441.611,312.557c0,.449-.315.631-.7.406a1.555,1.555,0,0,1-.7-1.218c0-.449.315-.631.7-.406A1.555,1.555,0,0,1,441.611,312.557Z" transform="translate(-393.89 -170.58)" fill="#d4ecff"/>
              <path id="Trazado_194635" data-name="Trazado 194635" d="M435.871,330.745c0,.449-.316.63-.7.406a1.555,1.555,0,0,1-.7-1.219c0-.449.315-.631.7-.406A1.558,1.558,0,0,1,435.871,330.745Z" transform="translate(-394.114 -169.87)" fill="#fff"/>
              <path id="Trazado_194636" data-name="Trazado 194636" d="M438.741,332.4c0,.449-.315.631-.7.406a1.555,1.555,0,0,1-.7-1.219c0-.449.315-.631.7-.406A1.555,1.555,0,0,1,438.741,332.4Z" transform="translate(-394.002 -169.805)" fill="#ff2c9c"/>
              <path id="Trazado_194637" data-name="Trazado 194637" d="M441.611,334.059c0,.449-.315.631-.7.406a1.555,1.555,0,0,1-.7-1.219c0-.448.315-.63.7-.406A1.555,1.555,0,0,1,441.611,334.059Z" transform="translate(-393.89 -169.741)" fill="#d4ecff"/>
              <g id="Grupo_152039" data-name="Grupo 152039" transform="translate(62.981 47.276)">
                <path id="Trazado_194638" data-name="Trazado 194638" d="M456.245,344.834V245.459l.206-.117,41.532-23.979v99.374l-.206.118Zm.823-98.9v97.474l40.092-23.147V222.787Z" transform="translate(-456.245 -221.363)" fill="#173d7a"/>
              </g>
              <g id="Grupo_152042" data-name="Grupo 152042" transform="translate(73.043 75.351)">
                <path id="Trazado_194639" data-name="Trazado 194639" d="M486.815,265.02l-18.622,10.752c-1.25.722-2.264-.045-2.264-1.712V263.735a5.426,5.426,0,0,1,2.264-4.328l18.622-10.752c1.251-.722,2.265.045,2.265,1.712v10.325A5.424,5.424,0,0,1,486.815,265.02Z" transform="translate(-465.929 -248.383)" fill="#173d7a"/>
                <path id="Trazado_194640" data-name="Trazado 194640" d="M487.261,248.455a2.98,2.98,0,0,1,.168,1.036v10.325a5.422,5.422,0,0,1-2.265,4.328l-18.622,10.752a2.18,2.18,0,0,1-.452.2,1.321,1.321,0,0,0,2.1.676l18.621-10.752a5.424,5.424,0,0,0,2.265-4.328V250.368C489.074,248.906,488.3,248.137,487.261,248.455Z" transform="translate(-465.923 -248.383)" fill="#5793ce"/>
                <g id="Grupo_152041" data-name="Grupo 152041" transform="translate(3.505 5.875)">
                  <g id="Grupo_152040" data-name="Grupo 152040" transform="translate(0 4.459)">
                    <path id="Trazado_194641" data-name="Trazado 194641" d="M482.781,258.414c.344-.2.622-.037.622.359v2.352a1.38,1.38,0,0,1-.622,1.08c-.345.2-.623.037-.623-.361v-2.351A1.375,1.375,0,0,1,482.781,258.414Z" transform="translate(-468.8 -258.329)" fill="#fff"/>
                    <path id="Trazado_194642" data-name="Trazado 194642" d="M480.209,260.181c.345-.2.623-.037.623.359V262.6a1.375,1.375,0,0,1-.623,1.08c-.344.2-.622.038-.622-.36v-2.058A1.378,1.378,0,0,1,480.209,260.181Z" transform="translate(-468.901 -258.26)" fill="#d4ecff"/>
                    <path id="Trazado_194643" data-name="Trazado 194643" d="M477.638,259.456c.345-.2.623-.038.623.359v4.355a1.378,1.378,0,0,1-.623,1.08c-.344.2-.622.037-.622-.361v-4.353A1.376,1.376,0,0,1,477.638,259.456Z" transform="translate(-469.001 -258.288)" fill="#ff2c9c"/>
                    <path id="Trazado_194644" data-name="Trazado 194644" d="M475.067,258.525c.345-.2.623-.037.623.361v6.863a1.375,1.375,0,0,1-.623,1.08c-.344.2-.623.037-.623-.36V259.6A1.381,1.381,0,0,1,475.067,258.525Z" transform="translate(-469.101 -258.324)" fill="#d4ecff"/>
                    <path id="Trazado_194645" data-name="Trazado 194645" d="M472.5,260.7c.345-.2.623-.037.623.361v6.143a1.375,1.375,0,0,1-.623,1.08c-.344.2-.623.038-.623-.359v-6.144A1.381,1.381,0,0,1,472.5,260.7Z" transform="translate(-469.202 -258.24)" fill="#d4ecff"/>
                    <path id="Trazado_194646" data-name="Trazado 194646" d="M469.925,264.888c.345-.2.623-.037.623.361v3.336a1.378,1.378,0,0,1-.623,1.08c-.344.2-.623.037-.623-.359v-3.337A1.381,1.381,0,0,1,469.925,264.888Z" transform="translate(-469.302 -258.076)" fill="#fff"/>
                  </g>
                  <path id="Trazado_194647" data-name="Trazado 194647" d="M482.168,257.31c0,.392.274.55.613.354a1.358,1.358,0,0,0,.613-1.062c0-.391-.275-.55-.613-.354A1.355,1.355,0,0,0,482.168,257.31Z" transform="translate(-468.8 -253.954)" fill="#ff2c9c"/>
                  <path id="Trazado_194648" data-name="Trazado 194648" d="M482.168,255.183c0,.391.274.549.613.353a1.356,1.356,0,0,0,.613-1.062c0-.391-.275-.549-.613-.353A1.353,1.353,0,0,0,482.168,255.183Z" transform="translate(-468.8 -254.037)" fill="#fff"/>
                </g>
              </g>
            </g>
          </g>
        </g>
        <g id="Grupo_152050" data-name="Grupo 152050" transform="translate(361.987 1052.445)">
          <g id="Grupo_152048" data-name="Grupo 152048">
            <g id="Grupo_152046" data-name="Grupo 152046" transform="translate(67.602)">
              <path id="Trazado_194649" data-name="Trazado 194649" d="M499.57,162.834l-8.412-4.856,31.015-17.906c1.465-.846,1.465-2.221,0-3.067l-31.684-18.293a5.881,5.881,0,0,0-5.314,0l-31.015,17.906-8.412-4.857,31.015-17.907c6.1-3.523,16.034-3.523,22.137,0l31.684,18.292c6.1,3.524,6.1,9.258,0,12.781Z" transform="translate(-445.749 -111.211)" fill="url(#radial-gradient-6)"/>
            </g>
            <g id="Grupo_152047" data-name="Grupo 152047" transform="translate(0 8.92)">
              <path id="Trazado_194650" data-name="Trazado 194650" d="M515.621,164.637c0-4.5-2.734-9.721-6.107-11.668l-56.192-32.443a3.919,3.919,0,0,0-3.957-.338l0,0-67.094,38.988,64.882,48.891,66.1-38.366a3.052,3.052,0,0,0,.584-.339h0C514.939,168.524,515.621,166.884,515.621,164.637Z" transform="translate(-380.624 -119.796)" fill="url(#linear-gradient-4)"/>
              <path id="Trazado_194651" data-name="Trazado 194651" d="M445.033,206.625l66.1-38.366a3.05,3.05,0,0,0,.584-.339h0c1.1-.836,1.786-2.476,1.786-4.723a14.976,14.976,0,0,0-1.646-6.5L436.51,200.2Z" transform="translate(-378.508 -118.356)" fill="#396caa"/>
              <path id="Trazado_194652" data-name="Trazado 194652" d="M442.986,206.441,386.792,174c-3.373-1.947-6.106-7.171-6.106-11.668h0c0-4.5,2.734-6.565,6.106-4.617l56.193,32.443c3.373,1.947,6.107,7.171,6.107,11.668h0C449.093,206.32,446.358,208.388,442.986,206.441Z" transform="translate(-380.686 -118.345)" fill="url(#radial-gradient-7)"/>
              <path id="Trazado_194653" data-name="Trazado 194653" d="M443.559,189.859l-56.193-32.443a3.875,3.875,0,0,0-4.039-.285,4.238,4.238,0,0,1,3.362.592l56.193,32.443c3.373,1.947,6.107,7.171,6.107,11.668h0c0,2.429-.8,4.141-2.068,4.9,1.652-.5,2.744-2.37,2.744-5.209h0C449.666,197.03,446.932,191.807,443.559,189.859Z" transform="translate(-380.583 -118.356)" fill="#fff"/>
            </g>
            <path id="Trazado_194654" data-name="Trazado 194654" d="M432.845,194.326l-6.757-3.9a2.913,2.913,0,0,1-1.217-2.325h0c0-.9.544-1.308,1.217-.921l6.757,3.9a2.914,2.914,0,0,1,1.217,2.325h0C434.062,194.3,433.518,194.714,432.845,194.326Z" transform="translate(-378.962 -108.252)" fill="#ff2c9c"/>
          </g>
          <g id="Grupo_152049" data-name="Grupo 152049" transform="translate(54.73 36.065)">
            <path id="Trazado_194655" data-name="Trazado 194655" d="M441.146,150.372c1.765-1.044,1.749-2.707-.039-3.714a7.11,7.11,0,0,0-6.433.068c-1.766,1.044-1.749,2.708.038,3.715A7.112,7.112,0,0,0,441.146,150.372Z" transform="translate(-433.361 -145.922)" fill="#5793ce"/>
            <path id="Trazado_194656" data-name="Trazado 194656" d="M450.581,155.689c1.766-1.044,1.749-2.708-.038-3.715a7.112,7.112,0,0,0-6.434.068c-1.765,1.044-1.749,2.707.039,3.715A7.11,7.11,0,0,0,450.581,155.689Z" transform="translate(-432.993 -145.714)" fill="#fff"/>
            <path id="Trazado_194657" data-name="Trazado 194657" d="M460.017,161.006c1.765-1.044,1.748-2.708-.039-3.715a7.11,7.11,0,0,0-6.433.068c-1.766,1.044-1.749,2.707.038,3.713A7.109,7.109,0,0,0,460.017,161.006Z" transform="translate(-432.624 -145.507)" fill="#fff"/>
          </g>
        </g>
      </g>
    </g>
    <path id="Trazado_194658" data-name="Trazado 194658" d="M524.782,252.985a1.322,1.322,0,0,1-1.325-1.324v-16.97a1.327,1.327,0,0,1,.662-1.148l14.7-8.486a1.324,1.324,0,0,1,1.987,1.148v16.97a1.326,1.326,0,0,1-.662,1.147l-14.7,8.486A1.323,1.323,0,0,1,524.782,252.985Zm1.324-17.529v13.911l12.05-6.956V228.5Zm13.373,7.72h0Z" transform="translate(-13.128 945.671)" fill="#fff"/>
  </g>
</svg>
