<svg xmlns="http://www.w3.org/2000/svg" xmlns:xlink="http://www.w3.org/1999/xlink" width="1329" height="235" viewBox="0 0 1329 235">
  <defs>
    <linearGradient id="linear-gradient" x1="0.191" y1="1" x2="1" y2="1" gradientUnits="objectBoundingBox">
      <stop offset="0" stop-color="#fff"/>
      <stop offset="0.126" stop-color="#94bede"/>
      <stop offset="0.382" stop-color="#6084a7"/>
      <stop offset="1" stop-color="#213e64"/>
    </linearGradient>
    <clipPath id="clip-path">
      <rect id="Rectángulo_42329" data-name="Rectángulo 42329" width="1329" height="235" transform="translate(135.676 447)" fill="url(#linear-gradient)"/>
    </clipPath>
  </defs>
  <g id="Grupo_152645" data-name="Grupo 152645" transform="translate(-135.676 -836)">
    <g id="Enmascarar_grupo_79956" data-name="Enmascarar grupo 79956" transform="translate(0 389)" clip-path="url(#clip-path)">
      <path id="Dots-01" d="M311.067,163.815a.4.4,0,1,1,.373-.4A.39.39,0,0,1,311.067,163.815Zm0-10.195a.393.393,0,0,1,0-.786.394.394,0,0,1,0,.786Zm0-10.2a.366.366,0,0,1-.354-.371.351.351,0,1,1,.7,0A.366.366,0,0,1,311.067,143.418Zm0-10.277a.271.271,0,0,1-.272-.279.274.274,0,0,1,.272-.282.283.283,0,0,1,.271.282A.279.279,0,0,1,311.067,133.141Zm0-10.267a.191.191,0,0,1-.19-.2.193.193,0,0,1,.19-.2.2.2,0,0,1,.183.2A.194.194,0,0,1,311.067,122.874ZM311.01,112.5a.051.051,0,0,1,.057-.056.057.057,0,0,1,.051.056.055.055,0,0,1-.051.053C311.029,112.553,311.01,112.533,311.01,112.5Zm-9.654,61.978a.863.863,0,0,1-.829-.89.833.833,0,1,1,1.665,0A.864.864,0,0,1,301.355,174.478Zm0-10.189a.877.877,0,1,1,.835-.872A.854.854,0,0,1,301.355,164.289Zm0-10.184a.875.875,0,1,1,.835-.879A.856.856,0,0,1,301.355,154.1Zm0-10.211a.847.847,0,1,1,.81-.846A.832.832,0,0,1,301.355,143.894Zm0-10.295a.736.736,0,1,1,.7-.737A.715.715,0,0,1,301.355,133.6Zm0-10.274a.644.644,0,0,1,0-1.288.644.644,0,0,1,0,1.288Zm0-10.291a.525.525,0,0,1-.513-.534.514.514,0,1,1,1.025,0A.52.52,0,0,1,301.355,113.034Zm0-10.384a.339.339,0,1,1,.329-.338A.336.336,0,0,1,301.355,102.65ZM301.2,92.133a.162.162,0,1,1,.322,0,.161.161,0,1,1-.322,0ZM291.65,174.9a1.286,1.286,0,0,1-1.24-1.314,1.241,1.241,0,1,1,2.48,0A1.286,1.286,0,0,1,291.65,174.9Zm0-10.195a1.3,1.3,0,1,1,1.24-1.291A1.267,1.267,0,0,1,291.65,164.708Zm0-10.175a1.277,1.277,0,0,1-1.24-1.307,1.241,1.241,0,1,1,2.48,0A1.277,1.277,0,0,1,291.65,154.533Zm0-10.241a1.248,1.248,0,1,1,1.183-1.244A1.213,1.213,0,0,1,291.65,144.292Zm0-10.245a1.184,1.184,0,1,1,1.133-1.185A1.156,1.156,0,0,1,291.65,134.047Zm0-10.294a1.075,1.075,0,1,1,1.019-1.075A1.051,1.051,0,0,1,291.65,123.753Zm0-10.295a.962.962,0,1,1,.918-.959A.94.94,0,0,1,291.65,113.459Zm0-10.384a.765.765,0,1,1,.721-.763A.746.746,0,0,1,291.65,103.075Zm0-10.351a.594.594,0,1,1,.57-.591A.585.585,0,0,1,291.65,92.724Zm0-10.407a.369.369,0,0,1,0-.737.369.369,0,0,1,0,.737Zm-.133-10.553a.138.138,0,0,1,.133-.143.142.142,0,0,1,.134.143.14.14,0,0,1-.134.14A.135.135,0,0,1,291.518,71.764Zm-9.571,93.4a1.753,1.753,0,1,1,1.664-1.746A1.708,1.708,0,0,1,281.947,165.163Zm0-10.238a1.7,1.7,0,1,1,1.613-1.7A1.662,1.662,0,0,1,281.947,154.924Zm0-10.211a1.668,1.668,0,1,1,1.588-1.666A1.628,1.628,0,0,1,281.947,144.713Zm0-10.238a1.615,1.615,0,1,1,1.531-1.613A1.578,1.578,0,0,1,281.947,134.475Zm0-10.3a1.5,1.5,0,1,1,1.43-1.5A1.465,1.465,0,0,1,281.947,124.178Zm0-10.325a1.357,1.357,0,1,1,1.291-1.354A1.325,1.325,0,0,1,281.947,113.853Zm0-10.353a1.186,1.186,0,1,1,1.133-1.188A1.161,1.161,0,0,1,281.947,103.5Zm0-10.38a.991.991,0,1,1,.936-.986A.963.963,0,0,1,281.947,93.119Zm0-10.411a.762.762,0,1,1,.728-.763A.744.744,0,0,1,281.947,82.709Zm0-10.407a.539.539,0,1,1,.506-.538A.521.521,0,0,1,281.947,72.3Zm0-10.471a.254.254,0,0,1-.247-.255.243.243,0,1,1,.486,0A.253.253,0,0,1,281.947,61.831Zm-9.705,103.7a2.123,2.123,0,1,1,2.012-2.117A2.072,2.072,0,0,1,272.241,165.533Zm0-10.214a2.093,2.093,0,1,1,1.986-2.094A2.044,2.044,0,0,1,272.241,155.319Zm0-10.234a2.037,2.037,0,1,1,1.936-2.037A2,2,0,0,1,272.241,145.085Zm0-10.245a1.98,1.98,0,1,1,1.879-1.978A1.931,1.931,0,0,1,272.241,134.84Zm0-10.3a1.862,1.862,0,1,1,1.771-1.861A1.816,1.816,0,0,1,272.241,124.539Zm0-10.294a1.751,1.751,0,1,1,1.664-1.746A1.711,1.711,0,0,1,272.241,114.246Zm0-10.348a1.587,1.587,0,1,1,1.506-1.586A1.554,1.554,0,0,1,272.241,103.9Zm0-10.384a1.386,1.386,0,1,1,1.316-1.381A1.35,1.35,0,0,1,272.241,93.514Zm0-10.411a1.16,1.16,0,1,1,1.1-1.158A1.131,1.131,0,0,1,272.241,83.1Zm0-10.437a.906.906,0,1,1,.854-.9A.881.881,0,0,1,272.241,72.667Zm0-10.467a.621.621,0,1,1,.588-.624A.6.6,0,0,1,272.241,62.2Zm0-10.493a.3.3,0,0,1-.3-.309.295.295,0,1,1,.588,0A.3.3,0,0,1,272.241,51.707Zm-9.711,114.2a2.49,2.49,0,1,1,2.365-2.485A2.427,2.427,0,0,1,262.531,165.9Zm0-10.214a2.46,2.46,0,1,1,2.341-2.462A2.407,2.407,0,0,1,262.531,155.688Zm0-10.241a2.4,2.4,0,1,1,2.29-2.4A2.342,2.342,0,0,1,262.531,145.447Zm0-10.238a2.345,2.345,0,1,1,2.233-2.346A2.292,2.292,0,0,1,262.531,135.208Zm0-10.3a2.231,2.231,0,1,1,2.125-2.23A2.176,2.176,0,0,1,262.531,124.908Zm0-10.318a2.091,2.091,0,1,1,1.992-2.091A2.049,2.049,0,0,1,262.531,114.59Zm0-10.357a1.922,1.922,0,1,1,1.835-1.921A1.874,1.874,0,0,1,262.531,104.233Zm0-10.35a1.755,1.755,0,1,1,1.67-1.749A1.717,1.717,0,0,1,262.531,93.883Zm0-10.441a1.5,1.5,0,1,1,1.43-1.5A1.458,1.458,0,0,1,262.531,83.442Zm0-10.434a1.246,1.246,0,1,1,1.182-1.244A1.212,1.212,0,0,1,262.531,73.009Zm0-10.464a.942.942,0,0,1-.91-.969.915.915,0,1,1,1.828,0A.947.947,0,0,1,262.531,62.545Zm0-10.5a.649.649,0,1,1,.62-.647A.634.634,0,0,1,262.531,52.045Zm0-10.52a.311.311,0,1,1,.3-.312A.3.3,0,0,1,262.531,41.525ZM252.82,166.234a2.827,2.827,0,1,1,2.695-2.818A2.755,2.755,0,0,1,252.82,166.234Zm0-10.215a2.8,2.8,0,1,1,2.67-2.794A2.729,2.729,0,0,1,252.82,156.019Zm0-10.211a2.768,2.768,0,1,1,2.638-2.761A2.7,2.7,0,0,1,252.82,145.808Zm0-10.261a2.688,2.688,0,1,1,2.562-2.685A2.619,2.619,0,0,1,252.82,135.547Zm0-10.3a2.568,2.568,0,1,1,2.455-2.568A2.513,2.513,0,0,1,252.82,125.246Zm0-10.35a2.4,2.4,0,1,1,2.3-2.4A2.338,2.338,0,0,1,252.82,114.9Zm0-10.351a2.236,2.236,0,1,1,2.132-2.233A2.176,2.176,0,0,1,252.82,104.545Zm0-10.38a2.035,2.035,0,1,1,1.936-2.031A1.989,1.989,0,0,1,252.82,94.165Zm0-10.411a1.808,1.808,0,1,1,1.732-1.808A1.763,1.763,0,0,1,252.82,83.754Zm0-10.44a1.553,1.553,0,1,1,1.487-1.55A1.518,1.518,0,0,1,252.82,73.314Zm0-10.464a1.272,1.272,0,1,1,1.215-1.274A1.242,1.242,0,0,1,252.82,62.85Zm0-10.489a.962.962,0,1,1,.917-.962A.936.936,0,0,1,252.82,52.361Zm0-10.523a.621.621,0,0,1,0-1.241.621.621,0,0,1,0,1.241Zm0-10.553a.252.252,0,1,1,.246-.252A.247.247,0,0,1,252.82,31.284Zm-9.7,145.443a3.133,3.133,0,1,1,2.986-3.139A3.062,3.062,0,0,1,243.122,176.727Zm0-10.178a3.14,3.14,0,1,1,2.986-3.133A3.065,3.065,0,0,1,243.122,166.55Zm0-10.185a3.138,3.138,0,1,1,2.986-3.139A3.068,3.068,0,0,1,243.122,156.364Zm0-10.244a3.08,3.08,0,1,1,2.928-3.072A3,3,0,0,1,243.122,146.12Zm0-10.261a3,3,0,1,1,2.846-3A2.932,2.932,0,0,1,243.122,135.859Zm0-10.3a2.881,2.881,0,1,1,2.745-2.881A2.813,2.813,0,0,1,243.122,125.558Zm0-10.318a2.746,2.746,0,1,1,2.606-2.741A2.681,2.681,0,0,1,243.122,115.241Zm0-10.351a2.574,2.574,0,1,1,2.441-2.578A2.511,2.511,0,0,1,243.122,104.89Zm0-10.413a2.348,2.348,0,1,1,2.233-2.344A2.3,2.3,0,0,1,243.122,94.477Zm0-10.411a2.121,2.121,0,1,1,2.018-2.12A2.067,2.067,0,0,1,243.122,84.066Zm0-10.466a1.837,1.837,0,1,1,1.745-1.835A1.8,1.8,0,0,1,243.122,73.6Zm0-10.437a1.583,1.583,0,1,1,1.512-1.586A1.548,1.548,0,0,1,243.122,63.162Zm0-10.523A1.243,1.243,0,1,1,244.3,51.4,1.221,1.221,0,0,1,243.122,52.639Zm0-10.523a.906.906,0,1,1,.86-.9A.883.883,0,0,1,243.122,42.116Zm0-10.55a.535.535,0,0,1,0-1.069.535.535,0,0,1,0,1.069Zm-.165-10.719a.171.171,0,0,1,.165-.173.166.166,0,0,1,.158.173.162.162,0,0,1-.158.173A.167.167,0,0,1,242.957,20.847Zm-9.546,146.015a3.448,3.448,0,1,1,3.29-3.445A3.375,3.375,0,0,1,233.411,166.862Zm0-10.218a3.418,3.418,0,1,1,3.258-3.418A3.337,3.337,0,0,1,233.411,156.643Zm0-10.234a3.364,3.364,0,1,1,3.2-3.362A3.285,3.285,0,0,1,233.411,146.409Zm0-10.271a3.279,3.279,0,1,1,3.125-3.276A3.2,3.2,0,0,1,233.411,136.138Zm0-10.291a3.169,3.169,0,1,1,3.018-3.169A3.094,3.094,0,0,1,233.411,125.847Zm0-10.33A3.027,3.027,0,1,1,236.3,112.5,2.95,2.95,0,0,1,233.411,115.517Zm0-10.378a2.825,2.825,0,1,1,2.695-2.827A2.759,2.759,0,0,1,233.411,105.139Zm0-10.387a2.626,2.626,0,1,1,2.5-2.619A2.559,2.559,0,0,1,233.411,94.752Zm0-10.407a2.4,2.4,0,1,1,2.29-2.4A2.338,2.338,0,0,1,233.411,84.345Zm0-10.463a2.121,2.121,0,1,1,2.018-2.117A2.072,2.072,0,0,1,233.411,73.881Zm0-10.493a1.808,1.808,0,1,1,1.721-1.813A1.769,1.769,0,0,1,233.411,63.388Zm0-10.491a1.5,1.5,0,1,1,1.429-1.5A1.464,1.464,0,0,1,233.411,52.9Zm0-10.523a1.161,1.161,0,1,1,1.107-1.161A1.134,1.134,0,0,1,233.411,42.375Zm0-10.556a.791.791,0,0,1,0-1.58.791.791,0,0,1,0,1.58Zm0-10.577a.4.4,0,1,1,.379-.395A.387.387,0,0,1,233.411,21.242Zm-9.705,156.049a3.7,3.7,0,1,1,3.524-3.7A3.615,3.615,0,0,1,223.706,177.291Zm0-10.174a3.7,3.7,0,1,1,3.524-3.7A3.613,3.613,0,0,1,223.706,167.117Zm0-10.188a3.7,3.7,0,1,1,3.524-3.7A3.613,3.613,0,0,1,223.706,156.929Zm0-10.244a3.643,3.643,0,1,1,3.474-3.637A3.555,3.555,0,0,1,223.706,146.684Zm0-10.29a3.533,3.533,0,1,1,3.365-3.532A3.452,3.452,0,0,1,223.706,136.394Zm0-10.291a3.426,3.426,0,1,1,3.252-3.425A3.346,3.346,0,0,1,223.706,126.1Zm0-10.33a3.283,3.283,0,1,1,3.125-3.273A3.2,3.2,0,0,1,223.706,115.772Zm0-10.378a3.083,3.083,0,1,1,2.936-3.083A3.005,3.005,0,0,1,223.706,105.395Zm0-10.387a2.882,2.882,0,1,1,2.746-2.874A2.8,2.8,0,0,1,223.706,95.007Zm0-10.434a2.629,2.629,0,1,1,2.5-2.628A2.569,2.569,0,0,1,223.706,84.574Zm0-10.44a2.372,2.372,0,1,1,2.259-2.369A2.322,2.322,0,0,1,223.706,74.134Zm0-10.49a2.067,2.067,0,1,1,1.962-2.068A2.015,2.015,0,0,1,223.706,63.643Zm0-10.5a1.751,1.751,0,1,1,1.67-1.749A1.708,1.708,0,0,1,223.706,53.147Zm0-10.547a1.385,1.385,0,1,1,1.316-1.387A1.355,1.355,0,0,1,223.706,42.6Zm0-10.556a1.017,1.017,0,1,1,.968-1.012A.995.995,0,0,1,223.706,32.044Zm0-10.573a.621.621,0,1,1,.588-.624A.608.608,0,0,1,223.706,21.471Zm-.19-10.809a.19.19,0,1,1,.19.2A.189.189,0,0,1,223.516,10.663ZM214,167.34a3.931,3.931,0,1,1,3.738-3.923A3.839,3.839,0,0,1,214,167.34Zm0-10.189a3.928,3.928,0,1,1,3.738-3.925A3.835,3.835,0,0,1,214,157.151Zm0-10.234a3.872,3.872,0,1,1,3.688-3.869A3.784,3.784,0,0,1,214,146.917Zm0-10.244a3.816,3.816,0,1,1,3.631-3.81A3.723,3.723,0,0,1,214,136.672Zm0-10.318a3.678,3.678,0,1,1,3.5-3.677A3.592,3.592,0,0,1,214,126.355ZM214,116a3.507,3.507,0,1,1,3.34-3.5A3.429,3.429,0,0,1,214,116Zm0-10.391a3.305,3.305,0,1,1,3.149-3.3A3.226,3.226,0,0,1,214,105.613Zm0-10.407a3.084,3.084,0,1,1,2.935-3.074A3.009,3.009,0,0,1,214,95.207ZM214,84.8a2.854,2.854,0,1,1,2.713-2.854A2.785,2.785,0,0,1,214,84.8Zm0-10.466a2.573,2.573,0,1,1,2.448-2.568A2.513,2.513,0,0,1,214,74.333Zm0-10.493a2.263,2.263,0,1,1,2.151-2.264A2.208,2.208,0,0,1,214,63.84Zm0-10.5a1.949,1.949,0,1,1,1.853-1.945A1.905,1.905,0,0,1,214,53.343ZM214,42.8a1.583,1.583,0,1,1,1.505-1.583A1.547,1.547,0,0,1,214,42.8Zm0-10.55a1.216,1.216,0,1,1,1.151-1.215A1.183,1.183,0,0,1,214,32.247Zm0-10.61a.789.789,0,1,1,.752-.79A.769.769,0,0,1,214,21.637Zm0-10.606a.367.367,0,1,1,.348-.368A.36.36,0,0,1,214,11.031Zm-9.711,156.56a4.184,4.184,0,1,1,3.986-4.175A4.084,4.084,0,0,1,204.29,167.591Zm0-10.211a4.155,4.155,0,1,1,3.961-4.155A4.053,4.053,0,0,1,204.29,157.38Zm0-10.264a4.073,4.073,0,1,1,3.885-4.068A3.974,3.974,0,0,1,204.29,147.116Zm0-10.244a4.014,4.014,0,1,1,3.821-4.009A3.916,3.916,0,0,1,204.29,136.872Zm0-10.321a3.876,3.876,0,1,1,3.689-3.873A3.787,3.787,0,0,1,204.29,126.551Zm0-10.35a3.707,3.707,0,1,1,3.524-3.7A3.618,3.618,0,0,1,204.29,116.2Zm0-10.384a3.508,3.508,0,1,1,3.341-3.5A3.424,3.424,0,0,1,204.29,105.816Zm0-10.414a3.279,3.279,0,1,1,3.125-3.269A3.2,3.2,0,0,1,204.29,95.4Zm0-10.434a3.025,3.025,0,1,1,2.879-3.023A2.955,2.955,0,0,1,204.29,84.969Zm0-10.466a2.745,2.745,0,1,1,2.607-2.738A2.677,2.677,0,0,1,204.29,74.5Zm0-10.49a2.434,2.434,0,1,1,2.316-2.436A2.377,2.377,0,0,1,204.29,64.012Zm0-10.5a2.119,2.119,0,1,1,2.024-2.117A2.069,2.069,0,0,1,204.29,53.515Zm0-10.52a1.781,1.781,0,1,1,1.7-1.782A1.746,1.746,0,0,1,204.29,43Zm0-10.576a1.389,1.389,0,1,1,1.322-1.387A1.352,1.352,0,0,1,204.29,32.419Zm0-10.579a.99.99,0,1,1,.943-.993A.968.968,0,0,1,204.29,21.84Zm0-10.606a.557.557,0,0,1-.538-.571.541.541,0,1,1,1.082,0A.562.562,0,0,1,204.29,11.233ZM204.214.481a.084.084,0,0,1,.076-.09.094.094,0,0,1,.088.09.091.091,0,0,1-.088.086A.081.081,0,0,1,204.214.481Zm-9.628,167.273a4.352,4.352,0,1,1,4.144-4.337A4.242,4.242,0,0,1,194.586,167.754Zm0-10.208a4.324,4.324,0,1,1,4.113-4.321A4.217,4.217,0,0,1,194.586,157.546Zm0-10.238a4.266,4.266,0,1,1,4.068-4.261A4.17,4.17,0,0,1,194.586,147.308Zm0-10.267a4.183,4.183,0,1,1,3.986-4.178A4.081,4.081,0,0,1,194.586,137.041Zm0-10.324a4.042,4.042,0,1,1,3.847-4.038A3.946,3.946,0,0,1,194.586,126.716Zm0-10.35a3.872,3.872,0,1,1,3.695-3.867A3.783,3.783,0,0,1,194.586,116.366Zm0-10.381a3.676,3.676,0,1,1,3.5-3.674A3.584,3.584,0,0,1,194.586,105.985Zm0-10.41a3.449,3.449,0,1,1,3.283-3.442A3.367,3.367,0,0,1,194.586,95.575Zm0-10.44a3.193,3.193,0,1,1,3.043-3.189A3.116,3.116,0,0,1,194.586,85.135Zm0-10.46a2.912,2.912,0,1,1,2.777-2.91A2.839,2.839,0,0,1,194.586,74.675Zm0-10.523a2.573,2.573,0,1,1,2.448-2.576A2.512,2.512,0,0,1,194.586,64.152Zm0-10.52a2.236,2.236,0,1,1,2.125-2.233A2.185,2.185,0,0,1,194.586,53.632Zm0-10.523a1.9,1.9,0,1,1,1.8-1.9A1.851,1.851,0,0,1,194.586,43.108Zm0-10.55a1.528,1.528,0,1,1,1.456-1.527A1.5,1.5,0,0,1,194.586,32.559Zm0-10.61a1.1,1.1,0,1,1,1.05-1.1A1.074,1.074,0,0,1,194.586,21.949Zm0-10.576a.709.709,0,0,1,0-1.417.71.71,0,0,1,0,1.417Zm0-10.666a.223.223,0,0,1-.215-.226.228.228,0,0,1,.215-.229.22.22,0,0,1,.215.229A.215.215,0,0,1,194.586.707Zm-9.7,167.2a4.5,4.5,0,1,1,4.283-4.487A4.389,4.389,0,0,1,184.882,167.9Zm0-10.208a4.468,4.468,0,1,1,4.251-4.47A4.368,4.368,0,0,1,184.882,157.7Zm0-10.248a4.409,4.409,0,1,1,4.194-4.4A4.3,4.3,0,0,1,184.882,147.448Zm0-10.267A4.324,4.324,0,1,1,189,132.862,4.219,4.219,0,0,1,184.882,137.18Zm0-10.314a4.19,4.19,0,1,1,3.985-4.188A4.085,4.085,0,0,1,184.882,126.866Zm0-10.354A4.015,4.015,0,1,1,188.7,112.5,3.923,3.923,0,0,1,184.882,116.512Zm0-10.391a3.814,3.814,0,1,1,3.631-3.809A3.726,3.726,0,0,1,184.882,106.121Zm0-10.43a3.565,3.565,0,1,1,3.391-3.558A3.486,3.486,0,0,1,184.882,95.691Zm0-10.441a3.309,3.309,0,1,1,3.144-3.3A3.223,3.223,0,0,1,184.882,85.25Zm0-10.466a3.025,3.025,0,1,1,2.878-3.02A2.954,2.954,0,0,1,184.882,74.784Zm0-10.493a2.715,2.715,0,1,1,2.581-2.715A2.651,2.651,0,0,1,184.882,64.291Zm0-10.523A2.374,2.374,0,1,1,187.14,51.4,2.318,2.318,0,0,1,184.882,53.768Zm0-10.547a2.008,2.008,0,1,1,1.911-2.008A1.966,1.966,0,0,1,184.882,43.221Zm0-10.553a1.64,1.64,0,1,1,1.563-1.636A1.6,1.6,0,0,1,184.882,32.668Zm0-10.606a1.216,1.216,0,1,1,1.158-1.215A1.186,1.186,0,0,1,184.882,22.062Zm0-10.636a.763.763,0,1,1,.728-.763A.746.746,0,0,1,184.882,11.426Zm0-10.606a.33.33,0,0,1-.323-.338.324.324,0,1,1,.646,0A.33.33,0,0,1,184.882.82Zm-9.7,167.19a4.606,4.606,0,1,1,4.384-4.593A4.488,4.488,0,0,1,175.177,168.009Zm0-10.178a4.6,4.6,0,1,1,4.384-4.606A4.5,4.5,0,0,1,175.177,157.831Zm0-10.264a4.522,4.522,0,1,1,4.308-4.519A4.42,4.42,0,0,1,175.177,147.567Zm0-10.294a4.416,4.416,0,1,1,4.195-4.41A4.315,4.315,0,0,1,175.177,137.273Zm0-10.327a4.269,4.269,0,1,1,4.067-4.268A4.166,4.166,0,0,1,175.177,126.946Zm0-10.35a4.1,4.1,0,1,1,3.9-4.1A4,4,0,0,1,175.177,116.6Zm0-10.408a3.876,3.876,0,1,1,3.682-3.876A3.786,3.786,0,0,1,175.177,106.188Zm0-10.384a3.678,3.678,0,1,1,3.492-3.671A3.592,3.592,0,0,1,175.177,95.8Zm0-10.467a3.394,3.394,0,1,1,3.227-3.391A3.316,3.316,0,0,1,175.177,85.337Zm0-10.47a3.108,3.108,0,1,1,2.954-3.1A3.028,3.028,0,0,1,175.177,74.867Zm0-10.489a2.8,2.8,0,1,1,2.663-2.8A2.731,2.731,0,0,1,175.177,64.377Zm0-10.55a2.432,2.432,0,1,1,2.309-2.429A2.371,2.371,0,0,1,175.177,53.827Zm0-10.523a2.092,2.092,0,1,1,1.986-2.091A2.039,2.039,0,0,1,175.177,43.3Zm0-10.58a1.694,1.694,0,1,1,1.613-1.692A1.654,1.654,0,0,1,175.177,32.724Zm0-10.579a1.3,1.3,0,1,1,1.233-1.3A1.271,1.271,0,0,1,175.177,22.145Zm0-10.606a.876.876,0,1,1,.828-.876A.856.856,0,0,1,175.177,11.539Zm0-10.662a.384.384,0,0,1-.38-.395.377.377,0,1,1,.753,0A.386.386,0,0,1,175.177.876Zm-9.7,167.226a4.7,4.7,0,1,1,4.459-4.686A4.585,4.585,0,0,1,165.472,168.1Zm0-10.185a4.695,4.695,0,1,1,4.459-4.692A4.584,4.584,0,0,1,165.472,157.917Zm0-10.271a4.608,4.608,0,1,1,4.39-4.6A4.492,4.492,0,0,1,165.472,147.647Zm0-10.324a4.469,4.469,0,1,1,4.244-4.46A4.36,4.36,0,0,1,165.472,137.323Zm0-10.294a4.352,4.352,0,1,1,4.144-4.351A4.253,4.253,0,0,1,165.472,127.028Zm0-10.354a4.183,4.183,0,1,1,3.979-4.175A4.088,4.088,0,0,1,165.472,116.675Zm0-10.437a3.928,3.928,0,1,1,3.739-3.925A3.835,3.835,0,0,1,165.472,106.237Zm0-10.407a3.705,3.705,0,1,1,3.517-3.7A3.618,3.618,0,0,1,165.472,95.831Zm0-10.44a3.449,3.449,0,1,1,3.276-3.445A3.368,3.368,0,0,1,165.472,85.39Zm0-10.49a3.138,3.138,0,1,1,2.986-3.136A3.063,3.063,0,0,1,165.472,74.9Zm0-10.466a2.856,2.856,0,1,1,2.713-2.858A2.787,2.787,0,0,1,165.472,64.434Zm0-10.523a2.515,2.515,0,1,1,2.4-2.512A2.453,2.453,0,0,1,165.472,53.91Zm0-10.546a2.15,2.15,0,1,1,2.037-2.15A2.1,2.1,0,0,1,165.472,43.364Zm0-10.556a1.779,1.779,0,1,1,1.689-1.775A1.734,1.734,0,0,1,165.472,32.807Zm0-10.6a1.357,1.357,0,1,1,1.29-1.357A1.33,1.33,0,0,1,165.472,22.2Zm0-10.606a.934.934,0,1,1,.885-.936A.91.91,0,0,1,165.472,11.6Zm0-10.639a.47.47,0,0,1-.462-.478A.473.473,0,0,1,165.472,0a.468.468,0,0,1,.456.481A.465.465,0,0,1,165.472.959Zm-9.711,167.2a4.751,4.751,0,1,1,4.523-4.743A4.635,4.635,0,0,1,155.761,168.159Zm0-10.212a4.723,4.723,0,1,1,4.492-4.722A4.611,4.611,0,0,1,155.761,157.947Zm0-10.267a4.64,4.64,0,1,1,4.416-4.632A4.526,4.526,0,0,1,155.761,147.68Zm0-10.3a4.525,4.525,0,1,1,4.309-4.517A4.409,4.409,0,0,1,155.761,137.379Zm0-10.321a4.384,4.384,0,1,1,4.176-4.38A4.28,4.28,0,0,1,155.761,127.058Zm0-10.384a4.183,4.183,0,1,1,3.986-4.175A4.087,4.087,0,0,1,155.761,116.675Zm0-10.378a3.988,3.988,0,1,1,3.8-3.985A3.9,3.9,0,0,1,155.761,106.3Zm0-10.437a3.734,3.734,0,1,1,3.556-3.727A3.643,3.643,0,0,1,155.761,95.86Zm0-10.44a3.477,3.477,0,1,1,3.309-3.475A3.393,3.393,0,0,1,155.761,85.42Zm0-10.49a3.168,3.168,0,1,1,3.018-3.166A3.093,3.093,0,0,1,155.761,74.93Zm0-10.5a2.856,2.856,0,1,1,2.721-2.858A2.786,2.786,0,0,1,155.761,64.434Zm0-10.523a2.515,2.515,0,1,1,2.4-2.512A2.451,2.451,0,0,1,155.761,53.91Zm0-10.546a2.15,2.15,0,1,1,2.044-2.15A2.105,2.105,0,0,1,155.761,43.364Zm0-10.556a1.779,1.779,0,1,1,1.7-1.775A1.734,1.734,0,0,1,155.761,32.807Zm0-10.6a1.357,1.357,0,1,1,1.291-1.357A1.324,1.324,0,0,1,155.761,22.2Zm0-10.606a.934.934,0,1,1,.886-.936A.908.908,0,0,1,155.761,11.6Zm0-10.639a.465.465,0,0,1-.455-.478.456.456,0,1,1,.911,0A.465.465,0,0,1,155.761.959Zm-9.71,167.17a4.721,4.721,0,1,1,4.5-4.713A4.605,4.605,0,0,1,146.051,168.129Zm0-10.212a4.694,4.694,0,1,1,4.472-4.692A4.586,4.586,0,0,1,146.051,157.917Zm0-10.271a4.608,4.608,0,1,1,4.39-4.6A4.5,4.5,0,0,1,146.051,147.647Zm0-10.324a4.469,4.469,0,1,1,4.257-4.46A4.354,4.354,0,0,1,146.051,137.323Zm0-10.294a4.352,4.352,0,1,1,4.149-4.351A4.247,4.247,0,0,1,146.051,127.028Zm0-10.354a4.183,4.183,0,1,1,3.985-4.175A4.081,4.081,0,0,1,146.051,116.675Zm0-10.437a3.928,3.928,0,1,1,3.751-3.925A3.838,3.838,0,0,1,146.051,106.237Zm0-10.377a3.734,3.734,0,1,1,3.555-3.727A3.647,3.647,0,0,1,146.051,95.86Zm0-10.44a3.476,3.476,0,1,1,3.321-3.475A3.393,3.393,0,0,1,146.051,85.42Zm0-10.49a3.168,3.168,0,1,1,3.024-3.166A3.093,3.093,0,0,1,146.051,74.93Zm0-10.5a2.855,2.855,0,1,1,2.726-2.858A2.785,2.785,0,0,1,146.051,64.434Zm0-10.523a2.515,2.515,0,1,1,2.4-2.512A2.455,2.455,0,0,1,146.051,53.91Zm0-10.546a2.149,2.149,0,1,1,2.056-2.15A2.1,2.1,0,0,1,146.051,43.364Zm0-10.556a1.779,1.779,0,1,1,1.7-1.775A1.734,1.734,0,0,1,146.051,32.807Zm0-10.6a1.357,1.357,0,1,1,1.3-1.357A1.327,1.327,0,0,1,146.051,22.2Zm0-10.606a.933.933,0,1,1,.892-.936A.907.907,0,0,1,146.051,11.6Zm0-10.639a.465.465,0,0,1-.456-.478A.468.468,0,0,1,146.051,0a.473.473,0,0,1,.462.481A.47.47,0,0,1,146.051.959Zm-9.7,167.087a4.636,4.636,0,1,1,4.415-4.63A4.527,4.527,0,0,1,136.346,168.046Zm0-10.215a4.6,4.6,0,1,1,4.39-4.606A4.5,4.5,0,0,1,136.346,157.831Zm0-10.241a4.55,4.55,0,1,1,4.333-4.542A4.437,4.437,0,0,1,136.346,147.59Zm0-10.3a4.435,4.435,0,1,1,4.232-4.431A4.332,4.332,0,0,1,136.346,137.293Zm0-10.321a4.3,4.3,0,1,1,4.1-4.294A4.192,4.192,0,0,1,136.346,126.972Zm0-10.376a4.1,4.1,0,1,1,3.9-4.1A4.009,4.009,0,0,1,136.346,116.6Zm0-10.385a3.9,3.9,0,1,1,3.713-3.9A3.81,3.81,0,0,1,136.346,106.211Zm0-10.407a3.678,3.678,0,1,1,3.5-3.671A3.586,3.586,0,0,1,136.346,95.8Zm0-10.467a3.394,3.394,0,1,1,3.233-3.391A3.314,3.314,0,0,1,136.346,85.337Zm0-10.47a3.108,3.108,0,1,1,2.96-3.1A3.029,3.029,0,0,1,136.346,74.867Zm0-10.489a2.8,2.8,0,1,1,2.663-2.8A2.736,2.736,0,0,1,136.346,64.377Zm0-10.523a2.458,2.458,0,1,1,2.347-2.456A2.4,2.4,0,0,1,136.346,53.854Zm0-10.55a2.092,2.092,0,1,1,1.993-2.091A2.042,2.042,0,0,1,136.346,43.3Zm0-10.58a1.694,1.694,0,1,1,1.619-1.692A1.657,1.657,0,0,1,136.346,32.724Zm0-10.579a1.3,1.3,0,1,1,1.24-1.3A1.271,1.271,0,0,1,136.346,22.145Zm0-10.606a.875.875,0,1,1,.835-.876A.855.855,0,0,1,136.346,11.539Zm0-10.662a.391.391,0,0,1-.379-.395.391.391,0,0,1,.379-.395.383.383,0,0,1,.38.395A.384.384,0,0,1,136.346.876Zm-9.705,167.06a4.529,4.529,0,1,1,4.309-4.52A4.423,4.423,0,0,1,126.641,167.937Zm0-10.242a4.468,4.468,0,1,1,4.252-4.47A4.367,4.367,0,0,1,126.641,157.7Zm0-10.214a4.439,4.439,0,1,1,4.227-4.433A4.341,4.341,0,0,1,126.641,147.481Zm0-10.3a4.324,4.324,0,1,1,4.119-4.318A4.223,4.223,0,0,1,126.641,137.18Zm0-10.314a4.19,4.19,0,1,1,3.986-4.188A4.095,4.095,0,0,1,126.641,126.866Zm0-10.354a4.015,4.015,0,1,1,3.821-4.013A3.926,3.926,0,0,1,126.641,116.512Zm0-10.391a3.813,3.813,0,1,1,3.638-3.809A3.721,3.721,0,0,1,126.641,106.121Zm0-10.43a3.565,3.565,0,1,1,3.391-3.558A3.475,3.475,0,0,1,126.641,95.691Zm0-10.441a3.309,3.309,0,1,1,3.15-3.3A3.223,3.223,0,0,1,126.641,85.25Zm0-10.466a3.025,3.025,0,1,1,2.885-3.02A2.954,2.954,0,0,1,126.641,74.784Zm0-10.493a2.714,2.714,0,1,1,2.587-2.715A2.65,2.65,0,0,1,126.641,64.291Zm0-10.523a2.374,2.374,0,1,1,2.265-2.369A2.323,2.323,0,0,1,126.641,53.768Zm0-10.52a2.035,2.035,0,1,1,1.942-2.034A1.988,1.988,0,0,1,126.641,43.248Zm0-10.579a1.64,1.64,0,1,1,1.563-1.636A1.6,1.6,0,0,1,126.641,32.668Zm0-10.58a1.242,1.242,0,1,1,1.183-1.241A1.216,1.216,0,0,1,126.641,22.088Zm0-10.633a.792.792,0,1,1,.753-.793A.769.769,0,0,1,126.641,11.456Zm0-10.636a.33.33,0,0,1-.322-.338.335.335,0,0,1,.322-.342.331.331,0,0,1,.323.342A.326.326,0,0,1,126.641.82Zm-9.7,166.978a4.384,4.384,0,1,1,4.169-4.381A4.281,4.281,0,0,1,116.943,167.8Zm0-10.218a4.353,4.353,0,1,1,4.137-4.354A4.246,4.246,0,0,1,116.943,157.579Zm0-10.238a4.3,4.3,0,1,1,4.087-4.294A4.194,4.194,0,0,1,116.943,147.341Zm0-10.3a4.183,4.183,0,1,1,3.973-4.178A4.082,4.082,0,0,1,116.943,137.041Zm0-10.324a4.042,4.042,0,1,1,3.84-4.038A3.946,3.946,0,0,1,116.943,126.716Zm0-10.35a3.873,3.873,0,1,1,3.682-3.867A3.784,3.784,0,0,1,116.943,116.366Zm0-10.351a3.7,3.7,0,1,1,3.518-3.7A3.619,3.619,0,0,1,116.943,106.015Zm0-10.41a3.477,3.477,0,1,1,3.3-3.472A3.393,3.393,0,0,1,116.943,95.6Zm0-10.437A3.223,3.223,0,1,1,120,81.946,3.147,3.147,0,0,1,116.943,85.168Zm0-10.493a2.913,2.913,0,1,1,2.765-2.91A2.85,2.85,0,0,1,116.943,74.675Zm0-10.5a2.6,2.6,0,1,1,2.467-2.6A2.544,2.544,0,0,1,116.943,64.178Zm0-10.52a2.263,2.263,0,1,1,2.151-2.26A2.208,2.208,0,0,1,116.943,53.658Zm0-10.523a1.924,1.924,0,1,1,1.822-1.922A1.885,1.885,0,0,1,116.943,43.135Zm0-10.576a1.528,1.528,0,1,1,1.456-1.527A1.488,1.488,0,0,1,116.943,32.559Zm0-10.58a1.129,1.129,0,0,1,0-2.256,1.13,1.13,0,0,1,0,2.256Zm0-10.606a.71.71,0,1,1,.665-.71A.691.691,0,0,1,116.943,11.373Zm0-10.639a.249.249,0,0,1-.253-.252.249.249,0,0,1,.253-.252.245.245,0,0,1,.234.252A.245.245,0,0,1,116.943.734Zm-9.717,177.049a4.19,4.19,0,1,1,3.986-4.195A4.1,4.1,0,0,1,107.225,177.783Zm0-10.191a4.184,4.184,0,1,1,3.986-4.175A4.084,4.084,0,0,1,107.225,167.591Zm0-10.185a4.179,4.179,0,1,1,3.986-4.181A4.087,4.087,0,0,1,107.225,157.407Zm0-10.267a4.1,4.1,0,1,1,3.91-4.092A3.994,3.994,0,0,1,107.225,147.139Zm0-10.267a4.013,4.013,0,1,1,3.828-4.009A3.92,3.92,0,0,1,107.225,136.872Zm0-10.321a3.875,3.875,0,1,1,3.7-3.873A3.782,3.782,0,0,1,107.225,126.551Zm0-10.324a3.733,3.733,0,1,1,3.562-3.727A3.65,3.65,0,0,1,107.225,116.227Zm0-10.381a3.535,3.535,0,1,1,3.366-3.534A3.459,3.459,0,0,1,107.225,105.846Zm0-10.407a3.311,3.311,0,1,1,3.157-3.306A3.233,3.233,0,0,1,107.225,95.439Zm0-10.443a3.051,3.051,0,1,1,2.91-3.05A2.983,2.983,0,0,1,107.225,85Zm0-10.46a2.773,2.773,0,1,1,2.638-2.771A2.709,2.709,0,0,1,107.225,74.535Zm0-10.5a2.462,2.462,0,1,1,2.348-2.463A2.4,2.4,0,0,1,107.225,64.039Zm0-10.523A2.119,2.119,0,1,1,109.25,51.4,2.068,2.068,0,0,1,107.225,53.515Zm0-10.52a1.781,1.781,0,1,1,1.7-1.782A1.746,1.746,0,0,1,107.225,43Zm0-10.576a1.389,1.389,0,1,1,1.323-1.387A1.352,1.352,0,0,1,107.225,32.419Zm0-10.579a.99.99,0,1,1,.943-.993A.966.966,0,0,1,107.225,21.84Zm0-10.606a.556.556,0,0,1-.531-.571.538.538,0,1,1,1.075,0A.558.558,0,0,1,107.225,11.233ZM107.1.481a.134.134,0,0,1,.126-.14.136.136,0,0,1,.139.14.135.135,0,0,1-.139.139A.132.132,0,0,1,107.1.481ZM97.521,167.4a3.987,3.987,0,1,1,3.8-3.979A3.892,3.892,0,0,1,97.521,167.4Zm0-10.245a3.928,3.928,0,1,1,3.745-3.925A3.833,3.833,0,0,1,97.521,157.151Zm0-10.211a3.9,3.9,0,1,1,3.72-3.892A3.8,3.8,0,0,1,97.521,146.94Zm0-10.267a3.816,3.816,0,1,1,3.631-3.81A3.721,3.721,0,0,1,97.521,136.672Zm0-10.295a3.7,3.7,0,1,1,3.53-3.7A3.611,3.611,0,0,1,97.521,126.378Zm0-10.357a3.535,3.535,0,1,1,3.365-3.521A3.451,3.451,0,0,1,97.521,116.021Zm0-10.374a3.334,3.334,0,1,1,3.176-3.335A3.259,3.259,0,0,1,97.521,105.647Zm0-10.407a3.111,3.111,0,1,1,2.967-3.106A3.035,3.035,0,0,1,97.521,95.24Zm0-10.41a2.885,2.885,0,1,1,2.752-2.884A2.817,2.817,0,0,1,97.521,84.829Zm0-10.5a2.573,2.573,0,1,1,2.448-2.568A2.508,2.508,0,0,1,97.521,74.333Zm0-10.46a2.292,2.292,0,1,1,2.182-2.3A2.237,2.237,0,0,1,97.521,63.872Zm0-10.5A1.98,1.98,0,1,1,99.406,51.4,1.938,1.938,0,0,1,97.521,53.376Zm0-10.55a1.613,1.613,0,1,1,1.537-1.613A1.573,1.573,0,0,1,97.521,42.826Zm0-10.553A1.243,1.243,0,1,1,98.7,31.032,1.216,1.216,0,0,1,97.521,32.273Zm0-10.573a.85.85,0,1,1,.816-.853A.834.834,0,0,1,97.521,21.7Zm0-10.639a.4.4,0,0,1,0-.793.4.4,0,0,1,0,.793Zm-9.7,156.079a3.731,3.731,0,1,1,3.555-3.724A3.641,3.641,0,0,1,87.817,167.14Zm0-10.178a3.734,3.734,0,1,1,3.555-3.737A3.649,3.649,0,0,1,87.817,156.962Zm0-10.241a3.674,3.674,0,1,1,3.5-3.673A3.582,3.582,0,0,1,87.817,146.721Zm0-10.3a3.562,3.562,0,1,1,3.391-3.558A3.475,3.475,0,0,1,87.817,136.42Zm0-10.265a3.477,3.477,0,1,1,3.315-3.478A3.4,3.4,0,0,1,87.817,126.156Zm0-10.354a3.306,3.306,0,1,1,3.15-3.3A3.228,3.228,0,0,1,87.817,115.8Zm0-10.377a3.111,3.111,0,1,1,2.961-3.113A3.04,3.04,0,0,1,87.817,105.425Zm0-10.384a2.91,2.91,0,1,1,2.777-2.907A2.838,2.838,0,0,1,87.817,95.041Zm0-10.441a2.656,2.656,0,1,1,2.531-2.654A2.6,2.6,0,0,1,87.817,84.6Zm0-10.44a2.4,2.4,0,1,1,2.29-2.4A2.337,2.337,0,0,1,87.817,74.16Zm0-10.517a2.067,2.067,0,1,1,1.961-2.068A2.021,2.021,0,0,1,87.817,63.643Zm0-10.467a1.779,1.779,0,1,1,1.7-1.779A1.739,1.739,0,0,1,87.817,53.177Zm0-10.553a1.414,1.414,0,1,1,1.347-1.411A1.38,1.38,0,0,1,87.817,42.624Zm0-10.547a1.048,1.048,0,1,1,1-1.045A1.024,1.024,0,0,1,87.817,32.077Zm0-10.579a.649.649,0,1,1,.626-.651A.635.635,0,0,1,87.817,21.5Zm0-10.606a.221.221,0,0,1-.215-.229.215.215,0,1,1,.43,0A.222.222,0,0,1,87.817,10.891Zm-9.7,155.993a3.475,3.475,0,1,1,3.309-3.468A3.395,3.395,0,0,1,78.112,166.885Zm0-10.185a3.472,3.472,0,1,1,3.309-3.474A3.39,3.39,0,0,1,78.112,156.7Zm0-10.267a3.39,3.39,0,1,1,3.233-3.385A3.309,3.309,0,0,1,78.112,146.432Zm0-10.267a3.306,3.306,0,1,1,3.15-3.3A3.224,3.224,0,0,1,78.112,136.165Zm0-10.268a3.222,3.222,0,1,1,3.068-3.219A3.143,3.143,0,0,1,78.112,125.9Zm0-10.35a3.053,3.053,0,1,1,2.9-3.047A2.987,2.987,0,0,1,78.112,115.546Zm0-10.351a2.886,2.886,0,1,1,2.74-2.884A2.823,2.823,0,0,1,78.112,105.2Zm0-10.41a2.658,2.658,0,1,1,2.525-2.652A2.6,2.6,0,0,1,78.112,94.785Zm0-10.441a2.4,2.4,0,1,1,2.283-2.4A2.347,2.347,0,0,1,78.112,84.345Zm0-10.434a2.15,2.15,0,1,1,2.043-2.147A2.1,2.1,0,0,1,78.112,73.911Zm0-10.5a1.836,1.836,0,1,1,1.746-1.839A1.8,1.8,0,0,1,78.112,63.415Zm0-10.49A1.528,1.528,0,1,1,79.567,51.4,1.493,1.493,0,0,1,78.112,52.925Zm0-10.523a1.188,1.188,0,1,1,1.133-1.188A1.162,1.162,0,0,1,78.112,42.4Zm0-10.583a.791.791,0,0,1,0-1.58.791.791,0,0,1,0,1.58Zm0-10.577a.4.4,0,0,1,0-.79.4.4,0,0,1,0,.79Zm-9.7,145.334a3.167,3.167,0,1,1,3.011-3.16A3.088,3.088,0,0,1,68.407,166.576Zm0-10.182a3.168,3.168,0,1,1,3.011-3.169A3.1,3.1,0,0,1,68.407,156.395Zm0-10.241a3.112,3.112,0,1,1,2.96-3.106A3.038,3.038,0,0,1,68.407,146.153Zm0-10.268a3.027,3.027,0,1,1,2.878-3.023A2.958,2.958,0,0,1,68.407,135.885Zm0-10.29a2.917,2.917,0,1,1,2.771-2.917A2.848,2.848,0,0,1,68.407,125.595Zm0-10.338a2.767,2.767,0,1,1,2.638-2.758A2.7,2.7,0,0,1,68.407,115.257Zm0-10.367a2.573,2.573,0,1,1,2.448-2.578A2.52,2.52,0,0,1,68.407,104.89Zm0-10.357a2.406,2.406,0,1,1,2.283-2.4A2.347,2.347,0,0,1,68.407,94.533Zm0-10.441a2.15,2.15,0,1,1,2.043-2.147A2.1,2.1,0,0,1,68.407,84.093Zm0-10.437a1.894,1.894,0,1,1,1.8-1.892A1.849,1.849,0,0,1,68.407,73.656Zm0-10.464a1.611,1.611,0,1,1,1.531-1.616A1.572,1.572,0,0,1,68.407,63.192Zm0-10.523A1.273,1.273,0,1,1,69.615,51.4,1.238,1.238,0,0,1,68.407,52.669Zm0-10.523a.932.932,0,1,1,.886-.933A.911.911,0,0,1,68.407,42.146Zm0-10.547a.567.567,0,1,1,.538-.567A.555.555,0,0,1,68.407,31.6Zm0-10.556a.2.2,0,0,1,0-.391.2.2,0,0,1,0,.391ZM58.7,176.455a2.861,2.861,0,1,1,2.721-2.867A2.793,2.793,0,0,1,58.7,176.455Zm0-10.191a2.852,2.852,0,1,1,2.721-2.848A2.79,2.79,0,0,1,58.7,166.264Zm0-10.178a2.859,2.859,0,1,1,2.721-2.86A2.789,2.789,0,0,1,58.7,156.086Zm0-10.244a2.8,2.8,0,1,1,2.67-2.794A2.733,2.733,0,0,1,58.7,145.842Zm0-10.268a2.712,2.712,0,1,1,2.588-2.711A2.646,2.646,0,0,1,58.7,135.574Zm0-10.3a2.6,2.6,0,1,1,2.48-2.6A2.542,2.542,0,0,1,58.7,125.276Zm0-10.324a2.459,2.459,0,1,1,2.341-2.453A2.4,2.4,0,0,1,58.7,114.952Zm0-10.351a2.288,2.288,0,1,1,2.189-2.29A2.235,2.235,0,0,1,58.7,104.6Zm0-10.414a2.063,2.063,0,1,1,1.967-2.054A2.013,2.013,0,0,1,58.7,94.188Zm0-10.407a1.837,1.837,0,1,1,1.752-1.835A1.8,1.8,0,0,1,58.7,83.78Zm0-10.407a1.611,1.611,0,1,1,1.537-1.61A1.58,1.58,0,0,1,58.7,73.374Zm0-10.491a1.3,1.3,0,1,1,1.247-1.307A1.279,1.279,0,0,1,58.7,62.883Zm0-10.493a.992.992,0,1,1,.943-.992A.971.971,0,0,1,58.7,52.39Zm0-10.523a.653.653,0,1,1,.62-.654A.638.638,0,0,1,58.7,41.867Zm0-10.556a.278.278,0,0,1-.272-.279.281.281,0,0,1,.272-.285.277.277,0,0,1,.272.285A.273.273,0,0,1,58.7,31.311Zm-9.7,144.8a2.516,2.516,0,1,1,2.391-2.522A2.463,2.463,0,0,1,48.991,176.11Zm0-10.188a2.513,2.513,0,1,1,2.391-2.506A2.455,2.455,0,0,1,48.991,165.922Zm0-10.175a2.519,2.519,0,1,1,2.391-2.522A2.461,2.461,0,0,1,48.991,155.747Zm0-10.244a2.459,2.459,0,1,1,2.341-2.455A2.4,2.4,0,0,1,48.991,145.5Zm0-10.265a2.379,2.379,0,1,1,2.259-2.376A2.321,2.321,0,0,1,48.991,135.238Zm0-10.3a2.262,2.262,0,1,1,2.152-2.263A2.213,2.213,0,0,1,48.991,124.941Zm0-10.324A2.121,2.121,0,1,1,51.01,112.5,2.065,2.065,0,0,1,48.991,114.617Zm0-10.327a1.98,1.98,0,1,1,1.886-1.978A1.936,1.936,0,0,1,48.991,104.289Zm0-10.38a1.779,1.779,0,1,1,1.7-1.776A1.741,1.741,0,0,1,48.991,93.909Zm0-10.437a1.528,1.528,0,1,1,1.456-1.526A1.49,1.49,0,0,1,48.991,83.472Zm0-10.437a1.271,1.271,0,1,1,1.215-1.271A1.243,1.243,0,0,1,48.991,73.035Zm0-10.467a.986.986,0,1,1,.943-.992A.968.968,0,0,1,48.991,62.568Zm0-10.463a.707.707,0,1,1,.677-.707A.7.7,0,0,1,48.991,52.1Zm0-10.55a.341.341,0,1,1,.323-.342A.333.333,0,0,1,48.991,41.555Zm-9.7,134.19a2.149,2.149,0,1,1,2.05-2.157A2.1,2.1,0,0,1,39.287,175.745Zm0-10.188a2.15,2.15,0,1,1,2.05-2.141A2.092,2.092,0,0,1,39.287,165.557Zm0-10.178a2.151,2.151,0,1,1,2.05-2.154A2.1,2.1,0,0,1,39.287,155.379Zm0-10.244a2.092,2.092,0,1,1,1.986-2.087A2.042,2.042,0,0,1,39.287,145.135Zm0-10.238a2.037,2.037,0,1,1,1.936-2.034A1.986,1.986,0,0,1,39.287,134.9Zm0-10.3a1.919,1.919,0,1,1,1.828-1.918A1.874,1.874,0,0,1,39.287,124.6Zm0-10.318a1.783,1.783,0,1,1,1.7-1.779A1.734,1.734,0,0,1,39.287,114.278Zm0-10.354a1.611,1.611,0,1,1,1.537-1.613A1.576,1.576,0,0,1,39.287,103.925Zm0-10.38a1.414,1.414,0,1,1,1.348-1.411A1.381,1.381,0,0,1,39.287,93.544Zm0-10.407a1.188,1.188,0,1,1,1.132-1.191A1.161,1.161,0,0,1,39.287,83.137Zm0-10.44a.934.934,0,1,1,.886-.933A.911.911,0,0,1,39.287,72.7Zm0-10.464a.651.651,0,1,1,.62-.657A.634.634,0,0,1,39.287,62.233Zm0-10.5a.339.339,0,0,1,0-.677.339.339,0,0,1,0,.677Zm-.025-10.523a.024.024,0,0,1,.025-.027.028.028,0,0,1,.025.027.029.029,0,0,1-.025.03C39.268,41.243,39.261,41.23,39.261,41.213ZM29.583,175.366a1.781,1.781,0,1,1,1.689-1.779A1.735,1.735,0,0,1,29.583,175.366Zm0-10.174a1.78,1.78,0,1,1,1.689-1.776A1.732,1.732,0,0,1,29.583,165.192Zm0-10.185a1.783,1.783,0,1,1,1.689-1.782A1.738,1.738,0,0,1,29.583,155.007Zm0-10.267a1.7,1.7,0,1,1,1.613-1.692A1.658,1.658,0,0,1,29.583,144.74Zm0-10.242a1.636,1.636,0,1,1,1.556-1.636A1.6,1.6,0,0,1,29.583,134.5Zm0-10.287a1.528,1.528,0,1,1,1.455-1.533A1.491,1.491,0,0,1,29.583,124.211Zm0-10.331A1.386,1.386,0,1,1,30.9,112.5,1.35,1.35,0,0,1,29.583,113.881Zm0-10.321a1.244,1.244,0,1,1,1.183-1.248A1.217,1.217,0,0,1,29.583,103.559Zm0-10.384a1.047,1.047,0,1,1,.993-1.042A1.021,1.021,0,0,1,29.583,93.176Zm0-10.441a.789.789,0,1,1,.753-.79A.777.777,0,0,1,29.583,82.735Zm0-10.407a.567.567,0,1,1,.531-.564A.552.552,0,0,1,29.583,72.329Zm0-10.464a.284.284,0,0,1,0-.567.284.284,0,0,1,0,.567ZM19.871,174.956a1.329,1.329,0,0,1-1.29-1.368,1.291,1.291,0,1,1,2.581,0A1.328,1.328,0,0,1,19.871,174.956Zm0-10.178a1.362,1.362,0,1,1,1.291-1.361A1.326,1.326,0,0,1,19.871,164.777Zm0-10.195a1.355,1.355,0,1,1,1.291-1.357A1.321,1.321,0,0,1,19.871,154.582Zm0-10.237a1.3,1.3,0,1,1,1.247-1.3A1.266,1.266,0,0,1,19.871,144.345Zm0-10.242a1.246,1.246,0,1,1,1.183-1.241A1.215,1.215,0,0,1,19.871,134.1Zm0-10.291a1.133,1.133,0,1,1,1.082-1.135A1.1,1.1,0,0,1,19.871,123.813Zm0-10.33a.985.985,0,1,1,.949-.983A.971.971,0,0,1,19.871,113.482Zm0-10.318a.851.851,0,1,1,.81-.853A.839.839,0,0,1,19.871,103.165Zm0-10.381a.641.641,0,0,1-.62-.65.621.621,0,1,1,.62.65Zm0-10.443a.394.394,0,0,1,0-.786.393.393,0,0,1,0,.786Zm0-10.38a.189.189,0,0,1-.183-.2.192.192,0,0,1,.183-.2.2.2,0,0,1,.19.2A.194.194,0,0,1,19.871,71.96Zm-9.7,102.57a.914.914,0,0,1-.885-.943.887.887,0,1,1,.885.943Zm0-10.188a.931.931,0,1,1,.885-.926A.906.906,0,0,1,10.167,164.343Zm0-10.182a.932.932,0,1,1,.885-.936A.908.908,0,0,1,10.167,154.161Zm0-10.241a.875.875,0,1,1,.835-.872A.854.854,0,0,1,10.167,143.92Zm0-10.268a.791.791,0,1,1,.753-.79A.766.766,0,0,1,10.167,133.652Zm0-10.271a.7.7,0,1,1,.677-.7A.689.689,0,0,1,10.167,123.381Zm0-10.318a.567.567,0,1,1,.538-.564A.556.556,0,0,1,10.167,113.064Zm0-10.357a.393.393,0,1,1,.38-.395A.388.388,0,0,1,10.167,102.707Zm0-10.351a.226.226,0,1,1,.215-.223A.22.22,0,0,1,10.167,92.356Zm-9.7,81.723A.483.483,0,0,1,0,173.588a.464.464,0,0,1,.462-.471.459.459,0,0,1,.455.471A.477.477,0,0,1,.462,174.079Zm0-10.188a.478.478,0,0,1,0-.956.478.478,0,0,1,0,.956Zm0-10.178A.477.477,0,0,1,0,153.225a.467.467,0,0,1,.462-.471.461.461,0,0,1,.455.471A.472.472,0,0,1,.462,153.713Zm0-10.268a.4.4,0,0,1,0-.79.4.4,0,0,1,0,.79Zm0-10.237a.337.337,0,0,1-.329-.345.334.334,0,0,1,.329-.339.332.332,0,0,1,.323.339A.336.336,0,0,1,.462,133.208Zm0-10.274a.255.255,0,0,1-.247-.255.259.259,0,0,1,.247-.255.254.254,0,0,1,.24.255A.249.249,0,0,1,.462,122.933ZM.329,112.5a.136.136,0,0,1,.133-.143.141.141,0,0,1,0,.282A.135.135,0,0,1,.329,112.5Zm.133,70.885a.381.381,0,0,1,.374.4.389.389,0,0,1-.374.4.4.4,0,0,1-.38-.4A.386.386,0,0,1,.462,183.385Zm0,10.241a.332.332,0,0,1,.323.339.326.326,0,1,1-.652,0A.334.334,0,0,1,.462,193.625Zm0,10.295a.218.218,0,0,1,.209.226.21.21,0,0,1-.209.226.22.22,0,0,1-.221-.226A.228.228,0,0,1,.462,203.92Zm.082,10.407a.087.087,0,0,1-.082.093.088.088,0,0,1-.083-.093.086.086,0,0,1,.083-.08A.085.085,0,0,1,.544,214.327Zm9.623-31.42a.87.87,0,1,1-.835.876A.851.851,0,0,1,10.167,182.907Zm0,10.294a.768.768,0,0,1,0,1.533.767.767,0,0,1,0-1.533Zm0,10.235a.7.7,0,0,1,.677.71.677.677,0,1,1-1.354,0A.7.7,0,0,1,10.167,203.435Zm0,10.334a.549.549,0,0,1,.538.557.541.541,0,1,1-.538-.557Zm0,10.374a.369.369,0,1,1-.348.365A.36.36,0,0,1,10.167,224.143Zm.184,10.546a.185.185,0,1,1-.367,0,.184.184,0,1,1,.367,0Zm9.521-52.221a1.309,1.309,0,0,1,0,2.615,1.31,1.31,0,0,1,0-2.615Zm0,10.281a1.219,1.219,0,1,1-1.157,1.215A1.187,1.187,0,0,1,19.871,192.749Zm0,10.3a1.068,1.068,0,0,1,1.05,1.1,1.051,1.051,0,1,1-1.05-1.1Zm0,10.281a.98.98,0,0,1,.949.995.969.969,0,0,1-.949.983.958.958,0,0,1-.936-.983A.97.97,0,0,1,19.871,213.332Zm0,10.394a.791.791,0,1,1-.746.783A.767.767,0,0,1,19.871,223.725Zm0,10.353a.618.618,0,0,1,0,1.234.618.618,0,0,1,0-1.234Zm0,10.407a.392.392,0,1,1-.373.4A.381.381,0,0,1,19.871,244.486Zm.165,10.566a.172.172,0,0,1-.165.186.176.176,0,0,1-.164-.186.17.17,0,0,1,.164-.159A.165.165,0,0,1,20.036,255.052Zm9.547-72.969a1.694,1.694,0,1,1-1.619,1.7A1.655,1.655,0,0,1,29.583,182.084Zm0,10.235a1.606,1.606,0,0,1,1.556,1.646,1.564,1.564,0,1,1-3.125,0A1.612,1.612,0,0,1,29.583,192.318Zm0,10.3a1.528,1.528,0,1,1-1.456,1.527A1.493,1.493,0,0,1,29.583,202.619Zm0,10.327a1.385,1.385,0,1,1-1.322,1.38A1.352,1.352,0,0,1,29.583,212.946Zm0,10.355a1.209,1.209,0,0,1,0,2.415,1.209,1.209,0,0,1,0-2.415Zm0,10.38a1.016,1.016,0,1,1-.974,1.008A.991.991,0,0,1,29.583,233.681Zm0,10.407a.791.791,0,1,1-.76.8A.771.771,0,0,1,29.583,244.088Zm0,10.447a.509.509,0,0,1,.506.517.51.51,0,1,1-1.019,0A.51.51,0,0,1,29.583,254.535Zm0,10.453a.243.243,0,0,1,.234.259.238.238,0,1,1-.475,0A.245.245,0,0,1,29.583,264.988Zm9.7-83.3a2.093,2.093,0,1,1-1.993,2.1A2.044,2.044,0,0,1,39.287,181.685Zm0,10.274a2.007,2.007,0,1,1-1.917,2A1.953,1.953,0,0,1,39.287,191.96Zm0,10.3a1.886,1.886,0,1,1-1.8,1.885A1.842,1.842,0,0,1,39.287,202.261Zm0,10.287a1.781,1.781,0,1,1-1.7,1.779A1.739,1.739,0,0,1,39.287,212.548Zm0,10.381a1.589,1.589,0,1,1-1.505,1.579A1.543,1.543,0,0,1,39.287,222.929Zm0,10.387a1.382,1.382,0,1,1-1.316,1.373A1.352,1.352,0,0,1,39.287,233.316Zm0,10.407a1.156,1.156,0,0,1,0,2.31,1.156,1.156,0,0,1,0-2.31Zm0,10.427a.911.911,0,1,1-.867.9A.888.888,0,0,1,39.287,254.15Zm0,10.48a.618.618,0,0,1,0,1.235.618.618,0,0,1,0-1.235Zm0,10.487a.313.313,0,0,1,0,.624.312.312,0,0,1,0-.624Zm9.7-93.77a2.435,2.435,0,1,1-2.315,2.436A2.386,2.386,0,0,1,48.991,181.347Zm0,10.241a2.376,2.376,0,1,1-2.259,2.376A2.319,2.319,0,0,1,48.991,191.588Zm0,10.321a2.236,2.236,0,1,1-2.132,2.237A2.2,2.2,0,0,1,48.991,201.909Zm0,10.3a2.123,2.123,0,1,1-2.018,2.117A2.071,2.071,0,0,1,48.991,212.209Zm0,10.361a1.947,1.947,0,1,1-1.854,1.938A1.9,1.9,0,0,1,48.991,222.57Zm0,10.381a1.751,1.751,0,1,1-1.67,1.739A1.712,1.712,0,0,1,48.991,232.951Zm0,10.434a1.495,1.495,0,1,1-1.43,1.5A1.46,1.46,0,0,1,48.991,243.384Zm0,10.441a1.208,1.208,0,0,1,1.183,1.227,1.187,1.187,0,1,1-1.183-1.227Zm0,10.454a.97.97,0,1,1-.917.968A.946.946,0,0,1,48.991,264.279Zm0,10.506a.63.63,0,0,1,.62.644.62.62,0,1,1-.62-.644Zm0,10.52a.3.3,0,0,1,.3.305.3.3,0,1,1-.3-.305Zm9.7-104.323a2.8,2.8,0,1,1-2.663,2.8A2.734,2.734,0,0,1,58.7,180.982Zm0,10.261a2.718,2.718,0,1,1-2.581,2.721A2.659,2.659,0,0,1,58.7,191.243Zm0,10.34a2.572,2.572,0,1,1-2.448,2.562A2.508,2.508,0,0,1,58.7,201.583Zm0,10.314a2.439,2.439,0,1,1-2.31,2.429A2.372,2.372,0,0,1,58.7,211.9Zm0,10.355a2.262,2.262,0,1,1-2.151,2.256A2.217,2.217,0,0,1,58.7,222.252Zm0,10.367a2.073,2.073,0,1,1-1.968,2.07A2.025,2.025,0,0,1,58.7,232.619Zm0,10.453a1.808,1.808,0,1,1-1.721,1.812A1.765,1.765,0,0,1,58.7,243.072Zm0,10.407a1.581,1.581,0,1,1-1.506,1.573A1.547,1.547,0,0,1,58.7,253.479Zm0,10.5a1.269,1.269,0,1,1-1.208,1.268A1.231,1.231,0,0,1,58.7,263.979Zm0,10.494a.957.957,0,1,1-.911.956A.931.931,0,0,1,58.7,274.473Zm0,10.513a.625.625,0,1,1-.588.624A.605.605,0,0,1,58.7,284.986Zm0,10.56a.241.241,0,0,1,.24.246.252.252,0,0,1-.24.259.263.263,0,0,1-.247-.259A.251.251,0,0,1,58.7,295.545Zm9.711-125.077a3.133,3.133,0,1,1-2.993,3.12A3.052,3.052,0,0,1,68.407,170.468Zm0,10.208a3.106,3.106,0,1,1-2.967,3.106A3.036,3.036,0,0,1,68.407,180.677Zm0,10.261a3.027,3.027,0,1,1-2.885,3.027A2.956,2.956,0,0,1,68.407,190.937Zm0,10.3a2.91,2.91,0,1,1-2.777,2.907A2.845,2.845,0,0,1,68.407,201.239Zm0,10.347a2.747,2.747,0,1,1-2.619,2.741A2.675,2.675,0,0,1,68.407,211.586Zm0,10.361a2.568,2.568,0,1,1-2.455,2.562A2.507,2.507,0,0,1,68.407,221.946Zm0,10.374a2.379,2.379,0,1,1-2.265,2.369A2.313,2.313,0,0,1,68.407,232.32Zm0,10.44a2.12,2.12,0,1,1-2.024,2.124A2.073,2.073,0,0,1,68.407,242.76Zm0,10.467a1.837,1.837,0,1,1-1.759,1.825A1.788,1.788,0,0,1,68.407,253.227Zm0,10.467a1.551,1.551,0,1,1-1.487,1.553A1.51,1.51,0,0,1,68.407,263.694Zm0,10.494a1.242,1.242,0,1,1-1.189,1.241A1.211,1.211,0,0,1,68.407,274.188Zm0,10.519a.907.907,0,1,1-.867.9A.878.878,0,0,1,68.407,284.707Zm0,10.554a.531.531,0,0,1,0,1.062.531.531,0,0,1,0-1.062Zm.126,10.712a.139.139,0,0,1-.126.146.144.144,0,0,1-.139-.146.138.138,0,0,1,.139-.139A.132.132,0,0,1,68.534,305.973Zm9.578-135.819a3.447,3.447,0,1,1-3.283,3.435A3.363,3.363,0,0,1,78.112,170.153Zm0,10.231a3.4,3.4,0,1,1-3.233,3.4A3.323,3.323,0,0,1,78.112,180.384Zm0,10.274a3.309,3.309,0,1,1-3.151,3.306A3.231,3.231,0,0,1,78.112,190.658Zm0,10.295a3.193,3.193,0,1,1-3.043,3.193A3.125,3.125,0,0,1,78.112,200.953Zm0,10.347a3.031,3.031,0,1,1-2.878,3.026A2.96,2.96,0,0,1,78.112,211.3Zm0,10.354a2.865,2.865,0,1,1-2.714,2.854A2.793,2.793,0,0,1,78.112,221.654Zm0,10.407a2.638,2.638,0,1,1-2.505,2.628A2.583,2.583,0,0,1,78.112,232.061Zm0,10.407a2.405,2.405,0,1,1-2.29,2.415A2.354,2.354,0,0,1,78.112,242.469Zm0,10.48a2.119,2.119,0,0,1,0,4.234,2.119,2.119,0,0,1,0-4.234Zm0,10.486a1.811,1.811,0,1,1-1.72,1.812A1.76,1.76,0,0,1,78.112,263.435Zm0,10.494a1.5,1.5,0,1,1-1.424,1.5A1.467,1.467,0,0,1,78.112,273.929Zm0,10.526a1.16,1.16,0,0,1,0,2.316,1.159,1.159,0,0,1,0-2.316Zm0,10.579a.765.765,0,1,1-.728.757A.749.749,0,0,1,78.112,295.034Zm0,10.58a.35.35,0,0,1,.348.358.353.353,0,0,1-.348.372.365.365,0,0,1,0-.73Zm9.7-135.717a3.7,3.7,0,1,1-3.53,3.69A3.618,3.618,0,0,1,87.817,169.9Zm0,10.221a3.668,3.668,0,1,1-3.492,3.664A3.582,3.582,0,0,1,87.817,180.119Zm0,10.288a3.565,3.565,0,1,1-3.391,3.558A3.482,3.482,0,0,1,87.817,190.407Zm0,10.288a3.456,3.456,0,1,1-3.284,3.452A3.38,3.38,0,0,1,87.817,200.694Zm0,10.354a3.283,3.283,0,1,1-3.125,3.279A3.2,3.2,0,0,1,87.817,211.048Zm0,10.387a3.08,3.08,0,1,1-2.929,3.073A3.011,3.011,0,0,1,87.817,221.435Zm0,10.374a2.887,2.887,0,1,1-2.746,2.88A2.811,2.811,0,0,1,87.817,231.809Zm0,10.447a2.625,2.625,0,1,1-2.5,2.628A2.557,2.557,0,0,1,87.817,242.256Zm0,10.46a2.345,2.345,0,1,1-2.233,2.336A2.288,2.288,0,0,1,87.817,252.716Zm0,10.5a2.033,2.033,0,1,1-1.937,2.031A1.981,1.981,0,0,1,87.817,263.216Zm0,10.46a1.754,1.754,0,1,1-1.671,1.752A1.711,1.711,0,0,1,87.817,273.677Zm0,10.553a1.382,1.382,0,1,1-1.316,1.38A1.358,1.358,0,0,1,87.817,284.23Zm0,10.579a.987.987,0,1,1-.943.983A.964.964,0,0,1,87.817,294.809Zm0,10.58a.591.591,0,1,1-.563.584A.582.582,0,0,1,87.817,305.389Zm.164,10.779a.164.164,0,0,1-.329,0,.165.165,0,1,1,.329,0Zm9.54-146.5a3.93,3.93,0,1,1-3.739,3.916A3.832,3.832,0,0,1,97.521,169.672Zm0,10.242a3.871,3.871,0,1,1-3.682,3.869A3.787,3.787,0,0,1,97.521,179.914Zm0,10.241a3.814,3.814,0,1,1-3.631,3.81A3.719,3.719,0,0,1,97.521,190.154Zm0,10.327a3.675,3.675,0,1,1-3.5,3.664A3.582,3.582,0,0,1,97.521,200.482Zm0,10.347a3.505,3.505,0,1,1-3.34,3.5A3.415,3.415,0,0,1,97.521,210.829Zm0,10.374a3.309,3.309,0,1,1-3.144,3.305A3.231,3.231,0,0,1,97.521,221.2Zm0,10.407a3.09,3.09,0,1,1-2.935,3.079A3.016,3.016,0,0,1,97.521,231.61Zm0,10.447a2.824,2.824,0,1,1-2.689,2.827A2.752,2.752,0,0,1,97.521,242.057Zm0,10.434a2.575,2.575,0,1,1-2.448,2.562A2.511,2.511,0,0,1,97.521,252.491Zm0,10.527a2.233,2.233,0,1,1-2.125,2.23A2.177,2.177,0,0,1,97.521,263.017Zm0,10.487a1.92,1.92,0,1,1-1.828,1.925A1.882,1.882,0,0,1,97.521,273.5Zm0,10.526a1.582,1.582,0,1,1-1.506,1.58A1.549,1.549,0,0,1,97.521,284.03Zm0,10.579a1.19,1.19,0,1,1-1.126,1.182A1.16,1.16,0,0,1,97.521,294.61Zm0,10.607a.757.757,0,1,1-.728.756A.744.744,0,0,1,97.521,305.216Zm0,10.606a.335.335,0,0,1,.329.345.332.332,0,0,1-.329.332.321.321,0,0,1-.316-.332A.325.325,0,0,1,97.521,315.822Zm9.7-136.141a4.1,4.1,0,1,1-3.9,4.1A4,4,0,0,1,107.225,179.681Zm0,10.274a4.017,4.017,0,1,1-3.814,4.009A3.92,3.92,0,0,1,107.225,189.955Zm0,10.314a3.874,3.874,0,1,1-3.682,3.876A3.793,3.793,0,0,1,107.225,200.269Zm0,10.354a3.708,3.708,0,1,1-3.523,3.7A3.631,3.631,0,0,1,107.225,210.623Zm0,10.387a3.506,3.506,0,1,1-3.327,3.5A3.412,3.412,0,0,1,107.225,221.01Zm0,10.414a3.283,3.283,0,1,1-3.119,3.265A3.2,3.2,0,0,1,107.225,231.424Zm0,10.433a3.024,3.024,0,1,1-2.878,3.026A2.953,2.953,0,0,1,107.225,241.858Zm0,10.46a2.744,2.744,0,1,1-2.606,2.734A2.679,2.679,0,0,1,107.225,252.318Zm0,10.526a2.406,2.406,0,1,1-2.284,2.4A2.348,2.348,0,0,1,107.225,262.844Zm0,10.487a2.1,2.1,0,1,1-1.986,2.1A2.054,2.054,0,0,1,107.225,273.331Zm0,10.526a1.758,1.758,0,1,1-1.664,1.752A1.711,1.711,0,0,1,107.225,283.858Zm0,10.58a1.356,1.356,0,1,1-1.284,1.354A1.33,1.33,0,0,1,107.225,294.438Zm0,10.579a.932.932,0,0,1,.918.956.915.915,0,1,1-.918-.956Zm0,10.606a.53.53,0,0,1,.519.544.516.516,0,1,1-1.031,0A.53.53,0,0,1,107.225,315.623Zm.063,10.719a.06.06,0,0,1-.063.06.062.062,0,0,1-.056-.06c0-.02.031-.06.056-.06A.069.069,0,0,1,107.289,326.342Zm9.654-157.1a4.352,4.352,0,1,1-4.15,4.341A4.248,4.248,0,0,1,116.943,169.247Zm0,10.268a4.269,4.269,0,1,1-4.068,4.268A4.171,4.171,0,0,1,116.943,179.515Zm0,10.261a4.19,4.19,0,1,1-3.986,4.189A4.087,4.087,0,0,1,116.943,189.776Zm0,10.335a4.04,4.04,0,1,1-3.853,4.035A3.937,3.937,0,0,1,116.943,200.11Zm0,10.354a3.87,3.87,0,1,1-3.694,3.862A3.775,3.775,0,0,1,116.943,210.464Zm0,10.38a3.674,3.674,0,1,1-3.5,3.664A3.584,3.584,0,0,1,116.943,220.844Zm0,10.434a3.419,3.419,0,1,1-3.264,3.411A3.332,3.332,0,0,1,116.943,231.278Zm0,10.434a3.169,3.169,0,1,1-3.023,3.172A3.1,3.1,0,0,1,116.943,241.712Zm0,10.474a2.88,2.88,0,1,1-2.758,2.867A2.809,2.809,0,0,1,116.943,252.186Zm0,10.486a2.571,2.571,0,1,1-2.46,2.575A2.514,2.514,0,0,1,116.943,262.672Zm0,10.533a2.229,2.229,0,1,1-2.132,2.224A2.174,2.174,0,0,1,116.943,273.2Zm0,10.54a1.871,1.871,0,1,1-1.783,1.865A1.814,1.814,0,0,1,116.943,283.745Zm0,10.553a1.5,1.5,0,1,1-1.43,1.494A1.467,1.467,0,0,1,116.943,294.3Zm0,10.607a1.072,1.072,0,1,1-1.031,1.068A1.048,1.048,0,0,1,116.943,304.9Zm0,10.606a.624.624,0,0,1,.608.657.635.635,0,0,1-.608.65.646.646,0,0,1-.626-.65A.635.635,0,0,1,116.943,315.51Zm0,10.64a.191.191,0,0,1,.177.192.187.187,0,0,1-.177.192.194.194,0,0,1-.2-.192A.2.2,0,0,1,116.943,326.15Zm9.7-157.009a4.465,4.465,0,1,1-4.251,4.447A4.345,4.345,0,0,1,126.641,169.141Zm0,10.221a4.419,4.419,0,1,1-4.2,4.42A4.317,4.317,0,0,1,126.641,179.362Zm0,10.288a4.326,4.326,0,1,1-4.118,4.314A4.218,4.218,0,0,1,126.641,189.65Zm0,10.314a4.19,4.19,0,1,1-3.985,4.181A4.087,4.087,0,0,1,126.641,199.964Zm0,10.353a4.017,4.017,0,1,1-3.821,4.009A3.915,3.915,0,0,1,126.641,210.318Zm0,10.38a3.814,3.814,0,1,1-3.631,3.81A3.733,3.733,0,0,1,126.641,220.7Zm0,10.474a3.535,3.535,0,1,1-3.359,3.517A3.447,3.447,0,0,1,126.641,231.172Zm0,10.433a3.276,3.276,0,1,1-3.118,3.279A3.207,3.207,0,0,1,126.641,241.605Zm0,10.454a3,3,0,1,1-2.853,2.993A2.94,2.94,0,0,1,126.641,252.059Zm0,10.507a2.688,2.688,0,1,1-2.556,2.681A2.622,2.622,0,0,1,126.641,262.566Zm0,10.513a2.353,2.353,0,1,1-2.226,2.35A2.3,2.3,0,0,1,126.641,273.079Zm0,10.553a1.98,1.98,0,1,1-1.885,1.978A1.933,1.933,0,0,1,126.641,283.632Zm0,10.553a1.608,1.608,0,1,1-1.537,1.607A1.572,1.572,0,0,1,126.641,294.185Zm0,10.606a1.19,1.19,0,1,1-1.125,1.181A1.158,1.158,0,0,1,126.641,304.791Zm0,10.633a.725.725,0,0,1,.7.743.7.7,0,1,1-.7-.743Zm0,10.64a.283.283,0,1,1-.265.279A.27.27,0,0,1,126.641,326.063Zm9.705-157.072a4.614,4.614,0,1,1-4.385,4.6A4.5,4.5,0,0,1,136.346,168.992Zm0,10.265a4.528,4.528,0,1,1-4.309,4.527A4.42,4.42,0,0,1,136.346,179.256Zm0,10.3a4.406,4.406,0,1,1-4.194,4.408A4.3,4.3,0,0,1,136.346,189.557Zm0,10.321a4.269,4.269,0,1,1-4.062,4.268A4.172,4.172,0,0,1,136.346,199.878Zm0,10.387a4.074,4.074,0,1,1-3.872,4.061A3.975,3.975,0,0,1,136.346,210.265Zm0,10.374a3.877,3.877,0,1,1-3.688,3.869A3.782,3.782,0,0,1,136.346,220.639Zm0,10.413a3.649,3.649,0,1,1-3.467,3.637A3.561,3.561,0,0,1,136.346,231.052Zm0,10.46a3.37,3.37,0,1,1-3.2,3.371A3.3,3.3,0,0,1,136.346,241.513Zm0,10.474a3.083,3.083,0,1,1-2.929,3.066A3,3,0,0,1,136.346,251.986Zm0,10.486a2.771,2.771,0,1,1-2.632,2.774A2.707,2.707,0,0,1,136.346,262.473Zm0,10.553a2.406,2.406,0,1,1-2.284,2.4A2.348,2.348,0,0,1,136.346,273.026Zm0,10.553a2.034,2.034,0,1,1-1.936,2.031A1.982,1.982,0,0,1,136.346,283.579Zm0,10.553a1.661,1.661,0,1,1-1.588,1.66A1.625,1.625,0,0,1,136.346,294.132Zm0,10.607a1.211,1.211,0,0,1,1.189,1.234,1.187,1.187,0,1,1-1.189-1.234Zm0,10.579a.851.851,0,1,1-.8.85A.824.824,0,0,1,136.346,315.318Zm0,10.659a.369.369,0,0,1,0,.737.369.369,0,0,1,0-.737Zm9.7-157.068a4.695,4.695,0,1,1-4.466,4.679A4.574,4.574,0,0,1,146.051,168.909Zm0,10.261a4.615,4.615,0,1,1-4.384,4.613A4.5,4.5,0,0,1,146.051,179.17Zm0,10.334a4.462,4.462,0,1,1-4.246,4.46A4.361,4.361,0,0,1,146.051,189.5Zm0,10.314a4.326,4.326,0,1,1-4.113,4.327A4.225,4.225,0,0,1,146.051,199.818Zm0,10.354a4.16,4.16,0,1,1-3.954,4.155A4.064,4.064,0,0,1,146.051,210.172Zm0,10.407a3.934,3.934,0,1,1-3.739,3.929A3.845,3.845,0,0,1,146.051,220.579Zm0,10.42a3.7,3.7,0,1,1-3.518,3.69A3.609,3.609,0,0,1,146.051,231Zm0,10.46a3.422,3.422,0,1,1-3.251,3.425A3.338,3.338,0,0,1,146.051,241.459Zm0,10.474a3.136,3.136,0,1,1-2.98,3.119A3.061,3.061,0,0,1,146.051,251.933Zm0,10.513a2.8,2.8,0,1,1-2.657,2.8A2.729,2.729,0,0,1,146.051,262.446Zm0,10.52a2.462,2.462,0,1,1-2.334,2.462A2.406,2.406,0,0,1,146.051,272.966Zm0,10.56a2.09,2.09,0,1,1-1.986,2.084A2.038,2.038,0,0,1,146.051,283.526Zm0,10.573a1.7,1.7,0,1,1-1.607,1.692A1.658,1.658,0,0,1,146.051,294.1Zm0,10.586a1.3,1.3,0,1,1-1.234,1.287A1.258,1.258,0,0,1,146.051,304.685Zm0,10.606a.87.87,0,0,1,0,1.739.871.871,0,0,1,0-1.739Zm0,10.659a.392.392,0,1,1-.374.391A.386.386,0,0,1,146.051,325.951Zm9.71-157.042a4.695,4.695,0,1,1-4.466,4.679A4.579,4.579,0,0,1,155.761,168.909Zm0,10.261a4.615,4.615,0,1,1-4.39,4.613A4.5,4.5,0,0,1,155.761,179.17Zm0,10.294a4.5,4.5,0,1,1-4.276,4.5A4.4,4.4,0,0,1,155.761,189.464Zm0,10.341a4.352,4.352,0,1,1-4.143,4.341A4.246,4.246,0,0,1,155.761,199.8Zm0,10.347a4.183,4.183,0,1,1-3.985,4.174A4.08,4.08,0,0,1,155.761,210.152Zm0,10.427a3.934,3.934,0,1,1-3.738,3.929A3.844,3.844,0,0,1,155.761,220.579Zm0,10.42a3.7,3.7,0,1,1-3.523,3.69A3.614,3.614,0,0,1,155.761,231Zm0,10.433a3.445,3.445,0,1,1-3.283,3.451A3.366,3.366,0,0,1,155.761,241.433Zm0,10.5a3.136,3.136,0,1,1-2.986,3.119A3.066,3.066,0,0,1,155.761,251.933Zm0,10.486a2.824,2.824,0,1,1-2.695,2.827A2.771,2.771,0,0,1,155.761,262.42Zm0,10.526a2.485,2.485,0,1,1-2.366,2.483A2.424,2.424,0,0,1,155.761,272.946Zm0,10.54a2.123,2.123,0,1,1-2.018,2.124A2.078,2.078,0,0,1,155.761,283.486Zm0,10.554a1.758,1.758,0,1,1-1.664,1.752A1.715,1.715,0,0,1,155.761,294.039Zm0,10.646a1.3,1.3,0,1,1-1.24,1.287A1.262,1.262,0,0,1,155.761,304.685Zm0,10.606a.87.87,0,1,1-.835.876A.852.852,0,0,1,155.761,315.291Zm0,10.659a.392.392,0,0,1,0,.783.392.392,0,0,1,0-.783Zm9.711-157.016a4.664,4.664,0,1,1-4.448,4.653A4.549,4.549,0,0,1,165.472,168.935Zm0,10.268a4.578,4.578,0,1,1-4.359,4.579A4.471,4.471,0,0,1,165.472,179.2Zm0,10.3a4.461,4.461,0,1,1-4.258,4.46A4.355,4.355,0,0,1,165.472,189.5Zm0,10.314a4.326,4.326,0,1,1-4.125,4.327A4.229,4.229,0,0,1,165.472,199.818Zm0,10.387a4.13,4.13,0,1,1-3.936,4.121A4.037,4.037,0,0,1,165.472,210.205Zm0,10.413a3.9,3.9,0,1,1-3.721,3.89A3.8,3.8,0,0,1,165.472,220.619Zm0,10.381a3.7,3.7,0,1,1-3.531,3.69A3.6,3.6,0,0,1,165.472,231Zm0,10.46a3.422,3.422,0,1,1-3.264,3.425A3.345,3.345,0,0,1,165.472,241.459Zm0,10.474a3.136,3.136,0,1,1-2.993,3.119A3.064,3.064,0,0,1,165.472,251.933Zm0,10.513a2.8,2.8,0,1,1-2.67,2.8A2.737,2.737,0,0,1,165.472,262.446Zm0,10.52a2.462,2.462,0,1,1-2.341,2.462A2.4,2.4,0,0,1,165.472,272.966Zm0,10.56a2.089,2.089,0,1,1-2,2.084A2.036,2.036,0,0,1,165.472,283.526Zm0,10.573a1.7,1.7,0,1,1-1.619,1.692A1.662,1.662,0,0,1,165.472,294.1Zm0,10.586a1.3,1.3,0,1,1-1.24,1.287A1.257,1.257,0,0,1,165.472,304.685Zm0,10.606a.87.87,0,1,1-.841.876A.85.85,0,0,1,165.472,315.291Zm0,10.659a.392.392,0,0,1,0,.783.392.392,0,0,1,0-.783Zm9.7-156.933a4.587,4.587,0,1,1-4.366,4.57A4.472,4.472,0,0,1,175.177,169.018Zm0,10.238a4.528,4.528,0,1,1-4.308,4.527A4.424,4.424,0,0,1,175.177,179.256Zm0,10.3a4.4,4.4,0,1,1-4.207,4.408A4.3,4.3,0,0,1,175.177,189.557Zm0,10.321a4.269,4.269,0,1,1-4.068,4.268A4.175,4.175,0,0,1,175.177,199.878Zm0,10.387a4.073,4.073,0,1,1-3.878,4.061A3.974,3.974,0,0,1,175.177,210.265Zm0,10.374a3.877,3.877,0,1,1-3.688,3.869A3.777,3.777,0,0,1,175.177,220.639Zm0,10.44a3.621,3.621,0,1,1-3.448,3.61A3.529,3.529,0,0,1,175.177,231.079Zm0,10.434a3.369,3.369,0,1,1-3.2,3.371A3.285,3.285,0,0,1,175.177,241.513Zm0,10.474a3.083,3.083,0,1,1-2.935,3.066A3,3,0,0,1,175.177,251.986Zm0,10.486a2.771,2.771,0,1,1-2.638,2.774A2.7,2.7,0,0,1,175.177,262.473Zm0,10.553a2.405,2.405,0,1,1-2.29,2.4A2.343,2.343,0,0,1,175.177,273.026Zm0,10.553a2.034,2.034,0,1,1-1.936,2.031A1.981,1.981,0,0,1,175.177,283.579Zm0,10.553a1.661,1.661,0,1,1-1.594,1.66A1.622,1.622,0,0,1,175.177,294.132Zm0,10.607a1.209,1.209,0,0,1,1.183,1.234,1.185,1.185,0,1,1-2.366,0A1.205,1.205,0,0,1,175.177,304.738Zm0,10.632a.791.791,0,1,1-.753.8A.78.78,0,0,1,175.177,315.371Zm0,10.633a.331.331,0,0,1,.316.339.32.32,0,1,1-.639,0A.333.333,0,0,1,175.177,326Zm9.7-156.863a4.465,4.465,0,1,1-4.258,4.447A4.349,4.349,0,0,1,184.882,169.141Zm0,10.221a4.419,4.419,0,1,1-4.2,4.42A4.311,4.311,0,0,1,184.882,179.362Zm0,10.307a4.3,4.3,0,1,1-4.094,4.295A4.2,4.2,0,0,1,184.882,189.67Zm0,10.295a4.19,4.19,0,1,1-3.979,4.181A4.087,4.087,0,0,1,184.882,199.964Zm0,10.38a3.987,3.987,0,1,1-3.8,3.982A3.9,3.9,0,0,1,184.882,210.345Zm0,10.381a3.791,3.791,0,1,1-3.606,3.783A3.7,3.7,0,0,1,184.882,220.726Zm0,10.447a3.535,3.535,0,1,1-3.366,3.517A3.446,3.446,0,0,1,184.882,231.172Zm0,10.433a3.276,3.276,0,1,1-3.125,3.279A3.2,3.2,0,0,1,184.882,241.605Zm0,10.494a2.97,2.97,0,1,1-2.834,2.953A2.891,2.891,0,0,1,184.882,252.1Zm0,10.467a2.687,2.687,0,1,1-2.563,2.681A2.626,2.626,0,0,1,184.882,262.566Zm0,10.553a2.312,2.312,0,1,1-2.214,2.31A2.261,2.261,0,0,1,184.882,273.118Zm0,10.514A1.98,1.98,0,1,1,183,285.61,1.93,1.93,0,0,1,184.882,283.632Zm0,10.593a1.582,1.582,0,1,1-1.506,1.567A1.541,1.541,0,0,1,184.882,294.225Zm0,10.566a1.189,1.189,0,1,1-1.133,1.181A1.153,1.153,0,0,1,184.882,304.791Zm0,10.633a.72.72,0,0,1,.7.743.7.7,0,1,1-1.4,0A.724.724,0,0,1,184.882,315.424Zm0,10.64a.283.283,0,1,1-.266.279A.27.27,0,0,1,184.882,326.063Zm9.7-156.793a4.331,4.331,0,1,1-4.118,4.317A4.219,4.219,0,0,1,194.586,169.271Zm0,10.244a4.269,4.269,0,1,1-4.067,4.268A4.172,4.172,0,0,1,194.586,179.515Zm0,10.261a4.19,4.19,0,1,1-3.979,4.189A4.093,4.093,0,0,1,194.586,189.776Zm0,10.361a4.013,4.013,0,1,1-3.821,4.009A3.915,3.915,0,0,1,194.586,200.137Zm0,10.347a3.844,3.844,0,1,1-3.657,3.843A3.753,3.753,0,0,1,194.586,210.484Zm0,10.387a3.645,3.645,0,1,1-3.473,3.637A3.558,3.558,0,0,1,194.586,220.871Zm0,10.407a3.419,3.419,0,1,1-3.258,3.411A3.339,3.339,0,0,1,194.586,231.278Zm0,10.46a3.136,3.136,0,1,1-2.986,3.145A3.072,3.072,0,0,1,194.586,241.739Zm0,10.447a2.88,2.88,0,1,1-2.745,2.867A2.809,2.809,0,0,1,194.586,252.186Zm0,10.486a2.572,2.572,0,1,1-2.448,2.575A2.51,2.51,0,0,1,194.586,262.672Zm0,10.533a2.229,2.229,0,1,1-2.132,2.224A2.175,2.175,0,0,1,194.586,273.2Zm0,10.54a1.871,1.871,0,1,1-1.771,1.865A1.82,1.82,0,0,1,194.586,283.745Zm0,10.586a1.425,1.425,0,0,1,1.4,1.461,1.4,1.4,0,1,1-1.4-1.461Zm0,10.573a1.073,1.073,0,1,1-1.025,1.068A1.049,1.049,0,0,1,194.586,304.9Zm0,10.639a.618.618,0,0,1,0,1.235.618.618,0,0,1,0-1.235Zm0,10.607a.193.193,0,0,1,.19.192.19.19,0,1,1-.379,0A.193.193,0,0,1,194.586,326.15Zm9.7-156.683a4.133,4.133,0,1,1-3.928,4.121A4.029,4.029,0,0,1,204.29,169.467Zm0,10.248a4.07,4.07,0,1,1-3.872,4.069A3.978,3.978,0,0,1,204.29,179.714Zm0,10.268a3.987,3.987,0,1,1-3.789,3.982A3.887,3.887,0,0,1,204.29,189.982Zm0,10.327a3.841,3.841,0,1,1-3.663,3.837A3.749,3.749,0,0,1,204.29,200.309Zm0,10.355a3.675,3.675,0,1,1-3.5,3.663A3.578,3.578,0,0,1,204.29,210.663Zm0,10.367a3.482,3.482,0,1,1-3.309,3.478A3.4,3.4,0,0,1,204.29,221.031Zm0,10.42a3.249,3.249,0,1,1-3.093,3.238A3.171,3.171,0,0,1,204.29,231.451Zm0,10.44a3,3,0,1,1-2.847,2.993A2.924,2.924,0,0,1,204.29,241.891Zm0,10.454a2.718,2.718,0,1,1-2.581,2.708A2.651,2.651,0,0,1,204.29,252.345Zm0,10.5a2.406,2.406,0,1,1-2.283,2.4A2.348,2.348,0,0,1,204.29,262.844Zm0,10.526a2.06,2.06,0,1,1-1.961,2.058A2.007,2.007,0,0,1,204.29,273.371Zm0,10.554a1.688,1.688,0,1,1-1.613,1.686A1.656,1.656,0,0,1,204.29,283.924Zm0,10.553a1.29,1.29,0,0,1,1.271,1.314,1.27,1.27,0,1,1-2.536,0A1.29,1.29,0,0,1,204.29,294.477Zm0,10.566a.937.937,0,1,1-.886.929A.912.912,0,0,1,204.29,305.043Zm0,10.613a.509.509,0,1,1-.481.511A.5.5,0,0,1,204.29,315.656Zm.056,10.686a.054.054,0,1,1-.107,0c0-.02.025-.06.051-.06S204.347,326.322,204.347,326.342ZM214,169.7a3.9,3.9,0,1,1-3.72,3.89A3.817,3.817,0,0,1,214,169.7Zm0,10.215a3.87,3.87,0,1,1-3.694,3.869A3.786,3.786,0,0,1,214,179.914Zm0,10.254a3.794,3.794,0,1,1-3.606,3.8A3.7,3.7,0,0,1,214,190.168Zm0,10.34a3.641,3.641,0,1,1-3.474,3.637A3.552,3.552,0,0,1,214,200.508Zm0,10.341a3.482,3.482,0,1,1-3.309,3.478A3.4,3.4,0,0,1,214,210.849Zm0,10.387a3.279,3.279,0,1,1-3.126,3.272A3.206,3.206,0,0,1,214,221.236Zm0,10.374a3.09,3.09,0,1,1-2.936,3.079A3.021,3.021,0,0,1,214,231.61Zm0,10.473a2.8,2.8,0,1,1-2.664,2.8A2.743,2.743,0,0,1,214,242.083Zm0,10.434a2.545,2.545,0,1,1-2.424,2.535A2.488,2.488,0,0,1,214,252.517Zm0,10.5a2.233,2.233,0,1,1-2.126,2.23A2.17,2.17,0,0,1,214,263.017Zm0,10.513a1.9,1.9,0,1,1-1.809,1.9A1.854,1.854,0,0,1,214,273.53Zm0,10.526a1.558,1.558,0,1,1-1.488,1.553A1.516,1.516,0,0,1,214,284.057Zm0,10.58a1.156,1.156,0,1,1-1.107,1.155A1.129,1.129,0,0,1,214,294.637Zm0,10.579a.757.757,0,0,1,0,1.513.757.757,0,0,1,0-1.513Zm0,10.606a.33.33,0,0,1,.323.345.326.326,0,0,1-.323.332.331.331,0,0,1-.329-.332A.335.335,0,0,1,214,315.822Zm9.7-135.656a3.618,3.618,0,1,1-3.448,3.617A3.531,3.531,0,0,1,223.706,180.165Zm0,10.267a3.535,3.535,0,1,1-3.365,3.532A3.45,3.45,0,0,1,223.706,190.433Zm0,10.3a3.422,3.422,0,1,1-3.258,3.412A3.334,3.334,0,0,1,223.706,200.734Zm0,10.341a3.257,3.257,0,1,1-3.094,3.252A3.184,3.184,0,0,1,223.706,211.075Zm0,10.361a3.08,3.08,0,1,1-2.929,3.073A3.011,3.011,0,0,1,223.706,221.435Zm0,10.407a2.854,2.854,0,1,1-2.714,2.847A2.784,2.784,0,0,1,223.706,231.842Zm0,10.44a2.605,2.605,0,1,1-2.473,2.6A2.543,2.543,0,0,1,223.706,242.282Zm0,10.467a2.315,2.315,0,1,1-2.208,2.3A2.258,2.258,0,0,1,223.706,252.749Zm0,10.467a2.033,2.033,0,1,1-1.936,2.031A1.986,1.986,0,0,1,223.706,263.216Zm0,10.513a1.7,1.7,0,1,1-1.619,1.7A1.668,1.668,0,0,1,223.706,273.729Zm0,10.526a1.359,1.359,0,1,1-1.3,1.354A1.322,1.322,0,0,1,223.706,284.256Zm0,10.553a.987.987,0,1,1-.942.983A.959.959,0,0,1,223.706,294.809Zm0,10.607a.565.565,0,1,1-.538.557A.55.55,0,0,1,223.706,305.415Zm.165,10.752a.17.17,0,0,1-.165.16.164.164,0,0,1-.158-.16.159.159,0,0,1,.158-.173A.164.164,0,0,1,223.87,316.167Zm9.541-145.99a3.422,3.422,0,1,1-3.252,3.411A3.342,3.342,0,0,1,233.411,170.177Zm0,10.248a3.362,3.362,0,1,1-3.2,3.358A3.278,3.278,0,0,1,233.411,180.425Zm0,10.26a3.283,3.283,0,1,1-3.12,3.279A3.208,3.208,0,0,1,233.411,190.685Zm0,10.341a3.129,3.129,0,1,1-2.986,3.12A3.052,3.052,0,0,1,233.411,201.026Zm0,10.314a3,3,0,1,1-2.854,2.986A2.922,2.922,0,0,1,233.411,211.34Zm0,10.367a2.8,2.8,0,1,1-2.664,2.8A2.737,2.737,0,0,1,233.411,221.707Zm0,10.394a2.6,2.6,0,1,1-2.474,2.588A2.532,2.532,0,0,1,233.411,232.1Zm0,10.407a2.372,2.372,0,1,1-2.259,2.376A2.319,2.319,0,0,1,233.411,242.508Zm0,10.46a2.093,2.093,0,1,1-1.987,2.084A2.046,2.046,0,0,1,233.411,252.968Zm0,10.5a1.781,1.781,0,1,1-1.7,1.779A1.744,1.744,0,0,1,233.411,263.468Zm0,10.494a1.465,1.465,0,1,1-1.4,1.466A1.434,1.434,0,0,1,233.411,273.962Zm0,10.519a1.129,1.129,0,0,1,0,2.256,1.13,1.13,0,0,1,0-2.256Zm0,10.58a.73.73,0,1,1-.7.73A.717.717,0,0,1,233.411,295.062Zm0,10.579a.327.327,0,0,1,.323.332.335.335,0,0,1-.323.345.33.33,0,0,1-.317-.345A.322.322,0,0,1,233.411,305.641ZM243.122,180.7a3.087,3.087,0,1,1-2.936,3.086A3.008,3.008,0,0,1,243.122,180.7Zm0,10.3a2.97,2.97,0,1,1-2.828,2.967A2.89,2.89,0,0,1,243.122,191Zm0,10.274a2.88,2.88,0,1,1-2.746,2.874A2.807,2.807,0,0,1,243.122,201.271Zm0,10.335a2.718,2.718,0,1,1-2.581,2.721A2.651,2.651,0,0,1,243.122,211.606Zm0,10.361a2.545,2.545,0,1,1-2.423,2.542A2.48,2.48,0,0,1,243.122,221.966Zm0,10.407a2.322,2.322,0,1,1-2.214,2.316A2.265,2.265,0,0,1,243.122,232.373Zm0,10.42a2.09,2.09,0,1,1-2,2.091A2.043,2.043,0,0,1,243.122,242.793Zm0,10.467a1.807,1.807,0,1,1-1.721,1.792A1.763,1.763,0,0,1,243.122,253.261Zm0,10.46a1.528,1.528,0,1,1-1.456,1.527A1.5,1.5,0,0,1,243.122,263.72Zm0,10.5a1.209,1.209,0,0,1,0,2.416,1.209,1.209,0,0,1,0-2.416Zm0,10.513a.877.877,0,1,1-.835.876A.856.856,0,0,1,243.122,284.734Zm0,10.554a.493.493,0,0,1,.481.5.5.5,0,0,1-.481.517.512.512,0,0,1-.495-.517A.5.5,0,0,1,243.122,295.287Zm.082,10.685a.083.083,0,1,1-.165,0,.082.082,0,0,1,.165,0ZM252.82,170.8a2.8,2.8,0,1,1-2.664,2.787A2.735,2.735,0,0,1,252.82,170.8Zm0,10.221a2.764,2.764,0,1,1-2.638,2.761A2.7,2.7,0,0,1,252.82,181.022Zm0,10.261a2.685,2.685,0,1,1-2.55,2.682A2.628,2.628,0,0,1,252.82,191.283Zm0,10.3a2.572,2.572,0,1,1-2.449,2.562A2.5,2.5,0,0,1,252.82,201.583Zm0,10.355a2.4,2.4,0,1,1-2.285,2.389A2.345,2.345,0,0,1,252.82,211.938Zm0,10.353a2.226,2.226,0,1,1-2.12,2.217A2.166,2.166,0,0,1,252.82,222.291Zm0,10.367a2.037,2.037,0,1,1-1.936,2.031A1.977,1.977,0,0,1,252.82,232.659Zm0,10.44a1.784,1.784,0,1,1-1.7,1.785A1.75,1.75,0,0,1,252.82,243.1Zm0,10.427a1.528,1.528,0,1,1-1.456,1.526A1.492,1.492,0,0,1,252.82,253.526Zm0,10.473a1.247,1.247,0,1,1-1.177,1.248A1.209,1.209,0,0,1,252.82,264Zm0,10.5a.934.934,0,1,1-.88.929A.9.9,0,0,1,252.82,274.5Zm0,10.513a.6.6,0,1,1-.563.6A.582.582,0,0,1,252.82,285.012Zm0,10.554a.224.224,0,0,1,.221.226.23.23,0,0,1-.221.232.224.224,0,0,1-.209-.232A.218.218,0,0,1,252.82,295.566Zm9.711-124.433a2.466,2.466,0,1,1-2.341,2.455A2.411,2.411,0,0,1,262.531,171.133Zm0,10.248a2.4,2.4,0,1,1-2.29,2.4A2.348,2.348,0,0,1,262.531,181.38Zm0,10.267a2.316,2.316,0,1,1-2.208,2.317A2.266,2.266,0,0,1,262.531,191.647Zm0,10.261a2.236,2.236,0,1,1-2.125,2.237A2.191,2.191,0,0,1,262.531,201.909Zm0,10.354a2.063,2.063,0,1,1-1.968,2.064A2.024,2.024,0,0,1,262.531,212.263Zm0,10.361a1.894,1.894,0,1,1-1.8,1.884A1.85,1.85,0,0,1,262.531,222.624Zm0,10.38a1.694,1.694,0,1,1-1.613,1.685A1.647,1.647,0,0,1,262.531,233Zm0,10.407a1.472,1.472,0,1,1-1.4,1.474A1.436,1.436,0,0,1,262.531,243.41Zm0,10.434a1.216,1.216,0,1,1-1.157,1.208A1.185,1.185,0,0,1,262.531,253.845Zm0,10.48a.9.9,0,0,1,.885.922.889.889,0,1,1-.885-.922Zm0,10.48a.625.625,0,0,1,0,1.248.625.625,0,0,1,0-1.248Zm0,10.52a.286.286,0,0,1,.272.285.281.281,0,0,1-.272.285.271.271,0,0,1-.265-.285A.276.276,0,0,1,262.531,285.324ZM272.241,171.5a2.1,2.1,0,1,1-1.993,2.091A2.05,2.05,0,0,1,272.241,171.5Zm0,10.255a2.033,2.033,0,1,1-1.942,2.031A1.984,1.984,0,0,1,272.241,181.752Zm0,10.241a1.977,1.977,0,1,1-1.885,1.972A1.927,1.927,0,0,1,272.241,191.993Zm0,10.295a1.813,1.813,0,0,1,1.771,1.858,1.78,1.78,0,1,1-3.555,0A1.815,1.815,0,0,1,272.241,202.287Zm0,10.347a1.694,1.694,0,1,1-1.62,1.692A1.657,1.657,0,0,1,272.241,212.634Zm0,10.328a1.551,1.551,0,1,1-1.486,1.546A1.518,1.518,0,0,1,272.241,222.962Zm0,10.373a1.362,1.362,0,1,1-1.3,1.354A1.329,1.329,0,0,1,272.241,233.335Zm0,10.408a1.136,1.136,0,1,1-1.082,1.141A1.1,1.1,0,0,1,272.241,243.743Zm0,10.447a.87.87,0,0,1,0,1.738.87.87,0,0,1,0-1.738Zm0,10.46a.58.58,0,0,1,.562.6.563.563,0,1,1-1.125,0A.576.576,0,0,1,272.241,264.649Zm0,10.494a.275.275,0,0,1,.266.285.269.269,0,1,1-.538,0A.277.277,0,0,1,272.241,275.143ZM281.947,171.9a1.694,1.694,0,1,1-1.62,1.685A1.659,1.659,0,0,1,281.947,171.9Zm0,10.208a1.667,1.667,0,1,1-1.594,1.673A1.635,1.635,0,0,1,281.947,182.11Zm0,10.274a1.582,1.582,0,1,1-1.506,1.58A1.548,1.548,0,0,1,281.947,192.384Zm0,10.288a1.472,1.472,0,1,1-1.4,1.474A1.44,1.44,0,0,1,281.947,202.672Zm0,10.334a1.326,1.326,0,1,1-1.266,1.321A1.286,1.286,0,0,1,281.947,213.006Zm0,10.347a1.156,1.156,0,1,1-1.107,1.155A1.13,1.13,0,0,1,281.947,223.354Zm0,10.354a.954.954,0,0,1,.936.982.941.941,0,1,1-.936-.982Zm0,10.434a.738.738,0,1,1-.7.743A.723.723,0,0,1,281.947,244.141Zm0,10.414a.491.491,0,0,1,.48.5.484.484,0,1,1-.48-.5Zm0,10.453a.236.236,0,0,1,.215.239.223.223,0,0,1-.215.226.219.219,0,0,1-.216-.226A.231.231,0,0,1,281.947,265.008Zm9.7-82.467a1.211,1.211,0,0,1,1.183,1.241,1.187,1.187,0,1,1-2.372,0A1.211,1.211,0,0,1,291.65,182.542Zm0,10.228a1.2,1.2,0,1,1-1.132,1.195A1.162,1.162,0,0,1,291.65,192.77Zm0,10.3a1.05,1.05,0,0,1,1.019,1.075,1.023,1.023,0,1,1-2.043,0A1.055,1.055,0,0,1,291.65,203.07Zm0,10.327a.931.931,0,1,1-.885.929A.907.907,0,0,1,291.65,213.4Zm0,10.355a.757.757,0,1,1-.727.756A.735.735,0,0,1,291.65,223.752Zm0,10.38a.565.565,0,0,1,0,1.128.565.565,0,0,1,0-1.128Zm0,10.407a.334.334,0,0,1,.323.345.327.327,0,0,1-.323.332.322.322,0,0,1-.322-.332A.329.329,0,0,1,291.65,244.539Zm.083,10.513a.088.088,0,0,1-.083.093c-.05,0-.075-.04-.075-.093s.025-.066.075-.066A.074.074,0,0,1,291.733,255.052Zm9.622-72.066a.8.8,0,1,1-.753.8A.781.781,0,0,1,301.355,182.986Zm0,10.235a.738.738,0,1,1-.7.743A.72.72,0,0,1,301.355,193.221Zm0,10.3a.621.621,0,0,1,0,1.241.621.621,0,0,1,0-1.241Zm0,10.3a.49.49,0,0,1,.481.5.485.485,0,1,1-.968,0A.494.494,0,0,1,301.355,213.822Zm0,10.355a.336.336,0,0,1,.329.332.326.326,0,1,1-.652,0A.335.335,0,0,1,301.355,224.177Zm.164,10.513a.161.161,0,1,1-.322,0,.161.161,0,0,1,.322,0Zm9.547-61.486a.392.392,0,1,1-.379.385A.382.382,0,0,1,311.067,173.2Zm0,10.234a.335.335,0,0,1,.322.345.326.326,0,1,1-.322-.345Zm0,10.235a.292.292,0,0,1,.271.292.275.275,0,0,1-.271.279.267.267,0,0,1-.272-.279A.283.283,0,0,1,311.067,193.672Zm.183,10.474a.2.2,0,0,1-.183.2.2.2,0,0,1-.19-.2.192.192,0,0,1,.19-.2A.194.194,0,0,1,311.249,204.146Zm-.132,10.181a.051.051,0,0,1-.051.053c-.038,0-.057-.013-.057-.053a.053.053,0,0,1,.057-.053A.062.062,0,0,1,311.117,214.327Z" transform="translate(1252.28 295.468)" fill="#fff" fill-rule="evenodd" opacity="0.19"/>
      <g id="Group_124913" data-name="Group 124913" transform="translate(1265.898 661.895) rotate(-90)">
        <path id="Path_174437" data-name="Path 174437" d="M8.731,0,0,14.415H17.462Z" transform="translate(0 121.14)" fill="#fff"/>
        <path id="Path_174438" data-name="Path 174438" d="M8.731,0,0,14.415H17.462Z" transform="translate(0 96.998)" fill="#e2c140"/>
        <path id="Path_174439" data-name="Path 174439" d="M8.731,0,0,14.415H17.462Z" transform="translate(0 72.856)" fill="#ff2c9c"/>
        <path id="Path_174440" data-name="Path 174440" d="M5.066,0,0,8.363H10.131Z" transform="translate(3.666)" fill="#fdfdfd"/>
      </g>
      <path id="Dots" d="M20.326,102.1a1.986,1.986,0,1,1,1.982,2.1A2.045,2.045,0,0,1,20.326,102.1ZM0,102.1A2.045,2.045,0,0,1,1.983,100a2.106,2.106,0,0,1,0,4.2A2.044,2.044,0,0,1,0,102.1ZM20.326,77.086a1.986,1.986,0,1,1,1.982,2.1A2.044,2.044,0,0,1,20.326,77.086ZM0,77.086a2.044,2.044,0,0,1,1.983-2.1,2.106,2.106,0,0,1,0,4.2A2.045,2.045,0,0,1,0,77.086ZM20.326,52.072a1.986,1.986,0,1,1,1.982,2.1A2.045,2.045,0,0,1,20.326,52.072ZM0,52.072a2.045,2.045,0,0,1,1.983-2.1,2.106,2.106,0,0,1,0,4.2A2.045,2.045,0,0,1,0,52.072ZM20.326,27.059a1.986,1.986,0,1,1,1.982,2.1A2.045,2.045,0,0,1,20.326,27.059ZM0,27.059a2.045,2.045,0,0,1,1.983-2.1,2.106,2.106,0,0,1,0,4.2A2.044,2.044,0,0,1,0,27.059ZM20.326,2.1a1.986,1.986,0,1,1,3.965,0,1.986,1.986,0,1,1-3.965,0ZM0,2.1A2.045,2.045,0,0,1,1.983,0,2.045,2.045,0,0,1,3.965,2.1,2.045,2.045,0,0,1,1.983,4.2,2.045,2.045,0,0,1,0,2.1Z" transform="translate(1103.021 629.899)" fill="#fff"/>
      <path id="Dots-2" data-name="Dots" d="M20.326,102.1a1.986,1.986,0,1,1,1.982,2.1A2.045,2.045,0,0,1,20.326,102.1ZM0,102.1A2.045,2.045,0,0,1,1.983,100a2.106,2.106,0,0,1,0,4.2A2.044,2.044,0,0,1,0,102.1ZM20.326,77.086a1.986,1.986,0,1,1,1.982,2.1A2.044,2.044,0,0,1,20.326,77.086ZM0,77.086a2.044,2.044,0,0,1,1.983-2.1,2.106,2.106,0,0,1,0,4.2A2.045,2.045,0,0,1,0,77.086ZM20.326,52.072a1.986,1.986,0,1,1,1.982,2.1A2.045,2.045,0,0,1,20.326,52.072ZM0,52.072a2.045,2.045,0,0,1,1.983-2.1,2.106,2.106,0,0,1,0,4.2A2.045,2.045,0,0,1,0,52.072ZM20.326,27.059a1.986,1.986,0,1,1,1.982,2.1A2.045,2.045,0,0,1,20.326,27.059ZM0,27.059a2.045,2.045,0,0,1,1.983-2.1,2.106,2.106,0,0,1,0,4.2A2.044,2.044,0,0,1,0,27.059ZM20.326,2.1a1.986,1.986,0,1,1,3.965,0,1.986,1.986,0,1,1-3.965,0ZM0,2.1A2.045,2.045,0,0,1,1.983,0,2.045,2.045,0,0,1,3.965,2.1,2.045,2.045,0,0,1,1.983,4.2,2.045,2.045,0,0,1,0,2.1Z" transform="translate(587.5 430.569)" fill="#fff"/>
    </g>
    <path id="Trazado_184624" data-name="Trazado 184624" d="M-7843.318-11132v72.13h92.6" transform="translate(8499.994 12113.87)" fill="none" stroke="#e2c140" stroke-width="4"/>
  </g>
</svg>
