<svg xmlns="http://www.w3.org/2000/svg" xmlns:xlink="http://www.w3.org/1999/xlink" width="507.585" height="195.656" viewBox="0 0 507.585 195.656">
  <defs>
    <linearGradient id="linear-gradient" y1="0.5" x2="1" y2="0.5" gradientUnits="objectBoundingBox">
      <stop offset="0" stop-color="#fff"/>
      <stop offset="1" stop-color="#c7e0ea"/>
    </linearGradient>
    <linearGradient id="linear-gradient-3" y1="0.5" x2="1" y2="0.5" gradientUnits="objectBoundingBox">
      <stop offset="0" stop-color="#fff"/>
      <stop offset="1" stop-color="#d2e6ee"/>
    </linearGradient>
  </defs>
  <g id="Grupo_152637" data-name="Grupo 152637" transform="translate(-869.006 -8713)">
    <g id="Grupo_41977" data-name="Grupo 41977" transform="translate(869.512 8764.104)">
      <g id="Grupo_55332" data-name="Grupo 55332" transform="translate(5.657)">
        <path id="Trazado_119461" data-name="Trazado 119461" d="M275.1,529.9l15.051,8.7V488.935l-15.051-8.7Z" transform="translate(-275.097 -459.496)" fill="#001a2e"/>
        <path id="Trazado_119462" data-name="Trazado 119462" d="M277.155,484.877l11.4,6.63v2.859l-11.4-6.63Zm0,7.092,11.4,6.629V495.74l-11.4-6.63Zm0,4.233,11.4,6.63v-2.859l-11.4-6.63Zm0,4.233,11.4,6.63v-2.859l-11.4-6.63Zm0,29.05,11.4,6.63v-2.859l-11.4-6.63Z" transform="translate(-275.654 -460.754)" fill="url(#linear-gradient)"/>
        <path id="Trazado_119463" data-name="Trazado 119463" d="M331.485,463.733l-35.749,20.639v49.768L331.485,513.5Z" transform="translate(-280.685 -455.03)" fill="#104769"/>
        <path id="Trazado_119464" data-name="Trazado 119464" d="M275.1,472.534,310.846,451.8l15.051,8.7-35.749,20.639Z" transform="translate(-275.097 -451.799)" fill="#e2f0f4"/>
      </g>
      <g id="Grupo_55333" data-name="Grupo 55333" transform="translate(24.805 30.416)">
        <path id="Trazado_119465" data-name="Trazado 119465" d="M301.353,541.985l40.256,23.637v-44.03l-40.256-23.637Z" transform="translate(-301.353 -494.711)" fill="#e2f0f4"/>
        <path id="Trazado_119466" data-name="Trazado 119466" d="M303.176,502.072l37.021,21.8v37.649l-37.021-21.8Z" transform="translate(-301.846 -495.825)" fill="#001a2e"/>
        <path id="Trazado_119467" data-name="Trazado 119467" d="M361.318,525.919l-4.766,3.159v44.115l4.766-3.159Z" transform="translate(-316.297 -502.281)" fill="#001a2e"/>
        <path id="Trazado_119468" data-name="Trazado 119468" d="M301.353,496.751l4.766-3.244,40.256,23.637-4.766,3.159Z" transform="translate(-301.353 -493.506)" fill="#104769"/>
      </g>
      <g id="Grupo_55335" data-name="Grupo 55335" transform="translate(0 80.676)">
        <path id="Trazado_119469" data-name="Trazado 119469" d="M267.34,576.1,286.1,562.425l40.256,23.637L307.6,599.654Z" transform="translate(-267.34 -562.425)" fill="#104769"/>
        <g id="Grupo_55334" data-name="Grupo 55334" transform="translate(3.667 3.019)">
          <path id="Trazado_119470" data-name="Trazado 119470" d="M294.872,570.271l20.7,12.167,1.707-1.2-20.712-12.149Z" transform="translate(-278.461 -567.246)" fill="#e2f0f4"/>
          <path id="Trazado_119471" data-name="Trazado 119471" d="M313.081,584.363l1.051-.741L293.4,571.477l-1.023.716Z" transform="translate(-277.785 -567.894)" fill="#e2f0f4"/>
          <path id="Trazado_119472" data-name="Trazado 119472" d="M313.776,602.782l-2.079-1.218-1.506,1.055,2.087,1.219Z" transform="translate(-282.608 -576.039)" fill="#e2f0f4"/>
          <path id="Trazado_119473" data-name="Trazado 119473" d="M329.991,588.7l-1.716,1.2,2.036,1.2,1.712-1.207Z" transform="translate(-287.504 -572.556)" fill="#e2f0f4"/>
          <path id="Trazado_119474" data-name="Trazado 119474" d="M324.372,587.606l2.033,1.2,1.71-1.2-2.029-1.19Z" transform="translate(-286.447 -571.936)" fill="#e2f0f4"/>
          <path id="Trazado_119475" data-name="Trazado 119475" d="M326.839,591.075l-1.06.742,2.042,1.2,1.059-.747Z" transform="translate(-286.828 -573.2)" fill="#e2f0f4"/>
          <path id="Trazado_119476" data-name="Trazado 119476" d="M297.5,595.194,299,594.133l-20.769-12.168-1.537,1.076Z" transform="translate(-273.54 -570.733)" fill="#e2f0f4"/>
          <path id="Trazado_119477" data-name="Trazado 119477" d="M300.633,593.122l1.05-.74L280.92,580.217l-1.022.716Z" transform="translate(-274.406 -570.26)" fill="#e2f0f4"/>
          <path id="Trazado_119478" data-name="Trazado 119478" d="M308.1,587.867l1.051-.74-20.744-12.154-1.023.716Z" transform="translate(-276.434 -568.84)" fill="#e2f0f4"/>
          <path id="Trazado_119479" data-name="Trazado 119479" d="M309.864,600.491l-2.077-1.217-1.509,1.057,2.084,1.218Z" transform="translate(-281.548 -575.419)" fill="#e2f0f4"/>
          <path id="Trazado_119480" data-name="Trazado 119480" d="M305.612,589.618l1.051-.74-20.751-12.157-1.023.716Z" transform="translate(-275.758 -569.313)" fill="#e2f0f4"/>
          <path id="Trazado_119481" data-name="Trazado 119481" d="M303.122,591.37l1.051-.74-20.757-12.161-1.022.716Z" transform="translate(-275.082 -569.787)" fill="#e2f0f4"/>
          <path id="Trazado_119482" data-name="Trazado 119482" d="M310.591,586.115l1.051-.741L290.9,573.225l-1.023.716Z" transform="translate(-277.109 -568.367)" fill="#e2f0f4"/>
          <path id="Trazado_119483" data-name="Trazado 119483" d="M318.936,594.227l1.055-.744-2.051-1.2-1.055.739Z" transform="translate(-284.42 -573.526)" fill="#e2f0f4"/>
          <path id="Trazado_119484" data-name="Trazado 119484" d="M316.447,595.979l1.055-.744-2.058-1.206-1.055.739Z" transform="translate(-283.744 -574)" fill="#e2f0f4"/>
          <path id="Trazado_119485" data-name="Trazado 119485" d="M324.342,592.823l-1.06.742,2.048,1.2,1.059-.747Z" transform="translate(-286.152 -573.673)" fill="#e2f0f4"/>
          <path id="Trazado_119486" data-name="Trazado 119486" d="M321.426,592.475l1.055-.744-2.045-1.2-1.056.739Z" transform="translate(-285.096 -573.053)" fill="#e2f0f4"/>
          <path id="Trazado_119487" data-name="Trazado 119487" d="M322.932,588.786l-1.056.739,2.04,1.2,1.055-.744Z" transform="translate(-285.771 -572.58)" fill="#e2f0f4"/>
          <path id="Trazado_119488" data-name="Trazado 119488" d="M313.957,597.731l1.055-.743-2.064-1.209-1.055.739Z" transform="translate(-283.069 -574.473)" fill="#e2f0f4"/>
          <path id="Trazado_119489" data-name="Trazado 119489" d="M321.846,594.572l-1.06.742,2.054,1.208,1.059-.747Z" transform="translate(-285.477 -574.146)" fill="#e2f0f4"/>
          <path id="Trazado_119490" data-name="Trazado 119490" d="M311.467,599.482l1.055-.744-2.07-1.213-1.055.739Z" transform="translate(-282.393 -574.946)" fill="#e2f0f4"/>
          <path id="Trazado_119491" data-name="Trazado 119491" d="M319.351,596.32l-1.06.742,2.061,1.211,1.059-.747Z" transform="translate(-284.801 -574.62)" fill="#e2f0f4"/>
          <path id="Trazado_119492" data-name="Trazado 119492" d="M316.855,598.068l-1.06.742,2.067,1.215,1.059-.747Z" transform="translate(-284.125 -575.093)" fill="#e2f0f4"/>
          <path id="Trazado_119493" data-name="Trazado 119493" d="M316.431,601.03l-2.073-1.214-1.059.742,2.073,1.219Z" transform="translate(-283.449 -575.566)" fill="#e2f0f4"/>
          <path id="Trazado_119494" data-name="Trazado 119494" d="M281.463,577.324l-2.361-1.383-1.019.712,2.362,1.388Z" transform="translate(-273.915 -569.102)" fill="#e2f0f4"/>
          <path id="Trazado_119495" data-name="Trazado 119495" d="M318.018,607.193l2.728,1.594,1.5-1.042-2.732-1.6Z" transform="translate(-284.727 -577.279)" fill="#e2f0f4"/>
          <path id="Trazado_119496" data-name="Trazado 119496" d="M321.1,605.144l2.732,1.606,1.078-.748-2.742-1.607Z" transform="translate(-285.562 -576.806)" fill="#e2f0f4"/>
          <path id="Trazado_119497" data-name="Trazado 119497" d="M276.287,580.827l-2.377-1.392-1.543,1.078,2.387,1.394Z" transform="translate(-272.368 -570.048)" fill="#e2f0f4"/>
          <path id="Trazado_119498" data-name="Trazado 119498" d="M278.973,579.076l-2.369-1.388-1.018.712,2.37,1.393Z" transform="translate(-273.239 -569.575)" fill="#e2f0f4"/>
          <path id="Trazado_119499" data-name="Trazado 119499" d="M323.6,603.4l2.742,1.612,1.078-.748-2.752-1.612Z" transform="translate(-286.238 -576.333)" fill="#e2f0f4"/>
          <path id="Trazado_119500" data-name="Trazado 119500" d="M328.592,599.9l2.762,1.624,1.079-.748-2.772-1.624Z" transform="translate(-287.59 -575.386)" fill="#e2f0f4"/>
          <path id="Trazado_119501" data-name="Trazado 119501" d="M326.1,601.648l2.752,1.618,1.078-.748-2.762-1.618Z" transform="translate(-286.914 -575.859)" fill="#e2f0f4"/>
          <path id="Trazado_119502" data-name="Trazado 119502" d="M333.583,596.4l2.782,1.635,1.079-.748-2.792-1.636Z" transform="translate(-288.941 -574.44)" fill="#e2f0f4"/>
          <path id="Trazado_119503" data-name="Trazado 119503" d="M336.079,594.486l2.792,1.641,1.734-1.2-2.8-1.645Z" transform="translate(-289.617 -573.797)" fill="#e2f0f4"/>
          <path id="Trazado_119504" data-name="Trazado 119504" d="M331.087,598.152l2.772,1.629,1.079-.748-2.782-1.63Z" transform="translate(-288.265 -574.913)" fill="#e2f0f4"/>
          <path id="Trazado_119505" data-name="Trazado 119505" d="M283.953,575.573l-2.353-1.378-1.019.712,2.354,1.383Z" transform="translate(-274.592 -568.63)" fill="#e2f0f4"/>
          <path id="Trazado_119506" data-name="Trazado 119506" d="M328.249,595.113l-1.064.745,2.051,1.205,1.064-.75Z" transform="translate(-287.209 -574.293)" fill="#e2f0f4"/>
          <path id="Trazado_119507" data-name="Trazado 119507" d="M325.753,596.861l-1.064.745,2.057,1.209,1.064-.75Z" transform="translate(-286.533 -574.766)" fill="#e2f0f4"/>
          <path id="Trazado_119508" data-name="Trazado 119508" d="M323.257,598.609l-1.064.745,2.063,1.213,1.064-.75Z" transform="translate(-285.857 -575.239)" fill="#e2f0f4"/>
          <path id="Trazado_119509" data-name="Trazado 119509" d="M286.444,573.822l-2.345-1.374-1.019.712,2.346,1.379Z" transform="translate(-275.268 -568.157)" fill="#e2f0f4"/>
          <path id="Trazado_119510" data-name="Trazado 119510" d="M318.265,602.106l-1.064.745,2.076,1.22,1.063-.749Z" transform="translate(-284.506 -576.186)" fill="#e2f0f4"/>
          <path id="Trazado_119511" data-name="Trazado 119511" d="M317.688,605.073l-2.081-1.219-1.5,1.052,2.089,1.221Z" transform="translate(-283.667 -576.659)" fill="#e2f0f4"/>
          <path id="Trazado_119512" data-name="Trazado 119512" d="M320.761,600.357l-1.064.745,2.069,1.216,1.064-.75Z" transform="translate(-285.182 -575.713)" fill="#e2f0f4"/>
          <path id="Trazado_119513" data-name="Trazado 119513" d="M288.934,572.07,286.6,570.7l-1.019.712,2.337,1.374Z" transform="translate(-275.944 -567.684)" fill="#e2f0f4"/>
          <path id="Trazado_119514" data-name="Trazado 119514" d="M291.424,570.319l-2.328-1.364-1.019.712,2.329,1.369Z" transform="translate(-276.621 -567.211)" fill="#e2f0f4"/>
          <path id="Trazado_119515" data-name="Trazado 119515" d="M330.745,593.365l-1.064.745,2.044,1.2,1.064-.75Z" transform="translate(-287.884 -573.82)" fill="#e2f0f4"/>
          <path id="Trazado_119516" data-name="Trazado 119516" d="M294.583,567.922l-2.316-1.359-1.691,1.182,2.321,1.365Z" transform="translate(-277.297 -566.564)" fill="#e2f0f4"/>
          <path id="Trazado_119517" data-name="Trazado 119517" d="M333.9,590.988l-1.719,1.2,2.038,1.2,1.715-1.209Z" transform="translate(-288.56 -573.176)" fill="#e2f0f4"/>
        </g>
      </g>
    </g>
    <g id="Grupo_55340" data-name="Grupo 55340" transform="translate(1297.849 8764.104)">
      <g id="Grupo_55332-2" data-name="Grupo 55332" transform="translate(5.657)">
        <path id="Trazado_119461-2" data-name="Trazado 119461" d="M275.1,529.9l15.051,8.7V488.935l-15.051-8.7Z" transform="translate(-275.097 -459.496)" fill="#001a2e"/>
        <path id="Trazado_119462-2" data-name="Trazado 119462" d="M277.155,484.877l11.4,6.63v2.859l-11.4-6.63Zm0,7.092,11.4,6.629V495.74l-11.4-6.63Zm0,4.233,11.4,6.63v-2.859l-11.4-6.63Zm0,4.233,11.4,6.63v-2.859l-11.4-6.63Zm0,29.05,11.4,6.63v-2.859l-11.4-6.63Z" transform="translate(-275.654 -460.754)" fill="url(#linear-gradient)"/>
        <path id="Trazado_119463-2" data-name="Trazado 119463" d="M331.485,463.733l-35.749,20.639v49.768L331.485,513.5Z" transform="translate(-280.685 -455.03)" fill="#104769"/>
        <path id="Trazado_119464-2" data-name="Trazado 119464" d="M275.1,472.534,310.846,451.8l15.051,8.7-35.749,20.639Z" transform="translate(-275.097 -451.799)" fill="#e2f0f4"/>
      </g>
      <g id="Grupo_55333-2" data-name="Grupo 55333" transform="translate(24.805 30.416)">
        <path id="Trazado_119465-2" data-name="Trazado 119465" d="M301.353,541.985l40.256,23.637v-44.03l-40.256-23.637Z" transform="translate(-301.353 -494.711)" fill="#e2f0f4"/>
        <path id="Trazado_119466-2" data-name="Trazado 119466" d="M303.176,502.072l37.021,21.8v37.649l-37.021-21.8Z" transform="translate(-301.846 -495.825)" fill="#001a2e"/>
        <path id="Trazado_119467-2" data-name="Trazado 119467" d="M361.318,525.919l-4.766,3.159v44.115l4.766-3.159Z" transform="translate(-316.297 -502.281)" fill="#001a2e"/>
        <path id="Trazado_119468-2" data-name="Trazado 119468" d="M301.353,496.751l4.766-3.244,40.256,23.637-4.766,3.159Z" transform="translate(-301.353 -493.506)" fill="#104769"/>
      </g>
      <g id="Grupo_55335-2" data-name="Grupo 55335" transform="translate(0 80.676)">
        <path id="Trazado_119469-2" data-name="Trazado 119469" d="M267.34,576.1,286.1,562.425l40.256,23.637L307.6,599.654Z" transform="translate(-267.34 -562.425)" fill="#104769"/>
        <g id="Grupo_55334-2" data-name="Grupo 55334" transform="translate(3.667 3.019)">
          <path id="Trazado_119470-2" data-name="Trazado 119470" d="M294.872,570.271l20.7,12.167,1.707-1.2-20.712-12.149Z" transform="translate(-278.461 -567.246)" fill="#e2f0f4"/>
          <path id="Trazado_119471-2" data-name="Trazado 119471" d="M313.081,584.363l1.051-.741L293.4,571.477l-1.023.716Z" transform="translate(-277.785 -567.894)" fill="#e2f0f4"/>
          <path id="Trazado_119472-2" data-name="Trazado 119472" d="M313.776,602.782l-2.079-1.218-1.506,1.055,2.087,1.219Z" transform="translate(-282.608 -576.039)" fill="#e2f0f4"/>
          <path id="Trazado_119473-2" data-name="Trazado 119473" d="M329.991,588.7l-1.716,1.2,2.036,1.2,1.712-1.207Z" transform="translate(-287.504 -572.556)" fill="#e2f0f4"/>
          <path id="Trazado_119474-2" data-name="Trazado 119474" d="M324.372,587.606l2.033,1.2,1.71-1.2-2.029-1.19Z" transform="translate(-286.447 -571.936)" fill="#e2f0f4"/>
          <path id="Trazado_119475-2" data-name="Trazado 119475" d="M326.839,591.075l-1.06.742,2.042,1.2,1.059-.747Z" transform="translate(-286.828 -573.2)" fill="#e2f0f4"/>
          <path id="Trazado_119476-2" data-name="Trazado 119476" d="M297.5,595.194,299,594.133l-20.769-12.168-1.537,1.076Z" transform="translate(-273.54 -570.733)" fill="#e2f0f4"/>
          <path id="Trazado_119477-2" data-name="Trazado 119477" d="M300.633,593.122l1.05-.74L280.92,580.217l-1.022.716Z" transform="translate(-274.406 -570.26)" fill="#e2f0f4"/>
          <path id="Trazado_119478-2" data-name="Trazado 119478" d="M308.1,587.867l1.051-.74-20.744-12.154-1.023.716Z" transform="translate(-276.434 -568.84)" fill="#e2f0f4"/>
          <path id="Trazado_119479-2" data-name="Trazado 119479" d="M309.864,600.491l-2.077-1.217-1.509,1.057,2.084,1.218Z" transform="translate(-281.548 -575.419)" fill="#e2f0f4"/>
          <path id="Trazado_119480-2" data-name="Trazado 119480" d="M305.612,589.618l1.051-.74-20.751-12.157-1.023.716Z" transform="translate(-275.758 -569.313)" fill="#e2f0f4"/>
          <path id="Trazado_119481-2" data-name="Trazado 119481" d="M303.122,591.37l1.051-.74-20.757-12.161-1.022.716Z" transform="translate(-275.082 -569.787)" fill="#e2f0f4"/>
          <path id="Trazado_119482-2" data-name="Trazado 119482" d="M310.591,586.115l1.051-.741L290.9,573.225l-1.023.716Z" transform="translate(-277.109 -568.367)" fill="#e2f0f4"/>
          <path id="Trazado_119483-2" data-name="Trazado 119483" d="M318.936,594.227l1.055-.744-2.051-1.2-1.055.739Z" transform="translate(-284.42 -573.526)" fill="#e2f0f4"/>
          <path id="Trazado_119484-2" data-name="Trazado 119484" d="M316.447,595.979l1.055-.744-2.058-1.206-1.055.739Z" transform="translate(-283.744 -574)" fill="#e2f0f4"/>
          <path id="Trazado_119485-2" data-name="Trazado 119485" d="M324.342,592.823l-1.06.742,2.048,1.2,1.059-.747Z" transform="translate(-286.152 -573.673)" fill="#e2f0f4"/>
          <path id="Trazado_119486-2" data-name="Trazado 119486" d="M321.426,592.475l1.055-.744-2.045-1.2-1.056.739Z" transform="translate(-285.096 -573.053)" fill="#e2f0f4"/>
          <path id="Trazado_119487-2" data-name="Trazado 119487" d="M322.932,588.786l-1.056.739,2.04,1.2,1.055-.744Z" transform="translate(-285.771 -572.58)" fill="#e2f0f4"/>
          <path id="Trazado_119488-2" data-name="Trazado 119488" d="M313.957,597.731l1.055-.743-2.064-1.209-1.055.739Z" transform="translate(-283.069 -574.473)" fill="#e2f0f4"/>
          <path id="Trazado_119489-2" data-name="Trazado 119489" d="M321.846,594.572l-1.06.742,2.054,1.208,1.059-.747Z" transform="translate(-285.477 -574.146)" fill="#e2f0f4"/>
          <path id="Trazado_119490-2" data-name="Trazado 119490" d="M311.467,599.482l1.055-.744-2.07-1.213-1.055.739Z" transform="translate(-282.393 -574.946)" fill="#e2f0f4"/>
          <path id="Trazado_119491-2" data-name="Trazado 119491" d="M319.351,596.32l-1.06.742,2.061,1.211,1.059-.747Z" transform="translate(-284.801 -574.62)" fill="#e2f0f4"/>
          <path id="Trazado_119492-2" data-name="Trazado 119492" d="M316.855,598.068l-1.06.742,2.067,1.215,1.059-.747Z" transform="translate(-284.125 -575.093)" fill="#e2f0f4"/>
          <path id="Trazado_119493-2" data-name="Trazado 119493" d="M316.431,601.03l-2.073-1.214-1.059.742,2.073,1.219Z" transform="translate(-283.449 -575.566)" fill="#e2f0f4"/>
          <path id="Trazado_119494-2" data-name="Trazado 119494" d="M281.463,577.324l-2.361-1.383-1.019.712,2.362,1.388Z" transform="translate(-273.915 -569.102)" fill="#e2f0f4"/>
          <path id="Trazado_119495-2" data-name="Trazado 119495" d="M318.018,607.193l2.728,1.594,1.5-1.042-2.732-1.6Z" transform="translate(-284.727 -577.279)" fill="#e2f0f4"/>
          <path id="Trazado_119496-2" data-name="Trazado 119496" d="M321.1,605.144l2.732,1.606,1.078-.748-2.742-1.607Z" transform="translate(-285.562 -576.806)" fill="#e2f0f4"/>
          <path id="Trazado_119497-2" data-name="Trazado 119497" d="M276.287,580.827l-2.377-1.392-1.543,1.078,2.387,1.394Z" transform="translate(-272.368 -570.048)" fill="#e2f0f4"/>
          <path id="Trazado_119498-2" data-name="Trazado 119498" d="M278.973,579.076l-2.369-1.388-1.018.712,2.37,1.393Z" transform="translate(-273.239 -569.575)" fill="#e2f0f4"/>
          <path id="Trazado_119499-2" data-name="Trazado 119499" d="M323.6,603.4l2.742,1.612,1.078-.748-2.752-1.612Z" transform="translate(-286.238 -576.333)" fill="#e2f0f4"/>
          <path id="Trazado_119500-2" data-name="Trazado 119500" d="M328.592,599.9l2.762,1.624,1.079-.748-2.772-1.624Z" transform="translate(-287.59 -575.386)" fill="#e2f0f4"/>
          <path id="Trazado_119501-2" data-name="Trazado 119501" d="M326.1,601.648l2.752,1.618,1.078-.748-2.762-1.618Z" transform="translate(-286.914 -575.859)" fill="#e2f0f4"/>
          <path id="Trazado_119502-2" data-name="Trazado 119502" d="M333.583,596.4l2.782,1.635,1.079-.748-2.792-1.636Z" transform="translate(-288.941 -574.44)" fill="#e2f0f4"/>
          <path id="Trazado_119503-2" data-name="Trazado 119503" d="M336.079,594.486l2.792,1.641,1.734-1.2-2.8-1.645Z" transform="translate(-289.617 -573.797)" fill="#e2f0f4"/>
          <path id="Trazado_119504-2" data-name="Trazado 119504" d="M331.087,598.152l2.772,1.629,1.079-.748-2.782-1.63Z" transform="translate(-288.265 -574.913)" fill="#e2f0f4"/>
          <path id="Trazado_119505-2" data-name="Trazado 119505" d="M283.953,575.573l-2.353-1.378-1.019.712,2.354,1.383Z" transform="translate(-274.592 -568.63)" fill="#e2f0f4"/>
          <path id="Trazado_119506-2" data-name="Trazado 119506" d="M328.249,595.113l-1.064.745,2.051,1.205,1.064-.75Z" transform="translate(-287.209 -574.293)" fill="#e2f0f4"/>
          <path id="Trazado_119507-2" data-name="Trazado 119507" d="M325.753,596.861l-1.064.745,2.057,1.209,1.064-.75Z" transform="translate(-286.533 -574.766)" fill="#e2f0f4"/>
          <path id="Trazado_119508-2" data-name="Trazado 119508" d="M323.257,598.609l-1.064.745,2.063,1.213,1.064-.75Z" transform="translate(-285.857 -575.239)" fill="#e2f0f4"/>
          <path id="Trazado_119509-2" data-name="Trazado 119509" d="M286.444,573.822l-2.345-1.374-1.019.712,2.346,1.379Z" transform="translate(-275.268 -568.157)" fill="#e2f0f4"/>
          <path id="Trazado_119510-2" data-name="Trazado 119510" d="M318.265,602.106l-1.064.745,2.076,1.22,1.063-.749Z" transform="translate(-284.506 -576.186)" fill="#e2f0f4"/>
          <path id="Trazado_119511-2" data-name="Trazado 119511" d="M317.688,605.073l-2.081-1.219-1.5,1.052,2.089,1.221Z" transform="translate(-283.667 -576.659)" fill="#e2f0f4"/>
          <path id="Trazado_119512-2" data-name="Trazado 119512" d="M320.761,600.357l-1.064.745,2.069,1.216,1.064-.75Z" transform="translate(-285.182 -575.713)" fill="#e2f0f4"/>
          <path id="Trazado_119513-2" data-name="Trazado 119513" d="M288.934,572.07,286.6,570.7l-1.019.712,2.337,1.374Z" transform="translate(-275.944 -567.684)" fill="#e2f0f4"/>
          <path id="Trazado_119514-2" data-name="Trazado 119514" d="M291.424,570.319l-2.328-1.364-1.019.712,2.329,1.369Z" transform="translate(-276.621 -567.211)" fill="#e2f0f4"/>
          <path id="Trazado_119515-2" data-name="Trazado 119515" d="M330.745,593.365l-1.064.745,2.044,1.2,1.064-.75Z" transform="translate(-287.884 -573.82)" fill="#e2f0f4"/>
          <path id="Trazado_119516-2" data-name="Trazado 119516" d="M294.583,567.922l-2.316-1.359-1.691,1.182,2.321,1.365Z" transform="translate(-277.297 -566.564)" fill="#e2f0f4"/>
          <path id="Trazado_119517-2" data-name="Trazado 119517" d="M333.9,590.988l-1.719,1.2,2.038,1.2,1.715-1.209Z" transform="translate(-288.56 -573.176)" fill="#e2f0f4"/>
        </g>
      </g>
    </g>
    <g id="Grupo_55336" data-name="Grupo 55336" transform="translate(1016.467 8769.278)">
      <path id="Trazado_82776" data-name="Trazado 82776" d="M-215.593,479.74c0,.04-.015.079-.018.119a3.072,3.072,0,0,1-.073.481c-.008.033-.006.066-.015.1s-.031.074-.043.111a3.423,3.423,0,0,1-.155.4c-.02.044-.029.089-.051.133-.011.022-.029.044-.041.066a4.467,4.467,0,0,1-.265.433c-.026.038-.043.078-.071.116-.005.007-.013.014-.018.022a5.818,5.818,0,0,1-.462.552c-.006.006-.009.012-.015.018-.035.038-.081.074-.118.111-.137.138-.279.275-.435.41-.021.018-.037.037-.058.054-.053.045-.118.088-.172.133-.144.117-.293.233-.451.348-.04.029-.073.059-.115.088s-.112.071-.165.107q-.256.175-.534.346c-.061.038-.114.078-.177.115-.038.022-.082.044-.12.066q-.363.213-.76.421c-.053.027-.1.056-.151.083l-.035.017c-.346.176-.713.35-1.094.52-.032.014-.059.03-.091.044-.063.028-.136.054-.2.082q-.525.227-1.089.446c-.07.027-.131.055-.2.082l-.114.04q-.768.288-1.605.561c-.046.015-.087.032-.134.047-.13.042-.267.082-.4.123-.2.062-.394.123-.6.183s-.421.123-.635.183-.418.119-.632.177l-.226.063c-.1.026-.2.05-.3.076q-.561.146-1.142.286l-.5.12q-.748.174-1.528.337l-.126.028-.025,0q-.767.158-1.564.306l-.447.079c-.388.07-.778.139-1.176.205-.205.034-.416.066-.624.1-.349.055-.7.11-1.053.163-.232.034-.468.066-.7.1-.34.047-.681.095-1.027.139-.247.032-.5.063-.744.093-.344.042-.689.083-1.038.122l-.78.085q-.52.055-1.048.1c-.266.026-.532.051-.8.075-.36.033-.724.062-1.088.091-.265.021-.529.043-.8.062-.383.029-.77.054-1.158.079-.193.012-.381.027-.575.039l-.15.007q-1.259.074-2.55.123l-.228.011c-.146.006-.294.007-.44.013q-.776.027-1.562.044c-.147,0-.29.01-.438.013l-.318,0c-.447.007-.9.012-1.349.015-.189,0-.374.006-.564.006h-.431q-.882,0-1.754-.011l-.092,0q-1.025-.014-2.037-.042h-.015l-.2-.007q-.9-.027-1.791-.064l-.119,0c-.183-.008-.361-.019-.542-.029-.446-.022-.891-.043-1.332-.069l-.228-.012c-.178-.011-.352-.025-.529-.037q-.613-.039-1.219-.083c-.11-.008-.222-.014-.332-.023-.148-.011-.293-.026-.441-.038q-.6-.048-1.188-.1c-.141-.013-.286-.023-.427-.037-.11-.01-.215-.023-.324-.034q-.634-.062-1.257-.13c-.155-.017-.314-.031-.468-.048l-.178-.022q-.9-.1-1.774-.217l-.114-.014-.014,0c-.644-.085-1.274-.177-1.9-.272l-.179-.026c-.114-.018-.221-.038-.334-.055q-.75-.119-1.476-.246c-.107-.019-.221-.035-.328-.055l-.195-.038c-.669-.122-1.326-.248-1.964-.381l-.082-.016c-.058-.012-.11-.026-.167-.038q-1.094-.231-2.124-.484c-.048-.011-.1-.022-.148-.034l-.073-.019q-.644-.161-1.259-.329l-.126-.033q-.678-.187-1.319-.383l-.05-.015c-.31-.094-.609-.192-.906-.289l-.185-.059q-.56-.187-1.087-.381c-.105-.039-.2-.079-.306-.118-.242-.092-.484-.184-.716-.277-.127-.052-.247-.105-.371-.158-.2-.083-.4-.166-.584-.251-.129-.058-.25-.117-.375-.176-.173-.081-.347-.163-.512-.245-.123-.062-.241-.125-.359-.187-.156-.082-.31-.164-.458-.247-.115-.065-.225-.131-.336-.2-.14-.082-.277-.165-.409-.249-.106-.067-.207-.135-.308-.2q-.187-.126-.363-.253-.142-.1-.276-.208c-.111-.086-.216-.173-.318-.26-.083-.071-.164-.141-.242-.212-.1-.088-.186-.177-.274-.266-.071-.072-.141-.143-.207-.216-.082-.09-.155-.181-.229-.273-.057-.072-.116-.143-.168-.216-.068-.095-.126-.19-.185-.285-.043-.071-.09-.142-.128-.213-.054-.1-.1-.2-.139-.3-.029-.068-.063-.135-.087-.2a3.075,3.075,0,0,1-.094-.341c-.014-.057-.034-.114-.044-.171a2.983,2.983,0,0,1-.047-.518h0v16.036a2.985,2.985,0,0,0,.047.519c.01.058.031.114.044.171a3.226,3.226,0,0,0,.094.341c.025.068.058.135.087.2.043.1.086.2.14.3.038.071.084.141.128.212.059.1.118.192.185.286.052.072.11.143.167.215.074.092.148.184.23.275.065.072.135.143.205.214.088.09.179.179.274.267.078.071.159.142.242.212.1.087.208.174.318.26q.134.1.276.209.176.127.362.253c.1.068.2.137.31.2.131.083.267.165.405.247.112.066.224.133.341.2.147.082.3.163.454.244.119.063.237.126.362.188.166.083.34.165.514.247.124.058.246.117.374.175.189.085.387.168.585.252.124.053.244.106.371.157.231.094.473.185.714.277.1.039.2.08.308.119q.527.193,1.085.38c.07.023.144.046.215.068.3.1.613.2.931.3q.641.2,1.317.382l.122.033q.619.169,1.265.33l.212.051q1.035.254,2.136.487l.239.051c.64.134,1.3.26,1.968.382.172.031.347.062.522.092q.727.128,1.476.246c.171.027.34.055.513.081.623.1,1.253.187,1.9.272l.127.015q.875.116,1.774.217c.213.025.43.047.646.07q.623.068,1.257.13l.751.07q.59.054,1.188.1c.256.021.512.042.771.061q.61.045,1.23.084c.247.016.493.033.742.047.445.026.894.049,1.343.07.219.011.435.023.655.033q.888.038,1.791.065l.22.007q1.013.029,2.042.042.916.012,1.842.013c.334,0,.663,0,.995-.007.451,0,.9-.007,1.349-.015.253,0,.5-.01.756-.016q.786-.017,1.561-.044c.223-.007.447-.014.669-.023q1.289-.051,2.55-.123c.241-.014.48-.031.719-.046.391-.025.782-.05,1.169-.079.261-.019.52-.04.779-.061.371-.03.741-.06,1.108-.092l.787-.074q.532-.051,1.056-.106l.778-.084q.523-.059,1.038-.123c.248-.03.5-.06.743-.092.349-.045.694-.093,1.037-.141.231-.032.463-.064.691-.1.358-.053.71-.108,1.062-.164.206-.033.415-.064.619-.1.4-.066.787-.135,1.176-.205.148-.026.3-.051.447-.079q.8-.148,1.564-.306l.15-.033c.522-.109,1.032-.222,1.532-.338.167-.038.33-.078.494-.118q.585-.141,1.149-.288c.176-.046.355-.092.528-.139.216-.059.426-.119.637-.178s.421-.12.626-.181.406-.123.605-.186c.176-.055.352-.111.524-.167q.837-.273,1.607-.562c.107-.04.209-.082.314-.122q.567-.219,1.092-.446c.1-.042.195-.082.288-.124.382-.171.749-.344,1.1-.521.064-.033.123-.067.187-.1.264-.138.518-.278.76-.42.1-.06.2-.121.3-.181q.278-.171.534-.346c.1-.065.189-.13.28-.2.159-.115.307-.231.451-.348.077-.062.157-.124.229-.187.157-.136.3-.273.436-.41.042-.043.091-.086.132-.129a5.814,5.814,0,0,0,.462-.552c.033-.045.058-.091.088-.136a4.445,4.445,0,0,0,.265-.434c.035-.066.062-.133.092-.2a3.386,3.386,0,0,0,.155-.4c.022-.07.041-.139.058-.209a3.083,3.083,0,0,0,.073-.481c.005-.071.019-.142.019-.213V479.646Q-215.591,479.693-215.593,479.74Z" transform="translate(291.218 -469.226)" fill="url(#linear-gradient-3)"/>
      <path id="Trazado_82777" data-name="Trazado 82777" d="M-253.4,461.386c-20.888,0-37.814,4.665-37.814,10.42s16.925,10.423,37.814,10.423,37.814-4.665,37.814-10.423S-232.526,461.386-253.4,461.386Z" transform="translate(291.218 -461.386)" fill="#e8e8e8"/>
    </g>
    <g id="Grupo_55339" data-name="Grupo 55339" transform="translate(1016.467 8842.251)" opacity="0.19">
      <path id="Trazado_82776-2" data-name="Trazado 82776" d="M-215.593,479.74c0,.04-.015.079-.018.119a3.072,3.072,0,0,1-.073.481c-.008.033-.006.066-.015.1s-.031.074-.043.111a3.423,3.423,0,0,1-.155.4c-.02.044-.029.089-.051.133-.011.022-.029.044-.041.066a4.467,4.467,0,0,1-.265.433c-.026.038-.043.078-.071.116-.005.007-.013.014-.018.022a5.818,5.818,0,0,1-.462.552c-.006.006-.009.012-.015.018-.035.038-.081.074-.118.111-.137.138-.279.275-.435.41-.021.018-.037.037-.058.054-.053.045-.118.088-.172.133-.144.117-.293.233-.451.348-.04.029-.073.059-.115.088s-.112.071-.165.107q-.256.175-.534.346c-.061.038-.114.078-.177.115-.038.022-.082.044-.12.066q-.363.213-.76.421c-.053.027-.1.056-.151.083l-.035.017c-.346.176-.713.35-1.094.52-.032.014-.059.03-.091.044-.063.028-.136.054-.2.082q-.525.227-1.089.446c-.07.027-.131.055-.2.082l-.114.04q-.768.288-1.605.561c-.046.015-.087.032-.134.047-.13.042-.267.082-.4.123-.2.062-.394.123-.6.183s-.421.123-.635.183-.418.119-.632.177l-.226.063c-.1.026-.2.05-.3.076q-.561.146-1.142.286l-.5.12q-.748.174-1.528.337l-.126.028-.025,0q-.767.158-1.564.306l-.447.079c-.388.07-.778.139-1.176.205-.205.034-.416.066-.624.1-.349.055-.7.11-1.053.163-.232.034-.468.066-.7.1-.34.047-.681.095-1.027.139-.247.032-.5.063-.744.093-.344.042-.689.083-1.038.122l-.78.085q-.52.055-1.048.1c-.266.026-.532.051-.8.075-.36.033-.724.062-1.088.091-.265.021-.529.043-.8.062-.383.029-.77.054-1.158.079-.193.012-.381.027-.575.039l-.15.007q-1.259.074-2.55.123l-.228.011c-.146.006-.294.007-.44.013q-.776.027-1.562.044c-.147,0-.29.01-.438.013l-.318,0c-.447.007-.9.012-1.349.015-.189,0-.374.006-.564.006h-.431q-.882,0-1.754-.011l-.092,0q-1.025-.014-2.037-.042h-.015l-.2-.007q-.9-.027-1.791-.064l-.119,0c-.183-.008-.361-.019-.542-.029-.446-.022-.891-.043-1.332-.069l-.228-.012c-.178-.011-.352-.025-.529-.037q-.613-.039-1.219-.083c-.11-.008-.222-.014-.332-.023-.148-.011-.293-.026-.441-.038q-.6-.048-1.188-.1c-.141-.013-.286-.023-.427-.037-.11-.01-.215-.023-.324-.034q-.634-.062-1.257-.13c-.155-.017-.314-.031-.468-.048l-.178-.022q-.9-.1-1.774-.217l-.114-.014-.014,0c-.644-.085-1.274-.177-1.9-.272l-.179-.026c-.114-.018-.221-.038-.334-.055q-.75-.119-1.476-.246c-.107-.019-.221-.035-.328-.055l-.195-.038c-.669-.122-1.326-.248-1.964-.381l-.082-.016c-.058-.012-.11-.026-.167-.038q-1.094-.231-2.124-.484c-.048-.011-.1-.022-.148-.034l-.073-.019q-.644-.161-1.259-.329l-.126-.033q-.678-.187-1.319-.383l-.05-.015c-.31-.094-.609-.192-.906-.289l-.185-.059q-.56-.187-1.087-.381c-.105-.039-.2-.079-.306-.118-.242-.092-.484-.184-.716-.277-.127-.052-.247-.105-.371-.158-.2-.083-.4-.166-.584-.251-.129-.058-.25-.117-.375-.176-.173-.081-.347-.163-.512-.245-.123-.062-.241-.125-.359-.187-.156-.082-.31-.164-.458-.247-.115-.065-.225-.131-.336-.2-.14-.082-.277-.165-.409-.249-.106-.067-.207-.135-.308-.2q-.187-.126-.363-.253-.142-.1-.276-.208c-.111-.086-.216-.173-.318-.26-.083-.071-.164-.141-.242-.212-.1-.088-.186-.177-.274-.266-.071-.072-.141-.143-.207-.216-.082-.09-.155-.181-.229-.273-.057-.072-.116-.143-.168-.216-.068-.095-.126-.19-.185-.285-.043-.071-.09-.142-.128-.213-.054-.1-.1-.2-.139-.3-.029-.068-.063-.135-.087-.2a3.075,3.075,0,0,1-.094-.341c-.014-.057-.034-.114-.044-.171a2.983,2.983,0,0,1-.047-.518h0v16.036a2.985,2.985,0,0,0,.047.519c.01.058.031.114.044.171a3.226,3.226,0,0,0,.094.341c.025.068.058.135.087.2.043.1.086.2.14.3.038.071.084.141.128.212.059.1.118.192.185.286.052.072.11.143.167.215.074.092.148.184.23.275.065.072.135.143.205.214.088.09.179.179.274.267.078.071.159.142.242.212.1.087.208.174.318.26q.134.1.276.209.176.127.362.253c.1.068.2.137.31.2.131.083.267.165.405.247.112.066.224.133.341.2.147.082.3.163.454.244.119.063.237.126.362.188.166.083.34.165.514.247.124.058.246.117.374.175.189.085.387.168.585.252.124.053.244.106.371.157.231.094.473.185.714.277.1.039.2.08.308.119q.527.193,1.085.38c.07.023.144.046.215.068.3.1.613.2.931.3q.641.2,1.317.382l.122.033q.619.169,1.265.33l.212.051q1.035.254,2.136.487l.239.051c.64.134,1.3.26,1.968.382.172.031.347.062.522.092q.727.128,1.476.246c.171.027.34.055.513.081.623.1,1.253.187,1.9.272l.127.015q.875.116,1.774.217c.213.025.43.047.646.07q.623.068,1.257.13l.751.07q.59.054,1.188.1c.256.021.512.042.771.061q.61.045,1.23.084c.247.016.493.033.742.047.445.026.894.049,1.343.07.219.011.435.023.655.033q.888.038,1.791.065l.22.007q1.013.029,2.042.042.916.012,1.842.013c.334,0,.663,0,.995-.007.451,0,.9-.007,1.349-.015.253,0,.5-.01.756-.016q.786-.017,1.561-.044c.223-.007.447-.014.669-.023q1.289-.051,2.55-.123c.241-.014.48-.031.719-.046.391-.025.782-.05,1.169-.079.261-.019.52-.04.779-.061.371-.03.741-.06,1.108-.092l.787-.074q.532-.051,1.056-.106l.778-.084q.523-.059,1.038-.123c.248-.03.5-.06.743-.092.349-.045.694-.093,1.037-.141.231-.032.463-.064.691-.1.358-.053.71-.108,1.062-.164.206-.033.415-.064.619-.1.4-.066.787-.135,1.176-.205.148-.026.3-.051.447-.079q.8-.148,1.564-.306l.15-.033c.522-.109,1.032-.222,1.532-.338.167-.038.33-.078.494-.118q.585-.141,1.149-.288c.176-.046.355-.092.528-.139.216-.059.426-.119.637-.178s.421-.12.626-.181.406-.123.605-.186c.176-.055.352-.111.524-.167q.837-.273,1.607-.562c.107-.04.209-.082.314-.122q.567-.219,1.092-.446c.1-.042.195-.082.288-.124.382-.171.749-.344,1.1-.521.064-.033.123-.067.187-.1.264-.138.518-.278.76-.42.1-.06.2-.121.3-.181q.278-.171.534-.346c.1-.065.189-.13.28-.2.159-.115.307-.231.451-.348.077-.062.157-.124.229-.187.157-.136.3-.273.436-.41.042-.043.091-.086.132-.129a5.814,5.814,0,0,0,.462-.552c.033-.045.058-.091.088-.136a4.445,4.445,0,0,0,.265-.434c.035-.066.062-.133.092-.2a3.386,3.386,0,0,0,.155-.4c.022-.07.041-.139.058-.209a3.083,3.083,0,0,0,.073-.481c.005-.071.019-.142.019-.213V479.646Q-215.591,479.693-215.593,479.74Z" transform="translate(291.218 -469.226)" fill="url(#linear-gradient-3)"/>
      <path id="Trazado_82777-2" data-name="Trazado 82777" d="M-253.4,461.386c-20.888,0-37.814,4.665-37.814,10.42s16.925,10.423,37.814,10.423,37.814-4.665,37.814-10.423S-232.526,461.386-253.4,461.386Z" transform="translate(291.218 -461.386)" fill="#e8e8e8"/>
    </g>
    <g id="Grupo_55337" data-name="Grupo 55337" transform="translate(1167.777 8769.278)">
      <path id="Trazado_82776-3" data-name="Trazado 82776" d="M-215.593,479.74c0,.04-.015.079-.018.119a3.072,3.072,0,0,1-.073.481c-.008.033-.006.066-.015.1s-.031.074-.043.111a3.423,3.423,0,0,1-.155.4c-.02.044-.029.089-.051.133-.011.022-.029.044-.041.066a4.467,4.467,0,0,1-.265.433c-.026.038-.043.078-.071.116-.005.007-.013.014-.018.022a5.818,5.818,0,0,1-.462.552c-.006.006-.009.012-.015.018-.035.038-.081.074-.118.111-.137.138-.279.275-.435.41-.021.018-.037.037-.058.054-.053.045-.118.088-.172.133-.144.117-.293.233-.451.348-.04.029-.073.059-.115.088s-.112.071-.165.107q-.256.175-.534.346c-.061.038-.114.078-.177.115-.038.022-.082.044-.12.066q-.363.213-.76.421c-.053.027-.1.056-.151.083l-.035.017c-.346.176-.713.35-1.094.52-.032.014-.059.03-.091.044-.063.028-.136.054-.2.082q-.525.227-1.089.446c-.07.027-.131.055-.2.082l-.114.04q-.768.288-1.605.561c-.046.015-.087.032-.134.047-.13.042-.267.082-.4.123-.2.062-.394.123-.6.183s-.421.123-.635.183-.418.119-.632.177l-.226.063c-.1.026-.2.05-.3.076q-.561.146-1.142.286l-.5.12q-.748.174-1.528.337l-.126.028-.025,0q-.767.158-1.564.306l-.447.079c-.388.07-.778.139-1.176.205-.205.034-.416.066-.624.1-.349.055-.7.11-1.053.163-.232.034-.468.066-.7.1-.34.047-.681.095-1.027.139-.247.032-.5.063-.744.093-.344.042-.689.083-1.038.122l-.78.085q-.52.055-1.048.1c-.266.026-.532.051-.8.075-.36.033-.724.062-1.088.091-.265.021-.529.043-.8.062-.383.029-.77.054-1.158.079-.193.012-.381.027-.575.039l-.15.007q-1.259.074-2.55.123l-.228.011c-.146.006-.294.007-.44.013q-.776.027-1.562.044c-.147,0-.29.01-.438.013l-.318,0c-.447.007-.9.012-1.349.015-.189,0-.374.006-.564.006h-.431q-.882,0-1.754-.011l-.092,0q-1.025-.014-2.037-.042h-.015l-.2-.007q-.9-.027-1.791-.064l-.119,0c-.183-.008-.361-.019-.542-.029-.446-.022-.891-.043-1.332-.069l-.228-.012c-.178-.011-.352-.025-.529-.037q-.613-.039-1.219-.083c-.11-.008-.222-.014-.332-.023-.148-.011-.293-.026-.441-.038q-.6-.048-1.188-.1c-.141-.013-.286-.023-.427-.037-.11-.01-.215-.023-.324-.034q-.634-.062-1.257-.13c-.155-.017-.314-.031-.468-.048l-.178-.022q-.9-.1-1.774-.217l-.114-.014-.014,0c-.644-.085-1.274-.177-1.9-.272l-.179-.026c-.114-.018-.221-.038-.334-.055q-.75-.119-1.476-.246c-.107-.019-.221-.035-.328-.055l-.195-.038c-.669-.122-1.326-.248-1.964-.381l-.082-.016c-.058-.012-.11-.026-.167-.038q-1.094-.231-2.124-.484c-.048-.011-.1-.022-.148-.034l-.073-.019q-.644-.161-1.259-.329l-.126-.033q-.678-.187-1.319-.383l-.05-.015c-.31-.094-.609-.192-.906-.289l-.185-.059q-.56-.187-1.087-.381c-.105-.039-.2-.079-.306-.118-.242-.092-.484-.184-.716-.277-.127-.052-.247-.105-.371-.158-.2-.083-.4-.166-.584-.251-.129-.058-.25-.117-.375-.176-.173-.081-.347-.163-.512-.245-.123-.062-.241-.125-.359-.187-.156-.082-.31-.164-.458-.247-.115-.065-.225-.131-.336-.2-.14-.082-.277-.165-.409-.249-.106-.067-.207-.135-.308-.2q-.187-.126-.363-.253-.142-.1-.276-.208c-.111-.086-.216-.173-.318-.26-.083-.071-.164-.141-.242-.212-.1-.088-.186-.177-.274-.266-.071-.072-.141-.143-.207-.216-.082-.09-.155-.181-.229-.273-.057-.072-.116-.143-.168-.216-.068-.095-.126-.19-.185-.285-.043-.071-.09-.142-.128-.213-.054-.1-.1-.2-.139-.3-.029-.068-.063-.135-.087-.2a3.075,3.075,0,0,1-.094-.341c-.014-.057-.034-.114-.044-.171a2.983,2.983,0,0,1-.047-.518h0v16.036a2.985,2.985,0,0,0,.047.519c.01.058.031.114.044.171a3.226,3.226,0,0,0,.094.341c.025.068.058.135.087.2.043.1.086.2.14.3.038.071.084.141.128.212.059.1.118.192.185.286.052.072.11.143.167.215.074.092.148.184.23.275.065.072.135.143.205.214.088.09.179.179.274.267.078.071.159.142.242.212.1.087.208.174.318.26q.134.1.276.209.176.127.362.253c.1.068.2.137.31.2.131.083.267.165.405.247.112.066.224.133.341.2.147.082.3.163.454.244.119.063.237.126.362.188.166.083.34.165.514.247.124.058.246.117.374.175.189.085.387.168.585.252.124.053.244.106.371.157.231.094.473.185.714.277.1.039.2.08.308.119q.527.193,1.085.38c.07.023.144.046.215.068.3.1.613.2.931.3q.641.2,1.317.382l.122.033q.619.169,1.265.33l.212.051q1.035.254,2.136.487l.239.051c.64.134,1.3.26,1.968.382.172.031.347.062.522.092q.727.128,1.476.246c.171.027.34.055.513.081.623.1,1.253.187,1.9.272l.127.015q.875.116,1.774.217c.213.025.43.047.646.07q.623.068,1.257.13l.751.07q.59.054,1.188.1c.256.021.512.042.771.061q.61.045,1.23.084c.247.016.493.033.742.047.445.026.894.049,1.343.07.219.011.435.023.655.033q.888.038,1.791.065l.22.007q1.013.029,2.042.042.916.012,1.842.013c.334,0,.663,0,.995-.007.451,0,.9-.007,1.349-.015.253,0,.5-.01.756-.016q.786-.017,1.561-.044c.223-.007.447-.014.669-.023q1.289-.051,2.55-.123c.241-.014.48-.031.719-.046.391-.025.782-.05,1.169-.079.261-.019.52-.04.779-.061.371-.03.741-.06,1.108-.092l.787-.074q.532-.051,1.056-.106l.778-.084q.523-.059,1.038-.123c.248-.03.5-.06.743-.092.349-.045.694-.093,1.037-.141.231-.032.463-.064.691-.1.358-.053.71-.108,1.062-.164.206-.033.415-.064.619-.1.4-.066.787-.135,1.176-.205.148-.026.3-.051.447-.079q.8-.148,1.564-.306l.15-.033c.522-.109,1.032-.222,1.532-.338.167-.038.33-.078.494-.118q.585-.141,1.149-.288c.176-.046.355-.092.528-.139.216-.059.426-.119.637-.178s.421-.12.626-.181.406-.123.605-.186c.176-.055.352-.111.524-.167q.837-.273,1.607-.562c.107-.04.209-.082.314-.122q.567-.219,1.092-.446c.1-.042.195-.082.288-.124.382-.171.749-.344,1.1-.521.064-.033.123-.067.187-.1.264-.138.518-.278.76-.42.1-.06.2-.121.3-.181q.278-.171.534-.346c.1-.065.189-.13.28-.2.159-.115.307-.231.451-.348.077-.062.157-.124.229-.187.157-.136.3-.273.436-.41.042-.043.091-.086.132-.129a5.814,5.814,0,0,0,.462-.552c.033-.045.058-.091.088-.136a4.445,4.445,0,0,0,.265-.434c.035-.066.062-.133.092-.2a3.386,3.386,0,0,0,.155-.4c.022-.07.041-.139.058-.209a3.083,3.083,0,0,0,.073-.481c.005-.071.019-.142.019-.213V479.646Q-215.591,479.693-215.593,479.74Z" transform="translate(291.218 -469.226)" fill="url(#linear-gradient-3)"/>
      <path id="Trazado_82777-3" data-name="Trazado 82777" d="M-253.4,461.386c-20.888,0-37.814,4.665-37.814,10.42s16.925,10.423,37.814,10.423,37.814-4.665,37.814-10.423S-232.526,461.386-253.4,461.386Z" transform="translate(291.218 -461.386)" fill="#e8e8e8"/>
    </g>
    <g id="Grupo_55338" data-name="Grupo 55338" transform="translate(1167.777 8842.251)" opacity="0.19">
      <path id="Trazado_82776-4" data-name="Trazado 82776" d="M-215.593,479.74c0,.04-.015.079-.018.119a3.072,3.072,0,0,1-.073.481c-.008.033-.006.066-.015.1s-.031.074-.043.111a3.423,3.423,0,0,1-.155.4c-.02.044-.029.089-.051.133-.011.022-.029.044-.041.066a4.467,4.467,0,0,1-.265.433c-.026.038-.043.078-.071.116-.005.007-.013.014-.018.022a5.818,5.818,0,0,1-.462.552c-.006.006-.009.012-.015.018-.035.038-.081.074-.118.111-.137.138-.279.275-.435.41-.021.018-.037.037-.058.054-.053.045-.118.088-.172.133-.144.117-.293.233-.451.348-.04.029-.073.059-.115.088s-.112.071-.165.107q-.256.175-.534.346c-.061.038-.114.078-.177.115-.038.022-.082.044-.12.066q-.363.213-.76.421c-.053.027-.1.056-.151.083l-.035.017c-.346.176-.713.35-1.094.52-.032.014-.059.03-.091.044-.063.028-.136.054-.2.082q-.525.227-1.089.446c-.07.027-.131.055-.2.082l-.114.04q-.768.288-1.605.561c-.046.015-.087.032-.134.047-.13.042-.267.082-.4.123-.2.062-.394.123-.6.183s-.421.123-.635.183-.418.119-.632.177l-.226.063c-.1.026-.2.05-.3.076q-.561.146-1.142.286l-.5.12q-.748.174-1.528.337l-.126.028-.025,0q-.767.158-1.564.306l-.447.079c-.388.07-.778.139-1.176.205-.205.034-.416.066-.624.1-.349.055-.7.11-1.053.163-.232.034-.468.066-.7.1-.34.047-.681.095-1.027.139-.247.032-.5.063-.744.093-.344.042-.689.083-1.038.122l-.78.085q-.52.055-1.048.1c-.266.026-.532.051-.8.075-.36.033-.724.062-1.088.091-.265.021-.529.043-.8.062-.383.029-.77.054-1.158.079-.193.012-.381.027-.575.039l-.15.007q-1.259.074-2.55.123l-.228.011c-.146.006-.294.007-.44.013q-.776.027-1.562.044c-.147,0-.29.01-.438.013l-.318,0c-.447.007-.9.012-1.349.015-.189,0-.374.006-.564.006h-.431q-.882,0-1.754-.011l-.092,0q-1.025-.014-2.037-.042h-.015l-.2-.007q-.9-.027-1.791-.064l-.119,0c-.183-.008-.361-.019-.542-.029-.446-.022-.891-.043-1.332-.069l-.228-.012c-.178-.011-.352-.025-.529-.037q-.613-.039-1.219-.083c-.11-.008-.222-.014-.332-.023-.148-.011-.293-.026-.441-.038q-.6-.048-1.188-.1c-.141-.013-.286-.023-.427-.037-.11-.01-.215-.023-.324-.034q-.634-.062-1.257-.13c-.155-.017-.314-.031-.468-.048l-.178-.022q-.9-.1-1.774-.217l-.114-.014-.014,0c-.644-.085-1.274-.177-1.9-.272l-.179-.026c-.114-.018-.221-.038-.334-.055q-.75-.119-1.476-.246c-.107-.019-.221-.035-.328-.055l-.195-.038c-.669-.122-1.326-.248-1.964-.381l-.082-.016c-.058-.012-.11-.026-.167-.038q-1.094-.231-2.124-.484c-.048-.011-.1-.022-.148-.034l-.073-.019q-.644-.161-1.259-.329l-.126-.033q-.678-.187-1.319-.383l-.05-.015c-.31-.094-.609-.192-.906-.289l-.185-.059q-.56-.187-1.087-.381c-.105-.039-.2-.079-.306-.118-.242-.092-.484-.184-.716-.277-.127-.052-.247-.105-.371-.158-.2-.083-.4-.166-.584-.251-.129-.058-.25-.117-.375-.176-.173-.081-.347-.163-.512-.245-.123-.062-.241-.125-.359-.187-.156-.082-.31-.164-.458-.247-.115-.065-.225-.131-.336-.2-.14-.082-.277-.165-.409-.249-.106-.067-.207-.135-.308-.2q-.187-.126-.363-.253-.142-.1-.276-.208c-.111-.086-.216-.173-.318-.26-.083-.071-.164-.141-.242-.212-.1-.088-.186-.177-.274-.266-.071-.072-.141-.143-.207-.216-.082-.09-.155-.181-.229-.273-.057-.072-.116-.143-.168-.216-.068-.095-.126-.19-.185-.285-.043-.071-.09-.142-.128-.213-.054-.1-.1-.2-.139-.3-.029-.068-.063-.135-.087-.2a3.075,3.075,0,0,1-.094-.341c-.014-.057-.034-.114-.044-.171a2.983,2.983,0,0,1-.047-.518h0v16.036a2.985,2.985,0,0,0,.047.519c.01.058.031.114.044.171a3.226,3.226,0,0,0,.094.341c.025.068.058.135.087.2.043.1.086.2.14.3.038.071.084.141.128.212.059.1.118.192.185.286.052.072.11.143.167.215.074.092.148.184.23.275.065.072.135.143.205.214.088.09.179.179.274.267.078.071.159.142.242.212.1.087.208.174.318.26q.134.1.276.209.176.127.362.253c.1.068.2.137.31.2.131.083.267.165.405.247.112.066.224.133.341.2.147.082.3.163.454.244.119.063.237.126.362.188.166.083.34.165.514.247.124.058.246.117.374.175.189.085.387.168.585.252.124.053.244.106.371.157.231.094.473.185.714.277.1.039.2.08.308.119q.527.193,1.085.38c.07.023.144.046.215.068.3.1.613.2.931.3q.641.2,1.317.382l.122.033q.619.169,1.265.33l.212.051q1.035.254,2.136.487l.239.051c.64.134,1.3.26,1.968.382.172.031.347.062.522.092q.727.128,1.476.246c.171.027.34.055.513.081.623.1,1.253.187,1.9.272l.127.015q.875.116,1.774.217c.213.025.43.047.646.07q.623.068,1.257.13l.751.07q.59.054,1.188.1c.256.021.512.042.771.061q.61.045,1.23.084c.247.016.493.033.742.047.445.026.894.049,1.343.07.219.011.435.023.655.033q.888.038,1.791.065l.22.007q1.013.029,2.042.042.916.012,1.842.013c.334,0,.663,0,.995-.007.451,0,.9-.007,1.349-.015.253,0,.5-.01.756-.016q.786-.017,1.561-.044c.223-.007.447-.014.669-.023q1.289-.051,2.55-.123c.241-.014.48-.031.719-.046.391-.025.782-.05,1.169-.079.261-.019.52-.04.779-.061.371-.03.741-.06,1.108-.092l.787-.074q.532-.051,1.056-.106l.778-.084q.523-.059,1.038-.123c.248-.03.5-.06.743-.092.349-.045.694-.093,1.037-.141.231-.032.463-.064.691-.1.358-.053.71-.108,1.062-.164.206-.033.415-.064.619-.1.4-.066.787-.135,1.176-.205.148-.026.3-.051.447-.079q.8-.148,1.564-.306l.15-.033c.522-.109,1.032-.222,1.532-.338.167-.038.33-.078.494-.118q.585-.141,1.149-.288c.176-.046.355-.092.528-.139.216-.059.426-.119.637-.178s.421-.12.626-.181.406-.123.605-.186c.176-.055.352-.111.524-.167q.837-.273,1.607-.562c.107-.04.209-.082.314-.122q.567-.219,1.092-.446c.1-.042.195-.082.288-.124.382-.171.749-.344,1.1-.521.064-.033.123-.067.187-.1.264-.138.518-.278.76-.42.1-.06.2-.121.3-.181q.278-.171.534-.346c.1-.065.189-.13.28-.2.159-.115.307-.231.451-.348.077-.062.157-.124.229-.187.157-.136.3-.273.436-.41.042-.043.091-.086.132-.129a5.814,5.814,0,0,0,.462-.552c.033-.045.058-.091.088-.136a4.445,4.445,0,0,0,.265-.434c.035-.066.062-.133.092-.2a3.386,3.386,0,0,0,.155-.4c.022-.07.041-.139.058-.209a3.083,3.083,0,0,0,.073-.481c.005-.071.019-.142.019-.213V479.646Q-215.591,479.693-215.593,479.74Z" transform="translate(291.218 -469.226)" fill="url(#linear-gradient-3)"/>
      <path id="Trazado_82777-4" data-name="Trazado 82777" d="M-253.4,461.386c-20.888,0-37.814,4.665-37.814,10.42s16.925,10.423,37.814,10.423,37.814-4.665,37.814-10.423S-232.526,461.386-253.4,461.386Z" transform="translate(291.218 -461.386)" fill="#e8e8e8"/>
    </g>
    <path id="Trazado_119518" data-name="Trazado 119518" d="M-12343.392-8211.494l30.072-12.295" transform="translate(13382.786 16996.725)" fill="none" stroke="#00223d" stroke-linecap="round" stroke-width="4"/>
    <path id="Trazado_119524" data-name="Trazado 119524" d="M-12343.392-8211.494l30.072-12.295" transform="translate(13382.786 17069.697)" fill="none" stroke="#00223d" stroke-linecap="round" stroke-width="4" opacity="0.19"/>
    <path id="Trazado_119520" data-name="Trazado 119520" d="M-12343.392-8211.494l30.072-12.295" transform="translate(13534.097 16996.725)" fill="none" stroke="#00223d" stroke-linecap="round" stroke-width="4"/>
    <path id="Trazado_119522" data-name="Trazado 119522" d="M-12343.392-8211.494l30.072-12.295" transform="translate(13534.097 17069.697)" fill="none" stroke="#00223d" stroke-linecap="round" stroke-width="4" opacity="0.19"/>
    <path id="Trazado_119519" data-name="Trazado 119519" d="M0,12.295,30.071,0" transform="translate(1060.715 8794.062) rotate(-135)" fill="none" stroke="#00223d" stroke-linecap="round" stroke-width="4"/>
    <path id="Trazado_119525" data-name="Trazado 119525" d="M0,12.295,30.071,0" transform="translate(1060.715 8867.034) rotate(-135)" fill="none" stroke="#00223d" stroke-linecap="round" stroke-width="4" opacity="0.19"/>
    <path id="Trazado_119521" data-name="Trazado 119521" d="M0,12.295,30.071,0" transform="translate(1212.025 8794.062) rotate(-135)" fill="none" stroke="#00223d" stroke-linecap="round" stroke-width="4"/>
    <path id="Trazado_119523" data-name="Trazado 119523" d="M0,12.295,30.071,0" transform="translate(1212.025 8867.034) rotate(-135)" fill="none" stroke="#00223d" stroke-linecap="round" stroke-width="4" opacity="0.19"/>
    <path id="Trazado_119526" data-name="Trazado 119526" d="M-11040.522-7696.055h43.378" transform="translate(11993.296 16514.531)" fill="none" stroke="#00223d" stroke-width="3"/>
    <path id="Trazado_119527" data-name="Trazado 119527" d="M-10942.14-7742.105l-19.884,25.019,19.884,22.3" transform="translate(11956.915 16535.871)" fill="none" stroke="#00223d" stroke-width="3"/>
    <path id="Trazado_119528" data-name="Trazado 119528" d="M0,0H43.378" transform="translate(1310.957 8816.382) rotate(180)" fill="none" stroke="#00223d" stroke-width="3"/>
    <path id="Trazado_119529" data-name="Trazado 119529" d="M19.882,0,0,25.019,19.882,47.324" transform="translate(1268.837 8841.091) rotate(180)" fill="none" stroke="#00223d" stroke-width="3"/>
    <path id="Trazado_119530" data-name="Trazado 119530" d="M-10569.342-7719.013v35.331" transform="translate(11774.934 16525.172)" fill="none" stroke="#00223d" stroke-width="3"/>
    <path id="Trazado_119531" data-name="Trazado 119531" d="M-10780.867-7753.378h75.576" transform="translate(11872.961 16541.098)" fill="none" stroke="#00223d" stroke-width="3"/>
    <path id="Trazado_119532" data-name="Trazado 119532" d="M-10780.867-7753.378h75.576" transform="translate(11872.961 16614.068)" fill="none" stroke="#00223d" stroke-width="3" opacity="0.19"/>
    <ellipse id="Elipse_3795" data-name="Elipse 3795" cx="5.799" cy="5.799" rx="5.799" ry="5.799" transform="translate(1124.36 8781.774)" fill="#ff2c9c"/>
    <ellipse id="Elipse_3796" data-name="Elipse 3796" cx="5.799" cy="5.799" rx="5.799" ry="5.799" transform="translate(1252.097 8797.357)" fill="#ff2c9c"/>
    <path id="Trazado_194064" data-name="Trazado 194064" d="M9.816,20.881V15.888H0V5.082H9.756V0L28.143,10.452Z" transform="translate(1141.059 8750.056) rotate(90)" fill="#12263f"/>
    <path id="Trazado_195419" data-name="Trazado 195419" d="M3.173-5.01V0H1.485V-12.8h4.72A4.742,4.742,0,0,1,9.5-11.725a3.635,3.635,0,0,1,1.191,2.839,3.587,3.587,0,0,1-1.165,2.87A4.954,4.954,0,0,1,6.188-5.01Zm0-1.38H6.205a3.032,3.032,0,0,0,2.074-.638A2.334,2.334,0,0,0,9-8.873,2.411,2.411,0,0,0,8.279-10.7,2.84,2.84,0,0,0,6.3-11.417H3.173ZM18.36,0a3.416,3.416,0,0,1-.229-1A3.628,3.628,0,0,1,15.425.176a3.357,3.357,0,0,1-2.307-.8,2.573,2.573,0,0,1-.9-2.017,2.688,2.688,0,0,1,1.129-2.307,5.325,5.325,0,0,1,3.177-.822h1.582v-.747a1.826,1.826,0,0,0-.51-1.358,2.049,2.049,0,0,0-1.5-.505,2.371,2.371,0,0,0-1.459.439,1.3,1.3,0,0,0-.589,1.063H12.41a2.244,2.244,0,0,1,.505-1.375A3.449,3.449,0,0,1,14.287-9.3a4.613,4.613,0,0,1,1.9-.387,3.759,3.759,0,0,1,2.575.822A2.964,2.964,0,0,1,19.731-6.6v4.377a5.351,5.351,0,0,0,.334,2.083V0Zm-2.7-1.239a2.858,2.858,0,0,0,1.45-.4,2.392,2.392,0,0,0,.993-1.028V-4.614H16.831q-2.988,0-2.988,1.749a1.48,1.48,0,0,0,.51,1.2A1.959,1.959,0,0,0,15.662-1.239Zm6.223-3.595A5.582,5.582,0,0,1,22.913-8.38a3.332,3.332,0,0,1,2.76-1.305,3.33,3.33,0,0,1,2.663,1.134l.07-.958H29.9V3.656H28.274V-.879A3.412,3.412,0,0,1,25.655.176a3.28,3.28,0,0,1-2.747-1.34A5.706,5.706,0,0,1,21.885-4.72Zm1.626.185a4.231,4.231,0,0,0,.69,2.566,2.195,2.195,0,0,0,1.859.932,2.435,2.435,0,0,0,2.215-1.283V-7.093a2.442,2.442,0,0,0-2.2-1.257,2.211,2.211,0,0,0-1.872.936A4.606,4.606,0,0,0,23.511-4.649ZM38.382-.94A3.454,3.454,0,0,1,35.6.176,2.956,2.956,0,0,1,33.28-.708a3.823,3.823,0,0,1-.8-2.615V-9.51H34.1v6.144Q34.1-1.2,35.859-1.2a2.434,2.434,0,0,0,2.479-1.389V-9.51h1.626V0H38.417Zm8,1.116a4.155,4.155,0,0,1-3.146-1.27,4.714,4.714,0,0,1-1.213-3.4v-.3a5.707,5.707,0,0,1,.541-2.527,4.217,4.217,0,0,1,1.512-1.74,3.8,3.8,0,0,1,2.1-.628,3.562,3.562,0,0,1,2.883,1.222,5.289,5.289,0,0,1,1.028,3.5v.677H43.646a3.38,3.38,0,0,0,.822,2.272,2.583,2.583,0,0,0,2,.866A2.832,2.832,0,0,0,47.927-1.5a3.666,3.666,0,0,0,1.046-.932l.993.773A3.993,3.993,0,0,1,46.38.176Zm-.2-8.525a2.169,2.169,0,0,0-1.652.716A3.482,3.482,0,0,0,43.7-5.625h4.764v-.123a3.1,3.1,0,0,0-.668-1.92A2.042,2.042,0,0,0,46.178-8.35Zm8-3.463v2.3h1.775v1.257H54.176v5.9a1.32,1.32,0,0,0,.237.858,1,1,0,0,0,.809.286A3.937,3.937,0,0,0,56-1.31V0a4.742,4.742,0,0,1-1.248.175A2.025,2.025,0,0,1,53.1-.483a2.832,2.832,0,0,1-.554-1.872v-5.9H50.818V-9.51H52.55v-2.3ZM61.8.176a4.155,4.155,0,0,1-3.146-1.27,4.714,4.714,0,0,1-1.213-3.4v-.3a5.707,5.707,0,0,1,.541-2.527,4.217,4.217,0,0,1,1.512-1.74,3.8,3.8,0,0,1,2.1-.628,3.562,3.562,0,0,1,2.883,1.222,5.289,5.289,0,0,1,1.028,3.5v.677H59.063a3.38,3.38,0,0,0,.822,2.272,2.583,2.583,0,0,0,2,.866A2.832,2.832,0,0,0,63.343-1.5a3.666,3.666,0,0,0,1.046-.932l.993.773A3.993,3.993,0,0,1,61.8.176Zm-.2-8.525a2.169,2.169,0,0,0-1.652.716,3.482,3.482,0,0,0-.826,2.008h4.764v-.123a3.1,3.1,0,0,0-.668-1.92A2.042,2.042,0,0,0,61.594-8.35ZM77.019,0H75.384V-10.837l-3.278,1.2v-1.477l4.658-1.749h.255Z" transform="translate(1093.006 8741)" fill="#12263f"/>
    <path id="Trazado_195418" data-name="Trazado 195418" d="M8.842-5.546H3.779v3.428H9.721V0H1.143V-12.8H9.7v2.136H3.779v3.05H8.842Zm1.863.7a5.684,5.684,0,0,1,1-3.542,3.261,3.261,0,0,1,2.738-1.3,2.92,2.92,0,0,1,2.435,1.169l.167-.993h2.232V3.656H16.726V-.817a2.928,2.928,0,0,1-2.3.993,3.237,3.237,0,0,1-2.707-1.318A5.963,5.963,0,0,1,10.705-4.843Zm2.54.18a3.729,3.729,0,0,0,.479,2.077,1.533,1.533,0,0,0,1.349.713,1.708,1.708,0,0,0,1.652-.933V-6.74a1.694,1.694,0,0,0-1.635-.9,1.552,1.552,0,0,0-1.362.713A4.118,4.118,0,0,0,13.245-4.662Zm13.72,3.7a3.185,3.185,0,0,1-2.6,1.143A3,3,0,0,1,22.03-.7a3.752,3.752,0,0,1-.822-2.575V-9.51h2.54v6.151q0,1.487,1.354,1.487a1.834,1.834,0,0,0,1.775-.9V-9.51h2.549V0H27.035ZM34.022,0H31.474V-9.51h2.549Zm-2.7-11.971a1.251,1.251,0,0,1,.382-.94,1.436,1.436,0,0,1,1.042-.369,1.44,1.44,0,0,1,1.037.369,1.244,1.244,0,0,1,.387.94,1.247,1.247,0,0,1-.391.949,1.443,1.443,0,0,1-1.033.369,1.443,1.443,0,0,1-1.033-.369A1.247,1.247,0,0,1,31.324-11.971Zm13.351,7.3a5.7,5.7,0,0,1-1,3.52A3.2,3.2,0,0,1,40.983.176a2.963,2.963,0,0,1-2.329-1V3.656h-2.54V-9.51H38.47l.088.932a2.985,2.985,0,0,1,2.408-1.107,3.22,3.22,0,0,1,2.733,1.3A5.858,5.858,0,0,1,44.675-4.8Zm-2.54-.185a3.743,3.743,0,0,0-.47-2.048A1.532,1.532,0,0,0,40.3-7.62a1.663,1.663,0,0,0-1.644.914v3.894a1.692,1.692,0,0,0,1.661.94Q42.135-1.872,42.135-4.852Zm3.718.009A5.64,5.64,0,0,1,46.4-7.365a3.989,3.989,0,0,1,1.569-1.714,4.577,4.577,0,0,1,2.377-.606,4.33,4.33,0,0,1,3.142,1.178,4.727,4.727,0,0,1,1.358,3.2l.018.65A4.97,4.97,0,0,1,53.64-1.147,4.247,4.247,0,0,1,50.361.176a4.268,4.268,0,0,1-3.283-1.318,5.058,5.058,0,0,1-1.226-3.586Zm2.54.18a3.555,3.555,0,0,0,.51,2.073,1.682,1.682,0,0,0,1.459.717A1.686,1.686,0,0,0,51.8-2.581a3.89,3.89,0,0,0,.519-2.267,3.519,3.519,0,0,0-.519-2.06,1.686,1.686,0,0,0-1.459-.731,1.658,1.658,0,0,0-1.441.726A3.955,3.955,0,0,0,48.393-4.662ZM68.3-2.637H63.677L62.8,0h-2.8l4.764-12.8H67.2L71.991,0h-2.8ZM64.389-4.772h3.2l-1.608-4.79Z" transform="translate(874.006 8905)" fill="#12263f"/>
    <path id="Trazado_195421" data-name="Trazado 195421" d="M8.842-5.546H3.779v3.428H9.721V0H1.143V-12.8H9.7v2.136H3.779v3.05H8.842Zm1.863.7a5.684,5.684,0,0,1,1-3.542,3.261,3.261,0,0,1,2.738-1.3,2.92,2.92,0,0,1,2.435,1.169l.167-.993h2.232V3.656H16.726V-.817a2.928,2.928,0,0,1-2.3.993,3.237,3.237,0,0,1-2.707-1.318A5.963,5.963,0,0,1,10.705-4.843Zm2.54.18a3.729,3.729,0,0,0,.479,2.077,1.533,1.533,0,0,0,1.349.713,1.708,1.708,0,0,0,1.652-.933V-6.74a1.694,1.694,0,0,0-1.635-.9,1.552,1.552,0,0,0-1.362.713A4.118,4.118,0,0,0,13.245-4.662Zm13.72,3.7a3.185,3.185,0,0,1-2.6,1.143A3,3,0,0,1,22.03-.7a3.752,3.752,0,0,1-.822-2.575V-9.51h2.54v6.151q0,1.487,1.354,1.487a1.834,1.834,0,0,0,1.775-.9V-9.51h2.549V0H27.035ZM34.022,0H31.474V-9.51h2.549Zm-2.7-11.971a1.251,1.251,0,0,1,.382-.94,1.436,1.436,0,0,1,1.042-.369,1.44,1.44,0,0,1,1.037.369,1.244,1.244,0,0,1,.387.94,1.247,1.247,0,0,1-.391.949,1.443,1.443,0,0,1-1.033.369,1.443,1.443,0,0,1-1.033-.369A1.247,1.247,0,0,1,31.324-11.971Zm13.351,7.3a5.7,5.7,0,0,1-1,3.52A3.2,3.2,0,0,1,40.983.176a2.963,2.963,0,0,1-2.329-1V3.656h-2.54V-9.51H38.47l.088.932a2.985,2.985,0,0,1,2.408-1.107,3.22,3.22,0,0,1,2.733,1.3A5.858,5.858,0,0,1,44.675-4.8Zm-2.54-.185a3.743,3.743,0,0,0-.47-2.048A1.532,1.532,0,0,0,40.3-7.62a1.663,1.663,0,0,0-1.644.914v3.894a1.692,1.692,0,0,0,1.661.94Q42.135-1.872,42.135-4.852Zm3.718.009A5.64,5.64,0,0,1,46.4-7.365a3.989,3.989,0,0,1,1.569-1.714,4.577,4.577,0,0,1,2.377-.606,4.33,4.33,0,0,1,3.142,1.178,4.727,4.727,0,0,1,1.358,3.2l.018.65A4.97,4.97,0,0,1,53.64-1.147,4.247,4.247,0,0,1,50.361.176a4.268,4.268,0,0,1-3.283-1.318,5.058,5.058,0,0,1-1.226-3.586Zm2.54.18a3.555,3.555,0,0,0,.51,2.073,1.682,1.682,0,0,0,1.459.717A1.686,1.686,0,0,0,51.8-2.581a3.89,3.89,0,0,0,.519-2.267,3.519,3.519,0,0,0-.519-2.06,1.686,1.686,0,0,0-1.459-.731,1.658,1.658,0,0,0-1.441.726A3.955,3.955,0,0,0,48.393-4.662ZM61.075,0V-12.8h4.482a5.886,5.886,0,0,1,3.533.892,3.05,3.05,0,0,1,1.2,2.615,2.891,2.891,0,0,1-.483,1.657,2.792,2.792,0,0,1-1.345,1.05,2.7,2.7,0,0,1,1.551.993,2.936,2.936,0,0,1,.567,1.828A3.377,3.377,0,0,1,69.407-.967,5.3,5.3,0,0,1,66.05,0Zm2.637-5.572v3.454h2.259a2.18,2.18,0,0,0,1.455-.444,1.522,1.522,0,0,0,.523-1.226,1.607,1.607,0,0,0-1.819-1.784Zm0-1.863h1.951q2-.035,2-1.591a1.47,1.47,0,0,0-.505-1.252,2.658,2.658,0,0,0-1.6-.382H63.712Z" transform="translate(1306.006 8905)" fill="#12263f"/>
    <path id="Trazado_195420" data-name="Trazado 195420" d="M3.173-5.01V0H1.485V-12.8h4.72A4.742,4.742,0,0,1,9.5-11.725a3.635,3.635,0,0,1,1.191,2.839,3.587,3.587,0,0,1-1.165,2.87A4.954,4.954,0,0,1,6.188-5.01Zm0-1.38H6.205a3.032,3.032,0,0,0,2.074-.638A2.334,2.334,0,0,0,9-8.873,2.411,2.411,0,0,0,8.279-10.7,2.84,2.84,0,0,0,6.3-11.417H3.173ZM18.36,0a3.416,3.416,0,0,1-.229-1A3.628,3.628,0,0,1,15.425.176a3.357,3.357,0,0,1-2.307-.8,2.573,2.573,0,0,1-.9-2.017,2.688,2.688,0,0,1,1.129-2.307,5.325,5.325,0,0,1,3.177-.822h1.582v-.747a1.826,1.826,0,0,0-.51-1.358,2.049,2.049,0,0,0-1.5-.505,2.371,2.371,0,0,0-1.459.439,1.3,1.3,0,0,0-.589,1.063H12.41a2.244,2.244,0,0,1,.505-1.375A3.449,3.449,0,0,1,14.287-9.3a4.613,4.613,0,0,1,1.9-.387,3.759,3.759,0,0,1,2.575.822A2.964,2.964,0,0,1,19.731-6.6v4.377a5.351,5.351,0,0,0,.334,2.083V0Zm-2.7-1.239a2.858,2.858,0,0,0,1.45-.4,2.392,2.392,0,0,0,.993-1.028V-4.614H16.831q-2.988,0-2.988,1.749a1.48,1.48,0,0,0,.51,1.2A1.959,1.959,0,0,0,15.662-1.239Zm6.223-3.595A5.582,5.582,0,0,1,22.913-8.38a3.332,3.332,0,0,1,2.76-1.305,3.33,3.33,0,0,1,2.663,1.134l.07-.958H29.9V3.656H28.274V-.879A3.412,3.412,0,0,1,25.655.176a3.28,3.28,0,0,1-2.747-1.34A5.706,5.706,0,0,1,21.885-4.72Zm1.626.185a4.231,4.231,0,0,0,.69,2.566,2.195,2.195,0,0,0,1.859.932,2.435,2.435,0,0,0,2.215-1.283V-7.093a2.442,2.442,0,0,0-2.2-1.257,2.211,2.211,0,0,0-1.872.936A4.606,4.606,0,0,0,23.511-4.649ZM38.382-.94A3.454,3.454,0,0,1,35.6.176,2.956,2.956,0,0,1,33.28-.708a3.823,3.823,0,0,1-.8-2.615V-9.51H34.1v6.144Q34.1-1.2,35.859-1.2a2.434,2.434,0,0,0,2.479-1.389V-9.51h1.626V0H38.417Zm8,1.116a4.155,4.155,0,0,1-3.146-1.27,4.714,4.714,0,0,1-1.213-3.4v-.3a5.707,5.707,0,0,1,.541-2.527,4.217,4.217,0,0,1,1.512-1.74,3.8,3.8,0,0,1,2.1-.628,3.562,3.562,0,0,1,2.883,1.222,5.289,5.289,0,0,1,1.028,3.5v.677H43.646a3.38,3.38,0,0,0,.822,2.272,2.583,2.583,0,0,0,2,.866A2.832,2.832,0,0,0,47.927-1.5a3.666,3.666,0,0,0,1.046-.932l.993.773A3.993,3.993,0,0,1,46.38.176Zm-.2-8.525a2.169,2.169,0,0,0-1.652.716A3.482,3.482,0,0,0,43.7-5.625h4.764v-.123a3.1,3.1,0,0,0-.668-1.92A2.042,2.042,0,0,0,46.178-8.35Zm8-3.463v2.3h1.775v1.257H54.176v5.9a1.32,1.32,0,0,0,.237.858,1,1,0,0,0,.809.286A3.937,3.937,0,0,0,56-1.31V0a4.742,4.742,0,0,1-1.248.175A2.025,2.025,0,0,1,53.1-.483a2.832,2.832,0,0,1-.554-1.872v-5.9H50.818V-9.51H52.55v-2.3ZM61.8.176a4.155,4.155,0,0,1-3.146-1.27,4.714,4.714,0,0,1-1.213-3.4v-.3a5.707,5.707,0,0,1,.541-2.527,4.217,4.217,0,0,1,1.512-1.74,3.8,3.8,0,0,1,2.1-.628,3.562,3.562,0,0,1,2.883,1.222,5.289,5.289,0,0,1,1.028,3.5v.677H59.063a3.38,3.38,0,0,0,.822,2.272,2.583,2.583,0,0,0,2,.866A2.832,2.832,0,0,0,63.343-1.5a3.666,3.666,0,0,0,1.046-.932l.993.773A3.993,3.993,0,0,1,61.8.176Zm-.2-8.525a2.169,2.169,0,0,0-1.652.716,3.482,3.482,0,0,0-.826,2.008h4.764v-.123a3.1,3.1,0,0,0-.668-1.92A2.042,2.042,0,0,0,61.594-8.35ZM80.06,0H71.675V-1.169L76.1-6.091a10.524,10.524,0,0,0,1.358-1.815,3.029,3.029,0,0,0,.374-1.446A2.3,2.3,0,0,0,77.229-11a2.12,2.12,0,0,0-1.617-.642,2.511,2.511,0,0,0-1.885.69,2.635,2.635,0,0,0-.672,1.92H71.429a3.774,3.774,0,0,1,1.138-2.856,4.219,4.219,0,0,1,3.045-1.09,4.054,4.054,0,0,1,2.821.936,3.193,3.193,0,0,1,1.037,2.492q0,1.89-2.408,4.5L73.635-1.327H80.06Z" transform="translate(1240.006 8760.592)" fill="#12263f"/>
    <path id="Trazado_194065" data-name="Trazado 194065" d="M9.816,20.881V15.888H0V5.082H9.756V0L28.143,10.452Z" transform="matrix(-0.485, 0.875, -0.875, -0.485, 1283.824, 8775.985)" fill="#12263f"/>
    <g id="Grupo_152615" data-name="Grupo 152615" transform="translate(-10.67 -14)">
      <path id="Trazado_195417" data-name="Trazado 195417" d="M7.778-3.357A1.353,1.353,0,0,0,7.251-4.5a6.917,6.917,0,0,0-1.9-.844,13.458,13.458,0,0,1-2.171-.875A3.547,3.547,0,0,1,1-9.4a3.09,3.09,0,0,1,.584-1.85,3.812,3.812,0,0,1,1.679-1.27,6.318,6.318,0,0,1,2.457-.457,5.751,5.751,0,0,1,2.443.5,3.891,3.891,0,0,1,1.666,1.4,3.668,3.668,0,0,1,.593,2.057H7.787a1.726,1.726,0,0,0-.554-1.367,2.276,2.276,0,0,0-1.556-.488,2.432,2.432,0,0,0-1.5.409,1.289,1.289,0,0,0-.536,1.077,1.235,1.235,0,0,0,.628,1.046,7.1,7.1,0,0,0,1.85.791A7.994,7.994,0,0,1,9.4-5.871a3.343,3.343,0,0,1,1.028,2.5A3.08,3.08,0,0,1,9.167-.769,5.5,5.5,0,0,1,5.783.176,6.534,6.534,0,0,1,3.094-.365a4.256,4.256,0,0,1-1.85-1.481,3.793,3.793,0,0,1-.637-2.18H3.252q0,2.118,2.531,2.118A2.462,2.462,0,0,0,7.251-2.29,1.244,1.244,0,0,0,7.778-3.357ZM16.418.176a4.668,4.668,0,0,1-3.406-1.283A4.561,4.561,0,0,1,11.7-4.526v-.246a5.745,5.745,0,0,1,.554-2.562,4.064,4.064,0,0,1,1.569-1.74,4.4,4.4,0,0,1,2.316-.611,3.947,3.947,0,0,1,3.072,1.23,5,5,0,0,1,1.121,3.489v1.037H14.273a2.36,2.36,0,0,0,.743,1.494,2.245,2.245,0,0,0,1.569.563,2.742,2.742,0,0,0,2.294-1.063l1.248,1.4A3.813,3.813,0,0,1,18.58-.277,5.075,5.075,0,0,1,16.418.176Zm-.29-7.813a1.587,1.587,0,0,0-1.226.512,2.651,2.651,0,0,0-.6,1.466h3.533v-.2a1.891,1.891,0,0,0-.457-1.311A1.638,1.638,0,0,0,16.128-7.638Zm10.986.51A6.9,6.9,0,0,0,26.2-7.2a1.86,1.86,0,0,0-1.89.976V0h-2.54V-9.51h2.4l.07,1.134a2.354,2.354,0,0,1,2.118-1.31,2.662,2.662,0,0,1,.791.114ZM32.054-3.1,33.82-9.51h2.654L33.267,0H30.841L27.633-9.51h2.654ZM40.271,0H37.723V-9.51h2.549Zm-2.7-11.971a1.251,1.251,0,0,1,.382-.94A1.436,1.436,0,0,1,39-13.28a1.44,1.44,0,0,1,1.037.369,1.244,1.244,0,0,1,.387.94,1.247,1.247,0,0,1-.391.949A1.443,1.443,0,0,1,39-10.652a1.443,1.443,0,0,1-1.033-.369A1.247,1.247,0,0,1,37.573-11.971Zm8.745,10.1a1.666,1.666,0,0,0,1.143-.387,1.355,1.355,0,0,0,.457-1.028H50.3a3.258,3.258,0,0,1-.527,1.771A3.48,3.48,0,0,1,48.353-.268a4.442,4.442,0,0,1-1.991.444,4.129,4.129,0,0,1-3.217-1.3A5.13,5.13,0,0,1,41.968-4.7v-.167a5.071,5.071,0,0,1,1.169-3.507,4.08,4.08,0,0,1,3.208-1.31A4,4,0,0,1,49.206-8.67a3.594,3.594,0,0,1,1.094,2.7H47.918a1.745,1.745,0,0,0-.457-1.206,1.524,1.524,0,0,0-1.16-.464,1.53,1.53,0,0,0-1.34.647,3.749,3.749,0,0,0-.453,2.1v.264a3.8,3.8,0,0,0,.448,2.113A1.549,1.549,0,0,0,46.318-1.872ZM54.431,0H51.882V-9.51h2.549Zm-2.7-11.971a1.251,1.251,0,0,1,.382-.94,1.436,1.436,0,0,1,1.042-.369,1.44,1.44,0,0,1,1.037.369,1.244,1.244,0,0,1,.387.94,1.247,1.247,0,0,1-.391.949,1.443,1.443,0,0,1-1.033.369,1.443,1.443,0,0,1-1.033-.369A1.247,1.247,0,0,1,51.732-11.971Zm4.395,7.128a5.64,5.64,0,0,1,.545-2.522,3.989,3.989,0,0,1,1.569-1.714,4.577,4.577,0,0,1,2.377-.606A4.33,4.33,0,0,1,63.76-8.508a4.727,4.727,0,0,1,1.358,3.2l.018.65a4.97,4.97,0,0,1-1.222,3.511A4.247,4.247,0,0,1,60.636.176a4.268,4.268,0,0,1-3.283-1.318,5.058,5.058,0,0,1-1.226-3.586Zm2.54.18a3.555,3.555,0,0,0,.51,2.073,1.682,1.682,0,0,0,1.459.717,1.686,1.686,0,0,0,1.441-.709A3.89,3.89,0,0,0,62.6-4.847a3.519,3.519,0,0,0-.519-2.06,1.686,1.686,0,0,0-1.459-.731,1.658,1.658,0,0,0-1.441.726A3.955,3.955,0,0,0,58.667-4.662ZM71.851-2.628a.818.818,0,0,0-.461-.734,5.241,5.241,0,0,0-1.481-.479q-3.393-.712-3.393-2.883a2.613,2.613,0,0,1,1.05-2.114,4.237,4.237,0,0,1,2.747-.848,4.56,4.56,0,0,1,2.9.853,2.687,2.687,0,0,1,1.085,2.215h-2.54a1.229,1.229,0,0,0-.352-.9,1.488,1.488,0,0,0-1.1-.356,1.52,1.52,0,0,0-.993.29.916.916,0,0,0-.352.738.783.783,0,0,0,.4.681,4.114,4.114,0,0,0,1.349.448,11.019,11.019,0,0,1,1.6.426A2.628,2.628,0,0,1,74.32-2.733,2.481,2.481,0,0,1,73.2-.628a4.815,4.815,0,0,1-2.883.8A5.029,5.029,0,0,1,68.2-.25a3.561,3.561,0,0,1-1.455-1.169,2.716,2.716,0,0,1-.527-1.6h2.408a1.326,1.326,0,0,0,.5,1.037,1.987,1.987,0,0,0,1.248.36,1.839,1.839,0,0,0,1.1-.277A.861.861,0,0,0,71.851-2.628Zm8.191-2.215a5.64,5.64,0,0,1,.545-2.522,3.989,3.989,0,0,1,1.569-1.714,4.577,4.577,0,0,1,2.377-.606,4.33,4.33,0,0,1,3.142,1.178,4.727,4.727,0,0,1,1.358,3.2l.018.65a4.97,4.97,0,0,1-1.222,3.511A4.247,4.247,0,0,1,84.551.176a4.268,4.268,0,0,1-3.283-1.318,5.058,5.058,0,0,1-1.226-3.586Zm2.54.18a3.555,3.555,0,0,0,.51,2.073,1.682,1.682,0,0,0,1.459.717,1.686,1.686,0,0,0,1.441-.709,3.89,3.89,0,0,0,.519-2.267,3.519,3.519,0,0,0-.519-2.06,1.686,1.686,0,0,0-1.459-.731,1.658,1.658,0,0,0-1.441.726A3.955,3.955,0,0,0,82.582-4.662ZM95.959-7.128a6.9,6.9,0,0,0-.914-.07,1.86,1.86,0,0,0-1.89.976V0h-2.54V-9.51h2.4l.07,1.134A2.354,2.354,0,0,1,95.2-9.686a2.662,2.662,0,0,1,.791.114ZM99.861,0H97.313V-9.51h2.549Zm-2.7-11.971a1.251,1.251,0,0,1,.382-.94,1.436,1.436,0,0,1,1.042-.369,1.44,1.44,0,0,1,1.037.369,1.244,1.244,0,0,1,.387.94,1.247,1.247,0,0,1-.391.949,1.443,1.443,0,0,1-1.033.369,1.443,1.443,0,0,1-1.033-.369A1.247,1.247,0,0,1,97.163-11.971ZM106.33.176a4.668,4.668,0,0,1-3.406-1.283,4.561,4.561,0,0,1-1.314-3.419v-.246a5.745,5.745,0,0,1,.554-2.562,4.064,4.064,0,0,1,1.569-1.74,4.4,4.4,0,0,1,2.316-.611,3.947,3.947,0,0,1,3.072,1.23,5,5,0,0,1,1.121,3.489v1.037h-6.056a2.36,2.36,0,0,0,.743,1.494,2.245,2.245,0,0,0,1.569.563,2.742,2.742,0,0,0,2.294-1.063l1.248,1.4a3.813,3.813,0,0,1-1.547,1.261A5.075,5.075,0,0,1,106.33.176Zm-.29-7.813a1.587,1.587,0,0,0-1.226.512,2.651,2.651,0,0,0-.6,1.466h3.533v-.2a1.891,1.891,0,0,0-.457-1.311A1.638,1.638,0,0,0,106.04-7.638Zm7.98-1.872.079,1.1a3.32,3.32,0,0,1,2.733-1.274,2.759,2.759,0,0,1,2.25.888,4.142,4.142,0,0,1,.756,2.654V0H117.3V-6.082a1.648,1.648,0,0,0-.352-1.173,1.574,1.574,0,0,0-1.169-.365,1.747,1.747,0,0,0-1.608.914V0h-2.54V-9.51ZM124.8-11.848V-9.51h1.626v1.863H124.8V-2.9a1.133,1.133,0,0,0,.2.756,1.015,1.015,0,0,0,.773.229,4.051,4.051,0,0,0,.747-.062V-.053a5.229,5.229,0,0,1-1.538.229,2.425,2.425,0,0,1-2.725-2.7V-7.646h-1.389V-9.51h1.389v-2.338ZM133.356,0a2.821,2.821,0,0,1-.255-.853A3.073,3.073,0,0,1,130.7.176a3.376,3.376,0,0,1-2.316-.809,2.6,2.6,0,0,1-.918-2.039,2.687,2.687,0,0,1,1.121-2.32,5.529,5.529,0,0,1,3.239-.817H133v-.545a1.567,1.567,0,0,0-.338-1.055,1.331,1.331,0,0,0-1.068-.4,1.513,1.513,0,0,0-1.006.308,1.045,1.045,0,0,0-.365.844h-2.54a2.551,2.551,0,0,1,.51-1.529,3.37,3.37,0,0,1,1.441-1.1,5.253,5.253,0,0,1,2.092-.4,4.15,4.15,0,0,1,2.791.883,3.09,3.09,0,0,1,1.033,2.483V-2.2a4.546,4.546,0,0,0,.378,2.048V0Zm-2.1-1.767a2.188,2.188,0,0,0,1.037-.25,1.645,1.645,0,0,0,.7-.672V-4.324h-.949q-1.907,0-2.03,1.318l-.009.149a1.017,1.017,0,0,0,.334.782A1.3,1.3,0,0,0,131.256-1.767ZM137.1-4.825a5.731,5.731,0,0,1,1-3.542,3.237,3.237,0,0,1,2.729-1.318,2.913,2.913,0,0,1,2.294,1.037V-13.5h2.549V0h-2.294l-.123-1.011A2.989,2.989,0,0,1,140.81.176a3.228,3.228,0,0,1-2.694-1.323A5.916,5.916,0,0,1,137.1-4.825Zm2.54.189a3.754,3.754,0,0,0,.466,2.051,1.517,1.517,0,0,0,1.354.713,1.7,1.7,0,0,0,1.661-.995V-6.625a1.675,1.675,0,0,0-1.644-.995Q139.641-7.62,139.641-4.636Zm7.6-.207a5.64,5.64,0,0,1,.545-2.522,3.989,3.989,0,0,1,1.569-1.714,4.577,4.577,0,0,1,2.377-.606,4.33,4.33,0,0,1,3.142,1.178,4.727,4.727,0,0,1,1.358,3.2l.018.65a4.97,4.97,0,0,1-1.222,3.511A4.247,4.247,0,0,1,151.752.176a4.268,4.268,0,0,1-3.283-1.318,5.058,5.058,0,0,1-1.226-3.586Zm2.54.18a3.555,3.555,0,0,0,.51,2.073,1.682,1.682,0,0,0,1.459.717,1.686,1.686,0,0,0,1.441-.709,3.89,3.89,0,0,0,.519-2.267,3.519,3.519,0,0,0-.519-2.06,1.686,1.686,0,0,0-1.459-.731,1.658,1.658,0,0,0-1.441.726A3.955,3.955,0,0,0,149.783-4.662Zm13.184,2.035a.818.818,0,0,0-.461-.734,5.241,5.241,0,0,0-1.481-.479q-3.393-.712-3.393-2.883a2.613,2.613,0,0,1,1.05-2.114,4.237,4.237,0,0,1,2.747-.848,4.56,4.56,0,0,1,2.9.853,2.687,2.687,0,0,1,1.085,2.215h-2.54a1.229,1.229,0,0,0-.352-.9,1.488,1.488,0,0,0-1.1-.356,1.52,1.52,0,0,0-.993.29.916.916,0,0,0-.352.738.783.783,0,0,0,.4.681,4.114,4.114,0,0,0,1.349.448,11.019,11.019,0,0,1,1.6.426,2.628,2.628,0,0,1,2.013,2.558,2.481,2.481,0,0,1-1.116,2.1,4.815,4.815,0,0,1-2.883.8,5.029,5.029,0,0,1-2.123-.426,3.561,3.561,0,0,1-1.455-1.169,2.716,2.716,0,0,1-.527-1.6h2.408a1.326,1.326,0,0,0,.5,1.037,1.987,1.987,0,0,0,1.248.36,1.839,1.839,0,0,0,1.1-.277A.861.861,0,0,0,162.967-2.628ZM6.486,15a2.821,2.821,0,0,1-.255-.853,3.073,3.073,0,0,1-2.4,1.028,3.376,3.376,0,0,1-2.316-.809A2.6,2.6,0,0,1,.6,12.328a2.687,2.687,0,0,1,1.121-2.32A5.529,5.529,0,0,1,4.957,9.19H6.126V8.646a1.567,1.567,0,0,0-.338-1.055A1.331,1.331,0,0,0,4.72,7.2,1.513,1.513,0,0,0,3.713,7.5a1.045,1.045,0,0,0-.365.844H.809a2.551,2.551,0,0,1,.51-1.529,3.37,3.37,0,0,1,1.441-1.1,5.253,5.253,0,0,1,2.092-.4A4.15,4.15,0,0,1,7.642,6.2,3.09,3.09,0,0,1,8.675,8.681V12.8a4.546,4.546,0,0,0,.378,2.048V15Zm-2.1-1.767a2.188,2.188,0,0,0,1.037-.25,1.645,1.645,0,0,0,.7-.672V10.676H5.177q-1.907,0-2.03,1.318l-.009.149a1.017,1.017,0,0,0,.334.782A1.3,1.3,0,0,0,4.386,13.233Zm14.678-.105a1.666,1.666,0,0,0,1.143-.387,1.355,1.355,0,0,0,.457-1.028h2.382a3.258,3.258,0,0,1-.527,1.771A3.48,3.48,0,0,1,21.1,14.732a4.442,4.442,0,0,1-1.991.444,4.129,4.129,0,0,1-3.217-1.3A5.13,5.13,0,0,1,14.713,10.3v-.167a5.071,5.071,0,0,1,1.169-3.507,4.08,4.08,0,0,1,3.208-1.31A4,4,0,0,1,21.951,6.33a3.594,3.594,0,0,1,1.094,2.7H20.663a1.745,1.745,0,0,0-.457-1.206,1.7,1.7,0,0,0-2.5.183,3.749,3.749,0,0,0-.453,2.1v.264a3.8,3.8,0,0,0,.448,2.113A1.549,1.549,0,0,0,19.063,13.128ZM24.1,10.157a5.64,5.64,0,0,1,.545-2.522,3.989,3.989,0,0,1,1.569-1.714,4.577,4.577,0,0,1,2.377-.606,4.33,4.33,0,0,1,3.142,1.178,4.727,4.727,0,0,1,1.358,3.2l.018.65a4.97,4.97,0,0,1-1.222,3.511,4.247,4.247,0,0,1-3.278,1.323,4.268,4.268,0,0,1-3.283-1.318A5.058,5.058,0,0,1,24.1,10.271Zm2.54.18a3.555,3.555,0,0,0,.51,2.073,1.831,1.831,0,0,0,2.9.009,3.89,3.89,0,0,0,.519-2.267,3.519,3.519,0,0,0-.519-2.06,1.686,1.686,0,0,0-1.459-.731,1.658,1.658,0,0,0-1.441.726A3.955,3.955,0,0,0,26.64,10.338ZM37.011,5.49l.079,1.1a3.32,3.32,0,0,1,2.733-1.274,2.759,2.759,0,0,1,2.25.888,4.142,4.142,0,0,1,.756,2.654V15h-2.54V8.918a1.648,1.648,0,0,0-.352-1.173,1.574,1.574,0,0,0-1.169-.365,1.747,1.747,0,0,0-1.608.914V15H34.62V5.49Zm12.12,9.686a4.668,4.668,0,0,1-3.406-1.283,4.561,4.561,0,0,1-1.314-3.419v-.246a5.745,5.745,0,0,1,.554-2.562,4.064,4.064,0,0,1,1.569-1.74,4.4,4.4,0,0,1,2.316-.611,3.947,3.947,0,0,1,3.072,1.23,5,5,0,0,1,1.121,3.489v1.037H46.986a2.36,2.36,0,0,0,.743,1.494,2.245,2.245,0,0,0,1.569.563,2.742,2.742,0,0,0,2.294-1.063l1.248,1.4a3.813,3.813,0,0,1-1.547,1.261A5.075,5.075,0,0,1,49.131,15.176Zm-.29-7.813a1.587,1.587,0,0,0-1.226.512,2.651,2.651,0,0,0-.6,1.466h3.533v-.2a1.891,1.891,0,0,0-.457-1.311A1.638,1.638,0,0,0,48.841,7.362Zm9.264.967L59.7,5.49H62.42l-2.707,4.658L62.534,15H59.81l-1.7-2.988L56.426,15H53.692l2.821-4.852-2.7-4.658H56.54ZM66.322,15H63.773V5.49h2.549Zm-2.7-11.971a1.251,1.251,0,0,1,.382-.94,1.648,1.648,0,0,1,2.079,0,1.244,1.244,0,0,1,.387.94,1.247,1.247,0,0,1-.391.949,1.629,1.629,0,0,1-2.065,0A1.247,1.247,0,0,1,63.624,3.029Zm4.395,7.128a5.64,5.64,0,0,1,.545-2.522,3.989,3.989,0,0,1,1.569-1.714,4.577,4.577,0,0,1,2.377-.606,4.33,4.33,0,0,1,3.142,1.178,4.727,4.727,0,0,1,1.358,3.2l.018.65a4.97,4.97,0,0,1-1.222,3.511,4.735,4.735,0,0,1-6.561,0,5.058,5.058,0,0,1-1.226-3.586Zm2.54.18a3.555,3.555,0,0,0,.51,2.073,1.831,1.831,0,0,0,2.9.009,3.89,3.89,0,0,0,.519-2.267,3.519,3.519,0,0,0-.519-2.06,1.686,1.686,0,0,0-1.459-.731,1.658,1.658,0,0,0-1.441.726A3.955,3.955,0,0,0,70.559,10.338ZM73.011,1.5h2.769L73.345,4.225H71.279ZM80.93,5.49l.079,1.1a3.32,3.32,0,0,1,2.733-1.274,2.759,2.759,0,0,1,2.25.888,4.142,4.142,0,0,1,.756,2.654V15h-2.54V8.918a1.648,1.648,0,0,0-.352-1.173,1.574,1.574,0,0,0-1.169-.365,1.747,1.747,0,0,0-1.608.914V15h-2.54V5.49Z" transform="translate(887.676 8743)" fill="#12263f"/>
      <rect id="Rectngulo_44710" data-name="Rectngulo 44710" width="4" height="32" transform="translate(879.676 8727)" fill="#ff2c9c"/>
    </g>
  </g>
</svg>
